<?xml version="1.0" encoding="utf-8"?>
<!-- Generator: Adobe Illustrator 19.0.0, SVG Export Plug-In . SVG Version: 6.00 Build 0)  -->
<svg version="1.1" id="Icons" xmlns="http://www.w3.org/2000/svg" xmlns:xlink="http://www.w3.org/1999/xlink" x="0px" y="0px"
	 viewBox="0 0 60 60" style="enable-background:new 0 0 60 60;" xml:space="preserve">
<style type="text/css">
	.st0{fill:#939598;}
</style>
<g id="XMLID_266_">
	<path id="XMLID_267_" class="st0" d="M13.854,32.026c-1.676,0-3.302,0-4.93,0c-0.204-0.435-0.407-0.872-0.613-1.307
		c-0.175-0.371-0.366-0.735-0.528-1.112c-0.131-0.304-0.302-0.589-0.427-0.893c-0.153-0.373-0.364-0.718-0.51-1.09
		C6.7,27.247,6.498,26.9,6.325,26.538c-0.136-0.285-0.317-0.553-0.572-0.743c-0.224-0.166-0.472-0.306-0.77-0.302
		c-0.211,0.003-0.422,0.001-0.642,0.001c0,2.176,0,4.343,0,6.508c-0.25,0.043-3.57,0.057-4.34,0.02c0-5.406,0-10.812,0-16.239
		c0.062-0.003,0.135-0.01,0.208-0.01c2.333-0.001,4.666,0,6.999-0.001c0.225,0,0.441,0.081,0.671,0.063
		c0.23-0.019,0.467-0.032,0.692,0.005c0.157,0.026,0.311,0.046,0.469,0.048c0.149,0.002,0.293,0.047,0.437,0.07
		c0.218,0.035,0.439,0.095,0.652,0.164c0.203,0.066,0.41,0.134,0.596,0.236c0.207,0.114,0.403,0.254,0.583,0.406
		c0.466,0.394,0.801,0.893,1.038,1.449c0.125,0.294,0.217,0.608,0.27,0.932c0.029,0.177,0,0.368,0.061,0.522
		c0.069,0.174,0.03,0.336,0.043,0.502c0.014,0.182,0.02,0.368,0,0.549c-0.06,0.542-0.108,1.09-0.349,1.59
		c-0.069,0.144-0.107,0.301-0.212,0.436c-0.096,0.124-0.149,0.283-0.243,0.418c-0.246,0.355-0.587,0.695-0.901,0.955
		c-0.214,0.177-0.447,0.322-0.69,0.436c-0.305,0.142-0.637,0.225-0.98,0.341C9.438,24.944,9.513,25,9.597,25.029
		c0.484,0.165,0.843,0.448,1.178,0.853c0.277,0.334,0.508,0.696,0.746,1.054c0.141,0.213,0.267,0.444,0.335,0.699
		c0.016,0.059,0.051,0.113,0.08,0.169c0.264,0.497,0.458,1.025,0.707,1.53c0.169,0.342,0.327,0.694,0.47,1.048
		c0.191,0.471,0.452,0.911,0.603,1.399C13.74,31.856,13.794,31.921,13.854,32.026z M4.384,22.427c0.648,0,1.273,0,1.897,0
		c0.029,0,0.061,0.008,0.086-0.001c0.181-0.067,0.37-0.086,0.558-0.12c0.168-0.03,0.344-0.063,0.497-0.123
		c0.216-0.084,0.443-0.189,0.586-0.397c0.155-0.224,0.3-0.464,0.307-0.736c0.007-0.299,0.042-0.599-0.041-0.902
		c-0.065-0.239-0.185-0.431-0.331-0.614c-0.154-0.192-0.39-0.271-0.609-0.338c-0.251-0.077-0.523-0.114-0.787-0.119
		c-0.711-0.016-1.423-0.005-2.13-0.005c-0.032,0.032-0.059,0.059-0.087,0.087c0,0.789,0,1.578,0,2.368
		c0,0.241-0.003,0.481,0.002,0.722C4.335,22.307,4.366,22.366,4.384,22.427z"/>
	<path id="XMLID_329_" class="st0" d="M44.828,32.027c-1.464,0-2.918,0-4.381,0c0-2.173,0-4.34,0-6.52c-1.586,0-3.162,0-4.748,0
		c0,2.168,0,4.335,0,6.514c-1.451,0-2.892,0-4.339,0c0-5.412,0-10.819,0-16.237c1.415,0,2.829,0,4.26,0
		c0.013,0.014,0.038,0.043,0.077,0.087c0,1.859,0,3.737,0,5.623c1.579,0,3.148,0,4.737,0c0-1.88,0-3.765,0-5.629
		c0.041-0.041,0.061-0.061,0.087-0.087c1.429,0,2.863,0,4.307,0C44.828,21.189,44.828,26.596,44.828,32.027z"/>
	<path id="XMLID_328_" class="st0" d="M47.203,26.441c0.361-0.057,0.702-0.057,1.037-0.092c0.283-0.03,0.571,0.003,0.843-0.055
		c0.247-0.053,0.488-0.039,0.731-0.044c0.15-0.003,0.283-0.086,0.439-0.065c0.152,0.02,0.32,0.041,0.46-0.004
		c0.217-0.07,0.428-0.029,0.64-0.054c0.082,0.382,0.117,0.762,0.253,1.122c0.124,0.326,0.254,0.646,0.526,0.881
		c0.149,0.129,0.275,0.28,0.44,0.398c0.201,0.144,0.425,0.192,0.646,0.263c0.351,0.115,0.719,0.074,1.074,0.049
		c0.282-0.02,0.561-0.134,0.791-0.315c0.311-0.244,0.558-0.54,0.654-0.938c0.006-0.025,0.033-0.046,0.037-0.071
		c0.039-0.255-0.002-0.79-0.119-0.991c-0.195-0.334-0.43-0.63-0.801-0.805c-0.365-0.171-0.737-0.327-1.121-0.434
		c-0.259-0.072-0.521-0.147-0.786-0.206c-0.391-0.087-0.773-0.224-1.152-0.358c-0.454-0.161-0.906-0.329-1.33-0.56
		c-0.382-0.208-0.767-0.408-1.103-0.698c-0.179-0.155-0.366-0.304-0.518-0.481c-0.36-0.422-0.66-0.878-0.833-1.419
		c-0.085-0.267-0.112-0.546-0.219-0.805c-0.014-0.033-0.002-0.076-0.002-0.115c0-0.415-0.019-0.831,0.007-1.244
		c0.018-0.287,0.107-0.567,0.189-0.845c0.094-0.32,0.243-0.615,0.397-0.906c0.119-0.224,0.281-0.43,0.447-0.624
		c0.168-0.197,0.358-0.379,0.551-0.553c0.143-0.129,0.294-0.263,0.465-0.342c0.173-0.08,0.318-0.203,0.493-0.275
		c0.365-0.15,0.728-0.298,1.118-0.375c0.118-0.023,0.237-0.037,0.351-0.062c0.118-0.026,0.244-0.021,0.351-0.057
		c0.196-0.067,0.396-0.016,0.585-0.055c0.512-0.106,1.027-0.029,1.539-0.052c0.263-0.011,0.52,0.098,0.786,0.056
		c0.118,0.081,0.252,0.055,0.381,0.058c0.089,0.131,0.245,0.014,0.365,0.106c0.089,0.069,0.256,0.026,0.372,0.072
		c0.415,0.164,0.832,0.313,1.223,0.544c0.39,0.231,0.717,0.522,0.998,0.856c0.283,0.336,0.531,0.707,0.666,1.139
		c0.045,0.144,0.127,0.277,0.169,0.421c0.07,0.243,0.146,0.485,0.177,0.737c0.124,0.119,0.026,0.284,0.091,0.426
		c0.055,0.119,0.023,0.279,0.031,0.444c-0.105,0-0.199-0.006-0.292,0.001c-0.176,0.015-0.35,0.045-0.526,0.054
		c-0.183,0.01-0.378-0.037-0.547,0.011c-0.256,0.073-0.513,0.003-0.758,0.055c-0.292,0.062-0.589,0.009-0.873,0.06
		c-0.313,0.056-0.622,0.036-0.932,0.05c-0.033,0.002-0.065,0.027-0.119,0.05c-0.041-0.154-0.09-0.314-0.124-0.477
		c-0.087-0.418-0.206-0.698-0.467-0.992c-0.218-0.247-0.249-0.315-0.658-0.492c-0.069-0.118-0.23,0.002-0.299-0.116
		c-0.124,0.02-0.236-0.038-0.353-0.053c-0.161-0.02-0.334-0.034-0.49,0.001c-0.243,0.054-0.495,0.073-0.719,0.22
		c-0.267,0.174-0.497,0.46-0.547,0.757c-0.012,0.07-0.049,0.138-0.055,0.208c-0.022,0.259,0.088,0.481,0.228,0.685
		c0.153,0.221,0.389,0.344,0.629,0.434c0.413,0.154,0.844,0.249,1.27,0.36c0.433,0.113,0.868,0.222,1.292,0.369
		c0.21,0.073,0.431,0.12,0.64,0.201c0.291,0.113,0.587,0.212,0.874,0.334c0.222,0.094,0.445,0.181,0.658,0.299
		c0.342,0.191,0.677,0.387,0.982,0.637c0.161,0.132,0.321,0.264,0.46,0.417c0.167,0.186,0.337,0.376,0.467,0.588
		c0.125,0.203,0.238,0.415,0.327,0.645c0.086,0.224,0.142,0.462,0.254,0.675c0.053,0.101-0.042,0.234,0.076,0.316
		c0.019,0.185,0.049,0.369,0.055,0.555c0.009,0.279-0.002,0.559,0.004,0.839c0.005,0.299-0.053,0.587-0.107,0.88
		c-0.045,0.243-0.102,0.476-0.183,0.708c-0.156,0.45-0.366,0.873-0.618,1.278c-0.157,0.252-0.351,0.474-0.539,0.7
		c-0.149,0.179-0.337,0.331-0.525,0.472c-0.254,0.189-0.511,0.38-0.8,0.512c-0.341,0.155-0.671,0.344-1.054,0.388
		c-0.285,0.159-0.615,0.138-0.919,0.224c-0.203,0.057-0.425,0.059-0.639,0.062c-0.54,0.008-1.08,0.009-1.62,0
		c-0.301-0.005-0.606-0.009-0.901-0.063c-0.285-0.052-0.575-0.086-0.855-0.166c-0.267-0.077-0.54-0.139-0.799-0.236
		c-0.241-0.091-0.472-0.212-0.701-0.332c-0.405-0.212-0.737-0.519-1.03-0.861c-0.409-0.476-0.725-1.021-0.953-1.6
		c-0.163-0.413-0.32-0.838-0.381-1.291c-0.038-0.283-0.116-0.56-0.111-0.85C47.266,26.572,47.227,26.512,47.203,26.441z"/>
	<path id="XMLID_282_" class="st0" d="M21.845,32.033c-0.26,0-0.455-0.016-0.646,0.004c-0.315,0.032-0.626-0.03-0.929-0.075
		c-0.307-0.046-0.617-0.131-0.923-0.202c-0.504-0.117-0.965-0.328-1.427-0.54c-0.254-0.117-0.482-0.287-0.71-0.453
		c-0.367-0.268-0.716-0.56-1.012-0.904c-0.398-0.462-0.723-0.976-0.961-1.538c-0.143-0.338-0.246-0.691-0.328-1.052
		c-0.038-0.166-0.005-0.338-0.068-0.491c-0.074-0.179-0.022-0.357-0.035-0.534c-0.012-0.173-0.003-0.347-0.003-0.52
		c0-0.116-0.009-0.232,0.002-0.347c0.012-0.128-0.03-0.255,0.048-0.386c0.057-0.095-0.043-0.245,0.065-0.348
		c-0.002-0.325,0.13-0.619,0.235-0.915c0.111-0.311,0.252-0.608,0.417-0.898c0.187-0.328,0.414-0.626,0.65-0.912
		c0.184-0.223,0.392-0.434,0.638-0.607c0.187-0.132,0.35-0.303,0.551-0.422c0.178-0.106,0.353-0.218,0.535-0.314
		c0.173-0.092,0.332-0.218,0.538-0.238c0.34-0.214,0.745-0.246,1.11-0.394c0.149-0.06,0.329-0.043,0.494-0.066
		c0.099-0.014,0.196-0.044,0.295-0.055c0.092-0.01,0.177-0.019,0.268-0.051c0.103-0.036,0.229-0.003,0.344-0.01
		c0.272-0.016,0.543-0.049,0.815-0.053c0.175-0.002,0.35,0.042,0.526,0.052c0.173,0.01,0.355-0.03,0.519,0.009
		c0.321,0.077,0.651,0.09,0.974,0.152c0.331,0.063,0.654,0.152,0.969,0.255c0.528,0.172,1.03,0.412,1.489,0.735
		c0.206,0.145,0.393,0.313,0.591,0.465c0.46,0.352,0.772,0.822,1.088,1.287c0.163,0.24,0.28,0.516,0.386,0.793
		c0.067,0.175,0.146,0.346,0.192,0.528c0.058,0.228,0.152,0.449,0.15,0.69c-0.001,0.122,0.081,0.224,0.063,0.353
		c-0.016,0.117-0.031,0.245,0.054,0.351c0,0.328,0,0.656,0,0.983c-0.1,0.136-0.037,0.293-0.059,0.439
		c-0.036,0.234-0.066,0.471-0.129,0.699c-0.133,0.483-0.317,0.946-0.557,1.39c-0.099,0.183-0.209,0.361-0.326,0.528
		c-0.193,0.275-0.414,0.534-0.651,0.772c-0.365,0.366-0.789,0.657-1.233,0.925c-0.381,0.23-0.788,0.38-1.199,0.53
		c-0.143,0.052-0.286,0.105-0.433,0.141c-0.142,0.035-0.291,0.04-0.432,0.076c-0.26,0.067-0.531,0.072-0.789,0.124
		C22.59,32.068,22.183,31.996,21.845,32.033z M19.492,25.97c0.021,0.274-0.004,0.592,0.045,0.915
		c0.049,0.319,0.128,0.631,0.271,0.901c0.154,0.29,0.343,0.568,0.628,0.785c0.317,0.242,0.667,0.366,1.033,0.442
		c0.311,0.064,0.648,0.034,0.951-0.063c0.559-0.178,1.006-0.522,1.288-1.049c0.192-0.36,0.266-0.761,0.351-1.154
		c0.032-0.147-0.002-0.308,0.007-0.461c0.009-0.147,0.048-0.292,0.052-0.439c0.002-0.097-0.043-0.195-0.052-0.294
		c-0.018-0.204-0.016-0.407-0.047-0.614c-0.042-0.283-0.135-0.541-0.239-0.8c-0.148-0.366-0.389-0.65-0.706-0.892
		c-0.333-0.254-0.7-0.377-1.102-0.41c-0.192-0.016-0.396-0.047-0.583,0.053c-0.366,0.005-0.661,0.193-0.929,0.403
		c-0.441,0.346-0.619,0.675-0.806,1.253c-0.048,0.149-0.082,0.294-0.111,0.447c-0.03,0.157-0.05,0.311-0.049,0.469
		C19.493,25.616,19.492,25.77,19.492,25.97z"/>
	<path id="XMLID_325_" class="st0" d="M20.36,42.384c-0.358,0-0.693,0-1.042,0c0-0.101,0-0.196,0-0.29
		c0-1.215,0.009-2.429-0.007-3.644c-0.004-0.304-0.054-0.609-0.217-0.892c-0.16-0.278-0.391-0.397-0.688-0.431
		c-0.086-0.01-0.174,0.004-0.26-0.002c-0.316-0.024-0.596,0.087-0.847,0.259c-0.398,0.272-0.484,0.563-0.592,1.021
		c-0.072,0.303-0.047,0.602-0.049,0.903c-0.007,1.021-0.003,2.042-0.003,3.073c-0.341,0-0.676,0-1.013,0
		c-0.046-0.243-0.063-4.842-0.02-6.007c0.15,0,0.302,0,0.453,0c0.145,0,0.289,0,0.451,0c0.026,0.128,0.009,0.261,0.012,0.392
		c0.003,0.133,0.001,0.267,0.001,0.454c0.336-0.537,0.826-0.774,1.354-0.953c0.052-0.018,0.113-0.008,0.17-0.008
		c0.212-0.001,0.424,0,0.636,0c0.539,0,0.958,0.245,1.29,0.65c0.077,0.094,0.11,0.223,0.174,0.361
		c0.064-0.056,0.134-0.093,0.171-0.152c0.294-0.475,0.773-0.672,1.264-0.851c0.051-0.019,0.113-0.007,0.17-0.007
		c0.231-0.001,0.464-0.016,0.694,0.003c0.347,0.029,0.665,0.128,0.955,0.352c0.283,0.218,0.421,0.505,0.528,0.822
		c0.029,0.085,0.039,0.177,0.06,0.265c0.095,0.403,0.051,0.813,0.056,1.22c0.006,0.414,0.001,0.829,0.001,1.243
		c0,0.733,0,1.465,0,2.219c-0.34,0.023-0.682,0.003-1.042,0.012c0-0.105,0-0.199,0-0.293c0-1.089,0-2.178,0-3.268
		c0-0.106,0.008-0.213-0.002-0.318c-0.01-0.101,0.025-0.199-0.031-0.306c-0.044-0.084-0.003-0.207-0.028-0.306
		c-0.063-0.253-0.169-0.471-0.421-0.61c-0.21-0.116-0.415-0.17-0.654-0.174c-0.316-0.005-0.59,0.074-0.863,0.23
		c-0.242,0.139-0.547,0.56-0.613,0.904c-0.078,0.408-0.044,0.814-0.048,1.221C20.354,40.438,20.36,41.401,20.36,42.384z"/>
	<path id="XMLID_324_" class="st0" d="M6.495,39.488c0.386,0.092,0.758,0.193,1.127,0.284c-0.048,0.156-0.082,0.283-0.126,0.407
		c-0.137,0.392-0.334,0.759-0.58,1.087c-0.156,0.207-0.357,0.389-0.572,0.553c-0.147,0.112-0.309,0.197-0.454,0.309
		c-0.179,0.137-0.408,0.182-0.616,0.254c-0.213,0.073-0.444,0.099-0.671,0.133c-0.254,0.038-0.507,0.073-0.758,0.044
		c-0.444-0.051-0.893-0.072-1.323-0.223c-0.434-0.153-0.831-0.358-1.163-0.686c-0.267-0.263-0.514-0.537-0.695-0.87
		c-0.237-0.437-0.401-0.896-0.503-1.384c-0.061-0.291-0.12-0.579-0.113-0.878c0.006-0.231,0.004-0.463,0.001-0.694
		c-0.011-0.758,0.225-1.451,0.585-2.1c0.257-0.464,0.638-0.833,1.068-1.142c0.334-0.24,0.855-0.416,1.285-0.53
		c0.301-0.08,0.6-0.117,0.908-0.111c0.222,0.005,0.444-0.008,0.665,0.003c0.356,0.018,0.696,0.113,1.028,0.241
		c0.484,0.187,0.891,0.491,1.222,0.883c0.202,0.24,0.359,0.515,0.481,0.811c0.065,0.156,0.156,0.3,0.168,0.466
		c-0.366,0.084-0.717,0.165-1.089,0.251c-0.044-0.118-0.083-0.255-0.144-0.382c-0.267-0.552-0.665-1.054-1.347-1.236
		c-0.025-0.007-0.047-0.053-0.064-0.05c-0.126,0.023-0.236-0.052-0.353-0.057c-0.298-0.011-0.604-0.042-0.895,0.005
		c-0.396,0.065-0.79,0.167-1.13,0.409c-0.393,0.28-0.693,0.633-0.897,1.07c-0.104,0.222-0.15,0.459-0.215,0.692
		c-0.16,0.573-0.148,1.163-0.106,1.744c0.036,0.501,0.151,1,0.396,1.452c0.151,0.278,0.323,0.534,0.578,0.745
		c0.281,0.232,0.595,0.377,0.925,0.498c0.152,0.056,0.311,0.107,0.482,0.096c0.079-0.005,0.157-0.007,0.243,0.041
		c0.077,0.043,0.209,0.023,0.301-0.011c0.055-0.021,0.106-0.029,0.16-0.032c0.458-0.026,0.85-0.207,1.226-0.466
		c0.482-0.332,0.681-0.833,0.885-1.338C6.446,39.694,6.462,39.605,6.495,39.488z"/>
	<path id="XMLID_283_" class="st0" d="M25.63,44.753c0-2.793,0-5.576,0-8.37c0.298,0,0.594,0,0.91,0
		c0.026,0.107,0.008,0.23,0.011,0.351c0.003,0.124,0.001,0.248,0.001,0.42c0.172-0.172,0.316-0.316,0.46-0.46
		c0.159-0.158,0.498-0.314,0.738-0.383c0.367-0.106,0.737-0.025,1.105-0.054c0.462,0.114,0.892,0.284,1.248,0.621
		c0.26,0.247,0.472,0.525,0.604,0.85c0.118,0.29,0.208,0.591,0.256,0.909c0.041,0.275,0.033,0.544,0.045,0.816
		c0.005,0.125,0.008,0.251-0.001,0.376c-0.009,0.118-0.007,0.252-0.063,0.348c-0.063,0.108-0.003,0.246-0.108,0.333
		c-0.109,0.619-0.474,1.112-0.843,1.411c-0.213,0.173-0.447,0.325-0.72,0.422c-0.254,0.09-0.498,0.175-0.77,0.167
		c-0.069-0.002-0.144,0.063-0.206,0.05c-0.3-0.062-0.615-0.061-0.893-0.214c-0.192-0.106-0.379-0.218-0.541-0.368
		c-0.056-0.052-0.109-0.109-0.164-0.163c-0.007,0.006-0.015,0.011-0.02,0.018c-0.005,0.007-0.01,0.016-0.01,0.025
		c0,0.962,0,1.925,0,2.897C26.324,44.753,25.99,44.753,25.63,44.753z M28.742,37.092c-0.123-0.052-0.211-0.016-0.308-0.068
		c-0.132-0.07-0.287,0.026-0.431,0.037c-0.223,0.017-0.388,0.14-0.562,0.25c-0.084,0.054-0.176,0.123-0.232,0.19
		c-0.063,0.076-0.134,0.152-0.194,0.233c-0.06,0.08-0.142,0.157-0.166,0.248c-0.04,0.149-0.129,0.278-0.157,0.426
		c-0.031,0.161-0.089,0.316-0.087,0.487c0.003,0.154-0.07,0.305-0.053,0.467c0.017,0.166-0.004,0.33,0.051,0.498
		c0.047,0.144,0.032,0.309,0.057,0.466c0.08,0.496,0.39,0.826,0.739,1.137c0.053,0.047,0.117,0.086,0.183,0.116
		c0.211,0.095,0.694,0.171,0.931,0.11c0.152-0.039,0.312-0.064,0.455-0.158c0.08-0.053,0.133-0.136,0.215-0.174
		c0.226-0.104,0.327-0.309,0.448-0.504c0.083-0.134,0.121-0.278,0.164-0.424c0.046-0.155,0.135-0.306,0.111-0.471
		c-0.024-0.166,0.069-0.308,0.063-0.468c-0.007-0.186,0.022-0.375-0.059-0.554c0.032-0.311-0.096-0.591-0.174-0.881
		c-0.059-0.218-0.242-0.359-0.35-0.548c-0.024-0.042-0.093-0.056-0.128-0.095C29.111,37.253,28.911,37.18,28.742,37.092z"/>
	<path id="XMLID_284_" class="st0" d="M42.98,42.385c-0.365,0-0.719,0-1.073,0c-0.034-0.112-0.072-0.223-0.101-0.335
		c-0.029-0.112-0.051-0.225-0.084-0.375c-0.168,0.118-0.3,0.221-0.442,0.307c-0.346,0.208-0.705,0.383-1.105,0.475
		c-0.149,0.034-0.292,0.045-0.44,0.051c-0.063,0.003-0.132-0.023-0.186,0.045c-0.016,0.02-0.072,0.016-0.108,0.011
		c-0.108-0.016-0.215-0.045-0.323-0.054c-0.105-0.01-0.223,0.027-0.316-0.008c-0.233-0.088-0.475-0.144-0.701-0.265
		c-0.31-0.165-0.508-0.414-0.667-0.704c-0.067-0.123-0.103-0.272-0.116-0.412c-0.019-0.21-0.015-0.424,0-0.635
		c0.007-0.104,0.055-0.207,0.097-0.305c0.185-0.433,0.495-0.75,0.93-0.926c0.249-0.101,0.497-0.2,0.776-0.226
		c0.302-0.028,0.599-0.114,0.907-0.108c0.117-0.082,0.258-0.031,0.379-0.064c0.118-0.032,0.237-0.033,0.353-0.056
		c0.298-0.061,0.591-0.146,0.898-0.224c-0.016-0.241,0.005-0.459-0.055-0.684c-0.085-0.32-0.269-0.522-0.591-0.654
		c-0.372-0.153-0.753-0.181-1.144-0.166c-0.089,0.003-0.176,0.04-0.265,0.054c-0.081,0.013-0.175-0.031-0.236,0.059
		c-0.493,0.133-0.595,0.377-0.777,0.758c-0.038,0.08-0.049,0.173-0.081,0.288c-0.16-0.02-0.331-0.039-0.502-0.063
		c-0.164-0.023-0.328-0.049-0.518-0.078c0.024-0.117,0.031-0.254,0.081-0.373c0.126-0.304,0.272-0.595,0.525-0.825
		c0.283-0.258,0.626-0.391,0.974-0.513c0.178-0.062,0.37-0.108,0.558-0.115c0.452-0.016,0.906-0.021,1.358,0.005
		c0.124,0.007,0.264,0.046,0.395,0.082c0.227,0.062,0.443,0.149,0.644,0.26c0.315,0.174,0.533,0.571,0.622,0.946
		c0.042,0.178,0.05,0.35,0.05,0.527c0.001,0.886,0.005,1.773-0.002,2.659c-0.002,0.312,0.064,0.617,0.073,0.93
		C42.774,41.903,42.9,42.131,42.98,42.385z M41.655,39.368c-0.185,0.05-0.343,0.096-0.494,0.145
		c-0.303,0.098-0.624,0.108-0.922,0.216c-0.181-0.038-0.348,0.05-0.525,0.063c-0.179,0.013-0.352,0.085-0.531,0.107
		c-0.37,0.047-0.817,0.528-0.776,0.915c0.038,0.357,0.274,0.713,0.627,0.823c0.201,0.063,0.404,0.109,0.617,0.12
		c0.162,0.008,0.313-0.035,0.468-0.061c0.117-0.02,0.244-0.017,0.349-0.064c0.341-0.152,0.651-0.353,0.886-0.651
		c0.05-0.063,0.095-0.134,0.125-0.208c0.108-0.273,0.129-0.567,0.171-0.853C41.675,39.752,41.655,39.576,41.655,39.368z"/>
	<path id="XMLID_285_" class="st0" d="M11.463,36.257c0.116,0,0.232-0.004,0.347,0.001c0.444,0.019,0.847,0.171,1.222,0.399
		c0.206,0.126,0.4,0.268,0.569,0.447c0.253,0.27,0.385,0.611,0.567,0.923c-0.023,0.226,0.169,0.414,0.116,0.646
		c0.121,0.363,0.078,0.741,0.043,1.103c-0.033,0.345-0.037,0.713-0.217,1.034c0.005,0.208-0.141,0.354-0.239,0.507
		c-0.294,0.464-0.719,0.796-1.226,0.995c-0.284,0.111-0.581,0.226-0.903,0.198c-0.061-0.005-0.124,0.022-0.187,0.035
		c-0.026,0.006-0.053,0.022-0.078,0.019c-0.127-0.016-0.254-0.037-0.381-0.057c-0.119-0.018-0.242,0.036-0.36-0.04
		c-0.057-0.036-0.14-0.032-0.212-0.045c-0.271-0.047-0.504-0.184-0.734-0.322c-0.256-0.153-0.489-0.334-0.659-0.589
		c-0.086-0.128-0.191-0.241-0.255-0.387c-0.115-0.264-0.269-0.514-0.263-0.817c-0.128-0.139-0.028-0.321-0.091-0.483
		c-0.059-0.151-0.03-0.339-0.022-0.51c0.007-0.147-0.03-0.291,0.046-0.443c0.058-0.115-0.031-0.28,0.067-0.405
		c-0.016-0.237,0.084-0.446,0.178-0.649c0.137-0.3,0.301-0.592,0.555-0.81c0.179-0.154,0.37-0.295,0.576-0.418
		c0.204-0.122,0.431-0.174,0.643-0.266c0.13-0.057,0.289-0.053,0.436-0.063C11.154,36.249,11.309,36.257,11.463,36.257z
		 M13.242,39.396c0-0.077,0.001-0.154,0-0.231c-0.002-0.206,0.024-0.415-0.06-0.611c-0.05-0.116-0.053-0.242-0.107-0.36
		c-0.139-0.303-0.313-0.557-0.586-0.77c-0.258-0.201-0.543-0.313-0.84-0.346c-0.474-0.053-0.933,0.029-1.315,0.373
		c-0.222,0.2-0.411,0.39-0.523,0.647c-0.123,0.284-0.203,0.582-0.213,0.893c-0.008,0.231,0.005,0.462-0.003,0.693
		c-0.009,0.253,0.052,0.494,0.12,0.731c0.123,0.427,0.36,0.781,0.746,1.013c0.257,0.155,0.529,0.279,0.842,0.268
		c0.115-0.004,0.231,0.001,0.347-0.001c0.252-0.004,0.478-0.097,0.686-0.226c0.339-0.209,0.586-0.5,0.733-0.875
		c0.036-0.092,0.172-0.623,0.173-0.709C13.243,39.724,13.242,39.56,13.242,39.396z"/>
	<path id="XMLID_317_" class="st0" d="M45.416,42.383c-0.367,0-0.721,0-1.087,0c0-1.995,0-3.994,0-6.002c0.315,0,0.63,0,0.966,0
		c0,0.258,0,0.523,0,0.821c0.358-0.468,0.772-0.771,1.324-0.896c0.286-0.065,0.564-0.025,0.845-0.048
		c0.448-0.037,0.84,0.147,1.21,0.356c0.171,0.097,0.319,0.26,0.418,0.452c0.142,0.277,0.223,0.561,0.272,0.874
		c0.068,0.439,0.036,0.873,0.041,1.308c0.012,1.04,0.004,2.08,0.004,3.132c-0.346,0-0.687,0-1.042,0c0-0.099,0-0.193,0-0.288
		c0-1.147,0.007-2.293-0.005-3.44c-0.003-0.283-0.069-0.566-0.113-0.848c-0.008-0.05-0.041-0.099-0.072-0.143
		c-0.15-0.214-0.522-0.485-0.763-0.528c-0.14-0.025-0.288-0.017-0.431-0.004c-0.127,0.012-0.269-0.064-0.381,0.055
		c-0.319-0.007-0.539,0.208-0.767,0.376c-0.155,0.114-0.239,0.316-0.301,0.506c-0.075,0.227-0.124,0.457-0.122,0.703
		c0.008,1.118,0.004,2.236,0.004,3.353C45.416,42.205,45.416,42.29,45.416,42.383z"/>
	<path id="XMLID_316_" class="st0" d="M51.193,34.872c0.336-0.198,0.676-0.398,1.048-0.618c0,0.728,0,1.416,0,2.115
		c0.374,0,0.727,0,1.092,0c0,0.247,0,0.485,0,0.736c0.005-0.006,0,0.002-0.007,0.008c-0.007,0.005-0.016,0.011-0.024,0.011
		c-0.326,0.001-0.653,0-0.97,0c-0.03,0.03-0.05,0.05-0.087,0.087c0,0.068,0,0.152,0,0.237c0,0.925-0.003,1.85,0.002,2.775
		c0.002,0.348-0.046,0.701,0.084,1.066c0.059,0.059,0.141,0.141,0.232,0.232c0.247,0,0.505,0,0.763,0
		c0.044,0.281,0.086,0.551,0.129,0.826c-0.084,0.087-0.194,0.107-0.317,0.102c-0.196-0.008-0.382,0.091-0.583,0.057
		c-0.267-0.045-0.537-0.072-0.781-0.21c-0.321-0.183-0.475-0.45-0.52-0.823c-0.085-0.715-0.038-1.43-0.049-2.145
		c-0.01-0.713-0.002-1.426-0.003-2.139c0-0.017-0.01-0.034-0.018-0.061c-0.235,0-0.473,0-0.723,0c0-0.255,0-0.5,0-0.755
		c0.245,0,0.483,0,0.731,0C51.193,35.875,51.193,35.386,51.193,34.872z"/>
	<path id="XMLID_315_" class="st0" d="M33.312,42.386c-0.344,0-0.678,0-1.022,0c0-2.768,0-5.532,0-8.317
		c0.33-0.025,0.672-0.003,1.022-0.013C33.312,36.832,33.312,39.595,33.312,42.386z"/>
	<path id="XMLID_314_" class="st0" d="M36.032,42.386c-0.344,0-0.679,0-1.023,0c0-1.997,0-3.99,0-6.005
		c0.331-0.018,0.672-0.002,1.023-0.01C36.032,38.375,36.032,40.367,36.032,42.386z"/>
	<path id="XMLID_313_" class="st0" d="M35.005,35.206c0-0.383,0-0.755,0-1.138c0.339,0,0.673,0,1.027,0
		c0.022,0.369,0.003,0.749,0.011,1.138C35.699,35.206,35.364,35.206,35.005,35.206z"/>
</g>
<g id="XMLID_147_">
</g>
<g id="XMLID_148_">
</g>
<g id="XMLID_152_">
</g>
<g id="XMLID_156_">
</g>
<g id="XMLID_157_">
</g>
<g id="XMLID_158_">
</g>
</svg>
