<?xml version="1.0" encoding="utf-8"?>
<!-- Generator: Adobe Illustrator 19.0.0, SVG Export Plug-In . SVG Version: 6.00 Build 0)  -->
<svg version="1.1" id="Icons" xmlns="http://www.w3.org/2000/svg" xmlns:xlink="http://www.w3.org/1999/xlink" x="0px" y="0px"
	 viewBox="0 0 60 60" style="enable-background:new 0 0 60 60;" xml:space="preserve">
<style type="text/css">
	.st0{opacity:0.8;fill:#939598;}
</style>
<g id="XMLID_798_">
	<path id="XMLID_799_" class="st0" d="M31.694,16.884c0.14-0.084,0.21-0.249,0.21-0.493v-0.874c0-0.244-0.07-0.408-0.21-0.493
		c-0.103-0.057-0.285-0.085-0.546-0.085h-3.78v2.03h3.78C31.409,16.969,31.591,16.941,31.694,16.884z"/>
	<path id="XMLID_802_" class="st0" d="M30,2.563c-9.804,0-17.755,7.949-17.755,17.756c0,9.804,7.951,17.756,17.755,17.756
		c9.807,0,17.755-7.952,17.755-17.756C47.755,10.512,39.807,2.563,30,2.563z M31.876,20.931l-2.912-2.73h-1.596v2.73h-1.652v-7.224
		h6.188c1.083,0,1.624,0.467,1.624,1.399v1.694c0,0.934-0.542,1.399-1.624,1.399h-0.952l3.332,2.73H31.876z"/>
</g>
<path id="XMLID_691_" class="st0" d="M17.755,21.924C7.947,21.924,0,29.873,0,39.68c0,9.807,7.947,17.756,17.755,17.756
	c9.806,0,17.758-7.949,17.758-17.756C35.512,29.873,27.56,21.924,17.755,21.924z M20.04,39.874l-1.638,0.294v-0.812h-5.25v4.577
	h5.25v-1.609h-2.744v-1.232h4.382v2.492c0,0.672-0.126,1.125-0.378,1.358c-0.252,0.233-0.723,0.35-1.414,0.35h-4.984
	c-0.69,0-1.162-0.116-1.414-0.35c-0.252-0.233-0.378-0.687-0.378-1.358v-3.808c0-0.673,0.126-1.125,0.378-1.358
	c0.252-0.233,0.724-0.35,1.414-0.35h4.984c0.672,0,1.138,0.114,1.4,0.343c0.261,0.229,0.392,0.66,0.392,1.295V39.874z"/>
<g id="XMLID_766_">
	<path id="XMLID_770_" class="st0" d="M45.799,42.157h-3.836v1.834h3.836c0.28,0,0.476-0.033,0.588-0.099
		c0.149-0.093,0.224-0.274,0.224-0.546V42.8c0-0.271-0.075-0.452-0.224-0.546C46.275,42.189,46.079,42.157,45.799,42.157z"/>
	<path id="XMLID_771_" class="st0" d="M46.569,40.449v-0.687c0-0.345-0.257-0.518-0.77-0.518h-3.836v1.722h3.836
		C46.312,40.966,46.569,40.793,46.569,40.449z"/>
	<path id="XMLID_774_" class="st0" d="M42.245,21.924c-9.806,0-17.756,7.949-17.756,17.756c0,9.807,7.95,17.756,17.756,17.756
		C52.053,57.437,60,49.488,60,39.68C60,29.873,52.053,21.924,42.245,21.924z M48.178,43.878c0,0.943-0.709,1.414-2.128,1.414h-5.74
		v-7.224h6.188c1.083,0,1.624,0.467,1.624,1.399v0.882c0,0.71-0.416,1.116-1.246,1.219c0.868,0.111,1.302,0.573,1.302,1.386V43.878z
		"/>
</g>
<g id="XMLID_120_">
</g>
<g id="XMLID_121_">
</g>
<g id="XMLID_122_">
</g>
<g id="XMLID_123_">
</g>
<g id="XMLID_124_">
</g>
<g id="XMLID_126_">
</g>
</svg>
