<?xml version="1.0" encoding="utf-8"?>
<!-- Generator: Adobe Illustrator 19.0.0, SVG Export Plug-In . SVG Version: 6.00 Build 0)  -->
<svg version="1.1" id="Icons" xmlns="http://www.w3.org/2000/svg" xmlns:xlink="http://www.w3.org/1999/xlink" x="0px" y="0px"
	 viewBox="0 0 60 60" style="enable-background:new 0 0 60 60;" xml:space="preserve">
<style type="text/css">
	.st0{fill:#CCCCCC;}
	.st1{fill:#939598;}
</style>
<path id="XMLID_1851_" class="st0" d="M50.1,0H50H10H9.9C4.4,0,0,4.4,0,9.9V10v40c0,5.5,4.5,10,10,10h40c5.5,0,10-4.5,10-10V10V9.9
	C60,4.4,55.6,0,50.1,0z M6.79,6.522h46.821V53.21H6.79V6.522z"/>
<path id="XMLID_1890_" class="st0" d="M44.8,18.376c3.953,21.894-13.292,28.498-13.292,28.498l4.764,1.588
	C56.577,35.866,44.8,18.376,44.8,18.376z"/>
<path id="XMLID_1908_" class="st0" d="M10.853,20.872c5.825-11.568,15.804-9.371,15.804-9.371l-3.037-2.903
	C10.394,9.288,10.853,20.872,10.853,20.872z"/>
<rect id="XMLID_1906_" x="15.007" y="27.718" transform="matrix(-0.7071 0.7071 -0.7071 -0.7071 72.4264 30)" class="st1" width="29.986" height="4.565"/>
<rect id="XMLID_1907_" x="13.866" y="27.718" transform="matrix(-0.7071 -0.7071 0.7071 -0.7071 30 72.4264)" class="st1" width="32.268" height="4.565"/>
<g id="XMLID_22_">
</g>
<g id="XMLID_48_">
</g>
<g id="XMLID_49_">
</g>
<g id="XMLID_50_">
</g>
<g id="XMLID_51_">
</g>
<g id="XMLID_52_">
</g>
</svg>
