<?xml version="1.0" encoding="utf-8"?>
<!-- Generator: Adobe Illustrator 19.0.0, SVG Export Plug-In . SVG Version: 6.00 Build 0)  -->
<svg version="1.1" id="Icons" xmlns="http://www.w3.org/2000/svg" xmlns:xlink="http://www.w3.org/1999/xlink" x="0px" y="0px"
	 viewBox="0 0 60 60" style="enable-background:new 0 0 60 60;" xml:space="preserve">
<style type="text/css">
	.st0{fill:#CCCCCC;}
	.st1{fill:#939598;}
</style>
<path id="XMLID_1099_" class="st0" d="M29.949,44.004c1.217,0.002,2.203-0.982,2.204-2.198l0.047-34.081
	c0.002-1.215-0.981-2.202-2.198-2.204c-1.216-0.002-2.202,0.982-2.203,2.198L27.752,41.8C27.75,43.016,28.733,44.003,29.949,44.004z
	"/>
<path id="XMLID_1054_" class="st0" d="M39.776,53.53c0.834-0.887,0.79-2.279-0.096-3.111L14.852,27.074
	c-0.886-0.833-2.277-0.791-3.111,0.096c-0.833,0.886-0.789,2.278,0.096,3.111l24.829,23.345
	C37.551,54.458,38.943,54.416,39.776,53.53z"/>
<path id="XMLID_810_" class="st0" d="M25.879,49.665c0.956,0.754,2.339,0.589,3.091-0.366l21.096-26.767
	c0.752-0.955,0.59-2.338-0.367-3.091c-0.955-0.753-2.338-0.588-3.09,0.367L25.513,46.574C24.761,47.529,24.924,48.912,25.879,49.665
	z"/>
<circle id="XMLID_463_" class="st0" cx="30.405" cy="44.897" r="14.955"/>
<path id="XMLID_1048_" class="st0" d="M15.971,31.179c0.834-0.887,1.268-1.829,0.973-2.107l-3.16-3.002
	c-0.296-0.278-1.209,0.213-2.043,1.1c-0.833,0.886-1.267,1.828-0.972,2.106l3.16,3.002C14.225,32.556,15.138,32.065,15.971,31.179z"
	/>
<path id="XMLID_963_" class="st1" d="M0,9.961v30.618h60V9.961H0z M56.934,11.66l-14.196,26.8h-8.744l14.194-26.8H56.934z
	 M42.09,11.591L27.886,38.395h-8.75l14.204-26.804H42.09z M2.396,11.927l10.271-0.03L2.344,31.237L2.396,11.927z M13.658,38.681
	H4.911l14.196-26.804h8.748L13.658,38.681z M58.79,38.22L48.52,38.212l10.323-19.336L58.79,38.22z"/>
<g id="XMLID_1052_">
	<path id="XMLID_1053_" class="st0" d="M7.506,23.968l0.968,8.982c0.053,0.673,0.58,0.71,1.17,0.082l7.819-8.316
		c0.59-0.628,0.521-1.151-0.154-1.163l-9.024-0.414c0,0-0.34,0.006-0.567,0.248C7.491,23.629,7.506,23.968,7.506,23.968z"/>
</g>
<g id="XMLID_807_">
	<path id="XMLID_808_" class="st0" d="M52.52,14.943l-8.863,1.747c-0.666,0.112-0.657,0.639,0.02,1.173l8.965,7.066
		c0.677,0.533,1.192,0.419,1.145-0.254l-0.373-9.026c0,0-0.036-0.338-0.296-0.544C52.857,14.899,52.52,14.943,52.52,14.943z"/>
</g>
<path id="XMLID_1098_" class="st0" d="M29.95,27c1.217,0.002,2.203-1.209,2.205-2.705L32.2,8.233
	c0.002-1.496-0.98-2.709-2.198-2.711c-1.216-0.002-2.202,1.21-2.204,2.705l-0.044,16.062C27.752,25.785,28.734,26.999,29.95,27z"/>
<g id="XMLID_1050_">
	<path id="XMLID_1051_" class="st0" d="M29.441,0.243l-5.89,6.85c-0.455,0.499-0.121,0.909,0.741,0.91l11.415,0.016
		c0.861,0.001,1.196-0.407,0.743-0.908l-5.871-6.866c0,0-0.237-0.244-0.569-0.245C29.679,0,29.441,0.243,29.441,0.243z"/>
</g>
<g id="XMLID_22_">
</g>
<g id="XMLID_69_">
</g>
<g id="XMLID_70_">
</g>
<g id="XMLID_71_">
</g>
<g id="XMLID_73_">
</g>
<g id="XMLID_74_">
</g>
</svg>
