<?xml version="1.0" encoding="utf-8"?>
<!-- Generator: Adobe Illustrator 19.0.0, SVG Export Plug-In . SVG Version: 6.00 Build 0)  -->
<svg version="1.1" id="Icons" xmlns="http://www.w3.org/2000/svg" xmlns:xlink="http://www.w3.org/1999/xlink" x="0px" y="0px"
	 viewBox="0 0 60 60" style="enable-background:new 0 0 60 60;" xml:space="preserve">
<style type="text/css">
	.st0{fill:#CCCCCC;}
	.st1{fill:#939598;}
	.st2{fill:none;}
	.st3{fill:#FFFFFF;}
</style>
<g id="XMLID_350_">
	<g id="XMLID_880_">
		<path id="XMLID_881_" class="st0" d="M9.799,17.497v2.858H4.271v3.035c0.691-0.817,1.581-1.225,2.669-1.225
			c1.229,0,2.158,0.344,2.787,1.032c0.629,0.688,0.943,2.01,0.943,3.967v2.549c0,1.265-0.061,2.194-0.182,2.787
			s-0.381,1.14-0.778,1.644c-0.397,0.504-0.951,0.89-1.661,1.159c-0.71,0.269-1.576,0.402-2.598,0.402
			c-1.148,0-2.16-0.2-3.035-0.601c-0.876-0.4-1.497-0.998-1.865-1.793C0.184,32.515,0,31.287,0,29.625v-0.971h4.458v1.114
			c0,1.155,0.04,1.975,0.121,2.461c0.081,0.485,0.36,0.728,0.839,0.728c0.221,0,0.398-0.07,0.535-0.21
			c0.136-0.14,0.21-0.29,0.221-0.453c0.011-0.162,0.023-0.864,0.039-2.108v-3.542c0-0.669-0.07-1.126-0.21-1.368
			c-0.14-0.243-0.372-0.364-0.695-0.364c-0.206,0-0.379,0.062-0.518,0.187c-0.141,0.125-0.23,0.26-0.27,0.403
			c-0.041,0.144-0.061,0.476-0.061,0.999H0.044l0.187-9.004H9.799z"/>
		<path id="XMLID_351_" class="st0" d="M21.915,17.497v2.858h-5.528v3.035c0.691-0.817,1.581-1.225,2.669-1.225
			c1.229,0,2.158,0.344,2.787,1.032c0.629,0.688,0.943,2.01,0.943,3.967v2.549c0,1.265-0.061,2.194-0.182,2.787
			c-0.121,0.592-0.381,1.14-0.778,1.644c-0.397,0.504-0.951,0.89-1.661,1.159c-0.71,0.269-1.576,0.402-2.598,0.402
			c-1.148,0-2.16-0.2-3.035-0.601c-0.876-0.4-1.497-0.998-1.865-1.793c-0.368-0.795-0.552-2.023-0.552-3.685v-0.971h4.458v1.114
			c0,1.155,0.04,1.975,0.121,2.461c0.081,0.485,0.36,0.728,0.839,0.728c0.221,0,0.398-0.07,0.535-0.21
			c0.136-0.14,0.21-0.29,0.221-0.453c0.011-0.162,0.023-0.864,0.039-2.108v-3.542c0-0.669-0.07-1.126-0.21-1.368
			c-0.14-0.243-0.372-0.364-0.695-0.364c-0.206,0-0.379,0.062-0.518,0.187c-0.141,0.125-0.23,0.26-0.27,0.403
			c-0.041,0.144-0.061,0.476-0.061,0.999h-4.414l0.187-9.004H21.915z"/>
		<path id="XMLID_886_" class="st0" d="M34.825,23.544v5.959c0,1.354-0.073,2.339-0.221,2.957c-0.147,0.618-0.452,1.196-0.916,1.733
			c-0.464,0.537-1.022,0.924-1.677,1.159c-0.655,0.235-1.386,0.352-2.196,0.352c-1.066,0-1.953-0.123-2.66-0.369
			c-0.706-0.247-1.268-0.631-1.688-1.153c-0.419-0.522-0.717-1.072-0.893-1.65c-0.177-0.577-0.265-1.495-0.265-2.753v-6.235
			c0-1.64,0.142-2.869,0.425-3.685c0.283-0.817,0.846-1.471,1.688-1.964s1.863-0.74,3.062-0.74c0.978,0,1.854,0.171,2.626,0.513
			c0.772,0.342,1.349,0.76,1.732,1.253c0.383,0.493,0.641,1.048,0.778,1.666C34.756,21.205,34.825,22.191,34.825,23.544z
			 M30.367,22.044c0-0.949-0.046-1.543-0.138-1.782c-0.092-0.239-0.308-0.358-0.645-0.358c-0.331,0-0.551,0.126-0.657,0.38
			c-0.106,0.254-0.16,0.841-0.16,1.76v8.718c0,1.037,0.05,1.662,0.149,1.876c0.1,0.213,0.314,0.32,0.645,0.32
			s0.548-0.125,0.651-0.375c0.103-0.25,0.154-0.813,0.154-1.688V22.044z"/>
		<path id="XMLID_889_" class="st0" d="M46.941,23.544v5.959c0,1.354-0.073,2.339-0.221,2.957c-0.147,0.618-0.452,1.196-0.916,1.733
			c-0.464,0.537-1.022,0.924-1.677,1.159s-1.386,0.352-2.196,0.352c-1.066,0-1.953-0.123-2.66-0.369
			c-0.706-0.247-1.268-0.631-1.688-1.153c-0.419-0.522-0.717-1.072-0.893-1.65c-0.177-0.577-0.265-1.495-0.265-2.753v-6.235
			c0-1.64,0.142-2.869,0.425-3.685c0.283-0.817,0.846-1.471,1.688-1.964c0.843-0.493,1.863-0.74,3.062-0.74
			c0.978,0,1.854,0.171,2.626,0.513c0.772,0.342,1.349,0.76,1.732,1.253c0.383,0.493,0.641,1.048,0.778,1.666
			C46.872,21.205,46.941,22.191,46.941,23.544z M42.483,22.044c0-0.949-0.046-1.543-0.138-1.782
			c-0.092-0.239-0.308-0.358-0.645-0.358c-0.331,0-0.551,0.126-0.657,0.38c-0.106,0.254-0.16,0.841-0.16,1.76v8.718
			c0,1.037,0.05,1.662,0.149,1.876c0.1,0.213,0.314,0.32,0.645,0.32c0.331,0,0.548-0.125,0.651-0.375
			c0.103-0.25,0.154-0.813,0.154-1.688V22.044z"/>
		<path id="XMLID_892_" class="st0" d="M59.746,17.497l-2.665,8.066L60,35.362h-4.8l-1.881-7.658v7.658h-4.646V17.497h4.646v6.941
			l2.069-6.941H59.746z"/>
	</g>
	<rect id="XMLID_287_" y="35.355" class="st1" width="60" height="7.49"/>
	<path id="XMLID_593_" class="st2" d="M18.38,37.695h-2.536v1.287h2.683c0.438,0,0.599-0.176,0.599-0.556v-0.176
		C19.125,37.783,18.892,37.695,18.38,37.695z"/>
	<path id="XMLID_594_" class="st2" d="M3.734,37.695H1.352v1.331h2.521c0.38,0,0.526-0.249,0.526-0.563v-0.204
		C4.399,37.9,4.224,37.695,3.734,37.695z"/>
	<path id="XMLID_597_" class="st3" d="M4.15,36.38H0v5.292h1.352v-1.33h3.223c1.148,0,1.491-0.906,1.491-1.696v-0.453
		C6.065,37.155,5.693,36.38,4.15,36.38z M4.399,38.463c0,0.314-0.146,0.563-0.526,0.563H1.352v-1.331h2.383
		c0.489,0,0.665,0.205,0.665,0.563V38.463z"/>
	<path id="XMLID_598_" class="st3" d="M11.772,39.435c0,0.672-0.241,0.936-0.907,0.936H9.258c-0.665,0-0.906-0.264-0.906-0.936
		V36.38H6.729v3.406c0,1.315,0.68,1.944,2.171,1.944h2.324c1.491,0,2.171-0.629,2.171-1.944V36.38h-1.622V39.435z"/>
	<path id="XMLID_601_" class="st3" d="M19.118,36.38h-4.897v5.292h1.623v-1.374h2.551c0.504,0,0.665,0.183,0.665,0.738v0.636h1.623
		v-0.899c0-0.869-0.402-1.081-0.885-1.169v-0.015c0.745-0.176,0.906-0.592,0.906-1.301v-0.337
		C20.704,37.001,20.368,36.38,19.118,36.38z M19.125,38.427c0,0.38-0.16,0.556-0.599,0.556h-2.683v-1.287h2.536
		c0.512,0,0.745,0.088,0.745,0.556V38.427z"/>
	<polygon id="XMLID_602_" class="st3" points="23.138,39.553 27.084,39.553 27.084,38.456 23.138,38.456 23.138,37.608 
		27.304,37.608 27.304,36.38 21.515,36.38 21.515,41.672 27.398,41.672 27.398,40.4 23.138,40.4 	"/>
	<polygon id="XMLID_603_" class="st3" points="34.742,40.268 34.728,40.268 33.383,36.38 31.877,36.38 30.532,40.268 30.518,40.268 
		29.392,36.38 27.806,36.38 29.523,41.672 31.388,41.672 32.623,38.178 32.638,38.178 33.872,41.672 35.736,41.672 37.454,36.38 
		35.868,36.38 	"/>
	<polygon id="XMLID_604_" class="st3" points="43.02,38.265 39.599,38.265 39.599,36.38 37.976,36.38 37.976,41.672 39.599,41.672 
		39.599,39.669 43.02,39.669 43.02,41.672 44.642,41.672 44.642,36.38 43.02,36.38 	"/>
	<rect id="XMLID_606_" x="45.527" y="36.38" class="st3" width="1.623" height="5.292"/>
	<polygon id="XMLID_607_" class="st3" points="47.76,37.695 50.04,37.695 50.04,41.672 51.662,41.672 51.662,37.695 53.942,37.695 
		53.942,36.38 47.76,36.38 	"/>
	<polygon id="XMLID_569_" class="st3" points="56.138,40.4 56.138,39.553 60,39.553 60,38.456 56.138,38.456 56.138,37.608 
		60,37.608 60,36.38 54.515,36.38 54.515,41.672 60,41.672 60,40.4 	"/>
</g>
<g id="XMLID_147_">
</g>
<g id="XMLID_148_">
</g>
<g id="XMLID_152_">
</g>
<g id="XMLID_154_">
</g>
<g id="XMLID_155_">
</g>
<g id="XMLID_156_">
</g>
</svg>
