<?xml version="1.0" encoding="utf-8"?>
<!-- Generator: Adobe Illustrator 19.0.0, SVG Export Plug-In . SVG Version: 6.00 Build 0)  -->
<svg version="1.1" id="Icons" xmlns="http://www.w3.org/2000/svg" xmlns:xlink="http://www.w3.org/1999/xlink" x="0px" y="0px"
	 viewBox="0 0 60 60" style="enable-background:new 0 0 60 60;" xml:space="preserve">
<style type="text/css">
	.st0{fill:#939598;}
	.st1{fill:#CCCCCC;}
</style>
<g id="XMLID_334_">
	<path id="XMLID_335_" class="st0" d="M46.925,14.957c-0.619,0.45-0.947,1.149-0.947,1.859c0,0.465,0.143,0.937,0.438,1.345
		c0.743,1.024,2.177,1.252,3.202,0.509l4.316-3.135c1.023-0.746,1.254-2.176,0.508-3.203c-0.743-1.023-2.176-1.252-3.201-0.508
		L46.925,14.957z"/>
	<path id="XMLID_336_" class="st0" d="M13.825,18.16c0.748-1.02,0.519-2.46-0.506-3.201L9.006,11.82
		c-1.024-0.746-2.458-0.519-3.202,0.506c-0.297,0.405-0.439,0.877-0.439,1.345c0,0.71,0.327,1.409,0.944,1.857l4.314,3.139
		C11.646,19.412,13.08,19.185,13.825,18.16z"/>
	<path id="XMLID_337_" class="st0" d="M54.442,47.67c0.748-1.03,0.517-2.457-0.508-3.203l-4.316-3.134
		c-1.024-0.744-2.458-0.515-3.202,0.508c-0.295,0.407-0.437,0.879-0.437,1.344c0,0.711,0.327,1.409,0.946,1.859l4.317,3.134
		C52.265,48.922,53.7,48.694,54.442,47.67z"/>
	<path id="XMLID_338_" class="st0" d="M13.319,45.041c1.024-0.743,1.25-2.176,0.507-3.202c-0.744-1.022-2.178-1.251-3.202-0.505
		L6.307,44.47c-0.616,0.448-0.945,1.146-0.945,1.857c0,0.467,0.142,0.937,0.438,1.344c0.744,1.024,2.179,1.252,3.202,0.507
		L13.319,45.041z"/>
	<path id="XMLID_339_" class="st0" d="M36.524,2.881l-1.65,5.074c-0.076,0.237-0.114,0.474-0.114,0.709
		c0,0.967,0.616,1.865,1.585,2.181c1.203,0.392,2.498-0.266,2.889-1.471l1.649-5.073c0.392-1.216-0.267-2.498-1.472-2.89
		C38.21,1.018,36.916,1.677,36.524,2.881z"/>
	<path id="XMLID_340_" class="st0" d="M23.721,57.118l1.648-5.072c0.389-1.205-0.269-2.497-1.472-2.889
		c-1.204-0.392-2.498,0.269-2.889,1.473l-1.648,5.073c-0.076,0.235-0.113,0.472-0.113,0.707c0,0.967,0.617,1.865,1.585,2.181
		C22.036,58.983,23.329,58.323,23.721,57.118z"/>
	<path id="XMLID_341_" class="st0" d="M25.368,7.956l-1.645-5.075c-0.391-1.204-1.683-1.864-2.888-1.472
		c-0.969,0.313-1.586,1.212-1.586,2.179c0,0.234,0.037,0.474,0.113,0.709l1.645,5.074c0.391,1.205,1.684,1.866,2.888,1.474
		C25.099,10.455,25.757,9.172,25.368,7.956z"/>
	<path id="XMLID_342_" class="st0" d="M34.76,51.338c0,0.235,0.038,0.472,0.114,0.708l1.648,5.072
		c0.392,1.205,1.685,1.865,2.889,1.473c1.203-0.392,1.861-1.69,1.472-2.888l-1.647-5.073c-0.392-1.204-1.685-1.865-2.889-1.473
		C35.377,49.472,34.76,50.371,34.76,51.338z"/>
</g>
<g id="XMLID_343_">
	<path id="XMLID_344_" class="st1" d="M29.967,12.706c-9.55,0-17.291,7.742-17.291,17.292c0,9.551,7.741,17.292,17.291,17.292
		c9.55,0,17.292-7.741,17.292-17.292C47.26,20.448,39.518,12.706,29.967,12.706z M29.967,43.53c-7.473,0-13.532-6.058-13.532-13.533
		c0-7.474,6.059-13.533,13.532-13.533c7.475,0,13.533,6.059,13.533,13.533C43.501,37.472,37.442,43.53,29.967,43.53z"/>
</g>
<path id="XMLID_348_" class="st0" d="M-0.106,30c0,1.268,1.026,2.293,2.293,2.293H7.52c1.266,0,2.293-1.025,2.293-2.293
	c0-1.267-1.027-2.292-2.293-2.292H2.187C0.921,27.708-0.106,28.733-0.106,30z"/>
<g id="XMLID_349_">
	<path id="XMLID_353_" class="st0" d="M26.117,38.602H1.966c-1.101,0-1.993-0.892-1.993-1.993s0.892-1.993,1.993-1.993h22.876
		l9.28-6.611l23.779,0.003c1.101,0,1.993,0.892,1.993,1.993c0,1.1-0.892,1.993-1.993,1.993h0l-22.503-0.003L26.117,38.602z"/>
</g>
<g id="XMLID_1_">
</g>
<g id="XMLID_2_">
</g>
<g id="XMLID_3_">
</g>
<g id="XMLID_4_">
</g>
<g id="XMLID_5_">
</g>
<g id="XMLID_6_">
</g>
</svg>
