<?xml version="1.0" encoding="utf-8"?>
<!-- Generator: Adobe Illustrator 18.1.1, SVG Export Plug-In . SVG Version: 6.00 Build 0)  -->
<svg version="1.1" id="Arrow" xmlns="http://www.w3.org/2000/svg" xmlns:xlink="http://www.w3.org/1999/xlink" x="0px" y="0px"
	 viewBox="0 0 60 75" style="enable-background:new 0 0 60 75;" xml:space="preserve">
<style type="text/css">
	.st0{opacity:0.5;}
	.st1{fill:#FFFFFF;}
</style>
<g class="st0">
	<path class="st1" d="M30,0C13.4,0,0,13.4,0,30c0,16.6,13.4,30,30,30c16.6,0,30-13.4,30-30C60,13.4,46.6,0,30,0z M30,53.5
		C17,53.5,6.5,43,6.5,30C6.5,17,17,6.5,30,6.5C43,6.5,53.5,17,53.5,30C53.5,43,43,53.5,30,53.5z M35.9,17.4H24.1v13.3h-7.3L30,43.2
		l13.2-12.4h-7.3V17.4z"/>
</g>
<g>
	<path class="st1" d="M30,15C13.4,15,0,28.4,0,45c0,16.6,13.4,30,30,30c16.6,0,30-13.4,30-30C60,28.4,46.6,15,30,15z M30,68.5
		C17,68.5,6.5,58,6.5,45C6.5,32,17,21.5,30,21.5C43,21.5,53.5,32,53.5,45C53.5,58,43,68.5,30,68.5z M35.9,32.4H24.1v13.3h-7.3
		L30,58.2l13.2-12.4h-7.3V32.4z"/>
</g>
</svg>
