<?xml version="1.0" encoding="utf-8"?>
<!-- Generator: Adobe Illustrator 19.0.0, SVG Export Plug-In . SVG Version: 6.00 Build 0)  -->
<svg version="1.1" id="Icons" xmlns="http://www.w3.org/2000/svg" xmlns:xlink="http://www.w3.org/1999/xlink" x="0px" y="0px"
	 viewBox="0 0 60 60" style="enable-background:new 0 0 60 60;" xml:space="preserve">
<style type="text/css">
	.st0{fill:none;}
	.st1{fill:#CCCCCC;}
	.st2{fill:#939598;}
</style>
<path id="XMLID_1181_" class="st0" d="M33.192,2.812h-6.384c-0.787,0-1.394,0.273-1.988,0.994c-0.776,0.94-6.598,7.877-6.598,7.877
	h5.312L27.446,7.5h5.109l3.912,4.184h5.312c0,0-5.823-6.937-6.598-7.877C34.586,3.085,33.98,2.812,33.192,2.812z"/>
<path id="XMLID_1189_" class="st1" d="M39.896,4.723l-2.684-2.977C36.175,0.274,35.052,0,32.862,0h-5.724
	c-2.19,0-3.314,0.274-4.349,1.746l-2.684,2.977C12.072,6.127,6.25,9.849,6.25,12.591v0.533c0,4.833,10.634,8.75,23.75,8.75
	c13.118,0,23.75-3.917,23.75-8.75v-0.533C53.75,9.849,47.928,6.127,39.896,4.723z M36.467,11.683L32.554,7.5h-5.109l-3.912,4.184
	h-5.312c0,0,5.822-6.937,6.598-7.877c0.594-0.721,1.201-0.994,1.988-0.994h6.384c0.789,0,1.394,0.273,1.99,0.994
	c0.775,0.94,6.598,7.877,6.598,7.877H36.467z"/>
<path id="XMLID_1195_" class="st1" d="M44.38,47.636c0.182,0.32,0.179,0.712-0.009,1.029c-0.188,0.317-0.533,0.512-0.904,0.512
	H16.533c-0.372,0-0.716-0.195-0.904-0.512c-0.188-0.317-0.191-0.709-0.008-1.029l11.339-19.902
	c-6.556-0.326-13.065-1.712-17.621-4.26l3.444,30.34C12.967,55.257,19.926,59.992,30,60c10.074-0.007,17.034-4.742,17.219-6.185
	l3.442-30.34c-4.556,2.548-11.065,3.934-17.622,4.26L44.38,47.636z"/>
<path id="XMLID_1197_" class="st2" d="M33.04,27.734l-2.127-3.733c-0.185-0.326-0.534-0.527-0.913-0.527
	c-0.379,0-0.728,0.201-0.913,0.527l-2.127,3.733c1.015,0.05,2.03,0.078,3.04,0.078C31.009,27.812,32.025,27.785,33.04,27.734z"/>
<path id="XMLID_1200_" class="st2" d="M15.628,48.665c0.188,0.317,0.532,0.512,0.904,0.512h26.934c0.372,0,0.716-0.195,0.904-0.512
	c0.188-0.317,0.191-0.709,0.009-1.029L33.04,27.734c-1.015,0.05-2.03,0.078-3.04,0.078c-1.01,0-2.026-0.027-3.04-0.078L15.62,47.636
	C15.437,47.956,15.44,48.348,15.628,48.665z M28.336,31.789h3.326v9.072h-3.326V31.789z M28.336,43.129h3.326v3.024h-3.326V43.129z"
	/>
<g id="XMLID_214_">
</g>
<g id="XMLID_228_">
</g>
<g id="XMLID_229_">
</g>
<g id="XMLID_230_">
</g>
<g id="XMLID_235_">
</g>
<g id="XMLID_237_">
</g>
</svg>
