<?xml version="1.0" encoding="utf-8"?>
<!-- Generator: Adobe Illustrator 19.0.0, SVG Export Plug-In . SVG Version: 6.00 Build 0)  -->
<svg version="1.1" id="Icons" xmlns="http://www.w3.org/2000/svg" xmlns:xlink="http://www.w3.org/1999/xlink" x="0px" y="0px"
	 viewBox="0 0 60 60" style="enable-background:new 0 0 60 60;" xml:space="preserve">
<style type="text/css">
	.st0{fill:#939598;}
	.st1{fill:#CCCCCC;}
</style>
<g>
	<g id="XMLID_223_">
		<path id="XMLID_224_" class="st0" d="M0,38.544V21.248h2.593V36.34h3.241v2.204H0z"/>
		<path id="XMLID_226_" class="st0" d="M9.025,21.248v13.017c0.026,1.504,0.026,2.152,0.933,2.152c0.96,0,0.96-0.752,0.96-2.152
			V21.248h2.567v12.784c0,1.789,0,4.719-3.474,4.719c-3.475,0-3.527-2.645-3.527-4.719V21.248H9.025z"/>
		<path id="XMLID_228_" class="st0" d="M22.72,38.544v-6.535c0-0.882,0.052-3.734,0.077-6.301c-0.052,0.311-0.596,4.511-0.855,6.301
			l-1.011,6.535h-1.919l-1.063-6.69c-0.596-3.76-0.596-3.786-0.83-6.145c0.078,3.396,0.129,5.394,0.129,6.223v6.612h-2.022V21.248
			h2.8l1.426,9.076c0.207,1.167,0.363,2.904,0.545,4.901c0.078-1.711,0.233-2.852,0.57-4.901l1.374-9.076h2.878v17.296H22.72z"/>
		<path id="XMLID_230_" class="st0" d="M26.567,38.544V21.248h5.886v2.204H29.16v4.927h2.386v2.203H29.16v5.757h3.526v2.204H26.567z
			"/>
		<path id="XMLID_232_" class="st0" d="M39.021,38.544l-2.308-7.65c-0.078-0.26-0.623-1.996-1.116-4.356
			c0.078,1.97,0.208,5.341,0.208,6.43v5.575h-2.126V21.248h2.178l2.204,7.779c0.596,2.1,0.804,2.878,1.193,4.538
			c-0.13-2.048-0.233-4.279-0.233-6.172v-6.145h2.1v17.296H39.021z"/>
	</g>
	<g id="XMLID_234_">
		<path id="XMLID_235_" class="st0" d="M51.356,26.066c-2.114,0.005-3.825,1.715-3.83,3.83c0.005,2.114,1.715,3.822,3.83,3.827
			c2.114-0.005,3.822-1.712,3.827-3.827C55.177,27.782,53.47,26.071,51.356,26.066z M53.928,30.552h-1.617h-0.299v0.299v1.617
			h-1.315v-1.617v-0.299h-0.299h-1.614v-1.315h1.614h0.299v-0.299v-1.614h1.315v1.614v0.299h0.299h1.617V30.552z"/>
		<path id="XMLID_238_" class="st0" d="M42.712,21.252V38.54H60V21.252H42.712z M56.757,23.815l0.678,0.678L56,25.929l-0.677-0.678
			L56.757,23.815z M50.877,22.24h0.958v1.913h-0.958V22.24z M45.952,23.815l1.434,1.437l-0.675,0.675l-1.437-1.434L45.952,23.815z
			 M43.699,29.417h1.913v0.958h-1.913V29.417z M45.952,35.975l-0.678-0.678l1.437-1.437l0.678,0.677L45.952,35.975z M51.835,37.552
			h-0.958v-1.916h0.958V37.552z M51.356,34.681c-2.645,0-4.785-2.142-4.785-4.785c0-2.642,2.14-4.785,4.785-4.785
			c2.642,0,4.785,2.142,4.785,4.785C56.14,32.538,53.998,34.681,51.356,34.681z M56.757,35.975l-1.434-1.435L56,33.863l1.435,1.434
			L56.757,35.975z M59.012,30.375h-1.916v-0.958h1.916V30.375z"/>
	</g>
</g>
<rect x="0" y="40.544" class="st1" width="60" height="2.593"/>
<rect x="0" y="16.659" class="st1" width="60" height="2.593"/>
<g id="XMLID_161_">
</g>
<g id="XMLID_162_">
</g>
<g id="XMLID_163_">
</g>
<g id="XMLID_164_">
</g>
<g id="XMLID_165_">
</g>
<g id="XMLID_166_">
</g>
</svg>
