<?xml version="1.0" encoding="utf-8"?>
<!-- Generator: Adobe Illustrator 18.1.1, SVG Export Plug-In . SVG Version: 6.00 Build 0)  -->
<svg version="1.1" id="Acct" xmlns="http://www.w3.org/2000/svg" xmlns:xlink="http://www.w3.org/1999/xlink" x="0px" y="0px"
	 viewBox="0 0 60 60" style="enable-background:new 0 0 60 60;" xml:space="preserve">
<style type="text/css">
	.st0{fill:#939598;}
</style>
<g>
	<path class="st0" d="M47,44.8c-7.9-3-10.4-5.5-10.4-10.9c0-3.2,2.4-2.2,3.5-8.1c0.4-2.5,2.6,0,3-5.7c0-2.2-1.2-2.8-1.2-2.8
		s0.6-3.3,0.8-5.9C43,8.2,40.9,0,30,0S17,8.2,17.3,11.4c0.2,2.6,0.8,5.9,0.8,5.9S17,17.8,17,20.1c0.4,5.6,2.5,3.2,3,5.7
		c1.1,5.9,3.5,4.9,3.5,8.1c0,5.4-2.5,7.9-10.4,10.9c-7.9,3-13,6.1-13,8.2c0,2.1,0,7,0,7h30h30c0,0,0-4.9,0-7
		C60,50.9,54.9,47.8,47,44.8z"/>
</g>
</svg>
