<?xml version="1.0" encoding="utf-8"?>
<!-- Generator: Adobe Illustrator 18.1.1, SVG Export Plug-In . SVG Version: 6.00 Build 0)  -->
<svg version="1.1" id="Arrow" xmlns="http://www.w3.org/2000/svg" xmlns:xlink="http://www.w3.org/1999/xlink" x="0px" y="0px"
	 viewBox="0 0 60 60" style="enable-background:new 0 0 60 60;" xml:space="preserve">
<style type="text/css">
	.st0{fill:#939598;}
</style>
<g>
	<path class="st0" d="M60,30C60,13.4,46.6,0,30,0C13.4,0,0,13.4,0,30c0,16.6,13.4,30,30,30C46.6,60,60,46.6,60,30z M6.5,30
		C6.5,17,17,6.5,30,6.5C43,6.5,53.5,17,53.5,30C53.5,43,43,53.5,30,53.5C17,53.5,6.5,43,6.5,30z M42.6,35.9V24.1H29.2v-7.3L16.8,30
		l12.4,13.2v-7.3H42.6z"/>
</g>
</svg>
