<?xml version="1.0" encoding="utf-8"?>
<!-- Generator: Adobe Illustrator 19.0.0, SVG Export Plug-In . SVG Version: 6.00 Build 0)  -->
<svg version="1.1" id="Icons" xmlns="http://www.w3.org/2000/svg" xmlns:xlink="http://www.w3.org/1999/xlink" x="0px" y="0px"
	 viewBox="0 0 60 60" style="enable-background:new 0 0 60 60;" xml:space="preserve">
<style type="text/css">
	.st0{fill:#CCCCCC;}
	.st1{fill:none;}
	.st2{fill:#939598;}
</style>
<polygon id="XMLID_407_" class="st0" points="45.397,17.161 35.626,17.161 35.626,2 24.374,2 24.374,17.161 14.603,17.161 
	30,31.609 "/>
<path id="XMLID_1239_" class="st1" d="M21.408,44.228c-0.134-0.036-0.318-0.072-0.539-0.114c-0.189-0.037-0.409-0.079-0.648-0.133
	c-0.932-0.209-1.557-0.512-2.027-0.983c-0.871-0.87-1.209-2.149-0.881-3.338c0.161-0.586,0.478-1.12,0.915-1.545
	c1.319-1.284,3.464-1.283,4.814,0.034c0.496,0.497,0.826,1.173,0.98,2.01c0.085,0.46,0.182,0.957,0.25,1.207l0.228,0.83l4.633-4.634
	l2.803,2.803c-0.515,0.275-0.989,0.63-1.397,1.047c-1.033,1.06-1.603,2.463-1.604,3.951s0.566,2.893,1.655,4.01
	c1.07,1.07,2.493,1.66,4.006,1.66c1.514,0,2.937-0.59,4.007-1.66c0.395-0.395,0.731-0.852,0.995-1.346l2.244,2.244
	c6.959-4.074,11.636-11.623,11.636-20.269c0-12.968-10.511-23.48-23.478-23.48c-12.967,0-23.478,10.511-23.478,23.48
	c0,8.195,4.202,15.406,10.567,19.606l5.155-5.155L21.408,44.228z"/>
<path id="XMLID_1342_" class="st2" d="M30,0C13.432,0,0,13.432,0,30.001c0,15.413,11.627,28.104,26.586,29.8
	C27.707,59.928,28.845,60,30,60c1.155,0,2.292-0.072,3.413-0.199C48.374,58.106,60,45.415,60,30.001C60,13.432,46.57,0,30,0z
	 M43.978,22.725l-4.25,4.25c0.042,0.005,0.078,0.01,0.107,0.015c0.988,0.09,1.956,0.543,2.686,1.273
	c0.845,0.845,1.306,1.968,1.297,3.163s-0.485,2.311-1.342,3.145c-1.706,1.658-4.477,1.654-6.179-0.005
	c-0.77-0.769-1.224-1.736-1.318-2.763c-0.003-0.019-0.007-0.042-0.01-0.068l-4.25,4.25l5.456,5.455l-0.754,0.262
	c-0.184,0.063-0.858,0.195-1.256,0.263c-0.828,0.142-1.51,0.481-2.024,1.009c-1.286,1.318-1.287,3.464-0.004,4.783
	c0.638,0.638,1.439,0.993,2.292,1.035c0.965,0.039,1.909-0.318,2.592-1c0.495-0.495,0.824-1.169,0.979-2.004
	c0.1-0.541,0.181-0.954,0.247-1.198l0.224-0.836l0.616,0.599l4.66,4.661c-0.616,0.446-1.247,0.872-1.905,1.258l-2.244-2.244
	c-0.264,0.494-0.601,0.951-0.995,1.346c-1.07,1.07-2.493,1.66-4.007,1.66c-1.513,0-2.936-0.59-4.006-1.66
	c-1.089-1.117-1.656-2.521-1.655-4.01s0.57-2.892,1.604-3.951c0.408-0.417,0.883-0.771,1.397-1.047l-2.803-2.803L24.5,42.195
	l-0.228-0.83c-0.068-0.25-0.165-0.747-0.25-1.207c-0.154-0.837-0.484-1.513-0.98-2.01c-1.351-1.317-3.495-1.318-4.814-0.034
	c-0.438,0.425-0.754,0.959-0.915,1.545c-0.328,1.188,0.01,2.468,0.881,3.338c0.471,0.472,1.096,0.774,2.027,0.983
	c0.239,0.054,0.459,0.096,0.648,0.133c0.221,0.042,0.405,0.078,0.539,0.114l0.835,0.225l-5.155,5.155
	c-0.631-0.416-1.234-0.87-1.82-1.343l2.688-2.689c-0.495-0.265-0.953-0.602-1.346-0.995c-0.546-0.546-0.968-1.184-1.252-1.895
	c-0.275-0.686-0.412-1.409-0.407-2.151c0.011-1.528,0.62-2.957,1.716-4.022c1.06-1.031,2.462-1.599,3.949-1.599
	c0.002,0,0.003,0,0.004,0c1.489,0.001,2.893,0.57,3.952,1.604c0.43,0.429,0.778,0.898,1.046,1.397l2.787-2.781l-4.626-4.625
	l0.831-0.227c0.301-0.082,0.701-0.159,1.159-0.245c0.902-0.168,1.586-0.501,2.088-1.017c1.286-1.318,1.288-3.464,0.004-4.783
	c-1.364-1.366-3.589-1.329-4.883-0.035c-0.5,0.5-0.822,1.172-0.986,2.054c-0.077,0.421-0.162,0.861-0.244,1.163l-0.227,0.832
	l-4.688-4.688c-0.217-0.217-0.506-0.336-0.812-0.336s-0.596,0.119-0.812,0.336L6.63,32.141c-0.064-0.706-0.108-1.417-0.108-2.14
	c0-12.968,10.512-23.48,23.478-23.48c12.967,0,23.478,10.511,23.478,23.48c0,0.715-0.043,1.419-0.106,2.118L43.978,22.725z"/>
<g id="XMLID_145_">
</g>
<g id="XMLID_146_">
</g>
<g id="XMLID_147_">
</g>
<g id="XMLID_148_">
</g>
<g id="XMLID_149_">
</g>
<g id="XMLID_150_">
</g>
</svg>
