<?xml version="1.0" encoding="utf-8"?>
<!-- Generator: Adobe Illustrator 19.0.0, SVG Export Plug-In . SVG Version: 6.00 Build 0)  -->
<svg version="1.1" id="Icons" xmlns="http://www.w3.org/2000/svg" xmlns:xlink="http://www.w3.org/1999/xlink" x="0px" y="0px"
	 viewBox="0 0 60 60" style="enable-background:new 0 0 60 60;" xml:space="preserve">
<style type="text/css">
	.st0{fill:none;}
	.st1{fill:#CCCCCC;}
	.st2{fill:#939598;}
</style>
<path id="XMLID_647_" class="st0" d="M17.095,32.791v6.764H8.555C12.215,47.758,20.437,53.478,30,53.478
	c12.967,0,23.478-10.511,23.478-23.477c0-12.968-10.511-23.48-23.478-23.48c-11.612,0-21.248,8.431-23.137,19.505h10.232V32.791z"/>
<path id="XMLID_649_" class="st1" d="M6.692,32.791h10.403v-6.764H6.863c-0.22,1.292-0.342,2.619-0.342,3.974
	C6.522,30.946,6.584,31.876,6.692,32.791z"/>
<path id="XMLID_652_" class="st1" d="M30,0C14.78,0,2.216,11.338,0.27,26.027h6.593C8.752,14.953,18.388,6.522,30,6.522
	c12.967,0,23.478,10.511,23.478,23.48c0,12.966-10.511,23.477-23.478,23.477c-9.563,0-17.785-5.721-21.445-13.923H1.563
	C5.554,51.437,16.774,60,30,60c16.57,0,30-13.431,30-29.999C60,13.432,46.57,0,30,0z"/>
<path id="XMLID_653_" class="st1" d="M0.134,32.791h6.559c-0.108-0.915-0.171-1.845-0.171-2.79c0-1.355,0.121-2.682,0.342-3.974
	H0.27C0.098,27.328,0,28.653,0,30.001C0,30.942,0.049,31.872,0.134,32.791z"/>
<path id="XMLID_557_" class="st1" d="M46.684,36.124h-9.187V22.791h9.187c0.434,0,0.813-0.162,1.138-0.487
	c0.325-0.326,0.488-0.718,0.488-1.179s-0.163-0.853-0.488-1.179c-0.325-0.325-0.705-0.487-1.138-0.487h-9.187v-4.146
	c0-0.217-0.136-0.42-0.406-0.61c-0.271-0.19-0.542-0.285-0.813-0.285h-3.984c-1.03,0-2.276,0.434-3.739,1.301
	c-1.464,0.867-2.846,1.829-4.146,2.886c-1.301,1.057-2.886,2.019-4.756,2.886c-1.87,0.867-3.672,1.3-5.406,1.3h-2.602v3.333H8.31
	v6.667h3.333v3.333h2.602c1.734,0,3.537,0.433,5.406,1.3c1.87,0.867,3.455,1.816,4.756,2.846c1.301,1.03,2.683,1.979,4.146,2.846
	c1.463,0.867,2.71,1.301,3.739,1.301h3.984c0.271,0,0.542-0.081,0.813-0.244c0.271-0.163,0.406-0.353,0.406-0.569v-4.146h9.187
	c0.434,0,0.813-0.162,1.138-0.487c0.325-0.326,0.488-0.718,0.488-1.179s-0.163-0.853-0.488-1.179
	C47.497,36.287,47.118,36.124,46.684,36.124z"/>
<g id="XMLID_657_">
	<path id="XMLID_605_" class="st2" d="M39.884,28.833L22.175,17.862c-1.29-0.847-2.346-0.224-2.346,1.384v21.298
		c0,1.607,1.056,2.23,2.346,1.384l17.709-10.971c0,0,0.629-0.443,0.629-1.062S39.884,28.833,39.884,28.833z"/>
</g>
<g id="XMLID_147_">
</g>
<g id="XMLID_148_">
</g>
<g id="XMLID_152_">
</g>
<g id="XMLID_156_">
</g>
<g id="XMLID_157_">
</g>
<g id="XMLID_158_">
</g>
</svg>
