<?xml version="1.0" encoding="utf-8"?>
<!-- Generator: Adobe Illustrator 18.1.1, SVG Export Plug-In . SVG Version: 6.00 Build 0)  -->
<svg version="1.1" id="Install_Guide" xmlns="http://www.w3.org/2000/svg" xmlns:xlink="http://www.w3.org/1999/xlink" x="0px"
	 y="0px" viewBox="0 0 60 60" style="enable-background:new 0 0 60 60;" xml:space="preserve">
<style type="text/css">
	.st0{fill:#FFFFFF;}
</style>
<g>
	<path class="st0" d="M58.9,33L48.5,8c-0.8-1.7-3-3-4.9-3h-6.8L38,18.5h9L30,32.6L13,18.5h9L23.3,5h-6.8c-1.9,0-4.1,1.4-4.9,3
		L1.1,33c-0.8,1.7-1.3,4.5-1,6.4l2.3,12.3C2.7,53.5,4.4,55,6.3,55h47.4c1.9,0,3.6-1.5,3.9-3.3l2.3-12.3C60.2,37.5,59.8,34.7,58.9,33
		z M54.4,41.8l-0.9,5c-0.3,1.9-2,3.5-3.8,3.5H10.3c-1.9,0-3.6-1.6-3.8-3.5l-0.9-5c-0.3-1.9,1.1-3.5,2.9-3.5h43
		C53.4,38.3,54.7,39.8,54.4,41.8z"/>
</g>
</svg>
