<?xml version="1.0" encoding="utf-8"?>
<!-- Generator: Adobe Illustrator 19.0.0, SVG Export Plug-In . SVG Version: 6.00 Build 0)  -->
<svg version="1.1" id="Icons" xmlns="http://www.w3.org/2000/svg" xmlns:xlink="http://www.w3.org/1999/xlink" x="0px" y="0px"
	 viewBox="0 0 60 60" style="enable-background:new 0 0 60 60;" xml:space="preserve">
<style type="text/css">
	.st0{fill-rule:evenodd;clip-rule:evenodd;fill:#939598;}
</style>
<g id="XMLID_186_">
	<path id="XMLID_189_" class="st0" d="M54.356,24.381l-3.49,4.48h3.49V24.381L54.356,24.381L54.356,24.381L54.356,24.381z
		 M55.297,24.381v4.48h3.44L55.297,24.381L55.297,24.381L55.297,24.381L55.297,24.381z M50.94,29.752l3.911,2.896l3.886-2.896H50.94
		L50.94,29.752L50.94,29.752L50.94,29.752z M54.851,23.292c2.822,0,5.148,2.327,5.148,5.173c0,2.847-2.327,5.198-5.198,5.198
		c-2.871,0-5.198-2.351-5.198-5.198C49.604,25.594,51.98,23.292,54.851,23.292L54.851,23.292z"/>
	<path id="XMLID_196_" class="st0" d="M-0.001,29.678h3.292c0.569,0,0.644,0.668,0.841,1.163c0.545,1.213,0.693,1.98,1.411,3.069
		c0.693-1.163,0.891-1.906,1.411-3.144c0.198-0.446,0.272-1.089,0.792-1.089h2.871v7.029H7.92v-5l-2.129,5H3.836l-2.154-4.901v4.901
		h-1.683V29.678L-0.001,29.678z"/>
	<path id="XMLID_197_" class="st0" d="M12.425,29.678h5.718v1.015h-3.366c0.025,0.767,0,1.213,0,1.956h3.292v0.941h-3.292v2.129
		h3.366v0.99h-6.56v-6.089C11.584,30.123,11.93,29.678,12.425,29.678L12.425,29.678z"/>
	<path id="XMLID_198_" class="st0" d="M20.717,29.678h4.307v0.941h-2.426c-0.47,0-1.04,0.099-1.04,0.544
		c0,0.644,0.718,0.718,1.262,1.015c1.188,0.668,2.426,1.188,2.426,2.55c0,1.312-1.411,1.98-2.723,1.98h-3.985v-0.99h2.723
		c0.47,0,0.941-0.297,0.941-0.767c0-0.643-0.693-0.817-1.238-1.139c-1.188-0.643-2.426-1.064-2.426-2.401
		C18.539,30.321,19.628,29.678,20.717,29.678L20.717,29.678z"/>
	<path id="XMLID_199_" class="st0" d="M27.524,29.678h4.183v1.015H28.91c-0.272,0-0.545,0.198-0.545,0.47
		c0,0.545,0.619,0.668,1.089,0.941c1.188,0.718,2.5,1.213,2.5,2.624c0,1.287-1.361,1.98-2.648,1.98h-3.985v-0.99h2.747
		c0.421,0,0.842-0.322,0.842-0.767c0-0.619-0.594-0.817-1.164-1.139c-1.163-0.619-2.426-1.039-2.426-2.376
		C25.321,30.346,26.435,29.678,27.524,29.678L27.524,29.678z"/>
	<path id="XMLID_200_" class="st0" d="M33.267,29.678h5.718v1.015h-3.119l-0.248,0.248v1.708h3.267v0.941h-3.267v2.129h3.366v0.99
		h-6.51v-6.312C32.474,29.975,32.871,29.678,33.267,29.678L33.267,29.678z"/>
	<path id="XMLID_201_" class="st0" d="M43.737,30.693c-0.322,0-0.594,0.05-0.767,0.322v1.634h1.238c0.544,0,1.015-0.421,1.015-0.99
		C45.222,30.99,44.43,30.693,43.737,30.693L43.737,30.693L43.737,30.693L43.737,30.693z M40.544,29.678h5.223
		c1.287,0,2.599,0.767,2.599,2.03c0,0.941-0.792,1.337-1.559,1.856l2.079,3.144h-3.268l-1.807-3.045h-0.916v3.045h-3.143V30.47
		C39.752,30.024,40.099,29.678,40.544,29.678L40.544,29.678z"/>
</g>
<g id="XMLID_266_">
</g>
<g id="XMLID_268_">
</g>
<g id="XMLID_269_">
</g>
<g id="XMLID_270_">
</g>
<g id="XMLID_271_">
</g>
<g id="XMLID_273_">
</g>
</svg>
