<?xml version="1.0" encoding="utf-8"?>
<!-- Generator: Adobe Illustrator 19.0.0, SVG Export Plug-In . SVG Version: 6.00 Build 0)  -->
<svg version="1.1" id="Icons" xmlns="http://www.w3.org/2000/svg" xmlns:xlink="http://www.w3.org/1999/xlink" x="0px" y="0px"
	 viewBox="0 0 60 60" style="enable-background:new 0 0 60 60;" xml:space="preserve">
<style type="text/css">
	.st0{fill:#939598;}
</style>
<g id="XMLID_268_">
	<path id="XMLID_281_" class="st0" d="M25.199,26.486c0.071,0,0.13,0,0.188,0c2.231,0,4.461,0,6.692,0
		c0.094,0,0.192-0.013,0.268,0.062c-0.07,0.275-0.491,1.238-0.814,1.478c-0.048,0-0.112,0-0.177,0c-0.507,0-1.014,0.008-1.52-0.002
		c-0.476-0.01-0.948,0.059-1.425,0.045c-0.473-0.014-0.947-0.003-1.436-0.003c0,0.126,0,0.249,0,0.372
		c0,0.125-0.007,0.251,0.002,0.375c0.009,0.118-0.048,0.248,0.037,0.346c0.472,0.089,0.935,0.045,1.397,0.051
		c0.467,0.006,0.934,0.001,1.402,0.001c0.065,0,0.129,0,0.198,0c0,0.501,0,0.993,0,1.501c-0.055,0-0.112,0-0.17,0
		c-0.638,0-1.277,0-1.915,0c-0.151,0-0.303-0.006-0.454,0.002c-0.146,0.007-0.292,0.027-0.443,0.042
		c-0.013,0.014-0.031,0.033-0.054,0.056c0,0.297-0.002,0.599,0.002,0.901c0.001,0.054,0.022,0.108,0.033,0.157
		c0.077,0.069,0.165,0.067,0.254,0.067c1.375-0.001,2.751-0.001,4.126-0.001c0.065,0,0.13,0,0.205,0
		c0.249,0.497,0.497,0.992,0.746,1.49c-0.13,0.017-0.261,0.04-0.392,0.049c-0.131,0.008-0.263,0.002-0.395,0.002
		c-1.599,0-3.198,0.004-4.797-0.005c-0.235-0.001-0.473-0.032-0.702-0.112c-0.242-0.084-0.426-0.237-0.581-0.433
		c-0.117-0.147-0.173-0.325-0.229-0.497c-0.041-0.124-0.045-0.263-0.045-0.396C25.198,30.192,25.199,28.35,25.199,26.486z"/>
	<path id="XMLID_280_" class="st0" d="M14.972,33.476c0.044-0.057,0.057-0.077,0.073-0.095c0.45-0.502,0.924-0.983,1.413-1.446
		c0.365-0.346,0.717-0.707,1.087-1.046c0.167-0.153,0.33-0.311,0.496-0.465c0.07-0.064,0.147-0.121,0.22-0.182
		c0.068-0.057,0.136-0.114,0.21-0.177c-0.049-0.154-0.153-0.284-0.267-0.4c-0.381-0.391-0.761-0.785-1.161-1.156
		c-0.21-0.194-0.405-0.406-0.624-0.588c-0.379-0.314-0.702-0.683-1.054-1.024c-0.103-0.1-0.18-0.227-0.267-0.342
		c-0.01-0.013-0.009-0.034-0.016-0.069c0.046,0,0.083,0,0.12,0c0.638,0,1.277,0.002,1.915-0.002
		c0.136-0.001,0.245,0.052,0.337,0.139c0.393,0.374,0.782,0.752,1.171,1.13c0.123,0.119,0.234,0.252,0.365,0.36
		c0.166,0.136,0.315,0.288,0.471,0.434c0.073,0.069,0.16,0.124,0.252,0.194c0.026-0.024,0.06-0.051,0.091-0.082
		c0.41-0.409,0.817-0.821,1.229-1.227c0.175-0.173,0.352-0.347,0.544-0.5c0.184-0.147,0.353-0.319,0.58-0.408
		c0.046-0.018,0.087-0.041,0.142-0.041c0.645,0.003,1.29,0.002,1.935,0.002c0.018,0,0.036,0.007,0.058,0.012
		c-0.006,0.023-0.005,0.045-0.015,0.057c-0.171,0.186-0.329,0.388-0.519,0.553c-0.44,0.383-0.819,0.828-1.254,1.214
		c-0.496,0.439-0.941,0.929-1.417,1.387c-0.073,0.07-0.128,0.158-0.199,0.247c0.061,0.108,0.161,0.196,0.26,0.273
		c0.189,0.147,0.361,0.306,0.499,0.503c0.033,0.048,0.077,0.092,0.125,0.125c0.248,0.173,0.434,0.412,0.652,0.616
		c0.11,0.103,0.207,0.223,0.323,0.319c0.426,0.35,0.786,0.766,1.181,1.148c0.13,0.125,0.242,0.268,0.365,0.4
		c0.029,0.031,0.069,0.051,0.114,0.084c-0.037,0.004-0.07,0.011-0.104,0.011c-0.52,0.001-1.04-0.002-1.56,0.002
		c-0.133,0.001-0.265-0.017-0.4,0.032c-0.121,0.044-0.244-0.03-0.359-0.076c-0.056-0.023-0.107-0.065-0.153-0.106
		c-0.159-0.142-0.329-0.276-0.47-0.435c-0.198-0.225-0.423-0.425-0.614-0.654c-0.264-0.318-0.573-0.589-0.857-0.886
		c-0.064-0.067-0.147-0.117-0.23-0.182c-0.153,0.153-0.3,0.3-0.448,0.448c-0.14,0.14-0.269,0.292-0.421,0.416
		c-0.396,0.324-0.728,0.713-1.097,1.064c-0.05,0.047-0.095,0.098-0.133,0.16c-0.038,0.062-0.127,0.093-0.196,0.136
		c-0.042,0.026-0.086,0.049-0.13,0.073c-0.687,0.087-1.38,0.029-2.072,0.045C15.117,33.477,15.066,33.476,14.972,33.476z"/>
	<path id="XMLID_279_" class="st0" d="M7.111,26.545c0.021-0.021,0.04-0.04,0.059-0.059c0.565,0,1.131,0,1.711,0
		c0.002,0.048,0.007,0.098,0.007,0.148c0,1.448,0.001,2.895,0,4.343c0,0.187,0.069,0.368,0.04,0.556
		c0.072,0.188,0.112,0.402,0.352,0.458c0.109,0.026,0.219,0.054,0.329,0.061c0.177,0.01,0.356,0.011,0.533,0.001
		c0.352-0.021,0.699,0.043,1.05,0.039c0.133-0.001,0.265-0.029,0.398-0.036c0.131-0.007,0.263,0.004,0.395-0.004
		c0.067-0.004,0.132-0.031,0.217-0.053c-0.011,0.011-0.005,0.007-0.002,0.002c0.003-0.005,0.006-0.011,0.006-0.017
		c0-1.828,0-3.657,0-5.491c0.59,0,1.174,0,1.767,0c0,2.319,0,4.645,0,6.984c-0.06,0-0.124,0-0.189,0c-1.507,0-3.014,0-4.52-0.001
		c-0.133,0-0.265,0.001-0.4-0.032c-0.119-0.029-0.241-0.052-0.361-0.082c-0.194-0.047-0.367-0.126-0.538-0.23
		c-0.4-0.243-0.564-0.547-0.694-0.932c-0.078-0.232-0.106-0.473-0.126-0.72c-0.066-0.791-0.023-1.582-0.032-2.373
		c-0.009-0.789-0.002-1.579-0.002-2.369C7.111,26.673,7.111,26.608,7.111,26.545z"/>
	<path id="XMLID_278_" class="st0" d="M42.938,33.472c-0.605,0-1.188,0-1.778,0c0-2.325,0-4.647,0-6.986c0.052,0,0.109,0,0.166,0
		c1.54,0,3.08,0.001,4.62-0.002c0.091,0,0.174,0.023,0.26,0.042c0.086,0.019,0.184-0.041,0.26,0.04
		c0.174-0.035,0.309,0.082,0.463,0.125c0.114,0.032,0.223,0.107,0.316,0.185c0.197,0.166,0.371,0.359,0.5,0.581
		c0.075,0.13,0.124,0.28,0.159,0.427c0.055,0.234,0.086,0.472,0.085,0.717c-0.005,1.619-0.003,3.238-0.003,4.868
		c-0.591,0.051-1.178-0.072-1.777-0.023c0-0.082,0-0.147,0-0.211c0-1.52-0.001-3.041,0.001-4.561c0-0.141-0.008-0.276-0.079-0.402
		c-0.008-0.015-0.001-0.039-0.001-0.059c-0.094-0.113-0.194-0.218-0.351-0.24c-0.011-0.002-0.019-0.021-0.03-0.022
		c-0.119-0.015-0.239-0.038-0.359-0.039c-0.79-0.003-1.58-0.002-2.369-0.002c-0.026,0-0.051,0-0.083,0
		C42.938,29.761,42.938,31.609,42.938,33.472z"/>
	<path id="XMLID_277_" class="st0" d="M1.818,31.877c0.028,0.028,0.042,0.042,0.058,0.058c1.354,0,2.709,0,4.06,0
		c0.254,0.192,0.357,0.481,0.502,0.741c0.083,0.149,0.157,0.303,0.229,0.458c0.044,0.093,0.077,0.192,0.116,0.291
		c-0.072,0.016-0.155,0.042-0.239,0.05c-0.091,0.009-0.184,0.002-0.276,0.002c-1.362,0-2.725,0.001-4.087-0.002
		c-0.139,0-0.278-0.03-0.418-0.036c-0.145-0.007-0.296,0.025-0.433-0.008c-0.174-0.042-0.365-0.009-0.525-0.112
		c-0.354-0.078-0.55-0.313-0.644-0.648c-0.041-0.144-0.061-0.293-0.087-0.44c-0.051-0.292,0.006-0.586-0.039-0.872
		c-0.039-0.247-0.025-0.49-0.031-0.735c-0.006-0.243-0.001-0.487-0.001-0.731c0-1.053,0-2.106,0-3.159c0-0.065,0-0.13,0-0.188
		c0.021-0.021,0.035-0.035,0.054-0.054c0.565,0,1.136,0,1.722,0c-0.019,0.223,0.045,0.44,0.044,0.666
		C1.815,28.731,1.818,30.304,1.818,31.877z"/>
	<path id="XMLID_276_" class="st0" d="M53.871,26.531c2.041,0,4.072,0,6.11,0c0.055,0.1-0.028,0.192-0.038,0.288
		c-0.008,0.086-0.021,0.181-0.055,0.27c-0.035,0.091-0.037,0.195-0.054,0.294c-0.016,0.092-0.014,0.193-0.052,0.274
		c-0.044,0.093,0.003,0.206-0.088,0.29c-0.484,0-0.977,0.003-1.469-0.003c-0.105-0.001-0.206-0.063-0.322-0.026
		c0,1.832,0,3.666,0,5.509c-0.582,0-1.157,0-1.731,0c-0.015-0.015-0.029-0.029-0.049-0.049c0-1.815,0-3.636,0-5.464
		c-0.656,0-1.305,0-1.968,0c-0.03-0.122-0.061-0.24-0.086-0.36c-0.018-0.086,0-0.194-0.047-0.255
		c-0.06-0.078,0.013-0.173-0.063-0.233c-0.001-0.158-0.075-0.302-0.088-0.457C53.869,26.586,53.871,26.561,53.871,26.531z"/>
	<path id="XMLID_275_" class="st0" d="M38.736,29.359c-0.164,0.164-0.286,0.313-0.434,0.428c-0.197,0.152-0.349,0.35-0.541,0.503
		c-0.189,0.15-0.342,0.338-0.528,0.488c-0.142,0.114-0.258,0.256-0.402,0.363c-0.152,0.114-0.272,0.258-0.414,0.379
		c-0.276,0.234-0.539,0.48-0.808,0.722c-0.124,0.112-0.24,0.235-0.372,0.337c-0.181,0.139-0.322,0.322-0.501,0.459
		c-0.188,0.143-0.334,0.326-0.506,0.469c-0.461-0.227-0.822-0.581-1.161-0.954c-0.191-0.209-0.34-0.454-0.422-0.731
		c-0.003-0.01-0.011-0.018-0.02-0.032c0.195-0.073,0.391-0.141,0.582-0.22c0.191-0.079,0.386-0.15,0.575-0.23
		c0.23-0.097,0.46-0.191,0.692-0.282c0.323-0.126,0.638-0.269,0.964-0.389c0.233-0.086,0.461-0.188,0.692-0.281
		c0.226-0.091,0.447-0.19,0.678-0.268c0.149-0.05,0.292-0.12,0.439-0.179c0.13-0.052,0.26-0.103,0.39-0.154
		c0.125-0.049,0.256-0.089,0.373-0.147c0.187-0.092,0.382-0.16,0.571-0.243C38.618,29.38,38.659,29.376,38.736,29.359z"/>
	<path id="XMLID_274_" class="st0" d="M38.323,28.597c-1.955,0.973-3.898,1.94-5.841,2.907c-0.053-0.148-0.111-0.29-0.152-0.435
		c-0.042-0.148-0.084-0.299-0.097-0.452c-0.013-0.159-0.063-0.313-0.047-0.477c0.016-0.161-0.015-0.331,0.023-0.486
		c0.038-0.156-0.038-0.323,0.095-0.474c0.135-0.032,0.307-0.035,0.476-0.056c0.153-0.019,0.31-0.007,0.456-0.039
		c0.128-0.028,0.257-0.008,0.378-0.038c0.134-0.033,0.27-0.012,0.398-0.04c0.134-0.03,0.27-0.011,0.398-0.04
		c0.134-0.031,0.27-0.01,0.398-0.039c0.128-0.029,0.257-0.012,0.378-0.039c0.14-0.031,0.284-0.009,0.417-0.041
		c0.128-0.03,0.257-0.009,0.378-0.038c0.14-0.033,0.285-0.008,0.417-0.042c0.129-0.033,0.254-0.022,0.38-0.033
		c0.094-0.009,0.186-0.027,0.28-0.038c0.087-0.01,0.18,0.024,0.26-0.039c0.008-0.006,0.026,0,0.039-0.001
		c0.212-0.013,0.424-0.018,0.634-0.043C38.096,28.603,38.197,28.558,38.323,28.597z"/>
	<path id="XMLID_273_" class="st0" d="M38.227,27.671c-0.954,0.265-1.917,0.436-2.879,0.611c-0.968,0.176-1.934,0.357-2.922,0.48
		c-0.01-0.14,0.061-0.266,0.113-0.394c0.103-0.253,0.24-0.485,0.415-0.697c0.113-0.137,0.211-0.285,0.336-0.413
		c0.048-0.049,0.084-0.11,0.127-0.164c0.099-0.124,0.251-0.153,0.386-0.212c0.022-0.01,0.058-0.011,0.077,0
		c0.076,0.048,0.167,0.015,0.239,0.043c0.082,0.032,0.169,0.011,0.241,0.038c0.152,0.059,0.322,0.033,0.466,0.114
		c0.118-0.029,0.224,0.036,0.339,0.043c0.104,0.006,0.206,0.04,0.308,0.062c0.018,0.004,0.036,0.01,0.054,0.013
		c0.068,0.009,0.134-0.011,0.204,0.035c0.051,0.033,0.13,0.016,0.2,0.036c0.087,0.025,0.184,0.026,0.278,0.045
		c0.171,0.035,0.354,0.033,0.516,0.089c0.109,0.038,0.22,0.014,0.328,0.064c0.098,0.045,0.228,0.016,0.335,0.05
		c0.238,0.075,0.492,0.064,0.726,0.153C38.147,27.682,38.189,27.671,38.227,27.671z"/>
	<path id="XMLID_272_" class="st0" d="M36.876,34.029c-0.357,0-0.706-0.007-1.054,0.002c-0.276,0.008-0.532-0.088-0.8-0.121
		c-0.122-0.088-0.283-0.115-0.402-0.235c1.532-1.208,3.051-2.406,4.579-3.61c0.01,0.028,0.025,0.051,0.019,0.061
		c-0.135,0.221-0.275,0.439-0.409,0.66c-0.092,0.152-0.175,0.31-0.267,0.462c-0.146,0.242-0.299,0.481-0.445,0.724
		c-0.092,0.152-0.175,0.31-0.266,0.462c-0.146,0.242-0.298,0.482-0.445,0.724c-0.089,0.147-0.172,0.298-0.26,0.445
		c-0.07,0.116-0.144,0.23-0.215,0.345C36.898,33.97,36.891,33.994,36.876,34.029z"/>
	<path id="XMLID_271_" class="st0" d="M53.114,30.669c-1.222,0-2.437,0-3.659,0c0-0.455,0-0.907,0-1.36
		c0.166-0.029,2.996-0.039,3.659-0.013C53.114,29.748,53.114,30.2,53.114,30.669z"/>
	<path id="XMLID_270_" class="st0" d="M40.239,30.225c0.03,0.259-0.031,0.487-0.085,0.712c-0.057,0.236-0.137,0.469-0.227,0.695
		c-0.063,0.158-0.159,0.303-0.244,0.452c-0.068,0.118-0.135,0.235-0.219,0.345c-0.08,0.105-0.149,0.218-0.242,0.313
		c-0.111,0.113-0.223,0.223-0.335,0.335c-0.161,0.162-0.352,0.28-0.542,0.405c-0.178,0.116-0.373,0.183-0.563,0.264
		c-0.027,0.011-0.061,0.006-0.119,0.01c0.104-0.15,0.192-0.28,0.283-0.409c0.199-0.28,0.404-0.556,0.608-0.832
		c0.168-0.227,0.326-0.463,0.507-0.682c0.151-0.183,0.283-0.381,0.421-0.575c0.119-0.167,0.226-0.343,0.352-0.505
		c0.111-0.144,0.225-0.285,0.32-0.441C40.17,30.285,40.199,30.265,40.239,30.225z"/>
	<path id="XMLID_269_" class="st0" d="M38.733,26.884c-0.065-0.019-0.137,0.027-0.199-0.035c-0.007-0.007-0.024-0.009-0.036-0.007
		c-0.182,0.03-0.355-0.049-0.536-0.043c-0.099,0.003-0.199-0.024-0.299-0.036c-0.1-0.012-0.206,0.03-0.3-0.039
		c-0.009-0.006-0.026,0-0.039-0.001c-0.211-0.013-0.423-0.023-0.634-0.041c-0.087-0.008-0.168-0.048-0.26-0.04
		c-0.087,0.008-0.179,0.017-0.26-0.037c-0.005-0.003-0.013,0-0.019,0c-0.205-0.013-0.41-0.024-0.614-0.04
		c-0.094-0.007-0.186-0.027-0.279-0.038c-0.087-0.01-0.178,0.021-0.261-0.038c-0.022-0.015-0.065-0.007-0.097-0.001
		c-0.15,0.027-0.289-0.049-0.437-0.043c-0.018,0.001-0.038-0.032-0.063-0.054c0.285-0.107,0.576-0.182,0.853-0.299
		c0.165,0.004,0.312-0.101,0.48-0.079c0.28-0.084,0.568-0.019,0.851-0.039c0.196,0.063,0.403,0.065,0.603,0.113
		c0.197,0.047,0.384,0.13,0.584,0.164c0.249,0.156,0.542,0.235,0.764,0.44c0.065,0.06,0.141,0.107,0.212,0.159
		C38.743,26.86,38.738,26.872,38.733,26.884z"/>
</g>
<g id="XMLID_147_">
</g>
<g id="XMLID_148_">
</g>
<g id="XMLID_152_">
</g>
<g id="XMLID_156_">
</g>
<g id="XMLID_157_">
</g>
<g id="XMLID_158_">
</g>
</svg>
