<?xml version="1.0" encoding="utf-8"?>
<!-- Generator: Adobe Illustrator 19.0.0, SVG Export Plug-In . SVG Version: 6.00 Build 0)  -->
<svg version="1.1" id="Icons" xmlns="http://www.w3.org/2000/svg" xmlns:xlink="http://www.w3.org/1999/xlink" x="0px" y="0px"
	 viewBox="0 0 60 60" style="enable-background:new 0 0 60 60;" xml:space="preserve">
<style type="text/css">
	.st0{fill:#939598;}
</style>
<g id="XMLID_22_">
	<path id="XMLID_42_" class="st0" d="M2.72,35.09l1.956-0.528l-0.169-0.625l-1.996,0.539c-0.67,0.181-1.053-0.005-1.175-0.457
		c-0.114-0.422,0.121-0.785,0.791-0.965l1.996-0.539L3.955,31.89l-1.961,0.529c-1.077,0.29-1.38,0.923-1.167,1.715
		C1.05,34.957,1.664,35.375,2.72,35.09z"/>
	<path id="XMLID_41_" class="st0" d="M5.825,37.317l-1.131,0.499c-0.496,0.219-0.908,0.418-1.325,0.647l-0.004-0.01
		c0.286-0.304,0.578-0.657,0.844-1.033l1.022-1.451l-0.297-0.674l-3.245,1.43l0.24,0.544l1.16-0.511
		c0.534-0.236,0.961-0.429,1.369-0.638l0.011,0.012c-0.296,0.32-0.6,0.713-0.86,1.075l-1.057,1.478l0.27,0.611l3.245-1.43
		L5.825,37.317z"/>
	
		<rect id="XMLID_36_" x="3.314" y="39.365" transform="matrix(0.8672 -0.4979 0.4979 0.8672 -19.0866 7.8031)" class="st0" width="3.547" height="0.647"/>
	<polygon id="XMLID_26_" class="st0" points="8.069,41.981 8.513,41.67 6.979,39.474 6.535,39.785 7.114,40.613 4.65,42.334 
		5.021,42.864 7.484,41.144 	"/>
	<polygon id="XMLID_27_" class="st0" points="7.753,43.793 8.64,44.793 9.033,44.444 8.146,43.444 8.831,42.836 9.771,43.895 
		10.168,43.543 8.799,41.999 6.146,44.353 7.567,45.956 7.965,45.603 6.973,44.485 	"/>
	<path id="XMLID_28_" class="st0" d="M11.431,44.686c-0.291-0.251-0.583-0.468-0.829-0.618l-2.278,2.642
		c0.142,0.157,0.344,0.359,0.631,0.606c0.522,0.45,1.055,0.694,1.532,0.681c0.454-0.011,0.927-0.229,1.339-0.707
		c0.395-0.458,0.511-0.915,0.434-1.349C12.19,45.522,11.933,45.119,11.431,44.686z M11.293,46.861
		c-0.588,0.681-1.269,0.706-1.903,0.152c-0.1-0.086-0.203-0.175-0.261-0.246l1.656-1.921c0.082,0.042,0.203,0.127,0.359,0.261
		C11.758,45.636,11.809,46.27,11.293,46.861z"/>
	<path id="XMLID_31_" class="st0" d="M15.359,47.484c-0.663-0.389-1.304-0.252-1.597,0.247c-0.258,0.44-0.093,0.897,0.304,1.374
		c0.308,0.37,0.382,0.597,0.246,0.828c-0.146,0.25-0.445,0.3-0.803,0.09c-0.286-0.168-0.505-0.418-0.625-0.629l-0.394,0.391
		c0.109,0.199,0.389,0.491,0.712,0.68c0.79,0.463,1.415,0.251,1.703-0.24c0.258-0.44,0.157-0.86-0.257-1.371
		c-0.315-0.399-0.428-0.611-0.29-0.847c0.104-0.177,0.37-0.277,0.724-0.07c0.286,0.168,0.449,0.379,0.523,0.502l0.4-0.369
		C15.893,47.895,15.69,47.679,15.359,47.484z"/>
	<polygon id="XMLID_32_" class="st0" points="18.665,49.745 18.883,49.248 16.429,48.174 16.212,48.67 17.137,49.075 15.932,51.828 
		16.525,52.087 17.73,49.335 	"/>
	<path id="XMLID_25_" class="st0" d="M19.769,49.523l-2.129,3.055l0.639,0.196l0.587-0.871l1.076,0.331l0.011,1.055l0.664,0.204
		l-0.059-3.728L19.769,49.523z M19.98,51.734l-0.87-0.268l0.518-0.754c0.122-0.183,0.245-0.404,0.356-0.584l0.01,0.003
		c-0.01,0.212-0.026,0.46-0.024,0.686L19.98,51.734z"/>
	<polygon id="XMLID_24_" class="st0" points="21.333,50.569 22.325,50.755 21.772,53.707 22.408,53.826 22.962,50.874 
		23.965,51.062 24.064,50.529 21.433,50.036 	"/>
	<polygon id="XMLID_23_" class="st0" points="24.256,54.101 25.154,54.163 25.154,53.631 24.938,53.616 25.009,52.577 
		25.154,52.587 25.154,52.059 25.045,52.052 25.108,51.139 25.154,51.142 25.154,50.609 24.499,50.564 	"/>
	<path id="XMLID_10_" class="st0" d="M52.467,33.643l0.058-0.212l1.054-0.046l0.182-0.67l-3.724,0.181l-0.203,0.747h0.261h0.657
		c-0.115-0.064-0.23-0.126-0.334-0.185l0.003-0.01c0.212,0.003,0.46,0.011,0.687,0.001l0.916-0.04l-0.064,0.234H52.467z"/>
	<path id="XMLID_40_" class="st0" d="M3.748,28.984c-0.04-0.688-0.235-1.241-0.576-1.574c-0.324-0.318-0.81-0.506-1.44-0.47
		c-0.604,0.035-1.012,0.27-1.271,0.627c-0.254,0.342-0.364,0.807-0.326,1.469c0.022,0.383,0.07,0.744,0.133,1.025l3.483-0.202
		C3.765,29.647,3.77,29.363,3.748,28.984z M3.23,29.241l-2.532,0.147c-0.026-0.088-0.051-0.234-0.062-0.439
		c-0.047-0.809,0.373-1.287,1.156-1.327c0.898-0.052,1.39,0.42,1.433,1.261C3.233,29.014,3.241,29.151,3.23,29.241z"/>
	<polygon id="XMLID_43_" class="st0" points="3.787,24.165 3.257,24.126 3.149,25.617 2.109,25.541 2.207,24.208 1.682,24.17 
		1.585,25.503 0.671,25.436 0.774,24.024 0.244,23.986 0.094,26.043 3.631,26.301 	"/>
	<path id="XMLID_44_" class="st0" d="M3.984,23.006l-1.312-0.255c0.032-0.08,0.058-0.187,0.081-0.306
		c0.087-0.449,0.046-0.87-0.158-1.172c-0.148-0.232-0.401-0.389-0.732-0.453c-0.325-0.063-0.625,0.018-0.836,0.191
		c-0.229,0.186-0.393,0.508-0.484,0.973c-0.083,0.429-0.114,0.75-0.116,0.985l3.435,0.667L3.984,23.006z M2.257,22.348
		c-0.025,0.129-0.05,0.232-0.086,0.305l-1.178-0.229c-0.003-0.07,0.006-0.197,0.04-0.373c0.085-0.439,0.344-0.668,0.732-0.592
		C2.173,21.539,2.35,21.873,2.257,22.348z"/>
	<path id="XMLID_47_" class="st0" d="M4.476,20.763l-0.865-0.596l0.342-1.073l1.055,0l0.211-0.662l-3.729,0.019L1.24,19.238
		L4.272,21.4L4.476,20.763z M3.177,19.917l-0.749-0.526c-0.181-0.124-0.401-0.25-0.58-0.362l0.003-0.01
		c0.211,0.012,0.46,0.031,0.686,0.031h0.917L3.177,19.917z"/>
	<path id="XMLID_50_" class="st0" d="M5.69,17.435L4.374,16.81l0.14-0.295c0.167-0.328,0.373-0.417,0.834-0.309
		c0.442,0.099,0.74,0.147,0.857,0.145l0.286-0.604c-0.155,0.008-0.567-0.083-1.013-0.172c-0.347-0.066-0.636-0.034-0.83,0.153
		l-0.014-0.007c0.033-0.351-0.115-0.765-0.528-0.961c-0.271-0.129-0.542-0.135-0.773-0.029c-0.282,0.128-0.507,0.406-0.726,0.867
		c-0.16,0.338-0.287,0.679-0.353,0.916l3.161,1.5L5.69,17.435z M4.111,16.26l-0.165,0.347l-1.013-0.481
		c0.013-0.064,0.055-0.189,0.143-0.375c0.181-0.38,0.459-0.551,0.811-0.384C4.206,15.519,4.298,15.865,4.111,16.26z"/>
	<polygon id="XMLID_53_" class="st0" points="4.568,13.16 7.105,14.769 7.451,14.223 4.915,12.614 5.461,11.752 5.004,11.462 
		3.569,13.723 4.027,14.013 	"/>
	<path id="XMLID_54_" class="st0" d="M8.529,12.655l-1.026-0.994c-0.349-0.337-0.76-0.722-1.104-1.041l0.007-0.008
		c0.4,0.221,0.849,0.443,1.28,0.636l1.456,0.635l0.328-0.378L8.646,10.11c-0.235-0.412-0.5-0.837-0.754-1.211l0.01-0.012
		C8.264,9.208,8.699,9.55,9.059,9.834l1.138,0.896l0.414-0.477L7.796,8.085L7.244,8.721l0.753,1.301
		c0.225,0.376,0.475,0.753,0.704,1.077l-0.01,0.012c-0.357-0.191-0.747-0.383-1.144-0.56L6.165,9.966L5.607,10.61l2.525,2.502
		L8.529,12.655z"/>
	<polygon id="XMLID_55_" class="st0" points="12.725,8.467 12.379,8.064 11.245,9.037 10.566,8.246 11.581,7.376 11.238,6.977 
		10.224,7.847 9.628,7.152 10.702,6.23 10.356,5.827 8.791,7.17 11.1,9.861 	"/>
	<path id="XMLID_56_" class="st0" d="M13.642,7.808l-0.693-1.062c-0.319-0.489-0.579-0.879-0.852-1.248l0.01-0.013
		c0.364,0.24,0.801,0.477,1.2,0.675l1.63,0.803l0.56-0.365L13.56,3.627l-0.502,0.328l0.675,1.036
		c0.296,0.454,0.559,0.829,0.853,1.203l-0.009,0.006c-0.346-0.233-0.743-0.464-1.156-0.666l-1.598-0.774l-0.617,0.402l1.937,2.971
		L13.642,7.808z"/>
	<polygon id="XMLID_57_" class="st0" points="15.455,3.268 16.746,5.98 17.33,5.702 16.039,2.99 16.961,2.551 16.728,2.062 
		14.31,3.213 14.543,3.702 	"/>
	<path id="XMLID_58_" class="st0" d="M21.008,4.434c0.945-0.254,1.466-1.096,1.157-2.245c-0.262-0.976-1.055-1.575-2.056-1.306
		c-0.966,0.259-1.427,1.179-1.145,2.231C19.235,4.121,20.042,4.694,21.008,4.434z M20.227,1.386c0.625-0.168,1.11,0.361,1.284,1.007
		c0.193,0.717,0.003,1.372-0.601,1.535c-0.6,0.161-1.101-0.304-1.288-1C19.433,2.22,19.607,1.552,20.227,1.386z"/>
	<polygon id="XMLID_61_" class="st0" points="23.8,3.801 23.609,2.308 24.903,2.142 24.836,1.615 23.541,1.781 23.417,0.81 
		24.805,0.632 24.738,0.105 22.707,0.365 23.158,3.883 	"/>
	<polygon id="XMLID_62_" class="st0" points="27.305,3.567 27.952,3.58 28.015,0.576 29.035,0.597 29.047,0.055 26.368,-0.001 
		26.357,0.541 27.367,0.563 	"/>
	<path id="XMLID_63_" class="st0" d="M30.19,2.292l0.323,0.046c0.363,0.062,0.509,0.232,0.543,0.704
		c0.037,0.452,0.08,0.75,0.117,0.862l0.662,0.094c-0.054-0.146-0.09-0.565-0.137-1.019c-0.041-0.351-0.157-0.618-0.394-0.747
		l0.002-0.016c0.345-0.073,0.696-0.337,0.761-0.791c0.042-0.297-0.033-0.557-0.202-0.746c-0.206-0.231-0.539-0.363-1.044-0.435
		c-0.37-0.052-0.734-0.072-0.979-0.065L29.35,3.645l0.636,0.09L30.19,2.292z M30.414,0.713c0.065-0.007,0.197-0.004,0.4,0.025
		c0.417,0.059,0.663,0.275,0.608,0.66c-0.049,0.349-0.353,0.54-0.785,0.479l-0.38-0.054L30.414,0.713z"/>
	<path id="XMLID_66_" class="st0" d="M32.701,4.215l0.568-0.883l1.083,0.308l0.034,1.054l0.668,0.19l-0.14-3.726L34.12,0.932
		l-2.062,3.101L32.701,4.215z M34.006,2.125c0.118-0.185,0.236-0.409,0.343-0.592l0.01,0.003c-0.005,0.212-0.016,0.46-0.009,0.687
		l0.03,0.916L33.504,2.89L34.006,2.125z"/>
	<path id="XMLID_69_" class="st0" d="M36.548,4.14c0.24-0.533,0.427-0.962,0.591-1.39l0.016,0.002
		c-0.006,0.436,0.031,0.931,0.08,1.375l0.203,1.805l0.609,0.274l1.456-3.234l-0.547-0.246l-0.508,1.128
		c-0.223,0.494-0.396,0.918-0.552,1.367l-0.01-0.004c0.009-0.417-0.01-0.876-0.064-1.333L37.613,2.12l-0.672-0.302l-1.456,3.234
		l0.542,0.244L36.548,4.14z"/>
	<path id="XMLID_70_" class="st0" d="M39.633,6.604c-0.282-0.175-0.494-0.431-0.609-0.645L38.62,6.34
		c0.104,0.201,0.377,0.5,0.694,0.697c0.778,0.483,1.408,0.286,1.708-0.197c0.269-0.434,0.178-0.855-0.223-1.377
		c-0.305-0.406-0.413-0.622-0.268-0.854c0.108-0.174,0.377-0.268,0.725-0.051c0.282,0.175,0.439,0.39,0.51,0.515l0.409-0.359
		c-0.107-0.178-0.304-0.399-0.63-0.602c-0.652-0.405-1.297-0.285-1.602,0.207c-0.269,0.434-0.116,0.894,0.269,1.381
		c0.298,0.377,0.367,0.606,0.225,0.834C40.286,6.78,39.986,6.823,39.633,6.604z"/>
	<path id="XMLID_71_" class="st0" d="M41.438,8.421l0.835-1.043c0.056,0.065,0.139,0.138,0.233,0.214
		c0.357,0.286,0.749,0.445,1.112,0.404c0.274-0.023,0.531-0.175,0.741-0.438c0.207-0.259,0.274-0.562,0.219-0.829
		c-0.058-0.289-0.267-0.584-0.637-0.88c-0.341-0.273-0.611-0.449-0.818-0.56L40.936,8.02L41.438,8.421z M43.341,6.042
		c0.063,0.03,0.172,0.097,0.311,0.209c0.349,0.279,0.431,0.615,0.185,0.923c-0.26,0.325-0.638,0.325-1.016,0.023
		c-0.103-0.082-0.182-0.152-0.23-0.218L43.341,6.042z"/>
	<path id="XMLID_74_" class="st0" d="M44.144,10.946c0.672,0.711,1.66,0.769,2.525-0.047c0.734-0.694,0.885-1.676,0.173-2.429
		c-0.686-0.727-1.715-0.696-2.506,0.052C43.579,9.236,43.458,10.219,44.144,10.946z M46.457,8.812
		c0.444,0.47,0.209,1.148-0.276,1.607c-0.539,0.509-1.206,0.654-1.636,0.199c-0.426-0.451-0.255-1.113,0.269-1.608
		C45.345,8.509,46.016,8.345,46.457,8.812z"/>
	<path id="XMLID_77_" class="st0" d="M46.03,13.097l1.189-0.843l0.189,0.266c0.204,0.307,0.182,0.529-0.138,0.879
		c-0.303,0.337-0.49,0.573-0.546,0.677l0.387,0.545c0.069-0.139,0.349-0.454,0.646-0.8c0.227-0.271,0.341-0.538,0.272-0.799
		l0.013-0.009c0.29,0.2,0.723,0.274,1.097,0.009c0.245-0.173,0.382-0.407,0.403-0.66c0.026-0.309-0.106-0.641-0.401-1.057
		c-0.216-0.305-0.452-0.583-0.626-0.756l-2.855,2.024L46.03,13.097z M48.52,11.332c0.049,0.042,0.138,0.141,0.257,0.308
		c0.243,0.343,0.256,0.67-0.062,0.895c-0.288,0.204-0.635,0.115-0.887-0.242l-0.222-0.313L48.52,11.332z"/>
	<polygon id="XMLID_80_" class="st0" points="47.665,15.635 47.972,16.205 50.616,14.779 51.1,15.677 51.577,15.42 50.306,13.063 
		49.829,13.32 50.308,14.209 	"/>
	<path id="XMLID_81_" class="st0" d="M48.603,17.475l1.046-0.092l0.42,1.045L49.256,19.1l0.259,0.644l2.861-2.391l-0.308-0.766
		l-3.714,0.268L48.603,17.475z M51.055,17.226c0.219-0.02,0.468-0.063,0.678-0.091l0.004,0.01c-0.171,0.125-0.374,0.269-0.548,0.413
		l-0.706,0.584l-0.339-0.844L51.055,17.226z"/>
	<polygon id="XMLID_84_" class="st0" points="52.574,19.639 49.68,20.443 49.853,21.066 52.747,20.262 53.02,21.246 53.542,21.101 
		52.826,18.521 52.304,18.665 	"/>
	
		<rect id="XMLID_85_" x="50.197" y="22.099" transform="matrix(-0.9832 0.1826 -0.1826 -0.9832 107.1616 34.977)" class="st0" width="3.547" height="0.647"/>
	<path id="XMLID_86_" class="st0" d="M50.493,25.206c0.075,0.976,0.807,1.642,1.993,1.551c1.007-0.078,1.742-0.746,1.662-1.78
		c-0.077-0.997-0.895-1.62-1.981-1.536C51.128,23.522,50.416,24.21,50.493,25.206z M53.632,25.001
		c0.05,0.645-0.56,1.025-1.226,1.076c-0.74,0.057-1.349-0.25-1.397-0.874c-0.048-0.619,0.502-1.025,1.22-1.081
		C52.959,24.067,53.583,24.362,53.632,25.001z"/>
	<path id="XMLID_89_" class="st0" d="M52.559,29.222l1.585-0.8l0.055-0.735l-3.537-0.263l-0.044,0.593l1.265,0.094
		c0.583,0.043,1.05,0.073,1.509,0.081l0.004,0.016c-0.412,0.144-0.865,0.347-1.265,0.544l-1.627,0.808l-0.05,0.667l3.537,0.263
		l0.044-0.598L52.801,29.8c-0.541-0.04-0.998-0.059-1.474-0.052l0.001-0.011C51.723,29.603,52.147,29.429,52.559,29.222z"/>
	<path id="XMLID_90_" class="st0" d="M46.647,33.643c0.698-2.07,1.093-4.278,1.093-6.583c-0.665,2.714-2.122,4.954-3.926,6.583
		h1.391H46.647z"/>
	<path id="XMLID_91_" class="st0" d="M23.146,31.197c-0.015-0.002-0.03-0.002-0.045-0.004c-0.283-0.024-0.574-0.041-0.881-0.041
		c-0.725,0-1.391,0.118-1.999,0.329c-3.015,0.925-5.208,3.731-5.208,7.049c0,3.85,3.914,8.221,10.141,9.003v-8.82
		c0-2.393,1.672-4.393,3.905-4.923C27.343,32.6,25.694,31.429,23.146,31.197z"/>
	<path id="XMLID_92_" class="st0" d="M32.706,28.442c0.006,0.014,0.013,0.027,0.019,0.041c0.121,0.258,0.252,0.518,0.405,0.784
		c0.363,0.628,0.798,1.145,1.285,1.566c2.309,2.149,5.835,2.645,8.709,0.985c3.676-2.122,5.54-8.681,1.855-15.063
		C39.288,6.898,26.684,3.521,16.827,9.212c5.779-1.683,11.512,0.881,13.705,4.678C33.971,19.847,30.386,23.421,32.706,28.442z"/>
	<path id="XMLID_93_" class="st0" d="M25.541,21.54c0.009-0.012,0.017-0.025,0.026-0.037c0.163-0.233,0.323-0.477,0.476-0.743
		c0.362-0.628,0.593-1.264,0.714-1.896c0.706-3.074-0.627-6.375-3.501-8.035c-3.676-2.122-10.287-0.457-13.972,5.925
		c-5.691,9.857-2.314,22.461,7.543,28.152c-4.347-4.164-4.994-10.41-2.801-14.208C17.465,24.743,22.352,26.061,25.541,21.54z"/>
	<path id="XMLID_94_" class="st0" d="M56.902,35.643h-3.938h-0.141h-2.729h-0.334h-0.628H45.85h-0.645h-4.382h-8.645h-1.898h-0.056
		c-1.693,0-3.071,1.378-3.071,3.071v8.953v4.216v4.957c0,1.693,1.378,3.071,3.071,3.071h26.677c1.708,0,3.098-1.378,3.098-3.071
		V38.714C60,37.021,58.61,35.643,56.902,35.643z M39.986,57.262c-0.351,0.041-0.701,0.061-1.05,0.061
		c-3.025,0-5.913-1.504-7.658-3.981c-0.405-0.547-0.713-1.158-0.967-1.793c-0.508-1.271-0.722-2.676-0.64-4.052
		c0.082-1.379,0.459-2.73,1.134-3.889c1.653-2.868,4.788-4.614,8.222-4.614c0.283,0,0.568,0.012,0.854,0.036
		c0.263,0.605-0.026,0.973,0.105,1.526l-0.026,1.184c-0.418-0.09-0.835-0.133-1.244-0.133c-2.118,0-4.072,1.153-5.306,3.027
		c-0.454,0.652-0.759,1.456-0.91,2.304c-0.181,1.016-0.128,2.091,0.166,3.054c0.053,0.172,0.116,0.337,0.185,0.501
		c0.062,0.149,0.118,0.302,0.194,0.443c0.069,0.127,0.127,0.262,0.207,0.381c0.191,0.326,0.415,0.624,0.653,0.907
		c0.16,0.191,0.325,0.377,0.505,0.548c1.281,1.218,3.029,1.914,4.938,1.914c0.22,0,0.442-0.009,0.665-0.028
		C40.091,55.447,39.959,56.446,39.986,57.262z M54.192,46.765l0.053,2.552l-5.656-0.079c0.184,1.947,1.842,3.683,3.394,4.551
		c1.015,0.64,2.307,0.836,3.505,0.836c0.231,0,0.458-0.007,0.678-0.02v2.631c-0.369,0.044-0.739,0.066-1.108,0.066
		c-3.332,0-6.545-1.785-8.179-4.723c-1.03-1.632-1.361-3.73-1.086-5.717c0.028-0.203,0.068-0.401,0.108-0.601
		c0.088-0.432,0.208-0.85,0.354-1.259c0.078-0.217,0.151-0.437,0.245-0.645c0.178-0.392,0.38-0.768,0.614-1.118
		c0.192-0.311,0.408-0.604,0.637-0.884c0.138-0.168,0.292-0.32,0.441-0.476c0.184-0.192,0.37-0.381,0.571-0.555
		c0.212-0.183,0.43-0.359,0.659-0.522c0.32-0.228,0.656-0.435,1.005-0.621c0.219-0.117,0.448-0.215,0.677-0.314
		c1.26-0.549,2.652-0.856,4.093-0.856c0.329,0,0.661,0.015,0.993,0.046c0,0.868-0.026,1.921,0.026,2.526
		c-0.232-0.018-0.474-0.027-0.72-0.027c-1.233,0-2.603,0.237-3.7,0.895c-1.552,1-2.841,2.499-3.289,4.288L54.192,46.765z"/>
</g>
<g id="XMLID_1_">
</g>
<g id="XMLID_2_">
</g>
<g id="XMLID_7_">
</g>
<g id="XMLID_8_">
</g>
<g id="XMLID_9_">
</g>
<g id="XMLID_11_">
</g>
</svg>
