<?xml version="1.0" encoding="utf-8"?>
<!-- Generator: Adobe Illustrator 19.0.0, SVG Export Plug-In . SVG Version: 6.00 Build 0)  -->
<svg version="1.1" id="Icons" xmlns="http://www.w3.org/2000/svg" xmlns:xlink="http://www.w3.org/1999/xlink" x="0px" y="0px"
	 viewBox="0 0 60 60" style="enable-background:new 0 0 60 60;" xml:space="preserve">
<style type="text/css">
	.st0{fill:#CCCCCC;}
	.st1{fill:#929497;}
</style>
<g id="XMLID_449_">
	<path id="XMLID_450_" class="st0" d="M16.763,53.332L40.095,30L16.763,6.668l-6.62,6.62L26.856,30L10.143,46.713L16.763,53.332z
		 M16.763,53.332"/>
	<g id="XMLID_453_">
		<path id="XMLID_454_" class="st0" d="M30.049,13.287L46.762,30L30.049,46.713l6.618,6.62L60,30L36.667,6.668L30.049,13.287z
			 M30.049,13.287"/>
	</g>
	<g id="XMLID_457_">
		<path id="XMLID_458_" class="st1" d="M23.332,6.668L0,30l23.332,23.333l6.62-6.62l-12.461-12.46H50.96v-8.506H17.491l12.461-12.46
			L23.332,6.668z M23.332,6.668"/>
	</g>
	<polygon id="XMLID_461_" class="st0" points="40.095,30 29.987,40.109 22.176,34.68 26.856,30 21.651,24.795 30.206,20.111 	"/>
</g>
<g id="XMLID_120_">
</g>
<g id="XMLID_121_">
</g>
<g id="XMLID_122_">
</g>
<g id="XMLID_123_">
</g>
<g id="XMLID_124_">
</g>
<g id="XMLID_126_">
</g>
</svg>
