<?xml version="1.0" encoding="utf-8"?>
<!-- Generator: Adobe Illustrator 19.0.0, SVG Export Plug-In . SVG Version: 6.00 Build 0)  -->
<svg version="1.1" id="Icons" xmlns="http://www.w3.org/2000/svg" xmlns:xlink="http://www.w3.org/1999/xlink" x="0px" y="0px"
	 viewBox="0 0 60 60" style="enable-background:new 0 0 60 60;" xml:space="preserve">
<style type="text/css">
	.st0{fill:#939598;}
</style>
<path id="XMLID_368_" class="st0" d="M43.718,22.954c-0.303,0-0.601,0.02-0.898,0.046l-5.337-5.336
	c1.705-1.879,2.753-4.363,2.753-7.096C40.236,4.728,35.505,0,29.668,0S19.102,4.728,19.102,10.568c0,2.51,0.882,4.815,2.344,6.63
	l-5.791,5.79c-5.543,0.324-9.939,4.908-9.939,10.533c0,5.834,4.731,10.568,10.568,10.568c5.377,0,9.806-4.022,10.471-9.218h6.493
	c0.663,5.197,5.093,9.218,10.471,9.218c5.835,0,10.566-4.734,10.566-10.568C54.284,27.687,49.553,22.954,43.718,22.954z
	 M29.668,3.283c4.022,0,7.282,3.26,7.282,7.284c0,4.022-3.26,7.279-7.282,7.279s-7.282-3.257-7.282-7.279
	C22.387,6.543,25.647,3.283,29.668,3.283z M16.284,40.806c-4.023,0-7.283-3.263-7.283-7.285s3.26-7.282,7.283-7.282
	c4.021,0,7.282,3.26,7.282,7.282S20.305,40.806,16.284,40.806z M19.35,23.411l4.224-4.224c1.723,1.219,3.823,1.943,6.094,1.943
	c2.047,0,3.949-0.588,5.566-1.595l4.289,4.291c-3.289,1.424-5.699,4.473-6.245,8.13h-6.558C26.116,27.89,23.205,24.581,19.35,23.411
	z M43.718,40.806c-4.023,0-7.283-3.263-7.283-7.285s3.26-7.282,7.283-7.282c4.023,0,7.283,3.26,7.283,7.282
	S47.741,40.806,43.718,40.806z"/>
<g id="XMLID_1171_">
	<path id="XMLID_1172_" class="st0" d="M2.914,52.385c1.927-0.296,3.787-0.442,5.584-0.442c1.975,0,3.358,0.229,4.151,0.687
		c0.791,0.458,1.187,1.314,1.187,2.571v1.715c0,2.057-1.445,3.085-4.334,3.085h-5.34c-1.583,0-2.673-0.273-3.268-0.82
		C0.299,58.633,0,57.609,0,56.107v-1.665c0-2.352,0.813-4.171,2.438-5.461s3.922-1.935,6.892-1.935c0.212,0,0.514,0.017,0.907,0.05
		l1.739,2.033h-0.808c-2.514,0-4.359,0.212-5.534,0.637C4.277,50.238,3.372,51.111,2.914,52.385z M2.743,54.295
		c-0.032,0.195-0.05,0.441-0.05,0.735c0,1.143,0.143,1.877,0.429,2.203c0.285,0.326,1.016,0.49,2.192,0.49h3.527
		c0.897,0,1.505-0.111,1.824-0.331c0.318-0.22,0.477-0.615,0.477-1.187V55.52c0-0.622-0.191-1.03-0.576-1.225
		c-0.383-0.196-1.122-0.294-2.215-0.294C6.554,54.001,4.685,54.098,2.743,54.295z"/>
	<path id="XMLID_1177_" class="st0" d="M17.901,50.352c0-1.16,0.203-1.947,0.612-2.364c0.408-0.417,1.167-0.623,2.277-0.623h8.546
		c1.11,0,1.87,0.207,2.279,0.623s0.612,1.204,0.612,2.364v6.66c0,1.16-0.203,1.947-0.612,2.362C31.206,59.792,30.446,60,29.336,60
		H20.79c-1.11,0-1.869-0.208-2.277-0.625c-0.408-0.415-0.612-1.203-0.612-2.362V50.352z M20.545,57.723h9.036v-8.204h-9.036V57.723z
		"/>
	<path id="XMLID_1639_" class="st0" d="M39.364,52.385c1.927-0.296,3.787-0.442,5.584-0.442c1.975,0,3.358,0.229,4.151,0.687
		c0.791,0.458,1.187,1.314,1.187,2.571v1.715c0,2.057-1.445,3.085-4.334,3.085h-5.34c-1.583,0-2.673-0.273-3.268-0.82
		c-0.596-0.547-0.895-1.571-0.895-3.073v-1.665c0-2.352,0.813-4.171,2.438-5.461c1.624-1.29,3.922-1.935,6.892-1.935
		c0.212,0,0.514,0.017,0.907,0.05l1.739,2.033h-0.808c-2.514,0-4.359,0.212-5.534,0.637C40.727,50.238,39.822,51.111,39.364,52.385z
		 M39.193,54.295c-0.032,0.195-0.05,0.441-0.05,0.735c0,1.143,0.143,1.877,0.429,2.203c0.285,0.326,1.016,0.49,2.192,0.49h3.527
		c0.897,0,1.505-0.111,1.824-0.331c0.318-0.22,0.477-0.615,0.477-1.187V55.52c0-0.622-0.191-1.03-0.576-1.225
		c-0.383-0.196-1.122-0.294-2.215-0.294C43.004,54.001,41.135,54.098,39.193,54.295z"/>
	<path id="XMLID_1642_" class="st0" d="M57.33,60V49.765h-2.694v-1.691L60,47.266V60H57.33z"/>
</g>
<g id="XMLID_105_">
</g>
<g id="XMLID_109_">
</g>
<g id="XMLID_113_">
</g>
<g id="XMLID_115_">
</g>
<g id="XMLID_116_">
</g>
<g id="XMLID_117_">
</g>
</svg>
