<?xml version="1.0" encoding="utf-8"?>
<!-- Generator: Adobe Illustrator 19.0.0, SVG Export Plug-In . SVG Version: 6.00 Build 0)  -->
<svg version="1.1" id="Icons" xmlns="http://www.w3.org/2000/svg" xmlns:xlink="http://www.w3.org/1999/xlink" x="0px" y="0px"
	 viewBox="0 0 60 60" style="enable-background:new 0 0 60 60;" xml:space="preserve">
<style type="text/css">
	.st0{fill:#939598;}
</style>
<g id="XMLID_176_">
	<path id="XMLID_177_" class="st0" d="M0,20.099L1.441,5.873h22.185l-0.448,4.377H5.272l-0.597,4.974
		c4.244-0.431,7.709-0.647,10.396-0.647c8.489,0,12.733,2.902,12.733,8.705c0,3.051-1.137,5.231-3.407,6.541
		c-2.272,1.31-5.844,1.965-10.719,1.965c-5.306,0-9.434-0.315-12.386-0.945L0,25.869c4.94,0.895,9.451,1.343,13.529,1.343
		c3.116,0,5.355-0.306,6.715-0.92c1.359-0.614,2.04-1.699,2.04-3.258c0-1.459-0.697-2.503-2.089-3.133
		c-1.261-0.564-3.367-0.845-6.317-0.845C9.963,19.054,5.338,19.402,0,20.099z"/>
</g>
<g id="XMLID_179_">
	<path id="XMLID_180_" class="st0" d="M9.824,57.607L0.983,35.864h5.551l5.706,15.164l6.116-15.164h3.65l6.066,15.164l5.602-15.164
		h4.78l-8.738,21.743h-3.598l-6.271-15.369l-6.374,15.369H9.824z"/>
</g>
<path id="XMLID_182_" class="st0" d="M58.284,22.258h-8.29l9.721-16.853c0.748-1.294-0.069-3.013-1.432-3.013H33.175
	c-0.76,0-1.429,0.569-1.644,1.397l-2.382,25.49c-0.322,1.246,0.5,2.494,1.644,2.494h15.273L36.274,56.42
	c-0.21,1.077,1.07,1.656,1.57,0.711l21.908-31.925C60.439,23.91,59.616,22.258,58.284,22.258z M47.607,19.475
	c-1.29,0.744-3.319,1.116-6.088,1.116c-3.014,0-5.358-0.178-7.034-0.537l-0.734-2.825c2.806,0.509,5.368,0.763,7.684,0.763
	c1.77,0,3.042-0.174,3.814-0.523c0.772-0.348,1.159-0.965,1.159-1.85c0-0.829-0.396-1.422-1.186-1.78
	c-0.716-0.32-1.912-0.48-3.588-0.48c-2.223,0-4.85,0.197-7.882,0.593l0.819-8.08h12.6l-0.254,2.486h-10.17l-0.339,2.825
	c2.41-0.245,4.379-0.367,5.904-0.367c4.821,0,7.232,1.648,7.232,4.943C49.542,17.493,48.897,18.732,47.607,19.475z"/>
<g id="XMLID_268_">
</g>
<g id="XMLID_271_">
</g>
<g id="XMLID_273_">
</g>
<g id="XMLID_274_">
</g>
<g id="XMLID_275_">
</g>
<g id="XMLID_277_">
</g>
</svg>
