<?xml version="1.0" encoding="utf-8"?>
<!-- Generator: Adobe Illustrator 19.0.0, SVG Export Plug-In . SVG Version: 6.00 Build 0)  -->
<svg version="1.1" id="Icons" xmlns="http://www.w3.org/2000/svg" xmlns:xlink="http://www.w3.org/1999/xlink" x="0px" y="0px"
	 viewBox="0 0 60 60" style="enable-background:new 0 0 60 60;" xml:space="preserve">
<style type="text/css">
	.st0{fill:#939598;}
</style>
<path id="XMLID_215_" class="st0" d="M28.075,59.524l19.201-31.925c0.78-1.297-0.154-2.948-1.667-2.948H32.787L46.993,3.012
	c0.85-1.294-0.079-3.013-1.626-3.013h-22.09c-0.863,0-1.623,0.569-1.866,1.397l-8.888,30.275c-0.366,1.246,0.568,2.494,1.867,2.494
	h17.344l-5.442,24.647C26.053,59.889,27.506,60.468,28.075,59.524L28.075,59.524z M28.075,59.524"/>
<path id="XMLID_218_" class="st0" d="M0.454,33.473c-0.347,0-0.604,0.422-0.356,0.743c2.443,3.159,3.696,6.997,6.422,9.998
	c2.508,2.76,5.763,4.857,9.457,5.567c2.813,0.541,5.906,0.05,8.644,0.856c0.056,0.017,0.11,0.031,0.163,0.044
	c0.975,1.372,1.464,1.589,1.779,3.271c0.26,1.386,0.296,1.463,0.175,2.839c-0.018,0.203,0.841-1.068,0.894-1.082
	c0.341-0.094,0.521-0.443,0.441-0.778c-0.79-3.347-2.874-6.36-5.408-8.638c-1.448-1.302-3.043-2.354-4.725-3.254
	c-0.737-0.394-1.49-0.758-2.254-1.101c-0.008-0.003-0.016-0.007-0.023-0.01c-0.008-0.003-0.016-0.007-0.024-0.011
	c-0.368-0.165-0.739-0.325-1.112-0.481c-0.005-0.002-0.011-0.005-0.016-0.007c-0.007-0.003-0.014-0.006-0.021-0.009
	c-1.157-0.483-2.334-0.928-3.515-1.361c1.238,0.196,2.475,0.513,3.696,0.888c0.007,0.002,0.015,0.005,0.022,0.007
	c0.006,0.002,0.011,0.003,0.017,0.005c0.606,0.187,1.208,0.388,1.804,0.595c0.01,0.004,0.021,0.007,0.031,0.011
	c0.01,0.003,0.02,0.007,0.03,0.01c0.506,0.176,1.008,0.357,1.504,0.536c2.943,1.065,5.377,2.984,7.769,4.95
	c0.089,0.073,0.19,0.106,0.287,0.106c0.275,0,0.528-0.258,0.446-0.575c-0.69-2.68-2.125-5.192-4.112-7.102l-0.014-0.013
	c-0.005-0.005-0.01-0.01-0.016-0.015c-1.323-1.265-2.889-2.262-4.643-2.867c-0.007-0.002-0.014-0.005-0.021-0.007
	c-0.007-0.002-0.014-0.005-0.021-0.007c-0.072-0.025-0.144-0.048-0.217-0.072c-0.194-0.062-0.389-0.12-0.584-0.176
	c-0.007-0.002-0.015-0.004-0.022-0.006c-0.007-0.002-0.013-0.004-0.02-0.006c-0.874-0.249-1.755-0.438-2.643-0.589
	c-0.006-0.001-0.013-0.002-0.019-0.003c-0.007-0.001-0.014-0.002-0.021-0.003c-2.386-0.401-4.812-0.519-7.238-0.733
	c-2.119-0.187-4.374-0.546-6.34-1.473C0.585,33.487,0.518,33.473,0.454,33.473L0.454,33.473z M0.454,33.473"/>
<path id="XMLID_219_" class="st0" d="M56.668,8.577c-2.385,0.672-7.371,0.213-11.836,2.506c-4.465,2.296-4.62,6.423-4.344,7.799
	c0.158,0.791,0.738,1.219,1.204,1.438c0.192-0.897,0.484-1.857,0.948-2.782c2.063-3.629,6.1-4.713,6.775-4.949
	c0.36-0.118,1.016-0.287,1.789-0.453c0.785-0.155,1.629-0.349,2.456-0.645c1.638-0.54,3.044-1.196,3.042-1.196
	c0.003,0-1.314,0.822-2.903,1.551c-0.776,0.38-1.685,0.692-2.434,0.908c-0.751,0.234-1.374,0.442-1.719,0.557
	c-0.344,0.115-1.426,0.45-2.661,1.215c-0.624,0.391-1.247,0.866-1.916,1.48c-0.617,0.518-1.117,1.218-1.469,1.995
	c-0.617,1.356-0.836,2.847-0.912,4.048c0.397,0.489,1.165,0.933,2.63,1.021C58.013,21.94,60,6.373,60,6.373
	S59.055,7.904,56.668,8.577L56.668,8.577z M56.668,8.577"/>
<g id="XMLID_163_">
</g>
<g id="XMLID_164_">
</g>
<g id="XMLID_205_">
</g>
<g id="XMLID_207_">
</g>
<g id="XMLID_208_">
</g>
<g id="XMLID_209_">
</g>
</svg>
