<?xml version="1.0" encoding="utf-8"?>
<!-- Generator: Adobe Illustrator 19.0.0, SVG Export Plug-In . SVG Version: 6.00 Build 0)  -->
<svg version="1.1" id="Icons" xmlns="http://www.w3.org/2000/svg" xmlns:xlink="http://www.w3.org/1999/xlink" x="0px" y="0px"
	 viewBox="0 0 60 60" style="enable-background:new 0 0 60 60;" xml:space="preserve">
<style type="text/css">
	.st0{fill:#939598;}
</style>
<g id="XMLID_268_">
	<g id="XMLID_281_">
		<path id="XMLID_280_" class="st0" d="M5.926,31.788c-2.277,0-3.834-0.343-4.671-1.03C0.419,30.073,0,28.725,0,26.715v-2.109
			l5.324-1.105v3.616h13.962c1.071,0,1.758-0.167,2.06-0.503c0.301-0.334,0.452-0.937,0.452-1.808v-1.909
			c0-1.037-0.201-1.69-0.602-1.958c-0.402-0.268-1.038-0.402-1.909-0.402h-8.738V16.32h7.784c1.272,0,2.025-0.302,2.26-0.904
			c0.134-0.335,0.201-0.821,0.201-1.457v-1.306c0-0.87-0.142-1.481-0.427-1.833c-0.285-0.352-0.963-0.527-2.034-0.527H5.525v3.214
			l-5.123-0.954v-1.607c0-2.009,0.419-3.356,1.256-4.043c0.836-0.686,2.393-1.029,4.671-1.029H20.34
			c2.276,0,3.834,0.343,4.671,1.029c0.837,0.687,1.256,2.034,1.256,4.043v2.36c0,1.541-0.368,2.671-1.105,3.39
			c-0.737,0.721-2.042,1.231-3.917,1.532c4.017,0.402,6.027,2.16,6.027,5.274v2.712c0,2.076-0.419,3.499-1.256,4.269
			c-0.905,0.871-2.579,1.306-5.022,1.306H5.926z"/>
	</g>
	<g id="XMLID_275_">
		<path id="XMLID_277_" class="st0" d="M9.825,57.608L0.984,35.864h5.551l5.706,15.164l6.116-15.164h3.65l6.066,15.164l5.602-15.164
			h4.78l-8.738,21.743H26.12l-6.271-15.369l-6.374,15.369H9.825z"/>
	</g>
	<path id="XMLID_271_" class="st0" d="M58.285,22.259h-8.29l9.721-16.853c0.748-1.294-0.069-3.013-1.432-3.013H33.175
		c-0.76,0-1.429,0.569-1.644,1.397l-2.382,25.49c-0.322,1.246,0.5,2.494,1.644,2.494h15.273L36.274,56.42
		c-0.21,1.077,1.07,1.656,1.57,0.711l21.908-31.925C60.439,23.91,59.617,22.259,58.285,22.259z M47.607,19.476
		c-1.29,0.744-3.319,1.116-6.088,1.116c-3.014,0-5.358-0.178-7.034-0.537l-0.734-2.825c2.806,0.509,5.368,0.763,7.684,0.763
		c1.77,0,3.042-0.174,3.814-0.523c0.772-0.348,1.159-0.965,1.159-1.85c0-0.829-0.396-1.422-1.186-1.78
		c-0.716-0.32-1.912-0.48-3.588-0.48c-2.223,0-4.85,0.197-7.882,0.593l0.819-8.08h12.6l-0.254,2.486h-10.17l-0.339,2.825
		c2.41-0.245,4.379-0.367,5.904-0.367c4.821,0,7.232,1.648,7.232,4.943C49.543,17.494,48.897,18.732,47.607,19.476z"/>
</g>
<g id="XMLID_286_">
</g>
<g id="XMLID_291_">
</g>
<g id="XMLID_292_">
</g>
<g id="XMLID_293_">
</g>
<g id="XMLID_295_">
</g>
<g id="XMLID_296_">
</g>
</svg>
