<?xml version="1.0" encoding="utf-8"?>
<!-- Generator: Adobe Illustrator 19.0.0, SVG Export Plug-In . SVG Version: 6.00 Build 0)  -->
<svg version="1.1" id="Icons" xmlns="http://www.w3.org/2000/svg" xmlns:xlink="http://www.w3.org/1999/xlink" x="0px" y="0px"
	 viewBox="0 0 60 60" style="enable-background:new 0 0 60 60;" xml:space="preserve">
<style type="text/css">
	.st0{fill:#939598;}
	.st1{fill:none;}
	.st2{fill:#CCCCCC;}
</style>
<path id="XMLID_953_" class="st0" d="M40.462,37.692c-0.293-0.293-0.434-0.692-0.433-1.22l-0.002-2.49L30,44.01l-9.777-9.777
	l-0.001,1.956c0.001,1.078-0.493,1.509-0.909,1.682c-0.008,0.004-0.016,0.005-0.025,0.008l10.711,10.711l10.723-10.723
	C40.633,37.813,40.536,37.767,40.462,37.692z"/>
<path id="XMLID_952_" class="st0" d="M17.328,30.842l1.068-0.002l11.918,0.001l0.062-0.013l0.116-0.001h11.351l1.069-0.001
	l-0.003,1.067l0.002,2.373l7.377-7.581c-1.171-1.147-5.778-5.613-7.624-7.402l-0.001,2.418l0.002,1.068l-1.07,0L29.684,22.77
	l-0.059,0.014l-0.124-0.001l-11.356,0.002l-1.066,0.001v-1.067l0-2.374l-7.377,7.581c1.18,1.156,5.78,5.615,7.625,7.402l0.001-2.419
	V30.842z"/>
<path id="XMLID_966_" class="st1" d="M6.522,26.738c0,12.968,10.511,23.48,23.478,23.48c12.967,0,23.478-10.511,23.478-23.48
	c0-5.918-2.194-11.32-5.808-15.449H12.329C8.716,15.418,6.522,20.82,6.522,26.738z"/>
<path id="XMLID_968_" class="st2" d="M60,26.738c0-5.651-1.565-10.936-4.282-15.449h-8.047c3.613,4.129,5.808,9.531,5.808,15.449
	c0,12.968-10.512,23.48-23.478,23.48c-12.967,0-23.478-10.511-23.478-23.48c0-5.918,2.194-11.32,5.807-15.449H4.281
	C1.565,15.802,0,21.087,0,26.738c0,16.569,13.43,30.001,30,30.001C46.568,56.739,60,43.307,60,26.738z"/>
<path id="XMLID_969_" class="st2" d="M38.281,4.768H21.719c-3.651,1.377-6.867,3.638-9.39,6.522h35.342
	C45.147,8.405,41.932,6.144,38.281,4.768z"/>
<path id="XMLID_972_" class="st2" d="M21.719,4.768H9.581c-2.055,1.911-3.844,4.104-5.3,6.522h8.048
	C14.853,8.405,18.068,6.144,21.719,4.768z"/>
<path id="XMLID_973_" class="st2" d="M47.671,11.289h8.047c-1.456-2.418-3.245-4.611-5.3-6.522H38.281
	C41.932,6.144,45.147,8.405,47.671,11.289z"/>
<polygon id="XMLID_955_" class="st1" points="24.941,14.526 35.063,14.526 30.002,9.465 "/>
<polygon id="XMLID_957_" class="st0" points="19.973,19.494 21.704,17.762 19.972,17.762 "/>
<polygon id="XMLID_961_" class="st0" points="39.78,19.243 39.779,17.762 38.3,17.762 "/>
<polygon id="XMLID_964_" class="st0" points="24.941,14.526 21.704,17.762 38.3,17.762 35.063,14.526 "/>
<path id="XMLID_967_" class="st0" d="M40.69,15.606c0.006-0.003,0.013-0.002,0.02-0.007l-1.073-1.073h-4.574l3.237,3.237h1.479
	l0-0.475C39.78,16.21,40.274,15.778,40.69,15.606z"/>
<path id="XMLID_970_" class="st0" d="M20.364,14.526l-1.073,1.073c0.41,0.254,0.68,0.749,0.681,1.405l0,0.759h1.732l3.237-3.237
	H20.364z"/>
<g id="XMLID_22_">
</g>
<g id="XMLID_74_">
</g>
<g id="XMLID_75_">
</g>
<g id="XMLID_76_">
</g>
<g id="XMLID_78_">
</g>
<g id="XMLID_80_">
</g>
</svg>
