<?xml version="1.0" encoding="utf-8"?>
<!-- Generator: Adobe Illustrator 19.0.0, SVG Export Plug-In . SVG Version: 6.00 Build 0)  -->
<svg version="1.1" id="Icons" xmlns="http://www.w3.org/2000/svg" xmlns:xlink="http://www.w3.org/1999/xlink" x="0px" y="0px"
	 viewBox="0 0 60 60" style="enable-background:new 0 0 60 60;" xml:space="preserve">
<style type="text/css">
	.st0{fill:#939598;}
</style>
<g id="XMLID_204_">
	<path id="XMLID_205_" class="st0" d="M0,11.333V0h9.707c1.7,0,2.549,0.733,2.549,2.197v2.525c0,1.466-0.849,2.197-2.549,2.197
		H2.591v4.415H0z M8.521,1.933h-5.93v3.053h5.93c0.409,0,0.695-0.045,0.856-0.134c0.22-0.134,0.329-0.393,0.329-0.779V2.847
		c0-0.386-0.109-0.647-0.329-0.779C9.216,1.978,8.93,1.933,8.521,1.933z"/>
	<path id="XMLID_208_" class="st0" d="M17.57,11.333c-0.997,0-1.676-0.15-2.043-0.45c-0.366-0.3-0.549-0.89-0.549-1.768V8.192
		l2.327-0.484V9.29h6.105c0.468,0,0.769-0.073,0.901-0.22c0.132-0.145,0.198-0.409,0.198-0.79V7.445c0-0.454-0.088-0.74-0.265-0.856
		c-0.175-0.118-0.454-0.177-0.835-0.177H19.59V4.568h3.405c0.556,0,0.885-0.13,0.988-0.395c0.057-0.147,0.088-0.359,0.088-0.636
		V2.965c0-0.381-0.063-0.647-0.188-0.801c-0.123-0.154-0.42-0.231-0.888-0.231h-5.601v1.405l-2.239-0.416V2.217
		c0-0.878,0.182-1.467,0.549-1.768S16.75,0,17.745,0h6.127c0.996,0,1.676,0.15,2.043,0.45s0.549,0.89,0.549,1.768v1.033
		c0,0.674-0.161,1.167-0.483,1.482c-0.322,0.316-0.894,0.54-1.712,0.67c1.757,0.177,2.634,0.945,2.634,2.306v1.187
		c0,0.908-0.182,1.53-0.549,1.868c-0.395,0.381-1.128,0.57-2.197,0.57H17.57z"/>
	<path id="XMLID_210_" class="st0" d="M31.042,2.217c0-0.878,0.184-1.467,0.55-1.768C31.957,0.15,32.638,0,33.634,0h5.821
		c0.996,0,1.676,0.15,2.041,0.45c0.366,0.3,0.55,0.89,0.55,1.768v0.726c0,0.615-0.111,1.083-0.331,1.405
		c-0.175,0.25-0.556,0.55-1.142,0.901L33.92,9.29h6.588V7.62l2.088,0.593v0.901c0,0.878-0.184,1.467-0.549,1.768
		c-0.366,0.3-1.047,0.45-2.043,0.45h-9.531v-1.033c0-0.438,0.073-0.776,0.22-1.01c0.189-0.322,0.592-0.672,1.208-1.054l7.839-4.831
		V1.933h-6.456V4.26l-2.241-0.57V2.217z"/>
	<path id="XMLID_212_" class="st0" d="M46.229,11.333V0h7.292c2.093,0,3.696,0.491,4.81,1.473C59.442,2.453,60,3.83,60,5.601
		c0,1.128-0.257,2.152-0.769,3.074c-0.558,0.967-1.333,1.662-2.329,2.088c-0.908,0.381-2.263,0.57-4.062,0.57H46.229z M48.865,9.202
		h3.403c1.743,0,2.994-0.256,3.755-0.769c0.835-0.556,1.253-1.516,1.253-2.877c0-2.357-1.246-3.535-3.734-3.535h-4.677V9.202z"/>
</g>
<polygon id="XMLID_706_" class="st0" points="60,21.985 60,15.42 0,15.42 0,21.985 7.71,21.985 7.71,32.977 2.748,32.977 
	2.748,39.389 7.71,39.389 7.71,41.985 14.046,41.985 14.046,60 45.954,60 45.954,41.985 52.29,41.985 52.29,39.389 57.252,39.389 
	57.252,32.977 52.29,32.977 52.29,21.985 "/>
<g id="XMLID_247_">
</g>
<g id="XMLID_248_">
</g>
<g id="XMLID_249_">
</g>
<g id="XMLID_252_">
</g>
<g id="XMLID_254_">
</g>
<g id="XMLID_256_">
</g>
</svg>
