<?xml version="1.0" encoding="utf-8"?>
<!-- Generator: Adobe Illustrator 18.1.1, SVG Export Plug-In . SVG Version: 6.00 Build 0)  -->
<svg version="1.1" id="Arrow" xmlns="http://www.w3.org/2000/svg" xmlns:xlink="http://www.w3.org/1999/xlink" x="0px" y="0px"
	 viewBox="0 0 60 60" style="enable-background:new 0 0 60 60;" xml:space="preserve">
<style type="text/css">
	.st0{fill:#FFFFFF;}
</style>
<g>
	<path class="st0" d="M0,30c0,16.6,13.4,30,30,30c16.6,0,30-13.4,30-30C60,13.4,46.6,0,30,0C13.4,0,0,13.4,0,30z M53.5,30
		C53.5,43,43,53.5,30,53.5C17,53.5,6.5,43,6.5,30C6.5,17,17,6.5,30,6.5C43,6.5,53.5,17,53.5,30z M17.4,24.1v11.7h13.3v7.3L43.2,30
		L30.8,16.8v7.3H17.4z"/>
</g>
</svg>
