<?xml version="1.0" encoding="utf-8"?>
<!-- Generator: Adobe Illustrator 19.0.0, SVG Export Plug-In . SVG Version: 6.00 Build 0)  -->
<svg version="1.1" id="Icons" xmlns="http://www.w3.org/2000/svg" xmlns:xlink="http://www.w3.org/1999/xlink" x="0px" y="0px"
	 viewBox="0 0 60 60" style="enable-background:new 0 0 60 60;" xml:space="preserve">
<style type="text/css">
	.st0{fill:#CCCCCC;}
	.st1{fill:#939598;}
</style>
<path id="XMLID_1453_" class="st0" d="M44.8,18.376c3.953,21.894-13.292,28.498-13.292,28.498l4.764,1.588
	C56.577,35.866,44.8,18.376,44.8,18.376z"/>
<g id="XMLID_1603_">
	<path id="XMLID_1604_" class="st1" d="M13.348,35.005c-0.882-0.882-0.891-2.04,0.426-3.556l2.358-2.674
		c1.505-1.704,1.584-1.843,0.881-2.546c-0.584-0.585-0.771-0.653-2.179,0.753l-1.456,1.456c-0.932,0.931-1.08,1.356-0.337,2.1
		l0.307,0.307l-2.08,2.08l-0.842-0.842c-1.416-1.416-1.06-2.724,0.921-4.704l2.893-2.893c2.061-2.061,3.209-1.98,4.705-0.485
		c2.109,2.11,2.08,2.853-0.347,5.557l-2.149,2.387c-0.871,0.972-0.832,1.288-0.188,1.932l6.379-6.379l1.546,1.546l-8.4,8.398
		L13.348,35.005z"/>
	<path id="XMLID_1606_" class="st1" d="M23.356,25.829l2.08-2.079l2.02,2.02l-2.079,2.08L23.356,25.829z"/>
	<path id="XMLID_1608_" class="st1" d="M21.655,17.229l7.814-7.814l1.545,1.545l-5.912,5.914l1.248,1.248
		c-0.001-0.556,0.128-1.021,0.921-1.813l2.485-2.485c1.525-1.525,2.902-1.912,4.487-0.327l0.456,0.456
		c2.178,2.178,1.248,3.486-1.08,5.813l-1.724,1.724c-2.169,2.169-3.447,3.011-5.13,1.328l-0.417-0.417l2.021-2.021
		c0.604,0.604,0.941,0.604,1.951-0.406l2.061-2.061c1.01-1.01,0.842-1.396,0.148-2.09c-0.812-0.812-1.169-0.634-2.18,0.377
		l-2.317,2.317c-0.337,0.337-0.426,0.723-0.167,1.12l-1.902,1.9L21.655,17.229z"/>
</g>
<g id="XMLID_1600_">
	<path id="XMLID_1601_" class="st1" d="M32.139,34.726l2.08,2.079l-0.317,0.317c-0.604,0.604-0.574,0.95,0.189,1.713l2.625,2.625
		c0.684,0.684,0.95,0.574,1.436,0.09c0.476-0.477,0.575-0.812-0.099-1.486l-2.258-2.258l1.486-1.486l2.051,2.051
		c0.713,0.713,1.02,0.663,1.535,0.148c0.554-0.555,0.346-1.04-0.308-1.693l-2.179-2.18c-0.713-0.713-1.079-0.782-1.614-0.247
		l-0.306,0.306l-2.08-2.08l0.396-0.395c1.931-1.932,3.081-1.199,5.774,1.494l1.476,1.477c2.556,2.556,2.764,3.556,1.179,5.141
		c-1.208,1.209-1.565,1.148-2.843,0.465l-0.03,0.03c0.961,1.356,0.783,1.912-0.356,3.052c-1.417,1.416-2.457,1.465-4.447-0.525
		l-3.655-3.656c-1.277-1.277-1.99-2.723-0.495-4.219L32.139,34.726z"/>
</g>
<g id="XMLID_1064_">
	<path id="XMLID_1065_" class="st0" d="M29.999,0C13.431,0,0,13.432,0,30c0,16.57,13.431,30,29.999,30C46.568,60,60,46.57,60,30
		C60,13.432,46.568,0,29.999,0z M29.999,53.478C17.033,53.478,6.522,42.967,6.522,30c0-12.967,10.511-23.478,23.477-23.478
		c12.968,0,23.48,10.512,23.48,23.478C53.478,42.967,42.967,53.478,29.999,53.478z"/>
</g>
<rect id="XMLID_806_" x="15.007" y="27.718" transform="matrix(-0.7071 0.7071 -0.7071 -0.7071 72.4264 30)" class="st1" width="29.986" height="4.565"/>
<g id="XMLID_22_">
</g>
<g id="XMLID_48_">
</g>
<g id="XMLID_49_">
</g>
<g id="XMLID_50_">
</g>
<g id="XMLID_51_">
</g>
<g id="XMLID_52_">
</g>
</svg>
