<?xml version="1.0" encoding="utf-8"?>
<!-- Generator: Adobe Illustrator 19.0.0, SVG Export Plug-In . SVG Version: 6.00 Build 0)  -->
<svg version="1.1" id="Icons" xmlns="http://www.w3.org/2000/svg" xmlns:xlink="http://www.w3.org/1999/xlink" x="0px" y="0px"
	 viewBox="0 0 60 60" style="enable-background:new 0 0 60 60;" xml:space="preserve">
<style type="text/css">
	.st0{fill:#939598;}
	.st1{opacity:0.6;}
	.st2{fill:#FFFFFF;}
</style>
<g id="XMLID_381_">
	<g id="XMLID_1731_">
		<path id="XMLID_1739_" class="st0" d="M25.568,21.788c-0.338,0.245-0.517,0.627-0.517,1.015c0,0.254,0.078,0.512,0.239,0.734
			c0.406,0.559,1.189,0.684,1.748,0.278l2.356-1.711c0.558-0.407,0.685-1.188,0.277-1.748c-0.405-0.558-1.188-0.683-1.747-0.278
			L25.568,21.788z"/>
		<path id="XMLID_1738_" class="st0" d="M7.499,23.537c0.408-0.557,0.283-1.343-0.276-1.747l-2.355-1.714
			c-0.559-0.407-1.342-0.283-1.748,0.276c-0.162,0.221-0.24,0.479-0.24,0.734c0,0.388,0.179,0.769,0.515,1.014l2.355,1.713
			C6.31,24.22,7.093,24.096,7.499,23.537z"/>
		<path id="XMLID_1737_" class="st0" d="M29.672,39.646c0.408-0.562,0.282-1.341-0.278-1.748l-2.356-1.711
			c-0.559-0.406-1.342-0.281-1.748,0.278c-0.161,0.222-0.239,0.48-0.239,0.734c0,0.388,0.179,0.769,0.516,1.015l2.356,1.711
			C28.484,40.33,29.267,40.205,29.672,39.646z"/>
		<path id="XMLID_1736_" class="st0" d="M7.223,38.211c0.559-0.406,0.683-1.188,0.277-1.748c-0.406-0.558-1.189-0.683-1.748-0.276
			l-2.356,1.712c-0.337,0.244-0.516,0.626-0.516,1.014c0,0.255,0.078,0.511,0.239,0.734c0.406,0.559,1.189,0.683,1.748,0.277
			L7.223,38.211z"/>
		<path id="XMLID_1735_" class="st0" d="M19.89,15.196l-0.901,2.77c-0.041,0.129-0.062,0.259-0.062,0.387
			c0,0.528,0.337,1.018,0.866,1.19c0.657,0.214,1.363-0.145,1.577-0.803l0.9-2.769c0.214-0.664-0.146-1.364-0.804-1.578
			C20.811,14.179,20.104,14.539,19.89,15.196z"/>
		<path id="XMLID_1734_" class="st0" d="M12.901,44.804l0.899-2.769c0.212-0.658-0.147-1.363-0.804-1.577
			c-0.657-0.214-1.364,0.147-1.577,0.804l-0.899,2.769c-0.041,0.128-0.061,0.258-0.061,0.386c0,0.528,0.337,1.018,0.865,1.19
			C11.982,45.822,12.687,45.461,12.901,44.804z"/>
		<path id="XMLID_1733_" class="st0" d="M13.801,17.966l-0.898-2.771c-0.213-0.657-0.919-1.018-1.577-0.804
			c-0.529,0.171-0.866,0.662-0.866,1.19c0,0.128,0.02,0.259,0.062,0.387l0.898,2.77c0.213,0.658,0.919,1.018,1.577,0.805
			C13.654,19.331,14.013,18.63,13.801,17.966z"/>
		<path id="XMLID_1732_" class="st0" d="M18.928,41.648c0,0.128,0.021,0.258,0.062,0.386l0.899,2.769
			c0.214,0.658,0.92,1.018,1.577,0.804c0.657-0.214,1.016-0.923,0.804-1.576l-0.899-2.769c-0.214-0.657-0.92-1.018-1.577-0.804
			C19.265,40.63,18.928,41.121,18.928,41.648z"/>
	</g>
	<path id="XMLID_1725_" class="st0" d="M-0.106,30c0,0.692,0.56,1.252,1.252,1.252h2.911c0.691,0,1.252-0.56,1.252-1.252
		c0-0.692-0.56-1.251-1.252-1.251H1.146C0.455,28.749-0.106,29.308-0.106,30z"/>
	<path id="XMLID_382_" class="st0" d="M27.292,30c0,0.692,0.56,1.252,1.252,1.252h2.911c0.691,0,1.252-0.56,1.252-1.252
		c0-0.692-0.56-1.251-1.252-1.251h-2.911C27.852,28.749,27.292,29.308,27.292,30z"/>
	<circle id="XMLID_383_" class="st0" cx="16.311" cy="29.999" r="9.439"/>
</g>
<g id="XMLID_384_" class="st1">
	<g id="XMLID_385_">
		<path id="XMLID_386_" class="st0" d="M49.101,17.342c-0.521,0.378-0.797,0.966-0.797,1.564c0,0.392,0.12,0.789,0.369,1.132
			c0.626,0.861,1.832,1.054,2.694,0.428l3.632-2.638c0.861-0.627,1.055-1.831,0.427-2.695c-0.625-0.861-1.831-1.053-2.693-0.428
			L49.101,17.342z"/>
		<path id="XMLID_387_" class="st0" d="M55.427,44.868c0.629-0.867,0.435-2.068-0.428-2.695l-3.632-2.637
			c-0.862-0.626-2.068-0.434-2.694,0.428c-0.248,0.343-0.368,0.74-0.368,1.131c0,0.598,0.275,1.186,0.796,1.564l3.632,2.637
			C53.595,45.922,54.802,45.73,55.427,44.868z"/>
		<path id="XMLID_388_" class="st0" d="M40.35,7.181l-1.389,4.269c-0.064,0.199-0.096,0.398-0.096,0.596
			c0,0.814,0.519,1.569,1.334,1.835c1.013,0.33,2.102-0.224,2.431-1.237l1.388-4.269c0.33-1.023-0.225-2.102-1.239-2.432
			C41.768,5.614,40.679,6.168,40.35,7.181z"/>
		<path id="XMLID_389_" class="st0" d="M29.577,52.818l1.386-4.268c0.327-1.014-0.226-2.101-1.239-2.431
			c-1.013-0.33-2.102,0.226-2.431,1.239l-1.386,4.269c-0.064,0.198-0.095,0.397-0.095,0.595c0,0.814,0.519,1.569,1.333,1.835
			C28.16,54.387,29.247,53.831,29.577,52.818z"/>
		<path id="XMLID_390_" class="st0" d="M30.963,11.452l-1.385-4.271c-0.329-1.013-1.416-1.569-2.43-1.239
			c-0.815,0.264-1.335,1.02-1.335,1.834c0,0.197,0.031,0.398,0.095,0.596l1.384,4.269c0.329,1.014,1.417,1.57,2.43,1.24
			C30.737,13.555,31.29,12.475,30.963,11.452z"/>
		<path id="XMLID_391_" class="st0" d="M38.866,47.954c0,0.198,0.032,0.397,0.096,0.596l1.386,4.268
			c0.329,1.014,1.418,1.569,2.431,1.24c1.013-0.33,1.566-1.422,1.239-2.43l-1.386-4.269c-0.33-1.013-1.418-1.569-2.431-1.239
			C39.385,46.385,38.866,47.141,38.866,47.954z"/>
	</g>
	<path id="XMLID_392_" class="st0" d="M51.758,30c0,1.067,0.864,1.93,1.929,1.93h4.487c1.065,0,1.929-0.862,1.929-1.93
		c0-1.066-0.864-1.929-1.929-1.929h-4.487C52.621,28.072,51.758,28.934,51.758,30z"/>
	<circle id="XMLID_393_" class="st0" cx="34.833" cy="29.998" r="14.55"/>
</g>
<g id="XMLID_394_">
	<path id="XMLID_395_" class="st2" d="M17.919,32.625l-1.698-0.006c-1.47-0.006-2.672-1.207-2.678-2.678
		c-0.003-0.707,0.27-1.369,0.767-1.867c0.497-0.497,1.16-0.77,1.867-0.767l6.247,0.025c1.294,0.005,3.466,0.279,3.473,2.054
		c0.003,0.815,0.666,1.473,1.481,1.47c0.815-0.003,1.473-0.666,1.47-1.48c-0.012-3.018-2.528-4.979-6.412-4.994l-6.248-0.025
		c-1.499-0.006-2.907,0.574-3.964,1.631c-1.057,1.057-1.636,2.465-1.631,3.964c0.006,1.543,0.639,2.943,1.656,3.96
		c1.017,1.017,2.418,1.651,3.962,1.657l1.699,0.006c0.815,0.003,1.477-0.655,1.48-1.47C19.393,33.292,18.734,32.628,17.919,32.625z
		 M39.51,30.043c-0.013-3.241-2.2-5.604-5.2-5.615l-2.116-0.008c-0.815-0.003-1.478,0.655-1.48,1.47
		c-0.003,0.815,0.655,1.478,1.47,1.481l2.115,0.008c1.555,0.005,2.255,1.348,2.261,2.676c0.003,0.707-0.27,1.37-0.767,1.867
		c-0.497,0.497-1.16,0.77-1.867,0.767l-6.665-0.027c-3.048-0.012-3.053-1.442-3.055-2.052c-0.003-0.815-0.666-1.473-1.481-1.47
		c-0.815,0.003-1.473,0.666-1.47,1.48c0.005,1.399,0.461,2.547,1.302,3.387c1.029,1.029,2.634,1.597,4.693,1.605l6.665,0.027
		c1.5,0.005,2.908-0.574,3.965-1.631C38.936,32.951,39.515,31.543,39.51,30.043z"/>
</g>
<g id="XMLID_98_">
</g>
<g id="XMLID_99_">
</g>
<g id="XMLID_100_">
</g>
<g id="XMLID_101_">
</g>
<g id="XMLID_102_">
</g>
<g id="XMLID_103_">
</g>
</svg>
