<?xml version="1.0" encoding="utf-8"?>
<!-- Generator: Adobe Illustrator 19.0.0, SVG Export Plug-In . SVG Version: 6.00 Build 0)  -->
<svg version="1.1" id="Secure2" xmlns="http://www.w3.org/2000/svg" xmlns:xlink="http://www.w3.org/1999/xlink" x="0px" y="0px"
	 viewBox="0 0 60 60" style="enable-background:new 0 0 60 60;" xml:space="preserve">
<style type="text/css">
	.st0{fill:#FFFFFF;}
</style>
<g>
	<g>
		<path class="st0" d="M52.1,11.8L30.8,5.1c-0.5-0.2-1.1-0.2-1.6,0L7.9,11.8c-1.2,0.4-1.9,1.4-1.9,2.6c0,29.5,14.9,36.5,22.9,40.3
			c0.4,0.2,0.8,0.3,1.2,0.3c0.4,0,0.8-0.1,1.2-0.3c8-3.8,22.9-10.8,22.9-40.3C54.1,13.2,53.3,12.1,52.1,11.8z M30,49.2
			c-7.6-3.7-18-9.7-18.5-32.8L30,10.6l18.5,5.8C48,39.5,37.6,45.5,30,49.2z"/>
		<path class="st0" d="M14.6,18.7c0,6.8,1.8,12.2,4.2,16.3l18.8-18.8L30,13.9L14.6,18.7z"/>
		<path class="st0" d="M30,46.1c5.3-2.4,15.2-10.3,15.4-26.8L23.5,41.2C26,43.7,28.5,45.3,30,46.1z"/>
	</g>
</g>
</svg>
