<?xml version="1.0" encoding="utf-8"?>
<!-- Generator: Adobe Illustrator 19.0.0, SVG Export Plug-In . SVG Version: 6.00 Build 0)  -->
<svg version="1.1" id="Icons" xmlns="http://www.w3.org/2000/svg" xmlns:xlink="http://www.w3.org/1999/xlink" x="0px" y="0px"
	 viewBox="0 0 60 60" style="enable-background:new 0 0 60 60;" xml:space="preserve">
<style type="text/css">
	.st0{fill:#CCCCCC;}
	.st1{fill:none;}
	.st2{fill:#231F20;}
	.st3{fill:#939598;}
</style>
<path id="XMLID_428_" class="st0" d="M24.284,11.859C20.435,11.854-0.005,15.443,0,29.999
	c-0.005,14.555,20.433,18.142,24.288,18.142c3.849,0.005,6.973-8.122,6.974-18.144C31.263,19.974,28.143,11.854,24.284,11.859z
	 M19.864,44.503c-0.492-0.803-0.992-1.841-1.479-3.185c-1.191-3.29-1.847-7.31-1.847-11.32c0.003-4.879,1.145-11.025,3.327-14.504
	c0,0,5.705-0.807,3.711,0.312c0.053-0.019,0.107-0.044,0.154-0.044c1.132-0.005,4.186,5.756,4.18,14.234
	c0.005,8.479-3.049,14.239-4.186,14.24C26.447,45.56,19.864,44.503,19.864,44.503z"/>
<path id="XMLID_408_" class="st1" d="M27.91,29.997c0.006-8.478-3.048-14.239-4.18-14.234c-0.047,0-0.101,0.025-0.154,0.044
	c-0.062,0.035-0.119,0.068-0.196,0.107c-0.018,0.013-0.036,0.025-0.055,0.04c-0.626,4.612-3.609,9.918-3.772,14.749
	c0.01,0.52,0.031,1.028,0.063,1.525c0.553,4.275,4.107,7.008,4.107,12.01C24.861,44.236,27.915,38.476,27.91,29.997z"/>
<path id="XMLID_412_" class="st0" d="M19.617,32.227c-0.032-0.497-0.053-1.005-0.063-1.525c-0.005,0.137-0.016,0.276-0.016,0.413
	C19.538,31.499,19.57,31.866,19.617,32.227z"/>
<path id="XMLID_414_" class="st0" d="M23.326,15.953c0.019-0.014,0.037-0.027,0.055-0.04c-0.021,0.01-0.031,0.018-0.053,0.029
	C23.327,15.946,23.326,15.949,23.326,15.953z"/>
<path id="XMLID_429_" class="st2" d="M23.576,15.807c-0.062,0.022-0.127,0.059-0.196,0.107
	C23.458,15.875,23.514,15.841,23.576,15.807z"/>
<path id="XMLID_666_" class="st3" d="M55.467,19.934c-1.866,0-3.467,1.128-4.162,2.739h-23.02c1.173-1.633,1.779-3.565,2.297-5.225
	c1.067-3.412,1.81-5.781,5.461-6.22c-0.194-0.732-0.307-1.497-0.307-2.29c0-0.439,0.042-0.867,0.103-1.289
	c-6.149,0.656-7.605,5.28-8.682,8.729c-1.018,3.258-1.73,5.621-4.982,6.15c-0.988,0.161-6.917,0.054-7.093,0.075
	c-0.711-1.572-2.29-2.668-4.128-2.668c-2.503,0-4.533,2.03-4.533,4.533c0,2.503,2.03,4.533,4.533,4.533
	c1.866,0,3.467-1.128,4.162-2.739h36.189C52.001,27.872,53.602,29,55.467,29C57.97,29,60,26.97,60,24.467
	C60,21.964,57.97,19.934,55.467,19.934z M10.955,27.082c-1.445,0-2.615-1.171-2.615-2.615c0-1.444,1.171-2.615,2.615-2.615
	c1.444,0,2.615,1.171,2.615,2.615C13.569,25.911,12.398,27.082,10.955,27.082z M55.467,27.082c-1.445,0-2.615-1.171-2.615-2.615
	c0-1.444,1.171-2.615,2.615-2.615c1.444,0,2.615,1.171,2.615,2.615C58.082,25.911,56.911,27.082,55.467,27.082z"/>
<g id="XMLID_578_">
	<path id="XMLID_579_" class="st0" d="M40.362,12.55V5.325h1.68v2.8h5.25v-2.8h1.694v7.224h-1.694V9.442h-5.25v3.108H40.362z"/>
</g>
<path id="XMLID_694_" class="st3" d="M35.736,51.062c0-0.793,0.113-1.558,0.307-2.291c-3.651-0.439-4.394-2.808-5.461-6.22
	c-0.519-1.66-1.124-3.592-2.297-5.225h15.02c0.696,1.611,2.297,2.739,4.162,2.739c2.503,0,4.533-2.029,4.533-4.533
	C52,33.029,49.97,31,47.467,31c-1.866,0-3.467,1.128-4.162,2.739H15.116C14.421,32.128,12.82,31,10.955,31
	c-2.503,0-4.533,2.029-4.533,4.533c0,2.503,2.03,4.533,4.533,4.533c1.838,0,3.417-1.096,4.128-2.668
	c0.176,0.021,6.105-0.086,7.093,0.075c3.252,0.529,3.964,2.892,4.982,6.15c1.078,3.449,2.533,8.073,8.682,8.728
	C35.778,51.929,35.736,51.501,35.736,51.062z M47.467,32.917c1.444,0,2.615,1.171,2.615,2.615c0,1.444-1.171,2.615-2.615,2.615
	c-1.445,0-2.615-1.171-2.615-2.615C44.852,34.089,46.023,32.917,47.467,32.917z M10.955,38.147c-1.445,0-2.615-1.171-2.615-2.615
	c0-1.444,1.171-2.615,2.615-2.615c1.444,0,2.615,1.171,2.615,2.615C13.569,36.977,12.398,38.147,10.955,38.147z"/>
<g id="XMLID_568_">
	<path id="XMLID_576_" class="st0" d="M41.125,54.674v-7.224h1.68v5.866h5.418v1.357H41.125z"/>
</g>
<g id="XMLID_690_">
	<path id="XMLID_1619_" class="st3" d="M44.674,2c3.825,0,6.938,3.112,6.938,6.938s-3.112,6.938-6.938,6.938
		s-6.938-3.112-6.938-6.938S40.848,2,44.674,2 M44.674,0c-4.936,0-8.938,4.001-8.938,8.938s4.001,8.938,8.938,8.938
		s8.938-4.001,8.938-8.938S49.61,0,44.674,0L44.674,0z"/>
</g>
<g id="XMLID_570_">
	<path id="XMLID_1615_" class="st3" d="M44.674,44.125c3.825,0,6.938,3.112,6.938,6.938S48.499,58,44.674,58
		s-6.938-3.112-6.938-6.938S40.848,44.125,44.674,44.125 M44.674,42.125c-4.936,0-8.938,4.001-8.938,8.938S39.738,60,44.674,60
		s8.938-4.001,8.938-8.938S49.61,42.125,44.674,42.125L44.674,42.125z"/>
</g>
<path id="XMLID_432_" class="st0" d="M19.617,32.227c-0.047-0.36-0.079-0.728-0.079-1.113c0-0.137,0.011-0.275,0.016-0.413
	c-0.005-0.235-0.016-0.464-0.016-0.704c0.005-7.618,2.464-13.022,3.788-14.045c0-0.004,0.001-0.007,0.002-0.011
	c0.022-0.011,0.032-0.018,0.053-0.029c0.069-0.048,0.134-0.084,0.196-0.107c1.994-1.119-3.711-0.312-3.711-0.312
	c-2.183,3.479-3.324,9.625-3.327,14.504c0,4.01,0.656,8.03,1.847,11.32c0.487,1.344,0.987,2.383,1.479,3.185
	c0,0,6.583,1.056,3.86-0.267C22.694,44.232,20.083,39.467,19.617,32.227z"/>
<g id="XMLID_147_">
</g>
<g id="XMLID_148_">
</g>
<g id="XMLID_152_">
</g>
<g id="XMLID_156_">
</g>
<g id="XMLID_157_">
</g>
<g id="XMLID_158_">
</g>
</svg>
