<?xml version="1.0" encoding="utf-8"?>
<!-- Generator: Adobe Illustrator 16.0.4, SVG Export Plug-In . SVG Version: 6.00 Build 0)  -->
<!DOCTYPE svg PUBLIC "-//W3C//DTD SVG 1.1//EN" "http://www.w3.org/Graphics/SVG/1.1/DTD/svg11.dtd">
<svg version="1.1" id="Layer_3" xmlns="http://www.w3.org/2000/svg" xmlns:xlink="http://www.w3.org/1999/xlink" x="0px" y="0px"
	 width="30px" height="30px" viewBox="0 0 30 30" style="enable-background:new 0 0 30 30;" xml:space="preserve">
<style type="text/css">
<![CDATA[
	.st0{fill:#FE9A5C;}
]]>
</style>
<g id="post-instagram">
	<path class="st0" d="M26.3,0H3.7c-1,0-1.9,0.4-2.6,1.1C0.4,1.8,0,2.7,0,3.7v22.6c0,1,0.4,1.9,1.1,2.6C1.8,29.6,2.7,30,3.7,30h22.6
	c1,0,1.9-0.4,2.6-1.1c0.7-0.7,1.1-1.6,1.1-2.6V3.7c0-1-0.4-1.9-1.1-2.6C28.2,0.4,27.3,0,26.3,0z M10.6,10.6c1.2-1.2,2.7-1.8,4.4-1.8
	c1.7,0,3.2,0.6,4.4,1.8c1.2,1.2,1.8,2.6,1.8,4.3s-0.6,3.1-1.8,4.3C18.2,20.4,16.7,21,15,21c-1.7,0-3.2-0.6-4.4-1.8
	c-1.2-1.2-1.8-2.6-1.8-4.3S9.4,11.8,10.6,10.6z M26.9,25.5c0,0.4-0.1,0.7-0.4,1c-0.3,0.3-0.6,0.4-1,0.4H4.4c-0.4,0-0.7-0.1-1-0.4
	c-0.3-0.3-0.4-0.6-0.4-1v-13h3.2l-0.1,0.2c-0.3,0.8-0.4,1.7-0.4,2.5c0,2.5,0.9,4.6,2.7,6.3c1.8,1.7,4,2.6,6.5,2.6
	c1.7,0,3.2-0.4,4.7-1.2c1.4-0.8,2.6-1.9,3.4-3.3c0.8-1.4,1.2-2.9,1.2-4.5c0-0.9-0.1-1.7-0.4-2.5l-0.1-0.2h3.1V25.5z M26.9,7.8
	c0,0.4-0.2,0.8-0.4,1.1c-0.3,0.3-0.7,0.4-1.1,0.4h-3.4c-0.4,0-0.8-0.2-1.1-0.4c-0.3-0.3-0.4-0.7-0.4-1.1V4.6c0-0.4,0.2-0.8,0.4-1.1
	C21.1,3.2,21.5,3,21.9,3h3.4c0.4,0,0.8,0.2,1.1,0.5c0.3,0.3,0.4,0.7,0.4,1.1V7.8z"/>
</g>
</svg>
