<?xml version="1.0" encoding="utf-8"?>
<!-- Generator: Adobe Illustrator 19.0.0, SVG Export Plug-In . SVG Version: 6.00 Build 0)  -->
<svg version="1.1" id="Icons" xmlns="http://www.w3.org/2000/svg" xmlns:xlink="http://www.w3.org/1999/xlink" x="0px" y="0px"
	 viewBox="0 0 60 60" style="enable-background:new 0 0 60 60;" xml:space="preserve">
<style type="text/css">
	.st0{fill:#939598;}
</style>
<g id="XMLID_1034_">
	<path id="XMLID_1042_" class="st0" d="M19.254,23.785c0.147,0.032,0.294,0.061,0.439,0.097c0.773,0.192,1.347,0.649,1.744,1.331
		c0.574,0.988,0.682,2.075,0.68,3.218c-0.786,0.027-1.553,0.053-2.321,0.079c-0.034-0.264-0.061-0.505-0.099-0.744
		c-0.018-0.11-0.051-0.219-0.089-0.323c-0.334-0.919-1.354-0.852-1.773-0.397c-0.193,0.209-0.379,0.457-0.47,0.721
		c-0.489,1.419-0.589,2.874-0.295,4.349c0.043,0.215,0.137,0.43,0.252,0.619c0.379,0.625,1.17,0.714,1.696,0.202
		c0.346-0.337,0.492-0.775,0.591-1.231c0.094-0.433,0.09-0.435,0.551-0.452c0.515-0.018,1.029-0.035,1.544-0.051
		c0.091-0.003,0.182,0,0.316,0c-0.067,0.396-0.117,0.766-0.193,1.131c-0.208,0.995-0.578,1.915-1.25,2.699
		c-1.103,1.288-2.86,1.402-3.936,0.924c-0.758-0.338-1.239-0.946-1.584-1.675c-0.404-0.855-0.565-1.768-0.604-2.705
		c-0.068-1.616,0.074-3.206,0.649-4.732c0.352-0.934,0.861-1.768,1.671-2.384c0.461-0.351,0.981-0.563,1.557-0.637
		c0.045-0.006,0.087-0.025,0.131-0.038C18.725,23.785,18.99,23.785,19.254,23.785z"/>
	<path id="XMLID_1041_" class="st0" d="M27.571,31.323c-0.697,0-1.369,0-2.06,0c-0.215,1.512-0.43,3.019-0.646,4.538
		c-0.909,0-1.81,0-2.738,0c0.537-3.914,1.074-7.821,1.612-11.74c0.936,0,1.864,0,2.812,0c-0.189,1.326-0.377,2.642-0.569,3.987
		c0.194,0,0.363,0,0.533,0c0.443,0,0.886-0.006,1.328,0.003c0.15,0.003,0.202-0.042,0.223-0.195
		c0.168-1.223,0.346-2.444,0.522-3.665c0.006-0.044,0.024-0.087,0.037-0.136c0.804,0,1.602,0,2.431,0
		c-0.543,3.916-1.084,7.821-1.627,11.743c-0.836,0-1.671,0-2.519,0C27.129,34.35,27.348,32.849,27.571,31.323z"/>
	<path id="XMLID_1040_" class="st0" d="M51.179,28.491c-0.139,0.996-0.273,1.949-0.409,2.926c-1.342,0-2.679,0-4.039,0
		c-0.058,0.462-0.114,0.902-0.173,1.369c1.348,0,2.667,0,4.01,0c-0.143,1.042-0.283,2.058-0.424,3.08c-2.151,0-4.283,0-6.444,0
		c0.545-3.922,1.088-7.834,1.631-11.75c2.153,0,4.286,0,6.448,0c-0.034,0.27-0.065,0.528-0.101,0.786
		c-0.089,0.641-0.185,1.28-0.267,1.922c-0.02,0.16-0.082,0.202-0.238,0.202c-1.183-0.006-2.366-0.003-3.549-0.003
		c-0.078,0-0.156,0-0.248,0c-0.074,0.493-0.146,0.966-0.222,1.469C48.503,28.491,49.827,28.491,51.179,28.491z"/>
	<path id="XMLID_1039_" class="st0" d="M8.031,24.116c2.156,0,4.295,0,6.46,0c-0.132,0.998-0.262,1.988-0.396,3.003
		c-1.331,0-2.655,0-3.996,0c-0.068,0.464-0.133,0.905-0.202,1.372c1.248,0,2.473,0,3.732,0c-0.137,0.983-0.269,1.938-0.404,2.906
		c-0.099,0-0.177,0-0.256,0c-1.084,0-2.167,0.003-3.251-0.003c-0.15-0.001-0.22,0.026-0.238,0.197
		c-0.046,0.425-0.118,0.846-0.184,1.299c1.324,0,2.628,0,3.959,0c-0.144,1.011-0.283,1.992-0.423,2.977c-2.135,0-4.248,0-6.396,0
		C6.969,31.944,7.5,28.033,8.031,24.116z"/>
	<path id="XMLID_1038_" class="st0" d="M60,24.116c-0.075,0.144-0.14,0.271-0.207,0.397c-0.898,1.682-1.795,3.365-2.699,5.044
		c-0.079,0.146-0.086,0.271-0.04,0.428c0.563,1.903,1.119,3.809,1.676,5.714c0.015,0.05,0.024,0.102,0.039,0.165
		c-0.067,0.003-0.124,0.009-0.18,0.009c-0.8,0.001-1.599-0.003-2.399,0.004c-0.143,0.001-0.204-0.039-0.242-0.182
		c-0.247-0.931-0.504-1.859-0.758-2.787c-0.015-0.056-0.034-0.112-0.062-0.204c-0.053,0.087-0.09,0.146-0.125,0.206
		c-0.535,0.933-1.072,1.866-1.601,2.802c-0.067,0.118-0.135,0.166-0.274,0.165c-0.871-0.007-1.743-0.004-2.642-0.004
		c0.043-0.081,0.073-0.144,0.108-0.205c1.115-1.917,2.229-3.835,3.348-5.749c0.07-0.119,0.08-0.221,0.041-0.351
		c-0.524-1.757-1.044-3.515-1.564-5.272c-0.017-0.056-0.028-0.113-0.045-0.181c0.92,0,1.829,0,2.758,0
		c0.175,0.965,0.35,1.93,0.525,2.894c0.015,0.005,0.029,0.009,0.044,0.014c0.454-0.969,0.908-1.938,1.362-2.908
		C58.035,24.116,59.004,24.116,60,24.116z"/>
	<path id="XMLID_1037_" class="st0" d="M32.851,35.863c-0.83,0-1.634,0-2.458,0c0.556-3.923,1.111-7.833,1.666-11.748
		c1.988,0,3.955,0,5.95,0c-0.137,0.984-0.274,1.959-0.412,2.95c-1.164,0-2.318,0-3.493,0c-0.058,0.463-0.114,0.911-0.173,1.387
		c0.971,0,1.919,0,2.906,0c-0.141,1.005-0.277,1.981-0.416,2.974c-0.965,0-1.92,0-2.901,0
		C33.296,32.911,33.074,34.383,32.851,35.863z"/>
	<path id="XMLID_1036_" class="st0" d="M7.033,24.121c-0.129,1.031-0.256,2.045-0.386,3.082c-0.092,0-0.17,0-0.247,0
		c-0.548,0-1.097,0.005-1.645-0.003c-0.143-0.002-0.198,0.044-0.212,0.185c-0.159,1.516-0.321,3.032-0.485,4.547
		c-0.141,1.305-0.287,2.61-0.432,3.928c-0.815,0-1.624,0-2.455,0c0.312-2.878,0.623-5.747,0.937-8.646c-0.707,0-1.389,0-2.107,0
		c0.135-1.047,0.266-2.063,0.399-3.092C2.611,24.121,4.814,24.121,7.033,24.121z"/>
	<path id="XMLID_1035_" class="st0" d="M37.143,35.862c0.55-3.928,1.098-7.835,1.646-11.746c0.824,0,1.627,0,2.458,0
		c-0.399,2.877-0.797,5.743-1.198,8.631c1.125,0,2.226,0,3.35,0c-0.151,1.05-0.299,2.077-0.448,3.115
		C41.015,35.862,39.088,35.862,37.143,35.862z"/>
</g>
<g id="XMLID_147_">
</g>
<g id="XMLID_148_">
</g>
<g id="XMLID_152_">
</g>
<g id="XMLID_156_">
</g>
<g id="XMLID_157_">
</g>
<g id="XMLID_158_">
</g>
</svg>
