<?xml version="1.0" encoding="utf-8"?>
<!-- Generator: Adobe Illustrator 19.0.0, SVG Export Plug-In . SVG Version: 6.00 Build 0)  -->
<svg version="1.1" id="Icons" xmlns="http://www.w3.org/2000/svg" xmlns:xlink="http://www.w3.org/1999/xlink" x="0px" y="0px"
	 viewBox="0 0 60 60" style="enable-background:new 0 0 60 60;" xml:space="preserve">
<style type="text/css">
	.st0{fill:#939598;}
</style>
<g id="XMLID_765_">
	<g id="XMLID_775_">
		<path id="XMLID_790_" class="st0" d="M0,12.024v-7.44h6.373c1.116,0,1.673,0.481,1.673,1.442v1.659
			c0,0.961-0.557,1.442-1.673,1.442H1.701v2.898H0z M5.595,5.852H1.701v2.005h3.894c0.269,0,0.456-0.029,0.562-0.088
			c0.144-0.088,0.216-0.258,0.216-0.512V6.452c0-0.253-0.072-0.424-0.216-0.512C6.051,5.881,5.863,5.852,5.595,5.852z"/>
		<path id="XMLID_788_" class="st0" d="M10.05,12.024v-7.44h1.745v3.1l4.124-3.1h2.509l-4.931,3.504l5.536,3.936h-2.782L11.795,8.75
			v3.273H10.05z"/>
		<path id="XMLID_786_" class="st0" d="M22.3,12.024c-0.655,0-1.101-0.099-1.341-0.296c-0.241-0.197-0.36-0.584-0.36-1.161V9.962
			l1.528-0.317v1.038h4.009c0.307,0,0.505-0.048,0.591-0.144c0.087-0.096,0.13-0.269,0.13-0.519V9.472
			c0-0.298-0.058-0.485-0.174-0.562c-0.115-0.077-0.298-0.116-0.548-0.116h-2.509V7.583h2.235c0.365,0,0.581-0.087,0.649-0.26
			c0.038-0.096,0.058-0.235,0.058-0.418V6.53c0-0.25-0.041-0.425-0.123-0.526c-0.081-0.102-0.276-0.152-0.583-0.152h-3.678v0.923
			l-1.47-0.274V6.04c0-0.577,0.12-0.963,0.36-1.161c0.241-0.197,0.688-0.296,1.341-0.296h4.023c0.654,0,1.101,0.099,1.341,0.296
			c0.241,0.197,0.36,0.584,0.36,1.161v0.678c0,0.442-0.106,0.767-0.317,0.973c-0.211,0.207-0.587,0.353-1.124,0.439
			c1.154,0.116,1.73,0.62,1.73,1.514v0.779c0,0.596-0.12,1.004-0.36,1.226c-0.259,0.25-0.74,0.375-1.442,0.375H22.3z"/>
		<path id="XMLID_784_" class="st0" d="M31.146,6.04c0-0.577,0.121-0.963,0.361-1.161c0.239-0.197,0.686-0.296,1.34-0.296h3.822
			c0.654,0,1.101,0.099,1.34,0.296c0.241,0.197,0.361,0.584,0.361,1.161v0.476c0,0.404-0.073,0.712-0.217,0.923
			c-0.115,0.164-0.365,0.36-0.75,0.591l-4.369,2.653h4.325V9.587l1.371,0.389v0.591c0,0.577-0.121,0.964-0.36,1.161
			c-0.241,0.197-0.688,0.296-1.341,0.296h-6.258v-0.678c0-0.289,0.048-0.509,0.144-0.664c0.124-0.211,0.388-0.442,0.793-0.692
			l5.147-3.173V5.852h-4.239v1.529l-1.472-0.375V6.04z"/>
		<path id="XMLID_778_" class="st0" d="M41.117,12.024v-7.44h4.788c1.374,0,2.427,0.322,3.158,0.966
			c0.73,0.644,1.096,1.548,1.096,2.711c0,0.74-0.169,1.413-0.505,2.018c-0.366,0.635-0.875,1.091-1.529,1.37
			c-0.596,0.25-1.486,0.375-2.667,0.375H41.117z M42.848,10.625h2.234c1.144,0,1.966-0.168,2.465-0.505
			c0.548-0.365,0.823-0.995,0.823-1.889c0-1.548-0.818-2.322-2.451-2.322h-3.071V10.625z"/>
		<path id="XMLID_776_" class="st0" d="M52.414,6.04c0-0.577,0.121-0.963,0.361-1.161c0.239-0.197,0.686-0.296,1.34-0.296h3.822
			c0.654,0,1.101,0.099,1.34,0.296c0.241,0.197,0.361,0.584,0.361,1.161v0.476c0,0.404-0.073,0.712-0.217,0.923
			c-0.115,0.164-0.365,0.36-0.75,0.591l-4.369,2.653h4.325V9.587L60,9.976v0.591c0,0.577-0.121,0.964-0.36,1.161
			c-0.241,0.197-0.688,0.296-1.341,0.296H52.04v-0.678c0-0.289,0.048-0.509,0.144-0.664c0.124-0.211,0.388-0.442,0.793-0.692
			l5.147-3.173V5.852h-4.239v1.529l-1.472-0.375V6.04z"/>
	</g>
	<path id="XMLID_764_" class="st0" d="M60,45.745h-9.333V27.624c0-0.672-0.55-1.222-1.222-1.222h-7.79v-4.946h4.561V16.73H4.451
		v4.726h4.561v4.946h-7.79C0.55,26.401,0,26.951,0,27.624v18.891h1.319v1.319H0v6.361c0,0.672,0.55,1.222,1.222,1.222h48.222
		c0.672,0,1.222-0.55,1.222-1.222v-0.866H60V45.745z"/>
</g>
<g id="XMLID_229_">
</g>
<g id="XMLID_230_">
</g>
<g id="XMLID_239_">
</g>
<g id="XMLID_245_">
</g>
<g id="XMLID_246_">
</g>
<g id="XMLID_247_">
</g>
</svg>
