<?xml version="1.0" encoding="utf-8"?>
<!-- Generator: Adobe Illustrator 19.0.0, SVG Export Plug-In . SVG Version: 6.00 Build 0)  -->
<svg version="1.1" id="Icons" xmlns="http://www.w3.org/2000/svg" xmlns:xlink="http://www.w3.org/1999/xlink" x="0px" y="0px"
	 viewBox="0 0 60 60" style="enable-background:new 0 0 60 60;" xml:space="preserve">
<style type="text/css">
	.st0{fill:#939598;}
	.st1{fill:#FFFFFF;}
</style>
<path id="XMLID_681_" class="st0" d="M50.923,14.542c1.549,27.134-20.919,40.003-20.926,40.007v0.156
	c0,0-22.476-12.865-20.926-40.007c11.815-2.364,20.923-9.241,20.926-9.241l0.243-0.156C30.24,5.301,39.104,12.178,50.923,14.542
	L50.923,14.542z M30.638,59.783c-0.033,0.021-0.066,0.046-0.102,0.065C30.367,59.945,30.175,60,29.983,60
	c-0.182,0-0.359-0.047-0.522-0.141c-0.275-0.156-6.823-3.953-13.23-11.754C10.316,40.895,3.46,28.782,4.42,12.022
	c0.029-0.488,0.384-0.897,0.865-0.995C18.628,8.355,28.918,0.725,29.349,0.4c0.015-0.011,0.032-0.026,0.051-0.037l0.264-0.177
	c0.384-0.26,0.894-0.246,1.263,0.04c0.101,0.08,10.371,7.935,23.782,10.621c0.482,0.095,0.837,0.507,0.866,0.995
	C57.392,43.631,32.77,58.555,30.638,59.783L30.638,59.783z M53.464,12.787C41.729,10.246,32.697,4.175,30.251,2.408
	c-1.944,1.394-11.53,7.92-23.721,10.56C5.375,40.633,26.323,55.305,29.99,57.655C33.512,55.468,54.662,41.108,53.464,12.787
	L53.464,12.787z M53.464,12.787"/>
<path id="XMLID_675_" class="st1" d="M18.25,18.307c0-1.304-1.828-3.338-1.828-3.338s-1.824,2.034-1.824,3.338
	c0,1.005,0.819,1.823,1.824,1.823C17.431,20.13,18.25,19.312,18.25,18.307L18.25,18.307z M18.25,18.307"/>
<g id="XMLID_947_">
	<path id="XMLID_949_" class="st1" d="M32.328,16.716v-0.154c0-0.581-0.483-1.051-1.078-1.051s-1.078,0.471-1.078,1.051v0.154
		c-1.247,0.095-2.444,0.357-3.579,0.753c0.546,0.978,0.973,2.041,0.973,2.976c0,2.203-1.794,3.995-3.998,3.995
		c-1.564,0-2.907-0.912-3.563-2.224c-1.848,2.377-2.979,5.342-3.01,8.582c0.038-1.936,1.616-3.494,3.562-3.494
		c1.969,0,3.565,1.596,3.565,3.562c0-1.966,1.596-3.562,3.565-3.562c0.743,0,1.433,0.228,2.005,0.615v14.169
		c0,2.271,1.818,4.124,4.074,4.18h0.106c2.257-0.056,4.074-1.909,4.074-4.18c0-0.835-0.678-1.516-1.516-1.516
		c-0.838,0-1.516,0.681-1.516,1.516c0,0.615-0.485,1.122-1.095,1.148c-0.61-0.026-1.095-0.533-1.095-1.148v-14.1
		c0.589-0.429,1.308-0.684,2.093-0.684c1.969,0,3.565,1.596,3.565,3.565c0-1.969,1.596-3.565,3.566-3.565
		c1.969,0,3.565,1.596,3.565,3.565c0,0.023,0.011,0.068,0.011,0.068C45.525,23.419,39.707,17.264,32.328,16.716z"/>
</g>
<path id="XMLID_1025_" class="st1" d="M23.39,14.969c0,0-2.815,3.142-2.815,5.148c0,1.556,1.26,2.815,2.815,2.815
	c1.555,0,2.818-1.26,2.818-2.815C26.208,18.11,23.39,14.969,23.39,14.969z M23.39,21.992c-0.21,0-0.409-0.043-0.598-0.107
	c1.157-0.24,2.075-1.111,2.409-2.231c0.04,0.165,0.068,0.322,0.068,0.462C25.268,21.151,24.425,21.992,23.39,21.992z"/>
<g id="XMLID_147_">
</g>
<g id="XMLID_148_">
</g>
<g id="XMLID_152_">
</g>
<g id="XMLID_156_">
</g>
<g id="XMLID_157_">
</g>
<g id="XMLID_158_">
</g>
</svg>
