<?xml version="1.0" encoding="utf-8"?>
<!-- Generator: Adobe Illustrator 19.0.0, SVG Export Plug-In . SVG Version: 6.00 Build 0)  -->
<svg version="1.1" id="Icons" xmlns="http://www.w3.org/2000/svg" xmlns:xlink="http://www.w3.org/1999/xlink" x="0px" y="0px"
	 viewBox="0 0 60 60" style="enable-background:new 0 0 60 60;" xml:space="preserve">
<style type="text/css">
	.st0{fill:#939598;}
</style>
<path id="XMLID_140_" class="st0" d="M36.199,56.549H23.896c-0.952,0-1.725,0.773-1.725,1.725c0,0.952,0.773,1.725,1.725,1.725
	h12.302c0.952,0,1.726-0.773,1.726-1.725C37.925,57.322,37.151,56.549,36.199,56.549z"/>
<g id="XMLID_152_">
	<path id="XMLID_142_" class="st0" d="M30,9.953c1.273,0,2.301-1.03,2.301-2.301V2.3c0-1.271-1.029-2.301-2.301-2.301
		c-1.271,0-2.3,1.03-2.3,2.301v5.352C27.7,8.923,28.728,9.953,30,9.953z"/>
	<path id="XMLID_143_" class="st0" d="M14.903,13.305c0.451,0.621,1.153,0.95,1.865,0.95c0.467,0,0.941-0.143,1.349-0.44
		c1.027-0.746,1.256-2.185,0.51-3.213l-3.146-4.331c-0.748-1.027-2.184-1.258-3.214-0.509c-1.027,0.745-1.256,2.184-0.51,3.212
		L14.903,13.305z"/>
	<path id="XMLID_144_" class="st0" d="M18.118,46.521c-1.024-0.751-2.469-0.52-3.212,0.508l-3.15,4.328
		c-0.748,1.028-0.521,2.467,0.508,3.214c0.407,0.298,0.88,0.441,1.349,0.441c0.713,0,1.414-0.328,1.863-0.947l3.15-4.329
		C19.375,48.707,19.147,47.268,18.118,46.521z"/>
	<path id="XMLID_145_" class="st0" d="M47.732,5.761c-1.033-0.75-2.466-0.519-3.214,0.51l-3.145,4.331
		c-0.746,1.028-0.517,2.467,0.51,3.213c0.409,0.296,0.882,0.439,1.349,0.439c0.713,0,1.414-0.328,1.865-0.949l3.145-4.332
		C48.988,7.945,48.759,6.506,47.732,5.761z"/>
	<path id="XMLID_146_" class="st0" d="M45.093,47.029c-0.746-1.027-2.184-1.255-3.214-0.509c-1.026,0.747-1.255,2.185-0.507,3.213
		l3.147,4.331c0.449,0.619,1.15,0.948,1.863,0.948c0.468,0,0.94-0.143,1.349-0.439c1.027-0.747,1.256-2.186,0.509-3.214
		L45.093,47.029z"/>
	<path id="XMLID_147_" class="st0" d="M2.785,23.742l5.092,1.656c0.237,0.076,0.475,0.114,0.711,0.114
		c0.97,0,1.871-0.619,2.188-1.591c0.394-1.208-0.267-2.506-1.476-2.899L4.21,19.366c-1.22-0.394-2.507,0.268-2.9,1.477
		C0.916,22.05,1.577,23.349,2.785,23.742z"/>
	<path id="XMLID_148_" class="st0" d="M57.213,36.59l-5.09-1.653c-1.21-0.39-2.506,0.269-2.899,1.477
		c-0.394,1.208,0.269,2.507,1.478,2.899l5.091,1.653c0.236,0.076,0.474,0.113,0.71,0.113c0.97,0,1.871-0.619,2.188-1.59
		C59.084,38.281,58.422,36.983,57.213,36.59z"/>
	<path id="XMLID_149_" class="st0" d="M7.878,34.937l-5.093,1.651c-1.208,0.392-1.871,1.689-1.477,2.898
		c0.314,0.972,1.217,1.592,2.187,1.592c0.235,0,0.475-0.037,0.711-0.114l5.092-1.651c1.21-0.392,1.872-1.69,1.479-2.898
		C10.386,35.207,9.098,34.547,7.878,34.937z"/>
	<path id="XMLID_150_" class="st0" d="M51.413,25.512c0.236,0,0.474-0.038,0.71-0.114l5.09-1.653
		c1.209-0.393,1.871-1.691,1.479-2.899c-0.394-1.208-1.696-1.868-2.898-1.477l-5.091,1.653c-1.208,0.393-1.871,1.691-1.478,2.899
		C49.54,24.893,50.442,25.512,51.413,25.512z"/>
</g>
<path class="st0" d="M37.571,53.913v-5.374c1.585-2.643,3.635-5.686,5.487-8.035c2.226-2.823,3.558-6.378,3.558-10.252
	c0-9.179-7.44-16.619-16.617-16.619c-9.18,0-16.619,7.44-16.619,16.619c0,3.872,1.331,7.427,3.556,10.249
	c1.95,2.474,3.796,5.174,5.396,7.891v5.52H37.571z M39.836,39.171l-1.63-1.628c1.695-1.822,2.787-4.217,2.95-6.867h2.307
	C43.295,33.963,41.944,36.926,39.836,39.171z M43.463,29.319h-2.307c-0.141-2.359-1.026-4.512-2.408-6.246l1.642-1.637
	C42.182,23.592,43.313,26.326,43.463,29.319z M30.737,16.598c3.402,0.172,6.462,1.607,8.733,3.843l-1.629,1.625
	c-1.853-1.819-4.34-2.997-7.104-3.161V16.598z M35.59,29.686h-0.863l-0.001-1.872l2.292-3.517l0.98,0.002v1.66L35.59,29.686z
	 M37.998,34.032v1.66l-0.992,0.01l-2.286-3.521l0.006-1.859h0.863L37.998,34.032z M33.23,29.687l-2.441-3.727V24.3l0.994-0.001
	l2.319,3.51l-0.009,1.878H33.23z M34.092,30.321l-0.007,1.867l-2.3,3.496l-0.997,0.008v-1.66l2.441-3.711H34.092z M30.737,41.094
	c2.469-0.149,4.723-1.104,6.497-2.605l1.628,1.624c-2.196,1.916-5.018,3.13-8.125,3.288V41.094z M29.257,16.598v2.307
	c-2.764,0.163-5.251,1.342-7.105,3.161l-1.628-1.625C22.8,18.205,25.859,16.77,29.257,16.598z M27.192,31.38l1.058-1.059
	l0.635,0.635v4.414l-1.693-1.694V31.38z M26.883,25.992h-3.19L22.001,24.3h6.575L26.883,25.992z M28.25,29.686l-1.058-1.079v-2.304
	l1.693-1.669v4.402L28.25,29.686z M19.609,21.436l1.637,1.637c-1.383,1.734-2.263,3.888-2.404,6.246h-2.307
	C16.686,26.326,17.817,23.592,19.609,21.436z M16.536,30.675h2.307c0.159,2.651,1.25,5.045,2.945,6.867l-1.624,1.628
	C18.05,36.926,16.703,33.963,16.536,30.675z M21.136,40.113l1.624-1.628c1.779,1.506,4.029,2.457,6.502,2.61v2.307
	C26.149,43.243,23.332,42.029,21.136,40.113z"/>
<g id="XMLID_22_">
</g>
<g id="XMLID_44_">
</g>
<g id="XMLID_47_">
</g>
<g id="XMLID_48_">
</g>
<g id="XMLID_49_">
</g>
<g id="XMLID_50_">
</g>
</svg>
