<?xml version="1.0" encoding="utf-8"?>
<!-- Generator: Adobe Illustrator 19.0.0, SVG Export Plug-In . SVG Version: 6.00 Build 0)  -->
<svg version="1.1" id="Icons" xmlns="http://www.w3.org/2000/svg" xmlns:xlink="http://www.w3.org/1999/xlink" x="0px" y="0px"
	 viewBox="0 0 60 60" style="enable-background:new 0 0 60 60;" xml:space="preserve">
<style type="text/css">
	.st0{fill:#939598;}
	.st1{fill:#CCCCCC;}
</style>
<g id="XMLID_354_">
	<path id="XMLID_360_" class="st0" d="M29.755,11.692c-10.111,0.135-18.198,8.441-18.064,18.553
		c0.135,10.113,8.442,18.199,18.553,18.064c10.112-0.135,18.199-8.441,18.065-18.553C48.173,19.643,39.866,11.556,29.755,11.692z
		 M29.787,14.079c2.727-0.037,5.303,0.616,7.563,1.794l-2.464,4.108C33.41,19.26,31.752,18.855,30,18.855
		c-1.753,0-3.411,0.406-4.886,1.127l-2.463-4.105C24.789,14.761,27.211,14.113,29.787,14.079z M19.981,34.886l-4.105,2.462
		c-1.114-2.138-1.762-4.56-1.797-7.135c-0.037-2.727,0.616-5.303,1.794-7.563l4.107,2.465C19.26,26.59,18.855,28.247,18.855,30
		C18.855,31.753,19.26,33.411,19.981,34.886z M30.213,45.921c-2.727,0.036-5.303-0.616-7.563-1.795l2.464-4.107
		c1.475,0.721,3.132,1.127,4.885,1.127c1.752,0,3.41-0.405,4.885-1.126l2.463,4.105C35.21,45.238,32.788,45.886,30.213,45.921z
		 M30,38.757c-4.836,0-8.757-3.921-8.757-8.757s3.921-8.757,8.757-8.757s8.757,3.921,8.757,8.757S34.836,38.757,30,38.757z
		 M40.019,34.886c0.721-1.475,1.127-3.133,1.127-4.886c0-1.753-0.406-3.41-1.127-4.885l4.105-2.463
		c1.114,2.138,1.762,4.56,1.797,7.135c0.037,2.728-0.617,5.303-1.795,7.563L40.019,34.886z"/>
</g>
<path id="XMLID_431_" class="st1" d="M50,0H9.9C4.4,0,0,4.4,0,9.9V50c0,5.5,4.5,10,10,10h40c5.5,0,10-4.5,10-10V10
	C60,4.5,55.5,0,50,0z M53.611,53.21H6.522V6.296h47.089V53.21z"/>
<path id="XMLID_571_" class="st1" d="M30,1.774c-15.439,0-28,12.561-28,28.001c0,15.439,12.561,27.999,28,27.999s28-12.56,28-27.999
	C58,14.336,45.439,1.774,30,1.774z M30,55.253c-14.049,0-25.478-11.429-25.478-25.477c0-14.049,11.43-25.48,25.478-25.48
	s25.478,11.43,25.478,25.48C55.478,43.824,44.049,55.253,30,55.253z"/>
<g id="XMLID_120_">
</g>
<g id="XMLID_121_">
</g>
<g id="XMLID_122_">
</g>
<g id="XMLID_123_">
</g>
<g id="XMLID_124_">
</g>
<g id="XMLID_126_">
</g>
</svg>
