<?xml version="1.0" encoding="utf-8"?>
<!-- Generator: Adobe Illustrator 18.1.1, SVG Export Plug-In . SVG Version: 6.00 Build 0)  -->
<svg version="1.1" id="Explore" xmlns="http://www.w3.org/2000/svg" xmlns:xlink="http://www.w3.org/1999/xlink" x="0px" y="0px"
	 viewBox="0 0 60 60" style="enable-background:new 0 0 60 60;" xml:space="preserve">
<style type="text/css">
	.st0{fill:#FFFFFF;}
</style>
<path class="st0" d="M9.6,18.4c-0.7,0-1.3,0.5-1.5,1.2L4.7,31.4L28.5,34l2.2-10c-1-2.2-1.2-3.4-1.4-5.5H9.6z"/>
<path class="st0" d="M49.7,36.3l7.2,0.8l-2.1-7.4c-0.3,0.4-0.6,0.8-0.9,1.2C52.4,32.9,50.9,34.8,49.7,36.3L49.7,36.3z M49.7,36.3"/>
<path class="st0" d="M34.1,30.8l-0.8,3.7l3.9,0.4C36.2,33.7,35.2,32.4,34.1,30.8C34.1,30.9,34.1,30.9,34.1,30.8L34.1,30.8z
	 M34.1,30.8"/>
<path class="st0" d="M0.1,47.3c-0.1,0.5,0,1,0.3,1.4c0.3,0.4,0.8,0.6,1.3,0.6h23.7l2.2-10.6L3.3,36.1L0.1,47.3z M0.1,47.3"/>
<path class="st0" d="M58.3,42.1l-25.9-2.8l-2.1,10.1h28c0.9,0,1.6-0.7,1.6-1.6c0-0.2,0-0.4-0.1-0.5L58.3,42.1z M58.3,42.1"/>
<path class="st0" d="M43.6,38.4c0.1,0.1,0.3,0.2,0.5,0.2c0.2,0,0.4-0.1,0.5-0.2c1.1-1.1,3.1-3.5,5.2-6.4c2.6-3.7,5.8-9.2,5.8-14
	c0-6.3-5.2-11.5-11.5-11.5c-6.3,0-11.5,5.2-11.5,11.5c0,4.9,3.2,10.3,5.8,14C40.4,35,42.5,37.3,43.6,38.4L43.6,38.4z M44.1,10.8
	c3.9,0,7,3.2,7,7c0,3.9-3.2,7-7,7c-3.9,0-7-3.2-7-7C37,14,40.2,10.8,44.1,10.8L44.1,10.8z M44.1,10.8"/>
</svg>
