<?xml version="1.0" encoding="utf-8"?>
<!-- Generator: Adobe Illustrator 18.1.1, SVG Export Plug-In . SVG Version: 6.00 Build 0)  -->
<svg version="1.1" id="Message" xmlns="http://www.w3.org/2000/svg" xmlns:xlink="http://www.w3.org/1999/xlink" x="0px" y="0px"
	 viewBox="0 0 60 60" style="enable-background:new 0 0 60 60;" xml:space="preserve">
<style type="text/css">
	.st0{fill:#FFFFFF;}
</style>
<g>
	<path class="st0" d="M2,14.3c1.6,0.9,24.2,13,25,13.4c0.8,0.5,1.9,0.7,3,0.7c1.1,0,2.2-0.2,3-0.7c0.8-0.5,23.4-12.6,25-13.4
		c1.6-0.9,3.2-3.6,0.2-3.6H1.8C-1.2,10.7,0.4,13.4,2,14.3z M58.7,21c-1.8,1-24.6,12.8-25.7,13.4C31.9,35,31.1,35,30,35
		c-1.1,0-1.9-0.1-3-0.7C25.8,33.8,3.1,21.9,1.3,21C0,20.3,0,21.1,0,21.7c0,0.6,0,24.5,0,24.5c0,1.4,1.9,3.2,3.3,3.2h53.4
		c1.4,0,3.3-1.8,3.3-3.2c0,0,0-23.8,0-24.5C60,21.1,60,20.3,58.7,21z"/>
</g>
</svg>
