<?xml version="1.0" encoding="utf-8"?>
<!-- Generator: Adobe Illustrator 19.0.0, SVG Export Plug-In . SVG Version: 6.00 Build 0)  -->
<svg version="1.1" id="Icons" xmlns="http://www.w3.org/2000/svg" xmlns:xlink="http://www.w3.org/1999/xlink" x="0px" y="0px"
	 viewBox="0 0 60 60" style="enable-background:new 0 0 60 60;" xml:space="preserve">
<style type="text/css">
	.st0{fill:#CCCCCC;}
	.st1{fill:#939598;}
</style>
<path id="XMLID_962_" class="st0" d="M51.074,3.783v6.152h-2.492c-0.205,0.558-0.736,0.958-1.365,0.958
	c-0.806,0-1.458-0.653-1.458-1.459c0-0.806,0.653-1.458,1.458-1.458c0.669,0,1.226,0.453,1.398,1.066h1.617V3.322
	c-0.932-0.474-1.949-0.875-3.01-1.226v2.078l-1.196,0.004c-0.147,0.627-0.707,1.096-1.379,1.096c-0.784,0-1.42-0.636-1.42-1.42
	c0-0.784,0.636-1.42,1.42-1.42c0.613,0,1.132,0.391,1.33,0.937h0.528V1.868c-1.934-0.581-4.001-0.991-6.029-1.27v8.856l1.396,1.185
	c0.216-0.127,0.464-0.204,0.733-0.204c0.806,0,1.459,0.653,1.459,1.458c0,0.806-0.653,1.458-1.459,1.458
	c-0.806,0-1.458-0.652-1.458-1.458c0-0.22,0.052-0.427,0.139-0.613l-1.722-1.463l0.045-0.052v-9.28
	c-0.991-0.121-1.961-0.21-2.896-0.28V2.64c0.613,0.173,1.064,0.73,1.064,1.398c0,0.806-0.653,1.458-1.459,1.458
	c-0.806,0-1.459-0.653-1.459-1.458c0-0.697,0.49-1.277,1.143-1.422V0.154c-1.699-0.11-3.248-0.149-4.503-0.154h-0.333
	c-1.77,0.002-2.887,0.065-2.887,0.065v0.019c-0.484,0.014-1.135,0.038-1.908,0.078v2.624c0.608,0.191,1.051,0.752,1.051,1.422
	c0,0.827-0.67,1.498-1.498,1.498c-0.826,0-1.498-0.671-1.498-1.498c0-0.69,0.469-1.264,1.104-1.439V0.209
	c-1.034,0.062-2.236,0.151-3.535,0.277v2.422c0.613,0.173,1.064,0.73,1.064,1.398c0,0.806-0.653,1.458-1.459,1.458
	c-0.806,0-1.459-0.653-1.459-1.458c0-0.697,0.49-1.277,1.143-1.422V0.556c-3.014,0.315-6.476,0.831-9.631,1.678v2.474
	c0.608,0.191,1.051,0.752,1.051,1.422c0,0.827-0.67,1.498-1.498,1.498c-0.826,0-1.498-0.671-1.498-1.498
	c0-0.69,0.469-1.264,1.104-1.439v-2.22C9.556,2.84,8.357,3.263,7.275,3.754v10.288l0.045,0.052l-1.722,1.463
	c0.087,0.186,0.139,0.393,0.139,0.613c0,0.806-0.652,1.458-1.458,1.458c-0.806,0-1.459-0.652-1.459-1.458
	c0-0.806,0.653-1.458,1.459-1.458c0.269,0,0.517,0.078,0.733,0.204l1.396-1.185V4.174c-2.566,1.332-4.32,3.096-4.444,5.431v2.793
	v0.139v12.721v0.135v0.712c0.349-0.663,0.748-1.297,1.206-1.894c1.301-1.699,3.032-3.129,5.173-4.296v-7.61h2.492
	c0.205-0.558,0.736-0.958,1.365-0.958c0.806,0,1.458,0.653,1.458,1.459c0,0.806-0.653,1.458-1.458,1.458
	c-0.669,0-1.226-0.453-1.398-1.066H9.185v6.28c0.394-0.193,0.798-0.378,1.217-0.555c0.026-0.01,0.05-0.024,0.08-0.034
	c0.485-0.202,0.993-0.389,1.512-0.569v-2.857l1.196-0.004c0.147-0.627,0.707-1.096,1.379-1.096c0.784,0,1.42,0.636,1.42,1.42
	c0,0.784-0.636,1.42-1.42,1.42c-0.613,0-1.132-0.391-1.33-0.937h-0.528v1.817c1.724-0.549,3.625-0.984,5.697-1.302v-7.12
	l-1.396-1.185c-0.216,0.127-0.464,0.204-0.733,0.204c-0.806,0-1.459-0.653-1.459-1.458c0-0.806,0.653-1.458,1.459-1.458
	c0.806,0,1.458,0.652,1.458,1.458c0,0.22-0.052,0.427-0.139,0.613l1.722,1.463l-0.045,0.052v7.299
	c1.111-0.15,2.268-0.268,3.473-0.353c0.105-0.008,0.207-0.011,0.311-0.018V9.197h2.492c0.205-0.558,0.736-0.958,1.365-0.958
	c0.806,0,1.458,0.653,1.458,1.459c0,0.806-0.653,1.458-1.458,1.458c-0.669,0-1.226-0.453-1.398-1.066h-1.617v6.14
	c0.549-0.028,1.091-0.051,1.621-0.064v-2.623l1.196-0.004c0.147-0.627,0.707-1.096,1.379-1.096c0.784,0,1.42,0.636,1.42,1.42
	c0,0.784-0.636,1.42-1.42,1.42c-0.613,0-1.132-0.391-1.33-0.937H26.24v1.807c0.7-0.01,1.385-0.014,2.039-0.006
	c0.334,0.005,0.664,0.01,0.988,0.02c1.485,0.04,2.798,0.12,3.858,0.203v-8.63l-1.396-1.185c-0.216,0.127-0.464,0.204-0.733,0.204
	c-0.806,0-1.459-0.653-1.459-1.458c0-0.806,0.653-1.458,1.459-1.458c0.806,0,1.458,0.652,1.458,1.458
	c0,0.22-0.052,0.427-0.139,0.613l1.722,1.463L33.992,7.43v9.014c1.186,0.108,1.887,0.205,1.907,0.207v0.015
	c0.339,0.037,0.661,0.079,0.989,0.119v-2.231c-0.613-0.173-1.064-0.73-1.064-1.398c0-0.806,0.653-1.458,1.459-1.458
	c0.806,0,1.459,0.653,1.459,1.458c0,0.697-0.49,1.277-1.143,1.422v2.293c3.802,0.507,6.803,1.243,9.178,2.072v-3.703
	c-0.608-0.191-1.051-0.752-1.051-1.422c0-0.827,0.67-1.498,1.498-1.498c0.826,0,1.498,0.671,1.498,1.498
	c0,0.69-0.469,1.264-1.104,1.439v3.992c1.934,0.739,3.404,1.535,4.522,2.303v-7.349c-0.613-0.173-1.064-0.73-1.064-1.398
	c0-0.806,0.653-1.458,1.459-1.458c0.806,0,1.459,0.653,1.459,1.458c0,0.697-0.49,1.277-1.143,1.422v7.84
	c2.318,1.806,2.728,3.324,2.728,3.324V9.605C55.145,7.047,53.434,5.169,51.074,3.783z"/>
<path id="XMLID_959_" class="st1" d="M24.594,21.309c-5.286-0.434-9.331-1.127-12.438-1.944c-3.286,1.162-6.213,2.897-8.178,5.47
	c-0.868,1.137-1.515,2.399-1.949,3.785c1.296,8.941,27.237,9.106,27.237,9.106v-0.031c3.5,0.285,6.448,0.743,8.921,1.307
	c0.887,0.179,1.805,0.419,2.728,0.723c0.489,0.144,0.968,0.299,1.406,0.455c-0.024,0.009-0.06,0.019-0.089,0.029
	c2.035,0.832,4.029,2.04,5.685,3.8c1.426,1.505,2.469,3.3,3.157,5.355V30.828C50.629,22.431,29.063,21.423,24.594,21.309z"/>
<path id="XMLID_960_" class="st0" d="M40.616,40.722c-3.959,1.162-9.384,2.055-16.845,2.225l9.19,6.378l-9.19,9.739
	c0,0,23.133-0.146,26.809-7.685c-0.573-2.643-1.706-4.877-3.401-6.668C45.319,42.732,42.96,41.495,40.616,40.722z"/>
<g id="XMLID_120_">
</g>
<g id="XMLID_121_">
</g>
<g id="XMLID_122_">
</g>
<g id="XMLID_123_">
</g>
<g id="XMLID_124_">
</g>
<g id="XMLID_126_">
</g>
</svg>
