<?xml version="1.0" encoding="utf-8"?>
<!-- Generator: Adobe Illustrator 19.0.0, SVG Export Plug-In . SVG Version: 6.00 Build 0)  -->
<svg version="1.1" id="Icons" xmlns="http://www.w3.org/2000/svg" xmlns:xlink="http://www.w3.org/1999/xlink" x="0px" y="0px"
	 viewBox="0 0 60 60" style="enable-background:new 0 0 60 60;" xml:space="preserve">
<style type="text/css">
	.st0{fill:#939598;}
</style>
<g id="XMLID_120_">
	<path id="XMLID_121_" class="st0" d="M5.698,23.104l-4.724,4.042l6.206-0.245c-0.341-0.579-0.649-1.192-0.893-1.834
		C6.032,24.419,5.839,23.77,5.698,23.104z"/>
	<path id="XMLID_122_" class="st0" d="M27.185,16.88c0.079,0.193,0.132,0.386,0.193,0.579c0.298-0.878,0.676-1.71,1.122-2.498
		l-2.217,0.088C26.633,15.626,26.932,16.232,27.185,16.88z"/>
	<path id="XMLID_123_" class="st0" d="M12.642,10.524c0.649-0.254,1.297-0.447,1.955-0.588l-4.033-4.724l0.245,6.215
		C11.378,11.076,11.993,10.769,12.642,10.524z"/>
	<path id="XMLID_124_" class="st0" d="M7.96,13.969c0.438-0.543,0.911-1.035,1.412-1.481L3.505,10.41l3.324,5.261
		C7.154,15.074,7.529,14.512,7.96,13.969z"/>
	<path id="XMLID_125_" class="st0" d="M5.637,19.291c0.105-0.682,0.263-1.349,0.474-1.982L0,18.44l5.505,2.893
		C5.487,20.66,5.532,19.975,5.637,19.291z"/>
	<path id="XMLID_126_" class="st0" d="M13.245,26.962c1.43,0,1.36,0.334,1.36,0c0-4.374,3.551-7.925,7.934-7.925
		c1.095,0,2.139,0.236,3.086,0.64c-0.552-3.813-3.542-6.978-7.548-7.584c-4.911-0.745-9.487,2.63-10.232,7.541
		c-0.447,2.98,0.631,5.838,2.648,7.801C11.36,27.137,12.283,26.962,13.245,26.962z"/>
	<path id="XMLID_127_" class="st0" d="M27.948,32.579h-4.05v2.085h4.05c0.28,0,0.475-0.03,0.585-0.091
		c0.15-0.092,0.226-0.27,0.226-0.533v-0.837c0-0.264-0.075-0.441-0.226-0.532C28.422,32.609,28.228,32.579,27.948,32.579z"/>
	<path id="XMLID_128_" class="st0" d="M38.073,35.324c-1.101,0-2.245,0.06-3.436,0.18c-0.02,0.12-0.029,0.271-0.029,0.45
		c0,0.7,0.087,1.15,0.262,1.35c0.175,0.201,0.623,0.301,1.343,0.301h2.16c0.55,0,0.923-0.068,1.117-0.203
		c0.195-0.135,0.293-0.377,0.293-0.728v-0.42c0-0.38-0.118-0.63-0.353-0.75C39.195,35.383,38.743,35.324,38.073,35.324z"/>
	<path id="XMLID_129_" class="st0" d="M51.013,23.631c-0.184-6.461-5.479-11.644-11.983-11.644c-6.147,0-11.213,4.621-11.915,10.582
		c-1.044-0.658-2.28-1.035-3.602-1.035c-3.744,0-6.787,3.034-6.787,6.778c0,0.281,0.054,0-1.165,0c-4.015,0-7.285,3.261-7.285,7.285
		c0,3.665,2.709,6.697,6.233,7.207c0.281,0.052,0.561,0.079,0.86,0.079h34.365c0.123,0,0.166-0.009,0.166-0.027
		c0.159,0.009,0.308,0.027,0.465,0.027c5.321,0,9.635-4.314,9.635-9.644C60,28.138,56.029,23.972,51.013,23.631z M18.168,38.999
		h-1.8v-7.74h1.8V38.999z M30.498,34.483c0,1-0.58,1.5-1.739,1.5h-4.86v3.016h-1.77v-7.74h6.63c1.159,0,1.739,0.5,1.739,1.5V34.483z
		 M41.432,37.108c0,1.261-0.885,1.891-2.654,1.891h-3.271c-0.97,0-1.638-0.168-2.002-0.502c-0.365-0.336-0.548-0.963-0.548-1.883
		v-1.02c0-1.441,0.497-2.556,1.492-3.346s2.402-1.186,4.223-1.186c0.13,0,0.315,0.011,0.555,0.031l1.065,1.244h-0.495
		c-1.54,0-2.67,0.131-3.39,0.391c-0.83,0.289-1.386,0.824-1.665,1.604c1.18-0.181,2.319-0.271,3.42-0.271
		c1.21,0,2.058,0.141,2.542,0.42c0.485,0.281,0.728,0.806,0.728,1.576V37.108z M53.073,32.503l-4.05,6.63h-1.965l4.17-6.555h-5.115
		v1.665l-1.635-0.285v-2.7h8.595V32.503z"/>
	<path id="XMLID_135_" class="st0" d="M25.221,13.61L27.3,7.746l-5.261,3.322c0.588,0.325,1.158,0.702,1.701,1.131
		C24.283,12.636,24.775,13.11,25.221,13.61z"/>
	<path id="XMLID_136_" class="st0" d="M20.401,10.349l-1.131-6.111l-2.893,5.505c0.676-0.016,1.358,0.027,2.042,0.132
		C19.103,9.981,19.77,10.138,20.401,10.349z"/>
	<path id="XMLID_137_" class="st0" d="M40.871,46.398c-0.106-0.272-0.193-0.57-0.281-0.884c-0.088,0.307-0.184,0.595-0.28,0.86
		c-0.027,0.079-0.052,0.148-0.088,0.227c-0.07,0.184-0.141,0.35-0.211,0.518c-0.036,0.079-0.07,0.157-0.114,0.236
		c-0.07,0.15-0.148,0.307-0.227,0.456c-0.036,0.063-0.07,0.132-0.106,0.193c-0.096,0.175-0.193,0.35-0.29,0.527
		c-0.377,0.649-0.797,1.322-1.254,2.251c-1.041,2.141,0.509,4.28,2.57,4.28c2.051,0,3.602-2.139,2.561-4.28
		C42.22,48.907,41.459,48.038,40.871,46.398z"/>
	<path id="XMLID_138_" class="st0" d="M31.122,45.828c-0.105-0.314-0.218-0.649-0.323-1.017c-0.096,0.352-0.202,0.676-0.316,0.983
		c-0.036,0.096-0.07,0.184-0.105,0.281c-0.079,0.193-0.157,0.395-0.236,0.57c-0.045,0.096-0.088,0.193-0.141,0.289
		c-0.078,0.166-0.157,0.332-0.236,0.489c-0.054,0.087-0.097,0.184-0.15,0.272c-0.096,0.177-0.202,0.361-0.305,0.545
		c-0.431,0.745-0.913,1.533-1.448,2.612c-1.201,2.453,0.579,4.908,2.938,4.908c2.357,0,4.136-2.455,2.936-4.908
		C32.675,48.705,31.797,47.704,31.122,45.828z"/>
	<path id="XMLID_139_" class="st0" d="M22.856,43.215c-0.114,0.386-0.229,0.702-0.352,1.001c-0.025,0.043-0.043,0.096-0.061,0.148
		c-0.123,0.271-0.254,0.534-0.395,0.79c-0.034,0.052-0.061,0.105-0.097,0.157c-0.299,0.525-0.631,1.053-0.999,1.807
		c-0.772,1.578,0.377,3.173,1.894,3.173c1.524,0,2.673-1.596,1.901-3.173C23.951,45.487,23.311,44.889,22.856,43.215z"/>
</g>
<g id="XMLID_22_">
</g>
<g id="XMLID_23_">
</g>
<g id="XMLID_24_">
</g>
<g id="XMLID_32_">
</g>
<g id="XMLID_40_">
</g>
<g id="XMLID_43_">
</g>
</svg>
