<?xml version="1.0" encoding="utf-8"?>
<!-- Generator: Adobe Illustrator 19.0.0, SVG Export Plug-In . SVG Version: 6.00 Build 0)  -->
<svg version="1.1" id="Icons" xmlns="http://www.w3.org/2000/svg" xmlns:xlink="http://www.w3.org/1999/xlink" x="0px" y="0px"
	 viewBox="0 0 60 60" style="enable-background:new 0 0 60 60;" xml:space="preserve">
<style type="text/css">
	.st0{fill:#CCCCCC;}
	.st1{fill:#939598;}
</style>
<g id="XMLID_934_">
	<path id="XMLID_935_" class="st0" d="M29.999,0C14.616,0,2.147,12.471,2.147,27.853c0,15.384,12.469,27.853,27.852,27.853
		c15.384,0,27.854-12.469,27.854-27.853C57.853,12.471,45.382,0,29.999,0z M29.999,49.651c-12.038,0-21.797-9.759-21.797-21.798
		c0-12.039,9.759-21.798,21.797-21.798c12.04,0,21.799,9.759,21.799,21.798C51.798,39.892,42.039,49.651,29.999,49.651z"/>
</g>
<g id="XMLID_476_">
	<path id="XMLID_915_" class="st1" d="M31.67,45.523c-0.08-0.915-0.846-1.634-1.782-1.634c-0.854,0-1.567,0.599-1.746,1.399
		l-0.001,0l-1.747,10.349c-0.056,0.252-0.087,0.514-0.087,0.782c0,1.977,1.603,3.58,3.58,3.58s3.58-1.603,3.58-3.58
		c0-0.324-0.044-0.638-0.125-0.937L31.67,45.523z"/>
	<polygon id="XMLID_914_" class="st1" points="35.583,46.02 35.583,46.02 35.583,46.02 	"/>
	<path id="XMLID_913_" class="st1" d="M45.313,49.96c-0.192-0.157-0.369-0.322-0.575-0.441l-7.119-5.315
		c-0.646-0.425-1.342-0.413-1.849,0.095c-0.462,0.464-0.524,1.16-0.188,1.721l5.477,7.357c0.106,0.167,0.242,0.313,0.377,0.469
		c0.873,1.015,2.806,1.073,3.876-0.001C46.384,52.774,46.368,50.824,45.313,49.96z"/>
	<polygon id="XMLID_912_" class="st1" points="43.035,43.78 43.035,43.78 43.035,43.78 	"/>
	<path id="XMLID_901_" class="st1" d="M50.074,42.376l-6.659-0.256c-0.435-0.062-0.828,0.23-0.902,0.672
		c-0.068,0.404,0.151,0.799,0.522,0.986l0.001-0.004c0.005,0.002,0.007,0.001,0.012,0.003l6.457,1.987
		c0.927,0.216,1.975-0.262,1.975-1.303C51.481,43.143,51.136,42.51,50.074,42.376z"/>
	<polygon id="XMLID_885_" class="st1" points="16.935,43.78 16.935,43.78 16.935,43.78 	"/>
	<path id="XMLID_884_" class="st1" d="M16.934,43.775l0.001,0.004c0.372-0.188,0.59-0.582,0.522-0.986
		c-0.074-0.443-0.467-0.735-0.902-0.672l-6.659,0.256c-1.062,0.133-1.377,0.767-1.377,2.085c0,1.041,1.018,1.519,1.945,1.303
		l6.457-1.987C16.927,43.776,16.929,43.777,16.934,43.775z"/>
	<path id="XMLID_883_" class="st1" d="M22.381,44.204l-7.115,5.306c-0.206,0.118-0.399,0.264-0.575,0.44
		c-1.07,1.07-1.07,2.807,0,3.877c1.07,1.071,2.803,1.072,3.873,0.001c0.145-0.145,0.269-0.301,0.375-0.468l5.478-7.344
		c0.336-0.559,0.274-1.254-0.188-1.717C23.723,43.792,22.919,43.751,22.381,44.204z"/>
	<path id="XMLID_819_" class="st1" d="M40.74,20.619c0-6.825-8.094-10.74-10.74-10.74c1.344,9.572-11.374,13.388-12.53,21.481
		c-1.156,8.092,5.37,10.74,5.37,10.74c1.827-6.701,8.098-8.95,12.269-11.822C39.659,27.145,40.74,24.206,40.74,20.619z"/>
	<path id="XMLID_769_" class="st1" d="M40.74,34.939c0.563-1.747,0.549-5.482,0-7.16c-1.007,2.07-2.941,3.837-5.279,5.447
		c-0.96,0.661-2.222,1.28-3.225,1.879c-2.094,1.249-3.914,2.444-5.295,4.072c1.269,1.943,3.168,2.922,4.849,2.922
		C35.817,42.1,38.95,40.495,40.74,34.939z"/>
	<path id="XMLID_768_" class="st1" d="M18.369,24.199c1.311-1.785,2.781-2.82,4.273-4.292c1.503-1.483,2.47-2.514,3.073-3.711
		c-1.193-2.386-3.116-2.977-4.664-2.737c0.261,3.394-3.353,5.21-3.58,7.681C17.332,22.633,17.749,23.751,18.369,24.199z"/>
</g>
<g id="XMLID_22_">
</g>
<g id="XMLID_56_">
</g>
<g id="XMLID_57_">
</g>
<g id="XMLID_58_">
</g>
<g id="XMLID_61_">
</g>
<g id="XMLID_62_">
</g>
</svg>
