<?xml version="1.0" encoding="utf-8"?>
<!-- Generator: Adobe Illustrator 19.0.0, SVG Export Plug-In . SVG Version: 6.00 Build 0)  -->
<svg version="1.1" id="Icons" xmlns="http://www.w3.org/2000/svg" xmlns:xlink="http://www.w3.org/1999/xlink" x="0px" y="0px"
	 viewBox="0 0 60 60" style="enable-background:new 0 0 60 60;" xml:space="preserve">
<style type="text/css">
	.st0{fill:#CCCCCC;}
	.st1{fill:#939598;}
</style>
<g id="XMLID_410_">
	<path id="XMLID_483_" class="st0" d="M29.999,0C13.431,0,0,13.432,0,30c0,16.57,13.431,30,29.999,30C46.568,60,60,46.57,60,30
		C60,13.432,46.568,0,29.999,0z M29.999,53.478C17.033,53.478,6.522,42.967,6.522,30c0-12.967,10.511-23.478,23.477-23.478
		c12.968,0,23.48,10.512,23.48,23.478C53.478,42.967,42.967,53.478,29.999,53.478z"/>
</g>
<g id="XMLID_921_">
	<path id="XMLID_924_" class="st1" d="M17.787,31.967V17.784h13.828l-1.383-1.381c-0.762-0.763-0.717-1.417-0.545-1.834
		c0.002-0.006,0.008-0.011,0.01-0.019H14.55v15.146c0.47-0.11,1.01,0.049,1.475,0.512L17.787,31.967z"/>
	<path id="XMLID_923_" class="st1" d="M45.143,30.348c-0.414,0-0.796-0.183-1.169-0.557l-1.762-1.76v14.181H28.385l1.382,1.383
		c0.763,0.761,0.718,1.415,0.546,1.832c-0.002,0.008-0.007,0.015-0.012,0.023H45.45V30.286
		C45.349,30.311,45.248,30.348,45.143,30.348z"/>
	<path id="XMLID_922_" class="st1" d="M23.94,41.862l0.754-0.757l8.428-8.426l0.034-0.053l0.082-0.083l8.027-8.027l0.756-0.757
		l0.752,0.757l1.68,1.677l-0.144-10.577c-1.639,0.017-8.054,0.117-10.625,0.157l1.709,1.711l0.757,0.754l-0.757,0.757l-8.423,8.422
		l-0.032,0.051l-0.088,0.087l-8.029,8.031l-0.753,0.754l-0.754-0.754l-1.679-1.679l0.144,10.577
		c1.651-0.017,8.058-0.117,10.626-0.157l-1.71-1.711L23.94,41.862z"/>
</g>
<g id="XMLID_22_">
</g>
<g id="XMLID_85_">
</g>
<g id="XMLID_86_">
</g>
<g id="XMLID_87_">
</g>
<g id="XMLID_89_">
</g>
<g id="XMLID_91_">
</g>
</svg>
