<?xml version="1.0" encoding="utf-8"?>
<!-- Generator: Adobe Illustrator 21.1.0, SVG Export Plug-In . SVG Version: 6.00 Build 0)  -->
<svg version="1.1" id="Acct" xmlns="http://www.w3.org/2000/svg" xmlns:xlink="http://www.w3.org/1999/xlink" x="0px" y="0px"
	 viewBox="0 0 60 60" style="enable-background:new 0 0 60 60;" xml:space="preserve">
<style type="text/css">
	.st0{fill:#939598;}
</style>
<g id="XMLID_64_">
	<g id="XMLID_65_">
		<path id="XMLID_68_" class="st0" d="M52.4,41.2C48,38,45,35.8,43.5,36.5c-1.8,0.9-2.8,2.9-4.6,6.5c-0.7,1.3-2.1,3.8-3.3,3.3
			c-1.4-0.6-5.6-2.9-11.2-8l0,0c-0.5-0.5-1-1-1.6-1.5c-6.2-6.3-8.9-11.2-9.5-12.7c-0.4-1.1,2-2.6,3.3-3.3c3.6-1.8,5.6-2.8,6.5-4.6
			c0.7-1.4-1.5-4.5-4.7-8.9s-5.2-6.6-7.2-7.1C9.1-0.2,8.2,1.1,3.8,5c-4.3,3.8-4.2,7.2-4.2,9.8c0,2.6,2.1,8,6.4,15
			c1.6,2.6,3.9,5.7,6.3,8.7c1,1.2,2.3,2.7,3.8,4.1c2,2.1,4.3,4.2,6,5.6c3,2.4,6.1,4.7,8.7,6.3c7,4.2,11.6,5.6,14.2,5.6
			c2.7,0,6.1,0.1,9.8-4.2c3.8-4.4,5.2-5.3,4.7-7.6C59,46.5,56.8,44.5,52.4,41.2z"/>
		<path id="XMLID_67_" class="st0" d="M48.5,11.3c3.6,3.6,5.7,8.3,6.1,13.3h5C58.8,11.4,48.4,1,35.2,0.2v5
			C40.2,5.6,44.9,7.7,48.5,11.3z"/>
		<path id="XMLID_66_" class="st0" d="M35.2,10.8V16c4,1.4,7.2,4.6,8.6,8.6H49C47.3,17.9,41.9,12.4,35.2,10.8z"/>
	</g>
</g>
</svg>
