<?xml version="1.0" encoding="utf-8"?>
<!-- Generator: Adobe Illustrator 19.0.0, SVG Export Plug-In . SVG Version: 6.00 Build 0)  -->
<svg version="1.1" id="Icons" xmlns="http://www.w3.org/2000/svg" xmlns:xlink="http://www.w3.org/1999/xlink" x="0px" y="0px"
	 viewBox="0 0 60 60" style="enable-background:new 0 0 60 60;" xml:space="preserve">
<style type="text/css">
	.st0{fill:#CCCCCC;}
	.st1{fill:#939598;}
</style>
<g id="XMLID_1161_">
	<polygon id="XMLID_1164_" class="st0" points="30,38.674 9.131,28.68 0.936,32.603 30,46.524 59.064,32.603 50.872,28.68 	"/>
	<polygon id="XMLID_1163_" class="st0" points="30,50.153 9.131,40.159 0.936,44.082 30,58 59.064,44.082 50.872,40.159 	"/>
</g>
<polygon id="XMLID_1402_" class="st0" points="9.131,17.203 0.936,21.127 22.781,31.59 9.807,17.527 "/>
<polygon id="XMLID_1404_" class="st0" points="59.064,21.127 50.872,17.203 50.189,17.53 37.21,31.594 "/>
<path id="XMLID_464_" class="st1" d="M43.679,3.581H16.315l-6.838,9.164l20.52,22.242l20.526-22.242L43.679,3.581z M40.946,6.202
	l4.377,5.233h-5.239l-6.384-5.233H40.946z M19.056,6.202h7.245l-6.382,5.233h-5.241L19.056,6.202z M14.757,14.047h4.793
	l5.734,11.751L14.757,14.047z M28.633,26.469L22.57,14.047h6.062V26.469z M24.122,11.435l5.874-4.819l5.883,4.819H24.122z
	 M31.367,14.047h6.062l-6.062,12.422V14.047z M34.716,25.799l5.736-11.751h4.791L34.716,25.799z"/>
<g id="XMLID_22_">
</g>
<g id="XMLID_56_">
</g>
<g id="XMLID_66_">
</g>
<g id="XMLID_67_">
</g>
<g id="XMLID_68_">
</g>
<g id="XMLID_69_">
</g>
</svg>
