<?xml version="1.0" encoding="utf-8"?>
<!-- Generator: Adobe Illustrator 19.0.0, SVG Export Plug-In . SVG Version: 6.00 Build 0)  -->
<svg version="1.1" id="Icons" xmlns="http://www.w3.org/2000/svg" xmlns:xlink="http://www.w3.org/1999/xlink" x="0px" y="0px"
	 viewBox="0 0 60 60" style="enable-background:new 0 0 60 60;" xml:space="preserve">
<style type="text/css">
	.st0{fill:#939598;}
	.st1{fill:#CCCCCC;}
</style>
<g id="XMLID_398_">
	<g id="XMLID_411_">
		<path id="XMLID_413_" class="st0" d="M0,40.727h1.77v3.577h0.936l2.717-3.577h1.832v0.266l-3.07,4.044l3.399,4.029v0.254H5.51
			l-2.818-3.474H1.77v3.474H0V40.727z"/>
		<path id="XMLID_416_" class="st0" d="M11.781,40.602c2.54,0,4.435,1.895,4.435,4.435c0,2.514-1.895,4.409-4.435,4.409
			c-2.516,0-4.41-1.895-4.41-4.409C7.37,42.496,9.265,40.602,11.781,40.602z M11.794,47.79c1.58,0,2.679-1.2,2.679-2.753
			c0-1.58-1.099-2.757-2.679-2.757c-1.555,0-2.681,1.177-2.681,2.757C9.113,46.59,10.239,47.79,11.794,47.79z"/>
		<path id="XMLID_419_" class="st0" d="M19.149,43.544v5.776h-1.77v-8.593h1.542l4.828,5.787v-5.787h1.77v8.593h-1.542
			L19.149,43.544z"/>
		<path id="XMLID_421_" class="st0" d="M28.984,43.544v5.776h-1.77v-8.593h1.542l4.828,5.787v-5.787h1.77v8.593h-1.542
			L28.984,43.544z"/>
		<path id="XMLID_424_" class="st0" d="M37.05,49.32v-8.593h6.799v1.553h-5.105v1.857h4.185v1.557h-4.185v2.073h5.105v1.553H37.05z"
			/>
		<path id="XMLID_433_" class="st0" d="M48.922,47.805c1.113,0,1.935-0.395,2.516-0.847l0.833,1.249
			c-0.896,0.82-2.047,1.238-3.361,1.238c-2.565,0-4.5-1.906-4.5-4.424c0-2.514,1.935-4.42,4.5-4.42c1.314,0,2.464,0.414,3.361,1.238
			l-0.833,1.249c-0.581-0.456-1.403-0.847-2.516-0.847c-1.591,0-2.679,1.227-2.679,2.78C46.243,46.578,47.331,47.805,48.922,47.805z
			"/>
		<path id="XMLID_435_" class="st0" d="M57.27,42.28v7.04H55.5v-7.04h-2.831v-1.553H60v1.553H57.27z"/>
	</g>
	<g id="XMLID_437_">
		<polygon id="XMLID_438_" class="st0" points="11.058,24.391 19.181,11.302 19.181,10.924 19.181,10.668 14.886,10.668 
			14.67,10.924 7.517,22.561 6.265,22.561 4.136,22.561 4.136,10.668 0,10.668 0,37.715 4.136,37.715 4.136,26.221 6.265,26.221 
			7.479,26.221 13.85,37.465 14.079,37.715 18.037,37.715 18.037,37.465 18.037,37.119 		"/>
		<path id="XMLID_439_" class="st1" d="M6.533,10.668h3.873l12.903,23.784l13.082-23.784h3.877L25.539,37.715H21.08L6.533,10.668z"
			/>
		<path id="XMLID_1856_" class="st0" d="M59.732,35.45L45.771,11.269c-0.255-0.441-0.728-0.714-1.239-0.714
			c-0.511,0-0.984,0.273-1.239,0.714L29.264,35.57c-0.255,0.443-0.255,0.988,0,1.431c0.255,0.441,0.728,0.715,1.239,0.715h28.06
			c0.002,0,0.006,0,0.008,0c0.79,0,1.429-0.641,1.429-1.431C60,35.973,59.9,35.684,59.732,35.45L59.732,35.45z M32.979,34.854
			l11.553-20.009l11.553,20.011H32.979V34.854z M47.774,22.297l-3.919,4.354h3.484l-6.968,6.968l2.612-5.661h-3.046l3.482-5.661
			H47.774z M47.774,22.297"/>
	</g>
</g>
<g id="XMLID_229_">
</g>
<g id="XMLID_230_">
</g>
<g id="XMLID_239_">
</g>
<g id="XMLID_243_">
</g>
<g id="XMLID_244_">
</g>
<g id="XMLID_245_">
</g>
</svg>
