<?xml version="1.0" encoding="utf-8"?>
<!-- Generator: Adobe Illustrator 19.0.0, SVG Export Plug-In . SVG Version: 6.00 Build 0)  -->
<svg version="1.1" id="Icons" xmlns="http://www.w3.org/2000/svg" xmlns:xlink="http://www.w3.org/1999/xlink" x="0px" y="0px"
	 viewBox="0 0 60 60" style="enable-background:new 0 0 60 60;" xml:space="preserve">
<style type="text/css">
	.st0{fill:#939598;}
</style>
<path id="XMLID_462_" class="st0" d="M45.575,35.044c-5.563,0-10.071,4.512-10.071,10.069c0,5.565,4.508,10.069,10.071,10.069
	c5.561,0,10.069-4.504,10.069-10.069C55.644,39.556,51.136,35.044,45.575,35.044z M45.575,53.471c-4.614,0-8.357-3.739-8.357-8.359
	c0-4.616,3.742-8.359,8.357-8.359s8.357,3.742,8.357,8.359C53.932,49.733,50.19,53.471,45.575,53.471z"/>
<path id="XMLID_474_" class="st0" d="M56.834,26.831h-4.56c-0.538,0-1.036,0.149-1.478,0.387c-0.493-3.731-1.962-7.147-4.147-9.993
	c0.486-0.143,0.954-0.363,1.337-0.743l3.223-3.227c1.24-1.233,1.24-3.227,0-4.467c-1.234-1.24-3.238-1.24-4.474,0l-3.225,3.223
	c-0.382,0.38-0.599,0.848-0.741,1.332c-2.846-2.187-6.262-3.657-9.994-4.151c0.236-0.439,0.384-0.935,0.384-1.472V3.16
	c0-1.737-1.417-3.16-3.16-3.16c-1.748,0-3.167,1.423-3.167,3.16v4.56c0,0.537,0.15,1.034,0.384,1.473
	c-3.729,0.495-7.142,1.964-9.986,4.15c-0.142-0.488-0.362-0.951-0.744-1.332L13.26,8.788c-1.236-1.24-3.236-1.24-4.476,0
	c-1.231,1.233-1.231,3.234,0,4.467l3.225,3.227c0.385,0.381,0.854,0.599,1.341,0.744c-2.185,2.846-3.653,6.261-4.145,9.992
	c-0.444-0.236-0.943-0.388-1.48-0.388h-4.56c-1.748,0-3.163,1.415-3.163,3.163c0,1.744,1.415,3.16,3.163,3.16h4.56
	c0.537,0,1.037-0.146,1.481-0.387c0.495,3.732,1.965,7.147,4.153,9.993c-0.49,0.142-0.962,0.36-1.351,0.747l-3.225,3.219
	c-1.231,1.244-1.231,3.249,0,4.478c0.614,0.62,1.43,0.926,2.239,0.926c0.809,0,1.625-0.306,2.237-0.926l3.227-3.219
	c0.387-0.391,0.605-0.86,0.747-1.352c2.846,2.186,6.26,3.655,9.991,4.149c-0.241,0.445-0.393,0.946-0.393,1.487v4.556
	c0,1.748,1.419,3.175,3.167,3.175c1.742,0,3.16-1.427,3.16-3.175v-4.556c0-0.538-0.15-1.04-0.393-1.486
	c0.537-0.071,1.065-0.167,1.588-0.278c-0.637-1.353-1.035-2.836-1.144-4.403c-1.039,0.206-2.112,0.318-3.211,0.318
	c-9.076,0-16.433-7.357-16.433-16.434c0-9.076,7.358-16.434,16.433-16.434c9.077,0,16.435,7.358,16.435,16.434
	c0,0.991-0.103,1.957-0.271,2.9c1.57,0.077,3.063,0.439,4.426,1.047c0.074-0.386,0.152-0.771,0.204-1.164
	c0.442,0.234,0.941,0.384,1.48,0.384h4.56c1.744,0,3.165-1.415,3.165-3.16C59.999,28.254,58.578,26.831,56.834,26.831z"/>
<g id="XMLID_120_">
</g>
<g id="XMLID_121_">
</g>
<g id="XMLID_122_">
</g>
<g id="XMLID_123_">
</g>
<g id="XMLID_124_">
</g>
<g id="XMLID_126_">
</g>
</svg>
