<?xml version="1.0" encoding="utf-8"?>
<!-- Generator: Adobe Illustrator 19.0.0, SVG Export Plug-In . SVG Version: 6.00 Build 0)  -->
<svg version="1.1" id="Icons" xmlns="http://www.w3.org/2000/svg" xmlns:xlink="http://www.w3.org/1999/xlink" x="0px" y="0px"
	 viewBox="0 0 60 60" style="enable-background:new 0 0 60 60;" xml:space="preserve">
<style type="text/css">
	.st0{fill:#CCCCCC;}
	.st1{fill:#939598;}
</style>
<g id="XMLID_441_">
	<polygon id="XMLID_442_" class="st0" points="29.958,22.364 18.508,18.626 22.364,29.957 18.508,41.293 29.958,37.553 
		41.29,41.407 37.552,29.959 41.29,18.507 	"/>
	<path id="XMLID_443_" class="st1" d="M35.369,24.628l-5.452-10.737L24.63,24.628l-10.74,5.287l10.739,5.456l5.288,10.737
		l5.451-10.737l10.741-5.456L35.369,24.628z M30,32.293c-1.266,0-2.291-1.029-2.291-2.292c0-1.267,1.025-2.292,2.291-2.292
		c1.265,0,2.291,1.025,2.291,2.292C32.291,31.264,31.265,32.293,30,32.293z"/>
</g>
<path id="XMLID_446_" class="st1" d="M59.998,29.937C59.97,16.502,51.114,5.141,38.921,1.349c-0.094-0.029-0.19-0.052-0.284-0.081
	c-0.849-0.255-1.712-0.479-2.59-0.658C34.093,0.21,32.071,0,30,0C13.429,0,0,13.429,0,30c0,0,0,0,0,0.001v0.001
	c0,0.268,0.013,0.533,0.02,0.799c0.006,0.248,0.006,0.498,0.019,0.744C0.842,47.395,13.95,60,30,60c16.57,0,30-13.431,30-29.999
	v-0.001c0,0,0,0,0,0C60,29.979,59.998,29.958,59.998,29.937z M47.872,45.217l-5.843-5.843l0.433,1.327l0.931,2.852l-2.84-0.966
	l-0.943-0.321l5.605,5.605c-4.099,3.493-9.41,5.606-15.217,5.606c-12.967,0-23.478-10.511-23.478-23.477
	c0-5.808,2.113-11.12,5.606-15.219l5.597,5.596l-0.319-0.938l-0.966-2.84l2.852,0.931l1.322,0.432l-5.835-5.831
	c4.099-3.495,9.412-5.61,15.221-5.61c12.967,0,23.478,10.511,23.478,23.48C53.478,35.808,51.365,41.119,47.872,45.217z"/>
<g id="XMLID_147_">
</g>
<g id="XMLID_148_">
</g>
<g id="XMLID_152_">
</g>
<g id="XMLID_156_">
</g>
<g id="XMLID_157_">
</g>
<g id="XMLID_158_">
</g>
</svg>
