<?xml version="1.0" encoding="utf-8"?>
<!-- Generator: Adobe Illustrator 19.0.0, SVG Export Plug-In . SVG Version: 6.00 Build 0)  -->
<svg version="1.1" id="Icons" xmlns="http://www.w3.org/2000/svg" xmlns:xlink="http://www.w3.org/1999/xlink" x="0px" y="0px"
	 viewBox="0 0 60 60" style="enable-background:new 0 0 60 60;" xml:space="preserve">
<style type="text/css">
	.st0{fill:#CCCCCC;}
	.st1{fill:#939598;}
</style>
<g id="XMLID_222_">
	<g id="XMLID_249_">
		<path id="XMLID_250_" class="st0" d="M18.871,42.06l16.77-6.753V15.291l-16.77,6.746V42.06z M20.929,28.139v-4.711l12.654-5.091
			v14.947L20.929,28.139z M20.929,39.013V29.99l11.152,4.535L20.929,39.013z"/>
		<path id="XMLID_254_" class="st0" d="M0,35.307l16.77,6.753V22.037L0,15.291V35.307z M14.712,29.987v9.025L4.001,34.702
			L14.712,29.987z M14.712,23.428v4.688l-12.654,5.57V18.336L14.712,23.428z"/>
		<path id="XMLID_258_" class="st0" d="M17.794,6.554L0.693,13.435l16.9,6.862l17.779-6.882L17.794,6.554z M29.693,13.407
			l-11.384,4.406V8.964L29.693,13.407z M6.185,13.444l10.412-4.189v8.418L6.185,13.444z"/>
	</g>
	<g id="XMLID_781_">
		<path id="XMLID_902_" class="st1" d="M43.23,52.977L60,46.224V26.208l-16.77,6.746V52.977z M45.288,39.055v-4.711l12.654-5.091
			V44.2L45.288,39.055z M45.288,49.929v-9.022l11.152,4.535L45.288,49.929z"/>
		<path id="XMLID_906_" class="st1" d="M24.359,46.224l16.77,6.753V32.954l-16.77-6.746V46.224z M39.071,40.904v9.025L28.36,45.619
			L39.071,40.904z M39.071,34.344v4.688l-12.654,5.57V29.253L39.071,34.344z"/>
		<path id="XMLID_910_" class="st1" d="M42.153,17.47l-17.101,6.882l16.9,6.862l17.779-6.882L42.153,17.47z M54.052,24.324
			L42.668,28.73v-8.849L54.052,24.324z M30.543,24.36l10.412-4.189v8.418L30.543,24.36z"/>
	</g>
	<rect id="XMLID_848_" x="33.583" y="19.111" class="st0" width="2.059" height="5.269"/>
	<polygon id="XMLID_862_" class="st0" points="28.902,38.021 22.875,40.448 22.875,38.229 28.902,35.804 	"/>
	<polygon id="XMLID_262_" class="st0" points="0.693,16.986 15.875,22.898 15.875,40.448 0.693,34 	"/>
	<polygon id="XMLID_263_" class="st1" points="44.125,33.685 59,27.898 59,46.01 44.125,51.648 	"/>
	<polygon id="XMLID_264_" class="st1" points="28.791,2.136 20.645,5.412 60,20.38 60,14.006 	"/>
	<polygon id="XMLID_265_" class="st0" points="0,38.92 0,45.294 30.859,57.864 38.753,54.706 	"/>
</g>
<g id="XMLID_147_">
</g>
<g id="XMLID_148_">
</g>
<g id="XMLID_152_">
</g>
<g id="XMLID_156_">
</g>
<g id="XMLID_157_">
</g>
<g id="XMLID_158_">
</g>
</svg>
