<?xml version="1.0" encoding="utf-8"?>
<!-- Generator: Adobe Illustrator 19.0.0, SVG Export Plug-In . SVG Version: 6.00 Build 0)  -->
<svg version="1.1" id="Icons" xmlns="http://www.w3.org/2000/svg" xmlns:xlink="http://www.w3.org/1999/xlink" x="0px" y="0px"
	 viewBox="0 0 60 60" style="enable-background:new 0 0 60 60;" xml:space="preserve">
<style type="text/css">
	.st0{fill:#939598;}
</style>
<path id="XMLID_98_" class="st0" d="M30-0.001c-16.568,0-30,13.432-30,30.001c0,6.75,2.23,12.978,5.993,17.991
	c1.338,1.782,2.873,3.405,4.567,4.848c5.237,4.462,12.022,7.16,19.44,7.16c7.419,0,14.204-2.698,19.44-7.159
	c1.694-1.443,3.229-3.066,4.567-4.848C57.769,42.98,60,36.751,60,30.001C60,13.431,46.569-0.001,30-0.001z M30,53.478
	c-1.283,0-2.541-0.107-3.769-0.305l0.299-4.385h6.938l0.299,4.386C32.541,53.371,31.283,53.478,30,53.478z M31.953,28.105
	l0.379,5.171h-4.665l0.379-5.171H31.953z M28.425,22.934l0.379-3.682h2.391l0.379,3.682H28.425z M32.711,38.446l0.379,5.171h-6.181
	l0.379-5.171H32.711z M47.627,45.499c-0.625,0.71-1.29,1.383-1.995,2.013L35.198,17.34H24.801L14.367,47.512
	c-0.705-0.63-1.371-1.303-1.995-2.013l9.953-28.159h-1.895L8.732,39.947c-1.415-3.021-2.21-6.39-2.21-9.946
	c0-12.968,10.512-23.48,23.478-23.48c12.967,0,23.478,10.511,23.478,23.48c0,3.556-0.795,6.926-2.21,9.947L39.57,17.34h-1.896
	L47.627,45.499z"/>
<g id="XMLID_1_">
</g>
<g id="XMLID_2_">
</g>
<g id="XMLID_10_">
</g>
<g id="XMLID_12_">
</g>
<g id="XMLID_13_">
</g>
<g id="XMLID_14_">
</g>
</svg>
