<?xml version="1.0" encoding="utf-8"?>
<!-- Generator: Adobe Illustrator 19.0.0, SVG Export Plug-In . SVG Version: 6.00 Build 0)  -->
<svg version="1.1" id="Icons" xmlns="http://www.w3.org/2000/svg" xmlns:xlink="http://www.w3.org/1999/xlink" x="0px" y="0px"
	 viewBox="0 0 60 60" style="enable-background:new 0 0 60 60;" xml:space="preserve">
<style type="text/css">
	.st0{fill:#939598;}
	.st1{fill:#FFFFFF;}
</style>
<polygon id="XMLID_409_" class="st0" points="48.37,46.753 41.117,50.286 18.5,50.286 11.125,46.753 11.125,14.098 18.375,9.953 
	42.595,9.953 48.37,14.098 "/>
<g>
	<path id="XMLID_399_" class="st0" d="M39.628,14.098H20.373c-3.025,0-5.478,2.452-5.478,5.479v20.847
		c0,3.026,2.452,5.479,5.478,5.479h19.255c3.026,0,5.478-2.453,5.478-5.479V19.576C45.106,16.55,42.653,14.098,39.628,14.098
		L39.628,14.098z M39.628,14.098"/>
	<path id="XMLID_402_" class="st0" d="M56.716,32.303c1.272,0,2.303-1.031,2.303-2.303c0-1.272-1.031-2.303-2.303-2.303h-5.257
		v-5.204h5.257c1.272,0,2.303-1.031,2.303-2.303c0-1.272-1.031-2.303-2.303-2.303h-5.304c-0.45-5.092-4.324-9.212-9.299-10.041
		V2.303C42.112,1.031,41.081,0,39.809,0c-1.272,0-2.303,1.031-2.303,2.303v5.389h-5.203V2.303C32.303,1.031,31.272,0,30,0
		c-1.272,0-2.303,1.031-2.303,2.303v5.389h-5.203V2.303C22.494,1.031,21.463,0,20.191,0c-1.272,0-2.303,1.031-2.303,2.303v5.543
		c-4.976,0.829-8.849,4.949-9.3,10.041H3.284c-1.272,0-2.303,1.031-2.303,2.303c0,1.272,1.031,2.303,2.303,2.303h5.257v5.204H3.284
		c-1.272,0-2.303,1.031-2.303,2.303c0,1.272,1.031,2.303,2.303,2.303h5.257v5.203H3.284c-1.272,0-2.303,1.031-2.303,2.303
		c0,1.272,1.031,2.303,2.303,2.303h5.304c0.45,5.091,4.324,9.212,9.299,10.04v5.544c0,1.272,1.031,2.303,2.303,2.303
		c1.272,0,2.303-1.031,2.303-2.303v-5.389h5.203v5.389C27.697,58.969,28.728,60,30,60c1.272,0,2.303-1.031,2.303-2.303v-5.389h5.203
		v5.389c0,1.272,1.031,2.303,2.303,2.303c1.272,0,2.303-1.031,2.303-2.303v-5.543c4.975-0.828,8.849-4.949,9.299-10.041h5.304
		c1.272,0,2.303-1.031,2.303-2.303c0-1.272-1.031-2.303-2.303-2.303h-5.257v-5.203H56.716z M47.78,41.119
		c0,4.141-3.369,7.51-7.51,7.51H19.73c-4.141,0-7.51-3.369-7.51-7.51V18.881c0-4.141,3.369-7.51,7.51-7.51h20.539
		c4.141,0,7.51,3.369,7.51,7.51V41.119z M47.78,41.119"/>
</g>
<g id="XMLID_643_">
	<g id="XMLID_644_">
		<path id="XMLID_55_" class="st1" d="M26.009,11.866c-0.808,0-1.563,0.342-2.094,0.932h-0.007c-0.947,0-1.788,0.469-2.3,1.19
			c0.53,0.535,1.212,1.276,1.653,1.941c0.516-0.142,1.286-0.254,2.142-0.04c0.386,0.097,0.62,0.488,0.524,0.874
			c-0.097,0.386-0.488,0.621-0.874,0.524c-0.513-0.129-0.982-0.075-1.311,0.003c-0.011,0.49-0.216,0.934-0.417,1.367
			c-0.278,0.597-0.592,1.273-0.572,2.328c0.007,0.397-0.309,0.726-0.707,0.734c-0.005,0-0.009,0-0.014,0
			c-0.391,0-0.712-0.314-0.72-0.707c-0.026-1.387,0.397-2.298,0.707-2.962c0.253-0.545,0.334-0.754,0.249-0.96
			c-0.216-0.519-1.041-1.444-1.763-2.17c-1.075,0.383-1.853,1.399-1.878,2.597c-1.537,0.022-2.78,1.279-2.78,2.821
			c0,0.402,0.084,0.791,0.243,1.147c-0.981,0.442-1.666,1.429-1.666,2.573c0,0.19,0.019,0.376,0.056,0.558
			c0.741,0.289,1.959,0.703,2.69,0.703c0.623,0,1.138-0.902,1.269-1.218c0.152-0.367,0.572-0.542,0.939-0.392
			c0.367,0.15,0.544,0.568,0.395,0.935c-0.022,0.054-0.362,0.875-1.04,1.478c0.012,0.011,0.025,0.021,0.036,0.032
			c0.479,0.445,0.919,1.229,0.967,1.317c0.193,0.348,0.066,0.787-0.282,0.979c-0.11,0.062-0.229,0.09-0.347,0.09
			c-0.254,0-0.5-0.134-0.631-0.373c-0.141-0.255-0.453-0.74-0.687-0.958c-0.188-0.174-0.534-0.352-0.767-0.453
			c-0.854-0.037-1.938-0.379-2.688-0.654c-0.173,0.368-0.268,0.776-0.268,1.197c0,0.582,0.182,1.144,0.508,1.611
			c-0.519,0.521-0.826,1.235-0.826,1.989c0,0.515,0.142,1.007,0.395,1.434c0.731-0.02,2.333-0.102,3.466-0.417
			c0.383-0.106,0.781,0.118,0.887,0.501c0.106,0.383-0.118,0.781-0.501,0.887c-1.319,0.366-3.09,0.451-3.861,0.47
			c-0.045,0.201-0.068,0.407-0.068,0.617c0,1.029,0.568,1.952,1.421,2.444c-0.145,0.343-0.221,0.714-0.221,1.096
			c0,1.215,0.773,2.253,1.851,2.649c-0.033,0.175-0.051,0.354-0.051,0.532c0,1.221,0.78,2.261,1.867,2.653
			c0.806-0.702,1.634-1.555,1.996-2.207c0.009-0.019,0.015-0.04,0.025-0.06c0.006-0.012,0.02-0.035,0.039-0.064
			c0.075-0.156,0.12-0.299,0.124-0.42c0.047-1.208-1.242-2.506-1.255-2.519c-0.284-0.278-0.288-0.734-0.01-1.018
			c0.279-0.284,0.734-0.288,1.019-0.011c0.061,0.061,1.292,1.283,1.611,2.793c0.265-0.109,0.567-0.199,0.916-0.257
			c1.768-0.295,3.13,0.938,3.187,0.991c0.293,0.269,0.312,0.724,0.042,1.017c-0.27,0.293-0.725,0.311-1.018,0.042
			c-0.005-0.006-0.91-0.807-1.974-0.63c-1.045,0.174-1.412,0.759-1.427,0.784c-0.013,0.025-0.029,0.048-0.045,0.07
			c-0.521,0.933-1.463,1.864-2.218,2.522c0.401,1.07,1.432,1.836,2.641,1.836c0.295,0,0.586-0.047,0.863-0.136
			c0.449,0.97,1.431,1.637,2.557,1.637c1.555,0,2.821-1.266,2.821-2.821V31.989c-0.528,0.29-1.239,0.621-1.909,0.747
			c-0.268,0.577-0.656,1.558-0.656,2.215c0,0.397-0.323,0.72-0.721,0.72c-0.397,0-0.72-0.323-0.72-0.72
			c0-0.805,0.332-1.759,0.613-2.422c-0.844-0.405-1.425-1.016-1.453-1.046c-0.272-0.291-0.257-0.746,0.033-1.018
			c0.29-0.273,0.745-0.257,1.018,0.033c0.004,0.004,0.572,0.597,1.299,0.846c0.017,0.006,0.036,0.009,0.058,0.011
			c0.038-0.003,0.076-0.004,0.114-0.001c0.445-0.04,1.41-0.456,2.202-0.969c0.039-0.025,0.08-0.046,0.121-0.062v-5.293
			c-0.92-0.131-2.265-0.52-2.993-1.665c-0.214-0.336-0.114-0.781,0.221-0.994c0.335-0.214,0.781-0.115,0.993,0.221
			c0.372,0.584,1.131,0.861,1.779,0.981v-8.482c0-0.047-0.005-0.092-0.013-0.137c0.009-0.09,0.013-0.179,0.013-0.268
			C28.83,13.131,27.565,11.866,26.009,11.866z"/>
	</g>
	<g id="XMLID_645_">
		<path id="XMLID_53_" class="st1" d="M42.005,33.304c-0.383-0.106-0.607-0.503-0.501-0.886c0.106-0.383,0.504-0.608,0.887-0.501
			c1.133,0.315,2.735,0.396,3.466,0.417c0.252-0.427,0.395-0.92,0.395-1.435c0-0.754-0.308-1.468-0.826-1.989
			c0.326-0.468,0.508-1.029,0.508-1.611c0-0.422-0.095-0.829-0.268-1.197c-0.751,0.276-1.835,0.617-2.688,0.655
			c-0.234,0.099-0.579,0.278-0.767,0.453c-0.265,0.245-0.593,0.787-0.687,0.957c-0.132,0.238-0.378,0.373-0.631,0.373
			c-0.118,0-0.237-0.029-0.347-0.09c-0.348-0.192-0.475-0.63-0.283-0.979c0.049-0.088,0.489-0.873,0.968-1.318
			c0.011-0.011,0.024-0.021,0.036-0.032c-0.678-0.602-1.019-1.422-1.041-1.477c-0.149-0.368,0.028-0.789,0.397-0.938
			c0.368-0.149,0.789,0.028,0.938,0.397c0.13,0.314,0.643,1.216,1.268,1.216c0.732,0,1.949-0.413,2.69-0.703
			c0.036-0.182,0.055-0.368,0.055-0.557c0-1.145-0.684-2.131-1.665-2.573c0.159-0.357,0.243-0.747,0.243-1.148
			c0-1.542-1.243-2.798-2.78-2.82c-0.025-1.199-0.802-2.214-1.878-2.597c-0.723,0.726-1.547,1.651-1.763,2.169
			c-0.086,0.206-0.004,0.415,0.249,0.96c0.309,0.665,0.733,1.575,0.706,2.963c-0.007,0.393-0.328,0.706-0.719,0.706
			c-0.005,0-0.01,0-0.015,0c-0.397-0.008-0.713-0.336-0.706-0.734c0.02-1.054-0.295-1.731-0.572-2.328
			c-0.201-0.432-0.406-0.875-0.417-1.365c-0.332-0.079-0.801-0.133-1.311-0.005c-0.386,0.097-0.777-0.138-0.874-0.524
			c-0.096-0.386,0.138-0.777,0.524-0.874c0.855-0.214,1.625-0.101,2.141,0.04c0.44-0.665,1.123-1.406,1.653-1.941
			c-0.511-0.722-1.352-1.19-2.3-1.19h-0.006c-0.531-0.59-1.286-0.932-2.094-0.932c-1.555,0-2.821,1.265-2.82,2.82
			c0,0.089,0.005,0.178,0.013,0.268c-0.009,0.045-0.013,0.091-0.013,0.137v8.482c0.648-0.12,1.407-0.397,1.777-0.982
			c0.214-0.335,0.659-0.434,0.994-0.221c0.336,0.214,0.434,0.658,0.222,0.994c-0.73,1.145-2.073,1.534-2.993,1.665v5.293
			c0.041,0.017,0.082,0.037,0.12,0.063c0.795,0.512,1.759,0.928,2.203,0.969c0.038-0.003,0.076-0.002,0.113,0.001
			c0.022-0.002,0.042-0.005,0.059-0.011c0.726-0.251,1.294-0.841,1.299-0.847c0.273-0.29,0.728-0.304,1.018-0.033
			c0.29,0.273,0.305,0.728,0.033,1.018c-0.028,0.03-0.609,0.641-1.453,1.046c0.28,0.663,0.613,1.618,0.613,2.422
			c0,0.398-0.323,0.72-0.721,0.72c-0.397,0-0.72-0.322-0.72-0.72c0-0.66-0.387-1.639-0.656-2.214
			c-0.67-0.126-1.381-0.457-1.909-0.748v13.326c0,1.555,1.265,2.82,2.82,2.82c1.127,0,2.109-0.667,2.558-1.636
			c0.277,0.09,0.569,0.136,0.863,0.136c1.209,0,2.24-0.766,2.641-1.836c-0.76-0.661-1.706-1.598-2.226-2.536
			c-0.013-0.018-0.027-0.037-0.039-0.057c-0.026-0.043-0.398-0.611-1.425-0.782c-1.064-0.178-1.969,0.624-1.978,0.632
			c-0.294,0.266-0.749,0.244-1.015-0.048c-0.267-0.293-0.249-0.744,0.043-1.014c0.057-0.053,1.42-1.285,3.187-0.991
			c0.349,0.058,0.651,0.149,0.916,0.258c0.32-1.509,1.551-2.732,1.612-2.792c0.284-0.279,0.739-0.274,1.018,0.01
			c0.279,0.285,0.274,0.74-0.01,1.019c-0.361,0.358-1.294,1.508-1.255,2.518c0.005,0.122,0.049,0.264,0.123,0.419
			c0.018,0.029,0.033,0.054,0.039,0.066c0.011,0.02,0.018,0.042,0.027,0.064c0.363,0.651,1.19,1.501,1.995,2.202
			c1.087-0.391,1.867-1.432,1.867-2.653c0-0.179-0.018-0.357-0.051-0.532c1.079-0.396,1.851-1.434,1.851-2.649
			c0-0.382-0.077-0.753-0.222-1.096c0.854-0.492,1.422-1.415,1.422-2.445c0-0.21-0.023-0.417-0.068-0.616
			C45.094,33.754,43.323,33.67,42.005,33.304z"/>
	</g>
</g>
<g id="XMLID_22_">
</g>
<g id="XMLID_48_">
</g>
<g id="XMLID_49_">
</g>
<g id="XMLID_50_">
</g>
<g id="XMLID_51_">
</g>
<g id="XMLID_52_">
</g>
</svg>
