<?xml version="1.0" encoding="utf-8"?>
<!-- Generator: Adobe Illustrator 19.0.0, SVG Export Plug-In . SVG Version: 6.00 Build 0)  -->
<svg version="1.1" id="Icons" xmlns="http://www.w3.org/2000/svg" xmlns:xlink="http://www.w3.org/1999/xlink" x="0px" y="0px"
	 viewBox="0 0 60 60" style="enable-background:new 0 0 60 60;" xml:space="preserve">
<style type="text/css">
	.st0{fill:#939598;}
</style>
<g id="XMLID_268_">
</g>
<g id="XMLID_271_">
</g>
<g id="XMLID_273_">
</g>
<g id="XMLID_274_">
</g>
<g id="XMLID_275_">
</g>
<g id="XMLID_178_">
	<path id="XMLID_2_" class="st0" d="M0,20.1L1.4,5.9h22.2l-0.4,4.4H5.3l-0.6,5c4.2-0.4,7.7-0.6,10.4-0.6c8.5,0,12.7,2.9,12.7,8.7
		c0,3.1-1.1,5.2-3.4,6.5c-2.3,1.3-5.8,2-10.7,2c-5.3,0-9.4-0.3-12.4-0.9l-1.3-5c4.9,0.9,9.5,1.3,13.5,1.3c3.1,0,5.4-0.3,6.7-0.9
		c1.4-0.6,2-1.7,2-3.3c0-1.5-0.7-2.5-2.1-3.1c-1.3-0.6-3.4-0.8-6.3-0.8C10,19.1,5.3,19.4,0,20.1z"/>
</g>
<g id="XMLID_181_">
	<path id="XMLID_1_" class="st0" d="M9.8,57.6L1,35.9h5.6L12.2,51l6.1-15.2H22L28.1,51l5.6-15.2h4.8l-8.7,21.7h-3.6l-6.3-15.4
		l-6.4,15.4H9.8z"/>
</g>
<g id="XMLID_586_">
	<rect id="XMLID_587_" x="36.3" y="8.4" class="st0" width="10.6" height="9.7"/>
	<path id="XMLID_590_" class="st0" d="M58.3,22.3H50l9.7-16.9c0.7-1.3-0.1-3-1.4-3H33.2c-0.8,0-1.4,0.6-1.6,1.4l-2.4,25.5
		c-0.3,1.2,0.5,2.5,1.6,2.5h15.3l-9.8,24.6c-0.2,1.1,1.1,1.7,1.6,0.7l21.9-31.9C60.4,23.9,59.6,22.3,58.3,22.3z M46.7,20.7H36.6
		c-1.3,0-2.2-0.2-2.7-0.7c-0.5-0.5-0.7-1.4-0.7-2.8V9.4c0-1.4,0.2-2.3,0.7-2.8c0.5-0.5,1.4-0.7,2.7-0.7h10.1c1.3,0,2.2,0.2,2.7,0.7
		c0.5,0.5,0.7,1.4,0.7,2.8v7.8c0,1.4-0.2,2.3-0.7,2.8C48.9,20.5,48,20.7,46.7,20.7z"/>
</g>
</svg>
