<?xml version="1.0" encoding="utf-8"?>
<!-- Generator: Adobe Illustrator 18.1.1, SVG Export Plug-In . SVG Version: 6.00 Build 0)  -->
<svg version="1.1" id="Cart" xmlns="http://www.w3.org/2000/svg" xmlns:xlink="http://www.w3.org/1999/xlink" x="0px" y="0px"
	 viewBox="0 0 60 60" style="enable-background:new 0 0 60 60;" xml:space="preserve">
<style type="text/css">
	.st0{fill:#939598;}
</style>
<path class="st0" d="M10,53.3c0,3.7,3,6.7,6.7,6.7c3.7,0,6.7-3,6.7-6.7c0-3.7-3-6.7-6.7-6.7C13,46.7,10,49.7,10,53.3z M43.3,53.3
	c0,3.7,3,6.7,6.7,6.7c3.7,0,6.7-3,6.7-6.7c0-3.7-3-6.7-6.7-6.7C46.3,46.7,43.3,49.7,43.3,53.3z M21.8,37.6L58.7,27
	c0.7-0.2,1.3-1,1.3-1.7V7H13V1.3C13,0.6,12.4,0,11.7,0H1.3C0.6,0,0,0.6,0,1.3v5.3h6.5L13,36.9l0.6,3.1v5c0,0.7,0.6,1.3,1.3,1.3h1.7
	H50h8.7c0.7,0,1.3-0.6,1.3-1.3v-5H22.5C18.7,40,18.6,38.5,21.8,37.6z"/>
</svg>
