<?xml version="1.0" encoding="utf-8"?>
<!-- Generator: Adobe Illustrator 18.1.1, SVG Export Plug-In . SVG Version: 6.00 Build 0)  -->
<svg version="1.1" id="Map" xmlns="http://www.w3.org/2000/svg" xmlns:xlink="http://www.w3.org/1999/xlink" x="0px" y="0px"
	 viewBox="0 0 60 60" style="enable-background:new 0 0 60 60;" xml:space="preserve">
<style type="text/css">
	.st0{fill:#FFFFFF;}
</style>
<g>
	<path class="st0" d="M59,15.1L45,6.3c-0.6-0.4-1.4-0.4-2,0l-13,8.1L17,6.3c-0.6-0.4-1.4-0.4-2,0L1,15.1c-0.6,0.4-1,1-1,1.8V52
		c0,0.7,0.4,1.4,1,1.8c0.6,0.4,1.4,0.4,2,0l13-8.1l13,8.1c0.6,0.4,1.4,0.4,2,0l13-8.1l13,8.1c0.3,0.2,0.7,0.3,1,0.3
		c0.3,0,0.7-0.1,1-0.3c0.6-0.4,1-1,1-1.8V16.8C60,16.1,59.6,15.4,59,15.1z M14,42L3.9,48.3V18L14,11.7V42z M28,48.3L17.9,42V11.7
		L28,18V48.3z M42.1,42L32,48.3V18l10.1-6.3V42z M56.1,48.3L46,42V11.7L56.1,18V48.3z"/>
</g>
</svg>
