<?xml version="1.0" encoding="utf-8"?>
<!-- Generator: Adobe Illustrator 19.0.0, SVG Export Plug-In . SVG Version: 6.00 Build 0)  -->
<svg version="1.1" id="Icons" xmlns="http://www.w3.org/2000/svg" xmlns:xlink="http://www.w3.org/1999/xlink" x="0px" y="0px"
	 viewBox="0 0 60 60" style="enable-background:new 0 0 60 60;" xml:space="preserve">
<style type="text/css">
	.st0{fill:#CCCCCC;}
	.st1{fill:#939598;}
	.st2{fill:#FFFFFF;}
</style>
<g id="XMLID_286_">
	<path id="XMLID_288_" class="st0" d="M48.263,11.756c-0.481-0.481-0.981-0.932-1.489-1.367L13.756,43.293
		C9.158,37.68,7.923,30.246,10.019,23.64l-3.742-3.742c-3.996,9.399-2.169,20.685,5.496,28.349c0.484,0.484,0.987,0.937,1.498,1.375
		l33.01-32.911c4.593,5.605,5.83,13.025,3.749,19.624l3.744,3.744C57.753,30.685,55.921,19.414,48.263,11.756z"/>
	<polygon id="XMLID_289_" class="st1" points="46.774,10.389 13.756,43.293 13.271,49.622 46.281,16.711 	"/>
	<path id="XMLID_304_" class="st0" d="M26.292,23.304l-9.563-9.563c5.632-4.614,13.098-5.843,19.721-3.718l3.735-3.735
		c-9.411-4.03-20.729-2.212-28.411,5.47c-0.496,0.496-0.961,1.012-1.408,1.537l12.968,12.968L26.292,23.304z"/>
	<polygon id="XMLID_290_" class="st1" points="26.292,23.304 16.729,13.74 10.365,13.294 23.333,26.262 	"/>
	<path id="XMLID_305_" class="st0" d="M46.282,43.294l-9.564-9.564L33.747,36.7l9.564,9.564c-5.63,4.612-13.091,5.842-19.712,3.721
		l-3.736,3.736c9.41,4.025,20.722,2.205,28.402-5.474c0.503-0.503,0.974-1.026,1.427-1.559l-3.403-3.403
		C46.286,43.288,46.284,43.291,46.282,43.294z"/>
	<polygon id="XMLID_291_" class="st1" points="46.282,43.294 36.718,33.729 33.747,36.7 43.311,46.265 49.691,46.689 46.288,43.285 
			"/>
	<path id="XMLID_298_" class="st0" d="M59.992,36.82c-0.042-0.288-0.252-0.523-0.534-0.6l-12.902-3.458
		c-0.282-0.075-0.582,0.024-0.763,0.253c-0.181,0.228-0.208,0.543-0.07,0.8l4.619,8.57c0.034,0.063,0.077,0.12,0.127,0.17
		c0.09,0.09,0.203,0.156,0.328,0.189c0.194,0.052,0.402,0.021,0.573-0.084l8.284-5.111C59.901,37.395,60.035,37.109,59.992,36.82z"
		/>
	<path id="XMLID_293_" class="st0" d="M36.891,0.103c-0.288,0.042-0.523,0.252-0.6,0.534l-3.458,12.902
		c-0.075,0.282,0.024,0.582,0.253,0.763c0.228,0.181,0.543,0.208,0.8,0.07l8.57-4.619c0.063-0.034,0.12-0.077,0.17-0.127
		c0.09-0.09,0.156-0.203,0.189-0.328c0.052-0.194,0.021-0.402-0.084-0.573L37.62,0.442C37.467,0.193,37.18,0.06,36.891,0.103z"/>
	<path id="XMLID_292_" class="st0" d="M0.008,23.106c0.042,0.288,0.252,0.523,0.534,0.6l12.902,3.458
		c0.282,0.075,0.582-0.024,0.763-0.253c0.181-0.228,0.208-0.543,0.07-0.8l-4.619-8.57c-0.034-0.063-0.077-0.12-0.127-0.17
		c-0.09-0.09-0.203-0.156-0.328-0.189c-0.194-0.052-0.402-0.021-0.573,0.084l-8.284,5.111C0.099,22.531-0.035,22.818,0.008,23.106z"
		/>
	<path id="XMLID_294_" class="st0" d="M23.165,59.897c0.288-0.042,0.523-0.252,0.6-0.534l3.458-12.902
		c0.075-0.282-0.024-0.582-0.253-0.763c-0.228-0.181-0.543-0.208-0.8-0.07l-8.57,4.619c-0.063,0.034-0.12,0.077-0.17,0.127
		c-0.09,0.09-0.156,0.203-0.189,0.328c-0.052,0.194-0.021,0.402,0.084,0.573l5.111,8.284C22.589,59.807,22.876,59.94,23.165,59.897z
		"/>
</g>
<polygon id="XMLID_295_" class="st1" points="41.774,12.389 18.756,35.293 18.271,47.622 41.281,24.711 "/>
<g id="XMLID_296_">
	<path id="XMLID_297_" class="st2" d="M23.291,39.433l-2.652,2.622L20.6,36.792l2.652-2.624l0.008,1.053l-2.122,2.099l0.024,3.156
		l2.122-2.097L23.291,39.433z"/>
	<path id="XMLID_300_" class="st2" d="M26.542,30.914l0.039,5.263l-0.53,0.527l-0.016-2.108l-1.591,1.573l0.016,2.106L23.93,38.8
		l-0.039-5.261l0.53-0.526l0.015,2.107l1.591-1.575l-0.016-2.105L26.542,30.914z"/>
	<path id="XMLID_302_" class="st2" d="M29.326,31.343l-1.591,1.571l0.016,2.107l-0.53,0.524l-0.039-5.263l2.652-2.624l0.039,5.265
		l-0.53,0.525L29.326,31.343z M29.318,30.291l-0.007-1.054l-1.591,1.575l0.007,1.052L29.318,30.291z"/>
	<path id="XMLID_307_" class="st2" d="M31.553,27.019l0.007,1.052l-0.529,0.525l0.023,3.158l-0.531,0.526l-0.039-5.265l0.53-0.524
		l0.008,1.055L31.553,27.019z M32.091,27.548l0.007,1.054l-0.53,0.523l-0.008-1.053L32.091,27.548z M33.136,24.393l0.039,5.263
		l-0.53,0.524l-0.008-1.053l-0.53,0.524l-0.008-1.051l0.531-0.526l-0.024-3.158L33.136,24.393z"/>
	<path id="XMLID_311_" class="st2" d="M34.341,27.443l1.591-1.573l-0.008-1.053l-1.061,1.048l-0.008-1.053l1.592-1.574l0.023,3.158
		l-2.652,2.624l-0.039-5.263l2.652-2.622l0.008,1.053l-2.121,2.098L34.341,27.443z"/>
	<path id="XMLID_332_" class="st2" d="M37.625,21.014l0.008,1.051l2.122-2.097l0.008,1.053l-2.121,2.098l0.007,1.054l2.122-2.099
		l0.008,1.053l-2.652,2.624l-0.039-5.265l2.652-2.622l0.008,1.053L37.625,21.014z"/>
</g>
<g id="XMLID_128_">
</g>
<g id="XMLID_129_">
</g>
<g id="XMLID_130_">
</g>
<g id="XMLID_131_">
</g>
<g id="XMLID_134_">
</g>
<g id="XMLID_135_">
</g>
</svg>
