<?xml version="1.0" encoding="utf-8"?>
<!-- Generator: Adobe Illustrator 19.0.0, SVG Export Plug-In . SVG Version: 6.00 Build 0)  -->
<svg version="1.1" id="Icons" xmlns="http://www.w3.org/2000/svg" xmlns:xlink="http://www.w3.org/1999/xlink" x="0px" y="0px"
	 viewBox="0 0 60 60" style="enable-background:new 0 0 60 60;" xml:space="preserve">
<style type="text/css">
	.st0{fill:#939598;}
	.st1{fill:#CCCCCC;}
</style>
<path id="XMLID_477_" class="st0" d="M58.087,23.327h-2.532c-0.602-2.249-1.492-4.38-2.631-6.35l1.01-1.01
	c0.764-0.764,0.764-2.002,0-2.767l-6.916-6.916c-0.764-0.764-2.003-0.764-2.766,0l-1.01,1.01c-1.97-1.139-4.101-2.029-6.35-2.631
	V2.13c0-1.081-0.876-1.956-1.956-1.956h-9.781c-1.081,0-1.956,0.876-1.956,1.956v2.533c-2.249,0.602-4.38,1.493-6.35,2.631
	l-1.01-1.01c-0.764-0.764-2.002-0.764-2.767,0L6.154,13.2c-0.764,0.764-0.764,2.002,0,2.767l1.01,1.01
	c-1.138,1.97-2.029,4.1-2.631,6.35H2c-1.081,0-1.956,0.876-1.956,1.956v9.781c0,1.08,0.876,1.956,1.956,1.956h2.533
	c0.602,2.249,1.492,4.38,2.631,6.35l-1.01,1.01c-0.764,0.764-0.764,2.003,0,2.766l6.916,6.916c0.764,0.764,2.003,0.764,2.767,0
	l1.01-1.01c1.969,1.138,4.101,2.029,6.35,2.631v2.533c0,1.08,0.876,1.956,1.956,1.956h9.781c1.081,0,1.956-0.876,1.956-1.956v-2.533
	c2.249-0.602,4.38-1.492,6.35-2.631l1.01,1.01c0.764,0.764,2.002,0.764,2.766,0l6.916-6.916c0.764-0.764,0.764-2.003,0-2.766
	l-1.01-1.01c1.139-1.97,2.029-4.101,2.632-6.35h2.532c1.081,0,1.956-0.876,1.956-1.956v-9.781
	C60.043,24.203,59.167,23.327,58.087,23.327z M30.042,50.815c-11.399,0-20.64-9.241-20.64-20.641c0-11.4,9.241-20.641,20.64-20.641
	c11.401,0,20.642,9.241,20.642,20.641C50.685,41.574,41.444,50.815,30.042,50.815z"/>
<g id="XMLID_480_">
	<path id="XMLID_481_" class="st1" d="M40.878,21.873l-3.392,3.234c-2.308-2.439-4.903-3.658-7.788-3.658
		c-2.435,0-4.485,0.832-6.152,2.496c-1.667,1.665-2.5,3.717-2.5,6.155c0,1.699,0.369,3.208,1.107,4.525
		c0.738,1.318,1.782,2.353,3.132,3.104s2.85,1.127,4.5,1.127c1.407,0,2.694-0.263,3.859-0.789c1.165-0.525,2.446-1.482,3.842-2.869
		l3.288,3.431c-1.882,1.837-3.661,3.111-5.335,3.821s-3.585,1.065-5.733,1.065c-3.96,0-7.203-1.256-9.726-3.767
		c-2.523-2.512-3.785-5.73-3.785-9.657c0-2.54,0.574-4.798,1.724-6.772c1.149-1.975,2.794-3.562,4.937-4.763
		c2.142-1.201,4.448-1.802,6.919-1.802c2.102,0,4.125,0.443,6.071,1.331C37.792,18.974,39.469,20.236,40.878,21.873z"/>
</g>
<g id="XMLID_22_">
</g>
<g id="XMLID_48_">
</g>
<g id="XMLID_49_">
</g>
<g id="XMLID_50_">
</g>
<g id="XMLID_51_">
</g>
<g id="XMLID_52_">
</g>
</svg>
