<?xml version="1.0" encoding="utf-8"?>
<!-- Generator: Adobe Illustrator 19.0.0, SVG Export Plug-In . SVG Version: 6.00 Build 0)  -->
<svg version="1.1" id="Icons" xmlns="http://www.w3.org/2000/svg" xmlns:xlink="http://www.w3.org/1999/xlink" x="0px" y="0px"
	 viewBox="0 0 60 60" style="enable-background:new 0 0 60 60;" xml:space="preserve">
<style type="text/css">
	.st0{fill:#CCCCCC;}
	.st1{fill:#939598;}
</style>
<g id="XMLID_531_">
	<path id="XMLID_532_" class="st0" d="M29.999,4C13.431,4,0,13.432,0,30c0,16.57,13.431,26,29.999,26C46.568,56,60,46.57,60,30
		C60,13.432,46.568,4,29.999,4z M29.999,49.478C17.033,49.478,6.522,42.967,6.522,30c0-12.967,10.511-19.478,23.477-19.478
		c12.968,0,23.48,6.512,23.48,19.478C53.478,42.967,42.967,49.478,29.999,49.478z"/>
</g>
<g id="XMLID_527_">
	<path id="XMLID_528_" class="st1" d="M17.328,34.102l1.068-0.002l11.918,0.001l0.062-0.013l0.116-0.001h11.351l1.069-0.001
		l-0.003,1.067l0.002,2.373l7.377-7.581c-1.171-1.147-5.778-5.613-7.624-7.402l-0.001,2.418l0.002,1.068l-1.07,0l-11.911-0.001
		l-0.059,0.014l-0.124-0.001l-11.356,0.002l-1.066,0.001v-1.067l0-2.374l-7.377,7.581c1.18,1.156,5.78,5.615,7.625,7.402
		l0.001-2.419V34.102z"/>
</g>
<g id="XMLID_22_">
</g>
<g id="XMLID_80_">
</g>
<g id="XMLID_81_">
</g>
<g id="XMLID_82_">
</g>
<g id="XMLID_83_">
</g>
<g id="XMLID_85_">
</g>
</svg>
