<?xml version="1.0" encoding="utf-8"?>
<!-- Generator: Adobe Illustrator 19.0.0, SVG Export Plug-In . SVG Version: 6.00 Build 0)  -->
<svg version="1.1" id="Icons" xmlns="http://www.w3.org/2000/svg" xmlns:xlink="http://www.w3.org/1999/xlink" x="0px" y="0px"
	 viewBox="0 0 60 60" style="enable-background:new 0 0 60 60;" xml:space="preserve">
<style type="text/css">
	.st0{fill:#939598;}
</style>
<path id="XMLID_1214_" class="st0" d="M41.271,38.639l-2.644,2.644l6.589,6.589c-4.099,3.493-9.41,5.606-15.217,5.606
	c-12.967,0-23.478-10.511-23.478-23.477c0-5.808,2.113-11.12,5.606-15.219l7.137,7.136l2.653-2.653l-7.139-7.134
	c4.099-3.495,9.412-5.61,15.221-5.61c7.179,0,13.601,3.225,17.908,8.302l4.627-4.627c-3.596-4.089-8.286-7.192-13.614-8.849
	c-0.094-0.029-0.19-0.052-0.284-0.081c-0.849-0.255-1.712-0.479-2.59-0.658C34.093,0.21,32.071,0,30,0C13.429,0,0,13.429,0,30
	c0,0,0,0,0,0.001v0.001c0,0.268,0.013,0.533,0.02,0.799c0.006,0.248,0.006,0.498,0.019,0.744C0.842,47.395,13.95,60,30,60
	c8.955,0,16.986-3.929,22.482-10.15L41.271,38.639z"/>
<path id="XMLID_1347_" class="st0" d="M34.1,47.706h-8.204c-0.635,0-1.151,0.515-1.151,1.151c0,0.635,0.516,1.151,1.151,1.151H34.1
	c0.635,0,1.151-0.516,1.151-1.151C35.251,48.221,34.735,47.706,34.1,47.706z"/>
<path id="XMLID_1359_" class="st0" d="M30,16.631c0.849,0,1.535-0.687,1.535-1.534v-3.569c0-0.847-0.686-1.534-1.535-1.534
	c-0.848,0-1.534,0.687-1.534,1.534v3.569C28.466,15.944,29.152,16.631,30,16.631z"/>
<path id="XMLID_1385_" class="st0" d="M22.076,41.018c-0.683-0.501-1.646-0.347-2.142,0.338l-2.101,2.887
	c-0.499,0.686-0.347,1.645,0.339,2.143c0.271,0.198,0.587,0.294,0.9,0.294c0.475,0,0.943-0.219,1.243-0.632l2.101-2.887
	C22.914,42.476,22.762,41.517,22.076,41.018z"/>
<path id="XMLID_1386_" class="st0" d="M41.826,13.835c-0.689-0.5-1.645-0.346-2.144,0.34l-2.097,2.889
	c-0.498,0.685-0.345,1.645,0.34,2.143c0.273,0.198,0.588,0.293,0.9,0.293c0.476,0,0.943-0.219,1.244-0.633l2.097-2.889
	C42.664,15.292,42.511,14.332,41.826,13.835z"/>
<path id="XMLID_1389_" class="st0" d="M29.999,19.085c-6.122,0-11.084,4.962-11.084,11.084c0,2.582,0.888,4.953,2.371,6.835
	c1.3,1.65,2.532,3.451,3.599,5.263v3.682H35.05v-3.584c1.057-1.763,2.424-3.792,3.659-5.359c1.485-1.883,2.373-4.253,2.373-6.837
	C41.081,24.047,36.12,19.085,29.999,19.085z M32.33,42.958h-4.66v-4.236h4.66V42.958z M32.33,35.544h-4.66V22.835h4.66V35.544z"/>
<path id="XMLID_1391_" class="st0" d="M16.196,24.012L12.8,22.908c-0.814-0.262-1.672,0.179-1.934,0.985
	c-0.263,0.805,0.178,1.671,0.984,1.933l3.396,1.104c0.158,0.051,0.317,0.076,0.474,0.076c0.647,0,1.248-0.413,1.459-1.061
	C17.442,25.141,17.002,24.275,16.196,24.012z"/>
<path id="XMLID_1392_" class="st0" d="M48.149,34.396l-3.394-1.103c-0.807-0.26-1.671,0.18-1.933,0.985
	c-0.263,0.806,0.18,1.672,0.986,1.934l3.395,1.103c0.157,0.051,0.316,0.075,0.473,0.075c0.647,0,1.248-0.413,1.459-1.06
	C49.397,35.523,48.955,34.658,48.149,34.396z"/>
<path id="XMLID_1393_" class="st0" d="M15.247,33.293l-3.397,1.101c-0.806,0.262-1.248,1.126-0.985,1.933
	c0.21,0.648,0.811,1.062,1.458,1.062c0.156,0,0.317-0.025,0.474-0.076l3.396-1.101c0.807-0.262,1.249-1.127,0.987-1.933
	C16.92,33.473,16.061,33.033,15.247,33.293z"/>
<path id="XMLID_1394_" class="st0" d="M44.281,27.007c0.157,0,0.316-0.025,0.474-0.076l3.394-1.103
	c0.806-0.262,1.248-1.128,0.986-1.934c-0.263-0.805-1.131-1.246-1.933-0.985l-3.395,1.103c-0.806,0.262-1.248,1.128-0.986,1.934
	C43.032,26.594,43.633,27.007,44.281,27.007z"/>
<g id="XMLID_147_">
</g>
<g id="XMLID_148_">
</g>
<g id="XMLID_152_">
</g>
<g id="XMLID_156_">
</g>
<g id="XMLID_157_">
</g>
<g id="XMLID_158_">
</g>
</svg>
