<?xml version="1.0" encoding="utf-8"?>
<!-- Generator: Adobe Illustrator 19.0.0, SVG Export Plug-In . SVG Version: 6.00 Build 0)  -->
<svg version="1.1" id="Icons" xmlns="http://www.w3.org/2000/svg" xmlns:xlink="http://www.w3.org/1999/xlink" x="0px" y="0px"
	 viewBox="0 0 60 60" style="enable-background:new 0 0 60 60;" xml:space="preserve">
<style type="text/css">
	.st0{fill:#929497;}
</style>
<g id="XMLID_374_">
	<g id="XMLID_375_">
		<polyline id="XMLID_1706_" class="st0" points="43.306,30.059 46.976,30.059 53.354,36.436 49.684,36.436 43.306,30.059 		"/>
	</g>
	<polyline id="XMLID_1705_" class="st0" points="53.369,23.55 49.699,23.55 43.321,29.927 46.99,29.927 53.369,23.55 	"/>
	<path id="XMLID_1704_" class="st0" d="M14.795,28.354h1.747c0,0,0.21,0.016,0.502-0.003h-2.249V28.354"/>
	<polyline id="XMLID_1703_" class="st0" points="32.968,27.244 36.578,27.244 36.578,26.985 32.968,26.985 32.968,27.244 	"/>
	<polyline id="XMLID_1702_" class="st0" points="32.968,32.926 36.578,32.926 36.578,32.668 32.968,32.668 32.968,32.926 	"/>
	<polyline id="XMLID_1701_" class="st0" points="32.968,28.645 32.968,31.267 36.578,31.267 36.578,31.208 41.121,31.208 
		41.121,28.707 36.578,28.707 36.578,28.645 32.968,28.645 	"/>
	<polyline id="XMLID_1700_" class="st0" points="32.968,36.279 42.52,36.279 42.52,33.774 36.578,33.774 32.968,33.774 
		32.968,36.279 	"/>
	<polyline id="XMLID_1699_" class="st0" points="32.968,27.797 36.578,27.797 36.578,27.539 32.968,27.539 32.968,27.797 	"/>
	<polyline id="XMLID_1698_" class="st0" points="32.968,31.82 36.578,31.82 36.578,31.561 32.968,31.561 32.968,31.82 	"/>
	<polyline id="XMLID_1697_" class="st0" points="36.578,26.086 42.287,26.086 42.287,23.636 32.968,23.636 32.968,26.137 
		36.578,26.137 36.578,26.086 	"/>
	<polyline id="XMLID_1696_" class="st0" points="32.968,32.373 36.578,32.373 36.578,32.115 32.968,32.115 32.968,32.373 	"/>
	<polyline id="XMLID_1695_" class="st0" points="32.968,26.69 36.578,26.69 36.578,26.432 32.968,26.432 32.968,26.69 	"/>
	<polyline id="XMLID_1694_" class="st0" points="32.968,28.35 36.578,28.35 36.578,28.092 32.968,28.092 32.968,28.35 	"/>
	<polyline id="XMLID_1693_" class="st0" points="32.968,33.48 36.578,33.48 36.578,33.221 32.968,33.221 32.968,33.48 	"/>
	<polyline id="XMLID_1692_" class="st0" points="22.779,33.221 22.779,33.48 26.389,33.48 26.389,33.221 22.779,33.221 	"/>
	<polyline id="XMLID_1691_" class="st0" points="22.779,27.244 26.389,27.244 26.389,26.985 22.779,26.985 22.779,27.244 	"/>
	<polyline id="XMLID_1690_" class="st0" points="22.779,36.279 32.33,36.279 32.33,33.774 26.389,33.774 22.779,33.774 
		22.779,36.279 	"/>
	<polyline id="XMLID_1689_" class="st0" points="22.779,27.797 26.389,27.797 26.389,27.539 22.779,27.539 22.779,27.797 	"/>
	<polyline id="XMLID_1688_" class="st0" points="26.389,26.086 32.097,26.086 32.097,23.636 22.779,23.636 22.779,26.137 
		26.389,26.137 26.389,26.086 	"/>
	<polyline id="XMLID_1687_" class="st0" points="22.779,31.82 26.389,31.82 26.389,31.561 22.779,31.561 22.779,31.82 	"/>
	<polyline id="XMLID_1686_" class="st0" points="22.779,31.267 30.933,31.267 30.933,28.707 26.389,28.707 26.389,28.645 
		22.779,28.645 22.779,31.267 	"/>
	<polyline id="XMLID_1685_" class="st0" points="26.389,26.69 26.389,26.432 22.779,26.432 22.779,26.69 26.389,26.69 	"/>
	<polyline id="XMLID_1684_" class="st0" points="22.779,28.092 22.779,28.35 26.389,28.35 26.389,28.092 22.779,28.092 	"/>
	<polyline id="XMLID_1683_" class="st0" points="22.779,32.926 26.389,32.926 26.389,32.668 22.779,32.668 22.779,32.926 	"/>
	<polyline id="XMLID_1682_" class="st0" points="22.779,32.373 26.389,32.373 26.389,32.115 22.779,32.115 22.779,32.373 	"/>
	<path id="XMLID_1681_" class="st0" d="M3.617,32.115H0.309C0.33,32.2,0.354,32.286,0.38,32.373h3.326
		C3.673,32.288,3.644,32.201,3.617,32.115"/>
	<path id="XMLID_1680_" class="st0" d="M10.547,26.985H7.235c0.058,0.088,0.106,0.175,0.146,0.259h3.237
		C10.599,27.164,10.575,27.077,10.547,26.985"/>
	<path id="XMLID_1679_" class="st0" d="M3.617,28.092H0.221C0.2,28.18,0.182,28.266,0.166,28.35H3.56
		C3.577,28.264,3.596,28.178,3.617,28.092"/>
	<path id="XMLID_1678_" class="st0" d="M7.5,27.539c0.039,0.12,0.058,0.212,0.067,0.258h3.148c-0.004-0.045-0.014-0.135-0.035-0.258
		H7.5"/>
	<path id="XMLID_1677_" class="st0" d="M3.485,31.561H0.181c0.017,0.084,0.035,0.17,0.055,0.258h3.303
		C3.518,31.733,3.5,31.647,3.485,31.561"/>
	<g id="XMLID_376_">
		<path id="XMLID_1676_" class="st0" d="M6.999,26.69h3.448c-0.032-0.084-0.067-0.17-0.105-0.258H6.689
			C6.807,26.511,6.909,26.598,6.999,26.69"/>
		<path id="XMLID_1675_" class="st0" d="M3.379,30.334c0-0.339,0.016-0.993,0.128-1.689H0.112c-0.127,0.783-0.112,1.339-0.112,1.339
			s0.001,0.528,0.127,1.282h3.311C3.39,30.898,3.379,30.566,3.379,30.334"/>
	</g>
	<path id="XMLID_1674_" class="st0" d="M5.417,26.083c0.202,0,0.384,0.02,0.55,0.055h4.231c-0.607-1.142-1.914-2.442-4.722-2.442
		c-2.401,0-3.75,1.136-4.508,2.442H5.02C5.143,26.103,5.275,26.083,5.417,26.083"/>
	<path id="XMLID_1673_" class="st0" d="M3.78,27.539H0.368c-0.027,0.087-0.051,0.173-0.074,0.258h3.403
		C3.722,27.71,3.75,27.623,3.78,27.539"/>
	<path id="XMLID_1672_" class="st0" d="M4.208,33.221H0.679c0.036,0.087,0.075,0.173,0.115,0.258h3.704
		C4.392,33.403,4.296,33.316,4.208,33.221"/>
	<path id="XMLID_1671_" class="st0" d="M10.567,32.668H7.508c-0.024,0.083-0.055,0.17-0.096,0.258h3.114
		C10.543,32.835,10.556,32.748,10.567,32.668"/>
	<path id="XMLID_1670_" class="st0" d="M4.032,26.985H0.561c-0.035,0.087-0.066,0.173-0.096,0.259H3.9
		C3.941,27.154,3.985,27.068,4.032,26.985"/>
	<path id="XMLID_1669_" class="st0" d="M3.836,32.668H0.472c0.029,0.085,0.059,0.172,0.091,0.258h3.42
		C3.929,32.843,3.881,32.757,3.836,32.668"/>
	<path id="XMLID_1668_" class="st0" d="M4.473,26.432H0.808c-0.043,0.086-0.084,0.172-0.124,0.258h3.545
		C4.303,26.595,4.385,26.508,4.473,26.432"/>
	<g id="XMLID_377_">
		<path id="XMLID_1667_" class="st0" d="M10.602,32.115H7.575c0.002,0.046,0.004,0.138-0.01,0.258h3.03
			C10.603,32.249,10.603,32.16,10.602,32.115"/>
		<path id="XMLID_1666_" class="st0" d="M5.65,33.829c-0.179,0-0.342-0.02-0.495-0.055H0.941c0.745,1.411,2.081,2.676,4.477,2.676
			c3.117,0,4.363-1.447,4.861-2.676H6.237C6.065,33.809,5.87,33.829,5.65,33.829"/>
	</g>
	<path id="XMLID_1665_" class="st0" d="M7.226,33.221c-0.074,0.092-0.165,0.18-0.274,0.258h3.432
		c0.028-0.088,0.053-0.175,0.075-0.258H7.226"/>
	<polyline id="XMLID_1664_" class="st0" points="17.148,32.373 20.275,32.373 20.167,32.115 17.033,32.115 17.148,32.373 	"/>
	<polyline id="XMLID_1663_" class="st0" points="14.795,27.539 11.65,27.539 11.65,27.797 14.795,27.797 14.795,27.539 	"/>
	<path id="XMLID_1662_" class="st0" d="M19.571,30.684c0,0,1.222-0.886,1.896-2.039H11.65v2.622h8.164L19.571,30.684"/>
	<polyline id="XMLID_1661_" class="st0" points="14.678,31.561 11.65,31.561 11.65,31.82 14.678,31.82 14.678,31.561 	"/>
	<polyline id="XMLID_1660_" class="st0" points="14.678,32.373 14.678,32.115 11.65,32.115 11.65,32.373 14.678,32.373 	"/>
	<polyline id="XMLID_1659_" class="st0" points="11.65,36.334 14.678,36.334 14.678,33.774 11.65,33.774 11.65,36.334 	"/>
	<polyline id="XMLID_1658_" class="st0" points="14.795,28.092 11.65,28.092 11.65,28.35 14.795,28.35 14.795,28.092 	"/>
	<polyline id="XMLID_1657_" class="st0" points="14.795,26.69 14.795,26.432 11.65,26.432 11.65,26.69 14.795,26.69 	"/>
	<path id="XMLID_1656_" class="st0" d="M14.795,25.908h1.689c0,0,0.766,0.019,1.427,0.23h3.794c-0.47-1.345-1.751-2.501-3.402-2.501
		H11.65v2.501h3.145V25.908"/>
	<path id="XMLID_1655_" class="st0" d="M18.76,26.69h3.091c-0.015-0.086-0.033-0.173-0.055-0.258h-3.274
		C18.622,26.507,18.703,26.593,18.76,26.69"/>
	<polyline id="XMLID_1654_" class="st0" points="17.523,33.221 17.637,33.48 20.736,33.48 20.628,33.221 17.523,33.221 	"/>
	<path id="XMLID_1653_" class="st0" d="M18.141,28.092c-0.355,0.173-0.775,0.237-1.097,0.258h4.579
		c0.041-0.085,0.077-0.171,0.11-0.258H18.141"/>
	<polyline id="XMLID_1652_" class="st0" points="11.65,33.221 11.65,33.48 14.678,33.48 14.678,33.221 11.65,33.221 	"/>
	<polyline id="XMLID_1651_" class="st0" points="18.872,36.276 21.901,36.276 20.859,33.774 17.767,33.774 18.872,36.276 	"/>
	<path id="XMLID_1650_" class="st0" d="M18.732,27.539c-0.048,0.097-0.109,0.183-0.179,0.258h3.274
		c0.022-0.086,0.039-0.172,0.052-0.258H18.732"/>
	<polyline id="XMLID_1649_" class="st0" points="17.278,32.668 17.392,32.926 20.506,32.926 20.398,32.668 17.278,32.668 	"/>
	<polyline id="XMLID_1648_" class="st0" points="11.65,32.668 11.65,32.926 14.678,32.926 14.678,32.668 11.65,32.668 	"/>
	<polyline id="XMLID_1647_" class="st0" points="14.795,27.244 14.795,26.985 11.65,26.985 11.65,27.244 14.795,27.244 	"/>
	<polyline id="XMLID_1646_" class="st0" points="20.044,31.82 19.937,31.561 16.789,31.561 16.903,31.82 20.044,31.82 	"/>
	<path id="XMLID_1645_" class="st0" d="M18.827,27.244h3.073c0-0.086-0.005-0.172-0.011-0.259h-3.043c0,0.01,0.002,0.02,0.002,0.03
		C18.848,27.096,18.84,27.172,18.827,27.244"/>
	<polyline id="XMLID_1644_" class="st0" points="57.578,27.513 49.967,27.513 49.637,27.844 57.909,27.844 57.578,27.513 	"/>
	<polyline id="XMLID_1217_" class="st0" points="56.494,26.428 51.053,26.428 50.721,26.759 56.824,26.759 56.494,26.428 	"/>
	<polyline id="XMLID_1216_" class="st0" points="53.773,36.163 56.202,33.735 51.346,33.735 53.773,36.163 	"/>
	<polyline id="XMLID_1215_" class="st0" points="53.773,23.708 51.264,26.216 56.282,26.216 53.773,23.708 	"/>
	<polyline id="XMLID_1213_" class="st0" points="50.049,32.439 57.498,32.439 57.828,32.108 49.719,32.108 50.049,32.439 	"/>
	<polyline id="XMLID_1212_" class="st0" points="49.507,31.897 58.04,31.897 58.37,31.566 49.177,31.566 49.507,31.897 	"/>
	<g id="XMLID_378_">
		<polyline id="XMLID_1211_" class="st0" points="57.036,26.971 50.51,26.971 50.181,27.301 57.367,27.301 57.036,26.971 		"/>
		<polyline id="XMLID_1210_" class="st0" points="60,29.935 58.663,28.597 48.885,28.597 47.546,29.935 48.964,31.354 
			58.582,31.354 60,29.935 		"/>
	</g>
	<polyline id="XMLID_1209_" class="st0" points="51.135,33.524 56.412,33.524 56.744,33.193 50.803,33.193 51.135,33.524 	"/>
	<polyline id="XMLID_1208_" class="st0" points="50.591,32.981 56.955,32.981 57.286,32.651 50.261,32.651 50.591,32.981 	"/>
	<g id="XMLID_379_">
		<polyline id="XMLID_1207_" class="st0" points="58.12,28.055 49.426,28.055 49.096,28.386 58.452,28.386 58.12,28.055 		"/>
		<path id="XMLID_380_" class="st0" d="M57.13,34.61v0.479h0.445c0.12,0,0.237-0.033,0.256-0.212
			c0.026-0.238-0.147-0.267-0.256-0.267H57.13 M56.951,34.452h0.622c0.215,0,0.423,0.04,0.442,0.354
			c0.008,0.179-0.048,0.245-0.183,0.347c0.142,0.092,0.146,0.114,0.168,0.355c0.015,0.183-0.011,0.212,0.066,0.333h-0.212
			l-0.03-0.175c-0.029-0.165,0.052-0.42-0.237-0.42H57.13v0.596h-0.179V34.452z M57.418,34.069c-0.613,0-1.114,0.501-1.111,1.118
			c0,0.614,0.497,1.114,1.115,1.111c0.614,0,1.115-0.497,1.115-1.114C58.537,34.57,58.036,34.069,57.418,34.069z M57.423,36.444
			c-0.698,0-1.262-0.563-1.262-1.261c-0.003-0.694,0.563-1.26,1.262-1.26c0.694,0,1.26,0.566,1.26,1.26
			C58.683,35.881,58.117,36.441,57.423,36.444z"/>
	</g>
</g>
<g id="XMLID_105_">
</g>
<g id="XMLID_106_">
</g>
<g id="XMLID_107_">
</g>
<g id="XMLID_109_">
</g>
<g id="XMLID_110_">
</g>
<g id="XMLID_111_">
</g>
</svg>
