<?xml version="1.0" encoding="utf-8"?>
<!-- Generator: Adobe Illustrator 19.0.0, SVG Export Plug-In . SVG Version: 6.00 Build 0)  -->
<svg version="1.1" id="Icons" xmlns="http://www.w3.org/2000/svg" xmlns:xlink="http://www.w3.org/1999/xlink" x="0px" y="0px"
	 viewBox="0 0 60 60" style="enable-background:new 0 0 60 60;" xml:space="preserve">
<style type="text/css">
	.st0{fill:#939598;}
	.st1{fill:#CCCCCC;}
</style>
<g id="XMLID_1806_">
	<g id="XMLID_1792_">
		<g id="XMLID_495_">
			<path id="XMLID_499_" class="st0" d="M37.19,20.027c-0.016-0.307-0.179-0.526-0.403-0.51c-0.005,0.005-0.009,0.016-0.014,0.016
				c-0.031-0.377-0.072-0.75-0.128-1.117c0.005,0,0.01,0,0.016,0c0.193-0.081,0.31-0.387,0.26-0.687
				c-0.133-0.745-0.31-1.483-0.53-2.191c-0.082-0.28-0.531-0.398-0.531-0.398s-0.209-0.519-0.34-0.835
				c0-0.005,0.01-0.005,0.01-0.005c0.167-0.179,0.214-0.524,0.097-0.78c-0.296-0.637-0.627-1.243-0.989-1.794
				c-0.142-0.219-0.678-0.198-0.682-0.188c-0.052-0.082-0.219-0.296-0.419-0.531c0.005-0.009,0.01-0.004,0.016-0.014
				c0.123-0.25,0.081-0.601-0.087-0.785c-0.417-0.449-0.861-0.85-1.324-1.182c-0.184-0.133-0.989-0.016-0.989-0.016l-0.209-0.107
				c0.005-0.005,0.01-0.01,0.01-0.016c0.056-0.295-0.056-0.605-0.256-0.693c-0.494-0.209-0.998-0.356-1.513-0.433
				c-0.147-0.03-0.682-0.046-1.085-0.046c-0.789,0.27-1.548,0.642-2.267,1.111c0.693,0.081-0.871,1.187-0.754,0.54
				c-0.454,0.351-0.882,0.743-1.289,1.177c0.661,0.067-0.571,1.63-0.775,0.901c-0.52,0.678-0.989,1.422-1.392,2.232
				c0.601-0.177-0.127,1.804-0.55,1.243c-0.335,0.867-0.605,1.79-0.8,2.777c0.561-0.209,0.296,1.601-0.209,1.341
				c-0.086,0.738-0.132,1.513-0.132,2.313c0,0.163,0,0.326,0.004,0.494c0.545-0.23,0.81,1.422,0.087,1.437
				c0.097,0.998,0.265,1.941,0.505,2.828c0.33-0.331,1.192,1.105,0.417,1.334c0.291,0.789,0.637,1.529,1.029,2.211
				c0.203-0.391,1.243,0.887,0.652,1.02c0.458,0.647,0.968,1.238,1.513,1.762c0.091-0.372,1.171,0.443,0.749,0.663
				c0.933,0.754,1.957,1.334,3.037,1.743c0.545,0,0.908,0.005,0.908,0.005c0.55-0.021,0.815-0.082,1.044-0.147
				c0.2-0.061,0.597-0.678,0.597-0.678s0.723-0.035,0.871-0.035c0.046,0,0.091-0.016,0.137-0.042
				c0.474-0.275,0.938-0.621,1.381-1.019c0.172-0.158,0.228-0.505,0.127-0.77c-0.005-0.005-0.01-0.005-0.01-0.01
				c0.21-0.209,0.25-0.26,0.449-0.493c0,0.004,0.337,0.04,0.444,0.04c0.082,0,0.168-0.046,0.24-0.133
				c0.386-0.509,0.749-1.07,1.075-1.671c0.127-0.24,0.107-0.591-0.051-0.785c-0.005-0.009-0.01-0.004-0.016-0.009
				c0.147-0.301,0.254-0.505,0.393-0.831c0.005,0.005,0.163-0.016,0.23-0.016c0.127,0,0.249-0.102,0.316-0.28
				c0.254-0.672,0.473-1.385,0.647-2.12c0.067-0.29-0.035-0.61-0.224-0.714c-0.005-0.004-0.005,0-0.01,0
				c0.072-0.361,0.133-0.728,0.189-1.094c0.005,0,0.005,0.009,0.01,0.009c0.02,0.005,0.04,0.005,0.06,0.005
				c0.179,0,0.336-0.193,0.368-0.463c0.086-0.764,0.132-1.544,0.132-2.323C37.225,20.851,37.216,20.434,37.19,20.027L37.19,20.027z
				 M28.885,29.906c-2.844,0-5.151-3.862-5.151-8.622c0-4.758,2.307-8.621,5.151-8.621c2.842,0,5.146,3.862,5.146,8.621
				C34.031,26.044,31.727,29.906,28.885,29.906L28.885,29.906z M28.885,29.906"/>
			<path id="XMLID_496_" class="st0" d="M24.106,33.416c-0.47,0.04-0.871,0.031-0.964-0.01c-0.07-0.035,0.087-0.203,0.291-0.372
				c0.235-0.193,0.021-0.393-0.091-0.489c-0.377-0.337-0.74-0.703-1.075-1.09c-0.082-0.097-0.28-0.29-0.652-0.286
				c-0.596,0.01-1.351,0.037-1.443-0.009c-0.072-0.031,0.326-0.363,0.714-0.673c0.336-0.27,0.198-0.617,0.102-0.78
				c-0.31-0.509-0.591-1.049-0.845-1.615c-0.051-0.117-0.209-0.337-0.571-0.342c-0.561-0.009-1.203,0.026-1.294-0.014
				c-0.066-0.031,0.433-0.5,0.933-0.917c0.117-0.098,0.3-0.322,0.188-0.77c-0.158-0.652-0.331-1.315-0.438-1.998
				c-0.025-0.167-0.168-0.503-0.545-0.493c-0.509,0.014-1.029,0.02-1.105-0.016c-0.066-0.031,0.444-0.489,1.008-0.912
				c0.153-0.112,0.393-0.194,0.438-0.78c0.01-0.163-0.01-0.331-0.01-0.5c0-0.565,0.016-1.12,0.082-1.666
				c0.061-0.505-0.245-0.612-0.414-0.601c-0.514,0.025-1.038,0.051-1.115,0.016c-0.077-0.037,0.673-0.571,1.391-1.015
				c0.149-0.091,0.398-0.26,0.531-0.719c0.188-0.631,0.346-1.257,0.58-1.854c0.214-0.54-0.219-0.633-0.438-0.627
				c-0.556,0.01-1.008,0.04-1.096,0c-0.086-0.04,0.866-0.591,1.758-0.957c0.203-0.087,0.58-0.256,0.938-0.821
				c0.265-0.428,0.56-0.826,0.835-1.233c0.275-0.398-0.025-0.454-0.209-0.454c-0.682,0-1.278,0.056-1.381,0.005
				c-0.097-0.046,1.417-0.627,2.33-0.856c0.198-0.052,0.473-0.123,0.835-0.424c0.31-0.254,0.607-0.53,0.927-0.759
				c0.291-0.203,0.056-0.244-0.076-0.244c-0.755-0.01-1.443,0.056-1.555,0c-0.107-0.051,1.927-0.419,2.731-0.475
				c0.703-0.402,1.906-0.728,2.681-0.952c-0.2,0-0.373,0-0.438,0.005h-4.52c-0.254,0.035-1.345-0.016-1.539,0
				c-0.514,0.056-0.866,0.107-1.36,0.305c-0.321,0.133-0.428,0.545-0.209,0.638c0.245,0.097,1.177,0.417,1.059,0.479
				c-0.091,0.046-1.319,0-2.094-0.056c-0.305-0.021-0.733-0.051-0.912,0.081c-0.454,0.331-0.316,0.261-0.74,0.689
				c-0.168,0.172-0.214,0.54,0.031,0.652c0.235,0.112,1.376,0.871,1.222,0.947c-0.132,0.067-1.717,0.179-2.104,0.138
				c-0.387-0.037-0.591-0.01-0.738,0.203c-0.372,0.53-0.413,0.719-0.719,1.34c-0.123,0.245-0.112,0.689,0.072,0.785
				c0.188,0.091,1.064,0.509,1.599,0.957c-0.607-0.051-1.773,0.194-2.032,0.194c-0.261,0-0.47,0.014-0.561,0.29
				c-0.235,0.698-0.275,0.964-0.428,1.702c-0.056,0.296,0.046,0.596,0.275,0.724c0.228,0.132,1.957,1.304,1.783,1.294
				c-0.296-0.016-1.809,0.342-2.039,0.346c-0.228,0.005-0.377,0.184-0.402,0.485c-0.046,0.56-0.026,0.56-0.026,1.136
				c0.005,0.209,0.005,0.412,0.01,0.616c0.01,0.301,0.28,0.627,0.53,0.745c0.342,0.163,2.1,1.029,1.942,1.105
				c-0.128,0.067-1.718,0.261-1.881,0.265c-0.367,0.016-0.412,0.382-0.372,0.684c0.112,0.759,0.117,0.896,0.316,1.62
				c0.056,0.219,0.245,0.412,0.443,0.479c0.193,0.067,2.681,1.08,2.523,1.162c-0.133,0.067-1.621,0.346-1.855,0.356
				c-0.312,0.021-0.28,0.464-0.138,0.785c0.286,0.647,0.153,0.449,0.5,1.029c0.072,0.123,0.387,0.316,0.489,0.337
				c0.194,0.04,3.021,0.835,2.863,0.912c-0.132,0.067-1.64,0.142-1.92,0.158c-0.28,0.016-0.245,0.433-0.082,0.622
				c0.403,0.484,0.307,0.402,0.749,0.784c0.25,0.219,0.831,0.2,0.867,0.23c0.58,0.091,3.026,0.417,2.879,0.489
				c-0.128,0.067-1.03,0.168-1.891,0.27c-0.275-0.016-0.056,0.367,0.144,0.463c0.484,0.245,0.989,0.429,1.497,0.541
				c0.016,0.004,0.037,0.004,0.051,0.004c0.184,0,1.32,0.112,1.524,0.112c0.254,0,3.745,0.016,5.452,0.026
				c-0.994-0.291-2.323-0.729-3.241-1.294C24.584,33.504,24.386,33.397,24.106,33.416L24.106,33.416z M24.106,33.416"/>
		</g>
		<g id="XMLID_1322_">
			<path id="XMLID_1326_" class="st0" d="M59.969,26.249c-0.012-0.234-0.136-0.401-0.308-0.389
				c-0.004,0.004-0.007,0.012-0.011,0.012c-0.024-0.288-0.055-0.573-0.098-0.853c0.004,0,0.008,0,0.012,0
				c0.147-0.062,0.237-0.296,0.198-0.525c-0.102-0.569-0.237-1.132-0.404-1.673c-0.063-0.214-0.405-0.304-0.405-0.304
				s-0.159-0.396-0.26-0.637c0-0.004,0.008-0.004,0.008-0.004c0.127-0.136,0.163-0.4,0.074-0.596
				c-0.226-0.486-0.479-0.949-0.755-1.37c-0.109-0.167-0.518-0.151-0.521-0.143c-0.04-0.063-0.167-0.226-0.32-0.405
				c0.004-0.007,0.008-0.003,0.012-0.011c0.094-0.191,0.062-0.459-0.067-0.6c-0.319-0.343-0.657-0.649-1.011-0.902
				c-0.14-0.102-0.755-0.012-0.755-0.012l-0.159-0.082c0.004-0.004,0.008-0.008,0.008-0.012c0.043-0.225-0.043-0.462-0.195-0.529
				c-0.377-0.159-0.762-0.272-1.155-0.331c-0.113-0.023-0.521-0.035-0.829-0.035c-0.603,0.206-1.182,0.49-1.731,0.849
				c0.529,0.062-0.665,0.906-0.576,0.412c-0.347,0.268-0.673,0.568-0.984,0.898c0.505,0.051-0.436,1.245-0.592,0.688
				c-0.397,0.518-0.755,1.086-1.063,1.704c0.459-0.135-0.097,1.377-0.42,0.949c-0.256,0.662-0.462,1.366-0.611,2.12
				c0.428-0.159,0.226,1.222-0.159,1.024c-0.066,0.564-0.101,1.155-0.101,1.766c0,0.125,0,0.249,0.003,0.377
				c0.416-0.175,0.619,1.086,0.067,1.098c0.074,0.762,0.202,1.482,0.385,2.159c0.252-0.253,0.91,0.844,0.319,1.019
				c0.222,0.603,0.486,1.167,0.786,1.688c0.155-0.299,0.949,0.677,0.498,0.779c0.35,0.494,0.739,0.945,1.155,1.346
				c0.07-0.284,0.894,0.339,0.572,0.506c0.712,0.576,1.494,1.019,2.319,1.331c0.416,0,0.693,0.004,0.693,0.004
				c0.42-0.016,0.623-0.063,0.797-0.113c0.152-0.047,0.456-0.518,0.456-0.518s0.552-0.027,0.665-0.027
				c0.035,0,0.07-0.012,0.105-0.032c0.362-0.21,0.716-0.474,1.055-0.778c0.131-0.121,0.174-0.385,0.097-0.588
				c-0.004-0.004-0.008-0.004-0.008-0.008c0.16-0.159,0.191-0.198,0.343-0.376c0,0.003,0.257,0.031,0.339,0.031
				c0.063,0,0.128-0.035,0.183-0.102c0.295-0.388,0.572-0.817,0.821-1.276c0.097-0.183,0.082-0.451-0.039-0.6
				c-0.004-0.007-0.008-0.003-0.012-0.007c0.113-0.23,0.194-0.385,0.3-0.634c0.004,0.004,0.125-0.012,0.175-0.012
				c0.097,0,0.19-0.078,0.241-0.214c0.194-0.513,0.362-1.058,0.494-1.619c0.051-0.221-0.027-0.466-0.171-0.545
				c-0.004-0.003-0.004,0-0.008,0c0.055-0.276,0.102-0.556,0.144-0.836c0.004,0,0.004,0.007,0.008,0.007
				c0.015,0.004,0.031,0.004,0.046,0.004c0.136,0,0.257-0.147,0.281-0.354C59.965,28.388,60,27.792,60,27.198
				C59.996,26.878,59.989,26.559,59.969,26.249L59.969,26.249z M53.628,33.792c-2.171,0-3.933-2.949-3.933-6.584
				c0-3.633,1.762-6.583,3.933-6.583c2.17,0,3.929,2.949,3.929,6.583C57.557,30.843,55.798,33.792,53.628,33.792L53.628,33.792z
				 M53.628,33.792"/>
			<path id="XMLID_1323_" class="st0" d="M49.978,36.473c-0.359,0.031-0.665,0.024-0.736-0.008
				c-0.054-0.027,0.067-0.155,0.222-0.284c0.179-0.147,0.016-0.3-0.07-0.374c-0.288-0.257-0.565-0.537-0.821-0.833
				c-0.063-0.074-0.214-0.221-0.498-0.218c-0.455,0.008-1.032,0.028-1.102-0.007c-0.055-0.024,0.249-0.277,0.545-0.514
				c0.257-0.206,0.151-0.471,0.078-0.596c-0.237-0.388-0.451-0.801-0.645-1.233c-0.039-0.09-0.159-0.257-0.436-0.261
				c-0.428-0.007-0.918,0.02-0.988-0.011c-0.051-0.024,0.331-0.381,0.712-0.7c0.09-0.075,0.229-0.246,0.143-0.588
				c-0.12-0.498-0.253-1.004-0.335-1.526c-0.019-0.127-0.128-0.384-0.416-0.376c-0.388,0.011-0.786,0.015-0.844-0.012
				c-0.051-0.024,0.339-0.374,0.77-0.696c0.117-0.086,0.3-0.148,0.335-0.596c0.008-0.125-0.008-0.253-0.008-0.381
				c0-0.431,0.012-0.856,0.063-1.272c0.047-0.385-0.187-0.467-0.316-0.459c-0.392,0.019-0.793,0.039-0.852,0.012
				c-0.059-0.028,0.514-0.436,1.062-0.775c0.114-0.07,0.304-0.198,0.405-0.549c0.143-0.482,0.264-0.96,0.443-1.415
				c0.163-0.412-0.167-0.483-0.335-0.479c-0.424,0.008-0.77,0.031-0.837,0c-0.066-0.031,0.661-0.451,1.343-0.731
				c0.155-0.067,0.443-0.195,0.716-0.627c0.202-0.327,0.427-0.63,0.637-0.941c0.21-0.304-0.019-0.347-0.159-0.347
				c-0.521,0-0.976,0.043-1.055,0.004c-0.074-0.035,1.082-0.479,1.779-0.653c0.151-0.04,0.362-0.094,0.637-0.324
				c0.237-0.194,0.463-0.404,0.708-0.58c0.222-0.155,0.043-0.186-0.058-0.186c-0.577-0.008-1.102,0.043-1.187,0
				c-0.082-0.039,1.471-0.32,2.086-0.363c0.537-0.307,1.455-0.556,2.047-0.727c-0.152,0-0.285,0-0.335,0.004h-3.451
				c-0.194,0.027-1.027-0.012-1.175,0c-0.392,0.043-0.661,0.082-1.039,0.233c-0.245,0.102-0.327,0.416-0.159,0.487
				c0.187,0.074,0.898,0.319,0.809,0.366c-0.07,0.035-1.007,0-1.599-0.043c-0.233-0.016-0.56-0.039-0.696,0.062
				c-0.347,0.253-0.241,0.199-0.565,0.526c-0.128,0.131-0.163,0.412,0.024,0.498c0.179,0.086,1.051,0.665,0.933,0.723
				c-0.101,0.051-1.311,0.136-1.607,0.106c-0.296-0.028-0.451-0.008-0.564,0.155c-0.284,0.404-0.316,0.549-0.549,1.023
				c-0.094,0.187-0.086,0.526,0.055,0.6c0.143,0.07,0.813,0.388,1.221,0.731c-0.463-0.039-1.354,0.148-1.552,0.148
				c-0.199,0-0.359,0.011-0.428,0.221c-0.179,0.533-0.21,0.736-0.327,1.3c-0.043,0.226,0.035,0.455,0.21,0.553
				c0.174,0.101,1.494,0.996,1.362,0.988c-0.226-0.012-1.381,0.261-1.557,0.264c-0.174,0.004-0.288,0.14-0.307,0.371
				c-0.035,0.427-0.02,0.427-0.02,0.868c0.004,0.159,0.004,0.315,0.008,0.47c0.008,0.23,0.214,0.479,0.404,0.569
				c0.261,0.124,1.604,0.786,1.483,0.844c-0.098,0.051-1.312,0.199-1.436,0.202c-0.28,0.012-0.315,0.292-0.284,0.522
				c0.086,0.58,0.09,0.684,0.241,1.237c0.043,0.167,0.187,0.315,0.339,0.366c0.147,0.051,2.047,0.825,1.926,0.887
				c-0.102,0.051-1.238,0.264-1.416,0.272c-0.238,0.016-0.214,0.355-0.106,0.6c0.218,0.494,0.117,0.343,0.381,0.786
				c0.055,0.094,0.296,0.241,0.374,0.257c0.148,0.031,2.307,0.637,2.186,0.696c-0.101,0.051-1.252,0.109-1.466,0.121
				c-0.214,0.012-0.187,0.331-0.063,0.475c0.308,0.37,0.234,0.307,0.572,0.599c0.191,0.167,0.634,0.152,0.662,0.175
				c0.443,0.07,2.311,0.319,2.198,0.374c-0.098,0.051-0.787,0.128-1.444,0.206c-0.21-0.012-0.043,0.28,0.11,0.354
				c0.369,0.187,0.755,0.328,1.143,0.413c0.012,0.003,0.028,0.003,0.039,0.003c0.14,0,1.008,0.086,1.163,0.086
				c0.194,0,2.86,0.012,4.163,0.02c-0.759-0.222-1.774-0.557-2.475-0.988C50.344,36.539,50.192,36.458,49.978,36.473L49.978,36.473z
				 M49.978,36.473"/>
		</g>
		<path id="XMLID_492_" class="st0" d="M19.555,36.742l-3.531-3.312c-0.978-0.922-2.868-1.666-4.213-1.666h-1.83
			c-1.345,0-2.945-0.969-3.571-2.161l-0.78-1.473c-0.626-1.192-1.65-1.197-2.283-0.005l-2.583,4.841
			c-0.631,1.188-0.933,3.221-0.668,4.541l0.871,4.362c0.265,1.319,1.574,2.39,2.919,2.39H56.92c1.345,0,1.936-0.969,1.31-2.161
			l-0.79-1.503c-0.621-1.192-2.155-1.783-3.419-1.32l-3.363,1.234c-1.264,0.463-3.129,0.147-4.173-0.708l-2.619-2.151
			c-1.04-0.856-2.915-1.187-4.188-0.744l-2.095,0.729c-1.273,0.442-2.182,0.434-3.465,0.031l-2.189-0.842
			C30.639,36.426,19.555,36.742,19.555,36.742z M3.347,28.125"/>
	</g>
	<g id="XMLID_1820_">
		<path id="XMLID_1821_" class="st1" d="M0,48.273c0-1.778,0.998-2.198,2.676-2.198h2.987c1.678,0,2.676,0.42,2.676,2.198v1.813
			c0,1.779-0.998,2.198-2.676,2.198H2.676C0.998,52.284,0,51.865,0,50.086V48.273z M1.913,49.507c0,0.881,0.185,1.217,1.066,1.217
			h2.383c0.881,0,1.065-0.336,1.065-1.217v-0.655c0-0.755-0.185-1.217-1.166-1.217H3.079c-0.982,0-1.166,0.461-1.166,1.217V49.507z"
			/>
		<path id="XMLID_1824_" class="st1" d="M9.002,46.143h6.342v1.46h-4.48v1.132h4.27v1.41h-4.27v2.072H9.002V46.143z"/>
		<path id="XMLID_1826_" class="st1" d="M15.962,46.143h6.342v1.46h-4.48v1.132h4.27v1.41h-4.27v2.072h-1.862V46.143z"/>
		<path id="XMLID_1828_" class="st1" d="M22.851,49.339H25.2v1.51h-2.349V49.339z"/>
		<path id="XMLID_1830_" class="st1" d="M25.972,46.143h5.621c1.435,0,1.821,0.713,1.821,1.804v0.386
			c0,0.814-0.185,1.292-1.04,1.493v0.017c0.554,0.101,1.015,0.344,1.015,1.342v1.032h-1.862v-0.73c0-0.638-0.185-0.848-0.764-0.848
			h-2.928v1.578h-1.862V46.143z M27.835,49.13h3.079c0.503,0,0.688-0.202,0.688-0.638V48.29c0-0.537-0.268-0.638-0.856-0.638h-2.911
			V49.13z"/>
		<path id="XMLID_1833_" class="st1" d="M34.036,48.273c0-1.778,0.998-2.198,2.676-2.198h2.987c1.678,0,2.676,0.42,2.676,2.198
			v1.813c0,1.779-0.998,2.198-2.676,2.198h-2.987c-1.678,0-2.676-0.419-2.676-2.198V48.273z M35.948,49.507
			c0,0.881,0.185,1.217,1.066,1.217h2.383c0.881,0,1.065-0.336,1.065-1.217v-0.655c0-0.755-0.185-1.217-1.166-1.217h-2.181
			c-0.982,0-1.166,0.461-1.166,1.217V49.507z"/>
		<path id="XMLID_1836_" class="st1" d="M45.669,46.143h2.425l3.339,6.074h-2.072l-0.579-1.074h-3.775l-0.545,1.074H42.38
			L45.669,46.143z M45.703,49.834h2.383l-1.208-2.282L45.703,49.834z"/>
		<path id="XMLID_1839_" class="st1" d="M51.862,46.143h5.621c1.862,0,2.517,0.612,2.517,2.114v1.845
			c0,1.502-0.655,2.114-2.517,2.114h-5.621V46.143z M53.724,50.656h3.306c0.797,0,1.107-0.226,1.107-1.091v-0.822
			c0-0.865-0.31-1.091-1.107-1.091h-3.306V50.656z"/>
	</g>
</g>
<g id="XMLID_22_">
</g>
<g id="XMLID_85_">
</g>
<g id="XMLID_89_">
</g>
<g id="XMLID_91_">
</g>
<g id="XMLID_92_">
</g>
<g id="XMLID_94_">
</g>
</svg>
