<?xml version="1.0" encoding="utf-8"?>
<!-- Generator: Adobe Illustrator 19.0.0, SVG Export Plug-In . SVG Version: 6.00 Build 0)  -->
<svg version="1.1" id="Icons" xmlns="http://www.w3.org/2000/svg" xmlns:xlink="http://www.w3.org/1999/xlink" x="0px" y="0px"
	 viewBox="0 0 60 60" style="enable-background:new 0 0 60 60;" xml:space="preserve">
<style type="text/css">
	.st0{fill:#929497;}
</style>
<g id="XMLID_1382_">
	<polygon id="XMLID_1380_" class="st0" points="17.415,22.339 19.881,22.339 19.881,16.8 23.589,9.988 20.778,9.988 18.649,13.903 
		16.518,9.988 13.714,9.988 17.415,16.8 	"/>
	<path id="XMLID_1423_" class="st0" d="M24.188,18.019v4.32l4.32,0c1.19,0,2.21-0.424,3.057-1.268
		c0.85-0.845,1.274-1.862,1.273-3.052c0-0.889-0.248-1.692-0.74-2.406c-0.494-0.716-1.122-1.24-1.888-1.572
		c0.102-0.311,0.152-0.633,0.152-0.965c0-0.847-0.301-1.574-0.907-2.178c-0.604-0.607-1.331-0.91-2.178-0.91h-3.088v3.089l0,0.612
		l0,2.477V18.019z M26.662,12.457h0.615c0.413,0,0.62,0.207,0.62,0.62c0,0.408-0.207,0.612-0.62,0.612h-0.615l0-0.612V12.457z
		 M26.662,18.019l0-1.854l0.615,0h1.232c0.513,0,0.949,0.18,1.31,0.544c0.363,0.361,0.544,0.798,0.544,1.31
		c0,0.51-0.18,0.944-0.544,1.305c-0.361,0.361-0.798,0.541-1.31,0.541h-1.846V18.019z"/>
	<polygon id="XMLID_1376_" class="st0" points="5.533,44.068 4.053,44.068 4.053,45.252 5.533,45.252 5.533,49.989 6.719,49.989 
		6.719,45.252 8.2,45.252 8.2,44.068 6.719,44.068 	"/>
	<polygon id="XMLID_1375_" class="st0" points="6.528,17.397 10.228,17.397 10.228,22.339 12.705,22.339 12.705,9.988 10.228,9.988 
		10.228,14.931 6.528,14.931 6.528,9.988 4.054,9.988 4.054,22.339 6.528,22.339 	"/>
	<polygon id="XMLID_1374_" class="st0" points="19.027,38.743 9.053,38.743 9.053,24.167 4.053,24.167 4.053,42.394 19.027,42.394 	
		"/>
	<polygon id="XMLID_1373_" class="st0" points="8.787,46.437 8.786,47.62 8.787,49.989 9.972,49.989 12.338,49.989 12.338,48.803 
		9.972,48.803 9.972,47.62 11.746,47.62 11.746,46.437 9.972,46.437 9.972,45.252 12.338,45.252 12.338,44.068 8.786,44.068 	"/>
	<rect id="XMLID_1372_" x="43.548" y="9.988" class="st0" width="2.474" height="12.351"/>
	<path id="XMLID_1415_" class="st0" d="M54.158,20.527c1.211-1.208,1.818-2.662,1.818-4.362c0-1.697-0.607-3.149-1.818-4.359
		c-1.211-1.211-2.662-1.818-4.359-1.818h-2.474v12.351h2.474C51.495,22.339,52.947,21.735,54.158,20.527z M49.798,12.457
		c1.017,0,1.888,0.363,2.613,1.091c0.727,0.73,1.088,1.6,1.088,2.618c0,1.02-0.361,1.893-1.088,2.615
		c-0.725,0.724-1.595,1.085-2.613,1.085L49.798,12.457z"/>
	<polygon id="XMLID_1369_" class="st0" points="36.246,27.81 36.246,24.167 21.273,24.167 21.273,31.461 21.273,35.1 21.273,42.394 
		26.273,42.394 36.246,42.394 36.246,38.743 26.273,38.743 26.273,35.1 33.751,35.1 33.751,31.461 26.273,31.461 26.273,27.81 	"/>
	<path id="XMLID_1411_" class="st0" d="M33.773,22.339h2.474v-4.522l3.156,4.522h3.021l-2.79-3.991
		c0.813-0.309,1.48-0.826,2.003-1.561c0.526-0.732,0.787-1.559,0.787-2.477c0-1.185-0.424-2.202-1.274-3.049
		c-0.847-0.85-1.867-1.273-3.057-1.273h-1.846h-2.474l0,4.323l0,4.32V22.339z M36.247,12.457h1.846c0.513,0,0.949,0.183,1.31,0.547
		c0.363,0.366,0.544,0.8,0.544,1.308c0,0.51-0.18,0.947-0.544,1.31c-0.361,0.361-0.797,0.544-1.31,0.544h-1.846l0-1.854
		L36.247,12.457z"/>
	<path id="XMLID_1408_" class="st0" d="M41.726,44.068c-0.815,0-1.512,0.291-2.091,0.871c-0.579,0.58-0.869,1.276-0.869,2.09
		c0,0.815,0.29,1.512,0.869,2.091c0.579,0.579,1.276,0.869,2.091,0.869c0.814,0,1.509-0.29,2.09-0.869
		c0.58-0.579,0.871-1.276,0.871-2.091c0-0.814-0.291-1.509-0.871-2.09C43.236,44.359,42.54,44.068,41.726,44.068z M42.981,48.283
		c-0.35,0.347-0.767,0.52-1.255,0.52c-0.489,0-0.908-0.173-1.254-0.52c-0.347-0.346-0.52-0.765-0.52-1.254
		c0-0.488,0.173-0.905,0.52-1.255c0.346-0.349,0.765-0.523,1.254-0.523c0.488,0,0.905,0.174,1.255,0.523
		c0.348,0.35,0.523,0.767,0.523,1.255C43.504,47.518,43.33,47.937,42.981,48.283z"/>
	<path id="XMLID_1405_" class="st0" d="M52.303,39.72c2.447-1.783,3.673-3.929,3.673-6.437c0-2.505-1.226-4.647-3.673-6.433
		c-2.447-1.787-5.38-2.682-8.81-2.682h-5v18.227l5,0C46.922,42.394,49.855,41.503,52.303,39.72z M43.492,27.81
		c2.056,0,3.816,0.536,5.28,1.609c1.469,1.077,2.199,2.362,2.199,3.863c0,1.505-0.729,2.794-2.199,3.859
		c-1.464,1.069-3.224,1.602-5.28,1.602V27.81z"/>
	<path id="XMLID_1362_" class="st0" d="M50.354,46.437l-0.687,0h-1.675l0,1.182h1.675c-0.124,0.346-0.338,0.629-0.642,0.851
		c-0.305,0.221-0.648,0.332-1.033,0.332c-0.489,0-0.908-0.173-1.254-0.52c-0.347-0.346-0.52-0.765-0.52-1.254
		c0-0.488,0.173-0.905,0.52-1.255c0.346-0.348,0.765-0.523,1.254-0.523c0.485,0,0.904,0.173,1.256,0.522l0.837-0.837
		c-0.272-0.267-0.587-0.479-0.945-0.634c-0.359-0.155-0.741-0.233-1.148-0.233c-0.815,0-1.512,0.291-2.091,0.871
		c-0.579,0.58-0.869,1.276-0.869,2.09c0,0.815,0.29,1.512,0.869,2.091c0.579,0.579,1.276,0.869,2.091,0.869
		c0.814,0,1.509-0.289,2.09-0.869c0.58-0.579,0.871-1.276,0.871-2.091c0-0.208-0.02-0.406-0.059-0.592L50.354,46.437z"/>
	<path id="XMLID_1401_" class="st0" d="M0,54.087h60V5.913H0L0,54.087z M1.442,7.428h57.115l0,45.144H1.442V7.428z"/>
	<polygon id="XMLID_1358_" class="st0" points="53.608,45.945 52.587,44.068 51.243,44.068 53.016,47.334 53.016,49.989 
		54.199,49.989 54.199,47.334 55.976,44.068 54.629,44.068 	"/>
	<polygon id="XMLID_1357_" class="st0" points="26.584,47.304 23.033,44.068 23.033,49.989 24.219,49.989 24.219,46.75 
		27.77,49.989 27.77,44.068 26.584,44.068 	"/>
	<polygon id="XMLID_1356_" class="st0" points="21.306,46.437 19.533,46.437 19.533,44.068 18.347,44.068 18.347,49.989 
		19.533,49.989 19.533,47.62 21.306,47.62 21.306,49.989 22.493,49.989 22.493,44.068 21.306,44.068 	"/>
	<path id="XMLID_1355_" class="st0" d="M15.831,48.803c-0.489,0-0.908-0.173-1.254-0.52c-0.347-0.346-0.52-0.765-0.52-1.254
		c0-0.488,0.173-0.905,0.52-1.255c0.346-0.348,0.765-0.523,1.254-0.523c0.485,0,0.904,0.173,1.256,0.522l0.837-0.837
		c-0.272-0.267-0.587-0.479-0.945-0.634c-0.359-0.156-0.741-0.233-1.148-0.233c-0.815,0-1.512,0.291-2.091,0.871
		c-0.579,0.58-0.869,1.276-0.869,2.09c0,0.815,0.29,1.512,0.869,2.091c0.579,0.579,1.276,0.869,2.091,0.869
		c0.408,0,0.79-0.078,1.148-0.233c0.359-0.156,0.673-0.367,0.945-0.637l-0.837-0.837C16.739,48.629,16.321,48.803,15.831,48.803z"/>
	<path id="XMLID_1384_" class="st0" d="M31.377,44.068c-0.815,0-1.512,0.291-2.091,0.871c-0.579,0.58-0.869,1.276-0.869,2.09
		c0,0.815,0.29,1.512,0.869,2.091c0.579,0.579,1.276,0.869,2.091,0.869c0.814,0,1.509-0.29,2.09-0.869
		c0.58-0.579,0.871-1.276,0.871-2.091c0-0.814-0.291-1.509-0.871-2.09C32.886,44.359,32.19,44.068,31.377,44.068z M32.632,48.283
		c-0.35,0.347-0.767,0.52-1.255,0.52c-0.489,0-0.908-0.173-1.254-0.52c-0.347-0.346-0.52-0.765-0.52-1.254
		c0-0.488,0.173-0.905,0.52-1.255c0.346-0.348,0.765-0.523,1.254-0.523c0.488,0,0.905,0.174,1.255,0.523
		c0.348,0.35,0.523,0.767,0.523,1.255C33.154,47.518,32.98,47.937,32.632,48.283z"/>
	<polygon id="XMLID_1352_" class="st0" points="35.868,44.068 34.682,44.068 34.682,49.989 38.234,49.989 38.234,48.803 
		35.868,48.803 	"/>
</g>
<g id="XMLID_128_">
</g>
<g id="XMLID_129_">
</g>
<g id="XMLID_137_">
</g>
<g id="XMLID_139_">
</g>
<g id="XMLID_140_">
</g>
<g id="XMLID_142_">
</g>
</svg>
