<?xml version="1.0" encoding="utf-8"?>
<!-- Generator: Adobe Illustrator 19.0.0, SVG Export Plug-In . SVG Version: 6.00 Build 0)  -->
<svg version="1.1" id="Icons" xmlns="http://www.w3.org/2000/svg" xmlns:xlink="http://www.w3.org/1999/xlink" x="0px" y="0px"
	 viewBox="0 0 60 60" style="enable-background:new 0 0 60 60;" xml:space="preserve">
<style type="text/css">
	.st0{fill:#939598;}
</style>
<g id="XMLID_105_">
	<path id="XMLID_106_" class="st0" d="M0.21,31.213c0.24,0.082,0.488,0.145,0.718,0.248c1.726,0.774,3.367,0.597,4.738-0.682
		c1.058-0.987,2.032-2.095,2.881-3.267c2.824-3.898,5.602-7.829,8.335-11.791c0.817-1.185,1.882-1.44,3.169-1.306
		c0.514,0.054,0.632,0.346,0.304,0.83c-0.451,0.667-0.942,1.308-1.409,1.964c-1.175,1.65-2.348,3.302-3.519,4.954
		c-0.111,0.156-0.207,0.323-0.424,0.666c0.515-0.177,0.878-0.244,1.183-0.416c1.231-0.693,2.531-1.305,3.647-2.155
		c2.3-1.754,4.506-3.632,6.731-5.482c0.591-0.492,2.681-0.889,3.274-0.5c0.102,0.067,0.127,0.465,0.032,0.58
		c-0.358,0.434-0.753,0.848-1.184,1.209c-3.446,2.886-7.305,5.117-11.326,7.082c-0.397,0.194-0.654,0.412-0.668,0.847
		c-0.061,1.823-0.114,3.646-0.164,5.469c-0.004,0.129,0.024,0.26,0.051,0.388c0.197,0.933,0.581,1.145,1.357,0.605
		c0.836-0.581,1.676-1.203,2.357-1.95c1.199-1.316,2.304-2.721,3.4-4.127c0.652-0.836,1.415-1.346,2.501-1.232
		c0.219,0.023,0.583,0.105,0.608,0.218c0.046,0.214-0.05,0.51-0.185,0.704c-0.835,1.197-1.705,2.368-2.545,3.561
		c-0.413,0.587-0.826,1.181-1.162,1.813c-0.177,0.332-0.186,0.753-0.272,1.134c0.387-0.121,0.857-0.142,1.148-0.381
		c0.974-0.799,1.948-1.617,2.804-2.538c0.991-1.065,1.88-2.227,2.769-3.382c0.625-0.812,1.393-1.235,2.416-1.129
		c0.216,0.022,0.532,0.101,0.599,0.246c0.073,0.159-0.035,0.466-0.159,0.641c-0.793,1.12-1.624,2.212-2.417,3.331
		c-0.453,0.639-0.865,1.308-1.277,1.974c-0.147,0.238-0.268,0.501-0.348,0.768c-0.043,0.146-0.03,0.386,0.062,0.473
		c0.084,0.079,0.339,0.064,0.466-0.005c0.38-0.207,0.761-0.429,1.096-0.702c1.95-1.595,3.687-3.39,5.058-5.515
		c0.592-0.918,1.413-1.305,2.491-1.225c0.661,0.049,0.805,0.306,0.44,0.876c-0.173,0.27-0.373,0.523-0.483,0.875
		c0.421-0.277,0.82-0.598,1.268-0.82c0.756-0.375,1.526-0.739,2.325-1.001c0.288-0.094,0.82,0.013,0.98,0.225
		c0.162,0.215,0.127,0.756-0.041,1.009c-0.612,0.921-1.313,1.782-1.985,2.663c-0.208,0.272-0.428,0.534-0.772,0.962
		c0.345-0.103,0.504-0.128,0.643-0.195c1.038-0.501,1.909-1.207,2.597-2.135c0.376-0.507,0.753-1.014,1.133-1.519
		c0.636-0.845,1.524-1.024,2.507-0.928c0.374,0.036,0.49,0.28,0.359,0.602c-0.088,0.216-0.255,0.401-0.392,0.596
		c-1.14,1.621-2.304,3.224-3.404,4.872c-0.251,0.376-0.275,0.902-0.404,1.359c0.439-0.161,0.966-0.219,1.301-0.503
		c0.977-0.827,1.935-1.692,2.795-2.637c1.271-1.397,2.601-2.706,4.298-3.566c1.377-0.698,2.797-1.131,4.296-0.274
		c0.121,0.069,0.344-0.03,0.517-0.064c0.649-0.126,1.292-0.311,1.946-0.369c0.443-0.039,0.546,0.296,0.354,0.671
		c-0.098,0.191-0.255,0.351-0.379,0.53c-1.166,1.681-2.35,3.351-3.478,5.057c-0.209,0.316-0.186,0.784-0.271,1.182
		c0.369-0.129,0.826-0.162,1.092-0.404c1.413-1.289,2.779-2.629,4.158-3.955c0.219-0.211,0.399-0.469,0.637-0.651
		c0.132-0.101,0.348-0.092,0.527-0.133c0.031,0.199,0.121,0.412,0.077,0.593c-0.054,0.223-0.196,0.438-0.34,0.624
		c-1.633,2.118-3.496,4.006-5.72,5.503c-0.51,0.343-1.118,0.602-1.717,0.74c-1.189,0.275-1.897-0.426-1.754-1.64
		c0.032-0.276,0.093-0.549,0.168-0.984c-0.305,0.264-0.484,0.445-0.688,0.59c-0.777,0.555-1.517,1.186-2.354,1.63
		c-1.911,1.013-2.9,0.49-3.193-1.635c-0.593,0.435-1.134,0.912-1.748,1.259c-0.615,0.348-1.28,0.661-1.963,0.819
		c-0.923,0.213-1.578-0.337-1.513-1.284c0.048-0.695,0.326-1.376,0.524-2.057c0.063-0.217,0.199-0.414,0.34-0.698
		c-0.66,0.229-1.214,0.478-1.795,0.608c-0.501,0.112-1.037,0.145-1.55,0.112c-0.662-0.043-0.866-0.421-0.505-0.975
		c0.557-0.856,1.192-1.661,1.794-2.487c0.139-0.191,0.283-0.38,0.359-0.681c-0.247,0.128-0.511,0.231-0.738,0.388
		c-1.465,1.012-2.726,2.234-3.754,3.69c-0.528,0.747-1.052,1.497-1.569,2.252c-0.547,0.798-1.286,1.231-2.263,1.168
		c-0.257-0.016-0.594-0.088-0.729-0.262c-0.093-0.121,0.089-0.464,0.165-0.702c0.036-0.113,0.112-0.214,0.095-0.402
		c-0.333,0.219-0.649,0.469-1.002,0.649c-0.48,0.244-0.97,0.513-1.487,0.632c-1.277,0.294-1.973-0.36-1.85-1.663
		c0.018-0.193,0.054-0.385,0.106-0.747c-0.306,0.251-0.494,0.441-0.714,0.58c-0.968,0.612-1.887,1.359-2.935,1.773
		c-1.347,0.532-2.381-0.183-2.097-1.686c0.011-0.059-0.016-0.126-0.041-0.292c-0.222,0.178-0.39,0.334-0.578,0.458
		c-0.743,0.489-1.453,1.049-2.248,1.431c-1.114,0.535-1.998,0.18-2.387-0.996c-0.31-0.938-0.513-1.945-0.56-2.93
		c-0.06-1.254,0.085-2.519,0.144-3.779c0.008-0.167,0.025-0.334-0.064-0.549c-0.327,0.474-0.652,0.949-0.981,1.421
		c-1.21,1.736-2.461,3.437-4.076,4.832c-1.789,1.545-3.847,2.344-6.228,2.269c-0.794-0.025-1.513-0.251-2.076-0.813
		c-0.215-0.215-0.314-0.547-0.466-0.825C0.07,31.337,0.14,31.275,0.21,31.213z M54.468,24.579c-1.043-0.522-1.846-0.217-2.603,0.17
		c-1.727,0.883-3.068,2.203-4.077,3.847c-0.244,0.398-0.401,0.874-0.49,1.336c-0.116,0.597,0.289,0.898,0.869,0.697
		c0.244-0.085,0.506-0.179,0.699-0.342c0.91-0.77,1.853-1.513,2.681-2.366C52.554,26.883,53.457,25.745,54.468,24.579z"/>
	<path id="XMLID_109_" class="st0" d="M15.062,40.185c-0.068,0.677-0.085,1.268-0.193,1.842c-0.525,2.797-2.376,4.127-5.217,3.776
		c-1.958-0.242-3.177-1.287-3.661-3.203c-0.385-1.522-0.398-3.06-0.015-4.588c0.558-2.222,2.107-3.389,4.427-3.361
		c2.369,0.028,3.905,1.225,4.398,3.485C14.953,38.833,14.985,39.556,15.062,40.185z M12.788,40.077
		c-0.165-0.985-0.273-2.115-0.56-3.197c-0.263-0.993-0.98-1.474-1.842-1.489c-0.869-0.015-1.572,0.51-1.922,1.492
		C8.32,37.29,8.18,37.724,8.17,38.149c-0.034,1.388-0.068,2.782,0.023,4.165c0.041,0.626,0.289,1.283,0.599,1.839
		c0.684,1.226,2.284,1.264,3.077,0.106c0.228-0.334,0.422-0.73,0.495-1.124C12.541,42.176,12.638,41.203,12.788,40.077z"/>
	<path id="XMLID_112_" class="st0" d="M19.525,41.041c0,1.106-0.007,2.148,0.003,3.19c0.004,0.458,0.316,0.61,0.715,0.708
		c0.185,0.046,0.336,0.228,0.502,0.348c-0.195,0.106-0.389,0.298-0.587,0.303c-1.197,0.028-2.395,0.025-3.592,0.001
		c-0.163-0.003-0.323-0.177-0.485-0.271c0.132-0.128,0.25-0.345,0.397-0.367c0.609-0.092,0.775-0.458,0.773-1.01
		c-0.009-2.461-0.011-4.921,0.001-7.382c0.003-0.592-0.196-0.952-0.827-1.032c-0.128-0.016-0.231-0.225-0.346-0.344
		c0.136-0.098,0.272-0.281,0.409-0.281c1.742-0.009,3.489-0.079,5.223,0.041c2.152,0.149,3.2,1.611,2.802,3.677
		c-0.245,1.271-1.227,2.085-2.769,2.257C21.037,40.958,20.322,40.985,19.525,41.041z M19.518,40.126
		c0.976,0.067,1.846,0.103,2.426-0.748c0.508-0.745,0.485-2.268-0.015-2.989c-0.376-0.542-1.514-0.932-2.108-0.681
		c-0.137,0.058-0.286,0.285-0.289,0.437C19.508,37.444,19.518,38.744,19.518,40.126z"/>
	<path id="XMLID_115_" class="st0" d="M49.121,42.938c0.263-0.072,0.507-0.139,0.787-0.215c0.165,0.413,0.301,0.798,0.471,1.167
		c0.342,0.743,0.908,1.141,1.752,1.112c0.7-0.025,1.241-0.316,1.476-0.982c0.263-0.747,0.195-1.5-0.43-2.045
		c-0.769-0.671-1.649-1.217-2.393-1.912c-0.54-0.504-1.126-1.097-1.358-1.765c-0.559-1.609,0.361-3.07,2.024-3.482
		c1.061-0.263,2.123-0.2,3.159,0.113c0.205,0.062,0.441,0.333,0.489,0.546c0.135,0.609,0.179,1.238,0.267,1.918
		c-0.301,0.041-0.547,0.075-0.811,0.112c-0.135-0.421-0.175-0.848-0.393-1.145c-0.249-0.34-0.616-0.697-1.002-0.812
		c-0.757-0.226-1.416,0.081-1.707,0.617c-0.32,0.587-0.21,1.369,0.4,1.895c0.839,0.723,1.798,1.311,2.608,2.063
		c0.521,0.484,1.059,1.1,1.255,1.756c0.537,1.797-0.515,3.368-2.394,3.814c-1.155,0.274-2.295,0.144-3.415-0.185
		c-0.169-0.05-0.38-0.244-0.416-0.406C49.337,44.402,49.244,43.692,49.121,42.938z"/>
	<path id="XMLID_116_" class="st0" d="M28.453,35.721c-0.516,0-0.948-0.028-1.376,0.006c-0.721,0.058-0.801,0.655-0.89,1.187
		c-0.093,0.557-0.31,0.838-0.982,0.577c0.097-0.766,0.181-1.557,0.315-2.339c0.019-0.109,0.287-0.249,0.44-0.25
		c2.417-0.016,4.833-0.015,7.25,0.001c0.146,0.001,0.4,0.152,0.419,0.265c0.13,0.766,0.211,1.541,0.308,2.315
		c-0.581,0.218-0.834,0.093-0.951-0.499c-0.239-1.215-0.702-1.497-1.945-1.26c-0.145,0.028-0.357,0.264-0.357,0.405
		c-0.01,2.656,0.007,5.311,0.021,7.967c0.003,0.528,0.286,0.81,0.801,0.835c0.407,0.02,0.555,0.188,0.392,0.627
		c-1.538,0-3.095,0-4.665,0c-0.168-0.416-0.054-0.606,0.398-0.627c0.504-0.023,0.819-0.284,0.82-0.82
		C28.455,41.35,28.453,38.587,28.453,35.721z"/>
	<path id="XMLID_117_" class="st0" d="M47.844,37.828c-0.278,0.067-0.504,0.121-0.8,0.192c-0.102-0.405-0.187-0.78-0.293-1.149
		c-0.208-0.725-0.538-1.355-1.388-1.459c-0.867-0.106-1.616,0.224-1.967,0.99c-0.364,0.793-0.67,1.68-0.709,2.539
		c-0.057,1.266,0.098,2.55,0.265,3.813c0.062,0.467,0.349,0.943,0.643,1.333c0.821,1.086,2.242,1.068,3.056-0.026
		c0.282-0.378,0.467-0.828,0.734-1.313c0.208,0.045,0.451,0.099,0.76,0.166c-0.273,1.147-0.794,2.052-1.851,2.566
		c-2.114,1.027-4.764-0.008-5.561-2.206c-0.648-1.789-0.696-3.633-0.171-5.457c0.661-2.296,2.61-3.455,5.118-3.125
		c1.731,0.228,1.73,0.228,1.987,1.958C47.725,37.034,47.783,37.416,47.844,37.828z"/>
	<path id="XMLID_118_" class="st0" d="M34.679,34.894c1.411,0,2.822-0.007,4.233,0.013c0.111,0.002,0.301,0.186,0.307,0.294
		c0.006,0.107-0.17,0.318-0.273,0.322c-0.818,0.037-0.924,0.584-0.924,1.221c-0.001,2.33-0.001,4.66,0,6.991
		c0,0.633,0.099,1.187,0.917,1.231c0.107,0.006,0.284,0.209,0.281,0.318c-0.002,0.107-0.189,0.301-0.297,0.302
		C37.511,45.607,36.1,45.6,34.689,45.6c-0.153-0.398-0.127-0.634,0.319-0.668c0.613-0.046,0.785-0.44,0.784-0.991
		c-0.006-2.461-0.008-4.922,0.001-7.383c0.002-0.59-0.206-0.941-0.835-1.031c-0.157-0.023-0.279-0.295-0.417-0.452
		C34.586,35.015,34.633,34.954,34.679,34.894z"/>
	<path id="XMLID_119_" class="st0" d="M48.867,19.731c0.011,0.897-0.61,1.549-1.478,1.552c-0.873,0.003-1.526-0.64-1.533-1.511
		c-0.007-0.865,0.647-1.512,1.528-1.509C48.257,18.267,48.856,18.86,48.867,19.731z"/>
</g>
<g id="XMLID_10_">
</g>
<g id="XMLID_16_">
</g>
<g id="XMLID_18_">
</g>
<g id="XMLID_19_">
</g>
<g id="XMLID_20_">
</g>
<g id="XMLID_22_">
</g>
</svg>
