<?xml version="1.0" encoding="utf-8"?>
<!-- Generator: Adobe Illustrator 18.1.1, SVG Export Plug-In . SVG Version: 6.00 Build 0)  -->
<svg version="1.1" id="Corner" xmlns="http://www.w3.org/2000/svg" xmlns:xlink="http://www.w3.org/1999/xlink" x="0px" y="0px"
	 viewBox="0 0 140 140" style="enable-background:new 0 0 140 140;" xml:space="preserve">
<style type="text/css">
	.st0{fill:url(#SVGID_1_);}
	.st1{fill:url(#SVGID_2_);}
	.st2{fill:#C6A571;}
	.st3{fill:#FFFFFF;}
	.st4{fill:url(#SVGID_3_);}
</style>
<linearGradient id="SVGID_1_" gradientUnits="userSpaceOnUse" x1="6.6094" y1="145.546" x2="133.3906" y2="-5.546">
	<stop  offset="0.65" style="stop-color:#AAAAAA;stop-opacity:0"/>
	<stop  offset="0.6928" style="stop-color:#A6A6A6;stop-opacity:0.2378"/>
	<stop  offset="0.7371" style="stop-color:#999999;stop-opacity:0.4841"/>
	<stop  offset="0.7822" style="stop-color:#858585;stop-opacity:0.7343"/>
	<stop  offset="0.8275" style="stop-color:#686868;stop-opacity:0.9859"/>
	<stop  offset="0.83" style="stop-color:#666666"/>
</linearGradient>
<rect x="0" y="0" class="st0" width="140" height="140"/>
<linearGradient id="SVGID_2_" gradientUnits="userSpaceOnUse" x1="-235.999" y1="361.059" x2="-234.999" y2="361.059" gradientTransform="matrix(14.1445 -18.4189 -18.4189 -14.1445 10085.7119 790.4321)">
	<stop  offset="0" style="stop-color:#C6A571"/>
	<stop  offset="0.4" style="stop-color:#E2C675"/>
	<stop  offset="1" style="stop-color:#F4E09C"/>
</linearGradient>
<path class="st1" d="M139.993,0.001H48.947c8.221,0.076,15.426,3.968,24.367,9.946c3.569,2.483,7.509,7.352,12.028,19.079
	l11.107,5.974l31.872,25.617c1.133-0.147,2.2-0.225,3.199-0.225c1.909,0,3.571,0.283,4.972,0.904
	c2.652,1.275,3.424,4.418,3.503,6.673V0.001"/>
<g>
	<path class="st2" d="M100.833,35.673L97.345,24.11c-0.119-0.393-0.941-3.019-1.686-6.586c0.117,2.979,0.312,8.075,0.312,9.722
		v8.428h-3.215V9.527h3.293l3.332,11.76c0.902,3.176,1.215,4.352,1.803,6.86c-0.195-3.097-0.352-6.468-0.352-9.329V9.527h3.176
		v26.146H100.833z"/>
	<path class="st2" d="M106.987,35.673V9.527h8.898v3.332h-4.979v7.448h3.605v3.332h-3.605v8.702h5.33v3.332H106.987z"/>
	<path class="st2" d="M128.077,35.673l-1.805-13.603c-0.195-1.45-0.391-3.802-0.549-5.566c-0.039,1.02-0.234,3.764-0.43,5.449
		l-1.646,13.72h-3.137L117.14,9.527h3.566l1.217,12.309c0.117,0.98,0.352,5.292,0.43,6.154c0.08-2.273,0.236-4.625,0.432-6.075
		l1.334-12.388h3.252l1.646,12.427c0.158,1.215,0.432,5.057,0.549,6.311c0-0.666,0-0.862,0.039-2.548
		c0.119-2.822,0.158-2.939,0.197-3.763l0.98-12.427h3.332l-3.02,26.146H128.077z"/>
</g>
<g>
	<path class="st3" d="M99.073,33.912l-3.488-11.564c-0.119-0.392-0.941-3.018-1.686-6.585c0.117,2.979,0.312,8.075,0.312,9.722
		v8.428h-3.215V7.766h3.293l3.332,11.76c0.902,3.176,1.215,4.352,1.803,6.86c-0.195-3.097-0.352-6.468-0.352-9.329V7.766h3.176
		v26.146H99.073z"/>
	<path class="st3" d="M105.228,33.912V7.766h8.898v3.332h-4.979v7.448h3.605v3.332h-3.605v8.702h5.33v3.332H105.228z"/>
	<path class="st3" d="M126.317,33.912l-1.805-13.603c-0.195-1.45-0.391-3.802-0.549-5.566c-0.039,1.02-0.234,3.764-0.43,5.449
		l-1.646,13.72h-3.137L115.38,7.766h3.566l1.217,12.309c0.117,0.98,0.352,5.292,0.43,6.154c0.08-2.273,0.236-4.625,0.432-6.075
		l1.334-12.388h3.252l1.646,12.427c0.158,1.215,0.432,5.057,0.549,6.311c0-0.666,0-0.862,0.039-2.548
		c0.119-2.822,0.158-2.939,0.197-3.763l0.98-12.427h3.332l-3.02,26.146H126.317z"/>
</g>
<linearGradient id="SVGID_3_" gradientUnits="userSpaceOnUse" x1="-235.999" y1="361.3323" x2="-234.999" y2="361.3323" gradientTransform="matrix(21.8777 -26.1992 -26.1992 -21.8777 14715.1992 1781.916)">
	<stop  offset="0" style="stop-color:#E7E7E7"/>
	<stop  offset="0.25" style="stop-color:#E7E7E7"/>
	<stop  offset="0.5" style="stop-color:#CCCCCC"/>
	<stop  offset="0.8375" style="stop-color:#939597"/>
	<stop  offset="1" style="stop-color:#E0E0E0"/>
</linearGradient>
<path class="st4" d="M96.977,70.708c-9.834-44.437-17.325-56.353-23.659-60.76l64.159,51.972
	C130.123,57.882,115.706,63.629,96.977,70.708z"/>
</svg>
