<?xml version="1.0" encoding="utf-8"?>
<!-- Generator: Adobe Illustrator 18.1.1, SVG Export Plug-In . SVG Version: 6.00 Build 0)  -->
<svg version="1.1" id="Layer_1" xmlns="http://www.w3.org/2000/svg" xmlns:xlink="http://www.w3.org/1999/xlink" x="0px" y="0px"
	 viewBox="0 0 1280 512.6" style="enable-background:new 0 0 1280 512.6;" xml:space="preserve">
<style type="text/css">
	.st0{opacity:0.4;}
	.st1{fill:#363232;}
</style>
<g class="st0">
	<polygon class="st1" points="449,311.3 449,195.6 449,195.6 299.9,195.6 299.9,195.6 299.9,311.3 299.9,311.3 449,311.3 	"/>
	<path class="st1" d="M0,379.7l0,63c0,2.4,0.1,4.7,0.4,6.9l0.2,1.2l0,0.8c0.1,0.6,0.2,1.1,0.3,1.7l225.6-121.3
		c3.4,12,9,21.5,17.2,28.6c0.3,0.3,0.7,0.6,1,0.8L79.3,512.6h74.1h27.7l98.4-137c6.9,1,14.6,1.6,23.1,1.6h5.1l-67.6,135.4h50.8h8.3
		l39.3-135.4h19.8L344,512.6h50.2l-8.2-135.4h19.6l25,135.4h14h92.1l-88.7-135.5c11.3-0.1,21.2-1.1,29.8-3.1l125.5,138.6h33.6h74.6
		l-202-156.1c5.4-5.9,9.4-13,12.2-21.6l24.3,12.1l0,0l330.6,165.6H1280L555.5,300.1l0,0l-29.4-8.6v-80.7L1276,0L991.2,0l-99.7,0
		L522.7,174.7c-3-11-8-19.9-14.9-27L689,0l-81.8,0l-16,0L475.9,131.3c-8.6-1.9-18.4-2.8-29.7-2.8h-1.6L512.6,0l-50.3,0l-9.1,0
		l-40.2,128.5h-23.6L398.7,0L347,0l10.5,128.5h-23.4L289,0l-10.9,0l-49.8,0L301,128.5c-10.2,0.1-19.2,1-27.1,2.7L158.1,0l-13.5,0
		L70.5,0c-2.4,0-4.8,0.1-7.2,0.4c-1,0.1-2,0.3-3,0.5l-1.4,0.2c-0.7,0.1-1.5,0.2-2.2,0.3l-0.1,0l184.9,146.4
		c-7.4,7.4-12.6,16.8-15.6,28.6L0.1,68.8c0,0.3-0.1,0.7-0.1,1.1l0,76.6l0,12.4l222.8,54.8v22.7L0,219.9l0,78l222.8-25.3v25.9
		L0,379.7z M254.4,203.9c0-7.2,0.6-13.3,1.8-18.5l0,0c0.4-1.6,0.8-3.1,1.2-4.5l0,0c1.1-3.4,2.6-6.3,4.4-8.7c0.3-0.3,0.5-0.7,0.8-1
		c0.7-0.8,1.3-1.5,2.1-2.2c0,0,0,0,0,0l0,0c0.6-0.5,1.2-0.9,1.8-1.4c6.7-4.7,17.7-7.2,32.9-7.5c1.1,0,2.1-0.1,3.2-0.1h143.6
		c18.7,0,31.5,3,38.2,9c0.7,0.6,1.3,1.3,1.9,2.1l0,0c1.2,1.4,2.3,3.1,3.2,5c0,0,0,0,0,0c0.6,1.1,1.1,2.3,1.5,3.6c0,0,0,0,0,0
		c0.5,1.3,0.9,2.6,1.2,4.1c0,0,0,0,0,0.1c0.4,1.4,0.7,3,1,4.6l0,0v0c0.8,4.5,1.2,9.6,1.2,15.4v97.8c0,11.5-1.5,20.5-4.4,26.9
		c0,0,0,0,0,0c-0.5,1.2-1.1,2.3-1.7,3.3c0,0,0,0.1-0.1,0.1c-0.6,1-1.3,1.9-2,2.8l0,0l0,0c-0.6,0.7-1.2,1.4-1.9,2l0,0c0,0,0,0,0,0
		c-0.1,0.1-0.2,0.1-0.3,0.2c-6.8,5.7-19.4,8.6-37.9,8.6H302.7c-16.9,0-28.9-2.4-36-7.2c-0.8-0.5-1.5-1-2.2-1.6
		c-1.3-1.1-2.4-2.5-3.5-4.1c-0.7-1-1.3-2.1-1.8-3.2c0,0,0,0,0,0c-0.6-1.2-1.1-2.4-1.5-3.8c0,0,0,0,0,0c-0.5-1.3-0.9-2.8-1.2-4.3
		c0,0,0,0,0,0c-0.4-1.5-0.7-3.1-0.9-4.8l0,0c-0.7-4.4-1.1-9.3-1.1-14.8V203.9z"/>
</g>
<g>
</g>
<g>
</g>
<g>
</g>
<g>
</g>
<g>
</g>
<g>
</g>
</svg>
