<?xml version="1.0" encoding="utf-8"?>
<!-- Generator: Adobe Illustrator 19.0.0, SVG Export Plug-In . SVG Version: 6.00 Build 0)  -->
<svg version="1.1" id="Layer_4" xmlns="http://www.w3.org/2000/svg" xmlns:xlink="http://www.w3.org/1999/xlink" x="0px" y="0px"
	 viewBox="0 0 500 70" style="enable-background:new 0 0 500 70;" xml:space="preserve">
<style type="text/css">
	.st0{fill:#423F3F;}
	.st1{fill:none;stroke:#939598;stroke-miterlimit:10;}
	.st2{fill:#939598;}
</style>
<g>
	<g>
		<path class="st0" d="M38.208,9.849H34.32v3.924h3.888v-1.332l1.44,0.3v0.732c0,0.576-0.108,0.964-0.324,1.164s-0.62,0.3-1.212,0.3
			h-3.696c-0.592,0-0.996-0.1-1.212-0.3c-0.216-0.2-0.324-0.588-0.324-1.164v-3.264c0-0.576,0.108-0.965,0.324-1.164
			c0.216-0.2,0.62-0.301,1.212-0.301h3.696c0.592,0,0.996,0.101,1.212,0.301c0.216,0.199,0.324,0.588,0.324,1.164v0.588l-1.44,0.228
			V9.849z"/>
		<path class="st0" d="M42.492,10.209c0-0.576,0.108-0.965,0.324-1.164c0.216-0.2,0.62-0.301,1.212-0.301h4.56
			c0.592,0,0.996,0.101,1.212,0.301c0.216,0.199,0.324,0.588,0.324,1.164v3.264c0,0.576-0.108,0.964-0.324,1.164
			c-0.216,0.2-0.62,0.3-1.212,0.3h-4.56c-0.592,0-0.996-0.1-1.212-0.3c-0.216-0.2-0.324-0.588-0.324-1.164V10.209z M43.932,13.773
			h4.752V9.849h-4.752V13.773z"/>
		<path class="st0" d="M53.148,14.937V8.744h0.984l4.356,3.648c0.312,0.264,0.548,0.488,0.708,0.672
			c-0.04-0.576-0.06-0.932-0.06-1.068V8.744h1.296v6.192h-0.984L54.9,11.109c-0.192-0.16-0.364-0.328-0.516-0.504
			c0.04,0.4,0.06,0.729,0.06,0.984v3.348H53.148z"/>
		<path class="st0" d="M68.952,9.825h-4.068v1.332h3.873c0.593,0,1,0.101,1.221,0.3c0.221,0.2,0.331,0.589,0.331,1.164v0.853
			c0,0.576-0.11,0.964-0.33,1.164c-0.22,0.2-0.626,0.3-1.218,0.3h-3.828c-0.592,0-0.998-0.1-1.218-0.3s-0.33-0.588-0.33-1.164
			v-0.168l1.272-0.265v0.732h4.38v-1.416h-3.864c-0.592,0-0.996-0.1-1.212-0.3s-0.324-0.588-0.324-1.164v-0.684
			c0-0.576,0.108-0.965,0.324-1.164c0.216-0.2,0.62-0.301,1.212-0.301h3.516c0.568,0,0.966,0.097,1.194,0.288
			c0.228,0.192,0.342,0.549,0.342,1.068v0.132l-1.272,0.3V9.825z"/>
		<path class="st0" d="M74.736,8.744v5.028h4.104V8.744h1.44v4.729c0,0.576-0.108,0.964-0.324,1.164c-0.216,0.2-0.62,0.3-1.212,0.3
			h-3.912c-0.592,0-0.996-0.1-1.212-0.3c-0.216-0.2-0.324-0.588-0.324-1.164V8.744H74.736z"/>
		<path class="st0" d="M83.448,14.937V8.744h1.44v5.028h4.644v1.164H83.448z"/>
		<path class="st0" d="M94.523,9.849v5.088h-1.44V9.849H90.24V8.744h7.14v1.104H94.523z"/>
		<path class="st0" d="M97.956,14.937l3.504-6.192h1.392l3.552,6.192h-1.62l-0.744-1.356h-3.924l-0.72,1.356H97.956z
			 M100.728,12.465h2.712l-1.332-2.521L100.728,12.465z"/>
		<path class="st0" d="M111.275,9.849v5.088h-1.44V9.849h-2.844V8.744h7.14v1.104H111.275z"/>
		<path class="st0" d="M115.896,14.937V8.744h1.44v6.192H115.896z"/>
		<path class="st0" d="M120.372,10.209c0-0.576,0.108-0.965,0.324-1.164c0.216-0.2,0.62-0.301,1.212-0.301h4.56
			c0.592,0,0.996,0.101,1.212,0.301c0.216,0.199,0.324,0.588,0.324,1.164v3.264c0,0.576-0.108,0.964-0.324,1.164
			c-0.216,0.2-0.62,0.3-1.212,0.3h-4.56c-0.592,0-0.996-0.1-1.212-0.3c-0.216-0.2-0.324-0.588-0.324-1.164V10.209z M121.812,13.773
			h4.752V9.849h-4.752V13.773z"/>
		<path class="st0" d="M131.027,14.937V8.744h0.984l4.356,3.648c0.312,0.264,0.548,0.488,0.708,0.672
			c-0.04-0.576-0.06-0.932-0.06-1.068V8.744h1.296v6.192h-0.984l-4.548-3.828c-0.192-0.16-0.364-0.328-0.516-0.504
			c0.04,0.4,0.06,0.729,0.06,0.984v3.348H131.027z"/>
	</g>
	<g>
		<path class="st0" d="M59.604,55.086h-3.888v3.924h3.888v-1.332l1.44,0.3v0.732c0,0.576-0.108,0.964-0.324,1.164
			s-0.62,0.3-1.212,0.3h-3.696c-0.592,0-0.996-0.1-1.212-0.3c-0.216-0.2-0.324-0.588-0.324-1.164v-3.264
			c0-0.576,0.108-0.965,0.324-1.164c0.216-0.2,0.62-0.301,1.212-0.301h3.696c0.592,0,0.996,0.101,1.212,0.301
			c0.216,0.199,0.324,0.588,0.324,1.164v0.588l-1.44,0.228V55.086z"/>
		<path class="st0" d="M63.888,55.447c0-0.576,0.108-0.965,0.324-1.164c0.216-0.2,0.62-0.301,1.212-0.301h4.56
			c0.592,0,0.996,0.101,1.212,0.301c0.216,0.199,0.324,0.588,0.324,1.164v3.264c0,0.576-0.108,0.964-0.324,1.164
			c-0.216,0.2-0.62,0.3-1.212,0.3h-4.56c-0.592,0-0.996-0.1-1.212-0.3c-0.216-0.2-0.324-0.588-0.324-1.164V55.447z M65.328,59.01
			h4.752v-3.924h-4.752V59.01z"/>
		<path class="st0" d="M74.544,60.174v-6.192h0.984l4.356,3.648c0.312,0.264,0.548,0.488,0.708,0.672
			c-0.04-0.576-0.06-0.932-0.06-1.068v-3.252h1.296v6.192h-0.984l-4.548-3.828c-0.192-0.16-0.364-0.328-0.516-0.504
			c0.04,0.4,0.06,0.729,0.06,0.984v3.348H74.544z"/>
		<path class="st0" d="M90.18,55.086h-3.888v3.924h3.888v-1.332l1.44,0.3v0.732c0,0.576-0.108,0.964-0.324,1.164
			s-0.62,0.3-1.212,0.3h-3.696c-0.592,0-0.996-0.1-1.212-0.3c-0.216-0.2-0.324-0.588-0.324-1.164v-3.264
			c0-0.576,0.108-0.965,0.324-1.164c0.216-0.2,0.62-0.301,1.212-0.301h3.696c0.592,0,0.996,0.101,1.212,0.301
			c0.216,0.199,0.324,0.588,0.324,1.164v0.588l-1.44,0.228V55.086z"/>
		<path class="st0" d="M94.596,60.174v-6.192h6.336v1.057h-4.896v1.38h2.856v1.056h-2.856v1.536h4.956v1.164H94.596z"/>
		<path class="st0" d="M103.656,60.174v-6.192h5.304c0.928,0,1.392,0.4,1.392,1.2v1.38c0,0.801-0.464,1.2-1.392,1.2h-3.888v2.412
			H103.656z M108.312,55.038h-3.24v1.668h3.24c0.224,0,0.38-0.024,0.468-0.073c0.12-0.073,0.18-0.215,0.18-0.426v-0.67
			c0-0.211-0.06-0.354-0.18-0.426C108.692,55.063,108.536,55.038,108.312,55.038z"/>
		<path class="st0" d="M115.452,55.086v5.088h-1.44v-5.088h-2.844v-1.104h7.14v1.104H115.452z"/>
	</g>
	<g>
		<path class="st0" d="M198.129,14.937V8.744h5.304c0.928,0,1.392,0.4,1.392,1.2v1.38c0,0.801-0.464,1.2-1.392,1.2h-3.888v2.412
			H198.129z M202.786,9.801h-3.24v1.668h3.24c0.224,0,0.38-0.024,0.468-0.073c0.12-0.073,0.18-0.215,0.18-0.426V10.3
			c0-0.211-0.06-0.354-0.18-0.426C203.166,9.825,203.009,9.801,202.786,9.801z"/>
		<path class="st0" d="M207.045,14.937V8.744h5.304c0.928,0,1.392,0.4,1.392,1.2v1.452c0,0.8-0.464,1.2-1.392,1.2h-0.816l2.856,2.34
			h-2.064l-2.496-2.34h-1.368v2.34H207.045z M211.702,9.801h-3.24v1.739h3.24c0.224,0,0.38-0.023,0.468-0.072
			c0.12-0.072,0.18-0.213,0.18-0.423v-0.749c0-0.209-0.06-0.351-0.18-0.423C212.082,9.825,211.925,9.801,211.702,9.801z"/>
		<path class="st0" d="M216.538,10.209c0-0.576,0.108-0.965,0.324-1.164c0.216-0.2,0.62-0.301,1.212-0.301h4.56
			c0.592,0,0.996,0.101,1.212,0.301c0.216,0.199,0.324,0.588,0.324,1.164v3.264c0,0.576-0.108,0.964-0.324,1.164
			c-0.216,0.2-0.62,0.3-1.212,0.3h-4.56c-0.592,0-0.996-0.1-1.212-0.3c-0.216-0.2-0.324-0.588-0.324-1.164V10.209z M217.978,13.773
			h4.752V9.849h-4.752V13.773z"/>
		<path class="st0" d="M230.085,9.849v5.088h-1.44V9.849h-2.844V8.744h7.14v1.104H230.085z"/>
		<path class="st0" d="M234.573,10.209c0-0.576,0.108-0.965,0.324-1.164c0.216-0.2,0.62-0.301,1.212-0.301h4.56
			c0.592,0,0.996,0.101,1.212,0.301c0.216,0.199,0.324,0.588,0.324,1.164v3.264c0,0.576-0.108,0.964-0.324,1.164
			c-0.216,0.2-0.62,0.3-1.212,0.3h-4.56c-0.592,0-0.996-0.1-1.212-0.3c-0.216-0.2-0.324-0.588-0.324-1.164V10.209z M236.013,13.773
			h4.752V9.849h-4.752V13.773z"/>
		<path class="st0" d="M248.121,9.849v5.088h-1.44V9.849h-2.844V8.744h7.14v1.104H248.121z"/>
		<path class="st0" d="M254.469,14.937v-2.772l-3.216-3.42h1.92l2.124,2.376l2.136-2.376h1.692l-3.204,3.385v2.808H254.469z"/>
		<path class="st0" d="M260.806,14.937V8.744h5.304c0.928,0,1.392,0.4,1.392,1.2v1.38c0,0.801-0.464,1.2-1.392,1.2h-3.888v2.412
			H260.806z M265.462,9.801h-3.24v1.668h3.24c0.224,0,0.38-0.024,0.468-0.073c0.12-0.073,0.18-0.215,0.18-0.426V10.3
			c0-0.211-0.06-0.354-0.18-0.426C265.842,9.825,265.686,9.801,265.462,9.801z"/>
		<path class="st0" d="M269.721,14.937V8.744h1.44v6.192H269.721z"/>
		<path class="st0" d="M274.316,14.937V8.744h0.984l4.356,3.648c0.312,0.264,0.548,0.488,0.708,0.672
			c-0.04-0.576-0.061-0.932-0.061-1.068V8.744h1.296v6.192h-0.983l-4.548-3.828c-0.192-0.16-0.364-0.328-0.517-0.504
			c0.04,0.4,0.061,0.729,0.061,0.984v3.348H274.316z"/>
		<path class="st0" d="M290.564,9.849h-4.5v3.924h4.5v-1.38h-2.352v-1.056h3.756v2.136c0,0.576-0.108,0.964-0.324,1.164
			s-0.62,0.3-1.212,0.3h-4.272c-0.592,0-0.995-0.1-1.212-0.3c-0.216-0.2-0.323-0.588-0.323-1.164v-3.264
			c0-0.576,0.107-0.965,0.323-1.164c0.217-0.2,0.62-0.301,1.212-0.301h4.272c0.576,0,0.976,0.099,1.2,0.294
			c0.224,0.196,0.336,0.566,0.336,1.11v0.145l-1.404,0.252V9.849z"/>
	</g>
	<g>
		<path class="st0" d="M215.697,55.062h-4.068v1.332h3.873c0.593,0,1,0.101,1.221,0.3c0.221,0.2,0.331,0.589,0.331,1.164v0.853
			c0,0.576-0.11,0.964-0.33,1.164c-0.22,0.2-0.626,0.3-1.218,0.3h-3.828c-0.592,0-0.998-0.1-1.218-0.3s-0.33-0.588-0.33-1.164
			v-0.168l1.272-0.265v0.732h4.38v-1.416h-3.864c-0.592,0-0.996-0.1-1.212-0.3s-0.324-0.588-0.324-1.164v-0.684
			c0-0.576,0.108-0.965,0.324-1.164c0.216-0.2,0.62-0.301,1.212-0.301h3.516c0.568,0,0.966,0.097,1.194,0.288
			c0.228,0.192,0.342,0.549,0.342,1.068v0.132l-1.272,0.3V55.062z"/>
		<path class="st0" d="M218.853,60.174l3.504-6.192h1.392l3.552,6.192h-1.62l-0.744-1.356h-3.924l-0.72,1.356H218.853z
			 M221.625,57.702h2.712l-1.332-2.521L221.625,57.702z"/>
		<path class="st0" d="M229.281,60.174v-6.192h1.164l2.916,3.744l2.856-3.744h1.152v6.192h-1.332v-3.828
			c0-0.151,0.016-0.372,0.048-0.66c-0.152,0.312-0.272,0.528-0.36,0.648l-2.328,3.096h-0.288l-2.328-3.107
			c-0.168-0.225-0.292-0.437-0.372-0.637c0.024,0.248,0.036,0.469,0.036,0.66v3.828H229.281z"/>
		<path class="st0" d="M240.405,60.174v-6.192h5.304c0.928,0,1.392,0.4,1.392,1.2v1.38c0,0.801-0.464,1.2-1.392,1.2h-3.888v2.412
			H240.405z M245.061,55.038h-3.24v1.668h3.24c0.224,0,0.38-0.024,0.468-0.073c0.12-0.073,0.18-0.215,0.18-0.426v-0.67
			c0-0.211-0.06-0.354-0.18-0.426C245.441,55.063,245.285,55.038,245.061,55.038z"/>
		<path class="st0" d="M249.321,60.174v-6.192h1.44v5.028h4.645v1.164H249.321z"/>
		<path class="st0" d="M257.517,60.174v-6.192h1.44v6.192H257.517z"/>
		<path class="st0" d="M262.112,60.174v-6.192h0.984l4.356,3.648c0.312,0.264,0.548,0.488,0.708,0.672
			c-0.04-0.576-0.061-0.932-0.061-1.068v-3.252h1.296v6.192h-0.983l-4.548-3.828c-0.192-0.16-0.364-0.328-0.517-0.504
			c0.04,0.4,0.061,0.729,0.061,0.984v3.348H262.112z"/>
		<path class="st0" d="M278.36,55.086h-4.5v3.924h4.5v-1.38h-2.352v-1.056h3.756v2.136c0,0.576-0.108,0.964-0.324,1.164
			s-0.62,0.3-1.212,0.3h-4.272c-0.592,0-0.995-0.1-1.212-0.3c-0.216-0.2-0.323-0.588-0.323-1.164v-3.264
			c0-0.576,0.107-0.965,0.323-1.164c0.217-0.2,0.62-0.301,1.212-0.301h4.272c0.576,0,0.976,0.099,1.2,0.294
			c0.224,0.196,0.336,0.566,0.336,1.11v0.145l-1.404,0.252V55.086z"/>
	</g>
	<g>
		<path class="st0" d="M364.287,14.937l3.504-6.192h1.392l3.553,6.192h-1.62l-0.744-1.356h-3.924l-0.721,1.356H364.287z
			 M367.059,12.465h2.712l-1.332-2.521L367.059,12.465z"/>
		<path class="st0" d="M374.727,14.937V8.744h5.305c0.928,0,1.392,0.4,1.392,1.2v1.38c0,0.801-0.464,1.2-1.392,1.2h-3.889v2.412
			H374.727z M379.383,9.801h-3.24v1.668h3.24c0.224,0,0.38-0.024,0.468-0.073c0.12-0.073,0.181-0.215,0.181-0.426V10.3
			c0-0.211-0.061-0.354-0.181-0.426C379.763,9.825,379.606,9.801,379.383,9.801z"/>
		<path class="st0" d="M383.643,14.937V8.744h5.305c0.928,0,1.392,0.4,1.392,1.2v1.38c0,0.801-0.464,1.2-1.392,1.2h-3.889v2.412
			H383.643z M388.299,9.801h-3.24v1.668h3.24c0.224,0,0.38-0.024,0.468-0.073c0.12-0.073,0.181-0.215,0.181-0.426V10.3
			c0-0.211-0.061-0.354-0.181-0.426C388.679,9.825,388.522,9.801,388.299,9.801z"/>
		<path class="st0" d="M392.559,14.937V8.744h5.305c0.928,0,1.392,0.4,1.392,1.2v1.452c0,0.8-0.464,1.2-1.392,1.2h-0.816l2.856,2.34
			h-2.064l-2.496-2.34h-1.368v2.34H392.559z M397.215,9.801h-3.24v1.739h3.24c0.224,0,0.38-0.023,0.468-0.072
			c0.12-0.072,0.181-0.213,0.181-0.423v-0.749c0-0.209-0.061-0.351-0.181-0.423C397.595,9.825,397.439,9.801,397.215,9.801z"/>
		<path class="st0" d="M402.051,10.209c0-0.576,0.107-0.965,0.323-1.164c0.217-0.2,0.62-0.301,1.212-0.301h4.561
			c0.592,0,0.996,0.101,1.212,0.301c0.216,0.199,0.324,0.588,0.324,1.164v3.264c0,0.576-0.108,0.964-0.324,1.164
			s-0.62,0.3-1.212,0.3h-4.561c-0.592,0-0.995-0.1-1.212-0.3c-0.216-0.2-0.323-0.588-0.323-1.164V10.209z M403.49,13.773h4.752
			V9.849h-4.752V13.773z"/>
		<path class="st0" d="M414.807,14.937l-3.576-6.192h1.645l2.508,4.477l2.388-4.477h1.44l-3.408,6.192H414.807z"/>
		<path class="st0" d="M419.702,14.937l3.504-6.192h1.393l3.552,6.192h-1.62l-0.744-1.356h-3.924l-0.72,1.356H419.702z
			 M422.475,12.465h2.712l-1.332-2.521L422.475,12.465z"/>
		<path class="st0" d="M430.143,14.937V8.744h1.439v5.028h4.645v1.164H430.143z"/>
	</g>
	<g>
		<path class="st0" d="M333.646,60.174v-6.192h1.164l2.916,3.744l2.855-3.744h1.152v6.192h-1.332v-3.828
			c0-0.151,0.016-0.372,0.048-0.66c-0.151,0.312-0.271,0.528-0.359,0.648l-2.328,3.096h-0.288l-2.328-3.107
			c-0.168-0.225-0.292-0.437-0.372-0.637c0.024,0.248,0.036,0.469,0.036,0.66v3.828H333.646z"/>
		<path class="st0" d="M343.581,60.174l3.504-6.192h1.393l3.552,6.192h-1.62l-0.744-1.356h-3.924l-0.72,1.356H343.581z
			 M346.354,57.702h2.712l-1.332-2.521L346.354,57.702z"/>
		<path class="st0" d="M359.386,55.062h-4.068v1.332h3.872c0.594,0,1.001,0.101,1.221,0.3c0.221,0.2,0.331,0.589,0.331,1.164v0.853
			c0,0.576-0.11,0.964-0.33,1.164s-0.626,0.3-1.218,0.3h-3.828c-0.592,0-0.998-0.1-1.218-0.3c-0.221-0.2-0.33-0.588-0.33-1.164
			v-0.168l1.271-0.265v0.732h4.381v-1.416h-3.864c-0.593,0-0.996-0.1-1.212-0.3s-0.324-0.588-0.324-1.164v-0.684
			c0-0.576,0.108-0.965,0.324-1.164c0.216-0.2,0.619-0.301,1.212-0.301h3.516c0.568,0,0.966,0.097,1.194,0.288
			c0.228,0.192,0.342,0.549,0.342,1.068v0.132l-1.271,0.3V55.062z"/>
		<path class="st0" d="M369.094,55.062h-4.068v1.332h3.872c0.594,0,1.001,0.101,1.221,0.3c0.221,0.2,0.331,0.589,0.331,1.164v0.853
			c0,0.576-0.11,0.964-0.33,1.164s-0.626,0.3-1.218,0.3h-3.828c-0.592,0-0.998-0.1-1.218-0.3c-0.221-0.2-0.33-0.588-0.33-1.164
			v-0.168l1.271-0.265v0.732h4.381v-1.416h-3.864c-0.593,0-0.996-0.1-1.212-0.3s-0.324-0.588-0.324-1.164v-0.684
			c0-0.576,0.108-0.965,0.324-1.164c0.216-0.2,0.619-0.301,1.212-0.301h3.516c0.568,0,0.966,0.097,1.194,0.288
			c0.228,0.192,0.342,0.549,0.342,1.068v0.132l-1.271,0.3V55.062z"/>
		<path class="st0" d="M378.081,60.174v-6.192h5.305c0.928,0,1.392,0.4,1.392,1.2v1.38c0,0.801-0.464,1.2-1.392,1.2h-3.889v2.412
			H378.081z M382.737,55.038h-3.24v1.668h3.24c0.224,0,0.38-0.024,0.468-0.073c0.12-0.073,0.181-0.215,0.181-0.426v-0.67
			c0-0.211-0.061-0.354-0.181-0.426C383.117,55.063,382.961,55.038,382.737,55.038z"/>
		<path class="st0" d="M386.997,60.174v-6.192h5.304c0.928,0,1.392,0.4,1.392,1.2v1.452c0,0.8-0.464,1.2-1.392,1.2h-0.816
			l2.856,2.34h-2.064l-2.495-2.34h-1.368v2.34H386.997z M391.653,55.038h-3.24v1.739h3.24c0.224,0,0.38-0.023,0.468-0.072
			c0.12-0.072,0.18-0.213,0.18-0.423v-0.749c0-0.209-0.06-0.351-0.18-0.423C392.033,55.063,391.877,55.038,391.653,55.038z"/>
		<path class="st0" d="M396.489,55.447c0-0.576,0.107-0.965,0.323-1.164c0.217-0.2,0.62-0.301,1.212-0.301h4.561
			c0.592,0,0.996,0.101,1.212,0.301c0.216,0.199,0.324,0.588,0.324,1.164v3.264c0,0.576-0.108,0.964-0.324,1.164
			s-0.62,0.3-1.212,0.3h-4.561c-0.592,0-0.995-0.1-1.212-0.3c-0.216-0.2-0.323-0.588-0.323-1.164V55.447z M397.929,59.01h4.752
			v-3.924h-4.752V59.01z"/>
		<path class="st0" d="M407.156,60.174v-6.192h3.984c1.144,0,2.02,0.269,2.628,0.805c0.607,0.536,0.912,1.288,0.912,2.256
			c0,0.616-0.141,1.176-0.42,1.68c-0.305,0.528-0.729,0.908-1.272,1.141c-0.496,0.208-1.235,0.312-2.22,0.312H407.156z
			 M408.597,59.01h1.859c0.952,0,1.637-0.14,2.053-0.42c0.456-0.304,0.684-0.828,0.684-1.572c0-1.288-0.68-1.932-2.04-1.932h-2.556
			V59.01z"/>
		<path class="st0" d="M418.761,53.982v5.028h4.104v-5.028h1.44v4.729c0,0.576-0.108,0.964-0.324,1.164s-0.62,0.3-1.212,0.3h-3.912
			c-0.592,0-0.996-0.1-1.212-0.3s-0.324-0.588-0.324-1.164v-4.729H418.761z"/>
		<path class="st0" d="M432.668,55.086h-3.888v3.924h3.888v-1.332l1.44,0.3v0.732c0,0.576-0.108,0.964-0.324,1.164
			s-0.62,0.3-1.212,0.3h-3.696c-0.592,0-0.995-0.1-1.212-0.3c-0.216-0.2-0.323-0.588-0.323-1.164v-3.264
			c0-0.576,0.107-0.965,0.323-1.164c0.217-0.2,0.62-0.301,1.212-0.301h3.696c0.592,0,0.996,0.101,1.212,0.301
			c0.216,0.199,0.324,0.588,0.324,1.164v0.588l-1.44,0.228V55.086z"/>
		<path class="st0" d="M439.964,55.086v5.088h-1.439v-5.088h-2.844v-1.104h7.14v1.104H439.964z"/>
		<path class="st0" d="M444.584,60.174v-6.192h1.44v6.192H444.584z"/>
		<path class="st0" d="M449.061,55.447c0-0.576,0.107-0.965,0.323-1.164c0.217-0.2,0.62-0.301,1.212-0.301h4.561
			c0.592,0,0.996,0.101,1.212,0.301c0.216,0.199,0.324,0.588,0.324,1.164v3.264c0,0.576-0.108,0.964-0.324,1.164
			s-0.62,0.3-1.212,0.3h-4.561c-0.592,0-0.995-0.1-1.212-0.3c-0.216-0.2-0.323-0.588-0.323-1.164V55.447z M450.5,59.01h4.752v-3.924
			H450.5V59.01z"/>
		<path class="st0" d="M459.716,60.174v-6.192h0.984l4.356,3.648c0.312,0.264,0.548,0.488,0.708,0.672
			c-0.04-0.576-0.061-0.932-0.061-1.068v-3.252H467v6.192h-0.983l-4.548-3.828c-0.192-0.16-0.364-0.328-0.517-0.504
			c0.04,0.4,0.061,0.729,0.061,0.984v3.348H459.716z"/>
	</g>
	<g>
		<line class="st0" x1="85.656" y1="20.84" x2="85.656" y2="46.84"/>
		<g>
			<line class="st1" x1="85.656" y1="20.84" x2="85.656" y2="39.78"/>
			<g>
				<polygon class="st2" points="85.656,46.84 81.59,36.891 85.656,39.252 89.72,36.891 				"/>
			</g>
		</g>
	</g>
	<g>
		<line class="st0" x1="244.989" y1="20.84" x2="244.989" y2="46.84"/>
		<g>
			<line class="st1" x1="244.989" y1="20.84" x2="244.989" y2="39.78"/>
			<g>
				<polygon class="st2" points="244.989,46.84 240.924,36.891 244.989,39.252 249.053,36.891 				"/>
			</g>
		</g>
	</g>
	<g>
		<line class="st0" x1="400.322" y1="20.84" x2="400.322" y2="46.84"/>
		<g>
			<line class="st1" x1="400.322" y1="20.84" x2="400.322" y2="39.78"/>
			<g>
				<polygon class="st2" points="400.322,46.84 396.257,36.891 400.322,39.252 404.387,36.891 				"/>
			</g>
		</g>
	</g>
	<g>
		<line class="st0" x1="124.156" y1="50.84" x2="191.489" y2="20.84"/>
		<g>
			<line class="st1" x1="124.156" y1="50.84" x2="185.04" y2="23.714"/>
			<g>
				<polygon class="st2" points="191.489,20.84 184.056,28.603 184.558,23.929 180.747,21.177 				"/>
			</g>
		</g>
	</g>
	<g>
		<line class="st0" x1="288.894" y1="50.84" x2="356.227" y2="20.84"/>
		<g>
			<line class="st1" x1="288.894" y1="50.84" x2="349.778" y2="23.714"/>
			<g>
				<polygon class="st2" points="356.227,20.84 348.793,28.603 349.295,23.929 345.485,21.177 				"/>
			</g>
		</g>
	</g>
</g>
<g>
</g>
</svg>
