<?xml version="1.0" encoding="utf-8"?>
<!-- Generator: Adobe Illustrator 18.1.1, SVG Export Plug-In . SVG Version: 6.00 Build 0)  -->
<svg version="1.1" id="Projectors" xmlns="http://www.w3.org/2000/svg" xmlns:xlink="http://www.w3.org/1999/xlink" x="0px" y="0px"
	 viewBox="0 0 140 140" style="enable-background:new 0 0 140 140;" xml:space="preserve">
<style type="text/css">
	.st0{opacity:0.2;}
	.st1{fill:#939598;}
</style>
<g class="st0">
	<g>
		<path class="st1" d="M50.969,140l-1.78-0.08l-1.792-0.274l-1.822-0.495l-2.062-0.778l-3.066-0.073l-4.416-0.679
			c-0.006-0.001-0.013-0.002-0.019-0.003c-0.007-0.001-0.015-0.003-0.022-0.005l-2.669-0.674l-2.556-0.788l-1.939-0.764
			c-0.006-0.002-0.013-0.005-0.019-0.008l-3.106-1.404l-3.022-1.66l-2.86-1.878l-2.747-2.094l-2.56-2.286l-2.419-2.446l-2.208-2.641
			l-2.014-2.774l-1.798-2.94l-1.578-3.046l-1.361-3.155l-1.116-3.238l-0.872-3.32l-0.627-3.374l-0.382-3.428L0,92.273
			c0-0.009,0-0.017,0-0.027c0,0,0-0.001,0-0.001l0,0c0-0.001,0-0.002,0-0.004l0.08-2.401l0.19-2.393l0.299-2.392l0.435-2.369
			l0.543-2.365l0.681-2.316l0.391-1.132v-0.6c0-0.003,0-0.007,0-0.011v-0.399l0.108-1.937l0.245-1.942l0.411-1.842l0.577-1.711
			l0.716-1.572l0.855-1.439l1.03-1.258l1.133-1.109l1.542-1.081c0.005-0.006,0.01-0.011,0.015-0.017l0,0
			c0,0,0.002-0.001,0.001-0.001l0,0c0.021-0.022,0.046-0.042,0.074-0.058c0,0,0,0,0.001,0c0,0,0,0.001,0.001-0.001l12.014-6.938
			c0.005-0.003,0.009-0.005,0.014-0.008c0.003-0.002,0.007-0.004,0.01-0.005l0.7-0.349l1.488-0.581l1.623-0.341l0.558-0.064
			l0.16-0.284V43.243c0-0.006,0-0.013,0-0.019c0,0,0,0,0-0.001v0c0-0.003,0-0.006,0-0.009l0.081-1.213l0.251-1.109l0.456-0.989
			l0.604-0.818c0.019-0.025,0.042-0.048,0.067-0.068l0.698-0.537c0.01-0.008,0.02-0.015,0.031-0.022
			c0.005-0.003,0.011-0.007,0.017-0.01l1.614-0.915c0.006-0.003,0.012-0.007,0.018-0.01c0.008-0.004,0.017-0.008,0.024-0.012
			l0.806-0.348c0.031-0.014,0.065-0.023,0.099-0.027l0.918-0.108l1.095,0.08l1.129,0.339l1.098,0.53
			c0.012,0.006,0.023,0.012,0.034,0.018l7.915,4.568l3.006-0.798c0.05-0.057,0.119-0.099,0.199-0.115l5.233-1.052l12.288-2.727
			l3.437-0.65l3.441-0.542l4.174-0.462l3.147-0.217l2.959-0.082l2.39,0.027l2.223,0.081l4.046,0.353l2.087,0.245l0.138-0.39
			l0.237-0.453l0.301-0.4l0.327-0.331l0.357-0.271c0.006-0.004,0.012-0.009,0.017-0.013c0.01-0.007,0.02-0.013,0.03-0.018
			l7.904-4.533c0.001,0,0.002-0.001,0.004-0.002l3.128-1.807c0.004-0.002,0.008-0.004,0.012-0.007l0.352-0.189l0.481-0.138
			l0.509-0.064l0.522,0.03l-0.101-0.655c-0.005-0.034-0.005-0.069,0-0.104l0.109-0.702l0.263-0.696
			c0.014-0.036,0.034-0.069,0.058-0.099l0.431-0.513l0.271-0.218c0.009-0.009,0.018-0.017,0.029-0.025
			c0.009-0.007,0.017-0.013,0.027-0.019l0.055-0.037c0.016-0.011,0.03-0.021,0.047-0.029l1.428-0.927
			c0.002-0.001,0.004-0.002,0.005-0.004c0.013-0.008,0.026-0.015,0.04-0.021l0.09-0.046l1.852-1.073
			c0.005-0.003,0.011-0.007,0.017-0.01c0.001,0,0.001,0,0.001,0c0.001,0,0.005-0.001,0.006-0.003l0.288-0.107l0.3-0.01
			c0.054,0,0.108,0.013,0.156,0.036l0.218,0.109c0.035,0.017,0.066,0.039,0.092,0.067l0.161,0.191
			c0.007,0.008,0.013,0.016,0.017,0.025c0.004,0.005,0.008,0.011,0.011,0.016l2.688,4.471l1.024-0.598
			c0.052-0.052,0.12-0.087,0.193-0.1l0.487-0.081c0.046-0.009,0.095-0.007,0.143,0.006l0.539,0.135
			c0.031,0.008,0.061,0.02,0.089,0.036l0.567,0.325l0.608,0.564l0.521,0.659l0.168,0.342l0.642-0.373
			c0.027-0.017,0.056-0.029,0.087-0.038c0.033-0.008,0.064-0.012,0.1-0.013h0.02l0.379-0.099c0.044-0.01,0.089-0.011,0.133-0.005
			l0.54,0.081c0.043,0.006,0.085,0.021,0.122,0.043l0.566,0.324l0.601,0.53l0.529,0.666l0.389,0.762l0.224,0.664l0.275-0.159
			c0.016-0.01,0.033-0.018,0.051-0.025c0.018-0.008,0.037-0.014,0.055-0.018l0.425-0.105c0.041-0.011,0.081-0.014,0.122-0.009
			l0.513,0.054c0.045,0.005,0.087,0.017,0.126,0.038l0.567,0.297l0.626,0.497l0.542,0.677l0.411,0.753l0.266,0.785l0.097,0.773
			l-0.004,0.031c0.008-0.002,0.016-0.005,0.022-0.007l0.371-0.106c0.045-0.013,0.09-0.017,0.134-0.012l0.513,0.054
			c0.035,0.004,0.07,0.013,0.102,0.027l0.567,0.243c0.03,0.013,0.058,0.03,0.084,0.05l0.566,0.459l0.537,0.645l0.437,0.75
			l0.294,0.783l0.127,0.771c0.005,0.033,0.005,0.067,0.001,0.1l-0.082,0.621c-0.003,0.02-0.008,0.041-0.014,0.061
			c0.01-0.001,0.022-0.001,0.034,0l0.513,0.027c0.042,0.002,0.083,0.012,0.12,0.028l0.566,0.243
			c0.029,0.013,0.056,0.029,0.082,0.049l0.54,0.432l0.554,0.606l0.449,0.762l0.319,0.772l0.154,0.769
			c0.007,0.032,0.009,0.064,0.006,0.096l-0.054,0.648c-0.004,0.039-0.014,0.078-0.029,0.114l-0.216,0.486
			c-0.003,0.006-0.007,0.013-0.01,0.019c0.028,0.003,0.056,0.011,0.083,0.021l0.566,0.216c0.028,0.011,0.055,0.025,0.08,0.042
			l0.567,0.405l0.569,0.617l0.468,0.722l0.326,0.786l0.154,0.769l-0.02,0.729c-0.002,0.037-0.009,0.073-0.021,0.108l-0.189,0.513
			c-0.018,0.048-0.046,0.091-0.082,0.127l-0.257,0.257c-0.005,0.011-0.012,0.022-0.018,0.033c0.021,0.009,0.041,0.019,0.059,0.032
			l0.566,0.378l0.579,0.624l0.486,0.681l0.335,0.801l0.204,0.772c0.009,0.034,0.013,0.069,0.012,0.103l-0.027,0.649l-0.177,0.627
			c-0.016,0.051-0.043,0.098-0.079,0.137l-0.324,0.351c-0.029,0.032-0.065,0.058-0.104,0.078c-0.009,0.004-0.018,0.008-0.028,0.012
			c-0.002,0.001-0.003,0.002-0.005,0.003l-0.206,0.12l0.496,0.488l0.5,0.726l0.354,0.753l0.209,0.788l0.039,0.749
			c0.001,0.039-0.004,0.078-0.015,0.116l-0.162,0.54c-0.013,0.042-0.033,0.082-0.06,0.116l-0.296,0.378
			c-0.019,0.025-0.042,0.047-0.067,0.065l-0.104,0.078c-0.008,0.006-0.017,0.012-0.024,0.017c-0.007,0.004-0.013,0.008-0.019,0.012
			l-0.551,0.317l0.235,0.332l0.379,0.749l0.238,0.786l0.042,0.789c0.001,0.034-0.002,0.067-0.011,0.099l-0.135,0.54
			c-0.01,0.039-0.026,0.077-0.049,0.11l-0.27,0.405c-0.02,0.03-0.045,0.057-0.073,0.079l-0.13,0.105
			c-0.008,0.006-0.017,0.013-0.025,0.018c-0.01,0.007-0.019,0.013-0.029,0.018l-0.947,0.546l3.021,5.037
			c0.003,0.005,0.006,0.01,0.009,0.015l0,0c0.001,0,0.001,0.001,0.001,0.001c0.002,0.004,0.005,0.008,0.007,0.013l0.107,0.285
			L140,70.65l-0.038,0.194l-0.082,0.18c-0.017,0.034-0.038,0.064-0.065,0.09l-0.186,0.159c-0.012,0.013-0.025,0.025-0.04,0.036
			c-0.009,0.006-0.017,0.013-0.027,0.018l-1.529,0.993c-0.008,0.006-0.017,0.011-0.026,0.016l-1.944,1.118
			c-0.025,0.017-0.052,0.03-0.081,0.04l-0.291,0.121c-0.028,0.014-0.059,0.023-0.091,0.028l-0.239,0.066
			c-0.037,0.013-0.077,0.019-0.116,0.019h-0.702c-0.03,0-0.059-0.004-0.088-0.011l-0.73-0.189c-0.035-0.009-0.068-0.023-0.098-0.042
			l-0.648-0.405l-0.624-0.584l-0.166-0.233l-0.114,0.446l-0.172,0.465l-0.236,0.448l-0.301,0.4l-0.326,0.331l-0.392,0.278
			c-0.009,0.006-0.017,0.012-0.026,0.017c-0.003,0.002-0.006,0.003-0.009,0.005l-3.099,1.805c-0.004,0.002-0.007,0.004-0.011,0.006
			l-7.904,4.559c-0.005,0.003-0.011,0.006-0.017,0.009c-0.01,0.005-0.019,0.01-0.029,0.014l-0.373,0.16l-0.454,0.125l-0.478,0.063
			l-0.503,0.003l-0.166-0.031l-0.361,1.135l-1.164,3.357l-1.058,2.74l-1.328,3.093l-0.754,1.559v27.459c0,0.009,0,0.017-0.001,0.026
			l-0.081,1.967l-0.274,1.9l-0.438,1.737l-0.607,1.605l-0.745,1.441l-0.949,1.266l-1.058,1.062l-1.235,0.85
			c-0.004,0.002-0.007,0.004-0.01,0.007c-0.007,0.004-0.013,0.008-0.019,0.012l-1.617,0.942c-0.024,0.014-0.049,0.025-0.074,0.033
			l-1.248,0.602l-1.465,0.4l-1.56,0.198l-1.649-0.051l-1.693-0.275l-1.741-0.495l-1.768-0.743l-1.775-0.901
			c-0.002-0.001-0.006-0.003-0.007-0.003l0,0c-0.006-0.002-0.011-0.005-0.016-0.008l-12.531-7.241l-7.734,2.512l-1.634,2.179
			c-0.018,0.024-0.04,0.047-0.064,0.066l-2.128,1.671c-0.008,0.006-0.016,0.012-0.023,0.017c-0.009,0.006-0.018,0.012-0.028,0.017
			l-12.012,6.938c-0.052,0.03-0.11,0.046-0.166,0.047l-0.845,0.445l-1.5,0.559l-1.589,0.339L50.969,140z M46.177,138.586
			l1.366,0.372l1.716,0.261l1.692,0.078l1.569-0.16l1.502-0.319l1.408-0.526l0.93-0.494c0.023-0.012,0.046-0.021,0.069-0.028
			l0.583-0.365l1.179-0.973l1.043-1.153l0.886-1.336l0.761-1.528l0.576-1.685l0.422-1.855l0.264-1.993l0.058-1.58l-0.434,0.084
			l-0.381,0.031l-0.909-0.132l-0.062,1.63l-0.3,2.063l-0.465,1.897l-0.661,1.742l-0.829,1.554l-0.999,1.366l-1.172,1.15
			l-1.313,0.928l-1.483,0.705l-1.566,0.452l-1.704,0.2l-1.78-0.051L46.177,138.586z M47.471,138.098l0.739,0.123l1.682,0.049
			l1.596-0.187l1.456-0.421l1.378-0.655l1.217-0.861l1.09-1.071l0.934-1.28l0.784-1.47l0.63-1.66l0.372-1.518l-0.215,0.791
			l-0.523,1.383l-0.668,1.232l-0.782,1.066l-0.925,0.931l-1.169,0.846c-0.019,0.017-0.04,0.033-0.063,0.047l-1.297,0.756
			c-0.074,0.044-0.157,0.056-0.236,0.043l-1.008,0.579l-1.756,0.647l-1.872,0.47L47.471,138.098z M36.151,136.927l4.359,0.672
			l4.303,0.104l3.893-0.457l1.792-0.451l1.666-0.61l2.251-1.3l1.683-1.734l0.789-1.603l0.289-1.864l-0.192-1.993l-0.685-2.189
			l-0.538-1.506l-0.39-1.715l-0.223-1.818l-0.083-1.918l0.081-2.001l0.218-2.048l0.381-2.131l0.543-2.148l0.727-3.717l0.156-3.889
			l-0.537-3.798l-1.256-3.856l-1.676-3.073l-2.236-2.84l-2.505-2.393l-2.879-2.075l-3.471-1.866l-3.715-1.44l-2.903-0.77
			l-2.67-0.647l-2.563-0.817l-2.422-0.925l-2.243-1.092l-2.072-1.172l-1.866-1.315l-1.645-1.397l-1.432-1.511l-1.157-1.539
			c-0.002-0.002-0.003-0.004-0.005-0.006l-1.698-2.238l-1.714-1.5l-1.749-0.685l-0.91-0.025l-0.886,0.196l-1.612,0.947l-1.722,1.775
			L6.26,70.527l-1.33,2.478l-0.307,0.774c-0.021,0.052-0.053,0.097-0.092,0.132L3.676,75.97L3.42,76.713
			c-0.004,0.014-0.009,0.028-0.015,0.041L3.32,77.003c-0.006,0.038-0.019,0.073-0.036,0.106L2.9,78.219l-0.67,2.28l-0.535,2.329
			l-0.429,2.334l-0.294,2.357l-0.188,2.361l-0.079,2.374l0.134,3.39l0.377,3.378l0.617,3.324l0.858,3.27l1.099,3.188l1.341,3.108
			l1.556,3.001l1.77,2.895l1.983,2.731l2.173,2.601l2.383,2.409l2.523,2.253l2.706,2.062l2.816,1.849l2.974,1.633l3.073,1.388
			l1.909,0.754l2.514,0.774L36.151,136.927z M62.918,124.977l-0.074,1.966l-0.273,2.059l-0.438,1.923l-0.604,1.764l-0.802,1.61
			l-0.94,1.415l-0.278,0.308l8.861-5.118l2.076-1.63l1.652-2.202l1.011-2.18l0.87-3.37l0.213-3.055L62.918,124.977z M93.231,131.669
			l1.746,0.888l1.706,0.718l1.662,0.472l1.607,0.261l1.548,0.049l1.457-0.186l1.356-0.369l1.248-0.608l1.13-0.774l0.975-0.984
			l0.886-1.179l0.699-1.354l0.577-1.528l0.42-1.689l0.235-1.797l0.105-1.935V92.131l-0.08-1.285l-0.264-1.303l-0.398-1.376
			l-0.556-1.37l-0.687-1.32l-0.819-1.237l-0.903-1.167l-0.979-1.057l-1.021-0.861l-1.04-0.699l-8.031-4.608
			c-0.02-0.011-0.04-0.024-0.058-0.039v0c0,0,0,0-0.001,0c-0.008-0.007-0.016-0.014-0.022-0.021
			c-0.017-0.017-0.033-0.037-0.047-0.057l-1.94-2.911l-2.07-2.794l-2.179-2.745l-2.261-2.636l-2.34-2.529l-2.421-2.421l-2.474-2.286
			l-2.528-2.151l-2.555-2.017l-2.579-1.826l-2.632-1.692l-2.605-1.503l-2.606-1.343l-2.598-1.124l-2.55-0.966l-2.518-0.776
			l-2.459-0.56l-2.406-0.374l-2.319-0.159l-2.24,0.028l-2.125,0.24l-2.047,0.428l-1.93,0.61c-0.031,0.01-0.062,0.016-0.094,0.018
			c-0.019,0.001-0.037,0-0.053-0.001c-0.037-0.003-0.075-0.013-0.11-0.029c-0.013-0.006-0.026-0.013-0.038-0.02l-8.03-4.635
			l-1.067-0.507L30.9,38.743l-0.888-0.09l-0.874,0.129l-0.684,0.283l-0.627,0.482l-0.538,0.718l-0.395,0.857l-0.219,0.982
			l-0.072,1.148v9.438l1.031-0.596c0.01-0.006,0.021-0.012,0.032-0.017c0.016-0.007,0.031-0.013,0.047-0.018l0.397-0.133
			c0.029-0.01,0.059-0.016,0.09-0.017l0.432-0.027c0.033-0.002,0.065,0,0.098,0.008l0.486,0.108l0.578,0.264
			c0.015,0.006,0.029,0.013,0.042,0.021l2.326,1.337c0.054,0.027,0.101,0.068,0.135,0.119l0.108,0.163
			c0.008,0.012,0.042,0.078,0.048,0.09c0.005,0.016,0.012,0.038,0.018,0.065c0.03,0.051,0.047,0.111,0.047,0.175v0.401l1.834,0.758
			l1.555,0.821l0.887-3.235l1.856-3.862c0.001-0.002,0.002-0.005,0.003-0.008c0.008-0.017,0.018-0.033,0.029-0.049l0.67-0.993
			l0.777-0.945l0.868-0.816l0.919-0.699l1.136-0.649c0.045-0.034,0.095-0.055,0.146-0.064l0.786-0.354l1.152-0.341l1.189-0.223
			c0.019-0.003,0.038-0.006,0.057-0.007l3.37-0.188l3.638,0.271l1.799,0.377c0.043,0.002,0.084,0.012,0.121,0.027l1.825,0.385
			l3.814,1.197l3.892,1.632l3.915,2.064c0.003,0.001,0.006,0.003,0.009,0.004c0,0,0,0,0.001,0.001l0,0
			c0.007,0.004,0.014,0.008,0.02,0.012l3.885,2.455l3.881,2.822l3.8,3.203l3.743,3.551l3.58,3.823l3.388,4.119
			c0.004,0.004,0.007,0.008,0.011,0.013c0.001,0.002,0.003,0.004,0.005,0.006l1.132,1.537l1.114,1.602l1.036,1.662l0.979,1.713
			l0.924,1.737l0.843,1.77l0.761,1.767l0.68,1.793c0.003,0.008,0.006,0.015,0.008,0.023c0.001,0.002,0.001,0.003,0.002,0.005
			l1.808,5.912l1.222,5.86c0.002,0.008,0.004,0.016,0.005,0.024c0.001,0.004,0.001,0.009,0.002,0.013l0.079,0.651
			c0.029,0.065,0.038,0.137,0.025,0.207l0.061,0.505l2.405-0.717c0.004-0.001,0.007-0.002,0.011-0.003
			c0.01-0.003,0.019-0.005,0.029-0.007l0.577-0.06l0.34,0.061c0.03,0.006,0.06,0.017,0.087,0.031l0.089,0.045
			c0.036,0.003,0.071,0.011,0.104,0.025c0.017,0.007,0.034,0.016,0.05,0.025l2.256,1.316c0.015,0.008,0.028,0.017,0.041,0.027
			l0.48,0.347l0.514,0.454l0.494,0.576l0.406,0.633l0.34,0.647l0.262,0.719l0.148,0.666l0.06,0.655
			c0.002,0.015,0.002,0.031,0.002,0.046v9.143c0,0.007,0,0.014,0,0.02l-0.027,1.102l-0.191,2.188l-0.164,1.045l-0.221,0.993
			l-0.275,0.966l-0.686,1.788c-0.001,0.003-0.003,0.006-0.004,0.009c-0.005,0.012-0.011,0.024-0.017,0.035l-0.158,0.291
			c-0.019,0.036-0.046,0.068-0.076,0.095l-0.434,0.347c-0.005,0.003-0.011,0.007-0.016,0.01c-0.006,0.003-0.011,0.007-0.017,0.01
			l-1.212,0.7c-0.003,0.001-0.005,0.002-0.007,0.003l-0.056,0.039l-0.371,0.146c-0.03,0.011-0.061,0.018-0.093,0.02l-0.352,0.027
			l-0.432-0.058l-0.4-0.119l-0.425-0.207c-0.004-0.002-0.008-0.004-0.011-0.006c-0.001,0-0.001,0-0.001,0s0,0-0.001,0
			c-0.006-0.003-0.013-0.007-0.018-0.01l-3.344-1.953l-0.262-0.095c-0.008-0.002-0.016-0.006-0.023-0.009
			c-0.008-0.003-0.016-0.007-0.023-0.011l-0.307-0.128l-11.763,3.82v0.228c0,0.013,0,0.025-0.001,0.037
			c-0.001,0.003-0.001,0.006-0.001,0.009l-0.089,0.531c-0.008,0.032-0.019,0.062-0.036,0.091l-0.109,0.189
			c-0.027,0.047-0.065,0.087-0.11,0.118l-0.159,0.106c-0.004,0.003-0.008,0.005-0.013,0.008c-0.003,0.002-0.006,0.004-0.01,0.006
			l-2.021,1.185c-0.006,0.004-0.013,0.007-0.018,0.011c-0.001,0-0.001,0-0.002,0l0,0c-0.023,0.012-0.047,0.021-0.071,0.028
			l-0.451,0.089c-0.045,0.004-0.087,0.002-0.129-0.008l-0.216-0.054l-0.289-0.122c-0.009-0.003-0.017-0.007-0.025-0.011
			c-0.008-0.004-0.016-0.008-0.023-0.013l-1.339-0.768l-2.701,0.877L93.231,131.669z M57.052,125.555l0.619,1.999l0.203,2.152
			l-0.3,2.004c-0.005,0.035-0.016,0.069-0.032,0.102l-0.022,0.045l0.449-0.829l0.493-1.306l0.395-1.453l0.262-1.559l0.158-1.729
			l-0.001-0.708L57.052,125.555z M111.282,121.873l-0.098,1.782l-0.245,1.863l-0.44,1.767l-0.606,1.606l-0.745,1.441l0.139-0.14
			l0.886-1.179l0.698-1.354l0.578-1.529l0.419-1.662l0.263-1.828l0.052-1.292L111.282,121.873z M74.943,117.859l-0.27,3.776
			l-0.902,3.493l-0.71,1.541l13.464-4.373c0.035-0.018,0.073-0.031,0.114-0.037l13.585-4.412c0.001,0,0.001-0.001,0.002-0.002l0,0
			c0.001,0,0.001-0.001,0.001-0.001c0,0,0,0,0.001-0.001l0.001-0.002l0,0c0.004-0.005,0.007-0.009,0.011-0.014l1.132-1.448
			l1.144-2.632l0.544-3.108l0.129-4.432l-0.082-4.574v-4.067L100,98.527l-0.187,0.217c0,0.005-0.001,0.01-0.001,0.015l-0.054,0.451
			l-0.667,1.862c-0.012,0.032-0.027,0.061-0.047,0.088l-1.269,1.729c-0.018,0.025-0.04,0.047-0.064,0.067l-1.756,1.404l-2.01,0.933
			c-0.01,0.005-0.019,0.009-0.03,0.013c-0.01,0.004-0.018,0.007-0.028,0.01l-11.872,3.561c-0.01,0.003-0.019,0.006-0.029,0.008
			c-0.007,0.001-0.014,0.003-0.02,0.004l-1.508,0.27c-0.033,0.005-0.067,0.007-0.1,0.003l-1.728-0.189
			c-0.047-0.005-0.091-0.019-0.132-0.042l-1.087-0.599c-0.034-0.012-0.065-0.03-0.092-0.051l-0.144-0.079
			c-0.046-0.025-0.086-0.06-0.116-0.103l-0.473-0.655c-0.022-0.022-0.043-0.048-0.059-0.076c-0.004-0.008-0.009-0.017-0.013-0.024
			l-0.292-0.406c-0.03-0.041-0.051-0.088-0.06-0.137l-0.199-0.994c-0.001-0.002-0.003-0.005-0.004-0.007
			c-0.041-0.071-0.054-0.151-0.043-0.227l-0.051-0.25c-0.002-0.013-0.005-0.026-0.006-0.039c-0.002-0.015-0.002-0.03-0.002-0.045
			l-0.047-2.497l-0.054,0.011l-0.813,0.244v14.827C74.944,117.834,74.944,117.847,74.943,117.859z M56.937,110.526l-0.503,1.988
			l-0.373,2.082l-0.213,2.001l-0.08,1.949l0.081,1.861l0.214,1.755l0.372,1.639l0.386,1.074l2.455-1.416v-14.282L56.937,110.526z
			 M60.495,124.551l0.075,0.038l0.521,0.103l0.296,0.024l0.587-0.078l0.245-0.069v-14.367l-0.454,0.09l-0.382,0.031l-0.89-0.126
			V124.551z M62.926,109.877v14.281l11.312-6.533v-14.281L62.926,109.877z M85.635,124.022l0.314,0.12l0.217-0.039l0.113-0.123
			l0.058-0.362v-0.519l-1.475,0.479L85.635,124.022z M111.293,92.322v28.728l0.915-0.534V93.18c0-0.005,0-0.01,0-0.015v-1.376
			L111.293,92.322z M105.14,119.976l0.367,0.184l0.599,0.129l0.216-0.024l0.228-0.084c0.017-0.014,0.035-0.027,0.054-0.039
			l0.144-0.096l0.161-0.172l0.122-0.204l0.66-1.719l0.447-1.873l0.186-1.013l0.185-2.123l0.026-1.084c0-0.001,0-0.001,0-0.002
			v-9.134l-0.053-0.606l-0.128-0.577l-0.228-0.599l-0.309-0.615l-0.381-0.553l-0.416-0.518l-0.445-0.39l-0.466-0.316l-1.27-0.738
			l0.027,9.754l-0.081,3.307l-0.6,3.349l-1.212,2.831l-0.858,1.159L105.14,119.976z M109.236,112.067l-0.022,0.909l-0.191,2.188
			l-0.411,2.038l-0.246,0.957l-0.308,0.85l0.225-0.13l0.625-1.631l0.262-0.922l0.211-0.951l0.157-1.005l0.197-2.593L109.236,112.067
			z M101.439,117.883l0.032,0.012l0.895-1.195l1.148-2.683l0.571-3.218l0.075-3.241l-0.027-3.337v-6.8l-0.203-0.04l-0.118,0.007
			v4.238l0.082,4.585l-0.135,4.5l-0.573,3.238l-1.184,2.752c-0.012,0.028-0.027,0.053-0.046,0.077l-0.767,0.98L101.439,117.883z
			 M109.241,102.909v8.341l0.51-0.295v-8.34L109.241,102.909z M60.488,109.451l0.083,0.042l0.521,0.103l0.295,0.023l0.588-0.077
			l0.238-0.067l-0.074-2.031l-0.268-2.294l-0.429-2.382l-0.589-2.409l-0.777-2.434l-0.912-2.441l-1.072-2.411l-1.208-2.387
			l-1.34-2.305l-1.45-2.255l-1.554-2.116l-1.663-2.038l-1.741-1.874l-1.769-1.715l-1.848-1.578l-1.869-1.36l-1.679-1.079
			l-0.256,0.22l-0.464,0.742l-0.157,0.539l1.738,1.101l1.912,1.419l1.859,1.639l1.796,1.768l1.745,1.961l1.66,2.095l1.526,2.206
			l1.44,2.31l1.281,2.397l1.142,2.419l0.981,2.479l0.817,2.477l0.654,2.45l0.464,2.428l0.3,2.371L60.488,109.451z M56.588,96.41
			l0.731,2.244l0.553,3.922l-0.159,4.006l-0.587,3.021l2.145-1.237l-0.102-1.805l-0.241-1.976l-0.4-2.027l-0.536-2.059l-0.67-2.116
			L56.588,96.41z M42.646,73.961l1.403,0.902l1.907,1.389l1.885,1.61l1.798,1.743l1.769,1.904l1.689,2.069l1.577,2.148l1.471,2.286
			l1.358,2.336l1.225,2.421l1.087,2.447l0.926,2.477l0.789,2.474l0.6,2.453l0.437,2.425l0.273,2.344l0.062,1.684l11.326-6.541
			l-0.074-2.03l-0.268-2.294l-0.428-2.382l-0.591-2.408l-0.921-2.823c-0.009-0.017-0.016-0.036-0.02-0.054l-0.747-1.998
			l-1.072-2.411l-1.208-2.387l-1.341-2.305l-1.334-2.075c-0.025-0.028-0.046-0.06-0.061-0.094l-0.055-0.086l-1.554-2.116
			l-1.663-2.038l-1.74-1.874l-1.769-1.715l-1.845-1.549l-1.874-1.391l-1.688-1.06L42.646,73.961z M77.673,107.669l1.466,0.323
			l0.77-0.116v-2.072l-2.558,1.491L77.673,107.669z M80.614,105.196v2.573l0.408-0.061l4.045-1.204v-1.244l-4.453-2.565v2.193
			c0,0.004,0,0.008,0,0.012v0.284C80.614,105.188,80.614,105.192,80.614,105.196z M76.838,106.585l0.098,0.135l2.879-1.678
			l-0.905-0.525l-2.231,1.274L76.838,106.585z M85.773,105.07v1.223l1.32-0.393v-0.359l0.233-0.84l0.306-0.535l0.27-0.347v-1.417
			l-0.369,0.392l-0.283,0.196c-0.011,0.008-0.022,0.015-0.033,0.021l-0.63,0.394l-0.364,0.4l-0.304,0.501l-0.125,0.515
			L85.773,105.07z M88.335,104.402l-0.365,0.582l-0.179,0.634l0.004,0.074l1.452-0.432l-0.125-0.4L88.335,104.402z M89.754,104.52
			l0.168,0.538l0.959-0.286l0.047-0.689l0.203-0.72c0.009-0.03,0.021-0.059,0.038-0.086l0.351-0.567
			c0.018-0.029,0.04-0.055,0.065-0.077l0.513-0.459c0.023-0.021,0.05-0.039,0.078-0.052l0.057-0.029
			c0.038-0.034,0.083-0.059,0.134-0.074l0.54-0.162c0.044-0.014,0.091-0.018,0.131-0.014l0.621,0.054
			c0.037,0.003,0.072,0.012,0.106,0.026l0.648,0.27l0.902,0.679l0.677-0.48l1.261-1.456l0.794-1.561l0.224-1.032L72.189,83.279
			v5.947l0.365,0.977l10.713,6.171c0.013,0.007,0.024,0.015,0.036,0.023c0.041,0.03,0.075,0.067,0.099,0.109
			c0.024,0.042,0.041,0.091,0.046,0.142c0.002,0.014,0.002,0.028,0.002,0.042v0.735l4.974,2.865
			c0.017,0.009,0.033,0.019,0.048,0.032l0,0c0.001,0,0.001,0,0.001,0c0.036,0.028,0.065,0.062,0.086,0.1
			c0.015,0.025,0.026,0.052,0.035,0.08c0,0,0,0,0,0.001c0,0,0,0,0,0.001c0.008,0.025,0.012,0.052,0.014,0.079
			c0,0.008,0,0.016,0,0.023v3.139l0.985,0.572c0.009,0.005,0.017,0.011,0.026,0.017l0,0c0,0.001,0.002,0.001,0.002,0.001l0.001,0
			c0.027,0.019,0.051,0.042,0.071,0.067v0c0,0,0.001,0,0.001,0.001c0.019,0.024,0.035,0.051,0.048,0.08l0,0c0,0,0,0.001,0.001,0.002
			v0v0.001C89.748,104.498,89.752,104.509,89.754,104.52z M76.563,102.739v2.306l2.168-1.239c0.011-0.006,0.021-0.012,0.033-0.017
			c0.049-0.022,0.103-0.03,0.151-0.033c0.049,0,0.097,0.011,0.143,0.032c0.013,0.006,0.025,0.012,0.037,0.019l0.814,0.472v-2.189
			c0-0.016,0-0.032,0.002-0.047l0.086-0.617l0.12-0.372l0.187-0.355l0.44-0.591l0.509-0.43c0.018-0.015,0.037-0.027,0.057-0.038
			c0.003-0.001,0.005-0.002,0.007-0.003l0.612-0.357l0.364-0.4l0.305-0.529l0.086-0.248l0.06-0.491v-0.724l-9.835-5.665l0.639,2.006
			l0.601,2.453l0.435,2.426l0.274,2.344l0.042,1.137l0.097-0.014c0.036-0.005,0.073-0.004,0.109,0.001l0.162,0.027
			c0.069,0.012,0.133,0.044,0.184,0.091l0.77,0.436c0.041,0.023,0.075,0.053,0.102,0.087c0.022,0.018,0.042,0.038,0.058,0.061
			l0.082,0.108c0.033,0.043,0.055,0.093,0.065,0.146l0.025,0.128c0.003,0.014,0.005,0.028,0.007,0.043
			C76.563,102.714,76.563,102.727,76.563,102.739z M93.777,104.561l0.031,0.017l1.781-0.816l1.645-1.329l1.213-1.651l0.644-1.879
			l-0.195-0.11l-0.168,0.774c-0.007,0.03-0.017,0.059-0.031,0.087l-0.864,1.674l-1.372,1.583l-0.927,0.658
			c-0.003,0.002-0.005,0.004-0.007,0.007c-0.031,0.032-0.067,0.056-0.106,0.073l-0.751,0.533L93.777,104.561z M91.795,103.607
			l-0.177,0.602l-0.022,0.35l0.017-0.012c0.027-0.055,0.069-0.103,0.12-0.137l0.325-0.216c0.057-0.039,0.125-0.059,0.195-0.059
			l0.639,0.035l1.439-0.602l0.403-0.286l-0.03-0.03l-0.633-0.45l-0.525-0.209l-0.501-0.044l-0.38,0.114
			c-0.004,0.002-0.008,0.004-0.013,0.006l-0.12,0.06l-0.44,0.394L91.795,103.607z M80.632,101.891l4.506,2.595l0.016-0.087
			l0.121-0.374l0.186-0.353l0.55-0.678l-4.505-2.618l-0.256,0.219l-0.348,0.477l-0.142,0.264L80.632,101.891z M82.508,99.689
			l4.519,2.602l0.061-0.04l0.364-0.4l0.401-0.803l0.031-0.254l-4.507-2.596l-0.014,0.084L83.24,98.64l-0.385,0.663L82.508,99.689z
			 M106.962,98.278l0.046,0.032l0.521,0.46l0.473,0.583l0.422,0.616l0.348,0.689l0.257,0.682l0.16,0.785l0.543-0.314l-0.035-0.397
			l-0.128-0.577l-0.23-0.631l-0.305-0.577l-0.362-0.568l-0.43-0.501l-0.726-0.594L106.962,98.278z M104.668,96.895l1.63,0.948
			l0.531-0.3l-2.114-1.107l-0.36,0.051l-0.678,0.202L104,96.682l0.338,0.061c0.031,0.006,0.061,0.017,0.089,0.031l0.211,0.105
			C104.648,96.883,104.658,96.889,104.668,96.895z M72.018,82.366l26.523,15.316l0.133-0.14c0.026-0.027,0.057-0.049,0.091-0.066
			l0.264-0.132c0.011-0.006,0.022-0.011,0.034-0.016c0.012-0.005,0.023-0.009,0.035-0.012l0.412-0.122l-3.274-1.891
			c-0.019-0.009-0.038-0.019-0.055-0.032l-27.288-15.76l-0.916,0.535l4.029,2.313C72.01,82.361,72.014,82.363,72.018,82.366z
			 M97.088,94.497l3.894,2.258l0.093-0.028l-0.069-0.565l-1.492-0.859c-0.085-0.014-0.162-0.058-0.217-0.125l-1.698-0.977
			L97.088,94.497z M99.847,94.681l1.053,0.606l-0.003-0.032l-1.213-5.819l-1.799-5.872l-0.67-1.772l-0.75-1.741l-0.832-1.744
			l-0.911-1.714l-0.967-1.692l-1.019-1.636l-1.098-1.579l-1.123-1.524l-3.369-4.097l-3.55-3.791l-3.713-3.523l-3.765-3.173
			l-3.842-2.793l-3.857-2.437l-3.877-2.046l-3.834-1.607l-3.751-1.177l-1.855-0.392l-2.214-0.105l-4.776-0.161l-2.573,0.054
			c-0.066-0.003-0.126-0.015-0.179-0.045L45.3,44.883l-1.073,0.316l-0.81,0.365l-0.805,0.604l-0.776,0.755l-0.702,0.861
			l-0.641,0.951l-1.798,3.784l-1.241,4.566l16.703,9.638c0.008,0.004,0.016,0.009,0.023,0.014l1.884,1.184l1.914,1.42l1.88,1.579
			l1.801,1.745l1.768,1.904l0.768,0.941l4.248,2.473c0.015,0.008,0.029,0.017,0.042,0.027c0.014,0.01,0.026,0.02,0.038,0.033l0,0v0
			c0.014,0.013,0.024,0.026,0.035,0.041l0.573,0.748l9.867,5.698l2.542,0.052l4.383,0.515l3.112,0.681l2.871,0.955l2.556,1.261
			l2.128,1.515l1.458,1.559l1.089,1.639L99.847,94.681z M80.262,85.262l15.789,9.118c0.008-0.022,0.017-0.043,0.029-0.063
			c0.016-0.027,0.035-0.051,0.057-0.074c0.02-0.02,0.044-0.038,0.069-0.052c0.002-0.001,0.005-0.003,0.007-0.004l1.205-0.696
			c0.011-0.007,0.022-0.013,0.035-0.018c0.047-0.021,0.096-0.032,0.146-0.032h0.001c0.049,0,0.098,0.01,0.145,0.031
			c0.013,0.005,0.025,0.012,0.037,0.019l1.126,0.648l-0.397-1.119l-1.015-1.517l-1.369-1.467L94.1,88.599l-2.463-1.213l-2.791-0.926
			l-3.042-0.666l-4.314-0.507L80.262,85.262z M112.914,91.18v0.452l0.113-0.234l1.316-3.062l1.049-2.718l1.157-3.338l0.753-2.367
			l0.836-2.855l0.853-3.113c0.004-0.028,0.012-0.055,0.022-0.081l0.969-3.632c-0.026-0.07-0.03-0.149-0.008-0.226l0.243-0.81
			l0.257-3.035l-0.27-3.371l-0.684-3.042l-0.352,1.323l-0.842,2.688l-1.034,2.643l-1.313,2.493l-1.655,2.132
			c-0.018,0.024-0.04,0.045-0.064,0.064l-2.052,1.566c-0.026,0.02-0.054,0.036-0.086,0.048l-2.349,0.918l-2.736,0.531l-2.977,0.275
			l-3.14,0.216l-2.155,0.196l7.056,4.086c0.009,0.005,0.017,0.01,0.026,0.016l1.074,0.698l1.093,0.948l1.023,1.076l0.942,1.216
			l0.852,1.291l0.722,1.411l0.58,1.403l0.417,1.441l0.277,1.379l0.087,1.335C112.914,91.156,112.914,91.168,112.914,91.18z
			 M104.696,80.182l0.608,0.411l1.083,0.914l1.031,1.11l0.938,1.212l0.853,1.29l0.72,1.382l0.582,1.435l0.417,1.439l0.277,1.379
			l0.05,0.773l0.941-0.548l-0.068-1.079l-0.264-1.303l-0.397-1.376l-0.555-1.34l-0.69-1.352l-0.817-1.235l-0.903-1.167l-0.977-1.026
			l-1.03-0.895l-0.859-0.556L104.696,80.182z M36.996,80.035l2.119,0.564l3.791,1.471l3.55,1.909l2.956,2.131l2.576,2.462
			l2.061,2.621l-0.614-1.085l-1.258-1.926l-1.317-1.881l-1.418-1.764l-1.474-1.661l-1.525-1.525l-1.553-1.39l-1.575-1.227
			l-1.875-1.268L36.996,80.035z M70.564,85.467l0.184,0.363l0.737,1.658v-3.55L70.564,85.467z M68.055,80.904l0.108,0.169
			l1.359,2.336l0.666,1.315l1.161-1.929L68.055,80.904z M117.793,80.697l0.021,0.004l0.391-0.007l0.388-0.051l0.359-0.099
			l0.308-0.136l3.116-1.8c0.001,0,0.001,0,0.002,0l5.067-2.974l0.259-0.264l0.24-0.317l0.185-0.356l0.268-0.874l0.073-0.498
			l0.022-0.522l-0.026-13.481l-0.079-0.59l-0.29-1.23l-0.208-0.622l-0.554-1.26l-0.314-0.628l-8.277-14.236l-0.399-0.585
			l-0.862-1.017l-0.453-0.48l-0.96-0.773l-0.465-0.266c-0.005-0.002-0.01-0.005-0.014-0.008l-11.648-6.714l-0.941-0.327
			l-0.415-0.069l-0.397,0.005l-0.389,0.051l-0.359,0.099l-0.296,0.156l-7.89,4.524l-0.307,0.23l-0.259,0.264l-0.24,0.317
			l-0.257,0.567l1.109,0.165l3.042,0.57l2.551,0.6l0.225-0.112c0.017-0.015,0.034-0.028,0.054-0.04l0.369-0.22
			c0.007-0.005,0.013-0.009,0.019-0.014l0.077-0.051c0.007-0.005,0.015-0.01,0.022-0.014l0.001,0
			c0.004-0.002,0.009-0.005,0.013-0.007l0.348-0.187l1.258-0.479l1.349-0.286l1.469-0.034l1.511,0.192l1.553,0.386l1.61,0.634
			c0.009,0.003,0.017,0.007,0.025,0.011c0,0,0,0,0,0c0.001,0,0.002,0,0.002,0c0,0,0.001,0,0.001,0l0.001,0
			c0.028,0.014,0.053,0.031,0.076,0.051c0,0,0,0,0,0s0.001,0,0.001,0.001c0.008,0.007,0.016,0.014,0.022,0.022
			c0.024,0.026,0.045,0.056,0.061,0.089c0,0,0,0.001,0,0.001c0.001,0.001,0.001,0.002,0.002,0.003
			c0.002,0.004,0.004,0.008,0.005,0.013l0.08,0.187l0,0l0.237,0.119c0.001,0,0.002,0,0.003,0.001l0.143,0.071
			c0.086,0.008,0.17,0.048,0.23,0.115l0.705,0.353l1.044,0.67c0.01-0.005,0.019-0.009,0.029-0.012l0.001,0l0,0
			c0.048-0.017,0.098-0.021,0.146-0.019c0.001,0,0.001,0,0.001,0l0,0c0.05,0.004,0.098,0.018,0.143,0.043
			c0.017,0.009,0.031,0.019,0.046,0.03l1.559,1.157l1.538,1.37l1.477,1.531l1.419,1.663l1.314,1.804l1.225,1.878l1.092,1.937
			l0.956,2.021l0.844,2.041l0.659,2.053l0.519,2.046l0.356,1.996l0.193,1.917l0.002,1.871l-0.164,1.735l-0.357,1.636l-0.497,1.469
			l-0.668,1.317l-0.839,1.155l-0.988,0.939l-0.91,0.614c-0.057,0.058-0.129,0.091-0.204,0.101l-0.321,0.182
			c-0.027,0.014-0.055,0.024-0.085,0.03l-0.25,0.17l-0.833,3.035L117.793,80.697z M18.723,69.972l0.897,1.195l1.378,1.455
			l1.592,1.351l1.812,1.277l2.023,1.143l2.195,1.07l2.375,0.906l2.52,0.804l2.512,0.608l4.711-2.723l-17.171-9.909L18.723,69.972z
			 M96.688,75.538l7.34,4.212l0.91-0.515L97.626,75L96.688,75.538z M67.172,79.321l0.196,0.263L68.369,79l-0.19-0.249L67.172,79.321
			z M65.403,77.03l1.287,1.753l0.874-0.495L65.403,77.03z M23.246,65.568l17.221,9.926l0.141-0.446l0.585-0.927l0.143-0.133
			l-17.232-9.917l-0.24,0.202l-0.348,0.476l-0.234,0.555L23.246,65.568z M49.66,42.212l2.378,0.163l2.461,0.381l2.509,0.571
			l2.564,0.79l2.586,0.98l2.635,1.14l2.641,1.361l2.634,1.52l2.66,1.71l2.607,1.845l2.58,2.037l2.549,2.169l2.495,2.305l2.441,2.44
			l2.358,2.548l2.279,2.657l2.195,2.765l2.087,2.818l1.771,2.656l1.027-0.589l-3.641-5.193l-4.224-5.164l-4.546-4.787l-4.762-4.33
			l-4.92-3.789l-4.984-3.214l-5.007-2.557l-4.907-1.875l-4.766-1.175l-4.486-0.423l-4.181,0.297l-0.312,0.084l0.977-0.11
			L49.66,42.212z M129.188,73.018l-0.017,0.376l-0.086,0.576l-0.281,0.918l1.784-1.071l0.248-0.256l0.24-0.317l0.186-0.356
			l0.142-0.389l0.124-0.48l0.035-0.383L129.188,73.018z M70.915,47.727l4.515,2.912l4.966,3.825l4.802,4.367l4.582,4.825
			l4.257,5.205l3.76,5.363l3.065-0.279l3.14-0.216l2.935-0.27l2.64-0.508l2.241-0.882l1.976-1.508l1.593-2.044l1.262-2.405
			l1.01-2.584l0.83-2.65l0.641-2.413l-1.229-3.188l-1.632-3.208l-2.168-3.315l-2.486-2.964l-2.67-2.479l-2.741-1.874l-4.527-1.065
			l-4.676-0.397l-4.84,0.244l-5.009,0.86l-5.414,1.611l-5.61,2.31L70.915,47.727z M24.797,63.655l17.171,9.883l11.311-6.507
			l-17.171-9.908L24.797,63.655z M13.709,63.468l-1.568,0.187l-1.485,0.422l-1.352,0.629L8.09,65.564l-1.088,1.095l-0.969,1.262
			L5.256,69.41l-0.632,1.663L4.16,73.037l0.132-0.331l1.368-2.548l1.424-2.059l1.793-1.854c0.022-0.022,0.047-0.042,0.074-0.058
			l0.658-0.387c0.028-0.075,0.082-0.141,0.157-0.184l1.355-0.77c0,0,0.001,0,0.001-0.001l0.08-0.053
			c0.057-0.038,0.121-0.057,0.185-0.059l0.604-0.312l1.302-0.402l1.341-0.226l1.462-0.005l1.477,0.192l0.831,0.192l-1.272-0.368
			l-1.742-0.288L13.709,63.468z M135.061,73.025l0.249-0.043l0.467-0.184l0.227-0.145l-0.431-0.092l-0.566-0.272l-0.487-0.357
			l-0.434-0.402l-0.174-0.241l-0.962,0.614l0.118,0.154l0.356,0.379l0.405,0.276l0.406,0.185l0.43,0.114L135.061,73.025z
			 M129.197,60.132v12.065l2.401-1.398V70.09c0-0.004,0-0.009,0-0.013v-2.661c0-0.004,0-0.009,0-0.013v-4.119
			c0-0.004,0-0.009,0-0.013v-0.284c0-0.005,0-0.01,0-0.015v-1.498c0-0.005,0-0.009,0-0.014v-2.727L129.197,60.132z M134.512,70.923
			l0.103,0.145l0.358,0.323l0.403,0.3l0.431,0.21l0.406,0.079l0.428,0.019l0.136-0.027l-0.371,0.003
			c-0.031,0-0.061-0.004-0.09-0.012l-0.405-0.108l-0.445-0.215l-0.394-0.268l-0.481-0.514l-0.016,0.015
			C134.556,70.892,134.535,70.909,134.512,70.923z M132.493,71.231l0.056,0.09l0.973-0.62l-0.028-0.047L132.493,71.231z
			 M136.449,71.269l0.618-0.043l0.263-0.11l1.559-0.89l-1.885-3.116l-0.007,0.038c-0.009,0.047-0.026,0.092-0.053,0.133l-0.27,0.405
			c-0.018,0.027-0.04,0.051-0.064,0.072l-0.184,0.158c-0.011,0.009-0.021,0.017-0.032,0.025c-0.011,0.008-0.022,0.015-0.034,0.021
			l-1.584,0.908l-0.016,0.236l-0.087,0.452c-0.006,0.027-0.014,0.052-0.025,0.077l0.588,0.918l0.287,0.28l0.302,0.202l0.335,0.164
			L136.449,71.269z M9.77,62.46c-0.027,0.03-0.059,0.055-0.096,0.075l-0.351,0.189L8.15,63.589L7.08,64.638l-0.973,1.186
			l-0.806,1.361L4.616,68.69l-0.553,1.642l-0.206,0.925l0.097-0.394l0.662-1.743l0.827-1.578l1.032-1.347l1.165-1.168l1.316-0.93
			l1.459-0.68l1.592-0.452l1.675-0.2l1.781,0.051l1.829,0.302l1.903,0.549l1.923,0.767l1.474,0.777l0.019-0.108l0.296-0.704
			l0.535-0.69l-1.405-0.742l-1.861-0.769l-1.831-0.555l-1.774-0.343l-1.689-0.13l-1.618,0.135l-1.523,0.318l-1.402,0.551L9.77,62.46
			z M132.304,70.288v0.238l1.41-0.813l0.175-0.176l0.114-0.223L132.304,70.288z M132.304,67.614v1.861l1.903-1.092
			c0.033-0.028,0.071-0.05,0.112-0.064l1.795-1.065l0.202-0.304l0.086-0.477l-0.051-0.63l-0.147-0.479L132.304,67.614z
			 M12.666,64.947l0.172,0.003c0.041,0.001,0.081,0.009,0.119,0.024l1.864,0.729c0.038,0.015,0.073,0.036,0.104,0.064l1.809,1.593
			l1.559,2.045l4.563-2.66l-0.882-0.485l-1.541-0.689l-1.517-0.558l-1.47-0.338l-1.398-0.183l-1.358,0.003l-1.239,0.211
			L12.666,64.947z M108.84,42.227l0.146,0.105l1.558,1.284l1.506,1.449l1.449,1.612l1.363,1.718l1.257,1.829l1.147,1.937
			l1.036,1.988l0.875,2.021l0.763,2.042l0.577,2.054l0.436,2.02l0.248,1.947l0.085,1.892l-0.082,1.787l-0.17,1.156l0.202-0.925
			l0.156-1.659l-0.029-1.798l-0.161-1.866l-0.346-1.94l-0.508-2.001l-0.642-2.004l-0.827-1.998l-0.939-1.982l-1.094-1.921
			l-1.18-1.848l-1.308-1.732l-1.366-1.633l-1.441-1.494l-1.519-1.33l-1.141-0.859L108.84,42.227z M110.659,41.171l0.841,0.624
			l1.538,1.37l1.477,1.531l1.419,1.663l1.314,1.803l1.225,1.878l1.092,1.937l0.981,2.017l0.821,2.048l0.682,2.045l0.521,2.051
			l0.329,2.001l0.192,1.913l0.002,1.871l-0.164,1.735l-0.2,0.994l0.004-0.012l0.31-1.544l0.157-1.665l-0.002-1.803l-0.161-1.86
			l-0.346-1.94l-0.508-2.001l-0.668-2l-0.804-2.006l-0.962-1.975l-1.071-1.928l-1.203-1.841l-1.285-1.739l-1.388-1.628l-1.444-1.496
			l-1.494-1.332l-1.152-0.874L110.659,41.171z M109.756,41.697l0.833,0.642l1.532,1.367l1.502,1.528l1.395,1.668l1.335,1.77
			l1.204,1.886l1.115,1.959l0.958,2.022l0.819,2.045l0.682,2.045l0.521,2.022l0.356,1.997l0.167,1.95l0.001,1.839l-0.159,1.715
			l0.109-0.543l0.157-1.665l-0.002-1.776l-0.161-1.888l-0.346-1.939l-0.508-1.972l-0.668-2.03l-0.803-2.004l-0.936-1.95
			l-1.096-1.923l-1.179-1.848l-1.309-1.762l-1.365-1.631l-1.464-1.462l-1.498-1.336l-1.137-0.877L109.756,41.697z M111.581,40.647
			l0.84,0.637l1.535,1.368l1.477,1.531l1.419,1.663l1.312,1.775l1.227,1.88l1.093,1.966l0.98,2.016l0.821,2.048l0.682,2.045
			l0.521,2.023l0.329,2.002l0.192,1.94l0.002,1.844l-0.159,1.714l0.109-0.542l0.157-1.664l-0.002-1.776l-0.188-1.883l-0.321-1.949
			l-0.507-1.996l-0.668-2l-0.804-2.006l-0.962-1.946l-1.071-1.93l-1.203-1.841l-1.286-1.768l-1.387-1.626l-1.442-1.467l-1.496-1.334
			l-1.152-0.874L111.581,40.647z M132.304,63.482v3.318l3.827-2.206c0.03-0.03,0.065-0.054,0.106-0.072
			c0.017-0.007,0.034-0.013,0.051-0.018l1.206-0.711l0.206-0.309l0.108-0.432l-0.025-0.652l-0.201-0.642l-0.328-0.645l-0.244-0.341
			L132.304,63.482z M14.88,60.468l1.784,0.135l1.849,0.357l1.899,0.576l1.923,0.795l1.747,0.923l11.296-6.524l-1.326-0.701
			l-1.863-0.77c-0.054,0.003-0.114-0.006-0.164-0.028c-0.074-0.006-0.142-0.036-0.196-0.081l-0.011-0.003
			c-0.103,0.017-0.213-0.011-0.297-0.088c-0.001-0.001-0.003-0.002-0.004-0.003l-1.156-0.351l-1.774-0.343l-1.683-0.102l-1.63,0.108
			l-1.518,0.317l-1.402,0.551l-0.662,0.332l-8.845,5.109l0.316-0.067L14.88,60.468z M132.304,61.433l0.074,0.371l0.034,0.73
			c0.001,0.025-0.001,0.05-0.005,0.074l4.516-2.602c0.007-0.004,0.013-0.008,0.019-0.011l0.917-0.537l0.226-0.289l0.126-0.42
			l-0.025-0.616l-0.177-0.655l-0.304-0.643l-0.429-0.624l-0.605-0.557l-4.368,2.534V61.433z M127.797,54.965l0.477,1.009l0.275,0.66
			l0.224,0.672l0.308,1.306l0.089,0.719l2.417-1.408l-0.071-0.988l-0.287-1.242l-0.209-0.621l-0.715-1.547L127.797,54.965z
			 M130.846,53.048l0.251,0.442l0.585,1.335l0.225,0.672l0.307,1.336l0.051,0.562l4.906-2.846c0.007-0.004,0.013-0.007,0.019-0.01
			c0,0,0,0,0.001,0v0c0.001,0,0.003-0.001,0.004-0.002l0.219-0.24l0.139-0.463l0.012-0.506l-0.177-0.681l-0.282-0.685l-0.421-0.577
			l-0.487-0.535l-0.459-0.294l-0.375-0.125L130.846,53.048z M36.543,56.559l0.127,0.073l0.163-0.096l1.204-4.266l1.346-2.84
			l-0.141,0.082l-1.789,3.71L36.543,56.559z M30.353,53.985l0.178,0.034l1.146,0.347l0.096-0.105l-0.033-0.066
			c-0.007-0.003-0.015-0.007-0.021-0.011l-2.065-1.194l-0.51,0.294l1.199,0.694C30.346,53.981,30.35,53.983,30.353,53.985z
			 M119.902,41.289l7.56,13.055l2.494-1.432l-5.412-9.396c-0.02-0.021-0.04-0.046-0.055-0.072c-0.017-0.028-0.028-0.057-0.036-0.087
			l-0.019-0.034c-0.02-0.02-0.038-0.044-0.053-0.07c-0.015-0.026-0.026-0.053-0.034-0.081l-0.797-1.383
			c-0.021-0.026-0.039-0.056-0.052-0.089l-0.006-0.012l-1.068-1.855L119.902,41.289z M26.903,53.554l1.449,0.088l-0.077-0.045
			l-0.5-0.237l-0.359-0.072l-0.341,0.021l-0.298,0.099l-0.2,0.167L26.903,53.554z M28.01,52.702l0.41,0.187l0.442-0.256
			l-0.231-0.046l-0.34,0.021L28.01,52.702z M130.101,51.75l0.347,0.602l5.012-2.881c0.007-0.009,0.015-0.018,0.022-0.026l0.269-0.27
			l0.144-0.389l0.024-0.592l-0.128-0.621l-0.278-0.663l-0.403-0.618l-0.477-0.52l-0.472-0.327l-0.465-0.178h-0.354l-5.235,3.021
			l0.328,0.57l0.163,0.123l0.563,0.612l0.471,0.754l0.323,0.782L130.101,51.75z M127.604,47.415l0.041,0.071l5.338-3.101
			l0.215-0.195l0.161-0.363l0.046-0.54l-0.125-0.655l-0.278-0.663l-0.384-0.659l-0.469-0.507l-0.461-0.363l-0.466-0.2l-0.383-0.02
			l-0.236,0.081c-0.044,0.047-0.101,0.081-0.166,0.097l-5.151,2.992l0.036,0.063l0.222,0.133l0.591,0.42l0.575,0.651l0.443,0.756
			l0.295,0.783l0.151,0.758L127.604,47.415z M51.338,41.31l4.139,0.39l4.858,1.197l4.983,1.903l4.895,2.498l5.618-2.94l5.673-2.336
			l5.489-1.633l5.091-0.874l4.929-0.247l4.774,0.406l0.687,0.161l-1.554-0.5l-1.906-0.515c-0.159,0.091-0.365,0.041-0.467-0.113
			l-2.351-0.552l-3.006-0.564l-1.989-0.295l-3.494-0.376l-2.395-0.188l-2.2-0.08l-2.368-0.027l-2.93,0.081l-3.118,0.215
			l-4.144,0.458l-3.414,0.538l-3.418,0.646l-6.227,1.348L51.338,41.31z M33.84,39.241l7.344,4.239l0.919-0.536l-7.344-4.239
			L33.84,39.241z M124.124,41.374l0.701,1.216l5.122-2.947l0.149-0.335l0.068-0.52l-0.101-0.652l-0.252-0.661l-0.38-0.649
			l-0.454-0.547l-0.475-0.377l-0.476-0.204l-0.392-0.041l-0.269,0.077l-4.884,2.845l0.368,0.579
			c0.002,0.004,0.005,0.008,0.007,0.012c0,0,0,0,0.001,0v0c0.001,0.002,0.002,0.004,0.003,0.005l0.344,0.597
			c0.001,0.001,0.002,0.003,0.004,0.004l0.324,0.405l0.413,0.755L124.124,41.374z M106.636,40.762l0.778,0.442l0.83,0.595
			l0.149-0.403c0.003-0.01,0.007-0.02,0.012-0.03c0.012-0.026,0.027-0.051,0.046-0.075c0,0,0,0,0.001-0.001c0,0,0,0,0,0
			c0.013-0.016,0.026-0.03,0.042-0.044c0.009-0.008,0.018-0.015,0.028-0.022l0.096-0.072c0.02-0.016,0.043-0.03,0.065-0.04
			c0.049-0.023,0.1-0.034,0.152-0.034l0,0l0,0c0.053,0,0.106,0.012,0.155,0.036c0.023,0.011,0.046,0.025,0.066,0.042l0.115,0.088
			l0.14-0.386c0.006-0.016,0.013-0.032,0.02-0.048c0.008-0.016,0.017-0.032,0.028-0.047l0.001,0c0-0.001,0.001,0,0.001-0.002
			c0,0-0.005,0.004,0.002-0.002v0c0.015-0.019,0.031-0.037,0.049-0.052c0.014-0.012,0.027-0.022,0.043-0.032l0.067-0.046
			c0.018-0.013,0.038-0.024,0.057-0.033c0.049-0.022,0.077-0.031,0.154-0.032c0.051,0.001,0.103,0.013,0.15,0.037
			c0.021,0.01,0.041,0.022,0.059,0.037l0.122,0.091l0.134-0.402c0.006-0.02,0.015-0.04,0.025-0.06
			c0.013-0.025,0.029-0.049,0.048-0.069c0,0,0,0,0.001,0v0c0.012-0.013,0.024-0.025,0.038-0.037
			c0.023-0.019,0.048-0.035,0.074-0.047l0.094-0.047c0.017-0.009,0.034-0.016,0.051-0.022c0.048-0.017,0.098-0.021,0.146-0.017
			c0.049,0.004,0.098,0.019,0.143,0.045c0.016,0.009,0.03,0.019,0.045,0.03l0.126,0.096l0.023-0.071l-0.992-0.64l-0.631-0.314
			L106.636,40.762z M116.477,37.327l1.038,0.836l0.953,1.034l0.445,0.555l0.624,0.934l2.52-1.456l-0.579-0.868l-0.862-1.016
			l-0.943-0.89l-0.773-0.527L116.477,37.327z M103.633,39.389l0.586,0.194l1.12,0.501l0.025-0.071l-1.252-0.496L103.633,39.389z
			 M106.197,39.581l0.024,0.042l0.041-0.122l-1.433-0.551l1.189,0.478c0.035,0.014,0.068,0.033,0.097,0.057l0.001,0c0,0,0,0,0,0
			c0.005,0.004,0.01,0.008,0.014,0.012h0.001c0,0,0.001,0.001,0.001,0.001v0c0.001,0,0.001,0.001,0.001,0.001
			c0.001,0,0.001,0,0.001,0c0.001,0.002,0.003,0.002,0.004,0.003l0,0c0.022,0.023,0.043,0.048,0.058,0.075v0
			C106.196,39.58,106.197,39.58,106.197,39.581z M107.116,39.043l0.022,0.038l0.041-0.121l-1.232-0.497l-0.357-0.093l1.339,0.514
			c0.035,0.013,0.068,0.031,0.098,0.055c0.015,0.011,0.028,0.024,0.042,0.038l0,0c0,0,0.001,0.001,0.001,0.001l0.001,0.001
			c0.001,0,0.001,0,0.001,0s0,0,0.001,0.001c0.012,0.014,0.022,0.028,0.032,0.043C107.109,39.03,107.113,39.037,107.116,39.043z
			 M30.435,37.989l0.606,0.066l1.119,0.338l0.959,0.452l0.89-0.519l-0.46-0.224l-1.002-0.304l-0.95-0.067l-0.796,0.1L30.435,37.989z
			 M108.033,38.527l0.014,0.023l0.044-0.126l-1.423-0.52l1.185,0.468c0.048,0.018,0.09,0.046,0.127,0.083v0l0,0
			c0.014,0.015,0.027,0.03,0.039,0.047v0c0,0,0,0,0,0.001C108.024,38.512,108.028,38.519,108.033,38.527z M119.101,35.222
			l1.011,0.684l1.015,0.955l0.933,1.105l4.298-2.505l0.057-0.424l-0.082-0.614l-0.226-0.658l-0.355-0.646l-0.454-0.57l-0.511-0.403
			l-0.447-0.227l-0.386-0.041l-0.324,0.081l-5.085,2.943l0.531,0.308C119.086,35.212,119.094,35.217,119.101,35.222z
			 M105.325,30.871l10.449,6.046l2.428-1.402l-4.619-2.673c-0.026-0.012-0.051-0.026-0.074-0.043l-0.142-0.082
			c-0.045-0.015-0.087-0.039-0.123-0.072l-5.132-2.97c-0.072-0.016-0.138-0.052-0.188-0.109l-0.17-0.098L105.325,30.871z
			 M115.276,33.007l2.567,1.486l4.565-2.642l-0.014-0.084l-0.229-0.676l-0.332-0.656l-0.449-0.561l-0.498-0.441l-0.445-0.247
			l-0.411-0.062l-0.387,0.09l-0.874,0.507c-0.018,0.014-0.039,0.026-0.06,0.037c-0.005,0.002-0.009,0.004-0.014,0.006l-4.415,2.563
			l0.508,0.291l0.48,0.383C115.271,33.003,115.273,33.005,115.276,33.007z M110.888,30.468l2.598,1.504l4.61-2.675l-0.155-0.326
			l-0.446-0.556l-0.505-0.475l-0.454-0.249l-0.425-0.106l-0.306,0.051c-0.014,0.011-0.028,0.021-0.044,0.03L110.888,30.468z
			 M102.842,29.848l0.327,0.054l1.066,0.37l0.376,0.197l2.402-1.388l-0.151-0.054c-0.027-0.006-0.053-0.016-0.078-0.028
			l-0.299-0.098c-0.003,0.001-0.007,0.002-0.01,0.004c-0.147,0.056-0.309,0.009-0.403-0.109l-0.772-0.084l-0.395,0.052l-0.355,0.099
			l-0.258,0.149c-0.003,0.002-0.006,0.003-0.008,0.005L102.842,29.848z M108.905,29.32l1.278,0.739l3.508-2.017l-0.267-0.267
			c-0.051-0.017-0.099-0.046-0.139-0.085l-0.317-0.19l-0.454-0.108l-0.419,0.069l-1.878,1.094c-0.042,0.042-0.095,0.072-0.152,0.089
			L108.905,29.32z M106.696,28.228l0.201,0.062l0.806-0.538l-0.104-0.208l-0.185-0.596l-0.066-0.606l0.025-0.567l0.059-0.277
			l-0.389,0.315l-0.264,0.317l-0.169,0.361l-0.111,0.423l-0.016,0.437l0.078,0.47L106.696,28.228z M109.463,27.818
			c0.022,0,0.044,0.003,0.065,0.008l0.393,0.086l1.835-1.069c0.009-0.005,0.017-0.01,0.027-0.015c0.01-0.005,0.02-0.009,0.03-0.013
			l0.129-0.051c0.029-0.012,0.059-0.019,0.089-0.023l0.46-0.054c0.041-0.004,0.082-0.002,0.123,0.007l0.068,0.016l-1.652-2.758
			l-1.792,1.075l-0.186,0.227l-0.144,0.31l-0.088,0.326l-0.013,0.283l0.178,0.804l0.175,0.308c0.003,0.004,0.005,0.009,0.008,0.013
			L109.463,27.818z M108.385,25.025l-0.065,0.079l-0.169,0.362l-0.08,0.405l-0.018,0.456l0.051,0.486l0.199,0.571l0.088-0.046
			l-0.057-0.108l-0.225-0.965c-0.005-0.029-0.007-0.059-0.005-0.088l0.027-0.405l0.12-0.451L108.385,25.025z M101.57,128.552
			c-0.038,0-0.076-0.006-0.112-0.018l-0.567-0.189c-0.029-0.01-0.057-0.024-0.084-0.041l-0.567-0.378l-0.6-0.617l-0.495-0.72
			l-0.356-0.784l-0.184-0.826l-0.008-0.748c0-0.034,0.005-0.068,0.015-0.101l0.161-0.54c0.016-0.051,0.043-0.099,0.079-0.138
			l0.325-0.351c0.039-0.042,0.088-0.074,0.142-0.093l0.459-0.162c0.055-0.018,0.115-0.022,0.17-0.016l0.54,0.081
			c0.034,0.005,0.068,0.016,0.099,0.03l0.017,0.008c0.092,0.008,0.173,0.048,0.231,0.11l0.32,0.152
			c0.028,0.014,0.054,0.031,0.078,0.051l0.567,0.486l0.556,0.664l0.419,0.791l0.288,0.769l0.101,0.813
			c0.003,0.029,0.003,0.058-0.001,0.086l-0.029,0.215c0.01,0.056,0.006,0.115-0.014,0.173c-0.004,0.014-0.01,0.027-0.016,0.04
			l-0.022,0.166c-0.007,0.046-0.022,0.091-0.046,0.131l-0.27,0.459c-0.025,0.043-0.059,0.08-0.099,0.108l-0.378,0.27
			c-0.05,0.035-0.108,0.057-0.168,0.064l-0.513,0.054C101.594,128.551,101.582,128.552,101.57,128.552z M101.156,127.689
			l0.453,0.151l0.345-0.036l0.241-0.172l0.171-0.29l-0.515-0.368l-0.585-0.578l-0.504-0.758l-0.352-0.779l-0.184-0.796l-0.006-0.481
			l-0.291-0.043l-0.293,0.103l-0.21,0.227l-0.123,0.412v0.623l0.154,0.683l0.302,0.659l0.428,0.62l0.504,0.522L101.156,127.689z
			 M100.923,123.921v0.065l0.154,0.652l0.303,0.663l0.431,0.652l0.612,0.567l-0.043-0.389l-0.25-0.646l-0.36-0.689l-0.472-0.559
			L100.923,123.921z M106.079,88.962c-0.038,0-0.076-0.006-0.112-0.018l-0.566-0.189c-0.029-0.01-0.058-0.024-0.084-0.041
			l-0.567-0.378l-0.6-0.617l-0.495-0.72l-0.356-0.784L103.09,85.4l-0.011-0.761c0-0.04,0.007-0.079,0.019-0.117l0.189-0.54
			c0.017-0.046,0.042-0.087,0.074-0.123l0.325-0.351c0.039-0.042,0.088-0.074,0.142-0.093l0.459-0.162
			c0.054-0.018,0.114-0.023,0.17-0.016l0.54,0.081c0.034,0.005,0.068,0.016,0.099,0.03l0.017,0.008
			c0.091,0.008,0.173,0.048,0.231,0.11l0.32,0.152c0.028,0.014,0.054,0.031,0.078,0.051l0.566,0.486l0.556,0.664l0.417,0.76
			l0.291,0.805l0.1,0.808c0.003,0.029,0.003,0.058-0.001,0.087l-0.03,0.214c0.011,0.056,0.007,0.116-0.013,0.173
			c-0.005,0.015-0.01,0.029-0.017,0.042l-0.022,0.165c-0.007,0.046-0.022,0.09-0.046,0.131l-0.27,0.459
			c-0.025,0.043-0.059,0.08-0.099,0.108l-0.378,0.27c-0.05,0.035-0.108,0.057-0.168,0.064l-0.513,0.054
			C106.103,88.961,106.092,88.962,106.079,88.962z M105.666,88.099l0.452,0.151l0.345-0.036l0.241-0.172l0.171-0.29l-0.514-0.368
			l-0.585-0.578l-0.505-0.758l-0.351-0.78l-0.184-0.795l-0.006-0.481l-0.291-0.043l-0.293,0.103l-0.216,0.233l-0.146,0.414v0.615
			l0.179,0.671l0.305,0.671l0.428,0.62l0.504,0.522L105.666,88.099z M105.433,84.331v0.065l0.154,0.652l0.302,0.663l0.432,0.651
			l0.612,0.567l-0.044-0.388l-0.252-0.677l-0.357-0.654l-0.474-0.564L105.433,84.331z M32.516,46.482
			c-0.033,0-0.066-0.004-0.097-0.014l-0.567-0.162c-0.038-0.011-0.075-0.029-0.108-0.052l-0.567-0.405l-0.584-0.577l-0.501-0.727
			l-0.357-0.815l-0.206-0.78c-0.007-0.029-0.011-0.059-0.011-0.088v-0.675c0-0.04,0.007-0.079,0.02-0.117l0.189-0.54
			c0.015-0.041,0.036-0.08,0.065-0.113l0.324-0.378c0.044-0.051,0.103-0.089,0.168-0.108l0.459-0.135
			c0.044-0.013,0.09-0.017,0.135-0.013l0.54,0.054c0.045,0.004,0.089,0.017,0.129,0.038l0.038,0.02
			c0.069,0.013,0.132,0.047,0.18,0.095l0.349,0.183l0.625,0.497l0.563,0.67l0.419,0.791l0.29,0.8l0.099,0.781
			c0.003,0.029,0.003,0.057,0,0.086l-0.031,0.236c0.015,0.074,0.006,0.153-0.029,0.225l-0.021,0.16
			c-0.006,0.047-0.022,0.092-0.046,0.133l-0.27,0.459c-0.025,0.043-0.059,0.08-0.099,0.108l-0.378,0.27
			c-0.055,0.039-0.12,0.062-0.187,0.065l-0.513,0.027C32.529,46.482,32.522,46.482,32.516,46.482z M32.103,45.644l0.453,0.13
			l0.351-0.019l0.234-0.167l0.182-0.309l-0.517-0.342l-0.6-0.617l-0.495-0.72l-0.357-0.815l-0.182-0.792l-0.005-0.472l-0.292-0.029
			l-0.293,0.086l-0.213,0.248l-0.147,0.421v0.57l0.178,0.686l0.307,0.705l0.427,0.616l0.498,0.488L32.103,45.644z M31.87,41.871
			v0.045l0.154,0.653l0.304,0.693l0.427,0.616l0.618,0.596l-0.044-0.384l-0.252-0.678l-0.359-0.685l-0.472-0.559L31.87,41.871z"/>
	</g>
</g>
</svg>
