<?xml version="1.0" encoding="utf-8"?>
<!-- Generator: Adobe Illustrator 21.1.0, SVG Export Plug-In . SVG Version: 6.00 Build 0)  -->
<svg version="1.1" id="Wire_Harnesses_2017" xmlns="http://www.w3.org/2000/svg" xmlns:xlink="http://www.w3.org/1999/xlink"
	 x="0px" y="0px" viewBox="0 0 140 140" style="enable-background:new 0 0 140 140;" xml:space="preserve">
<style type="text/css">
	.st0{opacity:0.2;}
	.st1{fill:#939598;}
</style>
<g class="st0">
	<path class="st1" d="M5.996,52.455L6.32,51.97c0.022-0.033,0.039-0.07,0.048-0.109l0.124-0.492c0.013-0.05,0.014-0.103,0.004-0.154
		l-0.265-1.292l-0.272-0.665l-0.793-1.299l-0.531-0.524l-0.494-0.369c-0.037-0.028-0.08-0.048-0.125-0.06l-0.987-0.246
		c-0.064-0.016-0.132-0.013-0.195,0.008L2.733,46.8c-0.156-0.081-0.349-0.046-0.449,0.104l-0.039,0.058l-0.15,0.05
		c-0.074,0.024-0.138,0.073-0.181,0.138L1.667,47.52c-0.022,0.033-0.039,0.07-0.048,0.109l-0.25,1.124
		c-0.009,0.045-0.009,0.092,0,0.137l0.142,0.679l0.519,1.28l0.423,0.683l0.987,0.984c0.026,0.026,0.057,0.049,0.091,0.065
		l0.565,0.272l0.578,0.133h0.494c0.038,0,0.075-0.006,0.11-0.018l0.37-0.123c0.074-0.024,0.138-0.073,0.181-0.138l0.02-0.03
		C5.925,52.627,5.978,52.549,5.996,52.455z M3.78,47.668l0.398,0.294l0.44,0.425l0.715,1.182l0.229,0.553l0.231,1.153l-0.089,0.357
		l-0.277,0.415L5.25,52.051l-0.448-0.108l-0.527-0.21l-0.343-0.451l-0.441-0.425l-0.709-1.178l-0.229-1.143l-0.01-0.491l0.109-0.434
		l0.04-0.06l0.266-0.088L3.78,47.668z"/>
	<path class="st1" d="M139.996,126.235c0-0.009-0.004-0.016-0.005-0.025c-0.001-0.011,0.003-0.021,0.001-0.032l-0.246-1.477
		c-0.006-0.034-0.018-0.068-0.033-0.1l-0.247-0.493c-0.017-0.033-0.039-0.063-0.065-0.091l-0.493-0.492
		c-0.026-0.026-0.058-0.049-0.091-0.065l-0.218-0.105c-0.002-0.002-0.004-0.004-0.006-0.005l-4.936-2.953
		c-0.003-0.002-0.006,0-0.009-0.001c-0.006-0.003-0.009-0.009-0.015-0.011l-0.246-0.123c-0.027-0.014-0.058-0.023-0.088-0.029
		l-0.617-0.123c-0.045-0.01-0.092-0.01-0.137,0l-1.347,0.243c-0.043,0.008-0.085,0.022-0.122,0.046l-0.048,0.029l-4.285-2.494
		c-0.006-0.003-0.012,0-0.018-0.002c-0.024-0.012-0.046-0.028-0.073-0.035l-0.578-0.133l-0.578,0.01l-0.539,0.138l-0.456,0.185
		l-7.344-4.203l-0.089-0.089c-0.065-0.066-0.154-0.103-0.247-0.103l-0.579,0.01l-0.564,0.149l-0.517,0.259l-0.572,0.353
		l-2.484-1.802l-1.259-1.002l-1.089-0.724l-1.132-0.877l-1.491-0.991l-1.614-0.99l-1.763-1.002l-1.754-0.75l-1.49-0.495l-1.277-0.38
		l-1.509-0.249l-1.452-0.12l-1.453-0.24l-0.962-0.238l-0.856-0.279c0.002-0.002,0.005-0.001,0.007-0.003l0.021-0.021
		c0.084-0.006,0.164-0.041,0.224-0.102l0.031-0.031l0.347-0.138c0.038-0.015,0.069-0.039,0.098-0.064l0.148-0.059
		c0.007-0.003,0.011-0.008,0.018-0.011c0.015-0.007,0.026-0.018,0.04-0.026c0.022-0.015,0.046-0.027,0.063-0.046
		c0.003-0.003,0.004-0.007,0.007-0.01c0.005-0.006,0.008-0.013,0.013-0.02c0.006-0.007,0.015-0.01,0.02-0.018l0.133-0.198
		l0.482-0.016l0.419,0.21c0,0,0.001,0,0.001,0l0.847,0.482c0.002,0.001,0.004,0.001,0.006,0.002c0.004,0.002,0.006,0.006,0.01,0.008
		l0.564,0.272l0.493,0.123c0.028,0.007,0.057,0.01,0.085,0.01s0.057-0.003,0.085-0.01l0.89-0.254
		c0.052-0.017,0.099-0.046,0.137-0.084l0.031-0.031l0.345-0.138c0.046-0.019,0.086-0.046,0.118-0.079l0.369-0.368
		c0.027-0.026,0.049-0.057,0.065-0.09l0.274-0.564l0.133-0.577l-0.004-0.674l-0.144-0.812l-0.519-1.403l-0.397-0.653l-0.52-0.645
		l-0.561-0.544l-0.613-0.367l-0.718-0.477c0,0,0,0-0.001,0l-0.012-0.008c-0.003-0.002-0.006,0-0.009-0.002
		c-0.001-0.001-0.003-0.001-0.004-0.002c-0.009-0.005-0.015-0.014-0.024-0.019l-0.196-0.098l-0.206-0.205
		c-0.026-0.027-0.058-0.05-0.091-0.066l-0.196-0.098l-0.167-0.166l-0.097-0.194c-0.018-0.034-0.04-0.065-0.066-0.092l-0.188-0.188
		l-0.097-0.29c-0.018-0.052-0.046-0.099-0.085-0.138l-0.194-0.193l-0.343-0.912c-0.004-0.01-0.012-0.017-0.017-0.026
		c-0.005-0.01-0.005-0.021-0.011-0.03c-0.007-0.012-0.018-0.018-0.026-0.029c-0.009-0.012-0.015-0.025-0.025-0.036
		c-0.001-0.001,0-0.002-0.001-0.003l-0.18-0.278c-0.018-0.034-0.04-0.065-0.067-0.092l-0.123-0.122l-0.18-0.278
		c-0.018-0.034-0.039-0.064-0.066-0.091l-0.364-0.364c-0.002-0.002-0.004-0.004-0.006-0.006c0,0,0,0,0,0l-1.748-1.743v-3.793v-0.369
		c0-0.193-0.156-0.35-0.35-0.35h-0.027l-0.533-0.319c-0.001,0-0.002,0-0.003-0.001c-0.001-0.001-0.001-0.001-0.002-0.002
		L54.074,65.38c-0.006-0.004-0.013-0.003-0.019-0.007c-0.008-0.004-0.014-0.01-0.022-0.013c-0.001-0.001-0.002-0.002-0.004-0.002
		l-0.422-0.168c-0.05-0.131-0.176-0.225-0.325-0.225h-0.247c-0.093,0-0.182,0.036-0.248,0.103l-0.091,0.091l-0.552,0.318
		c-0.023-0.007-0.045-0.012-0.07-0.014l-0.026-0.026c-0.066-0.066-0.155-0.103-0.248-0.103h-0.124h-0.124h-0.123
		c-0.093,0-0.182,0.036-0.247,0.102l-0.022,0.021h-0.225c-0.128,0-0.24,0.068-0.301,0.171c-0.051,0.03-0.094,0.072-0.124,0.123
		c-0.097,0.058-0.165,0.16-0.172,0.279l-0.021,0.021c-0.06,0.06-0.096,0.14-0.102,0.224l-0.021,0.021
		c-0.066,0.065-0.103,0.155-0.103,0.248v0.114l-3.912,2.257c-0.03,0.006-0.06,0.009-0.089,0.023l-0.247,0.123
		c-0.006,0.003-0.009,0.008-0.015,0.011c-0.003,0.002-0.006,0-0.009,0.001l-0.432,0.259l-0.239,0.079
		c-0.051,0.017-0.098,0.046-0.137,0.084l-0.124,0.123c-0.015,0.015-0.01,0.036-0.022,0.053l-0.507,0.292
		c-0.059-0.046-0.13-0.078-0.211-0.078h-0.37h-0.124c-0.054,0-0.108,0.013-0.156,0.036l-0.247,0.123l-0.247,0.123
		c-0.054,0.027-0.101,0.068-0.135,0.119l-0.494,0.738c-0.023,0.035-0.026,0.077-0.036,0.117c-0.144,0.038-0.26,0.148-0.269,0.301
		l-0.145,0.146c-0.065,0.065-0.103,0.154-0.103,0.247v0.369v3.649l-0.361-0.059l-1.447-0.119l-1.32-0.237l-1.178-0.348l-0.934-0.459
		l-0.964-0.72l-1.096-0.971l-2.703-2.697l-6.057-6.656l-3.714-3.705l-2.597-2.344l-1.746-1.491l-1.093-0.818v-0.133
		c0-0.038-0.006-0.075-0.018-0.111l-0.124-0.369c-0.01-0.029-0.024-0.058-0.041-0.083l-0.247-0.369
		c-0.03-0.045-0.073-0.079-0.12-0.106c-0.034-0.056-0.077-0.106-0.14-0.137l-6.487-3.175l-0.083-0.082
		c-0.065-0.065-0.154-0.102-0.247-0.102H8.888l-0.021-0.021c-0.061-0.061-0.141-0.097-0.226-0.103l-0.144-0.144
		c-0.027-0.027-0.058-0.05-0.091-0.066l-0.247-0.123c-0.033-0.016-0.07-0.019-0.106-0.024l-0.222-0.661l-0.379-0.882L7.06,47.766
		l-0.537-0.792L5.26,45.718l-0.617-0.492c-0.027-0.021-0.057-0.039-0.089-0.052l-1.233-0.493c-0.042-0.017-0.086-0.024-0.13-0.024
		l-0.562,0.007l-0.617,0.124c-0.03,0.006-0.06,0.016-0.087,0.029l-0.247,0.123l-0.493,0.246c-0.06,0.03-0.102,0.078-0.135,0.132
		c-0.029,0.016-0.056,0.034-0.079,0.057L0.6,45.743c-0.027,0.026-0.049,0.058-0.066,0.091l-0.494,0.984
		c-0.024,0.049-0.037,0.103-0.037,0.157l0.005,1.534l0.132,0.777l0.261,0.903l0.401,0.918l1.005,1.501l0.548,0.67l1.296,1.025
		L4.464,54.7l0.578,0.133l0.701-0.01l0.987-0.246c0.078-0.02,0.147-0.065,0.195-0.13l0.076-0.106H7.14
		c0.06,0,0.108-0.038,0.159-0.066l0.086,0.086c0.004,0.004,0.01,0.002,0.013,0.006c0.023,0.022,0.046,0.045,0.075,0.06l6.539,3.322
		c0.051,0.025,0.105,0.037,0.158,0.037c0.02,0,0.037-0.012,0.057-0.016c0.023,0.004,0.044,0.016,0.067,0.016h0.37
		c0.038,0,0.075-0.006,0.11-0.018l0.238-0.079l1.032,0.755l2.814,2.317l3.194,3.185l1.016,1.137l1.082,0.956l4.202,4.685
		l2.351,2.469l2.115,2.107l1.023,0.889l1.777,1.136l1.417,0.637l1.519,0.376l1.872,0.248l1.402,0.1V92.39v0.369
		c0,0.193,0.157,0.35,0.35,0.35h0.025l0.536,0.32c0.001,0.001,0.003,0,0.004,0.001c0,0,0.001,0.001,0.001,0.001l36.27,20.922
		c0.006,0.004,0.014,0.003,0.02,0.006c0.01,0.005,0.016,0.013,0.027,0.017l0.372,0.148c0.023,0.026,0.043,0.056,0.073,0.074
		c0.062,0.103,0.174,0.171,0.302,0.171h0.123c0.093,0,0.181-0.036,0.246-0.102l0.022-0.021c0.008-0.001,0.013-0.009,0.021-0.01
		c0.039-0.005,0.078-0.009,0.114-0.026l0.524-0.262c0.006,0.004,0.014,0.003,0.02,0.006c0.049,0.026,0.103,0.045,0.163,0.045h0.124
		h0.247h0.246c0.093,0,0.181-0.036,0.246-0.102l0.108-0.108c0,0,0.001-0.001,0.001-0.001l0.014-0.014
		c0.012-0.012,0.019-0.028,0.029-0.041c0.002-0.002,0.003-0.004,0.005-0.006c0.006-0.009,0.017-0.013,0.023-0.022
		c0.05-0.03,0.093-0.073,0.123-0.123c0.001-0.001,0.002-0.002,0.003-0.003c0.002-0.001,0.002-0.003,0.004-0.004
		c0.046-0.03,0.087-0.068,0.116-0.117c0.051-0.029,0.092-0.072,0.122-0.122c0.002-0.004,0.003-0.007,0.005-0.011
		c0.047-0.029,0.085-0.068,0.114-0.115c0.004-0.002,0.007-0.006,0.01-0.009c0.017-0.011,0.035-0.02,0.05-0.034
		c0.003-0.003,0.006-0.003,0.009-0.006c0.008-0.008,0.014-0.018,0.021-0.027c0.005-0.006,0.013-0.008,0.018-0.015
		c0.004-0.006,0.001-0.013,0.005-0.019c0.031-0.045,0.051-0.097,0.057-0.154c0.001-0.006,0.007-0.01,0.008-0.016
		c0.004-0.003,0.005-0.008,0.009-0.012c0.022-0.02,0.038-0.045,0.054-0.07c0.01-0.015,0.022-0.027,0.029-0.043
		c0.007-0.017,0.009-0.035,0.014-0.053l5.749-3.327c0.029,0.008,0.056,0.018,0.087,0.018h0.04l0.174,0.087
		c0.049,0.024,0.103,0.036,0.156,0.036h0.37c0.093,0,0.182-0.036,0.247-0.103l0.107-0.107c0,0,0-0.001,0.001-0.001l0.014-0.014
		c0.001-0.001,0.002-0.002,0.002-0.002l0.02-0.019c0.085-0.006,0.165-0.042,0.226-0.103l0.123-0.123
		c0.061-0.06,0.097-0.14,0.103-0.225l0.143-0.143c0.055-0.054,0.086-0.128,0.096-0.208c0.001-0.007,0.008-0.011,0.008-0.018
		l0.019-0.02c0.058-0.057,0.091-0.135,0.098-0.221l0.025-0.025l0.022-0.021c0.085-0.006,0.165-0.042,0.226-0.103l0.123-0.123
		c0.061-0.06,0.097-0.14,0.103-0.224l0.021-0.021c0.066-0.065,0.104-0.154,0.104-0.248v-0.369v-1.055l1.258,0.522l1.427,0.511
		l4.875,0.724l2.915,0.966l1.47,0.732l1.33,0.722l1.1,0.731l2.837,2.092l2.577,1.836l1.25,0.997l0.634,0.452l-0.114,0.189
		c-0.022,0.038-0.038,0.079-0.045,0.123l-0.245,1.343c-0.001,0.004,0.001,0.008,0,0.012c-0.002,0.012-0.002,0.024-0.003,0.036
		c0,0.007-0.004,0.013-0.004,0.02v5.415c0,0.012,0.006,0.022,0.007,0.034c0.001,0.012-0.002,0.023,0,0.034l0.005,0.021
		c0,0,0,0.001,0,0.001l0.245,1.104c0.016,0.062,0.048,0.117,0.093,0.162l0.493,0.491c0.005,0.005,0.013,0.003,0.018,0.007
		c0.019,0.017,0.034,0.036,0.057,0.049l7.596,4.33v0.412c0,0.045,0.008,0.089,0.024,0.131l0.26,0.642l0.247,0.492
		c0.027,0.054,0.068,0.101,0.119,0.134l0.37,0.246c0.002,0.001,0.005,0.001,0.007,0.002c0.004,0.003,0.006,0.007,0.011,0.01
		l4.253,2.475l0.141,0.849c0.01,0.056,0.032,0.107,0.066,0.152l0.74,0.984c0.032,0.044,0.074,0.079,0.123,0.104l0.241,0.12
		l4.733,2.649l0.084,0.062l0.193,0.093l0.04,0.022c0.004,0.002,0.009,0.001,0.013,0.003l0.319,0.154l0.579,0.133l0.674-0.004
		l0.74-0.123c0.034-0.006,0.067-0.017,0.099-0.032l0.802-0.409l1.387-1.133l0.617-0.616c0.022-0.022,0.041-0.047,0.057-0.074
		l1.514-2.661l0.257-0.908l0.246-1.724c0.001-0.009-0.002-0.018-0.002-0.027c0-0.008,0.005-0.014,0.005-0.022V126.235z
		 M122.427,131.594l-0.275-0.184l-0.377-0.85l3.458,2.029v0.169c0,0.016,0.007,0.03,0.009,0.046
		c0.004,0.026,0.006,0.051,0.015,0.075c0.007,0.02,0.019,0.037,0.029,0.055c0.012,0.021,0.023,0.041,0.039,0.059
		c0.014,0.015,0.03,0.026,0.047,0.039c0.019,0.015,0.038,0.03,0.06,0.041c0.018,0.009,0.038,0.012,0.058,0.018
		c0.019,0.005,0.036,0.015,0.057,0.018l0.672,0.067v0.627L122.427,131.594z M113.828,125.217l-0.391-0.391l-0.05-0.229l7.651,4.425
		v0.304L113.828,125.217z M125.932,132.441v-1.634l1.768,0.176v1.634L125.932,132.441z M126.222,127.908
		c0,0.002,0.001,0.004,0,0.006c-0.001,0.009,0.001,0.017,0,0.026c0,0.006-0.003,0.011-0.003,0.017v1.709l-0.807,0.447
		c-0.014,0.007-0.022,0.02-0.034,0.029c-0.012,0.009-0.025,0.014-0.036,0.024c-0.007,0.007-0.012,0.015-0.019,0.022
		c-0.016,0.018-0.027,0.037-0.039,0.057c-0.011,0.018-0.021,0.036-0.029,0.056c-0.008,0.021-0.011,0.042-0.014,0.064
		c-0.001,0.007-0.008,0.01-0.009,0.017c-0.001,0.007,0.002,0.013,0.002,0.02c0,0.005-0.003,0.01-0.003,0.015v1.358l-3.496-2.051
		v-5.346l4.608,2.673L126.222,127.908z M121.037,123.773v4.441l-7.813-4.519v-4.607l7.813,4.518V123.773z M126.918,133.784v-0.54
		l1.096,0.109c0.013,0.001,0.024,0.001,0.035,0.001c0.086,0,0.161-0.034,0.222-0.085c0.005-0.004,0.01-0.006,0.015-0.01
		c0.055-0.052,0.089-0.121,0.102-0.2c0.001-0.008,0.009-0.012,0.01-0.02c0.001-0.007-0.002-0.013-0.002-0.02
		c0-0.005,0.003-0.01,0.003-0.015v-2.338c0-0.012-0.005-0.022-0.007-0.033c-0.002-0.019-0.002-0.038-0.007-0.056
		c-0.003-0.011-0.007-0.021-0.01-0.031c-0.006-0.016-0.015-0.03-0.023-0.045c-0.008-0.015-0.015-0.03-0.025-0.044
		c-0.007-0.009-0.014-0.017-0.021-0.025c-0.012-0.013-0.026-0.023-0.041-0.035c-0.01-0.008-0.017-0.02-0.029-0.027l-1.318-0.837
		v-0.978l4.359,2.44v5.228L126.918,133.784z M131.977,136.787v-5.969l0.041-0.29v5.922l0.007,0.628L131.977,136.787z
		 M132.712,129.739l0.101-0.658l0.361-0.843l0.078-0.156v2.212l-0.538-0.322L132.712,129.739z M132.717,130.791l0.494,0.295
		l-0.188,0.945l-0.215,0.669l-0.091,0.152V130.791z M132.717,134.105l0.32-0.428l0.402-0.686l0.258-0.781l0.247-1.229
		c0.001-0.003-0.001-0.006,0-0.009c0.002-0.013,0.002-0.026,0.003-0.039c0-0.007,0.004-0.014,0.004-0.021v-4.162l0.287-0.289v3.713
		v0.682l-0.456,1.5l-0.716,1.427l-0.35,0.352V134.105z M134.938,125.642l0.57-0.459l0.208-0.126l2.841,1.744v5.233l-3.619-2.062
		V125.642z M136.451,124.687l0.18-0.072h0.94l0.226,0.146l0.338,0.331l0.323,0.431l0.097,0.456L136.451,124.687z M132.717,136.45
		v-1.238l0.268-0.36l0.617-0.615c0.026-0.026,0.049-0.058,0.065-0.091l0.765-1.538l0.488-1.586c0.012-0.035,0.018-0.072,0.018-0.11
		v-0.137l3.62,2.063l0.003,0.478l-0.099,0.658l-0.361,0.842l-0.719,1.439l-0.463,0.693l-1.153,0.924l-0.567,0.345l-0.571,0.231
		l-0.418,0.104l-0.475-0.095l-0.256-0.164l-0.338-0.331l-0.33-0.44l-0.094-0.335V136.45z M139.256,126.604l-0.006-0.618l0.047,0.283
		v5.967l-0.041,0.291V126.604z M138.866,124.474l0.197,0.395l0.125,0.747l-0.062-0.31c-0.01-0.052-0.031-0.101-0.063-0.142
		l-0.402-0.53l-0.423-0.412l-0.37-0.247c-0.058-0.038-0.125-0.059-0.194-0.059h-1.005l0.448-0.163l0.472-0.009l0.422,0.097
		l0.443,0.221L138.866,124.474z M132.615,120.808l0.503,0.101l0.19,0.096l3.522,2.107l-0.644,0.214l-0.682,0.28l-0.77,0.515
		l-0.785,0.66l-0.639,0.769l-0.507,0.759l-1.02,1.8l-0.257,0.909l-0.175,1.218l-4.404-2.464l0.206-1.439l0.357-0.834l0.347-0.934
		l0.458-0.812l1.213-1.453l0.577-0.575l0.713-0.357l0.56-0.335L132.615,120.808z M125.173,118.575l0.409-0.113l0.408-0.01
		l0.446,0.111l3.895,2.266l-0.586,0.292c-0.033,0.017-0.064,0.039-0.091,0.065l-0.639,0.639l-1.27,1.527l-0.517,0.913l-0.364,0.97
		l-0.37,0.861c-0.013,0.028-0.021,0.058-0.025,0.088l-0.017,0.121l-4.715-2.735v-0.48l0.466-1.396l0.352-0.817l0.931-1.165
		l0.55-0.562l0.567-0.345L125.173,118.575z M115.92,114.514l0.408-0.113h0.35l0.021,0.021c0.004,0.004,0.011,0.003,0.016,0.007
		c0.019,0.017,0.034,0.037,0.057,0.05l7.015,4.015l-0.179,0.11l-0.644,0.645l-0.986,1.231c-0.02,0.024-0.036,0.052-0.048,0.081
		l-0.381,0.888l-0.462,1.38l-7.825-4.525l0.193-1.051l0.349-0.581l0.338-0.686l0.337-0.455l0.366-0.378
		c0.013-0.013,0.029-0.019,0.04-0.034c0.002-0.003,0-0.007,0.002-0.01l0.017-0.018L115.92,114.514z M97.077,103.969l-0.333-0.077
		l-0.493-0.246c0,0,0,0-0.001,0l-0.847-0.482c-0.002-0.001-0.005-0.001-0.007-0.002c-0.004-0.002-0.006-0.005-0.009-0.007
		l-0.493-0.246c-0.049-0.024-0.103-0.036-0.156-0.036h-0.863c-0.093,0-0.181,0.036-0.246,0.102l-0.226,0.225l-0.478,0.358
		c-0.004,0.003-0.003,0.009-0.007,0.012c-0.002,0.002-0.006,0.003-0.008,0.005l-0.152,0.06c-0.046,0.018-0.085,0.045-0.118,0.078
		l-0.464,0.019l-0.477-0.095l-0.929-0.529V92.494l1.09,1.087l0.098,0.196c0.018,0.034,0.04,0.065,0.067,0.092l0.246,0.245
		l0.182,0.279c0.017,0.033,0.039,0.063,0.065,0.09l0.18,0.278c0.018,0.034,0.04,0.065,0.067,0.092l0.082,0.082l0.467,0.932
		c0,0.001,0,0.001,0.001,0.002l0.494,0.862l0.124,0.246c0.034,0.067,0.089,0.122,0.156,0.156l0.195,0.098l0.454,0.452
		c0.026,0.026,0.057,0.048,0.091,0.065l0.242,0.121l0.831,0.474l0.439,0.325l0.947,0.944l0.357,0.711l0.336,0.558l0.231,1.23
		l0.007,0.547l-0.113,0.574l-0.097,0.29l-0.179,0.178l-0.139,0.055c-0.039,0.016-0.071,0.04-0.101,0.066L97.077,103.969z
		 M84.476,102.207l-0.278-0.373l-0.076-0.228l0.196-0.814l0.467-0.933l0.635-0.633l0.311-0.086h0.514l0.408,0.259l-0.104,0.069
		l-0.48,0.239c-0.033,0.017-0.064,0.039-0.091,0.065l-0.37,0.369c-0.026,0.026-0.049,0.058-0.065,0.091l-0.494,0.984
		c-0.015,0.028-0.024,0.058-0.03,0.089l-0.13,0.684v0.442L84.476,102.207z M88.541,101.565l0.13-0.684v-0.492
		c0-0.038-0.006-0.075-0.018-0.11l-0.123-0.369c-0.018-0.052-0.046-0.099-0.085-0.138l-0.247-0.246
		c-0.026-0.026-0.057-0.048-0.091-0.065l-0.229-0.115l-1.343-0.852c-0.005-0.003-0.011,0-0.016-0.003
		c-0.051-0.029-0.108-0.051-0.171-0.051l-0.702,0.01l-0.493,0.123c-0.06,0.015-0.108,0.048-0.15,0.087
		c-0.004,0.003-0.009,0.002-0.012,0.005l-0.74,0.738c-0.026,0.026-0.049,0.058-0.065,0.091l-0.521,1.056l-0.247,0.985
		c-0.016,0.064-0.014,0.133,0.008,0.195l0.123,0.369c0.01,0.03,0.023,0.058,0.041,0.084l0.291,0.423l0.123,0.123
		c0.004,0.004,0.011,0.002,0.016,0.007c0.021,0.019,0.039,0.04,0.064,0.054l1.357,0.738c0.002,0.001,0.003,0,0.005,0.001
		c0.002,0.001,0.004,0.003,0.006,0.005l0.663,0.265c0.036,0.012,0.073,0.018,0.11,0.018s0.074-0.006,0.11-0.018l0.234-0.078
		l0.832,0.662l1.875,1.12l1.287,0.641v1.384v0.035c-0.031-0.04-0.065-0.079-0.111-0.102l-0.061-0.03l-0.03-0.059
		c-0.006-0.012-0.017-0.019-0.024-0.03c-0.011-0.017-0.02-0.034-0.034-0.049c-0.007-0.007-0.013-0.013-0.02-0.02
		c-0.013-0.012-0.027-0.019-0.041-0.029c-0.013-0.009-0.022-0.021-0.037-0.029l-0.246-0.123c-0.003-0.001-0.005,0.001-0.008-0.001
		c-0.045-0.021-0.095-0.036-0.148-0.036h-0.247h-0.247c-0.055,0-0.108,0.013-0.156,0.036l-0.246,0.123
		c-0.034,0.018-0.064,0.039-0.091,0.065l-0.247,0.246c-0.026,0.026-0.049,0.057-0.065,0.091l-0.099,0.197l-0.082,0.082
		c-0.027,0.026-0.049,0.057-0.066,0.091l-0.123,0.246c-0.002,0.004-0.001,0.008-0.003,0.012c-0.008,0.018-0.01,0.038-0.015,0.057
		c-0.007,0.026-0.015,0.052-0.016,0.078c0,0.003-0.002,0.006-0.002,0.009v0.123v0.738c0,0.019,0.018,0.032,0.021,0.051l-5.244,3.035
		v-0.008c0-0.093-0.037-0.183-0.103-0.248l-0.15-0.15c-0.015-0.173-0.152-0.309-0.327-0.318c-0.064-0.076-0.156-0.126-0.264-0.126
		h-0.123h-0.247h-0.123c-0.054,0-0.107,0.012-0.156,0.036l-0.247,0.123c-0.033,0.017-0.064,0.039-0.091,0.065l-0.247,0.246
		c-0.026,0.026-0.049,0.058-0.066,0.092l-0.099,0.197l-0.081,0.081c-0.026,0.026-0.049,0.057-0.065,0.09l-0.124,0.246
		c-0.022,0.043-0.034,0.089-0.036,0.135l-0.021,0.021c-0.066,0.065-0.103,0.154-0.103,0.247v0.369c0,0.038,0.006,0.075,0.018,0.11
		l0.097,0.292l-0.219,0.109h-0.039c-0.007,0-0.014,0-0.021,0.001V93.867v-0.225l0.021-0.022c0.061-0.06,0.096-0.14,0.102-0.224
		l0.041-0.041v0.266c0,0.055,0.013,0.108,0.036,0.156l0.123,0.246c0,0.001,0.001,0.001,0.002,0.002l0.123,0.245
		c0.055,0.109,0.163,0.173,0.283,0.184l0.028,0.028c0.014,0.014,0.032,0.022,0.048,0.033c0.013,0.009,0.024,0.018,0.037,0.025
		c0.049,0.026,0.103,0.045,0.163,0.045h0.124h0.247h0.246c0.093,0,0.181-0.036,0.246-0.102l0.108-0.108c0,0,0.001-0.001,0.001-0.001
		l0.014-0.014c0.012-0.012,0.019-0.028,0.029-0.041c0.002-0.002,0.003-0.004,0.005-0.006c0.006-0.009,0.017-0.013,0.023-0.022
		c0.05-0.03,0.093-0.073,0.123-0.123c0.001-0.001,0.002-0.002,0.003-0.003c0.002-0.001,0.002-0.003,0.004-0.004
		c0.046-0.03,0.087-0.068,0.116-0.117c0.051-0.029,0.092-0.072,0.122-0.122c0.002-0.004,0.003-0.007,0.005-0.011
		c0.048-0.03,0.087-0.069,0.116-0.118c0.098-0.058,0.166-0.159,0.172-0.28c0.023-0.019,0.041-0.042,0.058-0.066
		c0.009-0.013,0.019-0.024,0.026-0.039c0.025-0.048,0.043-0.101,0.043-0.159v-0.123v-0.369v-0.246c0-0.093-0.037-0.183-0.103-0.248
		l-0.145-0.144c0-0.006-0.007-0.01-0.008-0.016c-0.008-0.069-0.034-0.131-0.077-0.182l5.554-3.152v0.666
		c0,0.093,0.036,0.182,0.103,0.247l0.245,0.245c0.063,0.064,0.151,0.104,0.248,0.104h0.04l0.174,0.087
		c0.049,0.024,0.103,0.036,0.156,0.036h0.37c0.093,0,0.182-0.036,0.247-0.103l0.107-0.107c0,0,0-0.001,0.001-0.001l0.016-0.016
		l0.145-0.144c0.176-0.011,0.316-0.151,0.328-0.327l0.143-0.144c0.055-0.054,0.086-0.128,0.096-0.208
		c0.001-0.007,0.008-0.011,0.008-0.018l0.019-0.02c0.009-0.009,0.014-0.021,0.022-0.031v2.069l-0.354,0.264
		c-0.004,0.003-0.003,0.009-0.007,0.012c-0.01,0.008-0.022,0.012-0.031,0.021c0,0-0.001,0-0.001,0c-0.001,0.001,0,0.002-0.001,0.002
		c-0.046,0.047-0.073,0.11-0.087,0.177c-0.002,0.012-0.005,0.021-0.007,0.033c-0.001,0.012-0.007,0.022-0.007,0.034
		c0,0.001,0,0.002,0,0.003v11.057l-0.671-0.382l-0.886-0.678C88.526,101.624,88.536,101.596,88.541,101.565z M89.453,108.259
		c-0.01,0.009-0.019,0.017-0.028,0.027h-0.079l0.092-0.137l0.015-0.01V108.259z M45.668,70.922c0.034,0.158,0.168,0.279,0.336,0.279
		c0.039,0,0.075-0.01,0.11-0.022l34.962,20.167l-0.145,0.087L45.367,70.919l0.148-0.085L45.668,70.922z M43.146,77.313
		l35.573,20.449v11.13L43.146,88.373V77.313z M78.966,92.735l-0.021,0.021c-0.062,0.06-0.098,0.141-0.104,0.226l-0.021,0.021
		c-0.016,0.016-0.013,0.042-0.025,0.061l-35.69-20.517c0.011-0.034,0.04-0.06,0.04-0.096v-0.101l0.021-0.021
		c0.061-0.061,0.097-0.141,0.102-0.226l0.042-0.042c0.01-0.001,0.016-0.011,0.027-0.013c0.013-0.002,0.025-0.006,0.038-0.01
		l35.65,20.563C79.003,92.647,78.969,92.686,78.966,92.735z M79.439,92.286c0,0-0.001,0.001-0.001,0.001L43.882,71.778l0.297-0.169
		c0.007,0.005,0.014,0.009,0.021,0.014c0.013,0.009,0.023,0.018,0.037,0.025c0.049,0.026,0.103,0.045,0.163,0.045c0,0,0,0,0,0
		c0,0,0,0,0,0c0,0,0.001,0,0.001,0c0.022,0.023,0.042,0.046,0.069,0.062c0.072,0.115,0.211,0.179,0.344,0.169
		c0.022,0.005,0.044,0.013,0.068,0.014c0.006,0.007,0.003,0.016,0.009,0.023c0.016,0.016,0.039,0.011,0.057,0.023
		c0.054,0.116,0.169,0.196,0.304,0.2c0.006,0.007,0.003,0.016,0.009,0.023c0.017,0.017,0.041,0.016,0.06,0.029
		c0.057,0.115,0.174,0.197,0.311,0.197h0.11c0.06,0.069,0.141,0.117,0.238,0.123l0.021,0.021c0,0,0.001,0,0.002,0.001
		c0.045,0.044,0.104,0.071,0.168,0.085l32.945,19.003c0.053,0.125,0.177,0.212,0.321,0.212c0.012,0,0.022-0.006,0.033-0.007
		l0.194,0.112c0.001,0.001,0.002,0.002,0.003,0.004c0.008,0.01,0.005,0.025,0.014,0.034c0.008,0.008,0.02,0.005,0.028,0.012
		c0.018,0.015,0.031,0.034,0.051,0.045c0.006,0.01,0.013,0.021,0.02,0.03l-0.314,0.179H79.439z M79.194,91.156l-32.488-18.74
		c0.008-0.029,0.018-0.056,0.018-0.087c0-0.029-0.01-0.055-0.017-0.083l32.64,18.828C79.29,91.09,79.236,91.115,79.194,91.156z
		 M78.719,93.574v3.38L43.022,76.434v-3.381L78.719,93.574z M81.622,91.059c-0.019,0.002-0.037,0.01-0.056,0.015L46.354,70.763
		v-0.172l35.437,20.372L81.622,91.059z M83.369,90.063L48.081,69.777v-0.17l35.438,20.371L83.369,90.063z M47.395,69.936
		c0.033,0.159,0.167,0.281,0.336,0.281c0.04,0,0.077-0.01,0.113-0.023l35.043,20.145l-0.612,0.349l-35.65-20.494l0.608-0.351
		L47.395,69.936z M42.546,71.965c-0.01,0.011-0.008,0.028-0.017,0.04v-0.024L42.546,71.965z M84.002,89.703l-35.661-20.5
		l0.715-0.412l0.216,0.124c0.058,0.114,0.173,0.195,0.31,0.195c0.008,0,0.014-0.004,0.021-0.004l35.074,20.162l-0.541,0.359
		L84.002,89.703z M85.287,88.97c-0.048-0.007-0.097-0.002-0.146,0.012L49.931,68.741v-0.24l35.423,20.431L85.287,88.97z
		 M89.453,88.444c-0.01,0.009-0.019,0.017-0.028,0.027h-0.079l0.092-0.137l0.015-0.01V88.444z M86.927,87.134
		c0.016,0.028,0.012,0.063,0.036,0.087c0.015,0.016,0.039,0.011,0.056,0.023c0.001,0.003,0.001,0.007,0.003,0.01
		c0.004,0.008,0.013,0.012,0.018,0.019c0.025,0.041,0.057,0.076,0.096,0.104c0.013,0.009,0.024,0.018,0.037,0.025
		c0.046,0.025,0.096,0.041,0.152,0.043c0.005,0.006,0.003,0.016,0.009,0.022c0.015,0.016,0.039,0.011,0.056,0.023
		c0.001,0.003,0.001,0.007,0.003,0.01c0.004,0.008,0.013,0.012,0.018,0.019c0.02,0.034,0.044,0.064,0.075,0.089l-0.014,0.009
		L53.037,67.756c0.031,0,0.06-0.017,0.09-0.026c0.06,0.084,0.153,0.14,0.262,0.146c0.031,0.037,0.068,0.067,0.112,0.088
		c0.059,0.087,0.142,0.154,0.254,0.161l0.021,0.021c0,0,0.001,0,0.002,0.001c0.063,0.062,0.15,0.101,0.246,0.101h0.123
		c0.01,0,0.019-0.005,0.029-0.006L86.927,87.134z M52,67.092c0.003,0.002,0.007,0.001,0.01,0.003
		c0.044,0.024,0.092,0.039,0.145,0.042c0.006,0.007,0.009,0.016,0.015,0.023c0,0,0,0.001,0,0.001c0,0,0,0,0,0
		c0.021,0.021,0.049,0.035,0.075,0.051c0.009,0.015,0.023,0.023,0.034,0.036c0.008,0.011,0.005,0.026,0.015,0.036
		c0.009,0.009,0.022,0.008,0.032,0.015c0.041,0.033,0.086,0.053,0.136,0.065c0.02,0.005,0.037,0.015,0.057,0.016
		c0.004,0,0.007,0.003,0.011,0.003c0.006,0.008,0.004,0.019,0.011,0.026c0.024,0.024,0.059,0.02,0.087,0.036
		c0.016,0.028,0.012,0.062,0.036,0.086c0.025,0.025,0.06,0.027,0.089,0.043c0.005,0.008,0.005,0.018,0.011,0.026l-0.823-0.474
		L52,67.092z M50.973,67.846c0.034,0.158,0.168,0.279,0.336,0.279c0.039,0,0.075-0.01,0.11-0.022L86.366,88.26l-0.62,0.344
		L50.225,68.116l0.608-0.351L50.973,67.846z M87.012,87.987c-0.046-0.006-0.093-0.003-0.139,0.01L51.659,67.687v-0.172
		l35.422,20.432L87.012,87.987z M87.089,86.604l-0.044,0.044L54.49,67.869c-0.011-0.121-0.08-0.221-0.182-0.276l32.883,18.968
		C87.158,86.578,87.116,86.576,87.089,86.604z M54.232,67.566c-0.002-0.006-0.002-0.013-0.004-0.019l0.047,0.027
		C54.263,67.569,54.247,67.57,54.232,67.566z M88.712,86.884L53.2,66.4l0.329-0.19l35.624,20.479L88.712,86.884z M43.022,92.556
		v-3.254l35.697,20.521v3.253L43.022,92.556z M90.564,87.748c-0.031-0.04-0.065-0.079-0.111-0.102l-0.061-0.03l-0.03-0.059
		c-0.006-0.012-0.017-0.019-0.024-0.03c-0.011-0.017-0.02-0.034-0.034-0.049c-0.003-0.004-0.005-0.008-0.009-0.012l0.225-0.14h0.023
		l0.021,0.02V87.748z M94.074,95.816l0.007,0.02l-0.009-0.018L94.074,95.816z M94.45,96.413l0.079,0.158l-0.026-0.013l-0.15-0.243
		L94.45,96.413z M98.273,100.01l-0.015-0.024l-0.15-0.3l0.123,0.198L98.273,100.01z M97.426,98.763l0.004,0.005l-0.385-0.382
		L97.426,98.763z M7.856,53.834l-0.18-0.237c-0.017-0.033-0.014-0.073-0.042-0.101c-0.006-0.006-0.015-0.003-0.021-0.009
		l-0.01-0.643l0.097-0.42l0.221-0.441l0.576-0.575c0.001-0.001,0.001-0.001,0.002-0.002l0.064-0.064L8.8,51.264h0.169l0.021,0.021
		c0.004,0.004,0.01,0.002,0.014,0.006c0.024,0.022,0.048,0.045,0.079,0.06l5.601,2.741l-0.335,0.223
		c-0.033,0.021-0.062,0.049-0.086,0.081l-0.403,0.545l-0.273,0.564l-0.134,0.577v0.594L7.856,53.834z M5.659,54.134l-0.532,0.01
		l-0.422-0.097l-0.678-0.329l-1.18-0.931l-0.475-0.591l-0.957-1.42l-0.355-0.82l-0.238-0.823l-0.119-0.681v-1.394l0.431-0.859
		l0.292-0.292l0.369-0.191l0.408-0.113h0.55l1.124,0.448l0.547,0.435l0.591,0.586l1.07,1.292l0.361,0.72l0.36,0.835l0.247,0.738
		c0.008,0.025,0.024,0.043,0.037,0.065c0.003,0.005,0,0.012,0.003,0.017c0.004,0.005,0.01,0.007,0.013,0.012
		c0.009,0.013,0.018,0.025,0.028,0.036c0.002,0.002,0.001,0.004,0.003,0.006l0.021,0.02v1.136l-0.113,0.233L6.913,52.76v0.504
		l-0.396,0.557l-0.188,0.125c-0.005,0.003-0.004,0.01-0.009,0.013L5.659,54.134z M40.497,77.89l-1.812-0.239l-1.42-0.348
		l-1.316-0.594l-1.683-1.075l-0.97-0.846l-4.428-4.539l-4.223-4.705l-1.082-0.955l-1.001-1.123l-3.234-3.224l-2.852-2.35
		l-1.783-1.303l-0.151-0.301l0.181-0.631l0.377-0.376l0.238-0.079h0.074l1.863,1.393l1.72,1.47l2.579,2.328l3.689,3.68l6.058,6.658
		l2.729,2.722l1.133,1.003l1.04,0.771l1.043,0.514l1.271,0.379l1.391,0.251l1.452,0.12l0.448,0.074v1.419L40.497,77.89z
		 M111.47,114.748l-5.435-3.941l-1.138-0.756l-1.367-0.744l-1.526-0.757l-3.019-0.998l-4.869-0.722l-1.342-0.487l-1.459-0.605
		l-1.703-0.849l-1.812-1.08l-1.12-0.894l-0.142-0.219c-0.018-0.034-0.04-0.065-0.067-0.092l-0.144-0.144c0,0,0-0.001-0.001-0.001
		c-0.003-0.045-0.014-0.09-0.036-0.133l-0.087-0.173v-0.23l0.092-0.273l0.176-0.274l0.29-0.299l0.011-0.016l0.596,0.591l1.638,1.255
		l1.243,0.743l1.08,0.595c0.005,0.004,0.011,0.006,0.017,0.009l1.184,0.652l1.136,0.377l1.015,0.252l1.509,0.249l1.452,0.12
		l1.438,0.235l2.678,0.848l1.691,0.722l1.718,0.979l1.594,0.978l1.459,0.97l1.132,0.877l1.085,0.721l1.247,0.994l2.384,1.729
		l-0.115,0.116l-0.402,0.546l-0.265,0.53l-0.561-0.4L111.47,114.748z M127.147,135.324l-0.113-0.673l4.272,2.39l0.103,0.709
		l0.103,0.497l-3.538-1.98c-0.003-0.001-0.005-0.001-0.008-0.003c-0.003-0.001-0.004-0.004-0.007-0.005l-0.173-0.086
		L127.147,135.324z M134.848,139.191l-0.63,0.109l-0.531,0.01l-0.423-0.097l-0.223-0.108c-0.003-0.002-0.005-0.005-0.008-0.007
		l-0.307-0.172l-0.317-0.237l-0.191-0.461l-0.1-0.598l0.034,0.136c0.012,0.046,0.032,0.088,0.061,0.125l0.402,0.53l0.424,0.412
		l0.37,0.246c0.037,0.025,0.08,0.043,0.125,0.052l0.616,0.123c0.022,0.005,0.045,0.007,0.068,0.007c0.028,0,0.057-0.003,0.085-0.01
		l0.539-0.138l0.666-0.271l0.133-0.08l-0.099,0.081L134.848,139.191z"/>
	<path class="st1" d="M97.518,101.094l-0.516-1.021l-0.246-0.369c-0.025-0.038-0.059-0.071-0.098-0.097l-0.37-0.246
		c-0.025-0.018-0.054-0.031-0.083-0.041l-0.37-0.123c-0.035-0.012-0.073-0.018-0.11-0.018h-0.37c-0.054,0-0.107,0.012-0.156,0.036
		l-0.247,0.123c-0.067,0.034-0.123,0.089-0.157,0.157l-0.266,0.66c-0.021,0.063-0.023,0.132-0.008,0.197l0.247,0.983
		c0.01,0.039,0.026,0.076,0.049,0.109l0.629,0.877c0.023,0.032,0.052,0.06,0.085,0.081l0.37,0.247
		c0.026,0.018,0.055,0.031,0.084,0.041l0.37,0.123c0.035,0.012,0.073,0.018,0.11,0.018h0.246c0.054,0,0.107-0.012,0.156-0.036
		l0.247-0.123c0.055-0.027,0.101-0.068,0.135-0.119l0.247-0.37c0.038-0.058,0.059-0.125,0.059-0.194v-0.738
		C97.555,101.196,97.542,101.143,97.518,101.094z M96.214,100.15l0.642,1.184v0.368l-0.112-0.03l-0.274-0.183l-0.642-1.183v-0.286
		v-0.089l0.112,0.038L96.214,100.15z M95.433,101.107l-0.015-0.059l0.065,0.128L95.433,101.107z"/>
</g>
</svg>
