<?xml version="1.0" encoding="utf-8"?>
<!-- Generator: Adobe Illustrator 21.1.0, SVG Export Plug-In . SVG Version: 6.00 Build 0)  -->
<svg version="1.1" id="LED_2017" xmlns="http://www.w3.org/2000/svg" xmlns:xlink="http://www.w3.org/1999/xlink" x="0px" y="0px"
	 viewBox="0 0 140 140" style="enable-background:new 0 0 140 140;" xml:space="preserve">
<style type="text/css">
	.st0{opacity:0.2;}
	.st1{fill:#939598;}
</style>
<g class="st0">
	<path class="st1" d="M139.987,121.852c-0.013-0.047-0.035-0.092-0.068-0.132c-0.009-0.011-0.019-0.021-0.029-0.031l-11.419-11.42
		l2.515-9.414c0.004-0.015,0.007-0.03,0.01-0.045c0,0,0,0,0-0.001c0.008-0.049,0.004-0.098-0.008-0.144
		c-0.013-0.048-0.034-0.094-0.068-0.134v-0.001c-0.01-0.012-0.02-0.022-0.03-0.032l-6.513-6.513c-0.011-0.01-0.021-0.02-0.032-0.029
		c-0.039-0.033-0.085-0.056-0.133-0.069c-0.045-0.012-0.095-0.016-0.148-0.008c-0.015,0.003-0.029,0.006-0.042,0.01l-1.582,0.416
		l-1.085-1.084l-0.799-2.986c-0.008-0.032-0.02-0.062-0.036-0.092c-0.017-0.03-0.038-0.056-0.062-0.079l-8.641-8.641l-0.386-1.803
		l-0.429-1.242l-0.542-1.119l-0.637-1.059l-0.725-0.994l-0.62-0.659c-0.003-0.003-0.006-0.006-0.009-0.009l-7.352-7.351
		c-0.005-0.006-0.011-0.012-0.017-0.018l-0.011-0.011c-0.003-0.003-0.007-0.007-0.01-0.01l-0.091-0.09V67.06
		c-0.012-0.011-0.024-0.022-0.035-0.031l-0.854-0.777l-0.98-0.71l-1.04-0.643l-1.109-0.496l-0.476-0.181
		c0,0-0.001-0.001-0.002-0.002l-0.364-0.363l-0.742-0.597l-0.488-0.637l-3.253-3.253c-0.009-0.008-0.017-0.016-0.026-0.023
		l-0.36-0.359l-0.747-0.601l-0.483-0.634l-2.218-2.218c-0.008-0.007-0.016-0.014-0.024-0.021l-0.364-0.363l-0.952-0.754l-1.07-0.679
		l-1.236-0.598c-0.003-0.002-0.007-0.003-0.01-0.005c-0.007-0.003-0.014-0.006-0.021-0.009l-3.869-1.576
		c-0.03-0.012-0.059-0.02-0.089-0.024l-0.933-0.33l-1.257-0.326l-1.326-0.211l-1.041-0.08L64.3,33.691
		c-0.024-0.035-0.052-0.065-0.084-0.089l-0.46-0.681c-0.007-0.012-0.015-0.023-0.024-0.032l-0.124-1.211
		c-0.002-0.033-0.01-0.066-0.022-0.097c-0.008-0.022-0.019-0.042-0.032-0.063c0,0,0-0.001-0.001-0.001c0-0.001,0-0.001-0.001-0.002
		c0,0,0,0,0,0c0.001-0.01,0-0.002-0.001-0.002c0-0.001,0-0.001,0-0.001c0-0.001,0-0.001-0.001-0.002
		c-0.005-0.008-0.011-0.016-0.017-0.023l-0.741-0.971l-0.47-0.471c0,0,0,0,0,0l-1.918-1.918c-0.008-0.008-0.016-0.015-0.025-0.023
		l-0.361-0.359l-0.74-0.596l-0.491-0.639l-0.468-0.468c0,0-0.001-0.001-0.002-0.002l-2.782-2.782
		c-0.006-0.006-0.012-0.011-0.018-0.017l-0.368-0.366l-0.749-0.602l-0.481-0.631l-0.489-0.489c0,0,0,0,0,0l-1.73-1.73
		c-0.008-0.008-0.016-0.016-0.025-0.023l-0.361-0.359l-0.959-0.767l-0.376-0.263c-0.004-0.003-0.008-0.005-0.013-0.008l-6.653-4.321
		c-0.028-0.019-0.057-0.032-0.088-0.041l-0.511-0.318l-1.093-0.542l-1.195-0.422l-1.261-0.327l-1.301-0.191l-1.393-0.113
		l-1.448,0.039l-1.501,0.117l-1.497,0.263c-0.018,0.003-0.036,0.007-0.054,0.013c-0.017,0.005-0.034,0.012-0.05,0.02l-0.475,0.221
		l-1.335,0.507l-0.831,0.178l-0.823,0.019c-0.029,0.001-0.048,0.002-0.071,0.006c-0.024,0.004-0.047,0.011-0.069,0.02l-1.628,0.606
		l-1.615,0.705l-1.646,0.814l-1.635,0.874l-1.632,0.988l-1.612,1.082l-1.574,1.157l-1.554,1.251l-1.493,1.304l-1.462,1.35
		l-1.399,1.436l-1.364,1.479l-1.274,1.498c-0.013,0.015-0.024,0.03-0.034,0.046c-0.01,0.016-0.02,0.033-0.027,0.05l-0.206,0.45
		L7.3,29.599l-0.681,0.865l-0.823,0.823c-0.01,0.01-0.021,0.021-0.03,0.032c0,0,0,0,0,0s0,0,0,0.001
		c-0.011,0.013-0.021,0.027-0.03,0.041l-1.021,1.626l-0.91,1.629l-0.834,1.629l-0.763,1.642l-0.626,1.65l-0.533,1.598L0.61,42.724
		l-0.305,1.562l-0.21,1.511L0,47.274l0.02,1.44l0.136,1.368l0.243,1.253c0.005,0.029,0.013,0.057,0.025,0.084
		c0.001,0.002,0,0.001,0.001,0.003c0.003,0.007,0.006,0.015,0.01,0.022c0.012,0.023,0.027,0.043,0.043,0.063l0.353,0.427
		c0.022,0.027,0.046,0.049,0.073,0.067l0.277,0.534l0.17,0.618l0.018,0.786c0,0.034,0.004,0.069,0.013,0.103
		c0.009,0.032,0.023,0.063,0.04,0.091l0.489,0.822c0.01,0.031,0.023,0.059,0.041,0.087l3.043,4.699
		c0.001,0.001,0.002,0.002,0.002,0.003l1.447,2.2c0,0,0,0,0,0c0.006,0.009,0.012,0.017,0.018,0.025l0.743,0.973l0.392,0.391
		c0.017,0.041,0.043,0.082,0.078,0.116l1.726,1.727c0.005,0.005,0.01,0.01,0.016,0.015l0,0.001l1.05,0.876
		c0.011,0.022,0.025,0.042,0.04,0.062l0.532,0.647l0.391,0.39c0.018,0.042,0.044,0.083,0.079,0.118l2.78,2.78
		c0.002,0.002,0.004,0.004,0.006,0.006l0,0.001c0,0,0,0,0,0c0.004,0.004,0.007,0.007,0.011,0.011l1.029,0.856
		c0.011,0.021,0.024,0.04,0.039,0.059l0.532,0.648l0.392,0.391c0.017,0.041,0.043,0.082,0.078,0.116l1.916,1.916
		c0.001,0.002,0.003,0.004,0.005,0.006c0.004,0.004,0.008,0.008,0.012,0.011l1.337,1.102l1.036,0.68l1.144,0.56l1.219,0.443
		l0.258,0.065l15.52,10.414l0.146,1.553l0.243,1.252c0.003,0.019,0.008,0.037,0.014,0.056c0.007,0.019,0.015,0.037,0.025,0.056h0
		c0.005,0.01,0.011,0.019,0.017,0.028l0.757,1.257l0.057,0.132c0.004,0.01,0.008,0.019,0.013,0.028l0.09,0.64l0,0.406
		c0,0.019,0,0.037,0.003,0.056c0.002,0.014,0.004,0.027,0.008,0.04v0.001c0.005,0.021,0.013,0.041,0.022,0.061L42.528,98
		c0.006,0.015,0.014,0.03,0.023,0.044c0.008,0.014,0.017,0.026,0.026,0.038l0.741,0.97l0.391,0.39
		c0.018,0.042,0.044,0.083,0.079,0.118l1.745,1.745c0.005,0.005,0.011,0.011,0.017,0.016l1.032,0.859
		c0.011,0.021,0.024,0.04,0.039,0.059l0.532,0.648l0.392,0.391c0.017,0.041,0.043,0.082,0.078,0.116l2.782,2.782
		c0.005,0.005,0.011,0.011,0.017,0.016l1.028,0.856c0.011,0.021,0.024,0.041,0.039,0.06l0.532,0.647l0.391,0.39
		c0.015,0.035,0.035,0.069,0.062,0.099l0.29,0.757l0.578,1.115l0.644,1.03l0.753,0.944l0.554,0.587
		c0.011,0.015,0.023,0.029,0.036,0.042l7.481,7.481c0,0,0.001,0.001,0.002,0.002l1.175,1.017l1.016,0.699l1.119,0.578l1.182,0.482
		l1.252,0.363l1.347,0.268l1.383,0.152l0.202,0.005l0.55,2.092c0.008,0.032,0.021,0.065,0.038,0.095
		c0.017,0.029,0.037,0.055,0.061,0.078l6.514,6.514c0.009,0.009,0.018,0.018,0.028,0.026c0.041,0.035,0.089,0.059,0.139,0.072
		c0.046,0.013,0.094,0.016,0.146,0.008c0.001,0,0.001,0,0.001,0c0.015-0.003,0.029-0.006,0.043-0.01l9.438-2.531l9.779,9.78
		c0.011,0.012,0.023,0.023,0.035,0.032c0.038,0.032,0.083,0.053,0.129,0.065c0,0,0,0,0,0.001c0.031,0.008,0.062,0.012,0.094,0.012
		c0.019,0,0.037-0.001,0.057-0.005c0.015-0.002,0.029-0.005,0.043-0.009l2.357-0.638c0.002-0.001,0.005-0.001,0.007-0.002
		c0.028-0.008,0.055-0.019,0.08-0.032c0-0.001,0.001-0.001,0.002-0.001c0.029-0.016,0.054-0.035,0.077-0.058
		c0.021-0.021,0.038-0.044,0.054-0.07c0-0.001,0-0.001,0-0.001c0.018-0.03,0.031-0.061,0.039-0.094v-0.001l0.684-2.503l1.816,1.816
		c0.009,0.01,0.018,0.018,0.028,0.027c0.041,0.033,0.088,0.057,0.137,0.071h0.001c0.047,0.012,0.097,0.015,0.153,0.007
		c0.013-0.003,0.026-0.006,0.038-0.009l2.713-0.731c0.002,0,0.004,0,0.005-0.001c0.032-0.008,0.064-0.022,0.093-0.038
		c0.026-0.016,0.049-0.034,0.07-0.055c0.022-0.022,0.041-0.046,0.057-0.074c0.016-0.028,0.028-0.056,0.035-0.085
		c0-0.003,0.001-0.005,0.001-0.007l0.798-2.951l2.171,2.171c0.011,0.011,0.022,0.021,0.033,0.031
		c0.04,0.032,0.085,0.054,0.132,0.067c0.046,0.012,0.099,0.017,0.15,0.007c0.015-0.002,0.029-0.005,0.042-0.009l15.674-4.215
		c0.002,0,0.004-0.001,0.006-0.001c0.029-0.008,0.057-0.02,0.083-0.034c0.03-0.016,0.055-0.036,0.078-0.059h0.001
		c0.023-0.023,0.042-0.049,0.058-0.078c0.014-0.026,0.025-0.052,0.032-0.08c0.001-0.002,0.001-0.005,0.002-0.007l0.798-2.953
		l2.172,2.172c0.009,0.009,0.018,0.018,0.028,0.026c0.042,0.035,0.09,0.06,0.141,0.073c0.046,0.011,0.096,0.013,0.148,0.006
		c0.014-0.002,0.029-0.006,0.042-0.01l2.732-0.749c0.001,0,0.003-0.001,0.004-0.001h0.001c0.032-0.009,0.064-0.023,0.094-0.04
		c0.025-0.015,0.046-0.032,0.066-0.052c0.023-0.022,0.042-0.047,0.058-0.075c0.016-0.029,0.028-0.058,0.035-0.089
		c0.001,0,0.001,0,0.001-0.001c0,0,0-0.001,0-0.002l0.666-2.482l1.813,1.813c0.011,0.012,0.023,0.023,0.035,0.032
		c0.038,0.031,0.083,0.053,0.128,0.065c0.049,0.014,0.101,0.015,0.154,0.008c0.014-0.002,0.028-0.005,0.04-0.009l2.358-0.638
		c0.004,0.001,0.003-0.001,0.004-0.001c0.031-0.008,0.061-0.021,0.09-0.037c0.001,0,0.001,0,0.002,0
		c0.027-0.017,0.051-0.035,0.073-0.057c0.02-0.02,0.036-0.042,0.051-0.067c0.019-0.031,0.032-0.062,0.04-0.095
		c0-0.001,0-0.001,0-0.002l1.918-7.135c0.003-0.012,0.006-0.025,0.009-0.036C140.004,121.955,140.001,121.903,139.987,121.852z
		 M111.706,88.292l0.229-1.568l0.115-1.526l0.018-1.482l-0.092-1.12l7.913,7.912l0.799,2.986c0.008,0.032,0.02,0.062,0.036,0.092
		c0.017,0.03,0.038,0.056,0.062,0.079l1.288,1.288c0.011,0.011,0.022,0.021,0.033,0.031c0.039,0.032,0.085,0.054,0.132,0.067
		c0.046,0.013,0.096,0.017,0.15,0.007c0.014-0.002,0.027-0.005,0.04-0.009l1.582-0.416l6.232,6.233l-4.425,16.561
		c-0.003,0.011-0.006,0.023-0.009,0.034l-0.438,1.64l-6.037-6.036l-0.799-2.986c-0.007-0.029-0.019-0.058-0.033-0.085
		c-0.011-0.02-0.024-0.038-0.037-0.055c0-0.001-0.001-0.001-0.001-0.002c-0.001,0-0.001-0.001-0.001-0.001
		c-0.001,0-0.001,0-0.001-0.001c-0.001,0-0.001-0.001-0.001-0.001l-0.001-0.001c0,0,0-0.001-0.001-0.001
		c0-0.001-0.001-0.001-0.001-0.002c-0.007-0.007-0.014-0.014-0.021-0.021l-1.288-1.289c-0.011-0.011-0.022-0.021-0.033-0.03
		c-0.04-0.032-0.086-0.055-0.134-0.068c-0.046-0.014-0.098-0.018-0.148-0.007c-0.001,0-0.001,0-0.001,0
		c-0.014,0.002-0.027,0.005-0.039,0.009l-1.582,0.417l-8.369-8.369l1.327-2.355l0.835-1.671l0.741-1.689l0.645-1.671l0.554-1.662
		l0.417-1.631L111.706,88.292z M116.786,109.266l0.714,0.714l-26.233,7.041l1.072-0.731l0.938-0.718L116.786,109.266z
		 M94.704,114.448l2.368-2.022l1.495-1.422l1.437-1.474l1.382-1.496l1.329-1.557l1.247-1.626l1.173-1.627l1.103-1.634l0.228-0.384
		l7.949,7.949L94.704,114.448z M97.323,67.658l0.176-0.786l0.109-0.3l2.226,2.226l-0.058,0.124
		c-0.005,0.009-0.009,0.019-0.013,0.029c-0.005,0.013-0.009,0.026-0.013,0.038L99.5,69.86l-0.157,0.857v0.356l-0.37-0.085
		l-0.541-0.226l-0.397-0.298l-0.204-0.204l-0.088-0.912c-0.001-0.014-0.003-0.028-0.006-0.04c0,0,0,0,0-0.001c0,0,0,0,0-0.001
		c0,0,0,0,0-0.001c-0.016-0.069-0.05-0.13-0.098-0.177l-0.369-0.369l-0.015-0.394L97.323,67.658z M99.962,72.807l-0.036-0.382
		l2.026,2.026l0.117,1.211v1.407l-0.092,1.493l-0.222,1.519l-0.336,1.566l-0.407,1.593l-0.541,1.62L99.838,86.5l-0.745,1.677
		l-0.839,1.66l-0.709,1.247l-2.279-2.28l0.797-1.449l0.854-1.686l0.781-1.694l0.647-1.677l0.531-1.67l0.438-1.617l0.345-1.608
		l0.21-1.581l0.114-1.536L99.962,72.807z M100.052,70.784l0.143-0.758l0.014-0.05l0.218,0.394l0.517,1.218l0.391,1.236l-1.276-1.275
		L100.052,70.784z M95.346,92.877l-0.797,0.76l-0.695,0.813l-0.617,0.852l-0.543,0.897l-0.428,0.898l-0.314,0.87L91.829,98.5
		l-2.176-2.176l0.092-0.582l0.231-0.769l0.36-0.835l0.454-0.818l0.553-0.812l0.596-0.78l0.696-0.734l0.749-0.677l0.786-0.604
		l0.603-0.389l2.255,2.255c-0.003,0.002-0.007,0.004-0.01,0.007l-0.869,0.601L95.346,92.877z M95.814,93.417l-1.238,1.811
		l-1.616,2.065l0.36-0.755l0.511-0.842l0.584-0.805l0.652-0.764L95.814,93.417z M64.804,111.248l0.478-0.39l0.811-0.553l0.805-0.486
		l0.831-0.364l0.793-0.254l0.753-0.162l0.706-0.038l0.624,0.042l0.563,0.156l0.484,0.277l1.615,1.615l-0.099-0.021l-0.795,0.003
		l-0.822,0.104l-0.863,0.238l-0.897,0.353l-0.878,0.45l-0.871,0.564l-0.823,0.635c-0.012,0.009-0.023,0.019-0.034,0.03
		c-0.003,0.003-0.006,0.006-0.01,0.01l-0.082,0.082L64.804,111.248z M66.289,113.744l-0.701,0.053l-1.443,0.002l-1.342-0.091
		l-1.299-0.199l-1.247-0.328l-1.151-0.418l-1.049-0.503l-0.97-0.639l-0.924-0.737l-0.369-0.332l-0.09-0.091l1.543,0.602l1.293,0.326
		l1.361,0.209l1.42,0.113l1.499-0.001l1.32-0.118L66.289,113.744z M63.357,94.461l1.559-0.837l1.534-0.929l1.538-1.007l1.514-1.098
		l1.502-1.161l1.419-1.23l1.403-1.29l1.346-1.347l1.305-1.419l1.236-1.426l0.495-0.641l-0.174,0.336l-1.225,1.481l-1.329,1.441
		l-1.378,1.417l-1.441,1.329l-1.493,1.307L69.658,90.6l-1.571,1.122l-1.589,1.066l-1.58,0.986l-1.624,0.878l-1.605,0.785
		l-1.596,0.706l-1.54,0.562l-0.834,0.025l0.965-0.29l1.556-0.571l1.563-0.649L63.357,94.461z M63.025,93.828l1.124-0.603l-1.118,0.6
		L63.025,93.828z M64.312,93.137l1.191-0.704l-0.942,0.57L64.312,93.137z M87.028,61.835l-0.118-1.397l-0.05-0.244l0.666,0.58
		l1.512,1.171l0.681,0.496c0.04,0.052,0.095,0.092,0.157,0.114l0.554,0.405l0.115,1.182l0.019,1.418l-0.111,1.485l-0.203,1.533
		l-0.337,1.566l-0.406,1.593l-0.541,1.62l-0.631,1.635l-0.766,1.662l-0.842,1.664L85.95,79.73l-2.238-0.742l-1.349-0.288
		l-0.732-0.051l0.7-1.091l0.929-1.65l0.836-1.633l0.741-1.654l0.627-1.613l0.553-1.623l0.418-1.597l0.325-1.553l0.191-1.525
		l0.095-1.477L87.028,61.835z M82.263,79.405l1.26,0.271l2.403,0.799l1.375,1.376l-0.498,0.322l-0.831,0.639l-0.792,0.716
		l-0.733,0.774l-0.663,0.821l-0.557,0.867l-0.486,0.877l-0.39,0.905l-0.256,0.855l-0.02,0.12l-1.221-1.22l-0.864-1.549l-0.773-1.685
		l-0.502-1.646l0.419-0.794l0.63-0.926l0.693-0.876l0.683-0.721L82.263,79.405z M93.013,66.372l0.152,0.118
		c0.025,0.019,0.052,0.034,0.081,0.046l0.639,0.262l0.391,0.092l0.104,1.088l0.019,1.418l-0.11,1.479l-0.223,1.524l-0.314,1.575
		l-0.429,1.584l-0.521,1.635l-0.631,1.634l-0.766,1.662l-0.841,1.664l-0.879,1.595l-0.794,0.514l-0.831,0.64l-0.791,0.715
		l-0.228,0.24l0.646-0.981l1.764-3.093l0.741-1.577l0.645-1.553l0.574-1.533l0.437-1.538l0.362-1.504l0.268-1.461l0.134-1.43
		l0.019-0.47c0-0.005,0-0.011,0-0.016l0.283-1.834l0.114-1.536L93.013,66.372z M97.881,71.242l0.155,0.117
		c0.025,0.019,0.05,0.033,0.079,0.045l0.639,0.262l0.39,0.093l0.105,1.087l0.019,1.418l-0.111,1.485l-0.203,1.533l-0.335,1.561
		l-0.429,1.584l-0.52,1.634l-0.631,1.635l-0.766,1.662l-0.842,1.664l-0.878,1.595l-0.794,0.513l-0.831,0.64l-0.791,0.715
		l-0.227,0.24l0.642-0.975l0.931-1.54l0.836-1.559l0.739-1.571l0.667-1.545l0.552-1.543l0.457-1.523l0.362-1.509l0.248-1.475
		l0.135-1.43l0.019-0.471c0-0.006,0-0.013,0-0.019l0.282-1.83l0.114-1.535L97.881,71.242z M95.061,83.271l-0.654,1.513l-0.727,1.544
		l-0.819,1.527l-0.915,1.512l-1.007,1.53l-1.063,1.473l-1.161,1.46l-1.193,1.418l-1.288,1.401l-1.325,1.325l-1.38,1.269
		l-1.423,1.198l-1.454,1.157l-1.491,1.082l-1.513,0.99l-1.508,0.914l-1.525,0.82l-1.551,0.729l-1.505,0.651l-0.993,0.364l1.05-0.461
		l1.669-0.835l1.688-0.931l1.666-1.022l1.672-1.104l1.626-1.21l1.613-1.273l1.531-1.342l1.516-1.402l1.458-1.46l1.389-1.501
		c0.02-0.022,0.036-0.044,0.051-0.07c0-0.001,0.001-0.001,0.001-0.002c0,0,0,0,0-0.001h0.001c0.002-0.003,0.003-0.007,0.005-0.01
		c0-0.001,0-0.001,0.001-0.002c0-0.001,0.001-0.001,0.001-0.001c0-0.001,0-0.001,0-0.002h0.001c0.017-0.034,0.028-0.071,0.032-0.107
		l0.122-0.756l0.229-0.77l0.361-0.834l0.459-0.826l0.523-0.816l0.621-0.769l0.695-0.733l0.749-0.677l0.786-0.604l0.84-0.541
		c0.004-0.002,0.008-0.005,0.012-0.007c0.022-0.015,0.042-0.032,0.06-0.051c0.018-0.019,0.033-0.038,0.046-0.06
		c0.004-0.007,0.008-0.014,0.012-0.021l0.924-1.679l0.853-1.686l0.54-1.173L95.061,83.271z M65.001,100.069l1.667-0.835l1.689-0.931
		l1.665-1.022l1.672-1.104l1.625-1.21l1.61-1.269l1.556-1.33l1.493-1.418l1.459-1.459l1.139-1.232l1.242,1.242l-1.149,1.242
		l-1.438,1.438l-1.495,1.383l-1.535,1.311l-1.565,1.268l-1.627,1.179l-1.623,1.102l-1.641,1.007l-1.662,0.916l-1.639,0.821
		l-1.45,0.636l-1.206-1.206L65.001,100.069z M63.229,100.066L61.25,98.37l-1.207-0.86l-0.604-0.367l0.921-0.337l1.63-0.721
		l1.63-0.797l1.656-0.896l1.609-1.003l1.608-1.079l1.596-1.141l1.535-1.234l1.512-1.323l1.462-1.349l1.399-1.437l1.349-1.463
		l0.838-1.013l0.367,1.196l0.802,1.755l0.776,1.391l-1.207,1.304l-1.442,1.442l-1.473,1.399l-1.532,1.308l-1.591,1.254l-1.601,1.192
		l-1.646,1.086l-1.641,1.007l-1.662,0.916l-1.639,0.821L63.229,100.066z M65.4,103.148l1.532-0.588l1.557-0.647l1.583-0.745
		l3.089-1.763l1.537-1.007l1.518-1.101l1.476-1.173l1.444-1.219l1.381-1.304l1.343-1.344l1.331-1.407l1.21-1.438l0.569-0.716
		l-0.533,1.161l-0.256,0.855l-0.115,0.702l-1.309,1.416l-1.437,1.439l-1.498,1.386l-1.51,1.324l-1.587,1.252l-1.628,1.179
		l-1.622,1.101l-1.641,1.008l-1.661,0.915l-1.639,0.822l-1.508,0.66l-0.387-0.226c-0.027-0.016-0.056-0.029-0.087-0.036l-0.677-0.18
		l-0.77-0.077l-0.72,0.041L65.4,103.148z M68.835,103.905l1.668-0.836l1.688-0.93l1.67-1.026l1.645-1.115l1.649-1.194l1.613-1.273
		l1.531-1.342l1.516-1.402l1.458-1.46l1.139-1.232l2.276,2.276l-1.149,1.242l-1.437,1.439l-1.498,1.386l-1.51,1.324l-1.591,1.255
		l-1.602,1.192l-1.645,1.086l-1.641,1.007l-1.661,0.916l-1.64,0.821l-1.45,0.636l-2.24-2.241L68.835,103.905z M70.264,108.02
		l1.561-0.573l1.535-0.664l1.578-0.742l1.557-0.837l1.535-0.929l1.538-1.007l1.518-1.102l1.475-1.173l1.442-1.215l1.403-1.29
		l1.346-1.346l1.308-1.424l1.21-1.437l0.57-0.718l-0.533,1.163l-0.256,0.855l-0.115,0.703L87.626,97.7l-1.442,1.442l-1.473,1.399
		l-1.532,1.308l-1.591,1.254l-1.601,1.192l-1.646,1.086l-1.64,1.007l-1.662,0.916l-1.639,0.821l-1.513,0.664l-0.443-0.245
		l-0.712-0.202l-0.742-0.057l-0.751,0.042L70.264,108.02z M91.671,87.043l-0.831,0.64l-0.791,0.715l-0.733,0.774l-0.663,0.821
		l-0.557,0.866l-0.486,0.877l-0.392,0.905l-0.254,0.855l-0.02,0.121l-2.161-2.161l0.092-0.581l0.231-0.77l0.361-0.835l0.458-0.825
		l0.524-0.816l0.621-0.769l0.695-0.733l0.749-0.677l0.786-0.604l0.604-0.39l2.265,2.266L91.671,87.043z M89.538,79.915l-0.724,1.541
		l-1.736,3.042l-1.008,1.531l-1.062,1.473l-1.161,1.459l-1.19,1.415l-1.31,1.385l-1.328,1.329l-1.359,1.284l-1.422,1.199
		l-1.455,1.157l-1.491,1.081l-1.507,0.988l-3.039,1.736l-1.546,0.728l-2.346,0.948l0.894-0.392l1.668-0.835l1.689-0.931l1.669-1.025
		l1.646-1.116l1.651-1.197l1.588-1.286l1.552-1.326l1.516-1.402l1.459-1.459l1.388-1.501c0.023-0.024,0.043-0.051,0.058-0.082
		c0.007-0.012,0.012-0.025,0.017-0.036c0-0.001,0.001-0.002,0.001-0.002v-0.001l0.001-0.002v-0.001c0-0.001,0.001-0.001,0.001-0.001
		c0-0.001,0-0.001,0-0.001c0-0.001,0-0.001,0.001-0.002c0-0.001,0-0.001,0-0.002c0.001-0.001,0.001-0.001,0.001-0.002
		c0.007-0.021,0.012-0.041,0.015-0.063l0.12-0.757l0.231-0.769l0.36-0.835l0.459-0.826l0.523-0.815l0.621-0.769l0.695-0.733
		l0.75-0.678l0.786-0.604l0.839-0.541c0.003-0.001,0.006-0.003,0.008-0.005c0.026-0.016,0.048-0.035,0.069-0.058
		c0.015-0.017,0.029-0.034,0.04-0.053c0-0.001,0-0.001,0.001-0.001c0.004-0.007,0.008-0.015,0.012-0.022l0.924-1.679l0.855-1.69
		l0.567-1.277L89.538,79.915z M79.36,79.318l-1.065,1.477l-1.135,1.471l-1.216,1.403l-1.289,1.4l-1.325,1.326l-1.384,1.273
		l-1.395,1.21l-1.478,1.141l-1.491,1.081l-1.513,0.99l-0.067,0.041l1.422-0.931l1.518-1.102l1.494-1.192l1.46-1.233l1.403-1.29
		l1.364-1.365l1.29-1.404l1.23-1.456l1.176-1.481l1.101-1.518l0.732-1.112L79.36,79.318z M57.787,97.44l0.73-0.02l1.133,0.685
		l1.159,0.826l2.114,1.814l0.618,0.618l-0.525-0.052l-0.808,0.045l-0.844,0.178l-0.87,0.281l-0.871,0.409l-0.898,0.51L57.9,103.33
		l-0.451,0.367c-0.043,0.021-0.081,0.048-0.113,0.083l-1.443-1.443l-0.329-1.398l-0.239-1.467l0-1.213l0.723-0.35l0.906-0.291
		L57.787,97.44z M59.11,103.336l0.841-0.476l0.804-0.379l0.792-0.255l0.753-0.161l0.697-0.039l0.659,0.064l0.574,0.157l0.497,0.291
		c0.026,0.016,0.053,0.029,0.081,0.037c0,0,0,0,0,0h0c0.001,0,0.002,0,0.003,0.001l-1.143,0.325l-1.452,0.336l-1.398,0.26
		l-1.387,0.131l-0.752,0.022L59.11,103.336z M64.387,104.151l0.697-0.04l0.658,0.064l0.575,0.158l0.465,0.272l1.629,1.629
		l-0.535-0.052l-0.77,0.062l-0.881,0.164l-0.833,0.292l-0.907,0.398l-0.863,0.519l-0.852,0.584l-0.448,0.364
		c-0.044,0.02-0.084,0.049-0.117,0.085l-2.269-2.269l0.478-0.39l0.81-0.554l0.805-0.486l0.841-0.366l0.764-0.271L64.387,104.151z
		 M64.81,107.731l0.841-0.366l0.755-0.269l0.791-0.146l0.668-0.058l0.651,0.062l0.563,0.156l0.52,0.297
		c0.024,0.015,0.05,0.027,0.077,0.034c0.004,0.002,0.009,0.003,0.014,0.004l-1.135,0.342l-1.446,0.335l-1.422,0.242l-1.388,0.13
		l-0.729,0.021L64.81,107.731z M69.267,112.835l0.815-0.417l0.829-0.327l0.777-0.217l0.728-0.092l0.675-0.009l0.283,0.06
		l-0.86,0.323l-0.87,0.279l-1.748,0.447l-1.038,0.22L69.267,112.835z M72.492,109.304l1.212-0.532l1.668-0.835l1.689-0.931
		l1.665-1.022l1.673-1.104l1.625-1.21l1.61-1.269l1.556-1.33l1.493-1.418l1.459-1.459l1.139-1.232l2.295,2.295l-1.152,1.246
		l-1.418,1.455l-1.493,1.382l-1.535,1.311l-1.566,1.267l-1.627,1.18l-1.622,1.101l-1.641,1.008l-1.658,0.913l-1.662,0.804
		l-1.451,0.636L72.492,109.304z M95.237,65.569l0.175-0.785l0.166-0.455l0.41,0.394c0.007,0.007,0.014,0.015,0.021,0.023
		l0.032,0.032c0.003,0.004,0.007,0.008,0.011,0.012l0.41,0.41l0.601,0.785l-0.247,0.686l-0.196,0.872l-0.049,0.516l-1.387-1.386
		l-0.015-0.394L95.237,65.569z M95.092,67.94l-0.036-0.384l1.609,1.609c0.001,0,0.002,0.001,0.002,0.002l0.378,0.378l0.117,1.215
		l0.019,1.418l-0.11,1.479l-0.223,1.525l-0.314,1.574l-0.429,1.584l-0.521,1.635l-0.631,1.634l-0.766,1.662l-0.841,1.664
		l-0.693,1.258l-2.255-2.257l0.798-1.449l0.853-1.686l0.781-1.694l0.647-1.676l0.532-1.671l0.439-1.622l0.323-1.616l0.229-1.567
		l0.114-1.535L95.092,67.94z M92.434,62.779l0.196-0.776l0.109-0.3l2.225,2.226l-0.236,0.656l-0.195,0.871l-0.073,0.746
		l-0.356-0.081l-0.54-0.226l-0.415-0.317l-0.186-0.186l-0.087-0.908c-0.005-0.059-0.025-0.116-0.059-0.167
		c0,0.001-0.001-0.002-0.001-0.002s0-0.001-0.001-0.001v-0.001c0,0-0.001,0-0.001-0.001c0,0,0,0-0.001-0.001
		c-0.013-0.019-0.027-0.035-0.042-0.05l-0.368-0.369l-0.015-0.404L92.434,62.779z M92.269,65.647l0.043,1.661l-0.11,1.479
		l-0.223,1.525l-0.315,1.575l-0.427,1.579l-0.54,1.62l-0.634,1.639l-0.744,1.677l-0.842,1.663l-0.693,1.258L86.561,80.1l0.798-1.449
		l0.854-1.686l0.781-1.694l0.645-1.672l0.554-1.661l0.416-1.631l0.345-1.608l0.21-1.581l0.114-1.536l-0.02-1.479l-0.036-0.382
		l0.954,0.955l0.081,0.84C92.253,65.561,92.257,65.604,92.269,65.647z M90.347,60.691l0.2-0.784l0.152-0.455l0.423,0.405
		c0.006,0.007,0.012,0.013,0.018,0.02l0.454,0.454l0.6,0.785l-0.245,0.676l-0.217,0.871l-0.037,0.521l-0.666-0.666
		c-0.008-0.009-0.018-0.018-0.027-0.026c-0.008-0.007-0.017-0.013-0.025-0.019l-0.642-0.468L90.3,61.401L90.347,60.691z
		 M90.082,59.044l-0.22,0.662l-0.218,0.87l-0.058,0.817l0.004,0.07l-1.612-1.241l-1.439-1.252l-0.388-0.411l-0.28-0.528
		l-0.158-0.659l-0.019-0.428l0.315,0.007l0.838,0.144l1.729,0.445L90.082,59.044z M85.054,54.343l1.003,0.637l0.891,0.706
		l0.337,0.335c0.007,0.007,0.014,0.015,0.021,0.023l0.453,0.453l0.093,0.12l-0.853-0.22l-0.918-0.155l-0.536-0.014l-0.523-0.878
		l-0.722-0.953l-0.708-0.737L85.054,54.343z M80.107,52.239l1.076,0.528l0.957,0.592l0.854,0.706l0.763,0.795l0.673,0.888
		l0.551,0.931l0.026,0.781l0.193,0.808l0.17,0.377l0.204,0.331l0.395,0.433l0.234,1.131l0.111,1.33l0.02,1.344l-0.093,1.427
		l-0.184,1.475l-0.316,1.507l-0.408,1.555l-0.54,1.585l-0.614,1.581l-0.727,1.62l-0.821,1.605l-0.912,1.619l-0.995,1.548
		l-0.378,0.379l1.556-2.486l0.835-1.555l0.761-1.562l0.647-1.558l0.552-1.542l0.457-1.524l0.363-1.509l0.248-1.475L85.9,64.47
		l0.038-1.379l-0.06-1.335l-0.193-1.271l-0.291-1.218l-0.388-1.122l-0.493-1.077l-0.507-0.807c-0.001-0.001-0.002-0.003-0.003-0.005
		c0,0,0,0-0.001-0.001c-0.001-0.002-0.003-0.004-0.004-0.007l-0.583-0.89l-0.719-0.872l-0.797-0.793l-0.886-0.725l-0.994-0.602
		l-1.084-0.501l-0.318-0.112L80.107,52.239z M80.758,77.135l1.368-2.436l-0.844,1.575L80.758,77.135z M78.883,57.92l-0.192-1.23
		l-0.275-1.168l-0.393-1.092l-0.506-1.009l-0.319-0.507c-0.002-0.004-0.005-0.008-0.007-0.012l-0.054-0.081l0.747,0.496l0.783,0.67
		l0.699,0.729l0.58,0.831l0.511,0.946l0.418,0.995l0.311,1.071l0.202,1.157l0.111,1.214l0.02,1.263l-0.109,1.326l-0.223,1.375
		l-0.295,1.406l-0.409,1.448l-0.501,1.464l-0.614,1.471l-0.708,1.491l-0.781,1.488l-0.898,1.494l-0.947,1.469l-1.046,1.42
		l-1.122,1.422l-1.172,1.396l-1.253,1.328l-1.287,1.288l-1.361,1.25l-1.38,1.157l-1.435,1.1l-1.458,1.01l-1.47,0.95l-1.491,0.858
		l-1.47,0.764l-1.506,0.688l-1.468,0.578l-1.448,0.483l-1.428,0.391l-1.399,0.296l-1.349,0.168l-1.324,0.075l-1.251-0.035
		l-1.188-0.126l-1.151-0.235l-1.051-0.323l-0.979-0.431l-0.891-0.526l-0.824-0.604l-0.728-0.726l-0.651-0.792l-0.381-0.6l0.103,0.07
		c0.005,0.003,0.01,0.006,0.015,0.01c0,0,0,0,0.001,0c0.002,0.002,0.004,0.003,0.007,0.004l0.76,0.446l1.036,0.486l1.11,0.367
		l1.177,0.249l1.232,0.153l1.291,0.056l1.369-0.06l1.375-0.193l1.434-0.288l1.467-0.401l1.485-0.496l1.505-0.592l1.484-0.686
		l1.52-0.798l1.48-0.873l1.5-0.97l1.462-1.045l1.419-1.117l1.408-1.18l1.324-1.248l1.313-1.314l1.211-1.363l1.173-1.4l1.124-1.429
		l1.004-1.459l0.949-1.483l0.857-1.504l0.759-1.519l0.666-1.503l0.57-1.485l0.478-1.473l0.362-1.467l0.268-1.425l0.134-1.391
		l0.056-1.335L78.883,57.92z M65.443,43.195l0.225-1.536l-0.067,1.288l-0.186,1.447l-0.276,1.496l-0.412,1.531l-0.462,1.536
		l-1.288,3.19l-0.762,1.581l-0.878,1.588L60.386,56.9l-1.048,1.572l-1.097,1.545l-1.217,1.515l-1.254,1.48l-1.304,1.453
		l-1.382,1.382l-1.441,1.329l-1.456,1.271l-1.512,1.214l-1.552,1.141l-1.543,1.06l-3.171,1.868l-3.189,1.513l-1.58,0.614
		l-1.541,0.502l-1.559,0.41l-1.484,0.297l-1.464,0.206l-1.401,0.112h-0.087c0.007,0,0.013-0.001,0.02-0.002h0h0
		c0.006-0.001,0.011-0.002,0.017-0.003c0.001,0,0.001,0,0.002,0h0c0.001,0,0.001-0.001,0.002-0.001s0.001,0,0.002,0c0,0,0,0,0.001,0
		l2.838-0.585c0.001,0,0.002,0,0.004-0.001l1.577-0.324l2.641-0.793c0.013-0.003,0.025-0.008,0.037-0.013l1.591-0.606l1.573-0.702
		l1.637-0.8l3.186-1.861l1.552-1.06l1.551-1.135l1.539-1.198l1.456-1.267l1.444-1.331l1.362-1.399l1.323-1.437l1.274-1.461
		c0.007-0.008,0.014-0.016,0.02-0.025c0.001-0.001,0.001-0.001,0.002-0.002l1.208-1.548l1.869-2.661
		c0.005-0.007,0.009-0.014,0.013-0.021l0.984-1.59l0.871-1.59l0.816-1.613l0.724-1.601l0.607-1.592l0.533-1.558l0.225-0.789
		c0-0.003,0.001-0.005,0.002-0.007l0.32-1.185c0.012-0.045,0.015-0.091,0.01-0.134l0.184-0.679L65.443,43.195z M48.209,23.016
		l-0.118-1.392l-0.038-0.199l0.994,0.911l5.27,4.497l0.115,1.199l0.019,1.417l-0.111,1.479l-0.223,1.525l-0.315,1.574l-0.429,1.584
		l-0.52,1.635l-0.632,1.634l-0.766,1.662l-0.841,1.664l-0.747,1.356l-3.505-2.011l-2.006-0.971l-1.62-0.6l0.773-1.241l0.929-1.649
		l0.834-1.629l0.762-1.639l0.628-1.617l0.532-1.632l0.44-1.588l0.305-1.562l0.21-1.511l0.095-1.482L48.209,23.016z M44.079,41.235
		l1.952,0.946l3.757,2.157l1.383,1.382l-0.499,0.323l-0.837,0.645l-0.765,0.729l-0.734,0.774l-0.657,0.813l-0.586,0.863
		l-0.463,0.888l-0.391,0.905l-0.253,0.846l-0.024,0.127l-1.231-1.231l-2.639-3.754l-1.189-1.931l-0.974-1.915l0.708-1.239
		l0.627-0.881l1.031-1.106L44.079,41.235z M56.902,30.261l0.152,0.117c0.025,0.019,0.052,0.034,0.08,0.046l0.639,0.262l0.39,0.093
		l0.105,1.088l0.019,1.417l-0.111,1.479l-0.223,1.525l-0.315,1.575l-0.427,1.579l-0.54,1.62l-0.633,1.638l-0.746,1.678l-0.839,1.659
		l-0.9,1.584l-0.776,0.529l-0.83,0.639l-0.791,0.716l-0.226,0.238l0.643-0.978l0.91-1.553l0.835-1.555l0.761-1.562l0.646-1.557
		l0.552-1.543l0.457-1.523l0.363-1.51l0.248-1.47l0.153-1.416l0.019-0.471c0-0.006,0-0.012,0-0.018l0.282-1.831l0.115-1.536
		L56.902,30.261z M61.77,35.129l0.153,0.118c0.025,0.019,0.052,0.034,0.08,0.046l0.64,0.262l0.389,0.092l0.105,1.089l0.019,1.417
		l-0.111,1.479l-0.223,1.525l-0.315,1.574l-0.429,1.584l-0.52,1.635l-0.632,1.634l-0.766,1.662l-0.841,1.664l-0.879,1.596
		l-0.794,0.513l-0.83,0.639l-0.791,0.716l-0.227,0.239l1.574-2.513l0.836-1.56l0.738-1.571l0.667-1.546l0.552-1.541l0.457-1.524
		l0.363-1.51l0.248-1.474l0.133-1.429l0.019-0.47c0-0.007,0-0.013,0-0.019l0.282-1.832l0.115-1.536L61.77,35.129z M29.264,67.02
		l1.557-0.57l1.561-0.65l1.555-0.758l1.553-0.836l1.558-0.912l1.538-1.007l1.518-1.102l1.475-1.172l1.445-1.218l1.38-1.305
		l1.343-1.344l1.331-1.407l1.211-1.437l0.569-0.716l-0.533,1.161l-0.255,0.855l-0.114,0.703l-1.31,1.416l-1.439,1.438l-1.494,1.383
		l-1.536,1.311l-1.565,1.268L38.984,63.3l-1.623,1.102l-1.641,1.007l-1.662,0.916l-1.639,0.821l-1.507,0.661l-0.387-0.227
		c-0.028-0.016-0.057-0.029-0.088-0.036l-0.677-0.179l-0.77-0.077l-0.755,0.042L29.264,67.02z M28.881,65.692l-1.203-1.202
		l1.211-0.532l1.667-0.835l1.689-0.931l1.665-1.022l1.672-1.104l1.626-1.21l1.614-1.273l1.531-1.343l1.515-1.401l1.458-1.459
		l1.14-1.233l1.227,1.227l-1.133,1.258l-1.439,1.439l-1.494,1.383l-1.536,1.311l-1.565,1.267l-1.627,1.18l-1.623,1.101l-1.641,1.008
		l-1.657,0.913l-1.666,0.807L28.881,65.692z M32.724,67.792l1.668-0.835l1.689-0.931l1.669-1.025l1.646-1.116l1.652-1.197
		l1.587-1.286l1.553-1.326l1.515-1.402l1.458-1.458l1.14-1.233l2.277,2.276l-1.149,1.242l-1.439,1.439l-1.498,1.385l-1.51,1.324
		l-1.587,1.252l-1.628,1.179l-1.623,1.102l-1.641,1.007l-1.662,0.916l-1.639,0.821l-1.45,0.636l-2.24-2.24L32.724,67.792z
		 M34.152,71.907l1.561-0.573l1.534-0.664l1.578-0.742l1.559-0.837l1.534-0.929l1.538-1.007l1.518-1.101l1.475-1.173l1.441-1.215
		l1.403-1.29l1.346-1.347l1.308-1.423l1.211-1.438l0.569-0.715l-0.533,1.16l-0.255,0.855l-0.114,0.702l-1.31,1.416l-1.439,1.44
		l-1.498,1.385l-1.51,1.324l-1.591,1.255l-1.602,1.192l-1.646,1.086l-1.641,1.007l-1.662,0.916l-1.639,0.821l-1.512,0.663
		l-0.444-0.245l-0.703-0.201l-0.78-0.076l-0.715,0.057L34.152,71.907z M37.593,72.662l1.667-0.835l1.689-0.931l1.665-1.022
		l1.672-1.104l1.626-1.21l1.614-1.273l1.531-1.343l1.515-1.401l1.458-1.459l1.14-1.233l1.412,1.412l-1.149,1.242l-1.439,1.439
		l-1.498,1.386l-1.509,1.324l-1.587,1.251l-1.628,1.179l-1.623,1.102l-1.641,1.007l-1.662,0.916l-1.639,0.821l-1.45,0.636
		l-1.375-1.374L37.593,72.662z M53.541,60.212l0.093-0.581l0.23-0.77l0.361-0.834l0.459-0.826l0.523-0.816l0.621-0.769l0.696-0.732
		l0.75-0.678l0.785-0.604l0.604-0.389l1.538,1.537l-0.955,2.001l-0.479,0.445l-0.93,1.011l-0.809,1.119l-0.327,0.558l-0.524,1.059
		l-0.683,0.584l-0.375,0.262L53.541,60.212z M58.949,47.159l-0.655,1.514l-0.726,1.544l-0.819,1.527l-0.915,1.511l-1.008,1.531
		l-1.062,1.473l-1.16,1.459l-1.194,1.419l-1.288,1.4l-1.325,1.326l-1.381,1.269l-1.422,1.198l-1.455,1.157l-1.491,1.081l-1.513,0.99
		l-1.507,0.914l-1.526,0.82l-1.551,0.729l-1.505,0.651l-0.995,0.365l1.053-0.462l1.668-0.835l1.689-0.931l1.669-1.025l1.646-1.116
		l1.648-1.194l1.614-1.273l1.531-1.343l1.515-1.401l1.458-1.458l1.389-1.502c0.025-0.026,0.046-0.055,0.062-0.089l0-0.001
		c0.016-0.033,0.027-0.069,0.032-0.105l0.12-0.757l0.23-0.769l0.361-0.835l0.458-0.826l0.523-0.816l0.621-0.768l0.696-0.734
		l0.75-0.677l0.785-0.604l0.84-0.541c0.003-0.002,0.007-0.004,0.011-0.007c0,0,0,0,0.001,0c0.022-0.015,0.042-0.032,0.061-0.052
		c0.017-0.018,0.032-0.036,0.044-0.057c0.005-0.008,0.009-0.016,0.013-0.024l0.924-1.678l0.852-1.685l0.539-1.172L58.949,47.159z
		 M55.56,50.93l-0.83,0.639l-0.791,0.716l-0.734,0.775l-0.662,0.82l-0.558,0.867l-0.486,0.877l-0.391,0.905l-0.255,0.855l-0.02,0.12
		l-2.16-2.16l0.093-0.582l0.23-0.769l0.361-0.835l0.458-0.826l0.523-0.816l0.621-0.768l0.696-0.734l0.75-0.677l0.792-0.609
		l0.583-0.398l2.279,2.279L55.56,50.93z M53.428,43.799l-0.746,1.53l-0.822,1.532l-0.893,1.526l-1.008,1.531l-1.062,1.472
		l-1.16,1.46l-1.191,1.415l-1.31,1.384l-1.329,1.329l-1.358,1.285l-1.422,1.198l-1.455,1.157l-1.491,1.082l-1.509,0.988
		l-1.531,0.896l-1.529,0.823l-1.523,0.743l-1.527,0.635l-0.801,0.293l2.545-1.207l1.689-0.93l1.669-1.026l1.646-1.115l1.652-1.198
		l1.587-1.285l1.553-1.326l1.515-1.402l1.461-1.463l1.37-1.52c0.019-0.021,0.036-0.044,0.05-0.069c0,0,0,0,0-0.001c0,0,0,0,0-0.001
		c0.003-0.005,0.006-0.011,0.009-0.017c0-0.001,0-0.001,0.001-0.002s0-0.001,0-0.002c0.001,0.001,0.001-0.001,0.001-0.001
		c0-0.001,0-0.001,0-0.002h0c0.013-0.029,0.022-0.058,0.027-0.089l0.141-0.746l0.23-0.77l0.366-0.843l0.43-0.829l0.547-0.804
		l0.621-0.769l0.702-0.739l0.724-0.691l0.785-0.603l0.84-0.542c0.001-0.001,0.002-0.002,0.004-0.002
		c0.025-0.016,0.047-0.034,0.067-0.056c0.019-0.02,0.036-0.042,0.05-0.066c0.002-0.003,0.004-0.007,0.006-0.011l0.945-1.663
		l0.855-1.69l0.482-1.084L53.428,43.799z M40.28,46.067l1.215,1.974l2.503,3.561l-1.187,1.283l-1.439,1.44l-1.498,1.385l-1.51,1.324
		l-1.591,1.255l-1.602,1.192l-1.646,1.086l-1.641,1.007l-1.662,0.916l-1.639,0.821l-1.461,0.641l-3.3-3.012l-1.841-1.537
		l-1.436-1.052l0.989-0.361l1.654-0.704l1.635-0.799l1.629-0.91l1.632-0.988l1.612-1.082l1.573-1.157l1.532-1.23l1.538-1.31
		l1.437-1.362l1.425-1.426l1.323-1.475l0.932-1.096L40.28,46.067z M21.544,59.966l1.811,1.512l3.454,3.153l0.621,0.62l-0.525-0.052
		l-0.807,0.046l-0.844,0.178l-0.87,0.281l-0.871,0.408l-0.899,0.511l-0.825,0.596l-0.448,0.365
		c-0.044,0.021-0.084,0.049-0.116,0.085l-1.476-1.476l-1.845-3.544l-0.796-1.756l-0.514-1.48l0.656-0.304l0.871-0.306l0.884-0.164
		l0.678-0.036L21.544,59.966z M22.998,67.223l0.841-0.476l0.804-0.378l0.792-0.255l0.754-0.161l0.697-0.04l0.658,0.064l0.575,0.158
		l0.498,0.29c0.018,0.012,0.036,0.021,0.055,0.029l-1.115,0.335l-1.446,0.336l-1.427,0.242l-1.363,0.149l-0.751,0.022L22.998,67.223
		z M27.522,68.2l0.753-0.161l0.697-0.039l0.659,0.064l0.574,0.157l0.464,0.273l1.629,1.628l-0.525-0.052l-0.808,0.045l-0.853,0.181
		l-0.834,0.292l-0.907,0.399l-0.864,0.519l-0.852,0.583l-0.451,0.366c-0.043,0.02-0.082,0.048-0.113,0.083l-2.269-2.269l1.261-0.957
		l0.841-0.476l0.804-0.379L27.522,68.2z M28.699,71.62l0.84-0.367l0.764-0.271l0.753-0.161l0.697-0.039l0.659,0.064l0.574,0.157
		l0.498,0.291c0.023,0.014,0.046,0.026,0.07,0.033c0,0,0,0,0,0c0.008,0.003,0.015,0.005,0.023,0.008l-1.135,0.341l-1.446,0.336
		l-1.422,0.242l-1.388,0.13l-0.73,0.021L28.699,71.62z M32.381,73.071l0.791-0.146l0.668-0.058l0.651,0.062l0.563,0.156l0.485,0.278
		l1.568,1.567l-0.078,0.04l-0.389-0.015l-0.539,0.005l-0.566,0.083l-0.524,0.136l-1.131,0.393l-1.088,0.533l-2.596,0.538
		l-1.504-1.505l0.478-0.39l0.811-0.554l0.804-0.486l0.841-0.366L32.381,73.071z M64.48,35.433l0.358,0.894l-0.166-0.166
		l-0.569-1.401L64.48,35.433z M63.755,39.71l0.115-1.536l-0.02-1.477l-0.037-0.384l1.124,1.124l0.117,1.215l0.019,1.417l-0.11,1.48
		l-0.223,1.524l-0.315,1.575l-0.427,1.579l-0.54,1.62l-0.634,1.639l-0.745,1.677l-0.841,1.664l-0.693,1.257l-1.392-1.391l0.799-1.45
		l0.852-1.686l0.781-1.694l0.648-1.676l0.532-1.671l0.439-1.622l0.323-1.616L63.755,39.71z M61.212,31.544l0.175-0.785l0.109-0.3
		l1.413,1.412l0.139,1.358l0.2,1.334l-0.029,0.396l-0.357-0.081l-0.541-0.226l-0.416-0.316l-0.186-0.186l-0.087-0.912
		c0-0.003,0-0.005-0.001-0.007c0-0.007-0.001-0.014-0.003-0.021v-0.001c0,0,0,0,0-0.001l0-0.001c-0.013-0.075-0.05-0.141-0.1-0.191
		l-0.369-0.369l-0.015-0.394L61.212,31.544z M59.104,29.448l0.197-0.775l0.166-0.455l0.412,0.396
		c0.006,0.007,0.012,0.013,0.019,0.02l0.451,0.452l0.602,0.787l-0.248,0.686l-0.195,0.871l-0.05,0.517l-1.386-1.386l-0.014-0.403
		L59.104,29.448z M58.981,31.828l-0.036-0.383l1.988,1.989l0.081,0.84c-0.004,0.044,0,0.088,0.012,0.131l0.043,1.661l-0.111,1.479
		l-0.223,1.525l-0.315,1.575l-0.429,1.584l-0.52,1.634l-0.631,1.634l-0.766,1.663l-0.841,1.663L56.54,50.08l-2.272-2.272
		l0.815-1.434l0.855-1.689l0.76-1.71l0.646-1.671l0.552-1.656l0.439-1.622l0.323-1.616l0.229-1.568l0.115-1.536L58.981,31.828z
		 M56.322,26.666l0.2-0.784l0.099-0.298l2.231,2.232l-0.234,0.647l-0.218,0.87l-0.054,0.756l-0.355-0.081l-0.541-0.226l-0.416-0.317
		L56.85,29.28l-0.087-0.91c-0.002-0.025-0.006-0.048-0.014-0.072c0.001,0.003,0-0.002,0-0.002l0-0.001c0-0.001,0-0.001,0-0.001
		c0,0,0-0.001,0-0.001c0-0.001,0-0.001,0-0.001c0-0.001,0-0.001,0-0.001c0-0.001,0-0.001,0-0.001c0-0.001,0-0.001,0-0.001
		c0-0.007,0-0.002,0-0.002c0-0.001,0-0.001,0-0.002c-0.001-0.002-0.001-0.002-0.001-0.002c0-0.001,0-0.001,0-0.002
		c0-0.001,0-0.001-0.001-0.002c0-0.001,0-0.002,0-0.002c-0.002-0.006-0.004-0.011-0.006-0.017c0,0,0-0.001-0.001-0.002
		s0-0.001-0.001-0.002s0-0.001,0-0.001c0-0.001,0-0.001,0-0.001c0-0.001,0-0.001,0-0.001c0-0.001,0-0.001,0-0.001
		c0-0.001,0-0.001,0-0.001c0-0.007,0-0.002-0.001-0.002c0.001-0.01,0-0.002,0-0.002c-0.003-0.008,0-0.002-0.001-0.002
		s0-0.001,0-0.001c0-0.001,0-0.001,0-0.001l0-0.001c0,0,0,0,0-0.001c-0.005-0.011-0.012-0.022-0.019-0.032v-0.001
		c-0.001,0,0,0.001-0.001-0.002c0,0,0,0,0,0c0-0.001,0-0.002-0.001-0.002s0-0.001-0.001-0.002c-0.014-0.02-0.029-0.038-0.046-0.056
		l-0.369-0.368l-0.014-0.403L56.322,26.666z M56.158,29.535l0.043,1.662l-0.111,1.479l-0.223,1.524l-0.315,1.575l-0.428,1.579
		l-0.54,1.62l-0.633,1.639l-0.746,1.677l-0.839,1.66l-0.709,1.247l-1.208-1.208l0.799-1.45l0.852-1.686l0.781-1.694l0.648-1.676
		l0.532-1.671l0.439-1.622l0.323-1.616l0.229-1.568l0.115-1.536l-0.02-1.477l-0.037-0.384l0.57,0.57
		c0.003,0.004,0.007,0.008,0.012,0.012l0.373,0.373l0.082,0.842C56.142,29.449,56.146,29.493,56.158,29.535z M54.235,24.58
		l0.2-0.785l0.152-0.455l0.417,0.399c0.007,0.009,0.016,0.018,0.024,0.027l0.454,0.454l0.584,0.769l-0.23,0.692l-0.218,0.87
		l-0.037,0.52l-0.667-0.667c-0.004-0.004-0.008-0.008-0.012-0.012c-0.005-0.005-0.011-0.01-0.016-0.014l-0.668-0.563l-0.03-0.526
		L54.235,24.58z M52.429,21.393l1.541,1.541l-0.22,0.661l-0.218,0.871l-0.051,0.729l-2.178-1.835l-1.78-1.555l-1.781-1.63
		l-0.41-0.432l-0.146-0.234l-0.222-0.615l-0.074-0.554l2.418,1.237L52.429,21.393z M49.574,18.603l1.263,0.972l0.152,0.152
		l-1.331-0.777l-1.536-0.814l-1.349-0.648l-0.551-0.938l-0.187-0.244L49.574,18.603z M3.309,55.666l-0.673-0.888l-0.552-0.931
		l-0.026-0.78l-0.086-0.419l-0.296-0.748l-0.43-0.633L1.08,51.1L0.862,49.98l-0.129-1.305l-0.019-1.382l0.092-1.423l0.204-1.466
		l0.295-1.516l0.428-1.543l0.522-1.566l0.611-1.613l0.747-1.607l0.822-1.606l0.894-1.602l0.994-1.583l0.822-0.824l0.735-0.931
		l0.914-1.462L9,28.109l1.239-1.457l1.348-1.461l1.378-1.416l1.442-1.33l1.475-1.289l1.53-1.233l1.549-1.139l1.585-1.063l1.601-0.97
		l1.608-0.86l1.62-0.801l1.581-0.69l1.557-0.58l0.841-0.024l0.479-0.082l0.937-0.274l1.416-0.596l1.425-0.251l1.449-0.112
		l1.39-0.039l1.331,0.109l1.24,0.18l1.193,0.31l1.126,0.397l1.023,0.509l0.882,0.545l0.929,0.752l0.763,0.796l0.69,0.904
		l0.534,0.914l0.001,0.348l0.107,0.841l0.28,0.778l0.205,0.331l0.412,0.451l0.217,1.113l0.111,1.334l0.038,1.359l-0.092,1.423
		l-0.204,1.466l-0.295,1.516l-0.428,1.547l-0.521,1.599l-0.612,1.577l-0.747,1.606l-0.821,1.605l-0.915,1.622l-0.976,1.565
		l-1.208,1.288l-0.348,0.466l-0.933,1.481l-0.205,0.445l-1.241,1.46l-1.303,1.453l-1.404,1.404l-1.416,1.343l-1.516,1.292
		l-1.512,1.214l-1.549,1.139l-1.585,1.063l-1.607,0.973l-1.601,0.895l-1.6,0.783l-1.619,0.689l-1.54,0.562l-0.822,0.043
		l-0.976,0.183l-0.459,0.153l-1.433,0.613l-1.411,0.233l-1.459,0.131l-1.376,0.021l-1.338-0.11l-1.253-0.159l-1.187-0.309
		l-1.113-0.417l-1.023-0.509l-0.957-0.592l-0.854-0.706L3.309,55.666z M10.42,64.626l-0.971-0.64l-0.891-0.706l-0.814-0.809
		l-0.707-0.93l-2.448-3.746l0.946,0.587l1.086,0.54l1.182,0.443l1.267,0.329l1.314,0.17l1.389,0.113l1.437-0.021l1.512-0.136
		l1.189-0.196l0.533,1.532l0.817,1.805l1.629,3.13l-0.943,0.071l-1.415,0.021l-1.365-0.109l-1.302-0.2l-1.225-0.308l-1.15-0.417
		L10.42,64.626z M11.418,65.881l1.011,0.367l1.293,0.326l1.362,0.21l1.425,0.113l1.47-0.021l1.341-0.101l1.082,1.083l-2.121,0.074
		l-1.365-0.109l-1.302-0.2l-1.225-0.308l-1.15-0.417l-1.07-0.522L11.418,65.881z M14.255,68.461l-0.971-0.639l-0.359-0.285
		l1.253,0.46l1.293,0.326l1.362,0.21l1.425,0.113l1.47-0.021l1.5-0.113c0.037-0.002,0.074-0.01,0.109-0.024
		c0.003,0,0.001-0.001,0.001-0.001c0.01-0.004,0.019-0.008,0.028-0.012c0,0,0,0,0-0.001c0.001,0,0.002-0.001,0.002-0.001
		c0.001,0,0.002-0.001,0.002-0.001c0,0,0.001,0,0.001,0l0-0.001c0.006,0.003,0.002-0.001,0.002-0.001
		c0.003-0.001,0.001-0.001,0.002-0.001h0c0-0.001,0.001-0.001,0.001-0.001h0c0-0.001,0.001-0.001,0.001-0.001
		c0,0,0.001-0.001,0.002-0.001c0,0.001,0.001-0.001,0.002-0.001v-0.001c0.001,0.001,0.002,0,0.002-0.001c0,0,0.001,0,0.001-0.001h0
		c0,0,0.001,0,0.001-0.001h0c0,0,0.001-0.001,0.001-0.001c0,0,0,0,0,0c0.001,0,0.001-0.001,0.002-0.001
		c0.001-0.002,0.001,0,0.002-0.002c0,0.003,0.002-0.001,0.002-0.001h0c0-0.001,0.001-0.001,0.001-0.001l0-0.001
		c0,0,0.001,0,0.001-0.001c0,0,0,0,0,0c0.011-0.007,0.022-0.015,0.032-0.024l0.199-0.162l1.736-0.04l1.413-0.154l1.469-0.249
		l0.417-0.097l-1.069,0.473l-0.898,0.51l-0.825,0.596l-0.723,0.589l-1.37,0.104l-1.415,0.02l-1.365-0.109L17.7,69.709L16.474,69.4
		l-1.149-0.416L14.255,68.461z M16.066,70.604l-0.905-0.72l-0.369-0.332l-0.071-0.071l1.543,0.601l1.293,0.327l1.362,0.209
		l1.425,0.113l1.471-0.02l1.34-0.101l2.117,2.116l-2.122,0.074l-1.365-0.109l-1.302-0.199l-1.225-0.308l-1.15-0.417l-1.07-0.523
		L16.066,70.604z M19.124,73.33l-0.971-0.64l-0.358-0.284l1.252,0.459l1.293,0.326l1.362,0.209l1.425,0.113l1.471-0.02l1.501-0.114
		c0.036-0.002,0.072-0.01,0.106-0.024h0c0,0,0.001,0,0.001,0c0.007-0.003,0.013-0.006,0.02-0.009
		c0.001-0.001,0.001-0.001,0.002-0.001c0,0,0.001-0.001,0.002-0.001c0-0.002,0.001-0.001,0.002-0.001h0
		c0.021-0.011,0.041-0.023,0.06-0.037c0,0,0,0,0-0.001c0.004,0.003,0.002-0.001,0.002-0.001c0,0,0,0,0.001-0.001
		c0.001,0,0.001-0.001,0.001-0.001c0.002-0.002,0.004-0.003,0.006-0.005l0.197-0.161l1.732-0.04l1.437-0.135l1.469-0.249
		l0.362-0.085l-1.041,0.445l-0.863,0.519l-0.852,0.584l-0.722,0.588l-1.371,0.103l-1.415,0.021l-1.365-0.109l-1.302-0.2
		l-1.225-0.308l-1.15-0.417L19.124,73.33z M23.607,76.274c-0.063-0.038-0.132-0.057-0.207-0.051l-1.289-0.453l-1.07-0.523
		l-0.971-0.639l-0.098-0.078l1.161,0.421l1.293,0.326l1.361,0.21l1.425,0.113l1.47-0.021l1.341-0.101l1.251,1.252l-2.122,0.074
		l-1.365-0.109l-1.302-0.2L23.607,76.274z M40.299,87.473L39.43,86.89c-0.034-0.034-0.074-0.061-0.119-0.08l-13.664-9.168
		l0.48,0.134l1.289,0.211l1.384,0.113l1.42-0.002l1.451-0.115l1.507-0.212l1.525-0.306l1.6-0.42l1.58-0.515l1.618-0.629l3.246-1.541
		l3.222-1.897l1.571-1.079l1.573-1.157l1.535-1.232l1.475-1.287l1.459-1.346l1.405-1.407l1.324-1.475l1.267-1.494l1.236-1.54
		l1.116-1.57l1.063-1.595l0.966-1.61l0.894-1.616l0.78-1.616l0.681-1.626l0.63-1.624l0.474-1.572l0.421-1.569l0.285-1.544
		l0.191-1.493l0.076-1.463l-0.057-1.392l-0.135-1.365l-0.234-1.28l-0.033-0.11l9.152,13.639c0.019,0.046,0.047,0.088,0.082,0.122
		l0.579,0.861c0.009,0.015,0.018,0.03,0.029,0.043l1.127,1.706l0.472,0.939l0.364,1.013l0.258,1.103l0.184,1.171l0.074,1.204
		l-0.055,1.279l-0.128,1.34l-0.259,1.373l-0.35,1.424l-0.466,1.43l-0.557,1.45l-0.653,1.472l-0.742,1.487l-0.839,1.471l-0.933,1.457
		l-0.983,1.43l-1.104,1.403l-1.16,1.384l-1.19,1.339l-1.291,1.292l-1.301,1.228l-1.384,1.16l-1.397,1.101l-1.435,1.025l-1.474,0.952
		l-1.452,0.857l-1.488,0.782l-1.448,0.669l-1.469,0.578l-1.448,0.484l-1.425,0.389l-1.39,0.279l-1.32,0.186l-1.304,0.057
		l-1.232-0.053l-1.173-0.145l-1.109-0.233l-1.032-0.341L42.29,88.75l-0.725-0.426l-1.236-0.829
		C40.32,87.487,40.31,87.48,40.299,87.473z M40.425,89.352l-0.072-0.302l0.52,0.818l0.7,0.854l0.792,0.787l0.895,0.659l0.958,0.565
		l1.055,0.466l1.124,0.347l1.219,0.249l1.25,0.133l1.309,0.036l1.378-0.078l1.403-0.175l1.45-0.306l1.467-0.402l1.485-0.495
		l1.503-0.592l1.54-0.704l1.499-0.779l1.521-0.875l1.496-0.967l1.481-1.027l1.461-1.119l1.404-1.177l1.385-1.271l1.305-1.305
		l1.274-1.351l1.192-1.42l1.136-1.44l1.066-1.447l0.966-1.496l0.914-1.522l0.797-1.518l0.722-1.52l0.629-1.508l0.515-1.504
		l0.42-1.49l0.304-1.446l0.23-1.42l0.114-1.388l-0.02-1.325l-0.116-1.27l-0.215-1.224l-0.334-1.148l-0.447-1.065l-0.547-1.012
		l-0.636-0.908l-0.759-0.795l-0.844-0.722l-0.932-0.62l-0.119-0.063l1.399,0.458l1.018,0.47l0.919,0.553l0.819,0.672l0.748,0.745
		l0.666,0.804l0.061,0.1c0.01,0.029,0.024,0.057,0.041,0.084l0.461,0.74l0.476,1.021l0.383,1.073l0.275,1.15l0.166,1.228
		l0.056,1.277l-0.018,1.34l-0.15,1.376l-0.22,1.437l-0.352,1.464l-0.466,1.508l-0.539,1.505l-0.651,1.544l-0.746,1.529l-0.841,1.552
		l-0.894,1.526l-1.007,1.529l-1.082,1.492l-1.16,1.46l-1.213,1.436l-1.27,1.381l-1.344,1.345l-1.38,1.27l-1.441,1.216l-1.473,1.175
		l-1.491,1.082l-1.509,0.988l-1.549,0.916l-1.532,0.823l-1.54,0.762l-1.528,0.634l-1.522,0.558l-1.485,0.447l-1.457,0.351
		l-1.451,0.224l-1.363,0.15l-1.367,0.037l-1.259-0.051l-1.212-0.182l-1.155-0.273l-1.083-0.357l-1.006-0.492l-0.924-0.559
		l-0.832-0.648L42.501,93.2l-0.653-0.829l-0.567-0.931l-0.489-0.99L40.425,89.352z M41.437,93.58l-0.534-0.915l-0.015-0.501
		l0.373,0.612l0.706,0.897l0.803,0.799l0.899,0.7l0.062,0.037c0.024,0.028,0.051,0.052,0.084,0.073l0.715,0.451
		c0.001,0.001,0.002,0.002,0.004,0.003l0.847,0.529l1.066,0.481l1.124,0.385l1.214,0.287l1.279,0.192l1.323,0.056l1.377-0.04
		l1.437-0.135l1.469-0.249l0.326-0.076l-1.14,0.53l-1.429,0.216l-1.435,0.15l-1.376,0.02l-1.333-0.109l-1.276-0.179l-1.191-0.31
		l-1.089-0.396l-1.046-0.531l-0.936-0.572l-0.873-0.725l-0.763-0.795L41.437,93.58z M46.551,100.757l-0.991-0.659l-0.891-0.707
		l-0.814-0.809l-0.69-0.908l-0.93-2.049l1.093,0.938l1.003,0.616l1.111,0.562l1.16,0.422l1.263,0.328l1.337,0.19l1.389,0.113
		l1.442-0.021l1.483-0.154l1.095-0.164l0.003,1.07l0.249,1.549l0.263,1.122l-1.045,0.095l-1.438,0.001l-1.365-0.109l-1.302-0.199
		l-1.225-0.308l-1.152-0.418L46.551,100.757z M47.531,101.993l1.01,0.367l1.293,0.326l1.361,0.209l1.42,0.113l1.499-0.001
		l1.32-0.118l1.08,1.08l-2.122,0.074l-1.365-0.109l-1.302-0.199l-1.226-0.309l-1.149-0.416l-1.07-0.523L47.531,101.993z
		 M50.366,104.573l-0.971-0.64l-0.358-0.284l1.251,0.458l1.293,0.327l1.362,0.209l1.425,0.113l1.471-0.02l1.499-0.114
		c0.04-0.002,0.08-0.011,0.118-0.028h0c0.002-0.002,0.002-0.001,0.002-0.001c0.006-0.003,0.013-0.006,0.02-0.009v-0.001
		c0.001,0,0.002-0.001,0.002-0.001c0.001-0.001,0.002-0.001,0.002-0.001c0,0,0,0,0.001,0c0.001-0.002,0.001-0.001,0.002-0.001
		c0-0.002,0.001-0.001,0.001-0.001c0.001-0.002,0.002-0.001,0.002-0.001c0.001-0.002,0.002-0.001,0.002-0.001
		c0-0.001,0.001-0.001,0.002-0.002c0.006-0.004,0.013-0.008,0.02-0.012c0-0.001,0.001-0.001,0.001-0.001l0-0.001
		c0,0,0.001,0,0.001-0.001c0,0,0-0.001,0.001-0.001c0.001,0,0.001-0.001,0.002-0.001c0.001,0,0.001-0.001,0.001-0.001
		c0.008-0.006,0.015-0.012,0.023-0.018l0.198-0.161l1.732-0.04l1.442-0.137l1.445-0.267l0.58-0.134l-1.24,0.514l-0.864,0.519
		l-0.852,0.583l-0.723,0.589l-1.37,0.103l-1.415,0.021l-1.365-0.109l-1.302-0.2l-1.225-0.308l-1.15-0.417L50.366,104.573z
		 M53.149,107.355l-0.971-0.64l-0.904-0.719l-0.369-0.333l-0.071-0.07l1.543,0.601l1.293,0.326l1.362,0.21l1.425,0.113l1.47-0.021
		l1.34-0.101l2.116,2.117l-2.121,0.074l-1.365-0.109l-1.302-0.2l-1.225-0.308l-1.15-0.417L53.149,107.355z M55.158,108.977
		l1.293,0.326l1.362,0.21l1.425,0.113l1.47-0.021l1.5-0.113c0.037-0.002,0.074-0.01,0.109-0.024
		c0.001-0.002,0.001-0.001,0.002-0.001c0.008-0.004,0.017-0.007,0.025-0.011v-0.001c0.001,0,0.002-0.001,0.002-0.001
		c0.001,0,0.001-0.001,0.002-0.001c0,0,0.001-0.001,0.002-0.001c0,0,0,0,0.001,0l0.001-0.001c0.001-0.002,0.002-0.001,0.002-0.001
		c0.001-0.002,0.002-0.001,0.002-0.001c0.012-0.007,0.025-0.015,0.036-0.024c0.007-0.005,0.015-0.011,0.022-0.017l0.198-0.161
		l1.731-0.04l1.437-0.135l1.469-0.249l0.406-0.095l-1.085,0.456l-0.863,0.519l-0.852,0.583l-0.724,0.589l-1.345,0.122l-1.438,0.001
		l-1.365-0.109l-1.302-0.199l-1.225-0.308l-1.15-0.417l-1.07-0.523l-0.971-0.639l-0.36-0.285L55.158,108.977z M56.94,113.17
		l-0.898-0.75l-0.147-0.148l-0.615-0.649l-0.71-0.888l-0.606-0.972l-0.032-0.06l1.359,1.359c0.001,0.002,0.003,0.003,0.004,0.005
		c0,0,0,0,0.001,0.001c0.004,0.004,0.008,0.007,0.012,0.011l1.356,1.12l1.038,0.681l1.124,0.54l1.216,0.442l1.315,0.346l1.366,0.21
		l1.397,0.095l1.493-0.002l1.504-0.113c0.001,0,0.002,0,0.003,0c0,0,0.001,0,0.002,0c0,0,0,0,0.001-0.001c0.001,0,0.001,0,0.002,0h0
		c0.002,0,0.002,0,0.002,0c0.002,0,0.004-0.001,0.007-0.001h0c0,0,0.001,0,0.001,0c0.001,0,0.002,0,0.002,0
		c0-0.001,0.001-0.001,0.001-0.001c0.001,0,0.001,0,0.002,0h0c0.039-0.006,0.077-0.019,0.11-0.035c0,0,0-0.001,0-0.001
		c0.001,0,0.002-0.001,0.002-0.001c0.007,0,0.002-0.001,0.002-0.001c0,0.001,0.001-0.001,0.002-0.001h0
		c0-0.001,0.001-0.001,0.001-0.001h0c0-0.001,0.001-0.001,0.001-0.001c0,0,0.001-0.002,0.002-0.001
		c0.009-0.006,0.019-0.012,0.028-0.018c0,0,0.001-0.001,0.001-0.001c0.018-0.013,0.033-0.027,0.049-0.041l0.254-0.255l0.741-0.115
		l2.607-0.553l1.799-0.538l1.63-0.612l0.085,0.059c0.001,0.001,0.003,0.002,0.004,0.003c0.024,0.016,0.049,0.03,0.075,0.039
		c0.031,0.012,0.062,0.02,0.094,0.023c0.043,0.002,0.084,0,0.125-0.009c0.022-0.006,0.042-0.013,0.063-0.023l1.679-0.736l1.69-0.818
		l1.689-0.93l1.67-1.026l1.645-1.115l1.651-1.198l1.589-1.285l1.553-1.327l1.517-1.405l1.437-1.475l1.39-1.503
		c0.015-0.016,0.029-0.033,0.04-0.051c0-0.001,0-0.001,0.001-0.002c0-0.001,0.001-0.001,0.001-0.002
		c0.001-0.002,0.002-0.004,0.004-0.006c0,0.001,0.001-0.002,0.001-0.002l0.001-0.001c0-0.001,0-0.001,0-0.001l0.001-0.001v-0.001
		c0.001,0,0.001-0.001,0.001-0.001v-0.001c0,0,0,0,0.001,0v-0.001c0,0,0,0,0-0.001h0.001c0,0,0,0,0-0.001
		c0.001-0.001,0.001-0.002,0.001-0.002c0.024-0.043,0.037-0.09,0.041-0.138l0.028-0.26l0.652-0.756l2.043-2.611l0.626-0.892
		l1.705-2.616l0.301-0.159c0.013-0.006,0.025-0.013,0.036-0.021c0.019-0.012,0.035-0.025,0.051-0.04
		c0.02-0.019,0.037-0.039,0.052-0.062c0.006-0.009,0.012-0.019,0.017-0.028l0.945-1.663l0.855-1.69l0.76-1.709l0.645-1.672
		l0.554-1.661l0.417-1.631l0.343-1.603l0.229-1.572l0.095-1.546l-0.001-1.462l-0.13-1.371c-0.002-0.021-0.006-0.041-0.011-0.061
		c-0.001-0.001-0.001-0.001-0.001-0.002c0,0,0,0,0-0.001c0,0,0,0,0-0.001l-0.001-0.001c0,0,0,0,0-0.001v-0.001
		c-0.001-0.001-0.001-0.002-0.001-0.002c-0.018-0.059-0.049-0.111-0.092-0.154l-0.309-0.308l-0.199-1.037l-0.196-0.701l-0.231-0.656
		l-0.543-1.278l-0.566-0.994l0.085-0.177c0.01-0.021,0.018-0.041,0.024-0.062c0.013-0.045,0.017-0.091,0.012-0.136
		c-0.003-0.033-0.012-0.067-0.026-0.099c-0.009-0.024-0.022-0.045-0.036-0.067c-0.004-0.007-0.009-0.013-0.014-0.02l-0.741-0.968
		l-0.488-0.489v-0.001l-1.42-1.42l0.826,0.514l0.927,0.67l0.854,0.78l0.564,0.595l0.679,0.933l0.604,1.005l0.51,1.051l0.404,1.169
		l0.294,1.251l0.203,1.309l0.111,1.359l-0.018,1.426l-0.111,1.48l-0.222,1.519l-0.337,1.566l-0.407,1.593l-0.541,1.62l-0.633,1.64
		l-0.728,1.659l-0.821,1.642l-0.917,1.664l-0.986,1.657l-1.084,1.61l-1.158,1.605l-1.255,1.592l-1.287,1.548l-1.366,1.48
		l-1.42,1.458l-1.477,1.401l-1.531,1.346l-1.554,1.255l-1.583,1.211l-1.645,1.122l-1.627,1.029l-1.636,0.969l-1.684,0.861
		l-1.636,0.783l-1.642,0.672l-1.633,0.595l-1.628,0.47l-1.552,0.37l-1.538,0.279l-1.497,0.168l-1.463,0.057l-1.399-0.035
		l-1.324-0.145l-1.286-0.255l-1.187-0.345l-1.118-0.456l-1.051-0.541L56.94,113.17z M71.339,123.049l-1.323-0.145l-1.287-0.255
		l-1.187-0.345l-1.118-0.456l-1.051-0.541l-0.952-0.657l-0.879-0.73l-0.225-0.225l-4.688-4.688l1.197,0.49l1.252,0.363l1.347,0.268
		l1.384,0.152l1.452,0.037l1.512-0.059l1.547-0.174l1.581-0.286l1.577-0.375c0.006-0.002,0.013-0.003,0.02-0.005l1.659-0.479
		l1.669-0.607l1.674-0.685l1.664-0.795l1.713-0.876l1.665-0.984l1.647-1.042l1.672-1.141l1.606-1.229l1.573-1.27l1.552-1.364
		l1.496-1.421l1.436-1.475l1.385-1.5l1.304-1.568l1.27-1.612l1.173-1.626l1.102-1.635l1.003-1.684l0.929-1.687l0.835-1.671
		l0.741-1.689l0.645-1.671l0.554-1.661l0.417-1.631l0.344-1.604l0.228-1.567l0.115-1.526l0.018-1.482l-0.115-1.418l-0.212-1.363
		l-0.31-1.313l-0.429-1.242l-0.278-0.574l4.72,4.72l0.587,0.618l0.678,0.933l0.604,1.005l0.511,1.051l0.404,1.169l0.294,1.251
		l0.203,1.309l0.111,1.359l-0.018,1.426l-0.111,1.479l-0.222,1.52l-0.336,1.565l-0.407,1.593l-0.541,1.621l-0.633,1.64l-0.728,1.659
		l-0.821,1.642l-0.917,1.663l-0.986,1.658l-1.085,1.609l-1.161,1.61l-1.23,1.603l-1.308,1.533l-1.366,1.48l-1.421,1.457
		l-1.476,1.402l-1.531,1.346l-1.554,1.254l-1.584,1.212l-1.644,1.122l-1.628,1.03l-1.64,0.97l-1.657,0.876l-1.66,0.766l-1.641,0.672
		l-1.632,0.595l-1.628,0.469l-1.553,0.371l-1.536,0.279l-1.498,0.168l-1.462,0.057L71.339,123.049z M72.235,123.787l0.508,0.013
		l1.511-0.059l1.549-0.174l1.579-0.286l1.577-0.376c0.009-0.001,0.018-0.002,0.021-0.006l1.658-0.477l1.669-0.607l1.67-0.683
		l1.691-0.781l1.689-0.894l1.664-0.983l0.295-0.187l28.621-7.682l0.641,2.393l-45.934,12.34L72.235,123.787z M79.019,131.899
		l-5.939-5.939l45.83-12.313l5.958,5.958l-1.194,0.32c-0.034,0.005-0.069,0.014-0.1,0.028l-1.863,0.499
		c-0.082-0.009-0.162,0.015-0.23,0.062l-23.368,6.266c-0.046,0.003-0.093,0.015-0.135,0.036l-1.928,0.517
		c-0.014,0.002-0.027,0.006-0.039,0.01L79.019,131.899z M131.219,127.989c0.018-0.039,0.03-0.082,0.032-0.124l0.019-0.244
		c0.002-0.03,0.001-0.059-0.004-0.088l0.365,0.108l0.188,0.131l0.063,0.094l0.004,0.041l-0.07,0.206l-0.159,0.261l-0.223,0.235
		l-0.274,0.177l-0.245,0.067c-0.047,0.005-0.076,0.005-0.113,0.018l-0.199-0.003l-0.057-0.015l0.221-0.162
		c0.03-0.022,0.056-0.048,0.078-0.078l0.242-0.342L131.219,127.989z M131.193,126.804l0.573-0.15l0.366,0.366l-0.024,0.087
		l-0.537-0.243l-0.357-0.057C131.208,126.805,131.201,126.804,131.193,126.804z M130.544,127.75l-0.246,0.4l-0.175,0.135
		l-0.234,0.109l-0.084,0.012l-0.042-0.025l-7.373-7.372l1.222-0.328l6.726,6.727c0.003,0.003,0.006,0.007,0.01,0.01l0.174,0.174
		l0.03,0.065L130.544,127.75z M104.314,133.82c0.01,0.012,0.021,0.023,0.032,0.033l0.4,0.4c0.011,0.012,0.022,0.023,0.033,0.032
		l0.061,0.061c0.01,0.012,0.022,0.023,0.033,0.033l0.081,0.082l0.023,0.171l-0.079,0.168l-0.38,0.379l-0.178,0.083l-0.11,0.008
		l-0.033-0.019l-7.383-7.384l1.221-0.327L104.314,133.82z M100.674,138.314l-2.607-2.607l2.309-0.63l0.928,0.927L100.674,138.314z
		 M104.067,137.755l-3.327-3.326c-0.011-0.012-0.023-0.023-0.035-0.032c-0.04-0.031-0.085-0.054-0.132-0.066
		c-0.046-0.013-0.095-0.017-0.146-0.008c-0.001,0-0.001,0-0.001,0c-0.015,0.003-0.031,0.006-0.045,0.011l-3.089,0.844
		c-0.032,0.008-0.064,0.021-0.094,0.038c0,0-0.001,0-0.001,0.001c-0.037,0.022-0.07,0.05-0.096,0.083
		c-0.031,0.038-0.053,0.083-0.066,0.128c0,0,0,0,0,0.001c-0.014,0.05-0.017,0.103-0.008,0.158c0.001,0,0.001,0.001,0.001,0.001
		c0.007,0.038,0.02,0.077,0.039,0.112c0.018,0.031,0.039,0.058,0.064,0.082l3.036,3.036l-1.574,0.426l-9.347-9.348l6.769-1.815
		l7.705,7.705c0.004,0.005,0.008,0.009,0.012,0.013l0.201,0.201c0.023,0.022,0.047,0.04,0.074,0.056l0.434,0.24l0.462,0.127
		l0.295,0.014l0.798,0.798L104.067,137.755z M105.687,134.39l0.362,0.106l0.206,0.147l0.051,0.118l-0.244,0.524l-0.217,0.216
		l-0.212,0.127l-0.298,0.082c-0.038,0.002-0.076,0.005-0.113,0.018l-0.2-0.003l-0.032-0.008l0.258-0.225l0.225-0.264
		c0.021-0.025,0.038-0.051,0.052-0.081l0.132-0.282c0.022-0.047,0.033-0.099,0.033-0.152v-0.264
		C105.692,134.429,105.69,134.409,105.687,134.39z M105.662,133.668l1.014-0.27l0.009,0.009l-0.155,0.56l-0.539-0.248
		L105.662,133.668z M106.503,136.731l-0.501-0.502l0.238-0.133c0.03-0.016,0.055-0.035,0.079-0.059l0.283-0.282
		c0.024-0.024,0.044-0.05,0.06-0.08l0.212-0.388l0.077-0.209L106.503,136.731z M125.764,131.57l-2.605-2.605l2.759-0.746
		l0.592,0.592L125.764,131.57z M129.627,130.917l-2.461-2.461c-0.003-0.003-0.006-0.007-0.009-0.01l-0.874-0.874
		c-0.011-0.011-0.022-0.021-0.033-0.03c-0.039-0.032-0.085-0.055-0.132-0.068c-0.047-0.013-0.099-0.019-0.15-0.007
		c-0.015,0.002-0.029,0.005-0.042,0.009l-3.543,0.958c-0.032,0.008-0.063,0.021-0.093,0.037c-0.037,0.023-0.07,0.05-0.097,0.084
		c-0.032,0.039-0.054,0.085-0.067,0.132c-0.014,0.048-0.017,0.099-0.008,0.152c0.007,0.04,0.021,0.081,0.041,0.118
		c0.018,0.031,0.038,0.057,0.063,0.081l3.036,3.037l-14.89,4.004l-2.452-2.452c-0.009-0.01-0.019-0.02-0.03-0.029l-0.534-0.534
		c-0.01-0.012-0.021-0.023-0.032-0.032l-0.28-0.279c-0.012-0.013-0.025-0.025-0.038-0.034c-0.037-0.03-0.08-0.051-0.125-0.063
		c-0.048-0.014-0.101-0.02-0.152-0.008c-0.014,0.002-0.028,0.005-0.041,0.009l-1.51,0.401c-0.069,0.004-0.136,0.018-0.193,0.051
		l-0.29,0.077l-5.86-5.86l22.761-6.103l7.691,7.689c0.007,0.007,0.014,0.015,0.022,0.021l0.259,0.245l0.457,0.262l0.463,0.128
		l0.295,0.014l0.801,0.8L129.627,130.917z M132.082,129.874l-0.507-0.507l0.306-0.205l0.33-0.342l0.242-0.39l0.064-0.175
		L132.082,129.874z M135.458,129.336l-2.099-2.1c-0.007-0.007-0.014-0.015-0.021-0.021l-1.206-1.207
		c-0.011-0.011-0.022-0.021-0.033-0.031c-0.038-0.031-0.083-0.053-0.128-0.066c0,0,0,0-0.001,0
		c-0.048-0.014-0.102-0.016-0.157-0.008c-0.012,0.002-0.024,0.005-0.035,0.008l-1.527,0.399l-5.843-5.843l1.236-0.332
		c0.003-0.001,0.007-0.002,0.011-0.003c0.026-0.007,0.05-0.017,0.074-0.03c0.031-0.017,0.058-0.037,0.083-0.062
		c0.021-0.022,0.04-0.046,0.056-0.074c0.016-0.028,0.028-0.057,0.035-0.088c0.001-0.002,0.001-0.003,0.001-0.005l0.442-1.651
		l10.686,10.685L135.458,129.336z M137.537,128.404l-10.978-10.977l1.699-6.36l10.986,10.986L137.537,128.404z"/>
	<path class="st1" d="M11.661,43.974l0.296,0.883l0.391,0.828l0.5,0.695l0.616,0.647l0.506,0.362
		c0.025,0.025,0.054,0.045,0.084,0.061l0.912,0.508l0.853,0.293l0.941,0.194l1.007,0.095l1.053-0.042l1.08-0.156l1.11-0.245
		c0.008-0.001,0.017-0.004,0.026-0.006l1.161-0.35l1.166-0.478l1.166-0.556l1.185-0.651l1.149-0.729l1.145-0.841l1.083-0.893
		l1.073-0.96l0.988-1.026l0.954-1.07l0.878-1.109l0.799-1.142l0.731-1.156l0.607-1.176l0.557-1.175l0.443-1.173l0.328-1.143
		l0.211-1.138l0.115-1.084l0.017-1.046l-0.12-0.979l-0.222-0.934l-0.343-0.856l-0.447-0.763l-0.567-0.68l-0.646-0.56l-0.765-0.477
		l-0.831-0.352l-0.894-0.254l-0.966-0.136l-1.036-0.017l-1.062,0.098l-1.129,0.197l-1.124,0.325l-1.16,0.389l-1.166,0.517
		l-1.188,0.615l-1.16,0.704l-1.147,0.766l-1.126,0.86l-1.087,0.935l-1.03,0.992l-0.974,1.05l-0.892,1.084l-0.86,1.127l-0.766,1.149
		l-0.67,1.171l-0.573,1.186l-0.477,1.167l-0.405,1.18l-0.269,1.118l-0.174,1.109l-0.057,1.067l0.042,1.024L11.661,43.974z
		 M34.058,25.609l0.717,0.355l0.385,0.252l0.305,0.52l0.304,0.758l0.199,0.846l0.11,0.891l-0.017,0.966l-0.109,1.025l-0.199,1.077
		l-0.311,1.083l-0.422,1.119l-1.127,2.276l-0.706,1.115l-0.778,1.111l-0.852,1.075l-0.931,1.044l-0.959,0.997l-1.043,0.932
		l-1.056,0.871l-1.109,0.814l-1.109,0.704l-1.148,0.63l-1.129,0.539l-1.115,0.459l-1.115,0.335l-1.071,0.238l-1.016,0.147
		l-0.968,0.04l-0.92-0.088l-0.858-0.176l-0.757-0.259l-0.694-0.369l-0.076-0.054l-0.316-0.503l-0.335-0.711l-0.218-0.824
		l-0.128-0.878l-0.02-0.958l0.092-1.01l0.162-1.036l0.292-1.099l0.405-1.107l0.5-1.13l0.57-1.124l0.688-1.135l0.739-1.109
		l0.834-1.095l0.889-1.038l0.964-1.002l1.019-0.945l1.079-0.895l1.074-0.815l1.109-0.739l1.125-0.648l1.146-0.555l1.125-0.463
		l1.104-0.369l1.077-0.276l1.036-0.166l0.994-0.057l0.921,0.052l0.862,0.141L34.058,25.609z M12.222,41.002l0.164-1.045l0.254-1.058
		l0.388-1.128l0.461-1.127l0.553-1.144l0.646-1.127l0.74-1.11l0.838-1.099l0.87-1.057l0.946-1.021l1.001-0.965l1.056-0.908
		l1.092-0.834l1.116-0.745l1.126-0.683l1.147-0.594l1.115-0.496l1.114-0.372l1.072-0.311l1.063-0.184L29.98,23.9l0.952,0.014
		l0.873,0.122l0.805,0.229l0.739,0.311l0.276,0.172l-1.137-0.21l-0.999-0.056l-1.071,0.06l-1.105,0.176l-1.135,0.29l-1.151,0.385
		l-1.168,0.479l-1.189,0.576l-1.168,0.672l-1.146,0.765l-1.103,0.837l-1.106,0.918l-1.049,0.973l-0.992,1.032l-0.916,1.069
		l-0.86,1.129l-0.761,1.141l-0.709,1.171l-0.592,1.165l-0.517,1.17l-0.423,1.159l-0.309,1.166l-0.173,1.096l-0.096,1.073
		l0.022,1.041l0.139,0.962l0.116,0.434l-0.409-0.826l-0.268-0.792l-0.145-0.857l-0.038-0.945L12.222,41.002z"/>
	<path class="st1" d="M5.983,54.977l0.889,0.688l0.993,0.561l1.029,0.445l1.144,0.366l1.183,0.249l1.25,0.134l1.314,0.035
		l1.354-0.096l1.399-0.173l1.429-0.286l1.491-0.385l1.485-0.495l1.506-0.593l1.496-0.702l1.545-0.784l1.496-0.89l1.477-0.949
		l1.486-1.029l1.438-1.136l1.4-1.173l1.388-1.236l1.309-1.31l1.249-1.362l1.195-1.385l1.14-1.443l1.042-1.458l0.988-1.483
		l0.893-1.502l0.797-1.518l0.722-1.52l0.63-1.509l0.513-1.501l0.42-1.452l0.325-1.472l0.21-1.397l0.115-1.388l-0.02-1.325
		l-0.118-1.277l-0.232-1.196l-0.33-1.141l-0.434-1.098l-0.546-0.972L43.4,17.901l-0.728-0.802l-0.844-0.723l-0.941-0.624
		l-1.007-0.501l-1.102-0.429l-1.148-0.267l-1.219-0.21l-1.297-0.095l-1.341,0.039l-1.361,0.136l-1.427,0.249l-1.448,0.32
		c-0.008,0.001-0.017,0.004-0.025,0.006l-1.469,0.44l-1.5,0.552l-1.508,0.631l-1.516,0.758l-1.504,0.82l-1.496,0.928l-1.482,0.988
		l-1.458,1.08l-1.446,1.142l-1.381,1.231l-1.347,1.271l-1.29,1.329l-1.214,1.366l-1.155,1.42l-1.101,1.442L7.62,31.883l-0.929,1.496
		l-0.856,1.504l-0.759,1.517L4.389,37.93l-0.55,1.498L3.36,40.901L2.998,42.37L2.73,43.825l-0.153,1.379l-0.057,1.365l0.058,1.289
		l0.158,1.245l0.292,1.181l0.389,1.085l0.487,1.029l0.594,0.982l0.707,0.859L5.983,54.977z M41.968,34.369l-0.538,1.354l-0.65,1.392
		l-0.743,1.376l-0.82,1.342l-0.912,1.359l-0.986,1.322l-1.065,1.289l-1.117,1.267l-1.173,1.211l-1.23,1.156l-1.284,1.099
		l-1.303,1.006l-1.362,0.952l-1.355,0.874l-1.361,0.765l-1.37,0.705l-1.374,0.596l-1.353,0.501l-1.333,0.409l-1.309,0.315
		l-1.273,0.204l-1.198,0.112l-1.185-0.035l-1.097-0.086l-1.05-0.238l-0.965-0.283l-0.887-0.412l-0.82-0.494l-0.724-0.612
		l-0.646-0.677l-0.557-0.767l-0.451-0.845l-0.365-0.944l-0.273-0.993l-0.165-1.072l-0.056-1.152l0.055-1.198l0.147-1.254
		l0.238-1.268l0.372-1.336l0.444-1.333l0.559-1.377l0.63-1.371l0.022-0.041L9.496,38.74l-0.364,1.246l-0.269,1.235l-0.154,1.206
		L8.69,43.561l0.061,1.113l0.18,1.041l0.295,0.96l0.398,0.909l0.501,0.813l0.601,0.715l0.719,0.634l0.787,0.51l0.883,0.435
		l0.946,0.288l1.033,0.233l1.079,0.076l1.131-0.003l1.172-0.136l1.229-0.232l1.251-0.329l1.239-0.439l1.301-0.537l1.275-0.629
		l1.279-0.709l1.259-0.802l1.234-0.892l1.223-0.957l1.156-1.044l1.119-1.081l1.089-1.128l1.005-1.196l0.953-1.22l0.857-1.239
		l0.78-1.274l0.708-1.284l0.59-1.276l0.516-1.281l0.421-1.268l0.308-1.234l0.192-1.193l0.095-1.177l-0.002-1.136l-0.138-1.068
		l-0.237-1.02l-0.34-0.93l-0.46-0.854l-0.554-0.746l-0.66-0.694l-0.758-0.593l-0.837-0.475l-0.907-0.351l-0.995-0.251l-1.049-0.154
		l-1.115-0.055l-1.161,0.08l-1.185,0.191l-1.204,0.264c-0.009,0.002-0.019,0.005-0.028,0.008l-1.268,0.386l-0.862,0.341l1.738-0.784
		l1.354-0.501l1.344-0.412l1.294-0.311l1.259-0.186l1.204-0.112l1.192,0.017l1.092,0.106l1.054,0.217l0.962,0.305l0.89,0.387
		l0.815,0.523l0.736,0.589l0.646,0.676l0.557,0.767l0.451,0.845l0.363,0.936l0.256,1.021l0.165,1.078l0.074,1.126l-0.055,1.197
		l-0.147,1.251L42.784,31.7l-0.351,1.312L41.968,34.369z M10.175,38.962l0.444-1.222l0.538-1.242l0.63-1.26l0.703-1.223l0.82-1.23
		l0.872-1.207l0.967-1.19l1.022-1.133l1.082-1.084l1.11-1.037l1.175-0.952l1.212-0.914l1.199-0.832l2.466-1.393l1.266-0.559
		l1.214-0.48l1.228-0.372l1.171-0.258l1.133-0.184l1.085-0.075l1.039,0.052l0.98,0.143l0.917,0.23l0.818,0.315l0.746,0.422
		l0.675,0.528l0.593,0.626l0.499,0.669l0.411,0.762l0.307,0.842l0.22,0.944l0.128,0.988l0,1.061l-0.091,1.12l-0.182,1.136
		l-0.294,1.177l-0.406,1.221l-0.502,1.244l-0.571,1.236l-0.689,1.246l-0.761,1.243l-0.834,1.207l-0.933,1.193L32.6,41.892
		l-1.064,1.102l-1.101,1.063l-1.128,1.019l-1.193,0.933l-1.205,0.872l-1.223,0.779l-1.245,0.689l-1.238,0.611l-1.263,0.521
		l-1.194,0.424l-1.198,0.314l-1.179,0.222l-1.107,0.13l-1.065,0.002l-0.998-0.067l-0.953-0.219l-0.866-0.26l-0.792-0.393
		l-0.71-0.457l-0.639-0.563l-0.533-0.634l-0.447-0.728l-0.362-0.827L9.625,45.55L9.46,44.595l-0.056-1.047l0.016-1.069l0.146-1.135
		l0.258-1.18L10.175,38.962z M4.534,52.062l-0.457-0.965l-0.365-1.018l-0.274-1.106L3.29,47.798l-0.056-1.23l0.055-1.31l0.147-1.329
		l0.259-1.409l0.351-1.424l0.466-1.435l0.537-1.462l0.671-1.492l0.744-1.487l0.84-1.476l0.912-1.47l1.007-1.455l1.084-1.421
		L11.446,28l1.193-1.343l1.268-1.306l1.329-1.253l1.357-1.21l1.421-1.121l1.434-1.063l1.458-0.973l1.468-0.912l1.475-0.803
		l1.483-0.742l1.472-0.615l1.465-0.539l1.435-0.429l1.42-0.314l1.385-0.242l1.31-0.131l1.279-0.038l1.226,0.09l1.165,0.202
		l1.079,0.247l1.024,0.401l0.939,0.466l0.867,0.575l0.777,0.665l0.668,0.737l0.601,0.852l0.506,0.897l0.402,1.021l0.312,1.079
		l0.22,1.13l0.111,1.214l0.02,1.263l-0.111,1.33l-0.203,1.35l-0.315,1.426l-0.41,1.414l-0.5,1.463l-0.615,1.471l-0.478,1.007
		l0.733-2.04l0.363-1.359l0.268-1.344l0.153-1.304l0.057-1.262l-0.078-1.197l-0.176-1.142l-0.276-1.095l-0.394-1.017l-0.495-0.925
		l-0.613-0.846l-0.711-0.746l-0.802-0.643l-0.896-0.571l-0.975-0.427l-1.033-0.328l-1.127-0.231l-1.159-0.114l-1.26-0.018
		l-1.261,0.116l-1.31,0.195l-1.335,0.32c-0.007,0.002-0.014,0.004-0.021,0.006l-1.374,0.421l-1.391,0.515l-1.413,0.612l-1.405,0.723
		l-1.409,0.801l-1.384,0.891l-1.369,0.952l-1.349,1.046l-1.292,1.103l-1.254,1.178l-1.197,1.236l-1.137,1.288l-1.083,1.312
		l-1.008,1.351L11.041,34.1l-0.857,1.391l-0.763,1.413l-0.646,1.407l-0.573,1.414l-0.457,1.372L7.361,42.48l-0.249,1.322
		L6.96,45.105l-0.057,1.256l0.059,1.223l0.178,1.15l0.293,1.067l0.394,1.017l0.495,0.925l0.613,0.846l0.705,0.741l0.797,0.671
		l0.899,0.545l0.971,0.45l1.038,0.307l1.122,0.252l1.165,0.095l1.247,0.035l1.266-0.117l1.324-0.213l1.357-0.326l1.374-0.421
		l1.391-0.515l0.136-0.059L22.17,54.77l-1.468,0.578l-1.443,0.481l-1.448,0.373l-1.384,0.279l-1.354,0.167l-1.3,0.094l-1.251-0.034
		l-1.186-0.126l-1.112-0.234l-1.077-0.345l-0.963-0.415l-0.916-0.515l-0.82-0.636l-0.721-0.681L5.081,52.97L4.534,52.062z"/>
</g>
</svg>
