<?xml version="1.0" encoding="utf-8"?>
<!-- Generator: Adobe Illustrator 18.1.1, SVG Export Plug-In . SVG Version: 6.00 Build 0)  -->
<svg version="1.1" id="LED" xmlns="http://www.w3.org/2000/svg" xmlns:xlink="http://www.w3.org/1999/xlink" x="0px" y="0px"
	 viewBox="0 0 140 140" style="enable-background:new 0 0 140 140;" xml:space="preserve">
<style type="text/css">
	.st0{opacity:0.2;}
	.st1{fill:#939598;}
</style>
<g class="st0">
	<g>
		<path class="st1" d="M134.428,103.443c-0.061,0-0.122-0.023-0.169-0.07c-0.093-0.093-0.094-0.244,0-0.337l0.127-0.127
			c0.018-0.018,0.039-0.034,0.063-0.046l0.473-0.236l0.707-0.707l0.223-0.444l0.247-1.239l-0.005-0.715l-0.249-1.223l-0.483-1.441
			l-1.329-1.33l-0.931-0.464h-0.413l-0.344,0.114c-0.128,0.046-0.26-0.025-0.302-0.152c-0.041-0.124,0.027-0.26,0.152-0.301
			l0.381-0.126c0.024-0.009,0.05-0.013,0.075-0.013h0.508c0.037,0,0.073,0.009,0.106,0.025l1.016,0.507
			c0.023,0.012,0.044,0.027,0.062,0.045l1.397,1.397c0.026,0.026,0.046,0.058,0.057,0.093l0.508,1.524l0.261,1.299l0.005,0.808
			l-0.258,1.317c-0.004,0.021-0.011,0.041-0.02,0.06l-0.254,0.508c-0.012,0.023-0.027,0.044-0.045,0.062l-0.762,0.762
			c-0.018,0.018-0.039,0.033-0.063,0.045l-0.473,0.236l-0.099,0.099C134.551,103.42,134.489,103.443,134.428,103.443z"/>
	</g>
	<g>
		<path class="st1" d="M132.777,103.824c-0.109,0-0.207-0.075-0.233-0.186c-0.03-0.128,0.051-0.257,0.179-0.286l1.651-0.381
			c0.133-0.035,0.257,0.051,0.287,0.179c0.03,0.128-0.051,0.257-0.179,0.286l-1.651,0.381
			C132.813,103.822,132.795,103.824,132.777,103.824z"/>
	</g>
	<g>
		<path class="st1" d="M130.492,95.698c-0.104,0-0.2-0.069-0.23-0.173c-0.036-0.127,0.037-0.259,0.164-0.295l1.778-0.508
			c0.129-0.039,0.259,0.038,0.295,0.163c0.036,0.127-0.037,0.259-0.164,0.295l-1.778,0.508
			C130.535,95.695,130.513,95.698,130.492,95.698z"/>
	</g>
	<g>
		<path class="st1" d="M78.431,29.161c-0.061,0-0.122-0.023-0.169-0.07l-1.27-1.27l-5.96-5.453l-3.167-2.66L64.7,17.303
			l-6.595-4.565l-3.173-2.158l-3.54-2.022l-3.296-1.774l-3.431-1.906l-3.534-1.513l-3.307-1.526
			c-0.12-0.055-0.172-0.197-0.117-0.317c0.055-0.12,0.196-0.175,0.317-0.117l3.301,1.524l3.55,1.521l3.45,1.916l3.298,1.776
			l3.561,2.035l3.19,2.169l6.605,4.572l3.183,2.418l3.184,2.675l5.976,5.466l1.278,1.277c0.093,0.093,0.093,0.245,0,0.338
			C78.553,29.138,78.492,29.161,78.431,29.161z"/>
	</g>
	<g>
		<path class="st1" d="M28.91,78.683c-0.061,0-0.122-0.023-0.169-0.07l-1.651-1.651l-2.8-3.056l-5.214-6.23l-4.959-6.484
			L7.629,50.89l-3.567-7.132L2.41,40.328l-1.019-2.293c-0.053-0.12,0-0.261,0.121-0.316c0.119-0.053,0.262,0.001,0.315,0.121
			l1.016,2.286l1.647,3.421l3.554,7.109l6.464,10.264l4.94,6.458l5.199,6.214l2.787,3.04l1.644,1.643
			c0.093,0.093,0.093,0.245,0,0.338C29.032,78.66,28.971,78.683,28.91,78.683z"/>
	</g>
	<g>
		<path class="st1" d="M37.925,1.861c-0.032,0-0.063-0.007-0.094-0.019l-0.889-0.381l-1.365-0.37L34.322,0.84l-2.738-0.247
			l-1.493,0.248l-1.524,0.004L27.08,1.34l-0.93,0.137c-0.128,0.018-0.251-0.072-0.271-0.202c-0.018-0.131,0.072-0.252,0.203-0.27
			l0.889-0.127l1.483-0.498c0.024-0.008,0.05-0.013,0.075-0.013h1.524l1.484-0.25c0.021-0.005,0.041-0.002,0.061-0.003l2.793,0.254
			l1.296,0.258l1.412,0.385l0.921,0.392c0.121,0.052,0.177,0.192,0.125,0.314C38.106,1.807,38.017,1.861,37.925,1.861z"/>
	</g>
	<g>
		<path class="st1" d="M1.61,38.176c-0.095,0-0.184-0.057-0.222-0.151L0.88,36.757l-0.267-1.312l-0.255-1.531l-0.129-1.415
			l0.127-1.691l-0.001-1.505l1.149-5.006l0.781-1.577l0.626-1.629l1.533-3.068l1.03-1.549l1.157-1.417l1.002-1.504l1.426-1.434
			l1.127-1.379l1.285-1.287l2.936-2.427l1.544-1.031l1.378-1.129l1.568-0.791l1.645-0.884l1.53-0.767l1.672-0.643l2.296-0.766
			c0.124-0.044,0.26,0.025,0.302,0.151c0.042,0.125-0.026,0.26-0.151,0.302l-2.285,0.762L22.265,2.86l-1.502,0.754l-1.645,0.884
			l-1.53,0.766l-1.353,1.114l-1.542,1.03l-2.902,2.398l-1.252,1.254l-1.127,1.379L8,13.854l-0.986,1.487l-1.157,1.417l-1.001,1.504
			l-1.509,3.022l-0.626,1.629L1.95,24.458l-1.124,4.899l0.006,1.47l-0.128,1.669l0.127,1.357l0.252,1.506l0.253,1.262l0.496,1.227
			c0.049,0.122-0.01,0.261-0.133,0.31C1.669,38.17,1.639,38.176,1.61,38.176z"/>
	</g>
	<g>
		<path class="st1" d="M80.844,26.495c-0.007,0-0.014-0.001-0.021-0.001l-5.841-0.508c-0.131-0.012-0.228-0.127-0.217-0.258
			c0.012-0.132,0.125-0.219,0.259-0.218l5.841,0.508c0.131,0.012,0.228,0.127,0.217,0.258C81.07,26.401,80.966,26.495,80.844,26.495
			z"/>
	</g>
	<g>
		<path class="st1" d="M26.369,80.968c-0.12,0-0.223-0.09-0.237-0.213l-0.635-5.714c-0.015-0.131,0.08-0.249,0.211-0.263
			c0.129-0.011,0.249,0.079,0.264,0.211l0.635,5.714c0.014,0.131-0.08,0.249-0.211,0.263C26.387,80.967,26.379,80.968,26.369,80.968
			z"/>
	</g>
	<g>
		<path class="st1" d="M78.812,29.542c-0.061,0-0.122-0.023-0.169-0.07l-0.381-0.381c-0.093-0.093-0.093-0.245,0-0.338
			c0.093-0.093,0.245-0.093,0.338,0l0.381,0.381c0.093,0.093,0.093,0.245,0,0.338C78.934,29.519,78.873,29.542,78.812,29.542z"/>
	</g>
	<g>
		<path class="st1" d="M29.291,79.064c-0.061,0-0.122-0.023-0.169-0.07l-0.381-0.381c-0.093-0.093-0.093-0.245,0-0.338
			s0.245-0.093,0.338,0l0.381,0.381c0.093,0.093,0.093,0.245,0,0.338C29.413,79.041,29.352,79.064,29.291,79.064z"/>
	</g>
	<g>
		<path class="st1" d="M73.098,110.173c-0.1,0-0.193-0.063-0.226-0.163c-0.042-0.125,0.026-0.26,0.151-0.302l1.524-0.508
			l1.759-0.755l2.019-1.01l1.91-0.892l3.787-2.274l5.569-4.051l3.541-3.037l4.938-4.939l1.384-1.636l0.223-0.461
			c0.058-0.119,0.203-0.164,0.321-0.107c0.118,0.059,0.166,0.203,0.107,0.321l-0.254,0.508l-1.428,1.698l-4.966,4.966l-3.568,3.061
			l-5.602,4.074l-3.828,2.298l-1.926,0.901l-2.026,1.012l-1.79,0.768l-1.543,0.515C73.148,110.169,73.122,110.173,73.098,110.173z"
			/>
	</g>
	<g>
		<path class="st1" d="M34.623,94.808c-0.061,0-0.122-0.023-0.169-0.07l-3.682-3.682c-0.093-0.093-0.093-0.245,0-0.338
			c0.093-0.093,0.245-0.093,0.338,0l3.682,3.682c0.093,0.093,0.093,0.245,0,0.338C34.746,94.785,34.685,94.808,34.623,94.808z"/>
	</g>
	<g>
		<path class="st1" d="M104.334,84.524c-0.046,0-0.092-0.014-0.133-0.041c-0.11-0.073-0.139-0.221-0.066-0.33l1.016-1.524
			l1.137-1.895l0.877-1.884l1.018-2.038l0.886-1.899l1.895-5.689l0.754-3.78l0.25-3.779l-0.001-1.762l-0.126-1.632l-0.252-1.763
			l-0.117-0.339c-0.042-0.125,0.026-0.26,0.151-0.302c0.125-0.044,0.259,0.025,0.302,0.151l0.127,0.381l0.264,1.82l0.129,1.666
			l0.001,1.796l-0.255,3.825l-0.766,3.84l-1.913,5.743l-0.899,1.93l-1.018,2.038l-0.887,1.9l-1.154,1.926l-1.022,1.533
			C104.487,84.486,104.411,84.524,104.334,84.524z"/>
	</g>
	<g>
		<path class="st1" d="M136.206,91c-0.061,0-0.122-0.023-0.169-0.07L111.53,66.423c-0.093-0.093-0.093-0.245,0-0.338
			s0.245-0.093,0.338,0l24.507,24.507c0.093,0.093,0.093,0.245,0,0.338C136.328,90.976,136.267,91,136.206,91z"/>
	</g>
	<g>
		<path class="st1" d="M90.748,136.458c-0.061,0-0.122-0.023-0.169-0.07l-24.507-24.507c-0.093-0.093-0.093-0.245,0-0.338
			s0.245-0.093,0.338,0l24.507,24.507c0.093,0.093,0.093,0.245,0,0.338C90.87,136.435,90.809,136.458,90.748,136.458z"/>
	</g>
	<g>
		<path class="st1" d="M40.719,100.904c-0.061,0-0.122-0.023-0.169-0.07l-3.683-3.683c-0.093-0.093-0.093-0.245,0-0.338
			c0.093-0.093,0.245-0.093,0.338,0l3.683,3.683c0.093,0.093,0.093,0.245,0,0.338C40.841,100.88,40.78,100.904,40.719,100.904z"/>
	</g>
	<g>
		<path class="st1" d="M46.813,106.999c-0.061,0-0.122-0.023-0.169-0.07l-3.682-3.683c-0.093-0.093-0.093-0.245,0-0.338
			c0.093-0.093,0.245-0.093,0.338,0l3.682,3.683c0.093,0.093,0.093,0.245,0,0.338C46.936,106.975,46.874,106.999,46.813,106.999z"/>
	</g>
	<g>
		<path class="st1" d="M61.686,112.457l-1.685-0.126l-1.76,0.001l-1.704-0.388l-1.509-0.252l-1.559-0.516l-2.817-1.279l-1.294-0.774
			l-2.309-1.795l-0.403-0.4c-0.093-0.093-0.094-0.245,0-0.338s0.244-0.093,0.338,0l0.381,0.381l2.263,1.759l1.246,0.745l2.77,1.257
			l1.5,0.498l1.488,0.246l1.665,0.384l1.724-0.007l1.669,0.127l1.87-0.126l1.76-0.253l1.15-0.127
			c0.129-0.012,0.249,0.08,0.264,0.211c0.014,0.131-0.08,0.249-0.211,0.263l-1.143,0.126l-1.77,0.254L61.686,112.457z"/>
	</g>
	<g>
		<path class="st1" d="M94.557,34.876c-0.061,0-0.122-0.023-0.169-0.07l-3.683-3.683c-0.093-0.093-0.093-0.245,0-0.338
			s0.245-0.093,0.338,0l3.683,3.683c0.093,0.093,0.093,0.245,0,0.338C94.68,34.852,94.618,34.876,94.557,34.876z"/>
	</g>
	<g>
		<path class="st1" d="M100.652,40.971c-0.061,0-0.122-0.023-0.169-0.07l-3.682-3.683c-0.093-0.093-0.093-0.245,0-0.338
			c0.093-0.093,0.245-0.093,0.338,0l3.682,3.683c0.093,0.093,0.093,0.245,0,0.338C100.774,40.947,100.713,40.971,100.652,40.971z"/>
	</g>
	<g>
		<path class="st1" d="M106.747,47.065c-0.061,0-0.122-0.023-0.169-0.07l-3.683-3.683c-0.093-0.093-0.093-0.245,0-0.338
			s0.245-0.093,0.338,0l3.683,3.683c0.093,0.093,0.093,0.245,0,0.338C106.869,47.042,106.808,47.065,106.747,47.065z"/>
	</g>
	<g>
		<path class="st1" d="M109.54,50.62c-0.087,0-0.171-0.049-0.213-0.132l-0.254-0.507l-1.88-2.373l-0.616-0.613
			c-0.093-0.093-0.093-0.245,0-0.338s0.244-0.093,0.338,0l0.635,0.635l1.922,2.432l0.281,0.55c0.059,0.118,0.012,0.261-0.106,0.321
			C109.613,50.611,109.576,50.62,109.54,50.62z"/>
	</g>
	<g>
		<path class="st1" d="M130.873,96.84c-0.036,0-0.072-0.009-0.107-0.025c-0.118-0.059-0.166-0.203-0.107-0.321l0.508-1.015
			c0.012-0.023,0.027-0.044,0.045-0.062l0.381-0.381c0.026-0.026,0.058-0.046,0.093-0.057l0.327-0.11l0.087-0.087
			c0.093-0.093,0.245-0.093,0.338,0c0.093,0.093,0.093,0.245,0,0.338l-0.127,0.127c-0.026,0.026-0.058,0.046-0.093,0.057
			l-0.327,0.11l-0.314,0.314l-0.49,0.98C131.045,96.792,130.96,96.84,130.873,96.84z"/>
	</g>
	<g>
		<path class="st1" d="M134.428,103.443h-0.762c-0.037,0-0.073-0.009-0.106-0.025l-1.016-0.508
			c-0.023-0.012-0.044-0.027-0.062-0.045l-0.508-0.508l-0.797-1.316l-0.276-0.809l-0.135-0.664l-0.246-0.733
			c-0.008-0.024-0.013-0.051-0.013-0.076v-1.524l0.132-0.682c0.026-0.129,0.153-0.211,0.281-0.188
			c0.129,0.026,0.213,0.152,0.187,0.281l-0.127,0.635l0.005,1.438l0.241,0.725l0.135,0.664l0.246,0.734l0.74,1.222l0.444,0.434
			l0.932,0.465h0.705c0.132,0,0.239,0.107,0.239,0.239S134.56,103.443,134.428,103.443z"/>
	</g>
	<g>
		<path class="st1" d="M39.449,82.365h-1.524l-1.418-0.127l-1.542-0.257l-1.42-0.386l-1.295-0.516l-1.171-0.648l-2.059-1.541
			l-0.279-0.276c-0.093-0.093-0.093-0.245,0-0.338c0.093-0.093,0.245-0.093,0.338,0l0.254,0.254l2.006,1.501l1.116,0.618
			l1.242,0.495l1.371,0.372l1.501,0.25l1.379,0.123l3.28-0.001l1.485-0.25l1.783-0.255l1.631-0.377l1.765-0.505l1.894-0.633
			l1.759-0.755l1.898-0.885l3.538-2.022l1.901-1.142l3.539-2.528l3.287-2.782l3.159-3.161l4.304-5.065l2.528-3.54L76.83,56.1
			l1.013-1.774l0.88-1.887l0.759-1.771l0.628-1.886l0.638-1.661l0.501-1.758l0.247-1.746l0.385-1.67l0.121-1.616l-0.127-1.613
			l-0.001-1.543l-0.251-1.485l-0.376-1.372l-1.007-2.515l-0.622-1.115L78.875,29.7l-0.613-0.608c-0.093-0.093-0.094-0.245,0-0.338
			c0.093-0.093,0.244-0.093,0.338,0l0.635,0.634l0.784,1.043l0.653,1.17l1.028,2.567l0.39,1.422l0.259,1.548l0.003,1.563
			l0.126,1.631l-0.127,1.688l-0.387,1.686l-0.25,1.759L81.2,47.273l-0.642,1.67l-0.631,1.895l-0.769,1.797l-0.892,1.911
			l-1.025,1.796l-1.146,1.908l-2.55,3.572l-4.33,5.096l-3.186,3.188l-3.316,2.807l-3.571,2.551l-1.921,1.154l-3.56,2.034
			l-1.922,0.898l-1.784,0.765l-1.923,0.642l-1.788,0.511l-1.662,0.384l-1.798,0.257l-1.518,0.253L39.449,82.365z"/>
	</g>
	<g>
		<path class="st1" d="M11.535,44.017l-2.587-0.255l-1.291-0.257l-1.171-0.389l-1.047-0.521L3.502,41.18
			c-0.021-0.016-0.04-0.034-0.055-0.055l-1.27-1.778l-0.633-1.137L1.44,38.105c-0.093-0.093-0.093-0.244,0-0.337
			c0.093-0.093,0.244-0.094,0.338,0.001l0.127,0.127c0.016,0.016,0.029,0.033,0.04,0.052l0.635,1.143l1.232,1.723l0.857,0.611
			l1.02,0.765l0.979,0.486l1.111,0.368l1.242,0.247l2.514,0.25l2.75-0.254l1.618-0.376l1.388-0.379l1.66-0.383l1.471-0.743
			l1.672-0.643l1.623-0.876l4.552-3.036l3.027-2.524l2.777-2.779l3.668-4.428l1.001-1.503l0.877-1.631l0.758-1.518l0.892-1.658
			l0.622-1.623l1.012-3.037l0.245-1.488l0.377-1.389v-2.761l-0.503-2.493l-0.743-2.222l-1.249-1.749l-0.863-0.859L39.31,2.578
			l-1.491-0.742c-0.118-0.059-0.166-0.202-0.107-0.321s0.202-0.164,0.321-0.107l1.524,0.762l0.921,0.654l0.919,0.914l1.295,1.808
			c0.014,0.019,0.025,0.041,0.032,0.063l0.762,2.285L44,10.464l0.005,2.84c0,0.021-0.003,0.043-0.009,0.063l-0.381,1.396l-0.249,1.5
			l-1.025,3.084l-0.638,1.661l-0.902,1.679l-0.758,1.517l-0.892,1.657l-1.028,1.543l-3.697,4.464l-2.81,2.811l-3.063,2.554
			l-4.591,3.063l-1.67,0.9l-1.679,0.647l-1.502,0.753l-1.704,0.399l-1.388,0.379l-1.66,0.384L11.535,44.017z"/>
	</g>
	<g>
		<path class="st1" d="M58.876,111.697l-1.811-0.257l-1.636-0.125l-1.686-0.387l-1.545-0.514l-2.817-1.278l-2.333-1.807l-0.403-0.4
			c-0.093-0.093-0.094-0.245,0-0.338s0.244-0.093,0.338,0l0.381,0.381l2.263,1.759l2.745,1.24l1.501,0.499l1.629,0.375l1.615,0.121
			l1.793,0.256l1.744-0.003l1.889-0.125l1.874-0.377c0.127-0.024,0.255,0.058,0.281,0.188c0.026,0.129-0.058,0.255-0.188,0.281
			l-1.904,0.381l-1.936,0.13L58.876,111.697z"/>
	</g>
	<g>
		<path class="st1" d="M109.16,50.239c-0.081,0-0.16-0.042-0.205-0.117l-0.762-1.269l-0.873-1.119l-0.742-0.739
			c-0.093-0.093-0.093-0.245,0-0.338c0.093-0.093,0.245-0.093,0.338,0l0.762,0.762l0.908,1.166l0.778,1.293
			c0.068,0.113,0.032,0.259-0.082,0.327C109.244,50.228,109.202,50.239,109.16,50.239z"/>
	</g>
	<g>
		<path class="st1" d="M134.682,102.173c-0.026,0-0.051-0.004-0.076-0.013l-0.381-0.127l-0.539-0.266
			c-0.023-0.012-0.044-0.026-0.063-0.045l-0.762-0.762l-0.417-0.682c-0.014-0.023-0.024-0.049-0.029-0.076l-0.381-1.904
			l-0.005-1.317c0-0.037,0.009-0.074,0.025-0.107l0.254-0.507c0.012-0.022,0.027-0.044,0.045-0.062l0.635-0.635
			c0.027-0.026,0.059-0.046,0.094-0.057l0.381-0.126c0.05-0.017,0.102-0.017,0.151,0l0.763,0.254l0.539,0.266
			c0.023,0.012,0.044,0.027,0.062,0.045l0.381,0.381c0.018,0.018,0.033,0.039,0.045,0.062l0.254,0.508l0.372,0.619
			c0.014,0.023,0.024,0.049,0.03,0.076l0.254,1.27l0.005,1.317l-0.132,0.682c-0.004,0.021-0.011,0.041-0.02,0.06l-0.254,0.507
			c-0.012,0.022-0.027,0.044-0.045,0.062l-0.254,0.255c-0.026,0.026-0.058,0.046-0.094,0.057l-0.761,0.254
			C134.733,102.17,134.708,102.173,134.682,102.173z M133.935,101.357l0.473,0.236l0.274,0.089l0.634-0.211l0.187-0.187l0.222-0.444
			l0.121-0.604l-0.005-1.223l-0.241-1.182l-0.36-0.6l-0.246-0.489l-0.326-0.326l-0.473-0.236l-0.655-0.216l-0.252,0.084
			l-0.567,0.567l-0.211,0.423v1.214l0.368,1.817l0.36,0.6L133.935,101.357z"/>
	</g>
	<g>
		<path class="st1" d="M132.396,103.952c-0.026,0-0.051-0.004-0.076-0.013l-0.381-0.127l-1.047-0.521
			c-0.023-0.012-0.044-0.027-0.062-0.045l-0.508-0.508l-0.417-0.68l-0.263-0.525l-0.372-0.619l-0.276-0.808l-0.137-0.931
			l-0.002-1.558l0.132-0.682c0.004-0.021,0.011-0.042,0.021-0.06l0.507-1.015c0.012-0.023,0.027-0.044,0.045-0.062l0.254-0.254
			c0.018-0.017,0.039-0.033,0.062-0.045l0.508-0.255c0.117-0.058,0.261-0.012,0.32,0.107c0.059,0.118,0.012,0.261-0.106,0.321
			l-0.473,0.237l-0.199,0.199l-0.476,0.952l-0.121,0.603l0.005,1.477l0.125,0.855l0.244,0.72l0.359,0.588l0.263,0.524l0.372,0.618
			l0.444,0.435l0.982,0.491l0.274,0.089l0.306-0.102c0.123-0.044,0.26,0.025,0.302,0.151c0.042,0.125-0.026,0.26-0.151,0.302
			l-0.381,0.127C132.447,103.948,132.422,103.952,132.396,103.952z"/>
	</g>
	<g>
		<path class="st1" d="M1.61,38.176c-0.061,0-0.122-0.023-0.169-0.071c-0.093-0.093-0.093-0.244,0-0.337l0.127-0.126
			c0.094-0.094,0.245-0.093,0.338,0.001c0.093,0.093,0.093,0.244,0,0.337l-0.127,0.126C1.731,38.153,1.67,38.176,1.61,38.176z"/>
	</g>
	<g>
		<path class="st1" d="M12.91,37.288h-2.539l-1.169-0.129L8.155,36.9L7.09,36.374l-0.876-0.375L5.28,35.338l-0.665-0.66
			l-0.661-0.919l-0.406-0.934l-0.502-1.003l-0.272-1.066l-0.133-1.174L2.64,27.018l0.259-1.317l0.766-2.81l0.517-1.295l0.639-1.408
			l0.765-1.531l1.79-2.815l3.189-3.957l1.287-1.289l3.956-3.192l2.814-1.792l1.545-0.775l1.405-0.638l1.279-0.512l1.538-0.512
			l2.568-0.516l2.586-0.005l1.169,0.128l1.047,0.26l1.065,0.526l0.876,0.375l0.934,0.66l0.665,0.66l0.661,0.919l0.406,0.934
			l0.502,1.003l0.272,1.065l0.133,1.175l0.001,2.566l-0.513,2.586l-0.516,1.554l-0.513,1.283l-0.639,1.407l-0.765,1.531l-1.79,2.815
			l-3.192,3.959l-1.285,1.287l-3.957,3.192l-2.814,1.793l-1.545,0.774l-1.405,0.638l-1.28,0.512l-2.82,0.771l-1.285,0.258
			C12.942,37.286,12.926,37.288,12.91,37.288z M27.005,3.131l-2.492,0.503l-1.496,0.499l-1.256,0.503l-1.387,0.631l-1.516,0.759
			l-2.772,1.765l-3.913,3.158l-1.252,1.254L7.764,16.12l-1.763,2.772l-0.75,1.502L4.62,21.784l-0.504,1.259l-0.753,2.768
			l-0.25,1.253l0.005,2.492l0.125,1.116l0.248,0.985l0.49,0.966l0.387,0.902l0.61,0.844l0.609,0.604l0.859,0.61l0.844,0.356
			l1.028,0.514l0.967,0.236l1.111,0.121l2.489-0.002l1.247-0.25l2.778-0.758l1.244-0.499l1.387-0.631l1.515-0.758l2.772-1.765
			l3.916-3.16l1.25-1.252l3.157-3.917l1.763-2.772l0.75-1.502l0.632-1.388l0.503-1.259l0.503-1.512l0.5-2.51l-0.005-2.493
			l-0.125-1.116l-0.248-0.984l-0.49-0.967l-0.387-0.902l-0.61-0.844l-0.609-0.604l-0.859-0.609l-0.844-0.356l-1.028-0.514
			L30.63,3.25l-1.112-0.12L27.005,3.131z"/>
	</g>
	<g>
		<path class="st1" d="M41.099,82.492c-0.006,0-0.012,0-0.018-0.001l-1.651-0.127l-1.505,0.001l-1.418-0.127l-1.542-0.257
			l-1.42-0.386l-1.295-0.516l-1.171-0.648l-2.059-1.541l-0.407-0.403c-0.093-0.093-0.093-0.245,0-0.338s0.245-0.093,0.338,0
			l0.381,0.381l2.006,1.501l1.116,0.618l1.242,0.495l1.371,0.372l1.501,0.25l1.379,0.123l1.502-0.001l1.633,0.125l1.615-0.372
			l1.798-0.257l1.63-0.377l1.766-0.505l1.894-0.633l1.759-0.755l1.898-0.885l3.538-2.022l1.901-1.142l3.539-2.528l3.287-2.782
			l4.81-4.812l1.244-1.748l1.409-1.666l1.387-1.891l1.139-1.646L76.83,56.1l1.013-1.774l0.88-1.887l1.521-3.548l1.006-3.527
			l0.247-1.746l0.385-1.67l0.121-1.616l-0.127-1.613l-0.001-1.543l-0.251-1.485l-0.376-1.372l-1.007-2.515l-0.622-1.115L78.875,29.7
			l-0.74-0.736c-0.093-0.093-0.093-0.245,0-0.338c0.093-0.093,0.245-0.093,0.338,0l0.762,0.762l0.784,1.043l0.653,1.17l1.028,2.567
			l0.39,1.422l0.259,1.548l0.003,1.563l0.126,1.631l-0.127,1.688l-0.387,1.686l-0.25,1.759l-1.023,3.586l-1.534,3.584l-0.892,1.911
			l-1.025,1.796l-1.146,1.908l-1.151,1.664l-1.401,1.909l-1.407,1.664L70.88,65.25l-4.85,4.855l-3.316,2.807l-3.571,2.551
			l-1.921,1.154l-3.56,2.034l-1.922,0.898l-1.784,0.765l-1.923,0.642l-1.788,0.511l-1.663,0.384l-1.798,0.257l-1.631,0.377
			C41.135,82.49,41.117,82.492,41.099,82.492z"/>
	</g>
	<g>
		<path class="st1" d="M26.623,83c-0.123,0-0.228-0.095-0.238-0.221l-0.127-1.651l-0.116-0.324c-0.042-0.125,0.026-0.26,0.151-0.302
			c0.123-0.044,0.26,0.024,0.302,0.151l0.127,0.381l0.138,1.708c0.01,0.132-0.088,0.247-0.22,0.257C26.636,83,26.63,83,26.623,83z"
			/>
	</g>
	<g>
		<path class="st1" d="M93.287,34.367c-0.079,0-0.156-0.039-0.202-0.111l-0.889-1.397l-0.875-1.124l-2.012-2.009l-1.356-0.856
			l-1.265-0.759l-3-0.994l-1.488-0.245l-1.42-0.386c-0.127-0.035-0.203-0.166-0.168-0.293s0.169-0.2,0.293-0.167l1.397,0.381
			l1.5,0.249l3.084,1.024l1.318,0.784l1.402,0.892l2.072,2.064l0.908,1.165L93.489,34c0.07,0.112,0.038,0.258-0.073,0.329
			C93.376,34.355,93.332,34.367,93.287,34.367z"/>
	</g>
	<g>
		<path class="st1" d="M95.065,39.193c-0.022,0-0.045-0.003-0.068-0.01l-2.159-0.635l-2.182-0.897l-1.128-0.375
			c-0.025-0.008-0.048-0.02-0.068-0.035l-2.032-1.525l-0.533-0.53c-0.018-0.018-0.034-0.039-0.045-0.062l-0.254-0.508
			c-0.017-0.033-0.025-0.07-0.025-0.107v-0.254c0-0.063,0.025-0.124,0.07-0.169l0.381-0.381c0.018-0.017,0.039-0.033,0.062-0.045
			l0.508-0.255c0.033-0.017,0.07-0.025,0.107-0.025h0.762l1.116-0.124c0.02-0.003,0.04-0.002,0.06,0.001l1.778,0.254l1.918,0.383
			c0.13,0.026,0.213,0.152,0.188,0.281c-0.026,0.129-0.152,0.212-0.281,0.188l-1.905-0.381l-1.735-0.247l-1.113,0.122l-0.731,0.002
			l-0.424,0.212l-0.283,0.284v0.098l0.211,0.423l0.48,0.48l1.975,1.479l1.106,0.369l2.174,0.894l2.135,0.627
			c0.126,0.038,0.199,0.17,0.162,0.296C95.263,39.125,95.168,39.193,95.065,39.193z"/>
	</g>
	<g>
		<path class="st1" d="M87.7,66.62c-0.043,0-0.087-0.012-0.126-0.037c-0.112-0.07-0.146-0.217-0.076-0.328l1.269-2.032l1.135-2.144
			l2.029-4.059l0.881-2.142l0.759-2.024l1.008-4.038l0.378-1.894l0.251-2.014l-0.002-5.303l-0.375-1.597
			c-0.03-0.128,0.051-0.257,0.179-0.286c0.132-0.036,0.257,0.051,0.287,0.179l0.381,1.651l0.006,5.387l-0.256,2.061l-0.384,1.922
			l-1.018,4.075l-0.77,2.057l-0.891,2.166l-2.039,4.079l-1.146,2.164l-1.278,2.046C87.858,66.58,87.78,66.62,87.7,66.62z"/>
	</g>
	<g>
		<path class="st1" d="M82.748,73.35c-0.061,0-0.122-0.023-0.169-0.07l-1.65-1.651l-1.536-1.792l-0.663-1.182l-0.398-1.182
			l-0.261-1.299c-0.008-0.041-0.005-0.083,0.008-0.122l0.254-0.762l0.403-0.681l0.544-0.555c0.026-0.026,0.058-0.046,0.094-0.057
			l0.762-0.254l1.192-0.138l1.196,0.127l1.573,0.518l1.931,0.899l1.795,1.026c0.115,0.065,0.154,0.211,0.089,0.326
			c-0.066,0.115-0.211,0.154-0.326,0.088l-1.778-1.016l-1.887-0.879l-1.498-0.497l-1.094-0.117l-1.09,0.127l-0.658,0.224
			l-0.469,0.469l-0.345,0.588l-0.212,0.654l0.241,1.209l0.373,1.114l0.617,1.103l1.496,1.738l1.638,1.637
			c0.093,0.093,0.093,0.245,0,0.338C82.87,73.326,82.809,73.35,82.748,73.35z"/>
	</g>
	<g>
		<path class="st1" d="M55.321,93.412c-0.097,0-0.188-0.059-0.223-0.155c-0.047-0.123,0.016-0.26,0.139-0.307l2.032-0.762
			l2.152-0.886l2.016-1.01l2.154-1.14l4.048-2.53l6.079-4.561l1.891-1.64l3.67-3.671l3.29-3.796c0.086-0.1,0.238-0.11,0.337-0.024
			c0.1,0.086,0.11,0.237,0.024,0.337l-3.301,3.809l-3.694,3.695l-1.917,1.662l-6.108,4.582l-4.08,2.55l-2.173,1.151l-2.037,1.019
			l-2.175,0.896l-2.039,0.765C55.377,93.407,55.349,93.412,55.321,93.412z"/>
	</g>
	<g>
		<path class="st1" d="M48.591,95.317c-0.1,0-0.193-0.063-0.226-0.163l-0.762-2.285l-0.39-2.193l-0.004-2.073
			c0-0.025,0.004-0.051,0.013-0.076l0.381-1.143c0.012-0.035,0.031-0.067,0.057-0.093l0.381-0.381
			c0.018-0.018,0.039-0.033,0.063-0.045l0.508-0.254c0.033-0.017,0.069-0.025,0.106-0.025h0.762c0.026,0,0.051,0.004,0.075,0.013
			l0.762,0.254c0.023,0.008,0.044,0.018,0.064,0.032l1.778,1.27c0.018,0.013,0.034,0.028,0.048,0.045l1.016,1.27l1.278,1.788
			l1.029,1.799c0.065,0.115,0.026,0.26-0.089,0.326c-0.114,0.064-0.26,0.026-0.326-0.088l-1.016-1.778l-1.257-1.757l-0.987-1.234
			l-1.721-1.23l-0.691-0.229h-0.667l-0.423,0.211l-0.313,0.314l-0.351,1.052v1.993l0.377,2.117l0.754,2.251
			c0.042,0.125-0.026,0.26-0.151,0.302C48.642,95.313,48.616,95.317,48.591,95.317z"/>
	</g>
	<g>
		<path class="st1" d="M44.816,95.822l-5.259-0.379l-1.686-0.387l-1.545-0.514l-2.817-1.279l-2.463-1.936l-1.036-1.034l-0.908-1.165
			l-0.778-1.294c-0.068-0.113-0.032-0.259,0.082-0.327c0.113-0.064,0.26-0.03,0.328,0.083l0.762,1.27l0.872,1.118l0.996,0.994
			l2.39,1.885l2.745,1.241L38,94.598l1.629,0.375l5.169,0.375l1.728-0.253l2.036-0.255c0.127-0.014,0.25,0.076,0.267,0.208
			c0.016,0.13-0.077,0.25-0.207,0.266l-2.032,0.254L44.816,95.822z"/>
	</g>
	<g>
		<path class="st1" d="M28.528,87.952c-0.117,0-0.219-0.086-0.236-0.205l-0.254-1.777l-0.378-1.892l-0.633-2.656l-0.133-1.175
			l-0.242-0.712l-0.111-0.22l-0.055,0.275l0.247,1.481l0.129,1.671c0.01,0.132-0.088,0.247-0.22,0.257
			c-0.128,0.02-0.246-0.088-0.257-0.22l-0.127-1.651l-0.252-1.503c-0.005-0.028-0.004-0.057,0.001-0.086l0.114-0.573l-0.106-0.321
			c-0.029-0.086-0.006-0.181,0.058-0.245l0.127-0.126c0.093-0.093,0.243-0.093,0.337,0l0.127,0.126
			c0.027,0.026,0.047,0.058,0.058,0.093l0.127,0.381l0.241,0.477l0.266,0.793l0.138,1.192l0.249,0.984l0.382,1.656l0.382,1.911
			l0.257,1.79c0.018,0.131-0.072,0.252-0.203,0.27C28.551,87.951,28.54,87.952,28.528,87.952z"/>
	</g>
	<g>
		<path class="st1" d="M59.003,97.095c-0.097,0-0.188-0.059-0.223-0.155c-0.047-0.123,0.016-0.26,0.139-0.307l2.032-0.762
			l2.152-0.886l2.016-1.01l2.154-1.14l4.049-2.53l6.078-4.561l1.752-1.756l1.918-1.662l1.892-1.893l3.29-3.796
			c0.086-0.1,0.237-0.11,0.337-0.024c0.1,0.086,0.11,0.237,0.024,0.337l-3.302,3.809l-1.916,1.917l-1.918,1.662l-1.765,1.766
			l-6.12,4.594l-4.08,2.55l-2.174,1.151l-2.037,1.019l-2.175,0.896l-2.039,0.765C59.06,97.09,59.031,97.095,59.003,97.095z"/>
	</g>
	<g>
		<path class="st1" d="M59.003,97.095c-0.061,0-0.122-0.023-0.169-0.07l-3.683-3.683c-0.093-0.093-0.093-0.245,0-0.338
			c0.093-0.093,0.245-0.093,0.338,0l3.683,3.683c0.093,0.093,0.093,0.245,0,0.338C59.126,97.071,59.065,97.095,59.003,97.095z"/>
	</g>
	<g>
		<path class="st1" d="M86.43,77.032c-0.061,0-0.122-0.023-0.169-0.07l-3.683-3.683c-0.093-0.093-0.093-0.245,0-0.338
			c0.093-0.093,0.245-0.093,0.338,0l3.683,3.683c0.093,0.093,0.093,0.245,0,0.338C86.553,77.009,86.492,77.032,86.43,77.032z"/>
	</g>
	<g>
		<path class="st1" d="M91.382,70.302c-0.061,0-0.122-0.023-0.169-0.07l-3.682-3.682c-0.093-0.093-0.093-0.245,0-0.338
			s0.245-0.093,0.338,0l3.682,3.682c0.093,0.093,0.093,0.245,0,0.338C91.505,70.278,91.444,70.302,91.382,70.302z"/>
	</g>
	<g>
		<path class="st1" d="M86.557,72.842c-0.061,0-0.122-0.023-0.169-0.07c-0.093-0.093-0.093-0.245,0-0.338l1.65-1.651l0.798-0.537
			c0.026-0.017,0.055-0.03,0.086-0.036l1.904-0.381l0.555-0.005c0.132,0,0.239,0.107,0.239,0.239c0,0.132-0.107,0.239-0.239,0.239
			h-0.508l-1.812,0.367l-0.722,0.481l-1.615,1.622C86.679,72.818,86.618,72.842,86.557,72.842z"/>
	</g>
	<g>
		<path class="st1" d="M85.669,76.27c-0.1,0-0.193-0.063-0.226-0.164l-0.127-0.382c-0.008-0.023-0.012-0.05-0.013-0.075l0-0.507
			l0.259-1.317c0.005-0.027,0.016-0.052,0.03-0.076l0.761-1.27c0.068-0.114,0.214-0.152,0.328-0.083
			c0.113,0.068,0.15,0.215,0.082,0.327l-0.741,1.235l-0.246,1.229l0.005,0.421l0.115,0.347c0.042,0.124-0.026,0.259-0.151,0.301
			C85.719,76.267,85.693,76.27,85.669,76.27z"/>
	</g>
	<g>
		<path class="st1" d="M88.97,75.254c-0.049,0-0.099-0.016-0.141-0.047c-0.106-0.078-0.129-0.227-0.051-0.333l2.665-3.681
			l1.132-1.888l1.007-2.016l1.775-3.803l1.26-3.785l0.505-1.768l0.122-0.615c0.026-0.129,0.156-0.212,0.281-0.188
			c0.13,0.026,0.213,0.152,0.188,0.281l-0.127,0.634l-0.513,1.798l-1.273,3.82l-1.788,3.834l-1.018,2.038l-1.152,1.92l-1.28,1.795
			l-1.399,1.906C89.116,75.22,89.043,75.254,88.97,75.254z"/>
	</g>
	<g>
		<path class="st1" d="M59.003,97.348c-0.104,0-0.2-0.069-0.23-0.173c-0.036-0.127,0.037-0.259,0.164-0.295l1.778-0.508l1.895-0.632
			l5.688-2.656l3.787-2.275l5.568-4.051l1.764-1.513l1.637-1.638l1.791-1.536l4.545-5.307l1.386-1.89
			c0.078-0.107,0.228-0.128,0.334-0.051c0.106,0.078,0.129,0.227,0.051,0.333l-1.397,1.904l-4.582,5.348l-1.803,1.55l-1.637,1.638
			l-1.791,1.536l-5.601,4.074l-3.828,2.299l-5.736,2.678l-1.93,0.644l-1.787,0.511C59.047,97.345,59.025,97.348,59.003,97.348z"/>
	</g>
	<g>
		<path class="st1" d="M52.4,98.365c-0.12,0-0.223-0.09-0.237-0.213c-0.015-0.131,0.08-0.249,0.211-0.263l1.143-0.127l1.659-0.128
			l3.781-0.758c0.13-0.023,0.255,0.058,0.281,0.188c0.026,0.129-0.058,0.255-0.188,0.281l-3.809,0.762l-1.679,0.131l-1.135,0.126
			C52.418,98.364,52.409,98.365,52.4,98.365z"/>
	</g>
	<g>
		<path class="st1" d="M65.098,103.19c-0.097,0-0.188-0.059-0.223-0.155c-0.047-0.123,0.016-0.26,0.139-0.307l2.032-0.763
			l2.152-0.885l2.016-1.01l2.154-1.14l4.048-2.531l6.079-4.56l1.891-1.64l3.67-3.671l3.29-3.797c0.086-0.1,0.237-0.11,0.337-0.024
			c0.1,0.086,0.11,0.237,0.024,0.337l-3.302,3.81l-3.694,3.695l-1.917,1.662l-6.108,4.581l-4.079,2.551l-2.174,1.151l-2.037,1.019
			l-2.175,0.895l-2.039,0.766C65.154,103.185,65.126,103.19,65.098,103.19z"/>
	</g>
	<g>
		<path class="st1" d="M65.098,103.19c-0.061,0-0.122-0.023-0.169-0.07l-3.682-3.683c-0.093-0.093-0.093-0.245,0-0.338
			c0.093-0.093,0.245-0.093,0.338,0l3.682,3.683c0.093,0.093,0.093,0.245,0,0.338C65.22,103.167,65.159,103.19,65.098,103.19z"/>
	</g>
	<g>
		<path class="st1" d="M61.416,99.507c-0.097,0-0.188-0.059-0.223-0.155c-0.047-0.123,0.016-0.26,0.139-0.307l2.032-0.762
			l2.152-0.886l2.016-1.01l2.154-1.14l4.049-2.53l2.155-1.395l1.878-1.631l2.045-1.534l1.892-1.64l3.669-3.671l3.29-3.796
			c0.086-0.1,0.238-0.11,0.337-0.024c0.1,0.086,0.11,0.237,0.024,0.337l-3.302,3.809l-3.693,3.695l-1.918,1.662l-2.045,1.534
			l-1.891,1.64L73.99,93.12l-4.066,2.541l-2.174,1.151l-2.037,1.019l-2.175,0.896L61.5,99.492
			C61.472,99.502,61.444,99.507,61.416,99.507z"/>
	</g>
	<g>
		<path class="st1" d="M92.526,83.126c-0.061,0-0.122-0.023-0.169-0.07l-3.683-3.682c-0.093-0.093-0.093-0.245,0-0.338
			s0.245-0.093,0.338,0l3.683,3.682c0.093,0.093,0.093,0.245,0,0.338C92.648,83.103,92.587,83.126,92.526,83.126z"/>
	</g>
	<g>
		<path class="st1" d="M61.416,99.507c-0.132,0-0.239-0.107-0.239-0.239v-0.96l-0.229-0.458l-0.108-0.318l-0.42-0.21l-0.312-0.102
			h-0.47l-0.588,0.122c-0.13,0.027-0.255-0.058-0.281-0.188c-0.026-0.129,0.058-0.255,0.187-0.281l0.635-0.127l0.555-0.005
			c0.026,0,0.051,0.005,0.076,0.013l0.381,0.127l0.539,0.266c0.057,0.028,0.1,0.078,0.12,0.138l0.127,0.381l0.241,0.477
			c0.017,0.033,0.025,0.07,0.025,0.107v1.016C61.655,99.4,61.548,99.507,61.416,99.507z"/>
	</g>
	<g>
		<path class="st1" d="M88.843,79.445c-0.061,0-0.122-0.023-0.169-0.07l-0.635-0.635c-0.026-0.026-0.046-0.058-0.057-0.093
			l-0.127-0.381l-0.135-0.664c-0.006-0.031-0.006-0.062,0-0.093l0.127-0.635c0.004-0.021,0.011-0.042,0.021-0.06l0.254-0.507
			l0.24-0.731l0.402-0.682c0.069-0.114,0.216-0.152,0.328-0.083c0.113,0.068,0.15,0.215,0.082,0.327l-0.381,0.635l-0.232,0.715
			l-0.253,0.509l-0.112,0.558l0.118,0.588l0.101,0.298l0.596,0.596c0.093,0.093,0.093,0.245,0,0.338
			C88.965,79.422,88.904,79.445,88.843,79.445z"/>
	</g>
	<g>
		<path class="st1" d="M91.382,70.302c-0.043,0-0.087-0.012-0.127-0.037c-0.112-0.07-0.146-0.217-0.076-0.328l1.27-2.032
			l1.134-2.143l2.029-4.059l0.882-2.143l0.759-2.024l1.008-4.037l0.378-1.894l0.251-2.014l-0.002-3.526l-0.126-1.889l-0.251-1.5
			c-0.021-0.13,0.067-0.253,0.196-0.274c0.134-0.029,0.254,0.065,0.275,0.196l0.254,1.524l0.13,1.928l0.001,3.571l-0.256,2.061
			l-0.384,1.923l-1.018,4.074l-0.77,2.057l-0.892,2.167l-2.039,4.079l-1.146,2.163l-1.278,2.046
			C91.54,70.262,91.462,70.302,91.382,70.302z"/>
	</g>
	<g>
		<path class="st1" d="M98.747,42.875c-0.061,0-0.122-0.023-0.169-0.07l-3.683-3.683c-0.093-0.093-0.093-0.245,0-0.338
			s0.245-0.093,0.338,0l3.683,3.683c0.093,0.093,0.093,0.245,0,0.338C98.87,42.852,98.809,42.875,98.747,42.875z"/>
	</g>
	<g>
		<path class="st1" d="M95.192,81.477c-0.043,0-0.087-0.012-0.127-0.037c-0.112-0.07-0.146-0.217-0.076-0.328l1.27-2.032
			l1.278-1.791l1.132-1.888l1.007-2.016l1.775-3.804l1.26-3.784l0.504-1.767l0.123-0.616c0.026-0.13,0.154-0.212,0.281-0.188
			c0.129,0.026,0.213,0.152,0.187,0.281l-0.127,0.634l-0.512,1.797l-1.273,3.82l-1.788,3.835l-1.018,2.038l-1.152,1.92l-1.28,1.795
			l-1.262,2.019C95.349,81.437,95.271,81.477,95.192,81.477z"/>
	</g>
	<g>
		<path class="st1" d="M65.098,103.443c-0.104,0-0.2-0.069-0.23-0.173c-0.036-0.127,0.037-0.259,0.164-0.295l1.778-0.508
			l1.895-0.632l5.688-2.657l3.787-2.274l2.027-1.267l1.766-1.262l5.316-4.558l1.637-1.638l1.511-1.764l1.663-1.664l1.373-1.876
			l1.535-1.792c0.085-0.101,0.236-0.111,0.337-0.026c0.1,0.086,0.112,0.237,0.026,0.337l-1.524,1.777l-1.386,1.89l-1.674,1.679
			l-1.511,1.765l-1.663,1.664l-5.346,4.583l-1.795,1.283l-2.043,1.278L74.618,99.6l-5.736,2.679l-1.931,0.644l-1.787,0.511
			C65.142,103.441,65.119,103.443,65.098,103.443z"/>
	</g>
	<g>
		<path class="st1" d="M58.623,104.586c-0.107,0-0.205-0.073-0.232-0.181c-0.032-0.128,0.046-0.258,0.174-0.29l1.016-0.254
			l1.801-0.008l1.746-0.498l1.923-0.386c0.13-0.02,0.255,0.058,0.281,0.188s-0.058,0.255-0.188,0.281l-1.904,0.381l-1.759,0.503
			c-0.021,0.007-0.043,0.01-0.066,0.01h-1.778l-0.958,0.246C58.661,104.583,58.642,104.586,58.623,104.586z"/>
	</g>
	<g>
		<path class="st1" d="M67.638,105.729c-0.097,0-0.188-0.059-0.223-0.155c-0.047-0.123,0.016-0.26,0.139-0.307l2.032-0.762
			l4.04-2.022l4.313-2.282l1.875-1.379l2.171-1.404l2.018-1.515l3.796-3.291l5.448-5.449l1.64-1.892
			c0.087-0.1,0.237-0.11,0.337-0.024c0.1,0.086,0.11,0.237,0.024,0.337l-1.651,1.904l-5.471,5.473l-3.822,3.313l-2.044,1.534
			l-2.173,1.405l-1.893,1.389l-4.347,2.304l-4.068,2.035l-2.055,0.771C67.694,105.724,67.666,105.729,67.638,105.729z"/>
	</g>
	<g>
		<path class="st1" d="M67.638,105.729c-0.132,0-0.239-0.107-0.239-0.239v-0.508l-0.122-0.588l-0.119-0.352l-0.196-0.389
			l-0.288-0.095l-0.488-0.242h-0.452l-0.588,0.122c-0.131,0.026-0.255-0.057-0.281-0.188c-0.026-0.129,0.058-0.255,0.187-0.281
			l0.635-0.127l0.555-0.005c0.037,0,0.074,0.009,0.107,0.025l0.508,0.255l0.349,0.114c0.06,0.019,0.11,0.063,0.138,0.12l0.254,0.508
			l0.139,0.412l0.135,0.664l0.005,0.555C67.877,105.622,67.77,105.729,67.638,105.729z"/>
	</g>
	<g>
		<path class="st1" d="M95.065,85.666c-0.061,0-0.122-0.023-0.169-0.07l-0.762-0.762c-0.026-0.026-0.046-0.058-0.057-0.093
			L93.95,84.36c-0.008-0.024-0.013-0.051-0.013-0.076v-0.508l0.259-1.317c0.005-0.027,0.016-0.052,0.03-0.076l0.762-1.269
			c0.069-0.115,0.216-0.148,0.327-0.083c0.113,0.068,0.15,0.215,0.082,0.327l-0.74,1.234l-0.246,1.229l0.004,0.422l0.097,0.291
			l0.722,0.722c0.093,0.093,0.093,0.245,0,0.338C95.187,85.643,95.126,85.666,95.065,85.666z"/>
	</g>
	<g>
		<path class="st1" d="M71.32,109.411c-0.097,0-0.188-0.059-0.223-0.155c-0.047-0.123,0.016-0.26,0.139-0.307l2.032-0.762
			l4.041-2.022l2.154-1.14l4.048-2.531l2.156-1.394l2.018-1.516l3.796-3.29l5.448-5.449l1.64-1.892
			c0.086-0.099,0.237-0.11,0.337-0.024c0.1,0.086,0.11,0.237,0.024,0.337l-1.651,1.904l-5.471,5.473l-3.822,3.312l-2.045,1.535
			l-2.172,1.405l-4.066,2.542l-2.174,1.151l-4.068,2.035l-2.055,0.771C71.376,109.406,71.348,109.411,71.32,109.411z"/>
	</g>
	<g>
		<path class="st1" d="M71.32,109.411c-0.061,0-0.122-0.023-0.169-0.07l-3.682-3.683c-0.093-0.093-0.093-0.245,0-0.338
			c0.093-0.093,0.245-0.093,0.338,0l3.682,3.683c0.093,0.093,0.093,0.245,0,0.338C71.442,109.388,71.381,109.411,71.32,109.411z"/>
	</g>
	<g>
		<path class="st1" d="M98.747,89.349c-0.061,0-0.122-0.023-0.169-0.07l-3.683-3.683c-0.093-0.093-0.093-0.245,0-0.338
			s0.245-0.093,0.338,0l3.683,3.683c0.093,0.093,0.093,0.245,0,0.338C98.87,89.325,98.809,89.349,98.747,89.349z"/>
	</g>
	<g>
		<path class="st1" d="M52.273,98.999c-0.025,0-0.051-0.004-0.076-0.013c-0.125-0.042-0.192-0.177-0.151-0.302l0.254-0.762
			l0.402-0.682l0.545-0.554l0.478-0.725c0.019-0.03,0.046-0.054,0.076-0.073l0.635-0.381l0.462-0.472
			c0.026-0.026,0.058-0.046,0.093-0.057l0.762-0.255l0.587-0.36c0.11-0.066,0.259-0.032,0.327,0.083
			c0.068,0.113,0.032,0.259-0.082,0.327l-0.634,0.381l-0.755,0.257l-0.468,0.469l-0.634,0.388l-0.479,0.718l-0.538,0.544
			l-0.344,0.589L52.5,98.836C52.467,98.936,52.373,98.999,52.273,98.999z"/>
	</g>
	<g>
		<path class="st1" d="M52.273,98.999c-0.061,0-0.122-0.023-0.169-0.07l-3.682-3.683c-0.093-0.093-0.093-0.245,0-0.338
			c0.093-0.093,0.245-0.093,0.338,0l3.682,3.683c0.093,0.093,0.093,0.245,0,0.338C52.396,98.976,52.335,98.999,52.273,98.999z"/>
	</g>
	<g>
		<path class="st1" d="M56.718,94.808h-0.254c-0.132,0-0.239-0.107-0.239-0.239c0-0.132,0.107-0.239,0.239-0.239h0.254
			c0.132,0,0.239,0.107,0.239,0.239C56.957,94.702,56.849,94.808,56.718,94.808z"/>
	</g>
	<g>
		<path class="st1" d="M88.97,75.254c-0.061,0-0.122-0.023-0.169-0.07c-0.093-0.093-0.093-0.245,0-0.338l1.143-1.143l0.681-0.417
			l0.752-0.501l0.533-0.269c0.019-0.01,0.039-0.017,0.06-0.02l1.27-0.255l0.555-0.005c0.132,0,0.239,0.107,0.239,0.239
			s-0.107,0.239-0.239,0.239h-0.508l-1.192,0.244l-0.479,0.239l-0.736,0.493l-0.645,0.388l-1.097,1.107
			C89.092,75.231,89.031,75.254,88.97,75.254z"/>
	</g>
	<g>
		<path class="st1" d="M97.478,76.397c-0.061,0-0.122-0.023-0.169-0.07l-3.683-3.683c-0.093-0.093-0.093-0.245,0-0.338
			s0.245-0.093,0.338,0l3.683,3.683c0.093,0.093,0.093,0.245,0,0.338C97.6,76.373,97.539,76.397,97.478,76.397z"/>
	</g>
	<g>
		<path class="st1" d="M92.652,78.937c-0.061,0-0.122-0.023-0.169-0.07c-0.093-0.093-0.093-0.245,0-0.338l1.65-1.651
			c0.022-0.021,0.047-0.039,0.075-0.051l0.889-0.381l0.496-0.248c0.018-0.01,0.039-0.017,0.059-0.02l1.27-0.255l0.555-0.005
			c0.132,0,0.239,0.107,0.239,0.239c0,0.132-0.107,0.239-0.239,0.239H96.97l-1.192,0.244l-0.48,0.239l-0.858,0.368l-1.619,1.619
			C92.774,78.913,92.714,78.937,92.652,78.937z"/>
	</g>
	<g>
		<path class="st1" d="M91.891,82.492c-0.1,0-0.193-0.063-0.226-0.163l-0.127-0.381l-0.135-0.664c-0.006-0.03-0.006-0.062,0-0.093
			l0.127-0.635c0.004-0.021,0.011-0.041,0.02-0.06l0.254-0.508l0.241-0.731l0.403-0.681c0.068-0.114,0.216-0.147,0.327-0.083
			c0.113,0.068,0.15,0.215,0.082,0.327l-0.381,0.634l-0.232,0.715l-0.253,0.51l-0.111,0.558l0.118,0.588l0.119,0.352
			c0.042,0.125-0.026,0.26-0.151,0.302C91.941,82.488,91.915,82.492,91.891,82.492z"/>
	</g>
	<g>
		<path class="st1" d="M93.795,72.714c-0.043,0-0.087-0.012-0.127-0.037c-0.112-0.07-0.146-0.217-0.076-0.328l2.54-4.062
			l1.005-2.012l1.771-4.302l0.759-2.024l1.008-4.037l0.378-1.894l0.251-2.014l-0.002-5.303l-0.375-1.597
			c-0.03-0.128,0.051-0.257,0.179-0.286c0.131-0.036,0.257,0.051,0.287,0.179l0.381,1.651l0.006,5.386l-0.256,2.062l-0.384,1.922
			l-1.018,4.074l-0.77,2.057l-1.78,4.326l-1.023,2.047l-2.551,4.082C93.952,72.674,93.874,72.714,93.795,72.714z"/>
	</g>
	<g>
		<path class="st1" d="M99.255,46.177c-0.111,0-0.211-0.079-0.234-0.192c-0.026-0.129,0.058-0.255,0.187-0.281l0.595-0.12
			l1.234-0.74c0.113-0.065,0.259-0.031,0.327,0.083c0.068,0.113,0.032,0.259-0.082,0.327l-1.27,0.762
			c-0.023,0.014-0.049,0.023-0.076,0.029l-0.635,0.127C99.286,46.175,99.27,46.177,99.255,46.177z"/>
	</g>
	<g>
		<path class="st1" d="M71.447,109.539h-0.254c-0.132,0-0.239-0.107-0.239-0.239s0.107-0.239,0.239-0.239h0.254
			c0.132,0,0.239,0.107,0.239,0.239S71.579,109.539,71.447,109.539z"/>
	</g>
	<g>
		<path class="st1" d="M72.971,110.3h-0.508c-0.047,0-0.093-0.015-0.133-0.041l-0.762-0.508l-0.417-0.41
			c-0.093-0.093-0.093-0.245,0-0.338s0.245-0.093,0.338,0l0.381,0.381l0.665,0.438h0.337l0.057-0.056
			c0.093-0.095,0.244-0.094,0.338-0.001c0.093,0.093,0.094,0.244,0,0.337l-0.127,0.127C73.095,110.275,73.034,110.3,72.971,110.3z"
			/>
	</g>
	<g>
		<path class="st1" d="M99.89,90.491c-0.063,0-0.124-0.025-0.169-0.07l-1.143-1.143c-0.093-0.093-0.093-0.245,0-0.338
			c0.093-0.093,0.245-0.093,0.338,0l0.908,0.908l0.092-0.183l0.12-0.603l0.395-0.937l0.66-0.934
			c0.077-0.107,0.226-0.132,0.333-0.055c0.107,0.077,0.132,0.225,0.055,0.333l-0.635,0.889l-0.356,0.844l-0.112,0.587
			c-0.004,0.021-0.011,0.041-0.02,0.06l-0.254,0.508c-0.034,0.069-0.1,0.117-0.175,0.129C99.915,90.49,99.903,90.491,99.89,90.491z"
			/>
	</g>
	<g>
		<path class="st1" d="M97.478,76.397c-0.043,0-0.087-0.012-0.127-0.037c-0.112-0.07-0.146-0.217-0.076-0.328l2.539-4.063
			l0.871-2.123l1.023-2.047l0.881-2.143l0.76-2.024l1.008-4.038l0.378-1.893l0.251-2.014l-0.002-5.304l-0.375-1.596
			c-0.03-0.128,0.051-0.257,0.179-0.286c0.134-0.035,0.257,0.05,0.287,0.179l0.381,1.65l0.006,5.387l-0.256,2.061l-0.384,1.922
			l-1.018,4.075l-0.771,2.057l-0.891,2.167l-1.023,2.047l-0.882,2.142l-2.557,4.098C97.635,76.357,97.557,76.397,97.478,76.397z"/>
	</g>
	<g>
		<path class="st1" d="M104.842,48.97c-0.061,0-0.122-0.023-0.169-0.07l-3.682-3.683c-0.093-0.093-0.093-0.245,0-0.338
			c0.093-0.093,0.245-0.093,0.338,0l3.682,3.683c0.093,0.093,0.093,0.245,0,0.338C104.965,48.947,104.903,48.97,104.842,48.97z"/>
	</g>
	<g>
		<path class="st1" d="M103.699,82.619c-0.061,0-0.122-0.023-0.169-0.07l-3.683-3.683c-0.093-0.093-0.093-0.245,0-0.338
			s0.245-0.093,0.338,0l3.683,3.683c0.093,0.093,0.093,0.245,0,0.338C103.822,82.596,103.761,82.619,103.699,82.619z"/>
	</g>
	<g>
		<path class="st1" d="M101.287,87.571c-0.061,0-0.122-0.023-0.169-0.071c-0.093-0.093-0.093-0.244,0-0.337l0.127-0.126l0.869-1.12
			c0.018-0.023,0.04-0.043,0.066-0.058l0.635-0.381l1.514-1.525l-0.094-0.469l-0.36-0.6l-0.345-0.334
			c-0.093-0.093-0.093-0.245,0-0.338c0.093-0.093,0.245-0.093,0.338,0l0.381,0.381l0.416,0.681c0.014,0.023,0.024,0.049,0.03,0.076
			l0.127,0.635c0.016,0.078-0.009,0.159-0.066,0.216l-1.65,1.651l-0.642,0.393l-1.009,1.257
			C101.409,87.547,101.348,87.571,101.287,87.571z"/>
	</g>
	<g>
		<path class="st1" d="M95.192,81.477c-0.046,0-0.092-0.014-0.133-0.04c-0.109-0.074-0.139-0.222-0.066-0.331l0.508-0.763
			l0.538-0.544l0.681-0.417l0.752-0.501l0.534-0.269c0.018-0.01,0.039-0.017,0.059-0.02l1.269-0.255
			c0.031-0.006,0.063-0.006,0.094,0l0.635,0.127c0.129,0.026,0.213,0.152,0.187,0.281c-0.026,0.13-0.153,0.211-0.281,0.188
			l-0.588-0.118l-1.191,0.239l-0.48,0.239l-0.736,0.493l-0.645,0.388l-0.462,0.471L95.39,81.37
			C95.344,81.439,95.269,81.477,95.192,81.477z"/>
	</g>
	<g>
		<path class="st1" d="M100.017,78.937c-0.038,0-0.076-0.009-0.112-0.028c-0.117-0.061-0.161-0.206-0.099-0.323l1.143-2.159
			l1.278-2.046l1.005-2.012l1.77-4.301l0.76-2.024l1.008-4.038l0.378-1.893l0.251-2.014l0.126-1.64l-0.127-1.87l-0.001-1.794
			l-0.375-1.596c-0.03-0.128,0.051-0.257,0.179-0.286c0.131-0.037,0.257,0.051,0.287,0.179l0.381,1.65l0.006,1.832l0.126,1.889
			l-0.127,1.685l-0.255,2.042l-0.384,1.922l-1.018,4.075l-0.771,2.057l-1.781,4.325l-1.023,2.047l-1.281,2.051l-1.135,2.144
			C100.185,78.89,100.102,78.937,100.017,78.937z"/>
	</g>
	<g>
		<path class="st1" d="M105.35,52.271c-0.111,0-0.211-0.079-0.234-0.192c-0.026-0.129,0.058-0.256,0.188-0.281l0.594-0.119
			l1.234-0.74c0.113-0.064,0.259-0.03,0.327,0.083c0.068,0.113,0.032,0.259-0.082,0.327l-1.269,0.762
			c-0.023,0.014-0.05,0.024-0.076,0.029l-0.635,0.126C105.381,52.269,105.365,52.271,105.35,52.271z"/>
	</g>
	<g>
		<path class="st1" d="M103.699,82.619c-0.038,0-0.076-0.009-0.112-0.028c-0.117-0.061-0.161-0.206-0.099-0.323l1.143-2.159
			l1.278-2.046l1.005-2.012l1.77-4.301l0.759-2.024l1.008-4.038l0.378-1.893l0.251-2.014l-0.002-5.304l-0.375-1.597
			c-0.03-0.128,0.051-0.257,0.179-0.286c0.133-0.034,0.257,0.05,0.287,0.179l0.381,1.651l0.006,5.387l-0.256,2.061l-0.384,1.922
			l-1.018,4.075l-0.77,2.057l-1.781,4.325l-1.023,2.047l-1.281,2.051l-1.134,2.144C103.868,82.573,103.785,82.619,103.699,82.619z"
			/>
	</g>
	<g>
		<path class="st1" d="M110.937,55.064c-0.061,0-0.122-0.023-0.169-0.07l-3.683-3.682c-0.093-0.093-0.093-0.245,0-0.338
			s0.245-0.093,0.338,0l3.683,3.682c0.093,0.093,0.093,0.245,0,0.338C111.06,55.041,110.998,55.064,110.937,55.064z"/>
	</g>
	<g>
		<path class="st1" d="M46.56,99.38l-1.669-0.128l-1.793-0.256l-1.53-0.255l-1.56-0.517l-2.816-1.279l-2.461-1.934l-0.276-0.274
			c-0.093-0.093-0.093-0.245,0-0.338c0.093-0.093,0.244-0.093,0.338,0l0.254,0.255l2.393,1.887l2.743,1.239l1.5,0.499l1.488,0.245
			l1.772,0.253l1.636,0.125l1.759-0.001l1.888-0.126l2.018-0.253c0.129-0.012,0.25,0.076,0.267,0.208
			c0.016,0.13-0.077,0.25-0.207,0.266l-2.032,0.254l-1.918,0.128L46.56,99.38z"/>
	</g>
	<g>
		<path class="st1" d="M58.368,105.094c-0.042,0-0.085-0.011-0.123-0.034c-0.113-0.068-0.15-0.215-0.082-0.327l0.381-0.635
			l0.233-0.715c0.012-0.035,0.031-0.067,0.057-0.093l1.65-1.651l1.316-0.798l0.809-0.275c0.126-0.043,0.26,0.026,0.302,0.151
			c0.042,0.125-0.026,0.26-0.151,0.302l-0.762,0.254l-1.222,0.74l-1.564,1.575l-0.237,0.708l-0.402,0.682
			C58.528,105.052,58.45,105.094,58.368,105.094z"/>
	</g>
	<g>
		<path class="st1" d="M58.368,105.094c-0.061,0-0.122-0.023-0.169-0.07l-3.683-3.683c-0.093-0.093-0.093-0.245,0-0.338
			c0.093-0.093,0.245-0.093,0.338,0l3.683,3.683c0.093,0.093,0.093,0.245,0,0.338C58.491,105.071,58.43,105.094,58.368,105.094z"/>
	</g>
	<g>
		<path class="st1" d="M54.686,101.412c-0.042,0-0.085-0.012-0.123-0.034c-0.113-0.068-0.15-0.215-0.082-0.327l0.381-0.634
			l0.232-0.716c0.012-0.035,0.032-0.067,0.058-0.093l1.651-1.65l1.316-0.799l0.809-0.275c0.126-0.043,0.26,0.026,0.302,0.151
			c0.042,0.125-0.026,0.26-0.151,0.302l-0.762,0.254l-1.222,0.741l-1.565,1.574l-0.237,0.709l-0.403,0.681
			C54.846,101.37,54.767,101.412,54.686,101.412z"/>
	</g>
	<g>
		<path class="st1" d="M62.685,101.031c-0.061,0-0.122-0.023-0.169-0.07c-0.093-0.093-0.093-0.245,0-0.338l0.127-0.127
			c0.093-0.093,0.245-0.093,0.338,0s0.093,0.245,0,0.338l-0.127,0.127C62.808,101.008,62.747,101.031,62.685,101.031z"/>
	</g>
	<g>
		<path class="st1" d="M111.572,56.462c-0.132,0-0.239-0.107-0.239-0.239v-0.431l-0.59-0.827c-0.077-0.108-0.052-0.257,0.055-0.333
			c0.108-0.077,0.257-0.052,0.333,0.055l0.635,0.889c0.029,0.041,0.045,0.089,0.045,0.139v0.508
			C111.811,56.355,111.704,56.462,111.572,56.462z"/>
	</g>
	<g>
		<path class="st1" d="M49.099,101.92l-1.812-0.257l-1.635-0.124l-1.687-0.387l-1.545-0.514l-2.816-1.279l-2.334-1.807l-1.673-1.669
			c-0.093-0.093-0.094-0.245,0-0.338c0.093-0.093,0.244-0.093,0.338,0l1.651,1.65l2.263,1.759l2.746,1.241l1.5,0.499l1.628,0.375
			l1.616,0.12l1.793,0.257l1.744-0.003l1.889-0.126l1.874-0.377c0.128-0.021,0.255,0.058,0.281,0.188
			c0.026,0.129-0.058,0.255-0.188,0.281l-1.904,0.381l-1.936,0.131L49.099,101.92z"/>
	</g>
	<g>
		<path class="st1" d="M96.97,38.05c-0.061,0-0.122-0.023-0.169-0.07l-3.683-3.683c-0.093-0.093-0.093-0.245,0-0.338
			c0.093-0.093,0.245-0.093,0.338,0l3.683,3.683c0.093,0.093,0.093,0.245,0,0.338C97.092,38.027,97.031,38.05,96.97,38.05z"/>
	</g>
	<g>
		<path class="st1" d="M95.446,39.574c-0.036,0-0.072-0.009-0.107-0.025c-0.118-0.059-0.166-0.203-0.107-0.321l0.254-0.508
			c0.012-0.023,0.027-0.044,0.045-0.062l0.635-0.634l0.681-0.417c0.113-0.064,0.26-0.03,0.328,0.083
			c0.068,0.113,0.031,0.259-0.082,0.327l-0.635,0.381l-0.561,0.57l-0.237,0.474C95.618,39.525,95.533,39.574,95.446,39.574z"/>
	</g>
	<g>
		<path class="st1" d="M100.271,139.886h-1.524l-1.419-0.128l-1.295-0.257l-2.581-1.028l-1.171-0.648l-1.043-0.779l-0.66-0.657
			c-0.093-0.093-0.093-0.245,0-0.338s0.245-0.093,0.338,0l0.634,0.634l0.99,0.739l1.116,0.618l2.512,1.003l1.228,0.241l1.372,0.123
			l3.025-0.001l1.632-0.126l1.503-0.251l1.636-0.378l1.766-0.505l1.63-0.628l3.547-1.521l5.309-3.035l1.615-1.372l1.669-1.156
			l3.283-2.78l1.509-1.511l1.384-1.636l1.537-1.538l1.245-1.747l1.28-1.538l1.122-1.874l1.151-1.664l0.875-1.628l0.883-1.892
			l0.895-1.663l0.488-1.73l0.642-1.67l0.501-1.758l0.378-1.639l0.248-3.266l-0.001-1.506l-0.126-1.375l-0.25-1.245l-0.377-1.381
			l-0.377-1.13l-0.617-1.103l-1.506-2.004l-0.232-0.227c-0.093-0.093-0.094-0.245,0-0.338s0.244-0.093,0.338,0l0.254,0.254
			l1.546,2.058l0.653,1.17l0.398,1.182l0.385,1.41l0.258,1.286l0.131,1.422l0.001,1.546l-0.255,3.319l-0.387,1.686l-0.511,1.79
			l-0.642,1.671l-0.501,1.758l-0.908,1.698l-0.883,1.892l-0.895,1.663l-1.157,1.673l-1.135,1.891l-1.29,1.555l-1.259,1.764
			l-1.549,1.554l-1.384,1.636l-1.537,1.539l-3.316,2.807l-1.669,1.156l-1.633,1.383l-5.368,3.072l-3.58,1.536l-1.659,0.637
			l-1.798,0.515l-1.662,0.384l-1.539,0.257l-1.672,0.13L100.271,139.886z"/>
	</g>
	<g>
		<path class="st1" d="M52.782,105.602l-1.812-0.257l-1.635-0.125l-1.686-0.387l-1.545-0.513l-2.817-1.279l-2.463-1.936
			l-0.274-0.272c-0.093-0.093-0.093-0.245,0-0.338s0.244-0.093,0.338,0l0.254,0.255l2.39,1.885l2.746,1.241l1.5,0.498l1.629,0.375
			l1.615,0.121l1.793,0.257l1.744-0.003l1.888-0.126l1.874-0.377c0.127-0.023,0.255,0.058,0.281,0.188
			c0.026,0.129-0.058,0.255-0.188,0.281l-1.905,0.381l-1.935,0.131L52.782,105.602z"/>
	</g>
	<g>
		<path class="st1" d="M66.368,112.077c-0.019,0-0.039-0.003-0.058-0.008l-1.016-0.254c-0.029-0.007-0.056-0.019-0.081-0.037
			l-0.889-0.634c-0.107-0.077-0.132-0.225-0.055-0.333c0.076-0.107,0.225-0.132,0.333-0.055l0.852,0.608l0.886,0.222l1.953-0.977
			l0.857-0.616l1.048-0.527l0.902-0.387c0.121-0.05,0.262,0.004,0.314,0.125c0.052,0.121-0.004,0.261-0.125,0.314l-0.889,0.381
			l-1.003,0.501l-0.856,0.616l-2.064,1.035C66.441,112.069,66.405,112.077,66.368,112.077z"/>
	</g>
	<g>
		<path class="st1" d="M64.463,111.189c-0.061,0-0.122-0.023-0.169-0.07l-3.682-3.683c-0.093-0.093-0.093-0.245,0-0.338
			c0.093-0.093,0.245-0.093,0.338,0l3.682,3.683c0.093,0.093,0.093,0.245,0,0.338C64.586,111.166,64.524,111.189,64.463,111.189z"/>
	</g>
	<g>
		<path class="st1" d="M60.781,107.507c-0.042,0-0.085-0.011-0.123-0.034c-0.113-0.068-0.15-0.215-0.082-0.327l1.143-1.904
			l1.178-1.19l1.316-0.798l0.809-0.275c0.124-0.044,0.261,0.026,0.302,0.151c0.042,0.125-0.026,0.26-0.151,0.302l-0.762,0.254
			l-1.222,0.74l-1.097,1.108l-1.107,1.858C60.941,107.465,60.862,107.507,60.781,107.507z"/>
	</g>
	<g>
		<path class="st1" d="M55.194,108.014l-1.669-0.127l-1.794-0.257l-1.671-0.385l-1.545-0.513l-2.817-1.279l-2.333-1.807l-1.673-1.67
			c-0.093-0.093-0.093-0.245,0-0.338c0.093-0.093,0.245-0.093,0.338,0l1.651,1.651l2.263,1.759l2.746,1.241l1.5,0.498l1.629,0.375
			l1.758,0.251l1.635,0.124l1.759-0.001l1.888-0.125l1.874-0.377c0.128-0.022,0.255,0.058,0.281,0.188
			c0.026,0.129-0.058,0.255-0.188,0.281l-1.905,0.381l-1.935,0.13L55.194,108.014z"/>
	</g>
	<g>
		<path class="st1" d="M103.064,44.145c-0.061,0-0.122-0.023-0.169-0.07l-3.682-3.683c-0.093-0.093-0.093-0.245,0-0.338
			c0.093-0.093,0.245-0.093,0.338,0l3.682,3.683c0.093,0.093,0.093,0.245,0,0.338C103.187,44.122,103.126,44.145,103.064,44.145z"/>
	</g>
	<g>
		<path class="st1" d="M101.541,45.669c-0.061,0-0.122-0.023-0.169-0.07c-0.093-0.093-0.093-0.245,0-0.338l0.381-0.381l0.478-0.725
			c0.019-0.03,0.046-0.054,0.076-0.073l0.635-0.381c0.113-0.064,0.26-0.031,0.328,0.083c0.068,0.113,0.031,0.259-0.082,0.327
			l-0.589,0.353l-0.478,0.717l-0.411,0.418C101.663,45.645,101.602,45.669,101.541,45.669z"/>
	</g>
	<g>
		<path class="st1" d="M97.858,41.986c-0.061,0-0.122-0.023-0.169-0.07c-0.093-0.093-0.093-0.245,0-0.338l0.381-0.381l0.479-0.725
			c0.019-0.03,0.046-0.054,0.076-0.073l0.635-0.381c0.113-0.064,0.259-0.031,0.328,0.083c0.068,0.113,0.031,0.259-0.082,0.327
			l-0.589,0.353l-0.479,0.717l-0.411,0.418C97.981,41.963,97.92,41.986,97.858,41.986z"/>
	</g>
	<g>
		<path class="st1" d="M96.97,38.05c-0.079,0-0.156-0.039-0.202-0.111l-0.889-1.397l-0.876-1.124l-0.615-0.612
			c-0.093-0.093-0.093-0.245,0-0.338c0.093-0.093,0.245-0.093,0.338,0l0.634,0.634l0.908,1.165l0.902,1.416
			c0.07,0.112,0.038,0.258-0.073,0.329C97.058,38.037,97.014,38.05,96.97,38.05z"/>
	</g>
	<g>
		<path class="st1" d="M99.382,40.463c-0.081,0-0.16-0.042-0.205-0.117l-0.762-1.27l-0.998-1.243l-1.887-1.885
			c-0.093-0.093-0.093-0.245,0-0.338s0.244-0.093,0.338,0l1.904,1.904l1.034,1.289l0.78,1.297c0.068,0.113,0.032,0.259-0.082,0.327
			C99.467,40.451,99.425,40.463,99.382,40.463z"/>
	</g>
	<g>
		<path class="st1" d="M109.16,50.239c-0.061,0-0.122-0.023-0.169-0.07l-3.683-3.682c-0.093-0.093-0.093-0.245,0-0.338
			c0.093-0.093,0.245-0.093,0.338,0l3.683,3.682c0.093,0.093,0.093,0.245,0,0.338C109.282,50.216,109.221,50.239,109.16,50.239z"/>
	</g>
	<g>
		<path class="st1" d="M109.795,53.922c-0.009,0-0.018-0.001-0.027-0.002c-0.131-0.015-0.225-0.132-0.211-0.263l0.127-1.143
			l-0.001-0.989l-0.23-0.894l-0.462-0.462c-0.093-0.093-0.093-0.245,0-0.338s0.244-0.093,0.338,0l0.508,0.508
			c0.031,0.031,0.052,0.069,0.063,0.111l0.254,1.016l0.007,1.074l-0.128,1.169C110.019,53.831,109.915,53.922,109.795,53.922z"/>
	</g>
	<g>
		<path class="st1" d="M103.954,48.081c-0.061,0-0.122-0.023-0.169-0.07c-0.093-0.093-0.093-0.245,0-0.338l1.524-1.524
			c0.093-0.093,0.244-0.093,0.338,0c0.093,0.093,0.093,0.245,0,0.338l-1.523,1.524C104.076,48.058,104.015,48.081,103.954,48.081z"
			/>
	</g>
	<g>
		<path class="st1" d="M27.894,84.27c-0.061,0-0.122-0.023-0.169-0.07l-1.27-1.27c-0.093-0.093-0.093-0.245,0-0.338
			s0.245-0.093,0.338,0l1.27,1.27c0.093,0.093,0.093,0.245,0,0.338C28.016,84.247,27.955,84.27,27.894,84.27z"/>
	</g>
	<g>
		<path class="st1" d="M103.064,44.145c-0.081,0-0.16-0.042-0.205-0.117l-0.761-1.27l-0.998-1.243l-0.617-0.615
			c-0.093-0.093-0.094-0.245,0-0.338c0.093-0.093,0.244-0.093,0.338,0l0.635,0.634l1.034,1.289l0.78,1.297
			c0.068,0.113,0.032,0.259-0.082,0.327C103.149,44.133,103.107,44.145,103.064,44.145z"/>
	</g>
	<g>
		<path class="st1" d="M105.477,46.558c-0.081,0-0.16-0.042-0.205-0.117l-0.762-1.27l-0.873-1.118l-2.012-2.009
			c-0.093-0.093-0.094-0.245,0-0.338c0.093-0.093,0.244-0.093,0.338,0l2.032,2.032l0.908,1.165l0.778,1.294
			c0.068,0.113,0.031,0.259-0.082,0.327C105.562,46.546,105.519,46.558,105.477,46.558z"/>
	</g>
</g>
</svg>
