<?xml version="1.0" encoding="utf-8"?>
<!-- Generator: Adobe Illustrator 18.1.1, SVG Export Plug-In . SVG Version: 6.00 Build 0)  -->
<svg version="1.1" id="Bulbs" xmlns="http://www.w3.org/2000/svg" xmlns:xlink="http://www.w3.org/1999/xlink" x="0px" y="0px"
	 viewBox="0 0 140 140" style="enable-background:new 0 0 140 140;" xml:space="preserve">
<style type="text/css">
	.st0{opacity:0.2;fill:#939598;}
</style>
<path class="st0" d="M139.993,110.69l-0.479-2.396c-0.005-0.032-0.016-0.059-0.026-0.081l-0.986-1.963l-0.631-0.88l-5.62-5.618
	l0.414-1.825l0.243-1.725l-0.001-1.464l-0.119-1.54l-0.001-1.443c0-0.026-0.004-0.053-0.011-0.077l-0.37-1.354l-0.983-2.446
	l-0.738-1.227l-0.747-0.993l-7.503-7.502l0.256-2.007l0.12-1.823l-0.003-1.725l-0.237-1.663l-0.128-1.606l-0.368-1.59l-0.493-1.471
	l-0.616-1.352l-0.744-1.234l-1.795-2.275l-3.755-3.76l-1.23-0.986l-1.111-0.862l-1.232-0.737l-1.352-0.612l-1.468-0.488
	l-1.587-0.365l-1.703-0.244l-3.43-0.238l-1.677,0.24l-1.945,0.245l-1.816,0.363l-1.935,0.483l-2.067,0.61l-1.384,0.531L35.698,0.554
	c-0.023-0.022-0.05-0.042-0.076-0.053l-0.48-0.241c-0.069-0.034-0.152-0.041-0.226-0.016l-0.325,0.11l-0.601,0.12
	c-0.027,0.006-0.052,0.015-0.073,0.025l-0.484,0.242c-0.029,0.016-0.054,0.033-0.074,0.054l-0.326,0.326l-0.438,0.219
	c-0.049,0.025-0.089,0.062-0.117,0.109l-0.531,0.106c-0.027,0.006-0.052,0.015-0.073,0.026l-0.483,0.241
	c-0.029,0.016-0.054,0.033-0.074,0.054L18.606,14.585l-0.469,0.237l-1.488,0.999l-0.637,0.645l-0.97,1.454l-0.378,0.638
	l-0.362,0.842c-0.01,0.025-0.016,0.049-0.019,0.072l-0.124,0.884l0.006,0.778l0.24,1.201c0.011,0.057,0.038,0.11,0.08,0.151
	l0.447,0.448l0.165,0.33l-0.094,0.294l-0.124,0.884l0.006,0.778l0.13,0.635l0.241,0.723c0.015,0.044,0.04,0.084,0.071,0.115
	l3.296,3.297c-0.022,0.061-0.024,0.129-0.002,0.194l0.249,0.744l0.387,0.888l0.517,0.766l42.281,42.282l-0.146,0.291l-0.741,2.453
	l-0.012,0.563c0,0.078,0.032,0.154,0.086,0.209l0.034,0.033v0.36c0,0.078,0.032,0.154,0.086,0.209l0.034,0.033v0.118
	c0,0.079,0.032,0.154,0.086,0.208l0.065,0.066l-0.474,0.666l-1.195,2.151l-1.213,1.94l-1.091,2.062l-0.965,2.172l-0.845,2.051
	l-0.728,1.944l-0.603,2.055l-0.488,1.958l-0.482,3.863l-0.121,1.812l0.001,0.04l0.006,0.01l-0.004,0.022l0.011,0.032
	c0.009,0.027,0.024,0.046,0.036,0.058l2.609,2.631l-0.291,0.496l-1.025,1.038l-0.6,0.36l-0.05,0.041l-0.017,0.031
	c-0.016,0.017-0.039,0.042-0.052,0.08c-0.017,0.046-0.015,0.086-0.013,0.101l-0.009,0.061l0.242,0.718l0.129,0.637l0.257,0.76
	l0.224,0.442l0.257,0.759l0.251,0.501l0.723,1.205c0.004,0.007,0.009,0.014,0.014,0.018l3.754,3.76
	c0.077,0.078,0.194,0.105,0.296,0.074c0,0.004,0,0.007,0,0.008c-0.007,0.026-0.017,0.061-0.012,0.109
	c0.006,0.045,0.024,0.077,0.033,0.088l0.02,0.058l3.758,3.758l1.297,0.779l1.575,0.606l1.47,0.489l3.191,0.729h1.703l3.622-0.243
	l1.565-0.196l7.085,7.085l0.512,0.507l0.987,0.738l1.245,0.742l2.435,0.972l1.324,0.361c0.026,0.007,0.051,0.01,0.075,0.01
	l1.421-0.001l1.586,0.12l1.484-0.002l1.707-0.246l1.555-0.358l0.246-0.05l5.259,5.259l0.156,0.15l1.681,1.201
	c0.027,0.02,0.054,0.034,0.081,0.041l2.198,0.732l1.232,0.244l1.339,0.121l0.012,0.001l1.229-0.002l1.343-0.123l1.487-0.252
	l0.702-0.233l1.527-0.357l1.416-0.388l1.404-0.704l1.507-0.512l1.304-0.831l1.61-0.873l1.298-1.065l1.466-0.978l1.344-1.102
	l2.424-2.424l2.285-2.768l0.977-1.223l0.98-1.474l2.183-4.381l0.357-1.307l0.24-0.72l0.011-0.036l-0.001-0.003l0.353-1.542
	l0.13-0.389l0.242-1.463L140,111.95L139.993,110.69z M65.244,110.027l-5.233,5.233l-3.309-3.309l5.233-5.233L65.244,110.027z
	 M66.229,110.596c0.056-0.055,0.087-0.129,0.087-0.208c0-0.08-0.031-0.154-0.086-0.208l-4.087-4.089
	c-0.111-0.111-0.305-0.112-0.416,0.001l-5.383,5.383l-0.516-0.859l-0.224-0.442l-0.257-0.761l-0.224-0.442l-0.231-0.685
	l-0.129-0.635l-0.167-0.5l0.456-0.281l1.126-1.139l0.374-0.624c0.018-0.008,0.041-0.019,0.062-0.041
	c0.051-0.051,0.079-0.12,0.08-0.197l0.202-0.336c0.018-0.029,0.031-0.061,0.039-0.097l0.246-1.26v-0.48
	c0-0.049-0.011-0.093-0.031-0.132l-0.24-0.481c-0.015-0.03-0.033-0.055-0.055-0.078l-0.24-0.239c-0.02-0.02-0.044-0.039-0.077-0.056
	l-0.519-0.256l-0.36-0.12c-0.029-0.01-0.059-0.015-0.093-0.015h-0.721c-0.046,0-0.091,0.011-0.132,0.031l-0.442,0.224l-0.306,0.101
	l0.089-1.349l0.474-3.812l0.478-1.911l0.594-2.023l0.718-1.914l0.838-2.037l0.953-2.145l1.071-2.025l1.21-1.936l1.184-2.136
	l0.367-0.514l0.451,0.601l0.105,0.315c0.015,0.045,0.04,0.086,0.071,0.117l0.36,0.36c0.054,0.054,0.13,0.086,0.208,0.086h0.119
	l0.274,0.274c0.055,0.056,0.129,0.086,0.208,0.086h0.119l0.034,0.034l2.039,0.552l0.294,0.099l0.311,0.311
	c0.032,0.032,0.07,0.055,0.115,0.071l0.294,0.098l0.382,0.383l0.006,0.017l-0.857,1.502l-0.834,1.788l-0.865,1.622l-0.473,1.658
	l-0.609,1.588l-0.492,1.74l-0.117,1.537l-0.243,1.468l-0.12,1.613l0.123,1.343l0.242,1.453l0.256,1.253l0.497,1.235l1.203,2.167
	c0.01,0.017,0.027,0.043,0.048,0.063l1.714,1.71l1.007,0.749l0.983,0.491l1.234,0.491l1.342,0.366l1.237,0.245l1.586,0.12
	l1.49-0.004l1.3-0.217c0.07,0.082,0.187,0.116,0.291,0.09c0.051-0.015,0.098-0.041,0.13-0.075c0.019-0.018,0.035-0.04,0.049-0.064
	l1.268-0.102l1.667-0.477l3.296-1.098l1.706-0.734l0.391-0.211l0.032-0.005c0.05-0.016,0.092-0.041,0.117-0.066l1.031-0.563
	l0.593-0.339l0.01,0.003c0.109,0.036,0.223,0.004,0.301-0.072c0.031-0.032,0.055-0.071,0.071-0.116l0.013-0.041l1.922-1.099
	c0.098,0.026,0.205,0.005,0.279-0.068c0.037-0.038,0.062-0.084,0.075-0.134l1.69-1.156l1.702-1.216l3.144-2.66l2.9-2.903
	l2.661-3.148l1.093-1.579l0.856-1.428c0.069-0.002,0.131-0.029,0.182-0.078c0.086-0.087,0.106-0.214,0.061-0.321l1.079-1.566
	l0.189-0.404c0.036-0.039,0.059-0.09,0.069-0.15l0.576-1.234l0.27-0.502c0.012-0.007,0.025-0.017,0.038-0.029
	c0.037-0.037,0.063-0.083,0.076-0.13c0.007-0.024,0.007-0.046,0.005-0.062l0.463-0.862l0.734-1.718l0.966-3.38l0.363-1.581
	l0.129-0.776c0.011-0.008,0.021-0.017,0.032-0.027c0.036-0.038,0.061-0.083,0.074-0.13c0.02-0.077,0.005-0.156-0.042-0.225
	l0.051-0.308l0.121-1.586l-0.002-1.47l-0.129-1.372l-0.356-1.303l-0.24-1.198c-0.005-0.03-0.016-0.058-0.032-0.088l-1.224-2.198
	l-0.563-0.75c-0.009-0.036-0.024-0.083-0.065-0.123l-1.802-1.802c-0.022-0.022-0.046-0.04-0.066-0.05l-1.115-0.617l-1.218-0.486
	l-1.097-0.366l-1.372-0.369l-1.351-0.122l-1.32,0.001l-6.564-6.565l1.116-0.43l2.033-0.599l1.909-0.477l1.782-0.358l1.929-0.241
	l1.621-0.238l3.343,0.238l1.659,0.236l1.536,0.353l1.414,0.47l1.292,0.585l1.173,0.702l2.232,1.752l1.662,2.133l0.711,1.182
	l0.705,1.405l0.469,1.397l0.239,1.436l0.478,3.323l0.001,1.664l-0.116,1.764l-0.363,1.825l-0.234,1.888l-0.471,1.892l-1.439,3.837
	l-1.67,4.061l-1.072,2.026l-2.401,3.842l-1.311,2.028l-1.43,1.906l-2.996,3.458l-0.21-0.068l-0.66-0.126l-0.537,0.005l-0.6,0.12
	c-0.036,0.008-0.069,0.02-0.094,0.037l-1.86,1.127l-0.645,0.657l-1.079,1.799c-0.017,0.026-0.03,0.055-0.041,0.098l-0.125,0.659
	l0.007,0.538l0.129,0.635l0.058,0.176l-1.762,1.54l-4.071,3.115l-2.16,1.441l-2.026,1.312l-2.147,1.193l-2.278,1.079l-2.156,0.959
	l-1.535,0.633l0.012-0.061c0.009-0.04,0.009-0.08,0.001-0.118l-0.129-0.636l-0.121-0.362c-0.015-0.044-0.039-0.082-0.069-0.112
	l-0.362-0.362c-0.03-0.03-0.068-0.054-0.115-0.071l-0.396-0.129l-0.66-0.125l-0.536,0.005l-0.601,0.12
	c-0.036,0.008-0.069,0.02-0.094,0.037l-1.258,0.766l-1.6,1.607l-0.477,0.718c-0.02,0.029-0.036,0.065-0.047,0.109l-0.078,0.393
	l-1.696,0.213l-3.567,0.24l-1.756-0.114l-3.099-0.712l-2.827-0.936l-0.878-0.527L66.229,110.596z M54.493,102.117l0.42-0.21
	l0.605-0.001l0.275,0.089l0.438,0.22l0.173,0.173l0.189,0.377l0.005,0.353l-0.23,1.151l-0.05,0.084l-2.132-2.133L54.493,102.117z
	 M62.108,77.128l0.461-1.75l3.845,3.846l-0.481,1.83l-1.382-0.395l-0.295-0.097l-0.07-0.071c-0.054-0.055-0.13-0.086-0.209-0.086
	h-0.118l-0.722-0.717l-0.709-1.182c-0.005-0.009-0.011-0.017-0.017-0.023l-0.302-0.31l0-0.119c0-0.077-0.031-0.153-0.086-0.209
	l-0.034-0.033v-0.237l0.034-0.033c0.055-0.055,0.086-0.131,0.086-0.209L62.108,77.128z M15.016,20.089l0.136,0.398l0.24,0.481
	c0.035,0.07,0.095,0.122,0.171,0.149l0.322,0.103l0.478,0.239c0.041,0.022,0.086,0.033,0.135,0.033l0.538-0.005l1.202-0.241
	c0.032-0.007,0.063-0.018,0.095-0.037l0.657-0.405l0.557-0.565l0.584-0.35c0.021-0.013,0.041-0.027,0.06-0.046
	c0.012-0.013,0.024-0.028,0.037-0.046l0.488-0.733l0.723-1.206c0.016-0.029,0.027-0.059,0.034-0.09l0.24-1.202
	c0.01-0.049,0.007-0.099-0.01-0.152l-0.136-0.399l-0.224-0.441l-0.12-0.36c-0.025-0.076-0.08-0.138-0.148-0.17l-0.436-0.219
	l0.263-0.263l0.188,0.062c0.03,0.011,0.062,0.016,0.093,0.016l0.652-0.001l0.399,0.199l0.62,0.37l0.437,0.22l0.053,0.053
	l0.202,0.403l0.221,1.105l-0.111,0.56l-0.112,0.783l-0.349,0.586l-0.329,0.785l-0.57,0.805l-1.277,1.285l-1.395,0.936l-0.819,0.353
	l-1.368,0.456l-1.088-0.218l-0.483-0.238L15.624,23l-0.185-0.368c-0.014-0.03-0.034-0.057-0.056-0.079l-0.418-0.419l-0.217-1.057
	l-0.003-0.679l0.115-0.803l0.145-0.342l-0.004,0.742C15.001,20.027,15.006,20.057,15.016,20.089z M33.899,2.446
	c-0.004,0.009-0.008,0.017-0.011,0.026l-0.053,0.159h-0.028c-0.042,0-0.084,0.009-0.121,0.025c-0.067-0.029-0.149-0.033-0.22-0.008
	l-0.052-0.052c-0.055-0.054-0.131-0.086-0.208-0.086h-0.488c-0.025,0.002-0.057,0.005-0.086,0.017l-0.719,0.239
	c-0.003,0.001-0.007,0.002-0.01,0.003l-0.324-0.325l0.119-0.119l0.403-0.202l0.516-0.106h0.879l0.376,0.188l0.018,0.018
	c-0.012,0.031-0.018,0.065-0.018,0.1C33.873,2.368,33.882,2.409,33.899,2.446z M104.366,89.833L104.366,89.833L104.366,89.833
	L104.366,89.833z M69.556,83.447l0.225-0.857l0.193,0.192L69.556,83.447z M20.395,15.362l0.31,0.154l0.097,0.285l0.224,0.442
	l0.096,0.285l-0.215,1.077l-0.688,1.146l-0.445,0.668l-0.601,0.369l-0.544,0.556l-0.557,0.335l-1.094,0.224h-0.412l-0.456-0.224
	l-0.246-0.083l-0.169-0.332l-0.105-0.317l-0.005-0.615l0.112-0.563l0.212-0.426l0.354-0.589l0.444-0.677l0.436-0.444l0.025-0.017
	l-0.002,0.975c0,0.045,0.011,0.09,0.032,0.131l0.483,0.967l0.051,0.069c0.031,0.033,0.065,0.043,0.063,0.037
	c0.019,0.011,0.046,0.027,0.084,0.036l0.03,0.016h0.518c0.077,0,0.15-0.03,0.205-0.086l0.36-0.36
	c0.056-0.056,0.087-0.131,0.086-0.209v-0.119l0.034-0.033c0.089-0.088,0.109-0.221,0.061-0.329c0.017-0.037,0.026-0.078,0.026-0.12
	c0-0.079-0.031-0.153-0.086-0.208c-0.08-0.08-0.207-0.107-0.308-0.068l-0.043-0.044l0.063-0.188c0.01-0.03,0.015-0.061,0.015-0.093
	v-0.171l0.188-0.375l1.081-1.082H20.395z M103.742,67.252l1.045,0.58l2.347,2.347l0.559,0.996l0.366,1.098l0.438,1.082l-6.77-6.77
	L103.742,67.252z M107.63,69.859c-0.014-0.025-0.03-0.048-0.051-0.068l-2.404-2.404c-0.02-0.02-0.043-0.037-0.066-0.05l-1.131-0.622
	l-2.185-0.729l-0.884-0.221l-1.182-1.182l2.066,0.177l1.382,0.223l1.16,0.46l1.211,0.727l1.027,0.57l0.662,0.877l1.179,2.124
	l0.237,1.176l0.352,1.273l0.106,1.164l-0.02-0.1l-0.475-1.185l-0.383-1.131L107.63,69.859z M74.475,83.846l-0.774,0.211l-0.12-0.595
	l0.836-0.139L74.475,83.846z M75.517,83.156c0.078,0,0.154-0.031,0.209-0.086l0.034-0.035h0.118c0.049,0,0.095-0.012,0.137-0.034
	l0.106,0.527l-0.362,0.001c-0.079,0-0.153,0.03-0.209,0.086l-0.033,0.034h-0.125c-0.023,0.001-0.054,0.004-0.087,0.016l-0.246,0.082
	l-0.065-0.59H75.517z M108.767,77.866l-0.357,1.548l-0.949,3.332l-0.709,1.659l-0.033,0.061l-20.623-5.538l2.009-7.365l20.779,5.602
	L108.767,77.866z M89.395,103.887l-0.976,0.558l0.555-0.978L89.395,103.887z M68.612,87.408l0.283-1.227l0.44-0.147L68.612,87.408z
	 M79.167,84.226l0.278,0.532l0.239,0.714l5.701,20.665l-0.153,0.083l-5.583-20.785l-0.143-0.422l-0.224-0.441L79.167,84.226z
	 M77.328,82.795h0.592l0.95,0.939l0.214,0.354l-0.471-0.47c-0.031-0.032-0.069-0.057-0.118-0.074l-0.722-0.24
	c-0.03-0.011-0.06-0.016-0.092-0.016H77.44c-0.013,0-0.024,0.002-0.035,0.005l-0.699,0.169l-0.117-0.584L77.328,82.795z
	 M70.806,86.96l0.224,0.441l0.116,0.35l5.636,20.9l-0.638,0.002l-1.29-0.117l-1.151-0.225l-1.218-0.487l-1.032-0.339l-1.045-0.58
	l-2.347-2.347l-0.559-0.996l-0.717-2.147l-0.351-1.272l-0.119-1.295l-0.003-1.394l0.477-2.866l0.359-1.557l0.579-2.122l0.369-0.961
	l0.709-1.658l0.846-1.571l0.302-0.603c0.019,0.013,0.041,0.022,0.063,0.031l0.295,0.097l0.383,0.383L70.806,86.96z M68.019,86.138
	C68.019,86.138,68.019,86.137,68.019,86.138L68.019,86.138L68.019,86.138z M67.996,86.261c0.008,0.002,0.018,0.005,0.031,0.008
	l-2.488,10.404l-0.863,0.172l-0.01-0.01l2.974-11.473l0.137,0.683c0.009,0.043,0.025,0.063,0.034,0.064
	c0.004,0.017,0.014,0.054,0.041,0.08l0.037,0.035l0.022,0.005C67.935,86.243,67.962,86.251,67.996,86.261z M64.055,96.845
	l-0.011,0.051l0.007,0.02c0,0.033,0.008,0.06,0.014,0.083c0.006,0.022,0.014,0.052,0.032,0.081l0.177,0.197l-0.109,1.473l0.12,1.567
	l0.123,1.343l0.257,1.504l0.277,0.688l-0.572-1.028l-0.465-1.149l-0.239-1.193l-0.238-1.421l-0.12-1.273l0.118-1.537l0.243-1.467
	l0.109-1.505l0.474-1.658l0.609-1.588l0.456-1.624l0.85-1.579l0.83-1.781l0.21-0.367L64.055,96.845z M64.992,101.586l-0.24-2.835
	l0.103-1.342l0.901-0.182l-0.029,0.178l0.001,1.47l0.129,1.373l0.365,1.338l0.744,2.213l0.602,1.082
	c0.013,0.023,0.029,0.044,0.048,0.065l2.402,2.402c0.02,0.02,0.043,0.038,0.068,0.051l1.131,0.622l1.066,0.356l1.151,0.455
	l-0.745-0.056l-1.182-0.236l-1.29-0.349l-1.181-0.471l-0.916-0.454l-0.93-0.694l-0.212-0.211l-0.585-1.053l-0.701-1.161
	l-0.463-1.141L64.992,101.586z M68.906,85.237c-0.106-0.051-0.244-0.025-0.329,0.061l-0.023,0.022L68.5,84.839h0.045
	c0.078,0,0.153-0.031,0.208-0.086l0.034-0.034h0.022l0.103,0.516C68.91,85.235,68.908,85.236,68.906,85.237z M79.156,85.867
	l5.533,20.597l-1.211,0.52l-3.237,1.079l-1.622,0.469l-1.232,0.095l-5.597-20.75L79.156,85.867z M99.326,84.632c0,0-0.001,0-0.001,0
	l0.001-0.01V84.632z M84.346,95.953l1.902,1.901l0.418,0.404l0.658,0.387l0.728,0.243c0.025,0.008,0.053,0.012,0.087,0.014
	l1.514-0.009l0.952-0.239l0.851-0.362l0.964-0.241c0.036-0.01,0.067-0.024,0.096-0.046l1.69-1.206l0.993-0.748l1.593-1.6
	l0.626-0.881l0.456-0.922l0.604-0.844c0.02-0.032,0.035-0.065,0.043-0.096l0.226-0.917l0.36-0.842
	c0.01-0.024,0.017-0.049,0.02-0.073l0.12-0.844c0.003-0.026,0.003-0.051,0-0.081l-0.123-0.858l-0.129-0.636l-0.24-0.718
	c-0.014-0.044-0.038-0.085-0.072-0.119l-2.504-2.503l0.451-0.001l0.791,0.108l0.663,0.214l1.139,0.682l0.653,1.089l0.226,1.582
	l-0.119,0.841l0.001,0.914l-0.328,0.998l-0.957,1.912l-0.58,1.047l-0.694,0.931l-2.496,2.499l-1.073,0.835l-0.812,0.583
	l-1.033,0.579l-1.059,0.355l-1.894,0.474l-0.8,0.118h-0.914l-1.331-0.444l-0.869-0.857l-0.334-0.541l-0.464-1.397V95.953z
	 M91.579,82.79l-0.225,0.918l-0.353,0.825l-0.941,1.88l-0.716,0.719l-0.694,0.931l-0.689,0.694l-0.956,0.717l-0.802,0.577
	l-0.945,0.473l-1.652,0.709l-0.877,0.228l-0.784,0.001l-0.124-0.455l1.264-0.424l0.857-0.368l1.008-0.508l1.954-1.47l1.59-1.593
	l1.472-1.969l0.487-0.977l0.369-0.864l0.415-1.242l0.456,0.125l0.001,0.26L91.579,82.79z M82.801,92.042l0.965-0.241l1.74-0.743
	l0.999-0.504l0.848-0.605l0.994-0.748l0.747-0.753l0.695-0.93l0.717-0.718c0.025-0.023,0.046-0.051,0.059-0.08l0.969-1.939
	l0.375-0.885l0.247-0.992l0.122-0.882v-0.14l1.229,0.338c0.012,0.05,0.036,0.094,0.071,0.13l4.64,4.639l0.21,0.62l0.117,0.585
	l0.115,0.8l-0.109,0.761l-0.36,0.85l-0.226,0.908l-0.594,0.835l-0.456,0.923l-0.571,0.804l-1.53,1.536l-0.955,0.717l-1.638,1.169
	l-0.951,0.242l-0.81,0.348l-0.893,0.229h-1.38l-0.618-0.199l-0.554-0.327l-4.437-4.437c-0.036-0.035-0.08-0.059-0.129-0.072
	l-0.339-1.23L82.801,92.042z M82.374,93.403C82.374,93.403,82.373,93.403,82.374,93.403v-0.008V93.403z M83.757,95.365l-0.001,1.319
	c0,0.032,0.005,0.063,0.016,0.094l0.508,1.501l0.404,0.656l0.051,0.052c-0.012,0.031-0.017,0.065-0.017,0.1
	c0,0.079,0.03,0.153,0.086,0.209l3.719,3.719l-0.04,0.134l-0.986,1.735l-0.036,0.106l-0.786,0.449l-0.761,0.41l-3.173-11.501
	L83.757,95.365z M87.204,100.449c0.03,0.011,0.062,0.016,0.093,0.016l1.004-0.002l0.871-0.127l1.945-0.487l1.131-0.383l1.11-0.619
	l0.852-0.608l1.11-0.865l2.552-2.556l0.742-0.996l0.607-1.092l0.977-1.963l0.362-1.087c0.008-0.026,0.012-0.053,0.014-0.087
	l-0.003-0.919l0.12-0.844c0.004-0.03,0.003-0.059-0.001-0.081l-0.195-1.368l3.29,3.289l-0.863,1.439l-1.065,1.539l-2.628,3.108
	l-2.866,2.868l-3.105,2.63l-1.68,1.199l-1.541,1.069l-0.111,0.063l-3.341-3.341L87.204,100.449z M103.514,88.127l-0.292,0.146
	l-3.696-3.696c-0.052-0.052-0.12-0.08-0.198-0.08l-0.999-0.594l-0.772-0.252l-0.883-0.123h-1.079l-1.014-1.014l11.485,3.169
	l-0.161,0.299l-0.565,1.215l-0.27,0.092L103.514,88.127z M83.571,74.191l0.214-0.924l0.511,0.17l-0.222,0.81L83.571,74.191z
	 M83.23,75.786c0.022-0.043,0.034-0.089,0.034-0.137v-0.118l0.035-0.035c0.055-0.055,0.086-0.129,0.086-0.208v-0.526l0.591,0.065
	l-0.085,0.254c-0.008,0.025-0.012,0.053-0.014,0.086v0.12l-0.032,0.032c-0.055,0.054-0.087,0.13-0.087,0.209v0.362L83.23,75.786z
	 M83.954,69.84l-0.177,0.67l-0.34-0.34L83.954,69.84z M83.985,72.091l0.085-0.25l0.071-0.071c0.055-0.055,0.086-0.129,0.086-0.208
	V71.49l0.427,0.142c-0.034,0.049-0.053,0.107-0.054,0.17l0.001,0.6l-0.156,0.155c-0.053,0.055-0.085,0.131-0.085,0.207v0.072
	l-0.428-0.142c0.036-0.05,0.055-0.109,0.055-0.17L83.985,72.091z M86.33,69.072l0.102-0.411l1.201-0.277l-0.948,0.511L86.33,69.072z
	 M85.466,68.677c-0.001,0.002-0.002,0.004-0.003,0.007l-0.516-0.104l0.033-0.054c0.055-0.054,0.087-0.13,0.087-0.21v-0.118
	l0.037-0.037l0.487,0.122l-0.065,0.064C85.437,68.437,85.417,68.569,85.466,68.677z M84.718,67.714l-0.154,0.154
	c-0.055,0.055-0.087,0.133-0.086,0.209v0.117l-0.036,0.036c-0.041,0.043-0.069,0.096-0.08,0.154h-0.55l-0.274-0.274
	c-0.024-0.024-0.051-0.044-0.078-0.055l-0.439-0.221l-0.29-0.282l-0.341-0.568l-0.224-0.442l-0.238-0.716l-0.417-1.459l0.092-0.055
	l0.469,1.41l0.001,0.433c0,0.078,0.031,0.154,0.086,0.209l0.312,0.311l0.098,0.295c0.016,0.046,0.041,0.086,0.071,0.114l0.48,0.482
	c0.018,0.017,0.04,0.034,0.068,0.049l0.014,0.02c0.074,0.118,0.22,0.174,0.364,0.112l0.031,0.01
	c0.032,0.012,0.063,0.015,0.093,0.016h0.48c0.015,0,0.027-0.002,0.039-0.006l0.508-0.127V67.714z M80.992,63.148
	c0,0.003,0,0.007,0,0.01l-0.41-0.41l0.006-0.003l0.18,0.06l0.224,0.224V63.148z M77.357,61.88h0.203c0.077,0,0.151-0.03,0.209-0.086
	l0.034-0.035h0.235l0.036,0.036c0.055,0.053,0.131,0.085,0.207,0.085H78.4l0.154,0.154c0.055,0.055,0.131,0.086,0.209,0.086h0.14
	l0.981,0.762l0.748,0.749v0.118c0,0.077,0.03,0.151,0.086,0.209l0.072,0.071l0.493,1.676l-1.829,0.482l-3.846-3.846L77.357,61.88z
	 M81.457,66.268l0.169,0.497l0.251,0.501l0.404,0.658l0.36,0.36c0.019,0.018,0.044,0.037,0.077,0.055l0.437,0.218l0.116,0.116
	l-1.053,0.278l-2.283-2.283L81.457,66.268z M84.291,70.891c0.03-0.044,0.053-0.107,0.045-0.191l0.375-1.422l0.032-0.032
	c0.026-0.027,0.047-0.058,0.059-0.093l0.558,0.111l-0.541,1.804L84.291,70.891z M83.526,77.137c-0.003,0.01-0.005,0.019-0.005,0.028
	l-0.005,0.288c0,0.032,0.005,0.062,0.016,0.093l0.24,0.718c0.014,0.044,0.038,0.085,0.072,0.119l0.477,0.477l-0.313-0.185
	l-0.984-0.983l-0.001-0.579l0.084-0.751l0.584,0.117L83.526,77.137z M85.532,78.76l-0.546-0.266l-0.294-0.097l-0.382-0.383
	l-0.204-0.609v-0.155l1.868-6.843c0.01,0.016,0.021,0.029,0.035,0.043l0.481,0.481c0.033,0.033,0.074,0.058,0.115,0.071l0.322,0.104
	l0.52,0.256l0.096,0.032L85.532,78.76z M86.498,67.795c-0.004-0.017-0.01-0.035-0.016-0.053c-0.005-0.017-0.013-0.044-0.028-0.068
	c-0.008-0.021-0.019-0.038-0.03-0.046l-0.118-0.075L85.59,67.41l7.267-1.892l0.592,0.592L86.498,67.795z M84.679,67.038l0.21-0.134
	l1.706-0.732l1.517-0.822l1.816-0.606l1.512-0.581h0.063l0.873,0.873L84.679,67.038z M83.66,69.331l-0.649,0.413l-0.192-0.191
	L83.66,69.331z M85.024,79.231l-0.463-0.229l-0.107-0.063l0.306,0.099l0.52,0.256l0.285,0.094l20.866,5.611l-0.082,0.151
	l-20.648-5.695L85.7,79.454L85.024,79.231z M86.855,70.463l-0.382-0.382l-0.1-0.298c-0.007-0.021-0.017-0.042-0.028-0.06l0.61-0.305
	l1.539-0.831l1.673-0.717l0.946-0.366l2.129-0.58l0.816-0.203l7.993,7.993L87.986,70.92l-0.318-0.103l-0.519-0.257L86.855,70.463z
	 M89.728,64.191l-1.849,0.62l-1.54,0.831l-1.725,0.743l-1.121,0.713l-0.004-0.001l-0.383-0.383l-0.097-0.291
	c-0.014-0.044-0.038-0.085-0.072-0.119l-0.274-0.273v-0.36l-0.004-0.048l-0.004-0.005l0.001-0.017l-0.608-1.822
	c-0.003-0.012-0.008-0.022-0.014-0.032l-0.019-0.037c-0.003-0.005-0.007-0.01-0.011-0.015l-0.062-0.071v-0.119
	c0-0.077-0.032-0.154-0.087-0.209l-0.273-0.273v-0.119c0-0.079-0.032-0.155-0.086-0.209l-0.361-0.36
	c-0.032-0.032-0.07-0.056-0.115-0.071l-0.317-0.106l-0.589-0.442l2.273-1.437l3.414-1.82l5.227,5.227L89.728,64.191z M78.626,84.463
	l0.114,0.333l0.224,0.441l0.022,0.066l-7.367,2.009l-0.047-0.136l-0.224-0.442l-0.12-0.358c-0.014-0.044-0.038-0.085-0.071-0.119
	l-0.482-0.481c-0.031-0.031-0.069-0.054-0.114-0.07l-0.036-0.013l6.948-1.818h0.158l0.61,0.203L78.626,84.463z M68.063,82.795
	l0.219,0.437c0.014,0.028,0.034,0.055,0.055,0.078l0.274,0.274v0.55c-0.058,0.011-0.112,0.039-0.154,0.081l-0.034,0.034h-0.121
	c-0.079,0.002-0.152,0.033-0.206,0.086l-0.071,0.071l-0.151,0.051l0.114-0.441l0.004-0.029l0.005-0.525
	c0-0.029-0.005-0.058-0.015-0.093l-0.01-0.029c0.059-0.136,0.007-0.298-0.121-0.371l-0.009-0.005
	c-0.014-0.026-0.032-0.05-0.052-0.071l-0.481-0.481c-0.032-0.031-0.07-0.054-0.115-0.07l-0.294-0.098l-0.311-0.312
	c-0.034-0.033-0.074-0.058-0.115-0.07l-0.347-0.117l-1.574-0.395l0.04-0.067l1.455,0.417l0.683,0.223l0.461,0.23l0.554,0.327
	L68.063,82.795z M104.864,88.062l-0.759,1.095l-0.453-0.453L104.864,88.062z M85.365,58.026l-3.272,1.747l-1.931,1.207l-0.52,0.347
	l-0.072-0.072c-0.055-0.053-0.131-0.085-0.207-0.085h-0.119l-0.033-0.033c-0.056-0.056-0.13-0.086-0.209-0.086l-0.36-0.001
	l-0.033-0.033c-0.055-0.055-0.13-0.086-0.209-0.086h-0.481l-2.157,0.634c-0.11-0.055-0.249-0.033-0.334,0.053l-0.087,0.086
	l-0.248,0.123L33.293,20.027l-0.284-0.277l-1.441-0.96c-0.022-0.016-0.046-0.027-0.072-0.036l-0.721-0.24
	c-0.03-0.011-0.061-0.016-0.093-0.016h-0.36L27.524,15.7l-0.417-0.404l-0.602-0.361c-0.028-0.017-0.059-0.028-0.093-0.036
	l-0.617-0.122l-0.883-0.123h-0.721c-0.032,0-0.063,0.005-0.093,0.016l-0.606,0.202l-0.352-0.176l-0.62-0.37l-0.481-0.242
	c-0.04-0.019-0.086-0.03-0.131-0.03h-0.491L31.515,3.952l0.09,0.27c0.015,0.044,0.04,0.084,0.071,0.114L85.365,58.026z
	 M17.553,24.121l1.465-0.49l0.889-0.387l1.487-0.998l1.354-1.359l0.633-0.897l0.342-0.805l0.36-0.6
	c0.021-0.035,0.034-0.073,0.039-0.111l0.118-0.825l0.12-0.6c0.008-0.038,0.008-0.077,0-0.116l-0.11-0.55l1.262,1.258l0.324,0.539
	l0.103,0.493l0,1.154l-0.454,1.359l-0.453,0.682l-0.608,0.848l-0.444,0.676l-0.676,0.685l-1.395,0.936l-0.819,0.352l-1.368,0.456
	l-1.087-0.217l-0.484-0.239l-0.294-0.099l-1.306-1.306l0.849,0.17C17.449,24.137,17.499,24.137,17.553,24.121z M71.791,83.997
	c0.078,0,0.154-0.031,0.209-0.086l0.071-0.072l0.249-0.084l0.433,0.001c0.077,0,0.154-0.032,0.208-0.086l0.051-0.051l0.103,0.51
	h-0.122c-0.079,0-0.155,0.032-0.208,0.086l-0.154,0.154h-0.6c-0.059,0-0.12,0.019-0.17,0.054l-0.142-0.427H71.791z M68.902,83.042
	l-0.115-0.116l-0.217-0.435c-0.014-0.028-0.033-0.056-0.057-0.08l-0.417-0.404l-0.621-0.371l-0.519-0.256l-0.459-0.154l0.4-1.522
	l2.283,2.283L68.902,83.042z M64.011,81.256l-0.001,0.006c-0.001,0-0.001,0-0.002-0.001L64.011,81.256z M99.05,63.201l1.272,0.11
	l1.307,0.357l1.066,0.355l1.168,0.465l1.045,0.58l0.09,0.09l-0.403-0.241l-1.262-0.497l-1.464-0.244l-2.78-0.232l-0.743-0.742
	L99.05,63.201z M22.226,33.99l0.844,0.12c0.013,0.002,0.026,0.002,0.039,0.002l1.726-0.242l1.155-0.382l0.857-0.369l1.007-0.508
	l1.955-1.47l1.59-1.593l1.471-1.969l0.487-0.977l0.37-0.864l0.373-1.133l0.24-1.686c0.003-0.028,0.003-0.054-0.001-0.081
	l-0.132-0.893l-0.087-0.259l49.518,49.518v0.237l-0.034,0.033c-0.033,0.034-0.058,0.075-0.07,0.115l-0.12,0.361
	c-0.012,0.032-0.017,0.062-0.017,0.092v0.36l-0.032,0.032c-0.055,0.054-0.087,0.13-0.087,0.209l0.003,0.195l-0.336,1.458l-0.06,0.06
	c-0.055,0.054-0.087,0.13-0.087,0.209v0.6l-0.034,0.034c-0.055,0.055-0.086,0.128-0.086,0.206l-0.001,0.12l-0.032,0.033
	c-0.056,0.054-0.088,0.13-0.088,0.209l0.001,0.22l-0.116,1.054l-0.005,0.771c0,0.078,0.031,0.154,0.086,0.209l1.138,1.125
	l0.622,0.372l0.519,0.256l0.699,0.231l5.169,1.43l-0.396,1.189l-0.354,0.826l-0.452,0.916l-1.417,1.892l-1.53,1.535l-1.877,1.415
	l-0.947,0.473l-0.817,0.353l-1.214,0.404l-1.411-5.117l-0.001-0.06l-0.021-0.011l-0.243-0.719l-0.252-0.501l-0.405-0.658l-1.08-1.08
	c-0.056-0.056-0.13-0.086-0.209-0.086l-0.721-0.001l-1.09,0.12h-0.232c-0.077,0-0.151,0.03-0.208,0.086l-0.035,0.035h-0.118
	c-0.077,0-0.151,0.03-0.209,0.086l-0.033,0.034l-0.602-0.001c-0.078,0.002-0.152,0.032-0.206,0.086l-0.053,0.054l-1.328,0.223
	L73.14,82.93l-0.363,0.133c-0.042,0.015-0.081,0.039-0.112,0.07l-0.035,0.034h-0.359c-0.032,0-0.063,0.005-0.094,0.016l-0.362,0.121
	c-0.044,0.015-0.082,0.039-0.113,0.07l-0.033,0.034l-0.237-0.001l-49.52-49.521L22.226,33.99z M69.492,85.131l-0.112-0.559
	c0.036-0.013,0.069-0.034,0.096-0.062l0.028-0.028l1.423-0.375c0.071,0.005,0.137-0.008,0.191-0.045l0.176,0.528L69.492,85.131z
	 M70.072,83.724l0.327-0.516l0.34,0.34L70.072,83.724z M108.879,76.555l-5.688-1.534L33.075,4.904h0.251
	c0.037,0,0.064-0.014,0.063-0.015l0.042-0.003l0.991-0.496c0.027-0.015,0.051-0.032,0.074-0.054l0.961-0.962
	c0.023-0.022,0.043-0.051,0.055-0.077l0.699-1.396l72.508,72.506l0.043,0.188l0.118,1.294V76.555z M35.007,2.993l-0.894,0.894
	l-0.857,0.428h-0.77L32.141,3.97l-0.073-0.221l0.087-0.437l0.618-0.211L33.084,3.1l0.274,0.274c0.111,0.113,0.305,0.113,0.416,0
	l0.034-0.033h0.119c0.077,0,0.153-0.031,0.208-0.086l0.36-0.36c0.055-0.055,0.086-0.131,0.086-0.209v-0.36l0.034-0.034
	c0.055-0.055,0.086-0.13,0.086-0.208c0-0.08-0.031-0.154-0.086-0.208c-0.08-0.082-0.206-0.108-0.309-0.069l-0.05-0.05
	c-0.027-0.028-0.056-0.045-0.078-0.056L33.698,1.46c-0.04-0.019-0.085-0.03-0.132-0.03h-0.009l0.184-0.185l0.403-0.202l0.598-0.121
	l0.245-0.083l0.328,0.165l0.157,0.157l0.181,0.539L35.007,2.993z M18.279,16.617c-0.021,0.041-0.033,0.086-0.033,0.133l0,0.192
	l-0.105,0.316c-0.034,0.107-0.008,0.222,0.071,0.301l0.273,0.272l-0.032,0.032c-0.055,0.054-0.086,0.13-0.086,0.208v0.029
	l-0.157,0.052c-0.011,0.003-0.021,0.007-0.031,0.012c-0.031-0.012-0.065-0.018-0.101-0.018c-0.004,0-0.008,0-0.012,0l-0.312-0.626
	l-0.006-0.834l0.103-0.513l0.329-0.329l0.324,0.323L18.279,16.617z M15.561,23.801l1.929,1.929c0.02,0.022,0.043,0.033,0.061,0.039
	l0.023,0.024l0.356,0.116l0.479,0.239c0.023,0.012,0.049,0.02,0.075,0.026l1.198,0.239c0.051,0.012,0.106,0.009,0.155-0.009
	l1.465-0.489l0.889-0.387l1.488-0.999l0.757-0.766l0.475-0.714l0.607-0.848l0.479-0.719c0.017-0.024,0.029-0.05,0.036-0.073
	l0.482-1.445c0.008-0.027,0.013-0.057,0.014-0.09l-0.006-1.259l-0.12-0.602c-0.007-0.033-0.02-0.065-0.036-0.092l-0.36-0.6
	c-0.005-0.009-0.011-0.017-0.017-0.022l-1.975-1.983l0.224-0.075l0.631-0.003l0.825,0.118l0.552,0.11l0.511,0.302l0.782,0.78
	l0.209,0.621l0.114,0.542l0.003,0.68l-0.115,0.811l-0.225,0.917l-0.69,1.628l-0.597,0.836l-0.725,0.968l-0.574,0.801l-0.838,0.604
	l-0.804,0.81l-0.787,0.568l-0.858,0.369l-0.945,0.472l-0.805,0.346l-0.762,0.112h-1.396l-0.617-0.199l-0.554-0.327l-0.782-0.78
	l-0.208-0.621l-0.115-0.543l-0.003-0.679L15.561,23.801z M17.699,28.223l1.485-0.003l0.837-0.12c0.016-0.001,0.03-0.006,0.041-0.011
	l0.895-0.378l0.946-0.474l0.896-0.392l0.879-0.632l0.804-0.81l0.835-0.597c0.014-0.009,0.027-0.02,0.043-0.035l0.629-0.874
	l0.725-0.968l0.632-0.897l0.737-1.727l0.247-0.991l0.123-0.885l-0.006-0.777l-0.051-0.25l2.751,2.751l0.209,0.62l0.118,0.585
	l0.11,0.772l-0.225,0.676l-0.224,0.918l-0.714,1.666l-0.46,0.918l-0.839,0.846l-0.57,0.804l-0.688,0.695l-0.958,0.716l-0.786,0.57
	l-0.857,0.368l-0.945,0.473l-0.805,0.345l-0.762,0.112h-1.396l-0.617-0.198l-0.554-0.327l-2.491-2.491
	C17.693,28.223,17.696,28.223,17.699,28.223z M21.306,31.829l1.485-0.002l0.848-0.121c0.012-0.003,0.022-0.007,0.031-0.011
	l0.894-0.378l0.946-0.474l0.896-0.392l0.847-0.604l0.994-0.749l0.753-0.758l0.569-0.805l0.84-0.839
	c0.023-0.022,0.043-0.05,0.056-0.079l0.488-0.977l0.737-1.727l0.234-0.94l0.241-0.722c0.015-0.045,0.018-0.089,0.012-0.134
	l-0.123-0.858l-0.129-0.635l-0.24-0.721c-0.014-0.042-0.037-0.081-0.071-0.117l-0.561-0.56l0.222,0.074l1.364,0.904l0.207,0.201
	l0.339,0.564l0.224,0.442l0.229,0.669l0.113,0.8l-0.222,1.591l-0.352,1.058l-0.354,0.826l-0.453,0.916l-1.415,1.892l-1.531,1.536
	l-1.878,1.414l-0.946,0.473l-0.818,0.353l-1.045,0.35l-1.628,0.233l-0.747-0.103l-0.683-0.224l-0.461-0.229l-0.56-0.331
	l-0.429-0.421l-0.455-0.673l-0.3-0.701l0.36,0.348l0.659,0.387l0.721,0.24C21.243,31.824,21.274,31.829,21.306,31.829z
	 M102.989,107.743v0.01l-3.054-3.054l-0.089-0.26l-0.114-0.543l-0.006-0.422l0.11-0.551l1.012-1.703l0.557-0.565l1.747-1.048
	l0.493-0.104l0.435-0.003l0.553,0.108l0.295,0.099l3.05,3.05l-0.549-0.11c-0.062-0.013-0.13-0.004-0.19,0.025l-0.443,0.224
	l-0.778,0.268l-0.659,0.404l-1.606,1.62l-0.387,0.659l-0.226,0.682l-0.24,0.482c-0.028,0.057-0.037,0.122-0.024,0.189
	L102.989,107.743z M99.664,105.261l3.43,3.43l-1.672,1.462l-4.071,3.115l-2.142,1.43l-6.468,3.594l-2.137,0.951l-1.991,0.664
	l-3.286-3.285l1.643-0.677l2.17-0.964l2.301-1.091l2.179-1.213l2.048-1.324l2.179-1.453l4.101-3.138L99.664,105.261z
	 M122.222,74.307l-0.118,1.786l-0.237,1.902l-0.358,1.789l-0.478,1.912l-0.595,2.023l-0.717,1.914l-0.832,2.025l-0.959,1.916
	l-1.072,2.025l-1.212,1.942l-1.057,2.005l-4.315,5.753l-1.355,1.564l-3.429-3.429l2.958-3.415l1.455-1.939l1.325-2.048l2.415-3.864
	l1.094-2.069l1.687-4.096l1.452-3.878l0.487-1.958l0.238-1.902l0.365-1.842l0.12-1.822l-0.003-1.725l-0.482-3.372l-0.252-1.489
	l-0.497-1.48l-0.732-1.462l-0.214-0.355l1.06,1.057l1.774,2.244l0.706,1.173l0.59,1.294l0.473,1.415l0.353,1.52l0.123,1.581
	l0.237,1.641V74.307z M64.392,118.007l3.172,0.729l1.842,0.12l3.623-0.242l1.78-0.223l3.199,3.199l-1.31,0.164l-3.585,0.24
	L71.496,122l-3.099-0.713l-1.43-0.477l-1.516-0.578l-1.16-0.691l-2.348-2.349L64.392,118.007z M75.314,117.593l0.412-0.627
	l1.505-1.518l1.159-0.696l0.494-0.104l0.434-0.004l0.554,0.11l0.294,0.097l0.262,0.262l0.088,0.259l0.109,0.543l-0.109,0.548
	l-0.004,0.041l0.005,0.015c0.001,0.013,0.003,0.024,0.006,0.038c-0.002,0.016-0.001,0.043,0.014,0.08l0.028,0.04
	c0,0.001,0.001,0.001,0.001,0.002l1.379,1.394l-0.69,0.236l-0.659,0.404l-1.125,1.138l-0.354,0.59l-0.497,0.753l-0.058,0.116
	l-3.326-3.327L75.314,117.593z M79.129,121.489l0.488-0.734l0.317-0.544l1.024-1.039l0.542-0.332l0.909-0.303l1.914,1.914
	l0.043,0.033l0.019,0.005c0.03,0.017,0.058,0.025,0.084,0.031c0.024,0.006,0.047,0.009,0.087,0.009l0.011,0.002l2.248-0.739
	l2.187-0.973l6.512-3.619l2.179-1.453l4.1-3.138l1.911-1.672l0.028-0.023c0.027-0.028,0.037-0.059,0.033-0.059c0,0,0,0-0.001,0
	c0.017-0.025,0.033-0.055,0.034-0.076l0.018-0.041v-0.029c0-0.028-0.008-0.051-0.016-0.068l0.001-0.035l-0.225-0.452l-0.005-0.468
	l-0.101-0.502l0.212-0.428l0.214-0.664l0.317-0.544l1.505-1.519l0.543-0.332l0.759-0.257l0.392-0.195l0.559,0.106h0.412l0.421,0.211
	c0.034,0.015,0.063,0.017,0.067,0.014l0.09,0.011c0.053-0.005,0.103-0.022,0.144-0.051l1.626-1.864l4.352-5.808l1.072-2.026
	l1.213-1.941l1.085-2.05l0.97-1.942l0.845-2.052l0.729-1.943l0.603-2.055l0.484-1.937l0.213-1.063l6.743,6.744l0.454,0.448
	l0.703,0.937l0.701,1.16l0.951,2.373l0.35,1.284l0.001,1.426l0.12,1.539l0.003,1.4l-0.236,1.659l-0.362,1.572l-0.355,1.779
	l-0.08,0.279c-0.035,0.051-0.052,0.112-0.051,0.179l-0.338,1.19l-1.439,3.357l-0.827,1.776l-2.15,3.587l-2.39,3.345l-1.306,1.545
	l-0.272,0.273l-1.834-1.834l-0.881-0.635c-0.041-0.027-0.086-0.045-0.137-0.051l-1.109-0.121c-0.028,0-0.052,0.003-0.077,0.009
	l-0.966,0.241c-0.026,0.008-0.051,0.018-0.067,0.028l-1.115,0.623l-0.963,0.721c-0.037,0.028-0.064,0.06-0.08,0.092l-0.623,1.132
	l-0.362,1.088c-0.008,0.025-0.012,0.052-0.014,0.086v0.962c0,0.045,0.011,0.09,0.032,0.131l0.481,0.964
	c0.016,0.029,0.033,0.053,0.053,0.074l2.076,2.076l-0.255,0.256l-1.543,1.308l-3.346,2.391l-3.58,2.149l-1.794,0.837l-3.332,1.431
	l-1.256,0.359c-0.054,0.003-0.1,0.017-0.14,0.041l-0.263,0.075l-1.811,0.363l-1.538,0.356l-1.642,0.237l-1.419,0.001l-1.586-0.12
	h-1.403l-1.252-0.34l-2.362-0.941l-1.177-0.703l-0.929-0.694l-7.384-7.384L79.129,121.489z M121.434,116.704l-0.777,0.007
	l-0.601,0.12c-0.034,0.007-0.065,0.019-0.094,0.036l-1.215,0.73l-0.724,0.483c-0.035,0.024-0.065,0.056-0.086,0.091l-0.748,1.26
	l-0.24,0.721c-0.011,0.03-0.016,0.061-0.016,0.093v1.202c0,0.003,0,0.007,0,0.01l-1.628-1.628l-0.428-0.855v-0.846l0.323-0.986
	l0.571-1.026l0.877-0.662l1.047-0.583l0.873-0.218l0.954,0.107l0.75,0.534l1.47,1.469L121.434,116.704z M119.93,123.321
	l-1.163-0.232l-0.403-0.201l-0.414-0.414l-0.203-0.398l-0.224-0.676v-1.108l0.198-0.617l0.687-1.146l0.654-0.436l1.159-0.695
	l0.495-0.104l0.674-0.004l0.55,0.11l0.426,0.213l0.528,0.316l0.213,0.425l0.335,0.558l0.104,0.494l0.005,0.663l-0.109,0.551
	l-0.667,1.116l-1.011,1.023l-0.154,0.094c-0.099-0.024-0.195,0.004-0.261,0.069l-0.19,0.191l-0.611,0.204L119.93,123.321z
	 M131.245,106.355l-0.358,1.551l-0.351,1.294l-1.192,3.1l-0.702,1.411l-0.976,1.466l-0.808,1.514l-1.22,1.467l-0.924,1.397
	l-0.583,0.582l0.003-0.014l-0.006-0.778l-0.12-0.601c-0.007-0.033-0.018-0.063-0.035-0.092l-0.351-0.581l-0.241-0.481l-0.025-0.034
	l-0.422-0.436l0.29-0.29l1.336-1.583l2.417-3.385l2.177-3.633l0.845-1.812l1.419-3.315l0.062,0.648L131.245,106.355z
	 M106.654,129.767l1.83-0.856l3.625-2.176l3.386-2.418l1.58-1.338l0.273-0.273l0.633,0.633c0.023,0.023,0.051,0.042,0.078,0.054
	l0.476,0.24c0.028,0.015,0.058,0.022,0.078,0.027l1.26,0.246h0.408l-2.255,1.865l-2.861,1.908l-1.555,0.839l-1.418,0.709
	l-3.097,1.193l-1.293,0.354l-2.847,0.474l-1.301-0.117l-0.005-0.001l-0.176,0.001L106.654,129.767z M101.562,131.706l0.328-0.094
	l0.552,0.106l1.175-0.002l1.351,0.122l2.962-0.493l1.351-0.369l3.15-1.214l1.452-0.725l1.587-0.856l2.91-1.941l2.784-2.302
	l0.326-0.329l0.636-0.393l1.082-1.082c0.016-0.016,0.029-0.033,0.044-0.056l0.328-0.556l1.588-1.595l0.943-1.418l1.234-1.491
	l0.828-1.538l0.978-1.475l0.734-1.468l1.212-3.153l0.362-1.334l0.366-1.602l0.241-2.698l-0.121-1.337l-0.106-0.74l0.102-0.362
	l0.174-0.862l4.981,4.981l0.329,0.324l0.576,0.801l0.944,1.889l0.467,2.308l0.002,1.175l-0.239,2.623l-0.228,1.397l-0.958,2.872
	l-0.585,1.528l-0.846,1.571l-0.702,1.411l-0.942,1.417l-1.221,1.468l-0.925,1.397l-3.946,3.947l-2.74,2.268l-2.861,1.908
	l-1.554,0.838l-1.418,0.709l-1.55,0.597l-2.84,0.951l-1.422,0.237l-1.294,0.119l-1.176,0.002l-1.291-0.117l-1.167-0.23l-2.121-0.707
	l-1.61-1.146l-5.101-5.1L101.562,131.706z M18.597,15.428L31.163,2.862l0.305,0.305L18.902,15.733L18.597,15.428z"/>
</svg>
