<?xml version="1.0" encoding="utf-8"?>
<!-- Generator: Adobe Illustrator 21.1.0, SVG Export Plug-In . SVG Version: 6.00 Build 0)  -->
<svg version="1.1" id="Projectors_2017" xmlns="http://www.w3.org/2000/svg" xmlns:xlink="http://www.w3.org/1999/xlink" x="0px"
	 y="0px" viewBox="0 0 140 140" style="enable-background:new 0 0 140 140;" xml:space="preserve">
<style type="text/css">
	.st0{opacity:0.2;}
	.st1{fill:#939598;}
</style>
<g class="st0">
	<path class="st1" d="M139.938,57.912c-0.013-0.07-0.047-0.136-0.098-0.188l-0.124,0.079c0.008-0.051,0.004-0.103-0.011-0.151
		l0.024-0.036c-0.001-0.001-0.082-0.083-0.106-0.107c-0.014-0.015-0.028-0.027-0.044-0.04c-0.015-0.011-0.028-0.02-0.044-0.027
		l-4.631-2.67c-0.046-0.027-0.096-0.042-0.146-0.047l-0.039-0.02c-0.049-0.024-0.216-0.037-0.271-0.037h-0.111
		c-0.055,0-0.108,0.013-0.157,0.037l-0.04,0.02c-0.052,0.005-0.104,0.021-0.151,0.048l-1.215,0.719l-0.241-0.372l-0.569-0.614
		l-0.515-0.336l0.289-0.288c0.042-0.041,0.072-0.093,0.09-0.149l0.167-0.558c0.01-0.033,0.015-0.067,0.015-0.102v-0.668
		c0-0.035-0.005-0.07-0.016-0.104l-0.24-0.77l-0.336-0.724c-0.013-0.027-0.028-0.053-0.047-0.075l-0.541-0.652l-0.559-0.501
		c-0.023-0.021-0.05-0.039-0.078-0.054l-0.559-0.278c-0.037-0.019-0.076-0.03-0.116-0.034c0.001-0.002,0.002-0.004,0.002-0.006
		l0.224-0.501c0.021-0.046,0.031-0.095,0.031-0.145l-0.009-0.749l-0.192-0.793l-0.361-0.772l-0.506-0.735l-0.559-0.501
		c-0.023-0.021-0.05-0.039-0.078-0.054l-0.559-0.278c-0.028-0.014-0.058-0.024-0.089-0.03l-0.559-0.111
		c-0.021-0.004-0.041-0.006-0.062-0.007c0.005-0.021,0.009-0.041,0.011-0.062l0.052-0.756l-0.128-0.729l-0.318-0.858l-0.491-0.722
		L125.3,40.79l-0.559-0.334c-0.034-0.021-0.072-0.035-0.112-0.043l-0.559-0.111c-0.049-0.01-0.103-0.008-0.155,0.004l-0.399,0.1
		c0.003-0.029,0.002-0.06-0.002-0.089l-0.132-0.798l-0.299-0.765l-0.391-0.724c-0.016-0.031-0.037-0.059-0.062-0.083l-0.605-0.598
		l-0.559-0.39c-0.031-0.021-0.065-0.038-0.102-0.049l-0.559-0.167c-0.046-0.014-0.095-0.018-0.141-0.013l-0.503,0.056
		c-0.079,0.009-0.152,0.044-0.209,0.1l-0.202,0.127l-0.244-0.768l-0.429-0.779l-0.503-0.613c-0.021-0.025-0.045-0.048-0.071-0.066
		l-0.631-0.428l-0.559-0.223c-0.041-0.017-0.086-0.025-0.131-0.025h-0.503c-0.038,0-0.075,0.006-0.111,0.018l-0.161,0.054
		c-0.014,0.004-0.028,0.01-0.042,0.016c-0.013,0.006-0.025,0.013-0.037,0.02l-0.546,0.315l-0.178-0.383
		c-0.012-0.027-0.028-0.053-0.047-0.076l-0.541-0.652l-0.559-0.501c-0.023-0.021-0.05-0.039-0.078-0.054l-0.559-0.279
		c-0.049-0.024-0.104-0.037-0.158-0.037h-0.56c-0.056,0-0.11,0.013-0.159,0.038l-0.223,0.112c-0.001,0-0.001,0-0.002,0.001
		c-0.006,0.003-0.012,0.006-0.017,0.009l-0.944,0.537l-0.652-0.592l-0.559-0.334c-0.045-0.026-0.095-0.043-0.146-0.048l-0.559-0.056
		c-0.051-0.005-0.101,0-0.146,0.017l-0.328,0.108c-0.014,0.004-0.027,0.01-0.04,0.016s-0.025,0.012-0.037,0.019l-1.549,0.881
		l-0.659-0.144c-0.049-0.01-0.103-0.008-0.155,0.004l-0.438,0.109c-0.02,0.004-0.039,0.01-0.058,0.018
		c-0.017,0.007-0.032,0.015-0.047,0.023l-5.969,3.394c-0.008,0.004-0.016,0.009-0.023,0.015c0,0,0,0-0.001,0c0,0,0,0,0,0.001
		c-0.029,0.02-0.055,0.042-0.076,0.068l-0.331,0.384c-0.03,0.035-0.053,0.075-0.067,0.119l-0.167,0.502
		c-0.01,0.028-0.016,0.058-0.018,0.087l-0.625,0.366l-0.597-0.18c-0.061-0.018-0.125-0.019-0.188-0.004l-0.439,0.109
		c-0.018,0.004-0.036,0.01-0.055,0.017c-0.018,0.007-0.034,0.016-0.05,0.025l-1.557,0.888c-0.03,0.017-0.057,0.038-0.079,0.062
		l-0.581,0.155l-1.062,0.558c-0.001,0-0.003,0.001-0.005,0.002l-1.339,0.724c-0.058,0.03-0.104,0.075-0.135,0.127l-1.121,0.825
		l-0.939,0.937l-3.197-0.538l-3.762-0.279l-2.364-0.056l-2.249,0.057L76.815,41.8l-3.368,0.28l-2.588,0.33l-1.288-0.386
		l-3.785-0.504l-3.956-0.054l-4.002,0.451l-2.181,0.467l-2.694-1.557l-2.353-3.437c-0.014-0.021-0.03-0.041-0.048-0.06
		c-0.008-0.008-0.017-0.016-0.026-0.023c0,0,0,0,0,0c0,0,0,0,0,0c-0.016-0.013-0.033-0.024-0.05-0.034l-7.474-4.337
		c-0.013-0.008-0.026-0.015-0.04-0.021c-0.046-0.021-0.095-0.03-0.144-0.03c-0.056-0.005-0.1,0.01-0.146,0.031
		c-0.015,0.007-0.029,0.015-0.043,0.022l-2.501,1.497c-0.01,0.005-0.02,0.012-0.029,0.018c0,0.001,0,0.001-0.001,0.001
		c-0.016,0.011-0.03,0.023-0.043,0.037c0,0,0,0,0,0c0,0,0,0,0,0c-0.01,0.011-0.02,0.021-0.029,0.033L26.288,51.174
		c-0.037,0.044-0.063,0.097-0.076,0.155c0,0.001,0,0.001,0,0.002c0,0.002,0,0.001,0,0.003c0,0,0,0,0,0.001l0,0.001v0.001
		c0.001,0,0,0.002,0,0.002c0,0.001,0,0.001,0,0.002c0,0.002-0.001,0.004-0.001,0.006l-0.471,0.236
		c-0.01,0.004-0.02,0.01-0.029,0.015c-0.024,0.015-0.047,0.032-0.068,0.053c-0.021,0.02-0.038,0.042-0.053,0.066
		c-0.018,0.028-0.032,0.06-0.041,0.093l0,0.001c-0.007,0.027-0.012,0.056-0.012,0.084c0,0.006,0,0.011,0,0.017v2.073l-0.157,0.22
		c-0.021,0.028-0.036,0.06-0.047,0.094l-0.053,0.156c-0.002,0.007-0.005,0.014-0.007,0.021l-0.108,0.324
		c-0.012,0.036-0.019,0.074-0.019,0.112l-0.054,0.63c-0.004,0.039-0.002,0.078,0.006,0.116l0.246,1.068l0.192,0.434v1.469
		l-2.965,1.248c-0.009,0.004-0.018,0.008-0.026,0.013c-0.007,0.003-0.013,0.007-0.02,0.011l-11.059,6.348
		c-0.044,0.025-0.081,0.059-0.109,0.097l-0.487,0.263l-1.415,1.072l-0.838,0.725c-0.027,0.023-0.05,0.051-0.068,0.079
		c-0.022,0.014-0.043,0.03-0.062,0.05l-1.376,1.545l-1.085,1.486l-0.909,1.646l-0.792,1.807l-0.68,1.927l-0.51,2.037l-0.337,2.191
		l-0.225,2.247l-0.112,2.356l-0.602,1.578l-0.787,2.861l-0.62,2.929l-0.337,2.925L0,99.016c0,0.006,0,0.012,0,0.018s0,0.012,0,0.018
		l0.114,2.982l0.395,2.973l0.567,2.931l0.847,2.866l1.069,2.806l1.247,2.764l1.522,2.583l1.692,2.474l1.863,2.306l2.091,2.196
		l2.249,1.962l2.378,1.859l2.53,1.569l2.658,1.465l2.763,1.18l2.821,0.954l2.931,0.73l1.823,0.313l1.714,0.938l2.097,1.016
		l2.089,0.787l2.047,0.621l2.039,0.395l1.985,0.226L45.41,140l1.888-0.116l1.819-0.343l0.391-0.111
		c0.034-0.01,0.066-0.024,0.095-0.043c0.029-0.002,0.059-0.008,0.088-0.017l1.555-0.521l1.595-0.798l6.577-3.79l0.648-0.057
		c0.011-0.001,0.022-0.003,0.033-0.005c0.011-0.002,0.022-0.005,0.033-0.009l8.032-2.28c0.017-0.004,0.032-0.01,0.047-0.016
		c0.049-0.021,0.092-0.052,0.126-0.089c0.033-0.036,0.058-0.079,0.074-0.128c0.005-0.017,0.01-0.034,0.013-0.052l0.185-0.968
		l9.328-2.423l4.028-0.982l2.354,1.387c0.004,0.003,0.008,0.006,0.013,0.008l1.252,0.681l1.254,0.566l1.61,0.585v1.032
		c0,0.001,0,0.001,0,0.002c0,0,0,0,0,0.001v0.001c0,0.001,0,0.001,0,0.001v0.001c0.001,0.059,0.016,0.113,0.042,0.161l0.145,0.335
		c0.029,0.089,0.094,0.163,0.178,0.205l0.01,0.011c0.035,0.067,0.09,0.122,0.158,0.156l0.217,0.108
		c0.02,0.01,0.04,0.019,0.062,0.024c0.021,0.007,0.045,0.012,0.067,0.014l1.822,0.226l1.726-0.003l1.683-0.238l1.551-0.519
		l1.199-0.578c0.062-0.002,0.123-0.02,0.178-0.055l3.169-1.829c0.04-0.022,0.074-0.052,0.102-0.085l1.315-0.92l1.146-1.146
		l1.036-1.327l0.858-1.545l0.667-1.664c0.01-0.023,0.018-0.049,0.022-0.074c0.005-0.024,0.007-0.049,0.006-0.073v-10.623
		l0.497-0.317c0.008-0.004,0.015-0.009,0.021-0.014c0.017-0.011,0.031-0.023,0.044-0.036l0.739-0.683l0.688-0.743l0.689-0.86
		l0.577-0.867l1.025-1.992l0.398-1.084l0.333-1.163c0.004-0.014,0.008-0.028,0.011-0.043c0.002-0.013,0.003-0.025,0.004-0.038
		l0.057-0.662c0.005-0.065-0.008-0.131-0.037-0.189l-0.224-0.445c-0.029-0.059-0.074-0.107-0.129-0.142
		c-0.03-0.047-0.071-0.088-0.123-0.118l-4.311-2.479l0.948-1.117l1.694-2.143l1.577-2.417l1.411-2.534l0.956-2.133l0.733-1.858
		l0.622-1.918l0.563-2.251l0.261-1.446l0.811,1.441c0.004,0.007,0.008,0.013,0.012,0.02c0.005,0.008,0.011,0.016,0.017,0.023
		l0.312,0.374l0.372,0.288l0.326,0.131c0.036,0.012,0.073,0.018,0.111,0.018h0.111c0.055,0,0.109-0.013,0.158-0.037l0.109-0.055
		c0.004-0.002,0.008-0.004,0.013-0.007h0.001c0.003-0.002,0.007-0.004,0.01-0.006l2.111-1.219l0.102-0.051
		c0.03-0.015,0.059-0.034,0.083-0.057l1.158-0.673l0.101-0.051c0.069-0.034,0.125-0.09,0.159-0.159l0.111-0.22
		c0.024-0.05,0.038-0.105,0.038-0.161l-0.011-0.421l-0.064-0.249l-0.186-0.435c0-0.001-0.001-0.003-0.002-0.005
		c-0.004-0.007-0.008-0.014-0.012-0.021l-1.56-2.657l1.312-0.747c0.017-0.01,0.033-0.02,0.048-0.031
		c0.015-0.011,0.027-0.022,0.04-0.035l0.33-0.329c0.039-0.039,0.069-0.087,0.086-0.139l0.167-0.502
		c0.013-0.036,0.019-0.074,0.019-0.112l0.579-0.339l0.617,0.13c0.051,0.012,0.104,0.009,0.155-0.004l0.439-0.109
		c0.029-0.007,0.059-0.018,0.087-0.032c0,0,0,0,0.001,0c0.004-0.002,0.007-0.004,0.011-0.006l5.97-3.394
		c0.017-0.009,0.032-0.02,0.048-0.031c0.015-0.011,0.028-0.023,0.041-0.036l0.329-0.329c0.041-0.042,0.071-0.093,0.089-0.148
		l0.189-0.643l1.538-0.874c0.017-0.009,0.031-0.019,0.046-0.03c0.016-0.011,0.029-0.023,0.042-0.036l0.274-0.272
		c0.031-0.031,0.057-0.068,0.074-0.108l0.223-0.502c0.02-0.045,0.03-0.094,0.03-0.144l-0.009-0.748l-0.179-0.757l0.901-0.526
		c0.007-0.004,0.014-0.008,0.021-0.012c0.008-0.005,0.015-0.011,0.022-0.017l0.219-0.163c0.04-0.03,0.073-0.068,0.098-0.111
		l0.279-0.501c0.024-0.044,0.039-0.092,0.044-0.141l0.056-0.613c0.003-0.038,0-0.075-0.008-0.112l-0.183-0.771l-0.315-0.793
		l-0.247-0.37l0.515-0.293c0.007-0.004,0.014-0.008,0.02-0.012c0.01-0.006,0.019-0.012,0.026-0.019l0.219-0.163
		c0.037-0.027,0.068-0.062,0.092-0.102l0.199-0.349l0.112-0.335c0.013-0.036,0.019-0.074,0.019-0.112v-0.017l0.081,0.045
		c0.001,0,0.002,0.001,0.003,0.002l0.273,0.163c0.029,0.018,0.062,0.031,0.096,0.039l0.729,0.177l0.78,0.056l0.785-0.065
		l0.725-0.185l0.383-0.164c0.019-0.007,0.035-0.016,0.053-0.026l1.719-0.995c0.016-0.008,0.03-0.018,0.044-0.028
		c0.016-0.012,0.029-0.024,0.042-0.037l0.036-0.037c0.07-0.033,0.141-0.084,0.182-0.124c0.061-0.061,0.097-0.141,0.103-0.226
		c0.037-0.057,0.057-0.124,0.057-0.192v-2.674C140,58.037,139.974,57.972,139.938,57.912z M139.049,58.245
		c0.002,0.003,0.004,0.007,0.006,0.011l-0.856,0.496L139.049,58.245L139.049,58.245z M131.505,55.037l0.467,0.51l0.362,0.56
		c0.002,0.004,0.003,0.007,0.005,0.011l0.252,0.579l0.107,0.61v0.5l-0.148,0.443c-0.002,0.005-0.004,0.011-0.005,0.016
		c0,0,0,0-0.001,0l-0.15,0.115c-0.003,0.002-0.006,0.003-0.008,0.004c-0.005,0.003-0.011,0.006-0.016,0.009l-0.514,0.295
		c-0.064,0.015-0.125,0.047-0.175,0.098c-0.002,0.002-0.004,0.004-0.006,0.006l-4.21,2.415l0.004-0.01
		c0.013-0.043,0.018-0.088,0.014-0.132l-0.056-0.668c-0.003-0.031-0.01-0.062-0.02-0.09l-0.308-0.84l-0.423-0.715l-0.557-0.665
		l-0.549-0.438l5.213-3.012l0.283,0.122L131.505,55.037z M129.394,49.918l0.441,0.221l0.484,0.429l0.476,0.579l0.299,0.638
		l0.207,0.674v0.562l-0.126,0.422l-0.239,0.237l-4.903,2.833v-0.654c0-0.035-0.005-0.07-0.016-0.104l-0.241-0.77l-0.374-0.787
		l-0.503-0.669c-0.018-0.024-0.039-0.046-0.062-0.064l-0.621-0.485l-0.287-0.144l5.085-2.917H129.394z M126.606,45.32l0.211-0.07
		l0.42,0.084l0.477,0.236l0.462,0.401l0.421,0.62l0.311,0.655l0.159,0.645v0.594l-0.166,0.371l-0.146,0.146
		c-0.069,0.022-0.13,0.064-0.173,0.121l-4.787,2.722l-0.007-0.579l-0.192-0.793l-0.361-0.772l-0.506-0.735l-0.613-0.542
		l-0.433-0.259L126.606,45.32z M123.688,41.093l0.322-0.08l0.424,0.084l0.435,0.249l0.515,0.504l0.407,0.59l0.264,0.72l0.108,0.581
		l-0.05,0.6l-0.146,0.29l-5.11,2.952l0.031-0.413l-0.132-0.798l-0.315-0.794l-0.491-0.722l-0.628-0.611l-0.534-0.319L123.688,41.093
		z M120.323,37.502c0.012-0.007,0.023-0.015,0.035-0.022l0.314-0.035l0.437,0.131l0.463,0.316l0.521,0.521l0.347,0.637l0.26,0.651
		l0.104,0.665l-0.072,0.391l-5.197,2.955c0,0,0,0,0-0.001l-0.13-0.738l-0.299-0.766l-0.392-0.724
		c-0.016-0.03-0.037-0.058-0.062-0.082l-0.605-0.598l-0.559-0.39c-0.031-0.021-0.065-0.038-0.102-0.049l-0.013-0.004L120.323,37.502
		z M116.659,34.847l0.461-0.026l0.42,0.159l0.52,0.362l0.434,0.519l0.364,0.659l0.212,0.67l0.028,0.202l-4.94,2.854
		c-0.059,0.012-0.113,0.037-0.16,0.075l-0.171,0.143l-0.297-0.763l-0.429-0.779l-0.557-0.666l-0.559-0.445
		c-0.027-0.021-0.058-0.039-0.09-0.052l-0.162-0.064L116.659,34.847z M113.051,33.33l0.139-0.07h0.392l0.442,0.221l0.484,0.43
		l0.475,0.578l0.186,0.401l-4.81,2.779c-0.046,0.026-0.084,0.062-0.113,0.104l-0.108,0.062c-0.065,0.037-0.117,0.095-0.147,0.163
		l-0.089,0.197l-0.311-0.655l-0.503-0.669c-0.018-0.024-0.039-0.046-0.062-0.064l-0.621-0.485l-0.328-0.164L113.051,33.33z
		 M109.619,33.008l0.23-0.076l0.407,0.04l0.433,0.253l0.436,0.384l-4.396,2.498c-0.037,0.021-0.068,0.048-0.095,0.078l-0.037,0.016
		c-0.067,0.028-0.123,0.077-0.162,0.138l-0.279,0.446c-0.023,0.038-0.04,0.081-0.048,0.125l-0.024,0.134l-0.34-0.445l-0.559-0.502
		c-0.024-0.021-0.051-0.039-0.079-0.054l-0.439-0.219L109.619,33.008z M104.274,36.42l0.475,0.236l0.372,0.328l-1.044-0.604
		L104.274,36.42z M106.167,38.408c0.035,0.031,0.076,0.056,0.121,0.07l1.23,0.712l-0.61,0.329l-3.817-2.161l0.629-0.365
		L106.167,38.408z M107.89,40.701l-0.054-0.154l-0.29-0.482l-0.055-0.054l0.727-0.392l0.124,0.114l0.265,0.551L107.89,40.701z
		 M108.617,41.099v1.965l-0.633,0.368v-1.966L108.617,41.099z M103.158,35.921l-0.367,0.443l-0.817,0.476l-0.22-0.12L103.158,35.921
		z M100.11,38.44c0.115-0.007,0.216-0.069,0.275-0.161l0.625-0.366l0.277-0.079l0.01,1.157l-1.365-0.2l-0.398-0.014L100.11,38.44z
		 M98.398,39.444l1.47,0.052l1.43,0.209v0.42L100.15,39.8l-1.627-0.285l-0.709,0.001L98.398,39.444z M57.943,42.617l3.923-0.443
		l3.869,0.053l3.688,0.489l3.475,1.041l3.247,1.478l3.031,2.027l2.698,2.465l2.265,2.859l1.882,3.143l1.272,2.744l-2.834-1.637
		c-0.013-0.007-0.025-0.014-0.039-0.02c-0.034-0.016-0.069-0.025-0.105-0.029c0,0,0,0-0.001,0c-0.019-0.001-0.038-0.003-0.057-0.002
		c-0.03,0.002-0.06,0.007-0.089,0.017l-2.306,0.68l-13.837-7.947c0,0,0,0,0,0l-11.461-6.621L57.943,42.617z M88.95,71.371
		c0.002,0.032,0.009,0.063,0.02,0.094l0.292,0.811l0.366,0.776l0.532,0.762l0.612,0.66l0.691,0.488l0.331,0.133l-0.062,0.016
		l-0.407-0.031l-0.57-0.207l-0.519-0.366l-0.537-0.588l-0.46-0.595l-0.32-0.738l-0.214-0.733l-0.104-0.726l0.077-0.472l0.203-0.454
		l0.052-0.06l-0.038,0.45L88.95,71.371z M89.624,70.347l0.026-0.295l0.083-0.165l0.156,0.022l-0.203,0.283
		C89.653,70.238,89.632,70.291,89.624,70.347z M91.669,74.251l0.317,0.105c0.036,0.012,0.073,0.018,0.111,0.018h0.382l-0.062,0.154
		l-0.181-0.021l-0.434-0.162L91.669,74.251z M92.451,73.665h-0.296l-0.4-0.133L91.279,73.2l-0.38-0.465l-0.318-0.579l-0.259-0.619
		l-0.051-0.546l0.047-0.463l0.186-0.26l0.079-0.053l0.359,0.254l0.212,0.229l0.31,0.893l0.413,0.644l0.473,0.587l0.193,0.79
		L92.451,73.665z M89.641,63.029l1.896-1.093l13.464,31.818l-1.948,1.098L89.641,63.029z M89.192,62.469l-6.77-3.878l1.851-1.043
		l6.724,3.882L89.192,62.469z M55.283,42.992c0.054,0.065,0.131,0.11,0.215,0.124l12.173,7.032c0.001,0.001,0.002,0.002,0.003,0.002
		l13.432,7.714l-1.804,1.039l-28.409-16.31l1.816-1.088L55.283,42.992z M52.202,40.984l-1.906,1.141l-2.049-2.973l1.949-1.099
		L52.202,40.984z M42.821,33.651l6.77,3.929l-1.854,1.046l-6.733-3.888L42.821,33.651z M40.386,35.201l7.102,4.1l2.409,3.494
		c0.012,0.018,0.025,0.034,0.04,0.05c0,0,0,0,0.001,0.001c0.013,0.014,0.028,0.026,0.043,0.038c0,0,0,0,0,0s0,0,0,0.001
		c0.013,0.01,0.027,0.019,0.042,0.026L79.12,59.616c0.013,0.008,0.025,0.015,0.039,0.021c0.034,0.015,0.069,0.024,0.105,0.028
		c0.013,0.001,0.025,0.002,0.038,0.002c0.031-0.001,0.073-0.006,0.109-0.018l2.249-0.678l7.251,4.154l3.235,7.676l-0.735-0.857
		l-0.608-0.44c-0.032-0.024-0.067-0.042-0.104-0.055L90.01,69.21l-0.361-0.036c-0.056-0.021-0.116-0.027-0.175-0.018l-0.022-0.002
		c-0.037-0.003-0.075-0.002-0.111,0.007l-0.503,0.111c-0.075,0.017-0.143,0.057-0.193,0.115l-0.335,0.391
		c-0.021,0.025-0.04,0.055-0.054,0.086l-0.249,0.582l-0.112,0.613c-0.007,0.037-0.008,0.076-0.002,0.114L88.014,72l0.238,0.822
		l0.378,0.854l0.524,0.693l0.612,0.662l0.614,0.445c0.026,0.02,0.057,0.035,0.087,0.046l0.701,0.242l0.559,0.056
		c0.04,0.003,0.081,0.001,0.121-0.009l0.446-0.111c0.053-0.013,0.103-0.038,0.145-0.074l0.392-0.334
		c0.043-0.037,0.077-0.084,0.099-0.138l0.014-0.035c0.034-0.048,0.058-0.104,0.065-0.167l0.164-0.423l0.111-0.613
		c0.006-0.03,0.007-0.061,0.005-0.091c0.004-0.052-0.003-0.104-0.021-0.153l-0.048-0.326l8.991,21.334l-4.737-2.692
		c-0.01-0.006-0.02-0.011-0.029-0.016c-0.044-0.021-0.091-0.031-0.138-0.033c-0.062-0.001-0.101,0.008-0.148,0.026
		c-0.009,0.004-0.019,0.009-0.027,0.014l-0.661,0.329c-0.008,0.003-0.016,0.007-0.022,0.012c-0.001,0-0.001,0-0.001,0
		c-0.009,0.005-0.017,0.011-0.024,0.016l-0.104,0.069l-0.203,0.04c-0.018,0.004-0.035,0.008-0.053,0.014
		c-0.033,0.012-0.064,0.027-0.092,0.048c-0.019,0.013-0.036,0.028-0.052,0.045c-0.028,0.03-0.052,0.065-0.068,0.104
		c-0.007,0.016-0.013,0.031-0.017,0.048l-0.944,3.268l-0.056,0.15l-0.01-0.175c0.048-0.107,0.038-0.229-0.02-0.324l-0.033-0.573
		c0.043-0.104,0.034-0.219-0.019-0.312l-0.239-2.176l-0.397-2.086l-0.563-2.134l-0.68-2.144l-1.858-4.432l-1.179-2.238L88.6,77.341
		l-1.407-2.242l-1.516-2.183l-1.63-2.185l-1.738-2.125l-1.798-2.073L78.6,64.517l-1.967-1.903l-2.075-1.847l-2.08-1.736
		l-2.137-1.626l-2.186-1.509l-2.144-1.404l-2.191-1.232l-2.189-1.119l-2.153-1.016l-2.139-0.785l-2.144-0.674l-2.028-0.506
		l-1.994-0.396l-1.92-0.168l-1.89-0.054l-1.701,0.17L44.002,49l-1.551,0.462l-0.821,0.361c-0.097-0.008-0.196,0.019-0.271,0.082
		l-1.668,0.996l-1.153,0.925l-1.042,1.103l-0.857,1.257l-0.746,1.378l-0.572,1.49l-0.361,1.479l-2.46-0.456v-3.325
		c0-0.005,0-0.011,0-0.016c0-0.001,0-0.001,0-0.001s0,0,0-0.001c-0.001-0.03-0.006-0.061-0.015-0.09
		c-0.008-0.027-0.019-0.053-0.033-0.076c-0.017-0.03-0.039-0.058-0.064-0.081c-0.022-0.021-0.046-0.038-0.072-0.053
		c0,0-0.001-0.001-0.002-0.001l-5.308-3.018L40.386,35.201z M98.975,115.393c0.05,0.026,0.105,0.04,0.163,0.04h0.033
		c0.01,0.007,0.021,0.013,0.032,0.019c0.173,0.087,0.387,0.018,0.476-0.159l0.056-0.111c0.024-0.049,0.037-0.215,0.037-0.27v-0.335
		c0-0.009,0-0.019-0.001-0.027c0.006-0.077-0.013-0.156-0.059-0.225c-0.021-0.031-0.046-0.059-0.073-0.081
		c-0.047-0.058-0.109-0.099-0.179-0.119c-0.043-0.032-0.093-0.053-0.145-0.063h-0.001c-0.001,0-0.001,0-0.001,0
		c-0.001,0-0.001,0-0.001,0c-0.021-0.004-0.042-0.006-0.063-0.006h-0.052c-0.007-0.001-0.007-0.001-0.008,0l-0.062-0.019
		c-0.013-0.007-0.03-0.013-0.05-0.018c-0.043-0.033-0.094-0.057-0.146-0.067c-0.01-0.009-0.02-0.018-0.03-0.025
		c-0.004-0.009-0.009-0.018-0.014-0.026c-0.003-0.005-0.006-0.01-0.009-0.015v-0.088c0-0.01,0-0.019-0.001-0.027
		c0.001-0.019,0.001-0.038,0-0.057c0-0.001,0-0.001,0-0.002c0.037-0.058,0.057-0.124,0.057-0.192v-0.033
		c0.036-0.057,0.056-0.122,0.056-0.19v-0.104c0.001-0.022-0.001-0.046-0.005-0.068c-0.008-0.044-0.023-0.085-0.045-0.121
		c-0.027-0.045-0.062-0.082-0.104-0.11c-0.004-0.003-0.007-0.005-0.011-0.007c-0.016-0.023-0.032-0.045-0.051-0.063
		c-0.027-0.027-0.059-0.05-0.094-0.066l-0.112-0.056c-0.02-0.01-0.05-0.018-0.081-0.024l0.008-0.021
		c-0.062-0.061-0.142-0.097-0.227-0.103c-0.203-0.132-0.528,0.021-0.546,0.272c-0.034,0.053-0.054,0.114-0.057,0.177
		c-0.012,0.024-0.022,0.051-0.03,0.078l-0.035-0.035c-0.034-0.033-0.07-0.057-0.109-0.071l0.036-0.38l0.067-0.302l0.153-0.213
		l0.232-0.1h0.355l0.406,0.18l0.466,0.313l0.406,0.445l0.369,0.626l0.258,0.591l0.104,0.624l-0.047,0.519l-0.118,0.313l-0.2,0.167
		l-0.293,0.072l-0.335-0.065l-0.111-0.056c-0.006-0.003-0.012-0.006-0.018-0.008l-0.252-0.117c0.013-0.037,0.019-0.076,0.019-0.115
		C98.989,115.445,98.984,115.42,98.975,115.393z M97.748,95.755l0.232-0.1h0.355l0.406,0.18l0.466,0.315l0.406,0.443l0.369,0.627
		l0.258,0.59l0.104,0.624l-0.047,0.519l-0.118,0.313l-0.2,0.167l-0.293,0.072l-0.335-0.065l-0.097-0.048l-0.273-0.17
		c0.005-0.025,0.008-0.052,0.008-0.078c0-0.027-0.008-0.059-0.021-0.091c0.001,0,0.001,0,0.001,0l0.121,0.019
		c0.049,0.024,0.16,0.037,0.215,0.037h0.056c0.091,0,0.161-0.034,0.211-0.09c0.035-0.019,0.067-0.042,0.096-0.069
		c0.066-0.066,0.104-0.213,0.104-0.307v-0.44c0.001-0.064-0.016-0.13-0.051-0.188c-0.001,0-0.001,0-0.001,0c0-0.001,0-0.001,0-0.001
		c-0.001-0.001-0.001-0.001-0.001-0.002c-0.004-0.006-0.008-0.011-0.011-0.017h-0.001c0-0.001,0-0.001,0-0.001
		c-0.014-0.02-0.028-0.036-0.045-0.052l-0.05-0.051c-0.043-0.043-0.092-0.069-0.143-0.082c-0.057-0.045-0.124-0.071-0.194-0.076
		c-0.053-0.035-0.115-0.055-0.181-0.058c-0.05-0.024-0.111-0.042-0.166-0.05c-0.005-0.004-0.009-0.008-0.014-0.012
		c-0.006-0.008-0.013-0.015-0.02-0.022c-0.003-0.005-0.006-0.011-0.009-0.016s-0.006-0.01-0.009-0.015v-0.088
		c0-0.01,0-0.019-0.001-0.027c0-0.002,0-0.005,0-0.007c0.001-0.009,0.001-0.018,0.001-0.026v-0.027
		c0.036-0.057,0.056-0.122,0.056-0.19l0.019-0.12c0.024-0.049,0.037-0.104,0.037-0.158V96.86c0-0.01,0-0.019-0.001-0.027
		c0.005-0.059-0.005-0.119-0.031-0.177c-0.045-0.097-0.127-0.164-0.222-0.191c-0.018-0.013-0.035-0.024-0.055-0.033l-0.074-0.045
		c-0.031-0.03-0.078-0.055-0.13-0.072c-0.058-0.051-0.131-0.081-0.208-0.086c-0.207-0.135-0.536,0.025-0.547,0.284
		c-0.019,0.038-0.033,0.082-0.043,0.126l-0.031,0.061c-0.006,0.013-0.011,0.031-0.016,0.054l-0.031-0.031
		c-0.032-0.032-0.069-0.057-0.109-0.074l0.036-0.378l0.067-0.301L97.748,95.755z M97.648,94.812v-1.184l1.334,0.762
		c-0.019,0-0.038,0-0.057,0.003l-0.445,0.056c-0.003,0-0.006,0.002-0.007,0.001h-0.001h-0.001h-0.001H98.47h-0.001
		c0,0-0.001,0-0.001,0.001h-0.001c-0.001,0-0.001,0-0.002,0c-0.025,0.004-0.051,0.012-0.075,0.021l-0.272,0.108
		c-0.007,0.003-0.013,0.005-0.019,0.008c-0.001,0-0.001,0-0.001,0c-0.005,0.003-0.01,0.005-0.015,0.008L97.648,94.812z
		 M98.959,107.219c0.046,0.014,0.109,0.021,0.155,0.023c0.057,0.037,0.123,0.057,0.191,0.057h0.056c0.099,0,0.181-0.04,0.238-0.105
		c0.024-0.016,0.048-0.033,0.068-0.054c0.066-0.066,0.104-0.157,0.104-0.251v-0.501c0-0.01,0-0.019-0.001-0.027
		c0.006-0.077-0.013-0.155-0.059-0.225c-0.02-0.03-0.044-0.057-0.071-0.079c-0.063-0.08-0.156-0.128-0.255-0.135
		c-0.072-0.047-0.159-0.069-0.242-0.053c-0.018-0.002-0.034-0.003-0.049-0.004c-0.039-0.02-0.084-0.033-0.128-0.043l-0.081-0.076
		c-0.003-0.002-0.005-0.005-0.008-0.007v-0.184c0-0.003,0-0.006,0-0.009l0.019-0.06c0.021-0.043,0.033-0.132,0.036-0.19
		c0.037-0.057,0.057-0.123,0.057-0.191v-0.056c0-0.01,0-0.019-0.001-0.027c0.005-0.059-0.005-0.119-0.031-0.177
		c-0.045-0.097-0.127-0.164-0.222-0.191c-0.018-0.013-0.035-0.024-0.055-0.033l-0.13-0.101c-0.044-0.044-0.123-0.075-0.198-0.091
		l-0.063-0.031c-0.049-0.024-0.103-0.037-0.157-0.037h-0.056c-0.149,0-0.261,0.092-0.306,0.223c-0.01,0.019-0.019,0.037-0.025,0.058
		l-0.042,0.083c-0.006,0.013-0.012,0.029-0.017,0.049c-0.026,0.032-0.046,0.069-0.06,0.109l-0.024-0.025
		c-0.006-0.007-0.013-0.013-0.019-0.019c-0.026-0.022-0.057-0.042-0.089-0.057l0.032-0.379l0.062-0.279l0.159-0.19l0.253-0.145
		h0.334l0.403,0.179l0.489,0.342l0.393,0.485l0.359,0.551l0.261,0.654l0.104,0.622l-0.046,0.464l-0.125,0.331l-0.194,0.193
		l-0.269,0.033l-0.518-0.106h-0.012l-0.201-0.123c0.006-0.026,0.009-0.053,0.009-0.08C98.989,107.301,98.978,107.26,98.959,107.219z
		 M100.267,111.191c-0.023-0.021-0.049-0.038-0.077-0.052l-0.211-0.105l-0.269-0.16c-0.035-0.021-0.073-0.035-0.112-0.043
		l-0.559-0.111c-0.036-0.009-0.075-0.01-0.113-0.004l-0.445,0.056c-0.002,0-0.004,0-0.007,0.001h-0.001h-0.001h-0.001H98.47h-0.001
		h-0.001c0,0.001-0.001,0.001-0.001,0.001h-0.001h-0.001c-0.001,0-0.001,0-0.002,0h-0.001c0,0.001-0.001,0.001-0.001,0.001H98.46
		h-0.001h-0.001h-0.001l-0.001,0.001h-0.001h-0.001h-0.001h-0.001l-0.001,0.001H98.45c0,0-0.001,0-0.002,0
		c-0.001,0.001-0.003,0.001-0.004,0.001s-0.001,0-0.002,0.001c0,0,0,0-0.001,0H98.44c0,0,0,0-0.001,0c0,0-0.001,0-0.001,0.001
		c0,0,0,0-0.001,0h-0.001c0,0,0,0-0.001,0c0,0-0.001,0-0.001,0.001c0,0,0,0-0.001,0h-0.001c-0.001,0-0.001,0.001-0.005,0.001
		c-0.001,0.001-0.001,0.001-0.002,0.001c-0.004,0-0.002,0.001-0.002,0.001c-0.001,0-0.001,0-0.002,0s-0.001,0.001-0.002,0.001
		s-0.001,0-0.002,0c-0.001,0.001-0.001,0.001-0.002,0.001c-0.009,0.003-0.017,0.006-0.025,0.009l-0.273,0.109
		c-0.007,0.003-0.013,0.005-0.019,0.008c-0.006,0.002-0.011,0.005-0.016,0.008l-0.444,0.221c-0.045,0.022-0.083,0.053-0.113,0.089
		l0.122-2.259c0.001-0.008,0.001-0.016,0.001-0.023v-1.761l0.799,0.729l0.442,0.275c0.031,0.021,0.065,0.035,0.103,0.045
		c0.046,0.012,0.096,0.016,0.144,0.008l0.484,0.106c0.039,0.01,0.08,0.011,0.12,0.006l0.447-0.056
		c0.058-0.007,0.112-0.028,0.159-0.061c0.035,0.008,0.07,0.011,0.104,0.007c0.071,0.008,0.148-0.012,0.215-0.053l0.44-0.274
		c0.014-0.008,0.026-0.017,0.038-0.025c0.014-0.011,0.026-0.022,0.037-0.034l0.33-0.329c0.026-0.027,0.049-0.058,0.065-0.092
		l0.224-0.445c0.015-0.028,0.025-0.059,0.031-0.09l0.08-0.401v7.554l-0.036-0.37l-0.249-0.727l-0.359-0.651l-0.498-0.67
		L100.267,111.191z M101.876,105.551l-0.243-0.716l-0.375-0.73l-0.488-0.602l-0.525-0.463l-0.219-0.164
		c-0.006-0.005-0.013-0.01-0.019-0.014c-0.007-0.005-0.014-0.009-0.021-0.013l-0.275-0.165c-0.035-0.021-0.073-0.035-0.112-0.043
		l-0.559-0.111c-0.036-0.008-0.075-0.01-0.113-0.004l-0.446,0.056c-0.006,0.001-0.013,0.002-0.019,0.003H98.46h-0.001h-0.001h-0.001
		l-0.001,0.001h-0.001h-0.001c-0.017,0.003-0.033,0.008-0.049,0.014c-0.001,0-0.001,0-0.002,0v0.001c-0.001,0-0.001,0-0.002,0
		s-0.001,0.001-0.002,0.001c0,0,0,0-0.001,0c-0.001,0.001-0.002,0.001-0.002,0.001c-0.002,0.001-0.004,0.001-0.005,0.002
		l-0.272,0.108c-0.011,0.004-0.021,0.009-0.03,0.014c-0.014,0.006-0.026,0.014-0.038,0.021l-0.402,0.25v-3.947l0.39,0.382
		L98.891,100c0.007,0.005,0.014,0.009,0.021,0.013c0.016,0.009,0.03,0.016,0.046,0.021l0.663,0.181
		c0.052,0.012,0.108,0.011,0.162-0.002l0.447-0.111c0.042-0.01,0.082-0.028,0.117-0.053c0.035,0.007,0.07,0.011,0.104,0.007
		c0.071,0.006,0.148-0.012,0.215-0.053l0.423-0.263c0.022-0.013,0.044-0.027,0.064-0.044c0.01-0.009,0.02-0.018,0.028-0.027
		l0.33-0.329c0.026-0.027,0.049-0.058,0.065-0.092l0.253-0.527l0.082-0.368v7.541L101.876,105.551z M101.876,97.361l-0.249-0.727
		l-0.359-0.651l-0.372-0.5l1.017,0.581v1.668L101.876,97.361z M96.43,93.351l-0.747,2.586l-0.039-0.023l0.748-2.584L96.43,93.351z
		 M89.491,103.769v-3.302l0.709-0.397c0.006-0.004,0.012-0.007,0.017-0.011c0.001,0,0.001,0,0.001,0
		c0.004-0.002,0.008-0.005,0.011-0.007l0.166-0.109c0.025-0.018,0.05-0.039,0.07-0.062l0.391-0.446
		c0.029-0.033,0.052-0.07,0.066-0.111l0.224-0.612c0.012-0.031,0.019-0.063,0.021-0.097l0.056-0.774c0-0.01,0.001-0.02,0.001-0.028
		c0-0.001,0-0.001,0-0.001s0,0,0-0.001c0-0.011,0-0.022-0.001-0.033l-0.065-0.889l-0.243-0.948l-0.411-0.932l-0.536-0.883
		l-0.646-0.756l-0.399-0.362l5.197,2.985l0.028,0.495c0.001,0.01,0.002,0.02,0.003,0.029c0,0.001,0,0.001,0,0.001
		c0.007,0.055,0.026,0.104,0.055,0.148c0.024,0.037,0.057,0.07,0.095,0.097c0.012,0.009,0.023,0.016,0.036,0.022l0.214,0.118
		l-0.252,0.69l-0.815,1.632l-1.039,1.529l-1.203,1.422l-1.363,1.308L89.491,103.769z M65.547,83.065l-0.944,1.431l-0.14-0.267
		l0.815-1.239c0.076-0.024,0.143-0.075,0.188-0.148c0.002-0.004,0.005-0.008,0.007-0.012c0.002,0.004,0.006,0.008,0.009,0.013
		c0.005,0.044,0.027,0.096,0.055,0.146v0.001C65.539,83.015,65.542,83.041,65.547,83.065z M66.495,83.698
		c0.052-0.025,0.098-0.063,0.134-0.114c0.004-0.006,0.008-0.012,0.012-0.018l0.071,0.071v0.02c0,0.04,0.017,0.089,0.041,0.137
		l-1.417,2.098l-0.142-0.271L66.495,83.698z M67.614,84.511c0.092-0.012,0.179-0.059,0.238-0.137
		c0.011,0.014,0.023,0.028,0.035,0.041c0.004,0.041,0.015,0.08,0.032,0.117l-1.833,2.787l-0.147-0.28L67.614,84.511z M67.941,85.828
		v1.917l-1.245,0.737l-0.233-0.444L67.941,85.828z M68.471,88.256c0.013-0.008,0.025-0.016,0.038-0.024
		c0.039-0.029,0.071-0.065,0.094-0.105c0.025-0.044,0.042-0.094,0.046-0.146c0.001-0.013,0.001-0.025,0.001-0.039v-3.275
		c0-0.01,0-0.021-0.001-0.031v-0.001c0.001-0.011,0.001-0.022,0.001-0.033v-0.106c0-0.056-0.013-0.11-0.038-0.159l-0.02-0.039
		c-0.004-0.044-0.016-0.088-0.036-0.127l-0.056-0.111c-0.011-0.022-0.047-0.065-0.078-0.102l-0.034-0.066
		c-0.017-0.034-0.095-0.121-0.123-0.148l-0.306,0.196l0.195-0.307c-0.066-0.066-0.212-0.104-0.307-0.104h-0.223
		c-0.052,0-0.12,0.028-0.182,0.065c-0.007-0.015-0.014-0.029-0.022-0.044v-0.002c0-0.056-0.013-0.11-0.038-0.159l-0.056-0.111
		c-0.017-0.034-0.151-0.177-0.179-0.204l-0.112-0.111l-0.25,0.252l0.139-0.362c-0.066-0.066-0.156-0.104-0.25-0.104h-0.168
		c-0.094,0-0.184,0.037-0.25,0.104l0.018,0.029c-0.006,0.002-0.012,0.004-0.017,0.007l-0.01-0.008c0-0.048-0.024-0.108-0.056-0.166
		v-0.001c0-0.072-0.055-0.176-0.11-0.25l-0.04-0.077c-0.017-0.034-0.095-0.12-0.122-0.147c-0.027-0.026-0.058-0.049-0.092-0.066
		l-0.112-0.056c-0.015-0.007-0.034-0.014-0.057-0.019c-0.074-0.048-0.19-0.074-0.269-0.074h-0.112c-0.067,0-0.162,0.048-0.234,0.1
		c-0.002-0.006-0.005-0.011-0.008-0.016l-0.02-0.039c-0.004-0.044-0.016-0.088-0.036-0.127l-0.056-0.111
		c-0.012-0.025-0.086-0.106-0.136-0.16l-0.033-0.063c-0.042-0.084-0.143-0.146-0.245-0.176l0.011-0.028
		c-0.066-0.065-0.156-0.103-0.25-0.103h-0.224c-0.082,0-0.157,0.037-0.216,0.095c-0.006-0.022-0.014-0.044-0.025-0.064l-0.055-0.112
		c-0.011-0.022-0.047-0.066-0.08-0.103l-0.033-0.065c-0.017-0.034-0.151-0.177-0.178-0.204c0,0-0.112-0.111-0.113-0.112
		c-0.066-0.065-0.212-0.103-0.305-0.103H62.82c-0.061,0-0.142,0.038-0.21,0.084c-0.017-0.066-0.061-0.143-0.105-0.201l-0.038-0.076
		c-0.017-0.034-0.095-0.121-0.123-0.148c0,0-0.112-0.111-0.112-0.112l-0.223,0.144l-0.025-0.039l0.137-0.215
		c-0.031-0.03-0.079-0.055-0.13-0.072c-0.062-0.048-0.165-0.078-0.247-0.086l-0.481-0.747l-0.044-0.06l2.312,1.296l4.628,2.78
		l4.404,2.834l4.235,2.945l4.067,3.055l2.885,2.369l-0.426-0.227c-0.044-0.023-0.091-0.037-0.14-0.041l-0.727-0.056
		c-0.087-0.007-0.159,0.015-0.225,0.059l-0.086,0.058c-0.039,0.007-0.078,0.021-0.114,0.041l-2.961,1.671
		c-0.062,0.034-0.108,0.084-0.139,0.141l-0.291,0.218c-0.044,0.033-0.08,0.076-0.105,0.125l-0.306,0.631l-0.084,0.355v-0.767
		c0-0.01,0-0.021-0.001-0.03c-0.003-0.048-0.017-0.094-0.037-0.134c-0.021-0.044-0.053-0.084-0.094-0.116
		c-0.007-0.006-0.014-0.011-0.021-0.017l-2.739-1.95l-2.86-1.957l-5.275-3.328L68.471,88.256z M64.343,82.305l-0.532,0.812
		l-0.16-0.248l0.431-0.613c0.065-0.029,0.121-0.077,0.16-0.143c0.022,0.026,0.048,0.054,0.069,0.076
		C64.315,82.229,64.326,82.268,64.343,82.305z M63.153,81.648l-0.151,0.211l-0.164-0.255l0.011-0.017
		c0.058-0.025,0.109-0.065,0.149-0.121c0.012-0.017,0.022-0.035,0.031-0.054c0.001,0.001,0.002,0.002,0.003,0.003l0.03,0.06
		c0.01,0.021,0.044,0.063,0.076,0.098C63.14,81.6,63.145,81.624,63.153,81.648z M37.292,57.85l0.442-1.545l0.478-1.447l0.703-1.3
		l0.807-1.132l0.978-1.032l0.955-0.81l1.04-0.458l1.468-0.437l1.595-0.275l1.63-0.165l1.823,0.055l1.862,0.161l1.939,0.386
		l1.991,0.496l2.107,0.663l2.094,0.768l2.113,0.998l2.167,1.107l2.159,1.214l2.116,1.388l2.166,1.494l0.549,0.418l-3.917-2.521
		l-4.001-2.021l-4.011-1.518l-3.847-0.899l-2.961-0.279l-2.8,0.176l-2.577,0.636l-2.013,0.925l-1.778,1.264l-1.558,1.565
		l-1.255,2.001l-0.861,2.021l-1.777-0.606L37.292,57.85z M37.057,56.095L36.6,57.703l-0.167,1.203l-0.646-0.221L35.65,58.66
		l0.347-1.393l0.54-1.407l0.708-1.306l0.802-1.182l0.545-0.576l-0.275,0.386l-0.751,1.394L37.057,56.095z M40.38,58.054l1.18-1.889
		l1.463-1.466l1.674-1.192l1.893-0.869l2.452-0.604l2.683-0.168l2.858,0.271l3.755,0.878l3.932,1.489l3.935,1.987l4.389,2.823
		l3.058,2.384l3.053,2.655l2.889,2.934l3.502,4.099l3.17,4.436l2.499,4.095l0.023,0.048l-3.834-0.337l-3.481-0.056l-3.54,0.112
		l-5.773,0.505l-2.473,0.352l-3.698-2.209l-0.565-0.974c-0.016-0.028-0.036-0.056-0.06-0.079c-0.01-0.01-0.021-0.02-0.033-0.028
		l0-0.001c0,0,0,0,0,0c0,0,0,0,0-0.001h0c-0.015-0.011-0.031-0.021-0.047-0.03l-3.582-2.009l-3.691-1.896l-2.25-1.122l-1.126-1.267
		l-3.6-3.476l-3.771-3.028l-3.836-2.528L39.58,59.98l-0.015-0.006L40.38,58.054z M86.986,92.642l0.557,0.225l0.628,0.412
		l0.639,0.581l0.582,0.677l0.482,0.796l0.111,0.251l-1.905-1.668l-1.562-1.312L86.986,92.642z M86.428,91.884
		c-0.045-0.004-0.089,0.001-0.131,0.014l-0.455,0.137l-0.321-0.27l0.393-0.066l0.978,0.151l0.154,0.086L86.428,91.884z
		 M88.23,91.792l0.066-0.037l5.768,3.346l0.003,0.045L88.23,91.792z M88.482,91.042c-0.011-0.006-0.022-0.013-0.033-0.018
		c-0.009-0.004-0.018-0.008-0.026-0.011l-0.582-0.23l-0.62-0.18l-0.588-0.056l-0.446,0.057c-0.032,0.004-0.064,0.013-0.094,0.025
		l-0.387,0.165c-0.01,0.004-0.02,0.008-0.029,0.014c-0.009,0.005-0.019,0.01-0.027,0.016l-0.634,0.389l-0.112,0.044l-2.595-2.09
		l-3.082-2.29l-3.19-2.233l-3.251-2.178l-2.164-1.344l1.617-0.23l5.734-0.501l3.503-0.111l3.442,0.055l3.434,0.274l0.822,0.138
		l1.699,3.428l1.554,4.089l1.109,4.091l0.315,1.804L88.482,91.042z M65.237,78.452l-0.49,0.269l-0.224-0.401l0.467-0.294
		L65.237,78.452z M61.362,75.833l3.056,1.714l-0.379,0.239l-3.4-1.907l-2.961-1.56c-0.016-0.009-0.032-0.016-0.049-0.021
		l-0.608-0.685L61.362,75.833z M60.3,76.502l3.488,1.956l0.479,0.86l-4.585-2.552l-0.224-0.111
		c-0.011-0.006-0.022-0.011-0.034-0.015l-0.711-0.975L60.3,76.502z M84.685,101.563l-0.065-0.889l-0.243-0.948l-0.411-0.932
		l-0.528-0.872l-0.654-0.822l-0.713-0.646l-0.671-0.445c-0.026-0.018-0.055-0.031-0.085-0.041l-0.604-0.193l1.597-0.9
		c0.054-0.007,0.106-0.025,0.155-0.058l0.065-0.044l0.53,0.04l0.717,0.382l0.704,0.796l0.7,1.119l0.539,1.272l0.272,1.29
		l0.053,0.738l-0.151,0.907l-0.259,0.516l-0.115,0.058c-0.004,0.002-0.008,0.004-0.012,0.006c-0.006,0.003-0.011,0.006-0.016,0.009
		l-0.873,0.514c0.007-0.023,0.011-0.047,0.013-0.071l0.055-0.719c0.001-0.01,0.002-0.021,0.002-0.03c0-0.001,0-0.001,0-0.001v-0.001
		C84.686,101.586,84.686,101.574,84.685,101.563z M79.249,101.93c0.032,0.024,0.067,0.044,0.105,0.058l0.616,0.717l0.719,0.592
		l0.671,0.39c0.026,0.016,0.055,0.027,0.085,0.035l0.097,0.049l-0.952,0.538l-4.48-2.594l1.663-0.926L79.249,101.93z
		 M78.148,100.186v-0.849l0.219,0.85l0.106,0.227L78.148,100.186z M81.428,102.9c-0.018-0.01-0.036-0.018-0.055-0.024l-0.279-0.159
		l-0.626-0.515l-0.481-0.561c-0.02-0.102-0.084-0.192-0.178-0.244l-0.408-0.676l-0.368-0.771l-0.214-0.831l-0.056-0.727l0.052-0.676
		l0.18-0.493l0.289-0.288l0.389-0.173l0.486-0.044l0.53,0.17l0.611,0.347l0.582,0.523l0.587,0.688l0.479,0.737l0.369,0.771
		l0.216,0.853l0.105,0.787l-0.083,0.594l-0.201,0.501l-0.281,0.319l-0.382,0.183h-0.492l-0.473-0.129L81.428,102.9z M72.007,92.976
		l2.844,1.946l2.589,1.843v3.397l-2.216,1.233c-0.014,0.008-0.027,0.017-0.04,0.025l-0.377,0.259l-0.306,0.308l-0.242,0.303
		l-0.493,0.824l-0.219,0.708c-0.013,0.037-0.019,0.075-0.019,0.113v0.384c0,0.005,0,0.009,0,0.013v2.349l-1.152,0.647l-0.213-1.901
		l-0.726-3.62c0-0.003-0.001-0.004-0.001-0.005c-0.001-0.007-0.003-0.013-0.005-0.02l-0.902-3.479l-1.74-4.923l-1.423-3.333
		L72.007,92.976z M73.528,107.494v0.23c0,0.029,0.004,0.057,0.01,0.084l-0.084,0.314l-0.485,0.359
		c-0.041,0.026-0.076,0.06-0.103,0.098c-0.032,0.035-0.06,0.08-0.079,0.127l-0.049,0.048c-0.027,0.027-0.05,0.068-0.066,0.113
		l-0.112,0.08l-0.004-0.013l-0.094-0.843L73.528,107.494z M73.288,109.284l0.019-0.064c0.006-0.012,0.011-0.027,0.016-0.046
		l0.029-0.028c0.007-0.007,0.013-0.015,0.019-0.022c0.021-0.007,0.042-0.015,0.062-0.025l0.106-0.053
		c0.034-0.018,0.065-0.04,0.093-0.066l0.17-0.124c0.068-0.046,0.116-0.112,0.14-0.186l0.025-0.024
		c0.027-0.027,0.05-0.059,0.067-0.094l0.204-0.659v-0.996c0-0.005,0-0.01,0-0.015v-1.939l4.487,2.597v1.098l-3.994,1.533
		l-0.919,0.204l-0.523-0.07V109.284z M74.237,104.122l0.177-0.733l0.416-0.68l0.423-0.483l0.151-0.101l4.57,2.646l-0.52,0.528
		l-0.254,0.391l-0.379,1.086L74.237,104.122z M79.434,107.355l0.037-0.298l0.351-1.03l0.179-0.28l0.787-0.736l1.431-0.81
		l0.759,0.625l-0.259,0.334l-0.503,0.39c-0.003,0.002-0.006,0.004-0.008,0.006l-0.305,0.246l-0.557,0.57l-0.358,0.603l-0.279,0.669
		c-0.018,0.043-0.027,0.09-0.027,0.137v0.104l-1.247,0.479V107.355z M81.899,106.806l0.474-0.476l0.279-0.223
		c0.001-0.001,0.003-0.002,0.004-0.003l0.555-0.442l0.32-0.407l0.527,0.466l0.47,0.36l0.238,0.235l-3.261,1.252L81.899,106.806z
		 M83.989,104.714l-0.897-0.694l0.099-0.009c0.049-0.005,0.097-0.02,0.14-0.043l0.234-0.13c0.037-0.008,0.074-0.021,0.108-0.042
		l2.168-1.275l0.213-0.105c0.068-0.034,0.124-0.09,0.158-0.158l0.336-0.669c0.017-0.032,0.027-0.065,0.033-0.101l0.166-0.994
		c0.003-0.017,0.005-0.033,0.006-0.05s0-0.034-0.002-0.051l-0.062-0.818l-0.299-1.401l-0.585-1.388l-0.761-1.216l-0.4-0.456
		l3.579,3.079v0.534l-0.123,0.547l-0.067,0.053l-0.448-0.207c-0.028-0.017-0.059-0.029-0.091-0.038
		c-0.041-0.011-0.082-0.014-0.125-0.01c-0.053,0.005-0.103,0.022-0.146,0.048c-0.041,0.024-0.077,0.058-0.105,0.098
		c-0.025,0.034-0.045,0.074-0.056,0.116c-0.009,0.032-0.013,0.064-0.012,0.097v5.849l-1.188,0.617l-0.368,0.142L83.989,104.714z
		 M87.759,100l0.308,0.051c0.061,0.011,0.123,0.006,0.185-0.015l0.531-0.191v0.408c0,0.004,0,0.008,0,0.013v4.029l-0.368,0.273
		l-0.655,0.341V100z M86.797,94.419l-2.806-2.404l-2.912-2.29l-3.083-2.291l-3.134-2.176l-3.248-2.179l-3.361-2.122l-2.931-1.743
		l0.396-0.218l3.284,1.954l0.126,0.079c0.049,0.166,0.216,0.282,0.39,0.249l0.01-0.001l2.872,1.784l3.235,2.167l3.176,2.223
		l3.062,2.276l2.899,2.335l2.845,2.391l2.291,2.005l-0.585,0.219L86.797,94.419z M90.234,97.094v0.688l-0.719,0.259
		c0.007-0.008,0.013-0.016,0.019-0.023h0.001c0-0.001,0-0.001,0-0.001v-0.001h0.001c0,0,0-0.001,0.001-0.001v-0.001
		c0.02-0.027,0.035-0.057,0.045-0.087c0.001-0.001,0.001-0.001,0.001-0.001c0-0.001,0-0.001,0-0.001
		c0.006-0.017,0.01-0.032,0.014-0.05c0.004-0.024,0.007-0.049,0.006-0.074v-0.47L90.234,97.094z M88.893,99.019l1.022-0.368
		c-0.019,0.015-0.035,0.032-0.05,0.05l-0.979,0.353L88.893,99.019z M89.813,99.473l-0.322,0.181v-0.064L89.813,99.473z
		 M91.754,102.661l1.251-1.479l1.085-1.6l0.855-1.709l0.33-0.897c0.014-0.018,0.026-0.036,0.038-0.056
		c0.029-0.054,0.044-0.111,0.044-0.169l0.057-0.152l0.042,0.024l-0.817,2.067l-0.925,1.634l-1.145,1.526l-1.366,1.419l-0.571,0.466
		L91.754,102.661z M31.168,54.949c-0.001,0.001-0.002,0.002-0.003,0.002l-0.012-0.007l0-0.001c0.003-0.004,0.006-0.009,0.009-0.014
		c0.02-0.032,0.034-0.067,0.042-0.103v-0.001c0,0,0-0.001,0-0.001c0.013-0.055,0.012-0.11,0-0.163c0-0.001,0-0.001,0-0.002
		c0-0.002,0-0.001,0-0.003c-0.004-0.018-0.01-0.034-0.017-0.05l0.27,0.153l-0.111,0.07c-0.005,0.003-0.011,0.007-0.016,0.011
		L31.168,54.949z M31.177,57.715v0.298h-0.057L31.177,57.715z M30.857,55.593l-0.458,2.421h-0.007l0.447-2.432L30.857,55.593z
		 M30.287,54.824c0,0.001-0.001,0.002-0.001,0.003c-0.015,0.022-0.028,0.048-0.037,0.074c-0.008,0.021-0.014,0.043-0.017,0.064
		l-0.153,0.836l-0.129-0.381l-0.362-0.714l-0.347-0.48L30.287,54.824z M26.243,52.514l1.046,0.599l-0.487,0.054
		c-0.042,0.004-0.082,0.016-0.12,0.034c0,0-0.001,0.001-0.002,0.001l-0.221,0.11c-0.003,0.001-0.007,0.003-0.01,0.005
		c-0.009,0.005-0.018,0.01-0.026,0.016l-0.18,0.112V52.514z M25.852,55.117l0.092-0.41l0.138-0.241l0.215-0.092h0.355l0.403,0.179
		l0.489,0.342l0.392,0.485l0.359,0.551l0.261,0.659l0.103,0.565l-0.047,0.517l-0.118,0.313l-0.088,0.073l-0.623,0.123
		c-0.018-0.003-0.036-0.004-0.053-0.004c-0.007,0-0.014,0-0.02,0.001c-0.032-0.034-0.07-0.062-0.115-0.082l-0.295-0.131
		c0.002-0.015,0.003-0.03,0.003-0.046c0-0.01,0-0.019-0.001-0.027c0-0.01,0.001-0.019,0.001-0.028c0-0.019-0.004-0.04-0.01-0.062
		c0.046,0.014,0.094,0.022,0.135,0.024c0.057,0.037,0.124,0.057,0.192,0.057h0.111c0.196,0,0.354-0.159,0.354-0.354
		c0-0.01,0-0.019-0.001-0.027c0-0.01,0.001-0.019,0.001-0.028v-0.553c0-0.003,0-0.006,0-0.008v-0.052
		c0-0.195-0.159-0.354-0.354-0.354H27.7c-0.051-0.032-0.108-0.051-0.167-0.055c-0.05-0.032-0.107-0.052-0.167-0.056
		c-0.037-0.023-0.077-0.04-0.119-0.049c-0.017-0.016-0.035-0.03-0.054-0.043v-0.089c0.036-0.057,0.056-0.122,0.056-0.19l0.018-0.119
		c0.029-0.057,0.042-0.121,0.037-0.186c0-0.011,0.001-0.021,0.001-0.029v-0.104c0-0.028-0.002-0.057-0.008-0.085
		c-0.004-0.018-0.009-0.035-0.016-0.052V55.45c0,0,0,0,0-0.001c-0.01-0.024-0.023-0.049-0.039-0.072
		c-0.027-0.039-0.062-0.071-0.1-0.096c-0.021-0.014-0.044-0.024-0.068-0.033l0.019-0.028c-0.042-0.043-0.115-0.073-0.187-0.091
		l-0.039-0.023c-0.031-0.03-0.078-0.055-0.13-0.072c-0.064-0.056-0.147-0.087-0.232-0.087h-0.112c-0.161,0-0.297,0.107-0.34,0.254
		c-0.045,0.062-0.07,0.135-0.07,0.212l-0.003,0.091c-0.002-0.002-0.004-0.005-0.006-0.007l-0.054-0.054
		c-0.02-0.021-0.042-0.038-0.065-0.053V55.117z M26.648,58.407l-0.406,0.08v-0.452L26.648,58.407z M32.765,135.452l-2.88-0.495
		l-2.877-0.717l-2.768-0.937l-2.706-1.154l-2.61-1.44l-2.483-1.537l-2.333-1.826l-2.211-1.927l-2.048-2.151l-1.828-2.262
		l-1.663-2.431l-1.491-2.528l-1.221-2.71l-1.053-2.761l-0.83-2.808l-0.555-2.877l-0.388-2.919l-0.111-2.939l0.109-2.911l0.33-2.865
		l0.61-2.876l0.771-2.806l0.58-1.494c0.027-0.041,0.046-0.089,0.054-0.14l0.419-1.077l1.216-2.647l1.437-2.537l1.663-2.433
		l1.762-2.255l2.06-2.109l1.077-0.97l1.29-0.917l1.463-0.705l1.525-0.492l1.629-0.328l1.755-0.11l1.64,0.049l1.244,0.219
		l1.932,0.495l1.982,0.656l2.04,0.879l2.059,1.109l1.979,1.205l2.054,1.493l1.995,1.602l1.948,1.775l1.938,1.876l1.834,2.05
		l1.779,2.161l1.718,2.264l1.558,2.385l1.503,2.497l1.388,2.49l1.277,2.603l1.113,2.605l1.001,2.605l0.886,2.59l0.668,2.664
		l0.556,2.548l0.443,2.534l0.222,2.427l0.056,2.435l-0.054,2.258l-0.218,2.188l-0.441,2.039l-0.551,1.926l-0.425,1.173l-0.762,1.477
		l-0.982,1.417l-1.088,1.252l-1.19,1.084l-1.355,0.923l-1.398,0.702l-1.441,0.442l-2.867,0.66l-2.878,0.443l-2.929,0.222
		l-2.99-0.054L32.765,135.452z M43.844,138.68l-1.908-0.105l-1.993-0.386l-1.975-0.491l-2.098-0.769l-1.3-0.596l1.09,0.103
		l3.05,0.055l1.989-0.15c0.041,0.021,0.086,0.035,0.134,0.039l2.565,0.111l1.833-0.117l1.772-0.345l1.61-0.52l1.554-0.75
		l0.289-0.196c0.034-0.017,0.064-0.037,0.09-0.062l1.052-0.715l1.325-1.154l1.141-1.368l1.021-1.529l0.917-1.666l0.22-0.603
		l0.099-0.195c0.029-0.058,0.041-0.12,0.038-0.181l0.322-0.884l0.565-1.972l0.453-2.102l0.226-2.255l0.056-2.301l-0.057-2.476
		l-0.228-2.479l-0.45-2.577l-0.562-2.573l-0.679-2.703l-0.898-2.631l-1.01-2.631l-1.125-2.635l-1.294-2.636l-1.402-2.517
		l-1.516-2.518l-1.579-2.416l-1.741-2.296l-1.798-2.184l-1.861-2.079l-1.963-1.901l-1.972-1.797l-2.025-1.627l-2.091-1.52
		l-2.01-1.225c-0.001-0.001-0.002-0.001-0.003-0.002c0,0,0,0,0,0c0,0,0,0,0-0.001c-0.006-0.003-0.012-0.006-0.017-0.009
		l-2.092-1.126l-2.096-0.903l-2.035-0.675l-1.982-0.508l-0.841-0.146c-0.062-0.052-0.141-0.082-0.227-0.082l-0.884-0.111
		l-1.932-0.055l-1.835,0.117l-1.722,0.347l-1.658,0.573l-1.101,0.53c-0.042,0.01-0.082,0.027-0.119,0.053l-0.334,0.167l-1.431,0.973
		l-1.319,1.148l-1.145,1.317l-1.028,1.542l-1.117,2.229c-0.019,0.037-0.03,0.075-0.035,0.113l-1.13,1.654l-1.466,2.589l-0.534,1.163
		l0.142-1.5l0.444-2.158l0.49-1.965l0.716-1.87l0.815-1.741l0.988-1.535l1.082-1.409l1.26-1.204l1.301-1.031l1.454-0.864
		l1.593-0.604l1.688-0.491l1.744-0.275l1.803-0.057l1.928,0.164l1.977,0.327l2.042,0.549l2.04,0.714l2.103,0.937l2.111,1.108
		l2.092,1.316l2.061,1.499l2.099,1.595l2.004,1.832l1.998,1.936l1.945,2.105l1.836,2.163l1.83,2.32l1.671,2.443l1.611,2.491
		l1.503,2.609l1.386,2.597l1.226,2.721l1.112,2.659l1,2.713l0.834,2.716l0.722,2.711l0.555,2.655l0.389,2.597l0.222,2.539
		l0.056,2.491l-0.054,2.369l-0.22,2.256l-0.384,2.143l-0.547,2.027l-0.714,1.866l-0.82,1.694l-0.981,1.581l-1.091,1.363
		l-1.193,1.194l-1.362,1.035l-1.464,0.869l-1.576,0.654l-1.638,0.438l-1.802,0.274L43.844,138.68z M55.411,135.279l-1.439,1.226
		l-1.195,0.752l-0.133,0.076c-0.025,0.015-0.047,0.031-0.067,0.05l-1.601,0.812l-1.508,0.502c-0.029,0.009-0.056,0.022-0.08,0.038
		c-0.024,0.001-0.049,0.006-0.073,0.013l-2.103,0.434l-0.878,0.054l1.27-0.193l1.721-0.46l1.665-0.691l1.543-0.915l1.433-1.09
		l1.255-1.255l1.142-1.427l1.024-1.648l0.85-1.755l0.738-1.928l0.565-2.092l0.395-2.201l0.225-2.311l0.056-2.411l-0.057-2.53
		l-0.226-2.584l-0.395-2.638l-0.563-2.693l-0.73-2.743l-0.844-2.747l-1.011-2.745l-1.121-2.683l-1.24-2.751l-1.402-2.628
		l-1.518-2.635l-1.625-2.515l-1.69-2.471l-1.852-2.35l-1.854-2.184l-1.969-2.131l-2.019-1.957l-2.036-1.859l-2.129-1.62
		l-2.087-1.517l-2.12-1.335c-0.004-0.003-0.009-0.006-0.014-0.009c-0.006-0.003-0.012-0.006-0.017-0.009l-2.14-1.123l-2.15-0.958
		l-2.092-0.732l-2.102-0.563l-2.039-0.338l-1.997-0.169l-1.888,0.06l-1.832,0.289l-1.759,0.511l-1.675,0.639l-1.548,0.918
		l-1.366,1.08l-1.321,1.266l-0.765,0.994l0.642-0.878l1.157-1.319l0.167-0.167c0.019-0.019,0.036-0.04,0.049-0.062
		c0.015-0.01,0.03-0.021,0.044-0.032l0.82-0.711l1.35-1.028l1.533-0.82l1.589-0.657l0.713-0.219l0.969-0.215l1.801-0.275l1.86-0.057
		l1.974,0.161l1.986,0.386l2.045,0.55l2.086,0.709l2.113,0.998l2.166,1.107l2.097,1.32l2.161,1.49l2.106,1.657l2.053,1.825
		l2.005,1.999l1.998,2.102l1.888,2.214l1.783,2.334l1.775,2.432l1.616,2.556l1.555,2.601l1.39,2.661l1.28,2.718l1.166,2.711
		l1.001,2.773l0.891,2.774l0.776,2.704l0.556,2.717l0.444,2.653l0.278,2.596l0.111,2.54l-0.055,2.434l-0.163,2.304l-0.387,2.208
		l-0.494,2.083l-0.661,1.927l-0.764,1.803l-0.926,1.634l-1.096,1.478L55.411,135.279z M56.527,135.104l0.488-0.538l1.141-1.541
		l0.968-1.707l0.792-1.862l0.68-1.983l0.507-2.137l0.396-2.265l0.168-2.357l0.056-2.475l-0.113-2.585l-0.282-2.64l-0.45-2.687
		l-0.565-2.756l-0.786-2.741l-0.898-2.797l-1.013-2.805l-1.178-2.742l-1.292-2.742l-1.407-2.691l-1.569-2.626l-1.633-2.583
		l-1.793-2.457l-1.8-2.354l-1.913-2.243l-2.018-2.123l-2.026-2.02l-2.084-1.853l-2.141-1.685l-2.191-1.512l-2.12-1.335
		c-0.005-0.004-0.011-0.007-0.017-0.011c-0.006-0.003-0.012-0.006-0.018-0.009l-2.186-1.117l-2.16-1.019l-2.146-0.731l-2.092-0.562
		l-2.049-0.396l-2.051-0.168l-1.942,0.06l-1.867,0.284l-0.249,0.055l7.189-4.127l2.758-1.196l2.146-0.425l0.175,0.035
		c0.052,0.011,0.104,0.008,0.155-0.004l0.447-0.111c0.018-0.004,0.036-0.011,0.054-0.018c0.12,0.05,0.26,0.035,0.366-0.054
		l0.963-0.031c0.027,0.002,0.055,0.001,0.081,0l0.635-0.002c0.035,0.006,0.067,0.006,0.102,0l0.727-0.001
		c0.039,0.006,0.081,0.005,0.12,0l0.488-0.001c0.002,0,0.004,0.001,0.006,0.001l3.521,0.654l3.238,1.106
		c0.021,0.018,0.044,0.033,0.07,0.046c0.056,0.027,0.119,0.034,0.174,0.037l3.98,1.946l3.772,2.487l3.72,2.987l3.557,3.435
		l1.06,1.192c0.029,0.063,0.076,0.119,0.14,0.157l2.243,2.523l3.118,4.272l0.517,0.803c0.008,0.082,0.049,0.163,0.116,0.23
		c0.019,0.02,0.041,0.035,0.063,0.049l0.441,0.686c0.018,0.049,0.046,0.095,0.086,0.133l0.963,1.495
		c0.018,0.08,0.063,0.153,0.133,0.206l0.418,0.648c-0.005,0.12,0.051,0.24,0.16,0.312c0.015,0.009,0.029,0.018,0.045,0.024
		l0.088,0.169c0.013,0.045,0.035,0.087,0.065,0.124l0.425,0.809c0.008,0.094,0.052,0.183,0.128,0.245l0.104,0.197
		c0.013,0.057,0.041,0.11,0.082,0.155l0.412,0.785c0.006,0.1,0.053,0.196,0.137,0.261l0.086,0.164c0,0.113,0.054,0.225,0.154,0.293
		l0.768,1.463l0.083,0.195c0,0.062,0.016,0.124,0.049,0.181c0.017,0.028,0.037,0.054,0.06,0.075l1.867,4.375l1.723,4.873
		l0.892,3.444l0.719,3.581l0.391,3.496l0.169,4.899l-0.33,3.579l-0.713,3.3l-1.053,2.98l-1.246,2.276l-1.469,2.016l-1.71,1.65
		l-1.874,1.264c-0.033,0.022-0.061,0.049-0.084,0.079L56.527,135.104z M67.765,131.287l-6.264,1.778l0.732-0.42
		c0.028-0.002,0.056-0.008,0.084-0.018L65,131.793l1.497-0.498l1.343-0.396L67.765,131.287z M88.446,129.726l-1.343-0.486
		l-1.205-0.545l-1.225-0.666l-1.108-0.653l0.126-0.031c0.028-0.007,0.056-0.018,0.081-0.031c0.146,0.08,0.331,0.047,0.439-0.085
		l0.327-0.185c0.018-0.009,0.036-0.02,0.053-0.031c0.021-0.015,0.038-0.03,0.055-0.047l0.338-0.29
		c0.047-0.033,0.085-0.078,0.111-0.13l0.031-0.062l0.348-0.085c0.001,0,0.002,0,0.004-0.001l0.411-0.104l1.515-0.219h0.738
		c0,0.001,0,0.001,0,0.002c-0.021,0.046-0.031,0.095-0.031,0.144c0,0.048,0.01,0.098,0.03,0.145c0,0,0,0.001,0.001,0.001
		c0.003,0.008,0.007,0.016,0.011,0.023l0.145,0.279l0.098,0.28l0.051,0.305V129.726z M88.745,125.383
		c-0.035-0.013-0.073-0.019-0.111-0.019l-1.279,0.004l-1.601,0.229l-0.447,0.111l-0.413,0.101c-0.023,0.013-0.117,0.014-0.17,0.041
		l-6.959,1.697l-7.543,1.894c-0.005,0.001-0.01,0.002-0.014,0.004l-3.924,1.174l-1.5,0.499l-0.126,0.038l1.26-0.85
		c0.01-0.007,0.02-0.014,0.029-0.021c0.011-0.008,0.021-0.018,0.03-0.026l1.766-1.713l1.533-2.1l1.282-2.335
		c0.005-0.009,0.01-0.018,0.015-0.027v-0.001c0.006-0.012,0.011-0.023,0.015-0.036l1.072-3.044l0.731-3.385l0.338-3.666
		l-0.109-3.221c0.022,0.043,0.055,0.081,0.092,0.111c0.017,0.021,0.035,0.039,0.057,0.056c0.033,0.042,0.077,0.076,0.127,0.1
		l0.838,0.391c0.047,0.021,0.098,0.033,0.149,0.033l1.036-0.011l0.666-0.167c0.008-0.002,0.017-0.004,0.024-0.006
		c0.01-0.003,0.019-0.007,0.028-0.011l11.166-4.342c0.004,0,0.005-0.002,0.005-0.002h0.001c0.007-0.003,0.015-0.006,0.021-0.01
		l1.715-0.801l1.597-1.026l1.539-1.255l1.426-1.481l1.198-1.598l0.971-1.716l0.948-2.391c0.007-0.015,0.012-0.03,0.016-0.046
		l0.699-2.42v1.513l-0.005,0.022c-0.018,0.029-0.031,0.062-0.04,0.096l-0.11,0.438c-0.005,0.018-0.008,0.034-0.01,0.052
		c-0.003,0.018-0.003,0.035-0.003,0.052l0.002,0.404c-0.001,0.01-0.001,0.02,0,0.03l0.072,0.728l0.094,0.275v6.036l-0.005,0.023
		c-0.02,0.032-0.034,0.068-0.042,0.105l-0.111,0.493c-0.003,0.015-0.006,0.029-0.008,0.045c-0.002,0.017-0.002,0.033-0.002,0.05
		l0.002,0.401l-0.001,0.002c-0.001,0.012,0,0.023,0.001,0.036l0.072,0.666l0.094,0.277v3.055l-0.216,4.061l-0.771,3.744
		l-1.144,3.334l-1.637,2.786l-2.058,2.339l-1.277,0.877l-0.014-0.123c-0.016-0.138-0.109-0.254-0.241-0.297L88.745,125.383z
		 M89.032,126.634l-0.17-0.414l0.022-0.044l0.26,0.086l0.018,0.161l-0.115,0.2L89.032,126.634z M100.479,127.506l-0.977,1.249
		l-1.069,1.074l-1.236,0.862l-1.354,0.651l-1.446,0.486l-1.571,0.221l-1.633,0.003l-1.728-0.217l-0.067-0.039
		c-0.032-0.062-0.081-0.112-0.141-0.146l-0.082-0.188l-0.019-1.223c0-0.006,0-0.012,0-0.018v-2.81l0.345-0.229
		c0.026-0.018,0.051-0.039,0.072-0.063l2.009-1.389l2.163-2.451l1.706-2.906l1.186-3.442l0.492-2.397l0.475,0.795l0.411,0.408
		l0.463,0.383l0.445,0.222c0.001,0,0.001,0,0.002,0.001c0.011,0.005,0.021,0.01,0.033,0.015l0.663,0.181
		c0.052,0.012,0.108,0.011,0.162-0.002l0.447-0.111c0.042-0.01,0.082-0.028,0.117-0.053c0.035,0.007,0.072,0.011,0.104,0.007
		c0.068,0.006,0.128-0.007,0.187-0.036l0.439-0.219c0.02-0.01,0.038-0.021,0.056-0.033c0.019-0.013,0.035-0.027,0.051-0.043
		l0.273-0.273c0.03-0.031,0.055-0.067,0.072-0.106l0.026-0.057c0.005-0.008,0.009-0.015,0.014-0.022l0.224-0.39
		c0.019-0.033,0.032-0.069,0.04-0.107l0.08-0.401v9.79l-0.626,1.566L100.479,127.506z M104.472,124.209l-0.809,1.458l-0.977,1.249
		l-1.069,1.074l-0.543,0.38l0.165-0.224l0.499-0.64l0.861-1.555l0.569-1.548l1.58-0.892L104.472,124.209z M105.097,100.252
		c0,0.004,0,0.009,0,0.013v0.267c0,0.004,0,0.009,0,0.014v1.211c0,0.005,0,0.011,0,0.016v2.604c0,0.004,0,0.008,0,0.013v7.396
		c0,0.005,0,0.01,0,0.015v0.1c0,0.003,0,0.006,0,0.008v10.597l-1.861,1.05V95.563l1.861-1.049V100.252z M109.615,103.232h0.119
		l0.318,0.141l0.122,0.242l-0.046,0.535l-0.317,1.111l-0.374,1.022l-0.984,1.911l-0.54,0.812l-0.654,0.816l-0.651,0.704
		l-0.688,0.635l-0.113,0.057v-6.632l1.882-1.087l0.95-0.105L109.615,103.232z M105.806,103.768v-0.649l0.232,0.233
		c0.052,0.051,0.117,0.085,0.188,0.098l0.101,0.019L105.806,103.768z M108.539,102.692l-0.986,0.109l-0.372,0.005l-0.206,0.034
		l-0.907-0.543l-0.225-0.479l-0.037-0.672L108.539,102.692z M114.763,74.529v0.095c0,0.006,0,0.012,0,0.017v0.205
		c0,0.007,0,0.013,0,0.019l-0.004,0.643c-0.066,0.108-0.067,0.24-0.013,0.347l-0.092,2.803l-0.276,2.264l-0.498,2.763l-0.552,2.205
		l-0.608,1.874L112,89.584l-0.936,2.09l-1.385,2.486l-1.546,2.369l-1.668,2.107l-0.66,0.778v-5.499c0-0.016,0-0.03-0.002-0.046
		c0-0.001,0-0.001,0-0.001c-0.002-0.017-0.005-0.032-0.009-0.047c0-0.001,0-0.001,0-0.001s0,0,0-0.001
		c-0.005-0.02-0.012-0.039-0.021-0.058L92.035,61.296c-0.001-0.004-0.003-0.008-0.005-0.012c-0.01-0.021-0.021-0.043-0.036-0.062
		c0-0.001-0.001-0.001-0.001-0.001c0-0.001,0-0.001-0.001-0.001v-0.001c-0.014-0.019-0.028-0.035-0.045-0.05
		c-0.021-0.02-0.044-0.036-0.068-0.05l-3.602-2.079l-0.048-0.211l-1.582-3.431l-1.926-3.214l-2.33-2.939l-2.779-2.54l-3.123-2.088
		l-3.342-1.522l-0.614-0.184l4.335-0.404l2.556-0.166l2.217-0.056l2.33,0.055l3.715,0.275l2.995,0.497l1.496,0.331l1.488,0.385
		l1.247,0.399c0.059,0.04,0.128,0.062,0.199,0.063l0.097,0.031c0.002,0.001,0.005,0.002,0.007,0.003l0.11,0.043
		c0.063,0.056,0.146,0.089,0.23,0.09l0.138,0.054c0.071,0.076,0.164,0.124,0.287,0.112l0.011,0.004
		c0.027,0.018,0.058,0.03,0.09,0.04h0.001c0.009,0.002,0.018,0.005,0.026,0.006l2.687,1.187l2.298,1.301
		c0.021,0.026,0.045,0.051,0.074,0.071l2.146,1.534l2.595,2.362l2.377,2.807l2.104,3.198l1.715,3.359l1.272,3.466l0.774,3.405
		l0.056,0.666c0,0.003,0.001,0.007,0.001,0.011v0.001c0,0,0,0,0,0.001c0.001,0.002,0.001,0.004,0.001,0.006l0.277,2.214l0.167,1.878
		l0.059,1.442c-0.001,0.008-0.002,0.016-0.002,0.024c0,0,0,0.001,0,0.002c-0.001,0-0.001,0.001-0.001,0.002c0,0,0,0,0,0.001v0.001
		v0.001v0.001c0,0.001,0,0.001,0,0.001c0,0.001,0,0.001,0,0.001c0,0.001,0,0.001,0,0.002c0,0,0,0,0,0.001v0.001v0.001v0.001
		c0,0.001,0,0.001,0,0.001s0,0.001,0,0.002c0,0.03,0.003,0.061,0.011,0.09l0.045,0.804
		C114.763,74.523,114.763,74.526,114.763,74.529z M114.849,67.257l-0.795-3.498l-1.303-3.549l-1.752-3.432l-2.148-3.266
		l-2.434-2.874l-2.659-2.422l-2.021-1.448c-0.03-0.054-0.075-0.1-0.133-0.133l-0.758-0.429l0.549,0.25l2.698,1.861l2.541,2.364
		l2.377,2.808l2.104,3.197l1.715,3.359l1.272,3.466l0.774,3.406l0.217,2.494l-0.182-1.448L114.849,67.257z M103.254,45.239
		l-1.315,0.738l-0.452-0.252l0.043-0.068l0.053,0.032c0.051,0.03,0.106,0.046,0.162,0.05h0.001c0,0,0,0,0.001,0s0.001,0,0.001,0
		s0,0,0.001,0c0,0,0,0,0.001,0h0.001c0.001,0,0.001,0,0.002,0h0.001c0.02,0,0.041,0,0.062-0.004h0.001c0.001,0,0.001,0,0.001,0
		h0.001c0.001,0,0.001,0,0.001-0.001h0.001c0,0,0,0,0.001,0h0.001c0.061-0.011,0.118-0.036,0.166-0.075
		c0.001-0.001,0.001-0.001,0.001-0.001c0.033-0.027,0.062-0.062,0.084-0.101l0.19-0.341l0.044,0.026
		c0.036,0.022,0.076,0.037,0.115,0.045c0.001,0,0.001,0,0.001,0c0.061,0.01,0.122,0.006,0.182-0.014c0.001,0,0.001,0,0.001,0
		c0.001,0,0.001,0,0.001,0l0.001-0.001h0.001c0.036-0.013,0.07-0.032,0.102-0.057c0,0,0.001,0,0.001-0.001c0.001,0,0.001,0,0.001,0
		c0-0.001,0-0.001,0.001-0.001c0-0.001,0.001-0.001,0.001-0.001c0.001,0,0.001-0.001,0.001-0.001
		c0.03-0.024,0.057-0.055,0.077-0.089c0-0.001,0-0.001,0.001-0.001c0,0,0,0,0-0.001l0.001-0.001
		c0.002-0.004,0.004-0.008,0.006-0.012l0.19-0.342l0.014,0.01c0.056,0.041,0.168,0.065,0.245,0.069c0.001,0,0.002,0,0.003,0.001
		v0.37C103.253,45.225,103.254,45.231,103.254,45.239z M103.623,45.846l0.063,0.062c0.023,0.025,0.052,0.047,0.083,0.064l1.271,0.71
		l-0.026,0.05l-0.002-0.002c-0.021-0.018-0.044-0.033-0.068-0.045c-0.045-0.023-0.094-0.037-0.143-0.039
		c-0.054-0.007-0.108,0.005-0.158,0.026c-0.022,0.01-0.044,0.021-0.064,0.036l-0.155,0.103c-0.017,0.011-0.033,0.023-0.049,0.037
		c-0.03,0.027-0.056,0.06-0.074,0.095c-0.012,0.022-0.021,0.046-0.028,0.07c0,0,0,0.001-0.001,0.002c0,0,0,0.001,0,0.002
		s-0.001,0.001-0.001,0.002s0,0.001,0,0.002c-0.001-0.001-0.001,0.001-0.001,0.002c0,0,0,0,0,0.001v0.001c0,0,0,0.001-0.001,0.001
		v0.001v0.001c0,0.001,0,0.001,0,0.001c0,0.001-0.001,0.001-0.001,0.002s0,0.001,0,0.002c-0.005,0.021-0.008,0.043-0.009,0.064
		c0,0.006,0,0.013,0,0.019l-0.01,0.033c-0.011-0.007-0.021-0.014-0.033-0.019c-0.044-0.023-0.092-0.035-0.14-0.038h-0.001
		c-0.054-0.008-0.106,0.005-0.155,0.025c-0.023,0.01-0.047,0.022-0.067,0.037l-0.104,0.069l-1.159-0.799L103.623,45.846z
		 M120.351,81.901l-0.024,0.045c-0.006,0.002-0.012,0.006-0.017,0.009c-0.003,0.001-0.006,0.003-0.008,0.004l-0.592,0.342
		c-0.003-0.013-0.006-0.024-0.011-0.037l-0.103-0.3l0.718-0.418L120.351,81.901z M119.995,80.911l-0.729,0.424l-1.373-2.341
		l0.729-0.424L119.995,80.911z M118.779,76.457l-0.679,1.162l-0.944,0.998c-0.019,0.019-0.035,0.04-0.049,0.062
		c-0.028,0.045-0.045,0.095-0.051,0.146c-0.007,0.052-0.002,0.105,0.016,0.157c0.009,0.024,0.021,0.048,0.034,0.071l1.724,2.94
		l0.142,0.328l0.037,0.338l-0.827,0.524c-0.001,0-0.002,0.001-0.003,0.001l-1.331,0.773l-0.017,0.009l-0.234-0.115l-0.34-0.38
		l-1.227-2.181l0.33-2.581l0.071-2.221l0.76-0.765l0.339-0.496l0.122-0.122c0.039-0.038,0.066-0.084,0.084-0.132l0.094-0.1
		c0.059-0.063,0.09-0.143,0.094-0.224l0.652-1.299l0.46-1.386l0.283-1.531l0.17-1.664l-0.058-1.692l-0.172-1.869l-0.341-1.866
		l-0.509-1.912l-0.628-1.929l-0.844-1.906l-0.905-1.859l-1.07-1.854l-1.134-1.749l-1.246-1.638l-1.356-1.519l-1.418-1.412
		l-1.472-1.241l-0.396-0.289c-0.018-0.02-0.039-0.037-0.062-0.053c-0.016-0.011-0.032-0.02-0.049-0.027l-0.172-0.126
		c-0.002-0.002-0.003-0.005-0.005-0.008c-0.03-0.053-0.072-0.096-0.12-0.125c-0.064-0.102-0.172-0.159-0.284-0.165l-0.362-0.264
		c-0.031-0.023-0.067-0.042-0.105-0.054c-0.001-0.001-0.001-0.001-0.002-0.001c0,0,0,0-0.001,0
		c-0.039-0.012-0.078-0.014-0.119-0.016h-0.001c-0.053,0.003-0.103,0.017-0.147,0.04c-0.043,0.022-0.081,0.054-0.113,0.094
		c-0.023,0.029-0.042,0.062-0.056,0.098c0,0.001,0,0.001,0,0.001v0.001l-0.001,0.001v0.001v0.001
		c-0.015,0.04-0.021,0.081-0.021,0.122v0.471l-1.165-0.65c-0.006-0.007-0.012-0.013-0.018-0.02l-0.1-0.128
		c-0.001-0.001-0.002-0.003-0.002-0.004l-0.057-0.112c-0.004-0.007-0.01-0.016-0.018-0.025v-0.753c0-0.021-0.001-0.041-0.004-0.062
		c-0.008-0.052-0.027-0.1-0.055-0.142c0,0.001-0.001-0.001-0.001-0.001c-0.027-0.042-0.064-0.078-0.109-0.105
		c-0.018-0.011-0.036-0.021-0.056-0.028l-1.49-0.625l-1.489-0.397l-1.452-0.228h-0.145c-0.067-0.043-0.153-0.066-0.235-0.053
		l-0.433,0.055l-0.577,0.001l-1.312,0.189l-0.777,0.311c-0.097-0.004-0.196,0.017-0.274,0.086l-0.437,0.214l-1.253-0.401
		l-1.521-0.393l-0.558-0.124l0.579-0.582l1.016-0.751l1.1-0.584l1.237-0.326l1.354-0.164l1.391-0.006l1.53,0.271l1.557,0.443
		c0.018,0.006,0.036,0.01,0.056,0.013c0.042,0.005,0.081,0.004,0.12-0.004c0.053-0.011,0.102-0.034,0.144-0.065l0.001-0.001
		c0.041-0.031,0.076-0.072,0.101-0.121c0.017-0.032,0.028-0.067,0.034-0.104c0.003-0.021,0.005-0.043,0.004-0.064v-1.153
		c0-0.006,0-0.011,0-0.016v-1.607l0.015-0.113c0.003-0.005,0.005-0.01,0.007-0.015l0.042-0.068l4.617,2.598l0.313,0.304l0.237,0.471
		l0.037,0.271c0,0.004,0,0.009,0,0.013v2.773c-0.001,0.031,0.003,0.062,0.011,0.092c0,0.001,0,0.001,0,0.002
		c0.006,0.022,0.014,0.044,0.023,0.064c0.013,0.026,0.028,0.051,0.048,0.074c0.015,0.018,0.031,0.034,0.049,0.049l1.538,1.312
		l1.496,1.49l1.496,1.657l1.379,1.703l1.274,1.878l1.164,1.933l1.053,1.988l0.942,2.044l0.828,2.088l0.612,2.052l0.551,2.027
		l0.331,1.977l0.167,1.986l0.058,1.795l-0.164,1.758l-0.266,1.617l-0.491,1.473L118.779,76.457z M120.12,75.678l-0.679,1.162
		l-0.181,0.192l0.774-1.675l0.517-1.558l0.282-1.696l0.169-1.827l-0.057-1.857l-0.172-2.034l-0.343-2.04l-0.561-2.07l-0.625-2.09
		L118.4,58.05l-0.958-2.079l-1.071-2.022l-1.185-1.966l-1.303-1.918l-1.409-1.741l-1.521-1.686l-1.528-1.522l-1.185-1.012
		l0.676-0.394c0.043,0.055,0.101,0.094,0.163,0.115l1.211,1.035l1.543,1.481l0.633,0.728c0,0.001,0,0.001,0,0.001
		c0.022,0.038,0.051,0.069,0.084,0.096c0.006,0.008,0.013,0.016,0.02,0.022l0.704,0.811l1.385,1.768l0.877,1.252
		c0.012,0.021,0.024,0.04,0.04,0.058l0.057,0.081c0.004,0.009,0.009,0.018,0.014,0.027c0.018,0.03,0.038,0.058,0.062,0.082
		l1.387,2.251l1.053,1.987c0.001,0.001,0.001,0.002,0.002,0.003l0.94,2.041l0.831,2.096l0.151,0.466
		c-0.008,0.07,0.006,0.145,0.044,0.211c0.013,0.023,0.028,0.045,0.046,0.063l0.421,1.296l0.498,2.033l0.332,2.035l0.166,1.931
		l0.058,1.794c-0.001,0.002-0.001,0.004-0.001,0.006l-0.163,1.752l-0.266,1.617l-0.491,1.474L120.12,75.678z M111.708,42.467
		l0.362-0.063l0.44,0.131l0.533,0.34l0.305,0.332c0.021,0.04,0.05,0.078,0.087,0.109l0.463,0.714l0.199,0.634l0.102,0.607
		l-0.072,0.394l-1.279,0.766l-0.501-0.576l-1.58-1.519l-0.936-0.8L111.708,42.467z M111.067,41.546l0.081-0.045l0.455,0.246
		c-0.037,0.005-0.074,0.017-0.107,0.033l-0.112,0.056c-0.001,0-0.001,0-0.002,0c-0.007,0.004-0.014,0.008-0.02,0.012l-0.168,0.096
		L111.067,41.546z M117.596,48.89l-0.031,0.344l-0.079,0.142c-0.041,0.044-0.07,0.098-0.085,0.153l-1.449,0.85l-0.723-1.033
		l-1.408-1.797l-0.445-0.512l1.708-0.985l0.322-0.08l0.424,0.084l0.435,0.25l0.515,0.502l0.41,0.601l0.265,0.676l0.123,0.528
		C117.545,48.701,117.551,48.802,117.596,48.89z M124.106,62.78c-0.047,0.064-0.073,0.145-0.067,0.229l-0.233,0.285l-0.028,0.025
		c-0.044,0.016-0.085,0.039-0.12,0.069l-0.055,0.031c-0.082,0.015-0.153,0.057-0.204,0.116l-1.49,0.85l-0.133-0.813l-0.511-2.086
		l-0.364-1.121l1.294-0.774l0.404,0.146l0.191,0.148c0.013,0.015,0.027,0.027,0.042,0.039c0.038,0.047,0.089,0.084,0.145,0.106
		l0.072,0.056c0.029,0.093,0.094,0.165,0.175,0.207l0.304,0.367l0.345,0.588l0.004,0.021c0.01,0.049,0.028,0.093,0.054,0.132
		l0.165,0.557l0.052,0.619L124.106,62.78z M124.184,65.454l0.079,0.132c0.007,0.075,0.038,0.146,0.087,0.201l0.195,0.487
		l0.103,0.665l-0.087,0.477l-0.195,0.272l-2.04,1.209l-0.038-1.259l-0.171-1.977l-0.086-0.529l1.286-0.733l0.088,0.055
		c0.002,0.002,0.003,0.004,0.005,0.006l0.51,0.546l0.195,0.33C124.129,65.38,124.153,65.42,124.184,65.454z M122.686,58.173
		c-0.055,0.057-0.09,0.131-0.099,0.211c-0.032,0.03-0.059,0.065-0.078,0.105l-0.133,0.154l-0.174,0.098
		c-0.032,0.007-0.063,0.018-0.095,0.032c-0.039,0.021-0.073,0.047-0.102,0.078l-1.352,0.76l-0.912-2.342l-0.732-1.587l1.425-0.844
		c0.081,0.041,0.176,0.048,0.267,0.021l0.508,0.218c0.002,0.001,0.004,0.003,0.006,0.004l0.519,0.414l0.447,0.588l0.369,0.682
		l0.147,0.628l0.051,0.596L122.686,58.173z M120.484,53.338c-0.015,0.039-0.022,0.081-0.022,0.123l-0.116,0.347l-0.075,0.06
		c-0.001,0.001-0.003,0.002-0.005,0.003c-0.011,0.005-0.022,0.012-0.033,0.019c-0.045,0.003-0.09,0.015-0.133,0.036
		c-0.071,0.035-0.125,0.092-0.158,0.157l-1.332,0.781l-0.897-1.694l-1.188-1.971l-0.049-0.07l1.473-0.82
		c0.084-0.001,0.15-0.016,0.216-0.06c0.011-0.008,0.021-0.015,0.03-0.022l0.082-0.023l0.231,0.025c0.01,0.004,0.02,0.007,0.029,0.01
		c0.062,0.046,0.136,0.07,0.212,0.07l0.322,0.188l0.512,0.45l0.465,0.605l0.312,0.655l0.155,0.673L120.484,53.338z M109.326,43.007
		v-2.519c0-0.013,0-0.025-0.001-0.038l-0.01-0.222l-0.016-0.06l0.47,0.462c0.021,0.04,0.051,0.075,0.086,0.103
		c0.023,0.095,0.084,0.174,0.165,0.222l0.288,0.523c0.001,0.003,0.002,0.006,0.003,0.009l0.209,0.66l0.023,0.166L109.326,43.007z
		 M122.715,74.241l-0.134,0.402l-1.681,1.016l0.476-1.081l0.267-0.805l0.99-0.567l0.117,0.508L122.715,74.241z M122.92,72.225
		c-0.005,0.001-0.01,0.003-0.015,0.004c-0.026,0.007-0.052,0.017-0.075,0.029l-0.032,0.016c-0.027,0.003-0.055,0.008-0.082,0.018
		c-0.088,0.029-0.156,0.089-0.197,0.164l-0.588,0.337l0.244-1.469l0.148-1.602l1.149-0.677l0.263,0.389l0.315,0.682l0.1,0.585
		l-0.049,0.547l-0.168,0.333l-0.149,0.149L122.92,72.225z M123.797,74.74v-0.609c0-0.033-0.005-0.066-0.014-0.098l-0.101-0.344
		l0.171,0.119c0.031,0.022,0.065,0.039,0.102,0.05l0.559,0.167c0.045,0.013,0.092,0.016,0.141,0.013l0.471-0.053L123.797,74.74z
		 M125.323,72.774l-0.159,0.357l-0.158,0.131L125,73.266c-0.014,0.008-0.026,0.016-0.038,0.024l-0.314,0.035l-0.438-0.131
		l-0.449-0.304l-0.196-0.218l0.606-0.348c0.015-0.009,0.029-0.018,0.044-0.028c0.015-0.012,0.029-0.024,0.042-0.038l0.218-0.217
		c0.027-0.026,0.05-0.058,0.066-0.092l0.224-0.445c0.021-0.04,0.032-0.083,0.037-0.127l0.039-0.516l0.323,0.675l0.159,0.645V72.774z
		 M125.004,69.676c-0.116-0.091-0.271-0.101-0.392-0.033l-0.261-0.556l-0.089-0.133l0.155-0.466l0.207-0.122
		c0.007-0.004,0.014-0.008,0.02-0.013h0.001l0.166-0.111c0.036-0.023,0.066-0.054,0.092-0.088l0.28-0.39
		c0.03-0.043,0.052-0.092,0.061-0.144l0.111-0.613c0.007-0.039,0.008-0.078,0.002-0.117l-0.131-0.798l-0.232-0.591l0.021-0.086
		c0.008-0.03,0.012-0.062,0.011-0.095l-0.013-0.57l0.067-1.005l-0.114-1.748l-0.228-1.812l-0.399-1.868l-0.566-1.862l-0.735-1.914
		l-0.848-1.858l-0.961-1.801l-1.078-1.752l-1.235-1.681l-1.252-1.586l-1.357-1.409l-1.421-1.301l-1.09-0.834
		c-0.001-0.13-0.072-0.254-0.195-0.315c-0.083-0.043-0.174-0.049-0.26-0.023l-1.39-0.853c-0.001-0.001-0.002-0.001-0.003-0.002
		c-0.007-0.004-0.013-0.007-0.02-0.011l-0.563-0.303c-0.029-0.022-0.062-0.04-0.098-0.053l-0.787-0.423
		c-0.016-0.009-0.032-0.016-0.05-0.021l-0.009-0.01c-0.032-0.089-0.1-0.162-0.186-0.201l-0.318-0.346l-0.559-0.445
		c-0.027-0.021-0.058-0.039-0.09-0.052l-0.559-0.223c-0.03-0.013-0.062-0.021-0.095-0.023l-0.01-0.01
		c-0.026-0.027-0.058-0.049-0.092-0.066l-1.779-1.021l-0.032-0.318l0.091-0.497l0.184-0.294l0.223-0.095h0.405l0.419,0.202
		l0.524,0.418l0.437,0.567l0.317,0.68l0.222,0.717c0.007,0.025,0.017,0.05,0.029,0.073c0.018,0.031,0.038,0.059,0.063,0.083
		c0.024,0.024,0.051,0.044,0.08,0.06c0.03,0.017,0.063,0.028,0.099,0.035c0.009,0.002,0.017,0.003,0.025,0.004
		c0.062,0.035,0.132,0.057,0.2,0.059c0.187,0,0.347-0.135,0.365-0.322l0.05-0.555l0.152-0.341l0.227-0.129l0.342-0.038l0.43,0.171
		l0.462,0.359l0.466,0.558l0.372,0.683l0.262,0.677l0.051,0.61c0,0.002,0,0.004,0,0.006c-0.001,0.01-0.001,0.019-0.001,0.028
		c0,0.13,0.094,0.243,0.215,0.305c0.03,0.031,0.066,0.057,0.108,0.075c0.181,0.079,0.388-0.001,0.468-0.181l0.188-0.426l0.158-0.131
		c0.003-0.001,0.006-0.003,0.009-0.005l0.35-0.058l0.437,0.131l0.463,0.316l0.521,0.521l0.348,0.637l0.261,0.655l0.102,0.607
		l-0.101,0.552c0,0.002-0.001,0.003-0.001,0.005c-0.001,0.004-0.001,0.009-0.002,0.013c0,0.001,0,0.001,0,0.001s0,0.001,0,0.002
		s-0.001,0.001-0.001,0.002s0,0.001,0,0.002v0.001v0.001v0.001c0,0.001,0,0.001,0,0.001c0,0.001,0,0.001,0,0.002
		c-0.002,0.021-0.003,0.041-0.001,0.062c-0.001,0.009-0.001,0.019-0.001,0.027c0,0.098,0.053,0.186,0.13,0.249
		c0.017,0.021,0.035,0.039,0.056,0.056c0.077,0.094,0.202,0.156,0.322,0.161c0.098-0.005,0.19-0.03,0.264-0.104l0.267-0.265
		l0.274-0.068l0.424,0.084l0.435,0.249l0.515,0.504l0.41,0.599l0.26,0.651l0.109,0.638l-0.05,0.554l-0.197,0.442
		c-0.005,0.01-0.009,0.02-0.013,0.03c0,0,0,0,0,0.001c-0.016,0.044-0.022,0.089-0.021,0.133c0.002,0.05,0.015,0.099,0.038,0.145
		c0.018,0.035,0.04,0.067,0.069,0.095v0.001c0.001,0,0.001,0.001,0.002,0.001c0.006,0.006,0.012,0.011,0.018,0.016
		c0.002,0.008,0.005,0.015,0.007,0.021c0.069,0.182,0.271,0.277,0.457,0.207l0.369-0.139l0.399,0.04l0.435,0.253l0.5,0.435
		l0.421,0.62l0.311,0.655l0.159,0.645v0.594l-0.159,0.356l-0.164,0.134c-0.041,0.023-0.075,0.053-0.103,0.087l-0.005,0.005
		c-0.092,0.076-0.136,0.189-0.127,0.301c-0.001,0.009-0.001,0.018-0.001,0.027c0,0.066,0.024,0.129,0.065,0.182
		c0.04,0.152,0.206,0.269,0.368,0.283l0.436,0.048l0.438,0.211l0.524,0.418l0.437,0.568l0.318,0.679l0.208,0.674v0.557l-0.128,0.381
		l-0.216,0.252l-0.338,0.084c-0.171,0.042-0.281,0.202-0.268,0.372c-0.001,0.009-0.001,0.019-0.001,0.027
		c0,0.064,0.023,0.125,0.062,0.178c0.002,0.009,0.004,0.019,0.007,0.028c0.01,0.036,0.026,0.071,0.047,0.102
		c0.016,0.023,0.033,0.045,0.054,0.063c0.001,0.001,0.001,0.002,0.002,0.002c0.001,0.001,0.001,0.001,0.001,0.001l0.001,0.001
		c0,0,0,0,0.001,0c0,0.004,0.001,0.002,0.001,0.002c0.001,0,0.001,0.001,0.001,0.001c0.001,0,0.001,0,0.001,0
		c0,0.001,0.001,0.001,0.001,0.001c0,0.001,0.001,0.001,0.001,0.001l0.001,0.001c0.001,0.001,0.001,0.001,0.002,0.001
		c0.017,0.015,0.035,0.027,0.055,0.039c0.016,0.009,0.032,0.016,0.05,0.022l0.505,0.202l0.462,0.359l0.472,0.566l0.363,0.609
		l0.264,0.737l0.047,0.554l-0.132,0.438l-0.183,0.254l-0.268,0.1l-0.359-0.035c-0.03-0.009-0.063-0.014-0.097-0.014h-0.052
		c-0.002,0-0.003,0-0.004,0c-0.181,0-0.335,0.137-0.353,0.319c-0.009,0.083,0.013,0.162,0.055,0.228
		c0.002,0.032,0.009,0.064,0.021,0.096c0.014,0.039,0.035,0.077,0.063,0.109c0.021,0.025,0.046,0.046,0.072,0.063l0.513,0.359
		l0.451,0.546l0.41,0.601l0.263,0.676l0.051,0.612l-0.047,0.517l-0.173,0.24l-0.293,0.146h-0.336l-0.483-0.241
		c-0.173-0.086-0.388-0.017-0.476,0.159c-0.021,0.043-0.033,0.088-0.036,0.133c-0.002,0.004-0.005,0.007-0.007,0.011v0.001
		c-0.026,0.043-0.042,0.09-0.047,0.139c0,0-0.001,0-0.001,0.001c-0.006,0.055,0,0.112,0.021,0.166
		c0.014,0.035,0.032,0.068,0.057,0.098c0.011,0.014,0.021,0.025,0.033,0.037l0.506,0.493l0.41,0.601l0.265,0.677l0.155,0.668
		l-0.043,0.473l-0.196,0.313l-0.242,0.172h-0.338l-0.443-0.133L125.004,69.676z M131.301,69.32l-0.165,0.372l-0.199,0.198
		l-1.582,0.899c-0.037,0.014-0.071,0.033-0.102,0.058l-3.223,1.832l-0.007-0.578l-0.191-0.793l-0.215-0.458l0.182,0.055
		c0.033,0.01,0.067,0.015,0.102,0.015h0.503c0.068,0,0.136-0.02,0.192-0.057c0.078,0.01,0.145-0.01,0.21-0.047l4.381-2.556
		l0.114,0.467V69.32z M132.75,65.799l-0.044,0.481l-0.205,0.37l-1.213,0.73c-0.015,0.004-0.03,0.009-0.045,0.015
		c-0.048,0.02-0.089,0.049-0.123,0.083l-3.67,2.141l0.033-0.358c0.003-0.038,0-0.075-0.008-0.112l-0.183-0.771l-0.315-0.793
		l-0.382-0.563h0.199c0.055,0,0.109-0.013,0.158-0.037l0.15-0.075c0.05-0.004,0.1-0.02,0.146-0.045l4.846-2.755l0.235,0.346
		l0.265,0.677L132.75,65.799z M133.204,61.941c-0.002,0.018-0.003,0.035-0.003,0.053v0.33l-0.062,0.204l-0.131,0.219l-5.1,2.926
		l0.021-0.26l-0.056-0.725c-0.003-0.034-0.011-0.068-0.022-0.101l-0.316-0.792l-0.467-0.697l-0.503-0.612
		c-0.005-0.006-0.01-0.012-0.015-0.017l0.049-0.019c0.07,0.005,0.139-0.009,0.203-0.046l5.117-2.937l0.166,0.11l0.49,0.577
		l0.206,0.355l0.319,0.736l0.099,0.343v0.062c0,0.055,0.013,0.109,0.037,0.158l0.005,0.009
		C133.223,61.856,133.21,61.897,133.204,61.941z M133.704,60.858l-0.288-0.663l-0.26-0.442l-0.559-0.668
		c0-0.001-0.001-0.002-0.002-0.003l0.061-0.035l1.048,0.585V60.858z M133.854,58.904l-0.59-0.33l0.012-0.019l0.58,0.347
		C133.855,58.903,133.855,58.903,133.854,58.904z M137.392,61.613l-0.17,0.097l-0.816,0.2l-0.93,0.009l-0.894-0.209l-0.169-0.097
		v-1.61l0.986,0.221l1.082-0.009l0.91-0.212V61.613z M134.482,59.258c0.002-0.004,0.004-0.007,0.005-0.011l0.014-0.027l0.913,0.267
		c0.031,0.009,0.063,0.014,0.097,0.014l0.868-0.011l0.924-0.27l0.014,0.027c0.001,0.003,0.003,0.007,0.006,0.01l-0.917,0.258
		l-0.93,0.009l-0.894-0.209L134.482,59.258z M137.262,58.486l-0.969,0.305h-0.732l-1.019-0.305l-1.078-0.645
		c-0.012-0.008-0.023-0.014-0.036-0.02c-0.007-0.004-0.014-0.007-0.021-0.01l-0.005-0.564l-0.135-0.747l-0.109-0.257l1.286-0.704
		l3.942,2.273L137.262,58.486z M139.123,60.662l-1.022,0.56v-1.594l1.022-0.592V60.662z"/>
	<path class="st1" d="M81.939,102.115c0.081,0.01,0.167-0.008,0.241-0.056l0.244-0.147c0.054-0.028,0.1-0.068,0.134-0.119
		l0.224-0.334c0.031-0.047,0.051-0.102,0.058-0.158l0.055-0.494c0.002-0.013,0.003-0.025,0.003-0.038c0-0.017,0-0.032-0.002-0.048
		l-0.055-0.605c-0.003-0.03-0.01-0.061-0.021-0.09l-0.224-0.612c-0.011-0.028-0.025-0.056-0.043-0.081l-0.431-0.605l-0.447-0.445
		c-0.023-0.023-0.05-0.043-0.078-0.06l-0.503-0.278c-0.04-0.021-0.083-0.035-0.128-0.041l-0.446-0.056
		c-0.039-0.006-0.077-0.004-0.113,0.004l-0.271,0.054c-0.024,0.005-0.047,0.012-0.07,0.021c-0.025,0.01-0.049,0.022-0.071,0.038
		l-0.161,0.106c-0.005,0.004-0.01,0.008-0.015,0.011c-0.08,0.023-0.15,0.074-0.196,0.145l-0.223,0.334
		c-0.031,0.047-0.051,0.101-0.058,0.156l-0.057,0.574l0.057,0.612c0.002,0.03,0.009,0.061,0.02,0.089l0.223,0.613
		c0.011,0.029,0.025,0.058,0.043,0.083l0.432,0.604l0.447,0.445c0.023,0.023,0.049,0.043,0.078,0.059l0.503,0.279
		c0.039,0.022,0.083,0.036,0.128,0.042l0.446,0.056c0.015,0.002,0.029,0.003,0.044,0.003c0.038,0,0.075-0.006,0.111-0.018
		L81.939,102.115z M81.702,101.007l-0.076,0.054l-0.212-0.083l-0.398-0.298l-0.278-0.412l-0.252-0.502l-0.049-0.409l0.043-0.339
		l0.084-0.013l0.243,0.069l0.353,0.304l0.352,0.401l0.183,0.453l0.047,0.468L81.702,101.007z"/>
	<path class="st1" d="M97.89,127.175l-0.361-0.713l-0.392-0.558c-0.02-0.027-0.043-0.052-0.069-0.073l-0.784-0.614
		c-0.014-0.011-0.028-0.02-0.043-0.028c-0.017-0.01-0.035-0.019-0.053-0.025l-0.793-0.282c-0.05-0.018-0.102-0.021-0.152-0.017
		l-0.503,0.057c-0.062,0.007-0.122,0.031-0.172,0.068l-0.089,0.05c-0.021,0.005-0.043,0.011-0.062,0.02s-0.038,0.019-0.055,0.029
		l-0.436,0.272c-0.003,0.001-0.005,0.003-0.008,0.004c-0.009,0.006-0.018,0.012-0.025,0.019l-0.219,0.163
		c-0.029,0.021-0.055,0.048-0.076,0.078l-0.279,0.39c-0.019,0.024-0.033,0.052-0.044,0.081l-0.168,0.446
		c-0.015,0.04-0.022,0.082-0.022,0.125l-0.054,0.629c-0.004,0.036-0.002,0.072,0.005,0.108l0.254,1.148l0.258,0.5l0.368,0.483
		l0.354,0.353l0.45,0.374l0.45,0.251c0.025,0.019,0.054,0.033,0.084,0.044c0.051,0.021,0.103,0.03,0.156,0.029l0.467,0.103
		c0.024,0.006,0.051,0.009,0.076,0.009c0.015,0,0.029-0.001,0.044-0.003l0.447-0.056c0.058-0.007,0.112-0.028,0.159-0.061
		c0.035,0.007,0.069,0.012,0.104,0.007c0.075,0.007,0.149-0.012,0.216-0.053l0.439-0.275c0.013-0.008,0.025-0.017,0.038-0.026
		c0.005-0.004,0.011-0.009,0.016-0.013l0.387-0.33c0.035-0.03,0.065-0.068,0.086-0.11l0.224-0.445
		c0.02-0.039,0.032-0.081,0.036-0.124l0.057-0.625l-0.073-0.692L97.89,127.175z M96.566,129.395l-0.136,0.406l-0.177,0.147
		l-0.284,0.035l-0.443-0.098c-0.007-0.002-0.021-0.004-0.035-0.005l-0.246-0.132c0.001-0.007,0.001-0.013,0.001-0.02v-0.111
		c0-0.015-0.002-0.03-0.006-0.047c0.02,0.003,0.041,0.005,0.061,0.007l0.047,0.023c0.049,0.024,0.159,0.037,0.214,0.037h0.112
		c0.195,0,0.354-0.159,0.354-0.354c0-0.019-0.001-0.037-0.004-0.055c0.003-0.02,0.004-0.038,0.004-0.057v-0.494
		c0-0.013,0-0.024-0.001-0.036c-0.004-0.051-0.019-0.101-0.045-0.146c-0.021-0.036-0.047-0.068-0.079-0.096
		c-0.024-0.021-0.051-0.037-0.078-0.05l-0.106-0.053c-0.045-0.022-0.142-0.035-0.199-0.037c-0.039-0.02-0.084-0.033-0.128-0.043
		l-0.062-0.031c-0.014-0.007-0.031-0.013-0.052-0.018c-0.033-0.025-0.068-0.043-0.105-0.053c-0.003-0.004-0.007-0.007-0.01-0.01
		c-0.008-0.018-0.018-0.034-0.028-0.05v-0.054c0-0.01,0-0.019-0.001-0.027c0-0.001,0-0.002,0-0.003
		c0.037-0.058,0.057-0.124,0.057-0.192v-0.031c0.037-0.057,0.057-0.124,0.057-0.192v-0.048c0-0.005,0-0.011,0-0.016v-0.104
		c0-0.01,0-0.019-0.001-0.027c0.005-0.059-0.005-0.119-0.031-0.177c-0.049-0.104-0.142-0.175-0.246-0.197l0.007-0.017
		c-0.027-0.026-0.059-0.049-0.093-0.066l-0.078-0.047c-0.03-0.029-0.076-0.054-0.127-0.07c-0.064-0.056-0.146-0.087-0.232-0.087
		h-0.111c-0.185,0-0.337,0.142-0.354,0.322l-0.02,0.038c-0.022,0.045-0.035,0.14-0.038,0.198c-0.035-0.038-0.079-0.068-0.129-0.088
		v-0.295l0.09-0.356l0.15-0.264l0.21-0.119l0.313,0.029l0.454,0.15l0.475,0.332l0.386,0.474l0.369,0.627l0.257,0.59l0.104,0.625
		L96.566,129.395z"/>
	<path class="st1" d="M93.169,120.576l0.111,0.056c0.051,0.025,0.104,0.037,0.158,0.037c0.13,0,0.255-0.071,0.317-0.196
		c0.087-0.175,0.017-0.388-0.159-0.476l-0.111-0.056c-0.173-0.088-0.388-0.018-0.476,0.159
		C92.923,120.275,92.993,120.488,93.169,120.576z"/>
	<path class="st1" d="M91.568,112.802c0.023-0.042,0.038-0.087,0.043-0.132c0.007-0.05,0.002-0.101-0.014-0.15
		c-0.013-0.038-0.031-0.075-0.056-0.107c-0.001-0.001-0.001-0.001-0.001-0.002c0,0,0,0-0.001,0c0,0.001-0.001-0.002-0.002-0.003
		l-0.001-0.001c0,0,0,0,0-0.001c-0.028-0.034-0.062-0.063-0.1-0.085c-0.043-0.025-0.09-0.04-0.138-0.046
		c-0.045-0.004-0.097-0.002-0.144,0.014c-0.008,0.002-0.016,0.005-0.022,0.008l-1.163,0.427c-0.043,0.008-0.084,0.022-0.122,0.045
		l-1.892,0.695c-0.04,0.014-0.079,0.036-0.112,0.064c0,0,0,0-0.001,0.001c-0.023,0.02-0.044,0.043-0.062,0.068l-2.726,3.913
		l-5.02,1.727c-0.087,0.002-0.131,0.016-0.189,0.05l-1.694,0.598l2.268-3.029c0.008-0.01,0.015-0.02,0.021-0.03
		c0.024-0.04,0.041-0.084,0.048-0.129c0.009-0.05,0.006-0.103-0.009-0.153c-0.01-0.035-0.024-0.069-0.045-0.101
		c-0.001,0-0.001,0-0.001,0c0-0.001,0-0.001,0-0.001c-0.028-0.042-0.065-0.077-0.107-0.104c-0.043-0.027-0.09-0.044-0.138-0.05
		c-0.045-0.007-0.093-0.004-0.139,0.008c-0.012,0.003-0.022,0.006-0.033,0.01l-1.214,0.425c-0.056-0.017-0.165,0.025-0.23,0.08
		l-1.73,0.606c-0.034,0.011-0.067,0.028-0.098,0.05c-0.029,0.021-0.055,0.047-0.075,0.075l-2.601,3.424l-2.844,3.059
		c-0.013,0.013-0.023,0.026-0.034,0.04c-0.027,0.038-0.047,0.081-0.057,0.125c-0.013,0.051-0.014,0.104-0.002,0.158c0,0,0,0,0.001,0
		c0.008,0.039,0.023,0.077,0.045,0.111c0.023,0.039,0.055,0.071,0.091,0.098c0.041,0.03,0.086,0.051,0.134,0.062
		c0.048,0.01,0.1,0.01,0.151,0c0.014-0.003,0.027-0.007,0.04-0.012l10.097-3.273l-1.228,1.223l-2.34,2.056
		c-0.017,0.015-0.031,0.029-0.045,0.046c-0.03,0.036-0.053,0.078-0.066,0.121c0,0,0,0,0,0.001c-0.016,0.051-0.021,0.106-0.011,0.161
		c0.006,0.038,0.019,0.076,0.037,0.111c0.021,0.039,0.049,0.072,0.081,0.101c0,0,0,0,0.001,0.001
		c0.04,0.034,0.086,0.059,0.136,0.072c0.03,0.009,0.062,0.013,0.095,0.013c0.016,0,0.032-0.001,0.049-0.003
		c0.02-0.003,0.04-0.008,0.06-0.014l3.393-0.999c0.028-0.007,0.055-0.019,0.08-0.032c0.015-0.008,0.027-0.017,0.04-0.026
		c0.001,0,0.001,0,0.002-0.001c0.011-0.008,0.021-0.017,0.03-0.026l2.698-2.467l2.533-2.753l2.252-2.92l2.065-3.172
		C91.56,112.816,91.563,112.81,91.568,112.802z M78.993,117.415l0.167-0.059l-2.07,2.766l-0.109-0.066
		c0.046-0.029,0.085-0.069,0.114-0.119c0.017-0.03,0.029-0.061,0.037-0.093L78.993,117.415z M77.367,117.983l0.405-0.142
		l-1.102,1.438l-0.041-0.023L77.367,117.983z M77.775,121.241l-3.065,1.002l0.627-0.765c0.005-0.006,0.01-0.013,0.014-0.019
		c0.006-0.009,0.011-0.017,0.016-0.025l0.733-1.265c0.001,0.013,0.002,0.025,0.004,0.038c0,0,0,0.001,0.001,0.001
		c0.009,0.055,0.031,0.107,0.066,0.152c0,0.001,0,0.001,0,0.001s0.001,0,0.001,0.001c0.021,0.027,0.046,0.052,0.075,0.073
		c0.009,0.005,0.017,0.011,0.025,0.016l0.719,0.441c0.028,0.019,0.06,0.032,0.091,0.041c0.02,0.006,0.04,0.01,0.06,0.012
		c0.001,0,0.001,0,0.001,0c0.044,0.003,0.089,0.002,0.134-0.012c0.008-0.002,0.016-0.004,0.022-0.007l0.477-0.164V121.241z
		 M78.484,121.01v-0.375l0.315-0.039l0.496-0.165c0.023-0.008,0.047-0.018,0.069-0.03c0.003-0.001,0.006-0.003,0.009-0.005
		l0.715-0.428l5.305-1.824c0.034-0.011,0.066-0.027,0.096-0.049c0.001,0,0.001-0.001,0.001-0.001c0.001,0,0.001,0,0.001,0
		c0-0.001,0.001-0.001,0.001-0.001c0.001-0.001,0.001-0.001,0.001-0.001c0.032-0.023,0.059-0.053,0.081-0.084l2.729-3.917
		l0.859-0.315l-0.974,1.527l-2.325,2.929l-2.493,2.599l-0.902,0.804l-0.082,0.007l0.849-0.846c0.016-0.015,0.029-0.03,0.043-0.048
		c0.022-0.032,0.04-0.066,0.051-0.102c0.009-0.026,0.014-0.053,0.016-0.079c0.003-0.033,0.001-0.067-0.007-0.102c0,0,0,0,0-0.001
		c-0.008-0.035-0.021-0.069-0.038-0.102h-0.001c-0.013-0.022-0.027-0.043-0.044-0.062c-0.001,0-0.001-0.001-0.001-0.001
		l-0.001-0.001c-0.016-0.017-0.033-0.033-0.052-0.047c-0.016-0.012-0.032-0.021-0.049-0.03l-0.719-0.386
		c-0.002-0.001-0.004-0.002-0.006-0.003c-0.001-0.001-0.001-0.001-0.001-0.001h-0.001c0,0,0,0,0-0.001
		c-0.043-0.021-0.087-0.033-0.132-0.037c-0.047-0.004-0.093,0.002-0.14,0.017L78.484,121.01z M88.912,115.586l-2.216,2.873
		l-2.492,2.708l-2.492,2.277l-0.129-0.073l0.597-0.532c0.028-0.019,0.054-0.042,0.076-0.067l0.066-0.061
		c0.085-0.028,0.159-0.09,0.203-0.177c0.001-0.002,0.002-0.004,0.003-0.006l0.227-0.202c0.017-0.013,0.032-0.026,0.046-0.041
		l1.061-0.945l2.535-2.643l2.368-2.983l1.495-2.342l0.121-0.045L88.912,115.586z"/>
	<path class="st1" d="M36.579,43.093l0.417,0.823l0.543,0.772l0.602,0.594l0.607,0.44c0.012,0.009,0.025,0.018,0.038,0.025
		l1.107,0.662c0.011,0.007,0.022,0.013,0.034,0.019c0.004,0.002,0.008,0.004,0.013,0.006l0.61,0.276
		c0.035,0.016,0.072,0.025,0.111,0.029l0.559,0.056c0.012,0.001,0.023,0.002,0.035,0.002c0.038,0,0.076-0.006,0.112-0.018
		l0.503-0.167c0.052-0.018,0.1-0.047,0.139-0.086l0.335-0.335c0.009-0.01,0.018-0.019,0.025-0.028
		c0.068-0.054,0.116-0.132,0.13-0.224l0.183-0.327c0.024-0.044,0.04-0.093,0.044-0.144l0.047-0.617
		c0.009-0.038,0.011-0.076,0.008-0.115l-0.055-0.709c-0.002-0.036-0.009-0.071-0.022-0.106l-0.089-0.248
		c0.004-0.092-0.028-0.184-0.091-0.254l-0.475-1.134l-0.543-0.773l-0.601-0.594l-0.611-0.442c-0.005-0.004-0.011-0.008-0.017-0.012
		c-0.005-0.004-0.011-0.007-0.017-0.011l-0.27-0.161c-0.004-0.002-0.008-0.005-0.012-0.007l-0.826-0.494
		c-0.013-0.008-0.026-0.015-0.04-0.021c-0.002-0.001-0.005-0.002-0.007-0.003l-0.609-0.276c-0.035-0.017-0.073-0.026-0.111-0.03
		l-0.441-0.044c-0.042-0.013-0.084-0.016-0.126-0.013c-0.043-0.004-0.094,0.002-0.139,0.018l-0.502,0.167
		c-0.043,0.014-0.084,0.037-0.119,0.066l-0.391,0.335c-0.04,0.034-0.072,0.077-0.093,0.125l-0.224,0.501
		c-0.016,0.036-0.026,0.075-0.03,0.115l-0.056,0.726l0.068,0.794L36.579,43.093z M40.087,45.7l-0.429-0.257l0.257-0.15l0.447,0.255
		L40.087,45.7z M41.213,46.083l-0.301-0.03l0.189-0.104l0.219,0.1L41.213,46.083z M41.931,45.502l-0.134-0.017l-0.55-0.25
		l-0.036-0.021l0.234,0.104c0.045,0.02,0.094,0.03,0.144,0.03h0.427L41.931,45.502z M41.935,43.881l0.002,0.005l-0.85,0.479
		l-0.458-0.261l0.848-0.483L41.935,43.881z M40.962,41.966l0.468,0.662l0.068,0.157l-0.248-0.185l-0.425-0.526l-0.354-0.534
		l-0.028-0.083L40.962,41.966z M38.693,40.815l0.137-0.24l0.127-0.072l0.541,0.323l0.338,1.017l0.414,0.644l0.506,0.616l0.083,0.064
		l-0.902,0.514l-0.252-0.188l-0.425-0.526l-0.354-0.534l-0.207-0.589l-0.057-0.546L38.693,40.815z M38.027,40.283l0.052-0.141
		l0.172,0.018l-0.211,0.369c-0.025,0.043-0.04,0.091-0.045,0.141l-0.016,0.169L38.027,40.283z M37.02,40.851l0.167-0.373
		l0.123-0.105l-0.041,0.527l0.069,0.795l0.247,0.841l0.413,0.818l0.492,0.723l0.644,0.639l0.156,0.124l-0.307,0.18l-0.383-0.274
		l-0.519-0.509l-0.477-0.681l-0.367-0.719l-0.211-0.71l-0.056-0.667L37.02,40.851z"/>
	<path class="st1" d="M85.876,65.909l0.426,0.659l0.495,0.545l0.575,0.434l0.502,0.224c0.046,0.02,0.095,0.03,0.145,0.03h0.447
		c0.062,0,0.122-0.016,0.176-0.047l0.392-0.224c0.055-0.031,0.101-0.077,0.132-0.132l0.223-0.39c0.024-0.043,0.04-0.091,0.045-0.14
		l0.057-0.557c0.003-0.023,0.003-0.046,0-0.068l-0.073-0.693l-0.26-0.746l-0.414-0.645l-0.506-0.614l-0.502-0.391
		c-0.032-0.025-0.067-0.044-0.106-0.058l-0.503-0.167c-0.036-0.012-0.073-0.018-0.111-0.018h-0.447
		c-0.062,0-0.122,0.016-0.175,0.046L86,63.182c-0.056,0.032-0.102,0.078-0.133,0.133l-0.223,0.391
		c-0.018,0.031-0.03,0.063-0.038,0.099l-0.112,0.501c-0.01,0.044-0.012,0.091-0.004,0.136l0.126,0.723L85.876,65.909z
		 M86.286,64.011l0.148-0.261l0.226-0.128h0.296l0.395,0.131l0.392,0.294l0.425,0.525l0.354,0.535l0.206,0.588l0.053,0.579
		l-0.045,0.448l-0.138,0.24l-0.226,0.129H88.09l-0.356-0.149l-0.455-0.346l-0.413-0.455l-0.354-0.535l-0.209-0.614l-0.101-0.601
		L86.286,64.011z"/>
	<path class="st1" d="M40.328,39.649l0.383,0.681l0.549,0.6l0.503,0.39c0.032,0.024,0.067,0.044,0.105,0.056l0.502,0.167
		c0.036,0.013,0.074,0.019,0.112,0.019h0.447c0.07,0,0.138-0.021,0.196-0.06l0.335-0.223c0.036-0.023,0.067-0.054,0.092-0.089
		l0.279-0.39c0.035-0.049,0.058-0.106,0.064-0.167l0.057-0.501c0.002-0.022,0.002-0.046,0-0.068l-0.056-0.669
		c-0.003-0.041-0.014-0.081-0.03-0.117l-0.62-1.294c-0.014-0.027-0.032-0.054-0.052-0.076L42.7,37.36l-0.576-0.434l-0.503-0.223
		c-0.045-0.02-0.094-0.03-0.144-0.03h-0.503c-0.07,0-0.138,0.021-0.196,0.06l-0.335,0.223c-0.046,0.03-0.084,0.071-0.111,0.119
		l-0.223,0.39c-0.019,0.033-0.032,0.068-0.04,0.106l-0.112,0.558c-0.009,0.044-0.009,0.089-0.001,0.133l0.124,0.661L40.328,39.649z
		 M40.752,37.767l0.153-0.267l0.176-0.117h0.325l0.356,0.148l0.455,0.345l0.416,0.468l0.562,1.171l0.048,0.573l-0.042,0.374
		l-0.188,0.262l-0.191,0.128H42.54l-0.393-0.131l-0.407-0.309l-0.455-0.489l-0.31-0.556l-0.211-0.62l-0.1-0.546L40.752,37.767z"/>
</g>
</svg>
