<?xml version="1.0" encoding="utf-8"?>
<!-- Generator: Adobe Illustrator 18.1.1, SVG Export Plug-In . SVG Version: 6.00 Build 0)  -->
<svg version="1.1" id="Shrouds" xmlns="http://www.w3.org/2000/svg" xmlns:xlink="http://www.w3.org/1999/xlink" x="0px" y="0px"
	 viewBox="0 0 140 140" style="enable-background:new 0 0 140 140;" xml:space="preserve">
<style type="text/css">
	.st0{opacity:0.2;}
	.st1{fill:#939598;}
</style>
<g class="st0">
	<g>
		<path class="st1" d="M18.483,73.307c-0.011,0-0.021-0.001-0.033-0.003c-0.13-0.017-0.222-0.138-0.203-0.269l0.653-4.7
			c0.018-0.13,0.126-0.225,0.269-0.203c0.13,0.017,0.222,0.138,0.203,0.269l-0.653,4.7C18.702,73.221,18.6,73.307,18.483,73.307z"/>
	</g>
	<g>
		<path class="st1" d="M54.906,130.618c-0.029,0-0.059-0.006-0.087-0.017l-4.308-1.697c-0.122-0.049-0.183-0.188-0.135-0.31
			c0.049-0.123,0.189-0.18,0.31-0.135l4.308,1.697c0.122,0.049,0.183,0.188,0.135,0.31
			C55.091,130.561,55.001,130.618,54.906,130.618z"/>
	</g>
	<g>
		<path class="st1" d="M46.681,126.963c-0.033,0-0.065-0.007-0.097-0.02l-1.175-0.523l-1.48-1.07l-1.558-1.038l-1.578-1.183
			l-1.576-1.313l-1.444-1.313l-2.881-2.88l-1.443-1.574l-1.319-1.713l-1.3-1.559l-1.316-1.841l-1.301-1.691l-1.062-1.855
			l-1.173-1.954l-1.046-1.832l-2.751-5.892l-0.789-1.97l-1.31-3.929l-0.528-2.107l-0.521-1.955l-0.395-1.973l-0.524-3.798
			l-0.263-3.803l-0.001-0.801c0-0.132,0.107-0.239,0.239-0.239s0.239,0.107,0.239,0.239v0.784l0.26,3.77l0.521,3.769l0.389,1.944
			l0.518,1.943l0.524,2.092l1.3,3.899l0.779,1.945l2.736,5.862l1.035,1.81l1.173,1.954l1.046,1.832l1.288,1.67l1.31,1.834
			l1.295,1.553l1.311,1.704l1.422,1.551l2.865,2.864l1.427,1.298l1.559,1.298l1.558,1.168l1.556,1.036l1.445,1.05l1.131,0.497
			c0.12,0.054,0.175,0.195,0.121,0.316C46.859,126.909,46.772,126.963,46.681,126.963z"/>
	</g>
	<g>
		<path class="st1" d="M64.566,124.09h-0.13c-0.132,0-0.239-0.107-0.239-0.239s0.107-0.239,0.239-0.239h0.13
			c0.132,0,0.239,0.107,0.239,0.239S64.698,124.09,64.566,124.09z"/>
	</g>
	<g>
		<path class="st1" d="M29.71,63.777h-0.131c-0.132,0-0.239-0.107-0.239-0.239c0-0.132,0.107-0.239,0.239-0.239h0.131
			c0.132,0,0.239,0.107,0.239,0.239C29.949,63.67,29.842,63.777,29.71,63.777z"/>
	</g>
	<g>
		<path class="st1" d="M113.782,78.006c-0.083,0-0.162-0.043-0.207-0.12c-0.066-0.115-0.026-0.26,0.087-0.326l22.846-13.185
			c0.116-0.064,0.259-0.027,0.326,0.087c0.066,0.115,0.026,0.26-0.087,0.326l-22.846,13.185
			C113.864,77.996,113.823,78.006,113.782,78.006z"/>
	</g>
	<g>
		<path class="st1" d="M88.717,139.886c-0.112,0-0.212-0.079-0.234-0.192c-0.026-0.129,0.058-0.255,0.188-0.281l0.653-0.13
			l1.84-0.263l1.678-0.388l1.665-0.643l1.576-0.526l1.535-0.771l1.166-0.648c0.113-0.062,0.26-0.023,0.325,0.093
			c0.064,0.115,0.022,0.26-0.093,0.325l-1.175,0.653l-1.575,0.788l-1.597,0.534l-1.688,0.649l-1.73,0.401l-1.847,0.265l-0.64,0.128
			C88.748,139.884,88.732,139.886,88.717,139.886z"/>
	</g>
	<g>
		<path class="st1" d="M28.143,34.795c-0.048,0-0.095-0.015-0.137-0.044c-0.108-0.076-0.134-0.224-0.058-0.332l0.914-1.306
			l1.192-1.327l2.628-2.369L34,28.365l1.844-1.187c0.107-0.073,0.257-0.044,0.33,0.066c0.074,0.109,0.044,0.257-0.066,0.33
			l-0.392,0.261l-1.44,0.917l-1.285,1.029l-2.6,2.342l-1.156,1.286l-0.897,1.284C28.292,34.76,28.217,34.795,28.143,34.795z"/>
	</g>
	<g>
		<path class="st1" d="M98.9,136.492c-0.083,0-0.163-0.044-0.207-0.12c-0.066-0.114-0.026-0.26,0.088-0.326l28.199-16.189
			c0.112-0.064,0.26-0.027,0.326,0.088c0.066,0.114,0.026,0.26-0.088,0.326L99.018,136.46
			C98.981,136.482,98.94,136.492,98.9,136.492z"/>
	</g>
	<g>
		<path class="st1" d="M35.976,27.615c-0.082,0-0.161-0.043-0.206-0.119c-0.067-0.114-0.028-0.26,0.086-0.326l5.353-3.133
			c0.113-0.068,0.258-0.028,0.326,0.086c0.067,0.114,0.028,0.26-0.086,0.326l-5.353,3.133
			C36.059,27.604,36.017,27.615,35.976,27.615z"/>
	</g>
	<g>
		<path class="st1" d="M60.519,132.184h-0.13c-0.132,0-0.239-0.107-0.239-0.239s0.107-0.239,0.239-0.239h0.13
			c0.132,0,0.239,0.107,0.239,0.239S60.651,132.184,60.519,132.184z"/>
	</g>
	<g>
		<path class="st1" d="M19.919,64.821c-0.029,0-0.059-0.006-0.088-0.017c-0.122-0.049-0.183-0.188-0.133-0.31l0.522-1.305
			l0.121-0.493c0.032-0.127,0.162-0.205,0.29-0.173c0.127,0.032,0.205,0.161,0.173,0.29l-0.131,0.523l-0.531,1.335
			C20.103,64.764,20.013,64.821,19.919,64.821z"/>
	</g>
	<g>
		<path class="st1" d="M73.574,135.97c-0.011,0-0.022-0.001-0.034-0.003l-0.914-0.13c-0.13-0.018-0.221-0.139-0.202-0.27
			c0.018-0.129,0.126-0.226,0.27-0.202l0.914,0.13c0.13,0.018,0.221,0.139,0.202,0.27C73.793,135.883,73.691,135.97,73.574,135.97z"
			/>
	</g>
	<g>
		<path class="st1" d="M23.443,50.591c-0.036,0-0.073-0.009-0.107-0.025c-0.118-0.059-0.166-0.203-0.107-0.321l0.393-0.783
			c0.059-0.119,0.204-0.164,0.321-0.107c0.118,0.059,0.166,0.203,0.107,0.321l-0.393,0.783
			C23.615,50.543,23.53,50.591,23.443,50.591z"/>
	</g>
	<g>
		<path class="st1" d="M31.929,14.038c-0.083,0-0.162-0.043-0.207-0.12c-0.066-0.114-0.027-0.259,0.087-0.326L54.525,0.407
			c0.112-0.063,0.26-0.027,0.326,0.087c0.066,0.114,0.027,0.259-0.087,0.326L32.049,14.006
			C32.012,14.028,31.97,14.038,31.929,14.038z"/>
	</g>
	<g>
		<path class="st1" d="M66.393,134.273c-0.026,0-0.053-0.005-0.081-0.015l-1.828-0.653l-1.455-0.66
			c-0.12-0.054-0.173-0.196-0.119-0.317c0.054-0.12,0.197-0.174,0.317-0.119l1.436,0.653l1.809,0.646
			c0.123,0.044,0.188,0.181,0.144,0.305C66.584,134.212,66.491,134.273,66.393,134.273z"/>
	</g>
	<g>
		<path class="st1" d="M21.224,60.383c-0.009,0-0.017-0.001-0.026-0.002c-0.131-0.015-0.225-0.132-0.211-0.263l0.131-1.175
			l0.261-1.707c0.02-0.13,0.139-0.225,0.272-0.2c0.13,0.02,0.221,0.142,0.2,0.272l-0.26,1.697l-0.13,1.165
			C21.447,60.292,21.344,60.383,21.224,60.383z"/>
	</g>
	<g>
		<path class="st1" d="M60.389,132.184h-0.131c-0.132,0-0.239-0.107-0.239-0.239s0.107-0.239,0.239-0.239h0.131
			c0.132,0,0.239,0.107,0.239,0.239S60.521,132.184,60.389,132.184z"/>
	</g>
	<g>
		<path class="st1" d="M20.049,64.821h-0.13c-0.132,0-0.239-0.107-0.239-0.239c0-0.116,0.083-0.212,0.191-0.234l0.472-1.532
			c0.039-0.126,0.171-0.196,0.298-0.158c0.126,0.039,0.197,0.173,0.158,0.298l-0.523,1.696
			C20.246,64.752,20.154,64.821,20.049,64.821z"/>
	</g>
	<g>
		<path class="st1" d="M58.038,130.618l-1.457-0.132l-1.584-0.263l-2.63-0.657c-0.127-0.032-0.205-0.161-0.173-0.29
			c0.032-0.127,0.162-0.205,0.29-0.173l2.611,0.653l1.547,0.257l1.419,0.128l1.415-0.001l1.415-0.13l1.281-0.257l2.588-0.777
			l2.303-1.286l1.017-0.766l0.888-0.892l0.903-1.033l0.765-1.149l0.777-1.296l0.643-1.289l1.034-2.847l0.385-1.543l0.518-3.372
			l0.128-1.808l-0.001-3.77l-0.781-5.975l-0.516-2.061l-0.522-1.955l-0.523-2.092l-2.343-6.241l-1.035-2.066l-0.918-2.101
			l-1.161-1.931l-1.05-1.969l-2.598-3.896l-1.302-1.821l-2.734-3.516l-1.549-1.545l-1.443-1.575l-3.118-2.857l-1.559-1.298
			L49.41,63.86l-1.68-1.033l-1.573-1.049c-0.11-0.073-0.14-0.221-0.066-0.33c0.073-0.11,0.222-0.139,0.33-0.066l1.566,1.045
			l1.691,1.04l1.584,1.186l1.577,1.314l3.141,2.879l1.451,1.582l1.56,1.559l2.761,3.548l1.311,1.834l2.615,3.923l1.057,1.978
			l1.169,1.948l0.927,2.116l1.04,2.077l2.36,6.289l0.53,2.114l0.522,1.955l0.523,2.092l0.789,6.031l0.002,3.819l-0.131,1.844
			l-0.525,3.413l-0.396,1.589l-1.051,2.895l-0.663,1.331l-0.793,1.321l-0.79,1.183l-0.932,1.07l-0.925,0.926l-1.071,0.805
			l-2.377,1.323l-2.657,0.803l-1.328,0.266l-1.461,0.135L58.038,130.618z"/>
	</g>
	<g>
		<path class="st1" d="M18.874,71.088c-0.025,0-0.051-0.004-0.075-0.013c-0.125-0.041-0.193-0.177-0.152-0.301l0.13-0.393
			l0.387-1.55l0.53-1.459l0.66-1.454l0.656-1.313l0.8-1.201l0.932-1.069l0.925-0.926l1.055-0.924l1.058-0.796l1.204-0.669
			l1.193-0.532l1.333-0.401l2.768-0.529l2.915-0.004l3.171,0.526l1.587,0.395l4.733,1.97l1.718,0.924
			c0.117,0.062,0.16,0.207,0.097,0.323c-0.062,0.119-0.208,0.159-0.323,0.097l-1.697-0.913L39.8,58.928l-1.533-0.381l-3.113-0.518
			l-2.833,0.004l-2.695,0.517l-1.283,0.386l-1.147,0.513l-1.157,0.642l-1.016,0.767l-1.03,0.902l-0.903,0.904l-0.903,1.032
			l-0.766,1.15l-0.636,1.28l-0.649,1.428l-0.516,1.419l-0.385,1.543l-0.135,0.409C19.068,71.025,18.974,71.088,18.874,71.088z"/>
	</g>
	<g>
		<path class="st1" d="M92.112,126.179c-0.044,0-0.088-0.013-0.128-0.038c-0.111-0.07-0.144-0.218-0.073-0.329l0.913-1.436
			l0.634-1.531l0.651-1.69l0.516-1.682l0.522-1.824l0.387-1.938l0.258-1.944l0.259-4.16l-0.001-2.205l-0.259-4.425l-0.26-2.338
			l-0.39-2.337l-1.043-4.687l-0.651-2.471l-0.652-2.347l-0.779-2.339c-0.042-0.125,0.026-0.26,0.151-0.302
			c0.125-0.046,0.26,0.025,0.302,0.151l0.783,2.35l0.657,2.361l0.654,2.484l1.046,4.71l0.394,2.362l0.263,2.363l0.261,4.451
			l0.001,2.233l-0.261,4.192l-0.262,1.976l-0.394,1.972l-0.528,1.847l-0.523,1.701l-0.659,1.712l-0.655,1.574l-0.933,1.472
			C92.268,126.141,92.19,126.179,92.112,126.179z"/>
	</g>
	<g>
		<path class="st1" d="M75.793,58.294c-0.064,0-0.128-0.026-0.176-0.077l-3.263-3.524l-3.519-3.518l-1.814-1.554l-1.82-1.43
			l-3.777-2.735l-1.818-1.168l-1.951-1.171l-3.64-1.819l-1.928-0.64l-1.833-0.655l-1.812-0.517l-1.685-0.389l-1.808-0.257
			l-3.379-0.259c-0.131-0.01-0.229-0.125-0.22-0.257c0.011-0.131,0.115-0.235,0.257-0.22l3.395,0.261l1.843,0.263l1.716,0.395
			l1.839,0.525l1.843,0.658l1.954,0.651l3.686,1.84l1.973,1.183l1.834,1.179l1.837,1.313l1.96,1.438l1.834,1.441l1.835,1.572
			l3.539,3.538l3.271,3.531c0.089,0.097,0.083,0.248-0.014,0.338C75.909,58.272,75.851,58.294,75.793,58.294z"/>
	</g>
	<g>
		<path class="st1" d="M98.9,136.492c-0.079,0-0.155-0.039-0.201-0.111c-0.071-0.112-0.038-0.258,0.073-0.329l1.436-0.914
			l1.423-1.037l1.287-1.159l1.295-1.296l1.16-1.419c0.083-0.102,0.234-0.118,0.336-0.033c0.102,0.084,0.117,0.234,0.033,0.336
			l-1.176,1.436l-1.32,1.322l-1.316,1.183l-1.455,1.06l-1.449,0.922C98.988,136.48,98.943,136.492,98.9,136.492z"/>
	</g>
	<g>
		<path class="st1" d="M35.976,27.615c-0.087,0-0.172-0.049-0.214-0.132c-0.059-0.118-0.011-0.261,0.107-0.321l1.566-0.783
			l3.415-1.314l1.73-0.402l1.847-0.264c0.138-0.025,0.252,0.073,0.27,0.202c0.018,0.131-0.072,0.252-0.202,0.27l-1.828,0.26
			L40.99,25.52l-3.362,1.295l-1.545,0.774C36.049,27.606,36.012,27.615,35.976,27.615z"/>
	</g>
	<g>
		<path class="st1" d="M102.033,79.704c-0.092,0-0.181-0.054-0.22-0.145l-1.175-2.741l-1.176-2.876l-1.427-2.722l-1.31-2.749
			L95.17,65.88l-1.569-2.746l-1.69-2.599l-1.695-2.476l-1.823-2.474l-1.824-2.345c-0.081-0.104-0.062-0.255,0.042-0.335
			c0.103-0.081,0.255-0.062,0.335,0.042l1.828,2.349l1.832,2.485l1.702,2.487l1.699,2.616l1.574,2.754l1.564,2.607l1.317,2.76
			l1.432,2.734l1.183,2.893l1.174,2.737c0.051,0.121-0.004,0.261-0.125,0.314C102.096,79.697,102.064,79.704,102.033,79.704z"/>
	</g>
	<g>
		<path class="st1" d="M79.71,97.327c-0.065,0-0.13-0.027-0.178-0.08c-0.087-0.097-0.08-0.249,0.018-0.337l5.222-4.699l5.357-4.574
			l5.757-4.318l6.014-4.054c0.11-0.073,0.257-0.045,0.331,0.065c0.074,0.109,0.045,0.257-0.065,0.331l-6.005,4.047l-5.735,4.301
			l-5.34,4.56l-5.218,4.695C79.823,97.307,79.767,97.327,79.71,97.327z"/>
	</g>
	<g>
		<path class="st1" d="M79.71,121.088c-0.023,0-0.047-0.004-0.07-0.011c-0.126-0.039-0.197-0.172-0.158-0.298l0.522-1.697
			l0.779-3.377l0.257-1.937l0.129-1.812l-0.001-4.03l-0.129-2.074l-0.26-2.073l-0.781-4.427l-0.519-2.208
			c-0.03-0.128,0.05-0.257,0.178-0.287c0.132-0.035,0.257,0.051,0.287,0.178l0.522,2.22l0.786,4.451l0.263,2.1l0.131,2.105
			l0.001,4.061l-0.131,1.844l-0.262,1.973l-0.788,3.416l-0.526,1.714C79.906,121.022,79.812,121.088,79.71,121.088z"/>
	</g>
	<g>
		<path class="st1" d="M102.033,130.878c-0.026,0-0.053-0.005-0.08-0.014l-5.875-2.088l-5.755-2.355l-5.491-2.484l-5.238-2.88
			c-0.116-0.063-0.158-0.208-0.094-0.324c0.063-0.116,0.21-0.158,0.324-0.094l5.222,2.871l5.466,2.472l5.737,2.347l5.864,2.083
			c0.124,0.045,0.189,0.181,0.146,0.305C102.224,130.817,102.131,130.878,102.033,130.878z"/>
	</g>
	<g>
		<path class="st1" d="M86.759,139.625c-0.118,0-0.22-0.086-0.236-0.205c-0.018-0.131,0.072-0.252,0.202-0.27l1.828-0.26
			l1.812-0.389l1.677-0.518l1.681-0.647l3.099-1.811l1.278-1.024l1.424-1.296l1.157-1.288l1.168-1.428
			c0.083-0.102,0.233-0.118,0.336-0.033c0.102,0.084,0.117,0.234,0.033,0.336l-1.175,1.436l-1.182,1.314l-1.454,1.323l-1.318,1.053
			l-3.162,1.847l-1.731,0.669l-1.713,0.529l-1.848,0.396l-1.843,0.263C86.781,139.624,86.77,139.625,86.759,139.625z"/>
	</g>
	<g>
		<path class="st1" d="M86.759,139.625c-0.021,0-0.044-0.003-0.066-0.01l-6.396-1.828l-13.313-3.654l-6.662-1.959
			c-0.127-0.038-0.199-0.17-0.162-0.296c0.038-0.126,0.171-0.199,0.296-0.162l6.658,1.958l13.312,3.654l6.399,1.829
			c0.126,0.036,0.2,0.168,0.163,0.295C86.958,139.556,86.863,139.625,86.759,139.625z"/>
	</g>
	<g>
		<path class="st1" d="M60.257,132.184c-0.019,0-0.039-0.003-0.058-0.008l-1.566-0.392l-1.693-0.391l-2.11-0.789
			c-0.124-0.042-0.192-0.177-0.151-0.302c0.041-0.125,0.177-0.195,0.302-0.151l0.392,0.13l1.706,0.657l1.665,0.382l1.571,0.393
			c0.127,0.031,0.205,0.161,0.173,0.29C60.462,132.111,60.364,132.184,60.257,132.184z"/>
	</g>
	<g>
		<path class="st1" d="M19.136,68.608c-0.025,0-0.051-0.004-0.076-0.013c-0.124-0.042-0.192-0.177-0.151-0.302l0.13-0.392
			l0.252-1.658l0.395-1.715c0.029-0.128,0.159-0.215,0.286-0.179c0.128,0.029,0.209,0.157,0.179,0.286l-0.392,1.697l-0.257,1.68
			l-0.14,0.431C19.329,68.544,19.236,68.608,19.136,68.608z"/>
	</g>
	<g>
		<path class="st1" d="M20.572,63.125c-0.017,0-0.036-0.002-0.053-0.007c-0.129-0.029-0.209-0.157-0.179-0.286l1.566-6.789
			l1.83-6.798l1.696-6.525l1.565-6.523c0.031-0.128,0.163-0.208,0.288-0.177c0.128,0.031,0.208,0.159,0.177,0.288l-1.566,6.527
			l-1.698,6.531l-1.829,6.791l-1.564,6.78C20.779,63.05,20.68,63.125,20.572,63.125z"/>
	</g>
	<g>
		<path class="st1" d="M27.229,36.493c-0.053,0-0.107-0.017-0.152-0.054c-0.102-0.084-0.117-0.234-0.033-0.336l1.175-1.436
			l1.321-1.323l1.315-1.183l1.444-1.182l1.459-0.931l1.588-0.796l1.704-0.786l1.728-0.534l1.848-0.396l1.843-0.263
			c0.137-0.023,0.252,0.073,0.27,0.202c0.018,0.131-0.072,0.252-0.202,0.27l-1.828,0.26l-1.812,0.389l-1.677,0.518l-1.667,0.771
			l-1.559,0.78l-1.415,0.902l-1.413,1.158l-1.297,1.168l-1.296,1.297l-1.159,1.419C27.367,36.463,27.298,36.493,27.229,36.493z"/>
	</g>
	<g>
		<path class="st1" d="M39.893,52.028c-0.002,0-0.004,0-0.005,0c-0.132-0.003-0.237-0.113-0.234-0.244l0.13-6.005l0.523-5.891
			l0.785-6.145l1.177-6.28c0.025-0.129,0.152-0.207,0.279-0.191c0.13,0.024,0.216,0.15,0.191,0.279l-1.175,6.266l-0.782,6.122
			l-0.521,5.866l-0.129,5.988C40.129,51.924,40.022,52.028,39.893,52.028z"/>
	</g>
	<g>
		<path class="st1" d="M60.389,63.777c-0.058,0-0.116-0.021-0.162-0.063l-1.697-1.566l-1.69-1.429l-3.385-2.604l-1.687-1.168
			l-1.81-1.034l-3.389-1.825l-1.796-0.638l-1.701-0.655l-1.682-0.516l-1.535-0.255c-0.13-0.021-0.219-0.145-0.196-0.274
			c0.021-0.13,0.146-0.224,0.274-0.196l1.566,0.261l1.729,0.529l1.712,0.659l1.823,0.651l3.428,1.842l1.833,1.047l1.714,1.185
			l3.404,2.618l1.706,1.443l1.705,1.573c0.096,0.089,0.103,0.241,0.014,0.338C60.517,63.75,60.453,63.777,60.389,63.777z"/>
	</g>
	<g>
		<path class="st1" d="M60.389,63.777c-0.102,0-0.196-0.066-0.228-0.169c-0.039-0.125,0.032-0.259,0.158-0.298l6.788-2.088
			l6.645-2.476l6.519-2.739l6.384-3.127c0.12-0.058,0.261-0.008,0.32,0.11c0.057,0.119,0.009,0.261-0.11,0.32l-6.396,3.133
			l-6.54,2.748l-6.667,2.484l-6.801,2.093C60.435,63.773,60.412,63.777,60.389,63.777z"/>
	</g>
	<g>
		<path class="st1" d="M86.106,135.709h-0.913l-2.765-0.262l-2.095-0.262l-1.847-0.395l-2.238-0.657l-1.841-0.657l-1.701-0.655
			l-1.327-0.662l-0.668-0.4l-0.568-0.558c-0.026-0.026-0.046-0.058-0.057-0.094l-0.13-0.393c-0.009-0.024-0.013-0.05-0.013-0.075
			v-0.26c0-0.037,0.009-0.074,0.025-0.107l0.13-0.261c0.023-0.046,0.061-0.084,0.107-0.107l0.226-0.113l0.233-0.233
			c0.018-0.018,0.039-0.034,0.062-0.046l0.523-0.261c0.019-0.01,0.039-0.017,0.06-0.02l1.305-0.26l0.927-0.133l3.951-0.003
			l2.646,0.394l2.353,0.393l2.247,0.659l1.98,0.791l1.202,0.666l0.937,0.668l0.553,0.547c0.017,0.018,0.033,0.039,0.045,0.062
			l0.261,0.523c0.017,0.033,0.025,0.07,0.025,0.107v0.652c0,0.063-0.025,0.124-0.07,0.169l-0.523,0.523
			c-0.018,0.018-0.04,0.033-0.062,0.045l-0.521,0.26c-0.019,0.01-0.04,0.017-0.061,0.021l-1.306,0.26l-1.061,0.134
			C86.125,135.708,86.116,135.709,86.106,135.709z M70.519,130.903l0.482,0.482l0.606,0.356l1.29,0.644l1.675,0.644l1.823,0.65
			l2.207,0.648l1.81,0.388l2.069,0.257l2.733,0.26l0.876-0.001l1.03-0.129l1.257-0.251l0.46-0.23l0.425-0.426v-0.497l-0.219-0.437
			l-0.496-0.495l-0.883-0.628l-1.151-0.638l-1.932-0.771l-2.198-0.645l-2.321-0.386l-2.607-0.391l-3.882,0.003l-0.88,0.128
			l-1.261,0.253l-0.459,0.229l-0.233,0.233c-0.018,0.018-0.04,0.034-0.062,0.046l-0.19,0.094l-0.069,0.14v0.165L70.519,130.903z"/>
	</g>
	<g>
		<path class="st1" d="M26.838,55.422c-0.037,0-0.074-0.009-0.107-0.025l-0.261-0.131c-0.023-0.012-0.044-0.027-0.062-0.045
			l-0.13-0.13c-0.017-0.018-0.033-0.039-0.045-0.062l-0.261-0.523c-0.01-0.019-0.017-0.039-0.02-0.06l-0.13-0.652l-0.005-1.091
			l0.131-1.457l0.263-1.84l0.527-2.113l1.309-4.19l0.661-1.589l0.655-1.443l0.533-0.933l0.666-0.935l0.381-0.636
			c0.017-0.026,0.037-0.049,0.061-0.067l0.522-0.393l0.366-0.37l0.428-0.291c0.022-0.015,0.048-0.026,0.074-0.032l0.523-0.131
			c0.045-0.012,0.091-0.011,0.134,0.005l0.392,0.131l0.291,0.143c0.046,0.023,0.084,0.06,0.107,0.107l0.523,1.045
			c0.012,0.024,0.019,0.051,0.023,0.078l0.13,1.045l0.002,1.074l-0.131,1.457l-0.264,1.457l-0.395,1.582l-0.789,2.241l-0.917,2.356
			l-1.575,3.154l-0.672,0.945L29.11,53.9l-1.19,1.191c-0.018,0.017-0.039,0.033-0.062,0.045l-0.26,0.13
			c-0.019,0.01-0.039,0.017-0.06,0.02l-0.653,0.131C26.869,55.421,26.853,55.422,26.838,55.422z M26.718,54.856l0.154,0.077
			l0.54-0.108l0.197-0.099l1.148-1.148l0.637-0.768l0.642-0.9l1.547-3.101l0.906-2.329l0.78-2.212l0.386-1.545l0.257-1.421
			l0.127-1.415l-0.001-1.023l-0.123-0.975l-0.468-0.937l-0.189-0.094l-0.293-0.096l-0.416,0.104l-0.358,0.238l-0.355,0.361
			l-0.51,0.386l-0.367,0.613l-0.664,0.93l-0.51,0.893l-0.641,1.417l-0.65,1.56l-1.298,4.156l-0.519,2.076l-0.257,1.803l-0.128,1.423
			l0.001,1.023l0.119,0.573l0.23,0.46L26.718,54.856z"/>
	</g>
	<g>
		<path class="st1" d="M33.887,106.205c-0.104,0-0.199-0.069-0.229-0.173l-0.261-0.914l-0.514-1.283l-0.384-0.765l-0.507-0.759
			c-0.074-0.11-0.044-0.257,0.066-0.33c0.109-0.073,0.257-0.044,0.33,0.066l0.523,0.784l0.407,0.808l0.53,1.323l0.269,0.937
			c0.037,0.127-0.037,0.259-0.163,0.295C33.931,106.202,33.908,106.205,33.887,106.205z"/>
	</g>
	<g>
		<path class="st1" d="M32.19,102.419c-0.087,0-0.172-0.049-0.214-0.132l-0.392-0.783l-0.383-0.637l-1.026-1.278l-0.504-0.503
			c-0.045-0.045-0.07-0.106-0.07-0.169v-0.13c0-0.132,0.107-0.239,0.239-0.239s0.239,0.107,0.239,0.239v0.031l0.452,0.453
			l1.062,1.324l0.41,0.68l0.4,0.799c0.059,0.118,0.011,0.261-0.107,0.321C32.262,102.41,32.225,102.419,32.19,102.419z"/>
	</g>
	<g>
		<path class="st1" d="M76.576,82.706c-0.007,0-0.015-0.001-0.021-0.001l-1.436-0.13l-1.457-0.264l-0.936-0.266
			c-0.024-0.007-0.047-0.017-0.067-0.031l-0.783-0.523l-1.07-0.932c-0.018-0.017-0.035-0.036-0.048-0.057l-0.392-0.653l-0.283-0.83
			l-0.139-0.82l-0.004-0.692l0.132-1.201l0.405-1.102l0.528-1.189l0.797-1.33l1.727-1.867l2.113-1.721l2.123-1.197l2.38-0.929
			l1.865-0.402l1.877-0.006l1.201,0.133l1.201,0.264l0.839,0.412l0.808,0.536l0.69,0.683l0.539,0.673
			c0.017,0.021,0.031,0.047,0.04,0.073l0.261,0.783l0.264,0.923c0.007,0.021,0.01,0.044,0.01,0.066v1.828l-0.269,1.103l-0.535,1.214
			l-0.797,1.331l-1.333,1.474l-1.444,1.445c-0.016,0.016-0.033,0.028-0.052,0.039l-2.089,1.175l-2.099,1.05l-2.259,0.668
			l-2.258,0.268C76.595,82.705,76.586,82.706,76.576,82.706z M72.892,81.596l0.877,0.251l1.414,0.256l1.39,0.125l2.194-0.257
			l2.18-0.645l2.049-1.029l2.05-1.153l1.413-1.413l1.297-1.427l0.755-1.268l0.509-1.149l0.249-1.006l-0.008-1.736l-0.252-0.88
			l-0.245-0.734l-0.496-0.62l-0.635-0.633l-0.746-0.492l-0.758-0.378l-1.12-0.241l-1.149-0.127l-1.801,0.002l-1.778,0.386
			l-2.313,0.904l-2.059,1.16l-2.055,1.675l-1.672,1.804l-0.753,1.265l-0.509,1.15l-0.387,1.031l-0.117,1.117l0.002,0.627
			l0.126,0.744l0.253,0.746l0.35,0.573l1.017,0.889L72.892,81.596z"/>
	</g>
	<g>
		<path class="st1" d="M52.425,129.573c-0.036,0-0.073-0.009-0.107-0.025l-0.522-0.261l-1.536-0.509l-1.721-0.793l-1.574-0.787
			l-0.36-0.118c-0.124-0.042-0.192-0.177-0.151-0.302c0.041-0.125,0.177-0.194,0.302-0.151l0.392,0.13l1.598,0.797l1.69,0.78
			l1.543,0.512l0.553,0.274c0.118,0.059,0.166,0.203,0.107,0.321C52.597,129.525,52.512,129.573,52.425,129.573z"/>
	</g>
	<g>
		<path class="st1" d="M18.091,77.485c-0.006,0-0.012,0-0.018-0.001c-0.131-0.01-0.229-0.124-0.22-0.257l0.261-3.524l0.262-1.715
			l0.264-1.19c0.029-0.128,0.151-0.211,0.285-0.182c0.129,0.029,0.21,0.156,0.182,0.285l-0.261,1.175l-0.257,1.681l-0.259,3.508
			C18.319,77.389,18.214,77.485,18.091,77.485z"/>
	</g>
	<g>
		<path class="st1" d="M27.359,88.842h-1.175c-0.132,0-0.239-0.107-0.239-0.239s0.107-0.239,0.239-0.239h1.139l1.663-0.511
			c0.123-0.038,0.258,0.031,0.298,0.158c0.039,0.126-0.032,0.259-0.158,0.298l-1.697,0.522
			C27.407,88.838,27.383,88.842,27.359,88.842z"/>
	</g>
	<g>
		<path class="st1" d="M42.764,112.21c-0.073,0-0.146-0.034-0.192-0.097l-1.828-2.481l-3.399-4.967l-1.576-2.758L34.205,99.3
			l-1.569-2.745l-2.62-5.499l-1.18-2.885c-0.051-0.122,0.008-0.261,0.13-0.311c0.12-0.053,0.262,0.009,0.311,0.13l1.175,2.872
			l2.606,5.47l1.559,2.725l1.564,2.607l1.568,2.746l3.384,4.944l1.823,2.474c0.078,0.106,0.055,0.256-0.051,0.334
			C42.863,112.195,42.813,112.21,42.764,112.21z"/>
	</g>
	<g>
		<path class="st1" d="M40.936,114.429c-0.044,0-0.087-0.012-0.126-0.037c-0.112-0.07-0.146-0.217-0.076-0.328l0.653-1.045
			l1.208-1.217c0.093-0.093,0.245-0.093,0.338,0c0.093,0.093,0.093,0.245,0,0.338l-1.175,1.175l-0.62,1.002
			C41.094,114.389,41.016,114.429,40.936,114.429z"/>
	</g>
	<g>
		<path class="st1" d="M86.759,134.795l-2.762-0.262l-2.097-0.261l-1.865-0.531l-2.081-0.52l-1.975-0.658l-1.584-0.659l-1.442-0.655
			l-0.703-0.554l-0.411-0.409l-0.291-0.428c-0.026-0.039-0.041-0.085-0.041-0.132v-0.261c0-0.063,0.025-0.124,0.07-0.169l0.13-0.13
			c0.093-0.093,0.245-0.093,0.338,0s0.093,0.245,0,0.338l-0.06,0.06v0.09l0.221,0.331l0.362,0.355l0.634,0.505l1.385,0.621
			l1.56,0.65l1.941,0.647l2.072,0.517l1.835,0.525l2.052,0.253l2.735,0.26l1.021-0.001l0.879-0.127l0.64-0.129l0.178-0.005
			c0.132,0,0.239,0.107,0.239,0.239c0,0.132-0.107,0.239-0.239,0.239H89.37l-0.606,0.126l-0.926,0.132L86.759,134.795z"/>
	</g>
	<g>
		<path class="st1" d="M28.404,54.508c-0.036,0-0.072-0.008-0.107-0.025l-0.261-0.13c-0.037-0.018-0.069-0.047-0.092-0.082
			l-0.26-0.392c-0.015-0.022-0.026-0.048-0.032-0.074l-0.131-0.523l-0.133-0.665c-0.005-0.022-0.006-0.046-0.004-0.068l0.261-3.001
			l0.528-2.253l0.654-2.487l0.524-1.832l0.791-1.981l0.661-1.324l0.515-1.286l1.068-1.611l0.421-0.428
			c0.093-0.093,0.245-0.093,0.338,0c0.093,0.093,0.093,0.245,0,0.338l-0.392,0.392l-1.014,1.53l-0.5,1.261l-0.661,1.324L29.8,43.13
			l-0.514,1.804l-0.651,2.477l-0.521,2.212l-0.253,2.935l0.242,1.09l0.202,0.304l0.205,0.102c0.118,0.059,0.165,0.202,0.107,0.321
			C28.576,54.46,28.491,54.508,28.404,54.508z"/>
	</g>
	<g>
		<path class="st1" d="M35.453,108.294c-0.061,0-0.122-0.023-0.169-0.07c-0.093-0.093-0.093-0.245,0-0.338l0.207-0.207l0.119-0.707
			l-0.004-0.744l-0.253-0.987c-0.032-0.127,0.046-0.257,0.174-0.289c0.124-0.033,0.257,0.047,0.289,0.174l0.26,1.045l0.008,0.84
			l-0.134,0.822c-0.008,0.05-0.031,0.095-0.066,0.13l-0.261,0.261C35.576,108.271,35.514,108.294,35.453,108.294z"/>
	</g>
	<g>
		<path class="st1" d="M35.584,105.422c-0.107,0-0.204-0.073-0.231-0.181l-0.255-1.014l-0.637-1.148l-0.278-0.825l-0.371-0.603
			l-0.516-0.775l-0.406-0.808l-0.495-0.609l-0.411-0.679l-1.139-1.129l-1.111-0.864l-0.475-0.119l-0.464,0.008
			c-0.132,0-0.239-0.107-0.239-0.239c0-0.132,0.107-0.239,0.239-0.239h0.523l0.579,0.138c0.031,0.007,0.06,0.021,0.086,0.04
			l1.181,0.919l1.194,1.192l0.428,0.699l0.503,0.626l0.419,0.826l0.507,0.759l0.398,0.661l0.282,0.833l0.635,1.134
			c0.01,0.017,0.017,0.037,0.022,0.057l0.261,1.045c0.032,0.128-0.046,0.257-0.173,0.29
			C35.623,105.419,35.604,105.422,35.584,105.422z"/>
	</g>
	<g>
		<path class="st1" d="M77.91,81.791l-1.358-0.13l-1.455-0.263c-0.022-0.004-0.044-0.012-0.064-0.021l-0.783-0.392l-0.925-0.53
			c-0.018-0.011-0.035-0.023-0.051-0.038l-0.914-0.913l-0.428-0.7l-0.283-0.83l-0.139-0.82l-0.004-0.822l0.269-1.103l0.399-1.07
			l0.659-1.452l0.942-1.222l1.705-1.969l1.861-1.467c0.104-0.084,0.255-0.064,0.335,0.04c0.082,0.104,0.064,0.254-0.04,0.335
			l-1.828,1.436l-1.664,1.928l-0.906,1.165l-0.624,1.388l-0.386,1.029l-0.254,1.019l0.008,0.725l0.126,0.744l0.253,0.746l0.37,0.606
			l0.855,0.844l0.886,0.507l0.74,0.369l1.403,0.255l1.287,0.128l2.167-0.26l2.193-0.517l1.788-0.771
			c0.122-0.051,0.262,0.004,0.314,0.125c0.051,0.121-0.004,0.261-0.125,0.314l-1.828,0.783l-2.259,0.534L77.91,81.791z"/>
	</g>
	<g>
		<path class="st1" d="M86.759,53.333c-0.083,0-0.163-0.044-0.207-0.12c-0.066-0.115-0.026-0.26,0.088-0.326l2.742-1.566
			l0.795-0.399c0.116-0.057,0.261-0.012,0.321,0.107c0.059,0.118,0.011,0.261-0.107,0.321l-0.783,0.393l-2.73,1.559
			C86.84,53.323,86.8,53.333,86.759,53.333z"/>
	</g>
	<g>
		<path class="st1" d="M105.558,77.615c-0.092,0-0.181-0.054-0.22-0.145l-1.176-2.741l-2.607-5.474l-2.868-5.475l-1.559-2.599
			l-1.693-2.604l-1.694-2.475l-1.823-2.474l-1.824-2.346c-0.081-0.104-0.062-0.255,0.042-0.335s0.255-0.062,0.335,0.042l1.828,2.35
			l1.832,2.485l1.701,2.486l1.7,2.617l1.571,2.619l2.879,5.495l2.615,5.491l1.18,2.75c0.051,0.121-0.004,0.261-0.125,0.314
			C105.621,77.608,105.589,77.615,105.558,77.615z"/>
	</g>
	<g>
		<path class="st1" d="M102.033,79.704c-0.087,0-0.172-0.049-0.214-0.132c-0.058-0.119-0.011-0.261,0.107-0.321l0.261-0.13
			l0.902-0.516l1.554-1.036l0.808-0.407c0.117-0.056,0.261-0.012,0.321,0.107c0.059,0.118,0.011,0.261-0.107,0.321l-0.783,0.392
			l-1.542,1.03l-1.2,0.668C102.105,79.696,102.069,79.704,102.033,79.704z"/>
	</g>
	<g>
		<path class="st1" d="M59.344,128.529h-2.742l-1.457-0.131l-1.584-0.264l-1.46-0.396l-1.579-0.527l-1.582-0.658l-3.149-1.574
			l-1.592-1.06l-1.444-1.048l-3.136-2.352l-1.585-1.452l-2.88-2.879l-1.443-1.574l-2.624-3.409l-2.616-3.662l-1.061-1.985
			l-1.165-1.811l-1.054-1.974l-0.92-1.97l-0.79-2.107l-0.907-1.94l-0.665-2.119l-0.651-1.954l-0.527-2.106L20.21,87.62l-0.789-5.771
			l-0.132-1.845l-0.001-1.844l0.131-1.844l0.786-4.853l1.055-2.915l0.668-1.209l0.648-1.296c0.01-0.018,0.02-0.035,0.034-0.051
			l0.913-1.045l0.771-1.03l0.95-0.822l1.057-0.793l1.185-0.791l1.07-0.537l2.649-0.798l2.655-0.271l2.918,0.261l1.457,0.264
			l1.582,0.395l1.585,0.527l1.583,0.659l1.443,0.656l3.154,1.839l1.579,1.051l1.577,1.182l1.576,1.313l3.011,2.75l2.887,3.147
			l2.625,3.41l1.31,1.834l2.357,3.665l1.179,1.965l0.925,1.98l1.039,1.946l0.794,1.982l0.785,2.094l0.782,1.953l0.659,2.107
			l0.525,1.968l0.787,3.931l0.525,3.932l0.132,1.841l0.001,1.845l-0.132,1.716l-0.524,3.411l-0.397,1.463l-0.391,1.561l-0.532,1.336
			l-0.66,1.323l-1.583,2.376l-0.8,0.937l-1.984,1.724l-1.215,0.68l-2.369,1.054l-2.661,0.537
			C59.375,128.527,59.36,128.529,59.344,128.529z M22.991,66.283l-0.639,1.278l-0.658,1.183l-1.029,2.838l-0.771,4.785l-0.128,1.808
			l0.001,1.811l0.129,1.811l0.782,5.729l0.516,1.929l0.523,2.091l0.648,1.941l0.655,2.094l0.902,1.928l0.79,2.107l0.908,1.94
			l1.039,1.946l1.165,1.811l1.054,1.975l2.594,3.629l2.606,3.387l1.422,1.551l2.865,2.864l1.559,1.429l4.548,3.376l1.559,1.04
			l3.108,1.552l1.551,0.645l1.551,0.517l1.423,0.388l1.542,0.257l1.419,0.127l2.697-0.001l2.587-0.517l2.3-1.029l1.156-0.643
			l1.916-1.668l0.759-0.889l1.551-2.327l0.636-1.28l0.515-1.287l0.382-1.536l0.393-1.441l0.516-3.367l0.129-1.68l-0.001-1.809
			l-0.13-1.81l-0.521-3.902l-0.78-3.902l-0.519-1.943l-0.65-2.079L68.783,93l-0.785-2.094l-0.781-1.953l-1.034-1.934l-0.919-1.97
			L64.1,83.112l-2.347-3.649l-1.298-1.818l-2.607-3.388l-2.859-3.117l-2.987-2.726l-1.559-1.298l-1.557-1.167l-1.557-1.037
			l-3.121-1.821l-1.415-0.641l-1.559-0.65l-1.551-0.516l-1.549-0.387l-1.421-0.257l-2.851-0.258L31.3,60.643l-2.565,0.773
			l-1.007,0.507l-1.149,0.769l-1.034,0.776l-0.902,0.773l-0.747,1.006L22.991,66.283z"/>
	</g>
	<g>
		<path class="st1" d="M105.558,77.615c-0.082,0-0.161-0.043-0.206-0.119c-0.067-0.114-0.028-0.26,0.086-0.326l5.352-3.133
			c0.114-0.068,0.259-0.028,0.326,0.086c0.067,0.114,0.028,0.26-0.086,0.326l-5.352,3.133
			C105.641,77.604,105.599,77.615,105.558,77.615z"/>
	</g>
	<g>
		<path class="st1" d="M90.284,51.375c-0.083,0-0.162-0.043-0.207-0.12c-0.066-0.115-0.026-0.26,0.087-0.326l28.328-16.318
			c0.116-0.063,0.259-0.026,0.326,0.087c0.066,0.115,0.026,0.26-0.087,0.326L90.404,51.343
			C90.366,51.364,90.325,51.375,90.284,51.375z"/>
	</g>
	<g>
		<path class="st1" d="M120.179,37.145c-0.087,0-0.171-0.049-0.213-0.131l-0.115-0.226l-0.233-0.235
			c-0.018-0.017-0.033-0.038-0.045-0.061l-0.114-0.226l-0.495-0.495c-0.018-0.018-0.033-0.04-0.045-0.062l-0.113-0.227l-0.234-0.233
			c-0.017-0.018-0.033-0.039-0.044-0.061l-0.131-0.26c-0.06-0.119-0.013-0.261,0.105-0.321c0.119-0.06,0.261-0.013,0.321,0.105
			l0.115,0.226l0.234,0.234c0.018,0.018,0.033,0.04,0.045,0.062l0.113,0.227l0.495,0.494c0.017,0.018,0.033,0.039,0.045,0.062
			l0.114,0.226l0.233,0.235c0.017,0.017,0.033,0.038,0.044,0.06l0.131,0.26c0.06,0.119,0.013,0.261-0.105,0.321
			C120.252,37.136,120.215,37.145,120.179,37.145z"/>
	</g>
	<g>
		<path class="st1" d="M97.333,50.331c-0.083,0-0.162-0.043-0.207-0.12c-0.066-0.115-0.026-0.26,0.087-0.326l22.846-13.186
			c0.116-0.064,0.26-0.027,0.326,0.087c0.066,0.115,0.026,0.26-0.087,0.326L97.453,50.299C97.415,50.32,97.374,50.331,97.333,50.331
			z"/>
	</g>
	<g>
		<path class="st1" d="M110.91,74.482c-0.092,0-0.181-0.054-0.22-0.145l-1.175-2.742l-1.303-2.867l-1.304-2.737l-1.432-2.734
			l-1.561-2.733l-1.565-2.607l-3.389-5.215l-1.82-2.468c-0.078-0.106-0.055-0.256,0.051-0.334c0.106-0.077,0.256-0.055,0.334,0.051
			l1.828,2.48l3.402,5.234l1.572,2.619l1.568,2.745l1.441,2.75l1.31,2.749l1.307,2.876l1.177,2.747
			c0.051,0.121-0.004,0.261-0.125,0.314C110.973,74.475,110.941,74.482,110.91,74.482z"/>
	</g>
	<g>
		<path class="st1" d="M58.561,125.657h-1.306l-1.457-0.131l-1.457-0.264l-2.893-0.788l-1.595-0.663l-1.443-0.656l-1.588-0.925
			l-1.444-0.919l-1.57-1.047l-1.444-1.048l-1.58-1.316l-1.443-1.313l-2.881-2.879l-2.626-3.15l-1.311-1.704l-2.362-3.672
			l-2.094-3.666l-1.837-3.933l-1.572-3.929l-0.531-1.986l-0.649-1.943l-0.791-3.815l-0.263-1.84l-0.262-3.671l-0.001-1.846
			l0.261-3.283l0.264-1.587l0.395-1.586l0.394-1.316l0.668-1.344l0.514-1.287c0.008-0.019,0.017-0.038,0.03-0.055l1.567-2.088
			l1.85-1.853l2.131-1.339l2.401-0.807l1.334-0.269l1.329-0.134l1.329-0.001l1.457,0.131l1.457,0.264l1.456,0.396l1.58,0.526
			l1.442,0.525l1.592,0.794l1.444,0.787l1.572,0.918L50.084,67l1.57,1.178l1.444,1.182l1.445,1.314l2.881,2.879l2.756,3.278
			l1.188,1.716l1.299,1.688l1.061,1.855l1.17,1.817l0.929,1.986l1.035,1.81l0.798,1.988l0.909,1.946l1.315,3.942l1.048,3.93
			l0.267,1.855l0.39,1.946l0.265,3.684l0.001,1.714l-0.262,3.413l-0.398,1.606l-0.257,1.421l-0.532,1.475l-0.526,1.312l-1.318,2.378
			l-1.725,1.998l-1.083,0.819l-0.917,0.656l-1.199,0.668l-1.052,0.527c-0.019,0.01-0.039,0.017-0.06,0.02l-2.476,0.522l-1.466,0.135
			C58.575,125.656,58.568,125.657,58.561,125.657z M25.089,68.355l-0.51,1.277l-0.661,1.324l-0.377,1.267l-0.389,1.556l-0.257,1.548
			l-0.257,3.243l0.001,1.809l0.259,3.64l0.259,1.809l0.78,3.77l0.646,1.932l0.526,1.973l1.559,3.889l1.823,3.903l2.078,3.638
			l2.345,3.645l1.293,1.681l2.606,3.127l2.858,2.855l1.426,1.298l1.559,1.299l1.423,1.034l1.559,1.04l1.432,0.911l1.559,0.908
			l1.415,0.641l1.559,0.65l2.843,0.773l1.416,0.257l1.415,0.127l1.274-0.001l1.425-0.129l2.424-0.513l1.014-0.507l1.167-0.648
			l1.931-1.419l1.661-1.924l1.276-2.309l0.51-1.278l0.519-1.429l0.251-1.397l0.395-1.582l0.255-3.355l-0.001-1.678l-0.26-3.639
			l-0.388-1.929l-0.263-1.84l-1.039-3.889l-1.301-3.902l-0.905-1.934l-0.788-1.97l-1.03-1.798l-0.923-1.975l-1.16-1.799
			l-1.049-1.838l-1.288-1.67l-1.182-1.707l-2.729-3.247l-2.858-2.855l-1.427-1.298l-1.427-1.167l-2.991-2.21l-1.547-0.902
			l-1.43-0.779l-1.559-0.779l-1.411-0.512l-1.561-0.52l-1.422-0.388l-1.416-0.257l-1.415-0.127l-1.285,0.001l-1.283,0.129
			l-1.282,0.257l-2.321,0.775L28.4,64.524l-1.785,1.795L25.089,68.355z"/>
	</g>
	<g>
		<path class="st1" d="M110.65,58.033c-0.041,0-0.082-0.011-0.12-0.032l-13.316-7.702c-0.115-0.066-0.154-0.213-0.087-0.326
			c0.067-0.114,0.213-0.152,0.326-0.087l13.316,7.702c0.115,0.066,0.154,0.213,0.087,0.326
			C110.812,57.991,110.732,58.033,110.65,58.033z"/>
	</g>
	<g>
		<path class="st1" d="M114.957,65.604c-0.132,0-0.239-0.107-0.239-0.239v-0.913l-0.126-0.744l-0.256-0.887l-0.376-0.742
			l-0.397-0.926l-0.501-0.745l-1.139-1.39l-0.753-0.502l-0.669-0.533c-0.103-0.083-0.12-0.233-0.037-0.336
			c0.084-0.101,0.232-0.119,0.336-0.037l0.652,0.522l0.767,0.511c0.02,0.014,0.039,0.03,0.054,0.049l1.172,1.433l0.537,0.804
			l0.412,0.951l0.386,0.771l0.277,0.955l0.136,0.81l0.004,0.952C115.196,65.497,115.089,65.604,114.957,65.604z"/>
	</g>
	<g>
		<path class="st1" d="M114.957,75.265c-0.132,0-0.239-0.107-0.239-0.239v-9.661c0-0.132,0.107-0.239,0.239-0.239
			s0.239,0.107,0.239,0.239v9.661C115.196,75.158,115.089,75.265,114.957,75.265z"/>
	</g>
	<g>
		<path class="st1" d="M113.26,78.268h-1.306c-0.132,0-0.239-0.107-0.239-0.239s0.107-0.239,0.239-0.239h1.25l0.471-0.236
			l0.331-0.223l0.367-0.49l0.224-0.457l0.124-0.622l-0.005-0.737c0-0.132,0.107-0.239,0.239-0.239s0.239,0.107,0.239,0.239v0.783
			l-0.135,0.7c-0.004,0.021-0.011,0.041-0.02,0.06l-0.261,0.522l-0.414,0.559c-0.017,0.022-0.037,0.041-0.059,0.056l-0.392,0.26
			l-0.547,0.276C113.334,78.259,113.297,78.268,113.26,78.268z"/>
	</g>
	<g>
		<path class="st1" d="M111.955,78.268c-0.1,0-0.193-0.063-0.226-0.163l-0.13-0.392l-0.136-0.539l-0.125-0.374l-0.249-0.492
			l-0.143-0.423l-0.125-0.499l-0.238-0.358c-0.016-0.022-0.027-0.048-0.033-0.075l-0.13-0.523c-0.032-0.127,0.046-0.257,0.174-0.289
			c0.132-0.031,0.258,0.047,0.289,0.174l0.12,0.482l0.238,0.358c0.016,0.022,0.027,0.048,0.033,0.074l0.13,0.523l0.125,0.373
			l0.249,0.492l0.143,0.423l0.136,0.539l0.125,0.374c0.042,0.125-0.026,0.26-0.151,0.302
			C112.005,78.264,111.98,78.268,111.955,78.268z"/>
	</g>
	<g>
		<path class="st1" d="M110.65,74.612c-0.087,0-0.172-0.049-0.214-0.132c-0.059-0.118-0.011-0.261,0.107-0.321l0.26-0.13
			c0.116-0.057,0.261-0.011,0.321,0.107c0.059,0.118,0.011,0.261-0.107,0.321l-0.26,0.13
			C110.722,74.604,110.686,74.612,110.65,74.612z"/>
	</g>
	<g>
		<path class="st1" d="M114.957,65.604c-0.083,0-0.162-0.043-0.207-0.12c-0.066-0.115-0.026-0.26,0.087-0.326l22.846-13.185
			c0.116-0.063,0.259-0.027,0.326,0.087c0.066,0.115,0.026,0.26-0.087,0.326l-22.846,13.185
			C115.039,65.594,114.998,65.604,114.957,65.604z"/>
	</g>
	<g>
		<path class="st1" d="M110.65,58.033c-0.083,0-0.162-0.043-0.207-0.12c-0.066-0.115-0.026-0.26,0.087-0.326l22.845-13.185
			c0.116-0.063,0.26-0.027,0.326,0.087s0.026,0.26-0.087,0.326l-22.845,13.185C110.731,58.023,110.69,58.033,110.65,58.033z"/>
	</g>
	<g>
		<path class="st1" d="M137.803,52.419c-0.132,0-0.239-0.107-0.239-0.239v-0.913l-0.126-0.744l-0.256-0.887l-0.376-0.742
			l-0.397-0.927l-0.501-0.745l-0.637-0.763l-0.638-0.636l-1.285-1.026c-0.103-0.083-0.12-0.232-0.038-0.335
			c0.085-0.103,0.234-0.119,0.335-0.038l1.306,1.044l0.673,0.67l0.667,0.8l0.537,0.804l0.413,0.952l0.386,0.771l0.277,0.955
			l0.136,0.81l0.004,0.952C138.042,52.312,137.935,52.419,137.803,52.419z"/>
	</g>
	<g>
		<path class="st1" d="M104.383,128.659c-0.049,0-0.098-0.016-0.141-0.046c-0.106-0.078-0.13-0.227-0.052-0.334l1.045-1.436
			l0.763-1.532l0.918-1.704l0.64-1.668l0.651-1.823l0.517-1.812l0.521-1.955l0.255-2.057l0.394-2.103l0.258-4.408l-0.001-2.337
			l-0.26-4.686l-0.39-2.456l-0.262-2.492l-1.041-4.937l-0.65-2.469l-0.653-2.614l-0.908-2.59l-0.785-2.487l-1.039-2.594
			c-0.05-0.122,0.011-0.261,0.133-0.31c0.123-0.048,0.261,0.011,0.31,0.133l1.045,2.611l0.789,2.497l0.912,2.604l0.659,2.631
			l0.653,2.478l1.045,4.973l0.265,2.505l0.391,2.468l0.263,4.723l0.001,2.364l-0.262,4.452l-0.394,2.119l-0.259,2.074l-0.529,1.99
			l-0.523,1.832l-0.658,1.843l-0.655,1.701l-0.927,1.726l-0.779,1.559l-1.065,1.47C104.529,128.625,104.456,128.659,104.383,128.659
			z"/>
	</g>
	<g>
		<path class="st1" d="M104.383,128.659c-0.01,0-0.02-0.001-0.031-0.002l-5.876-0.783l-5.626-1.047
			c-0.129-0.024-0.215-0.15-0.189-0.279c0.024-0.129,0.143-0.217,0.279-0.189l5.611,1.044l5.863,0.781
			c0.13,0.017,0.223,0.137,0.206,0.268C104.604,128.572,104.501,128.659,104.383,128.659z"/>
	</g>
	<g>
		<path class="st1" d="M92.895,126.831c-0.041,0-0.083-0.011-0.12-0.033c-0.114-0.066-0.153-0.213-0.086-0.326l0.913-1.566
			l0.638-1.538l0.787-1.705l1.032-3.62l0.387-1.939l0.258-2.073l0.26-4.292l-0.001-2.206l-0.26-4.555l-0.26-2.469l-0.39-2.337
			l-1.043-4.95l-0.777-2.458l-0.657-2.491l-0.907-2.459c-0.046-0.123,0.018-0.261,0.142-0.307c0.124-0.044,0.261,0.019,0.307,0.142
			l0.913,2.481l0.66,2.502l0.779,2.47l1.05,4.983l0.394,2.361l0.263,2.494l0.262,4.58l0.001,2.233l-0.262,4.323l-0.262,2.105
			l-0.394,1.974l-1.049,3.675l-0.796,1.731l-0.649,1.559l-0.928,1.594C93.057,126.789,92.976,126.831,92.895,126.831z"/>
	</g>
	<g>
		<path class="st1" d="M89.239,52.028c-0.072,0-0.143-0.032-0.189-0.094l-1.697-2.219l-1.813-1.939l-1.833-2.095l-1.817-1.816
			l-3.779-3.519l-1.953-1.691l-1.951-1.561l-1.949-1.43l-3.908-2.605l-2.073-1.165l-1.954-1.042l-1.946-0.908l-1.946-0.778
			l-3.904-1.301l-1.943-0.518l-3.628-0.517l-1.81-0.128l-1.811,0.001l-1.679,0.129c-0.153,0.023-0.246-0.088-0.257-0.22
			c-0.01-0.132,0.088-0.247,0.22-0.257l1.697-0.13l1.846-0.001l1.844,0.131l3.673,0.525l1.985,0.528l3.931,1.31l1.971,0.788
			l1.97,0.918l1.97,1.05l2.093,1.178l3.932,2.62l1.967,1.443l1.967,1.573l1.966,1.702l3.792,3.531l1.833,1.833l1.838,2.101
			l1.823,1.952l1.712,2.238c0.081,0.104,0.06,0.255-0.045,0.334C89.342,52.011,89.29,52.028,89.239,52.028z"/>
	</g>
	<g>
		<path class="st1" d="M76.837,58.033c-0.064,0-0.127-0.025-0.175-0.076l-3.525-3.787l-3.649-3.649l-1.938-1.549l-1.833-1.571
			l-1.944-1.425l-1.949-1.3l-1.834-1.309l-3.89-2.073l-1.946-0.908l-1.821-0.78l-1.939-0.646l-1.817-0.519l-1.812-0.388
			l-1.812-0.258l-1.81-0.128l-1.681,0.001c-0.132,0-0.239-0.107-0.239-0.239c0-0.132,0.107-0.239,0.239-0.239h1.697l1.844,0.131
			l1.845,0.263l1.843,0.394l1.843,0.526l1.969,0.656l1.846,0.79l1.965,0.917l3.928,2.095l1.854,1.321l1.951,1.302l1.968,1.442
			l1.842,1.577l1.952,1.561l3.675,3.673l3.531,3.792c0.089,0.097,0.085,0.248-0.012,0.338
			C76.954,58.012,76.896,58.033,76.837,58.033z"/>
	</g>
	<g>
		<path class="st1" d="M41.459,37.668c-0.025,0-0.051-0.004-0.076-0.013c-0.124-0.042-0.192-0.177-0.151-0.302l0.913-2.742
			l1.049-2.623l1.043-2.738l1.179-2.751c0.052-0.12,0.19-0.175,0.314-0.125c0.121,0.052,0.177,0.192,0.125,0.314l-1.175,2.742
			l-1.041,2.732l-1.046,2.614l-0.908,2.729C41.652,37.604,41.559,37.668,41.459,37.668z"/>
	</g>
	<g>
		<path class="st1" d="M57.255,125.657l-1.457-0.131l-1.457-0.264l-2.893-0.788l-1.595-0.663l-1.443-0.656l-1.588-0.925
			l-1.444-0.919l-1.57-1.047l-1.444-1.048l-1.58-1.316l-1.443-1.313l-2.881-2.879l-2.626-3.15l-1.311-1.704l-2.362-3.672
			l-2.094-3.666l-1.837-3.933l-0.788-1.971l-1.964-5.887l-0.791-3.815l-0.263-1.84l-0.262-3.671l-0.001-1.846l0.261-3.283
			l0.264-1.587l0.395-1.586l0.394-1.316l1.32-2.65l0.665-1.064l0.794-1.061l1.85-1.853l1.366-0.828
			c0.119-0.06,0.261-0.012,0.321,0.105c0.06,0.119,0.013,0.261-0.105,0.321l-0.26,0.131L28.4,64.524l-1.785,1.795l-0.761,1.018
			l-0.642,1.027l-1.294,2.592l-0.377,1.267l-0.389,1.556l-0.257,1.548l-0.257,3.243l0.001,1.809l0.259,3.64l0.259,1.809l0.78,3.77
			l1.952,5.848l0.778,1.946l1.823,3.903l2.078,3.638l2.345,3.645l1.293,1.681l2.606,3.127l2.858,2.855l1.426,1.298l1.559,1.299
			l1.423,1.034l1.559,1.04l1.432,0.911l1.559,0.908l1.415,0.641l1.559,0.65l2.843,0.773l1.416,0.257l1.415,0.127l1.415-0.001
			l1.283-0.129l2.426-0.513l1.014-0.507l0.927-0.397c0.122-0.051,0.262,0.005,0.314,0.125c0.051,0.121-0.004,0.261-0.125,0.314
			l-0.914,0.392l-1.031,0.516c-0.019,0.01-0.039,0.017-0.06,0.02l-2.476,0.522l-1.334,0.135L57.255,125.657z"/>
	</g>
	<g>
		<path class="st1" d="M58.822,123.568H56.21l-1.328-0.131l-1.456-0.264l-1.456-0.396l-1.455-0.528l-1.454-0.66l-2.888-1.574
			l-1.45-0.923l-1.57-1.047l-1.456-1.188l-1.323-1.32l-1.427-1.298l-2.627-2.889l-2.618-3.14l-1.187-1.714l-1.051-1.708
			l-2.093-3.662l-0.92-1.839l-0.789-1.84l-0.785-1.964l-0.782-1.822l-0.531-1.857l-0.523-1.963l-0.787-3.667l-0.263-1.843
			l-0.263-3.54l-0.001-1.716l0.131-1.586l0.526-3.026l0.396-1.456l0.531-1.331l0.526-1.183l0.662-1.193l0.802-1.073l0.793-0.926
			l1.854-1.593l1.074-0.673l1.086-0.413l1.183-0.394l1.199-0.268l2.639-0.265l1.353,0.13l2.76,0.525l2.911,1.055l1.454,0.66
			l1.452,0.791l1.45,0.923l1.57,1.045l1.445,1.05l1.447,1.184l2.759,2.757l2.619,2.881l2.495,3.28l1.18,1.705l1.055,1.845l1.04,1.69
			l0.925,1.846l0.916,1.965l1.57,3.662l0.66,1.976l1.046,3.666l0.397,1.976l0.262,1.84l0.263,3.543l0.001,3.28l-0.131,1.586
			l-0.264,1.587l-0.396,1.46l-0.394,1.311l-0.53,1.325l-1.318,2.377l-0.81,0.954l-0.927,0.927l-0.927,0.796l-0.931,0.666
			l-1.077,0.542l-1.184,0.527l-2.395,0.536C58.857,123.566,58.84,123.568,58.822,123.568z M37.127,64.168l-2.564,0.26l-1.147,0.257
			l-1.151,0.385l-1.036,0.389l-1.002,0.632l-1.799,1.546l-0.757,0.888l-0.774,1.033l-0.634,1.147L25.75,71.86l-0.519,1.297
			l-0.383,1.411l-0.518,2.978l-0.127,1.547l0.001,1.678l0.26,3.507l0.258,1.811l0.781,3.639l0.519,1.948l0.521,1.824l0.774,1.799
			l0.785,1.964l0.781,1.822l0.908,1.815l2.082,3.644l1.041,1.691l1.168,1.687l2.598,3.116l2.604,2.864l1.42,1.289l1.315,1.313
			l1.419,1.159l1.547,1.031l1.432,0.911l2.859,1.558l1.421,0.645l1.419,0.515l1.418,0.386l1.416,0.257l1.285,0.127l2.562-0.001
			l2.324-0.516l1.129-0.507l1.035-0.518l0.882-0.634l0.897-0.771l0.901-0.901l0.771-0.901l1.278-2.31l0.51-1.279l0.385-1.285
			l0.39-1.43l0.257-1.543l0.127-1.547l-0.001-3.244l-0.26-3.507l-0.258-1.812l-0.391-1.945l-1.039-3.637l-0.65-1.947l-1.56-3.637
			l-0.91-1.952l-0.911-1.822l-1.033-1.678l-1.048-1.834l-1.164-1.68L57.98,77l-2.598-2.858l-2.734-2.732l-1.419-1.16l-1.425-1.036
			l-1.558-1.038l-1.432-0.912l-1.422-0.774l-1.421-0.645l-2.855-1.038l-2.706-0.512L37.127,64.168z"/>
	</g>
	<g>
		<path class="st1" d="M114.957,75.265c-0.083,0-0.162-0.043-0.207-0.12c-0.066-0.115-0.026-0.26,0.087-0.326l22.846-13.185
			c0.116-0.064,0.259-0.027,0.326,0.087c0.066,0.115,0.026,0.26-0.087,0.326l-22.846,13.185
			C115.039,75.255,114.998,75.265,114.957,75.265z"/>
	</g>
	<g>
		<path class="st1" d="M137.803,62.08c-0.132,0-0.239-0.107-0.239-0.239V52.18c0-0.132,0.107-0.239,0.239-0.239
			s0.239,0.107,0.239,0.239v9.661C138.042,61.973,137.935,62.08,137.803,62.08z"/>
	</g>
	<g>
		<path class="st1" d="M133.495,44.848c-0.041,0-0.082-0.011-0.12-0.032l-13.315-7.703c-0.115-0.066-0.154-0.213-0.087-0.326
			c0.068-0.115,0.212-0.152,0.326-0.087l13.315,7.703c0.115,0.066,0.154,0.213,0.087,0.326
			C133.657,44.805,133.577,44.848,133.495,44.848z"/>
	</g>
	<g>
		<path class="st1" d="M58.584,123.045l-2.787-0.261l-1.33-0.264l-1.453-0.396l-1.455-0.528l-2.89-1.313l-1.465-0.93l-1.559-0.909
			l-1.456-1.056l-2.884-2.359l-2.759-2.757l-2.495-3.021l-1.311-1.702l-1.182-1.707l-1.051-1.708l-1.048-1.834l-1.041-1.69
			l-0.927-1.983l-0.911-1.822l-0.664-1.854L27.138,93l-1.052-3.678l-0.523-1.963l-0.528-3.683l-0.263-3.41l-0.001-1.715l0.131-1.587
			l0.526-3.152l0.398-1.336l1.051-2.63l0.665-1.202l0.668-0.938l0.929-1.063l0.794-0.795l1.071-0.805
			c0.041-0.031,0.091-0.048,0.143-0.048h0.13c0.132,0,0.239,0.107,0.239,0.239s-0.107,0.239-0.239,0.239h-0.051l-0.981,0.736
			l-0.757,0.761l-0.904,1.033l-0.638,0.896l-0.637,1.151l-1.032,2.584l-0.385,1.286l-0.516,3.102l-0.127,1.548l0.001,1.677
			l0.26,3.376l0.52,3.64l0.516,1.931l1.044,3.651l0.775,1.935l0.656,1.835l0.904,1.801l0.916,1.965l1.031,1.672l1.048,1.834
			l1.041,1.691l1.168,1.687l1.299,1.687l2.474,2.997l2.727,2.724l2.855,2.335l1.424,1.035l1.547,0.902l1.444,0.918l2.843,1.289
			l1.419,0.515l1.418,0.387l1.288,0.257l2.719,0.257l1.258-0.13l2.322-0.518l1.12-0.375l0.365-0.243
			c0.108-0.073,0.257-0.045,0.33,0.066c0.074,0.109,0.044,0.257-0.066,0.33l-0.392,0.261c-0.017,0.013-0.037,0.021-0.056,0.028
			l-1.175,0.392l-2.375,0.53L58.584,123.045z"/>
	</g>
	<g>
		<path class="st1" d="M106.603,127.354c-0.049,0-0.098-0.015-0.14-0.046c-0.107-0.078-0.131-0.227-0.053-0.333l1.044-1.436
			l0.902-1.547l0.772-1.677l0.647-1.683l0.651-1.823l0.517-1.812l0.521-1.954l0.388-2.072l0.258-2.074l0.26-4.423l-0.001-2.336
			l-0.26-4.686l-0.259-2.469l-0.391-2.336l-1.042-5.081l-0.651-2.469l-0.653-2.614l-0.78-2.6l-0.91-2.467l-1.041-2.605
			c-0.05-0.122,0.011-0.261,0.133-0.31c0.124-0.049,0.261,0.011,0.31,0.133l1.044,2.611l0.917,2.486l0.787,2.624l0.656,2.621
			l0.653,2.478l1.046,5.106l0.394,2.356l0.262,2.495l0.262,4.711l0.001,2.363l-0.262,4.453l-0.261,2.104l-0.394,2.104l-0.527,1.975
			l-0.523,1.832l-0.658,1.843l-0.655,1.702l-0.789,1.712l-0.925,1.587l-1.056,1.456C106.749,127.32,106.677,127.354,106.603,127.354
			z"/>
	</g>
	<g>
		<path class="st1" d="M104.383,128.659c-0.082,0-0.161-0.043-0.206-0.118c-0.067-0.114-0.029-0.26,0.085-0.327l2.22-1.305
			c0.115-0.066,0.26-0.029,0.327,0.085c0.067,0.114,0.029,0.26-0.085,0.327l-2.22,1.305
			C104.465,128.648,104.424,128.659,104.383,128.659z"/>
	</g>
	<g>
		<path class="st1" d="M105.558,77.615c-0.08,0-0.157-0.04-0.202-0.113c-0.07-0.112-0.036-0.259,0.076-0.328l1.045-0.652
			c0.11-0.071,0.258-0.037,0.328,0.076c0.07,0.112,0.036,0.259-0.076,0.328l-1.045,0.652
			C105.646,77.603,105.602,77.615,105.558,77.615z"/>
	</g>
	<g>
		<path class="st1" d="M91.459,50.723c-0.072,0-0.143-0.032-0.189-0.094l-1.697-2.219l-5.468-5.857l-1.822-1.822l-3.903-3.382
			l-1.951-1.56l-1.95-1.43l-3.908-2.604l-1.948-1.169l-2.073-1.036l-1.952-0.911l-1.946-0.778l-3.903-1.301l-1.818-0.519
			l-3.754-0.515l-1.811-0.129l-1.81,0.001l-1.679,0.13c-0.154,0.025-0.246-0.088-0.257-0.22c-0.01-0.131,0.088-0.247,0.22-0.257
			l1.697-0.131l1.846-0.001l1.845,0.132l3.8,0.523l1.862,0.53l3.926,1.309l1.971,0.788l1.97,0.919l2.095,1.047l1.973,1.183
			l3.926,2.618l1.967,1.442l1.967,1.572l3.923,3.4l1.84,1.839l5.489,5.881l1.712,2.238c0.081,0.104,0.06,0.255-0.045,0.334
			C91.561,50.706,91.509,50.723,91.459,50.723z"/>
	</g>
	<g>
		<path class="st1" d="M45.636,26.832c-0.082,0-0.161-0.043-0.206-0.118c-0.067-0.114-0.029-0.26,0.085-0.327l2.219-1.305
			c0.115-0.065,0.259-0.029,0.327,0.085c0.067,0.114,0.029,0.26-0.085,0.327l-2.219,1.305
			C45.719,26.821,45.678,26.832,45.636,26.832z"/>
	</g>
	<g>
		<path class="st1" d="M106.994,128.007c-0.049,0-0.098-0.015-0.14-0.046c-0.107-0.078-0.131-0.227-0.053-0.333l1.044-1.436
			l0.902-1.548l0.772-1.676l0.78-1.822l0.648-1.814l0.517-1.812l0.521-2.082l0.256-2.061l0.394-2.103l0.257-4.539l-0.001-2.336
			l-0.259-4.686l-0.39-2.457l-0.263-2.624l-1.041-5.068l-0.65-2.599l-1.563-5.212l-0.911-2.601l-1.04-2.601
			c-0.05-0.122,0.011-0.261,0.133-0.31c0.123-0.049,0.261,0.012,0.31,0.133l1.044,2.611l0.918,2.621l1.569,5.232l0.656,2.621
			l1.046,5.1l0.266,2.637l0.39,2.467l0.262,4.723l0.001,2.363l-0.261,4.582l-0.394,2.119l-0.259,2.075l-0.529,2.117l-0.524,1.834
			l-0.658,1.843l-0.788,1.841l-0.786,1.702l-0.925,1.588l-1.056,1.456C107.141,127.973,107.068,128.007,106.994,128.007z"/>
	</g>
	<g>
		<path class="st1" d="M106.994,76.701c-0.087,0-0.172-0.049-0.214-0.132c-0.059-0.118-0.011-0.261,0.107-0.321l1.01-0.505
			l0.104-0.103c0.093-0.093,0.244-0.094,0.337,0.001c0.093,0.093,0.092,0.245-0.001,0.337l-0.131,0.13
			c-0.017,0.018-0.038,0.033-0.06,0.044l-1.045,0.524C107.067,76.693,107.03,76.701,106.994,76.701z"/>
	</g>
	<g>
		<path class="st1" d="M108.169,128.399c-0.049,0-0.098-0.016-0.141-0.046c-0.106-0.078-0.13-0.227-0.052-0.334l1.045-1.436
			l0.901-1.547l0.91-1.69l0.773-1.808l0.648-1.814l0.516-1.939l0.522-2.085l0.388-2.074l0.258-2.204l0.26-4.555l-0.001-2.466
			l-0.26-4.95l-0.259-2.467l-0.391-2.601l-1.043-5.21l-0.65-2.6l-0.78-2.6l-0.912-2.734l-0.912-2.608l-1.043-2.736
			c-0.047-0.122,0.016-0.26,0.139-0.308c0.121-0.047,0.26,0.015,0.308,0.139l1.045,2.742l0.915,2.617l0.915,2.744l0.785,2.618
			l0.656,2.622l1.047,5.233l0.394,2.622l0.261,2.49l0.262,4.973l0.001,2.493l-0.262,4.583l-0.261,2.234l-0.394,2.105l-0.527,2.103
			l-0.523,1.962l-0.659,1.847l-0.788,1.841l-0.924,1.716l-0.917,1.574l-1.057,1.456
			C108.316,128.365,108.243,128.399,108.169,128.399z"/>
	</g>
	<g>
		<path class="st1" d="M107.908,128.529h-0.261c-0.037,0-0.074-0.009-0.107-0.025l-0.26-0.13c-0.023-0.012-0.044-0.027-0.062-0.045
			l-0.392-0.392c-0.093-0.093-0.093-0.245,0-0.338c0.093-0.093,0.245-0.093,0.338,0l0.364,0.364l0.175,0.087h0.149l0.211-0.105
			c0.119-0.06,0.261-0.012,0.321,0.107c0.059,0.119,0.011,0.261-0.107,0.321l-0.261,0.13
			C107.981,128.52,107.945,128.529,107.908,128.529z"/>
	</g>
	<g>
		<path class="st1" d="M91.85,50.461c-0.069,0-0.137-0.03-0.185-0.087l-3.526-4.309l-1.941-1.939l-1.833-1.965l-3.905-3.644
			l-1.944-1.555l-1.965-1.703l-1.943-1.424l-2.083-1.43l-1.946-1.168l-2.082-1.172l-1.954-1.042l-2.083-1.042l-1.939-0.775
			l-3.904-1.3l-1.943-0.519l-3.759-0.516l-1.811-0.129l-1.81,0.001l-1.81,0.13c-0.129,0.025-0.246-0.089-0.256-0.221
			c-0.01-0.132,0.089-0.246,0.221-0.256l1.828-0.131l1.845-0.001l1.845,0.132l3.8,0.523l1.988,0.53l3.931,1.309l1.97,0.788
			l2.107,1.052l1.964,1.047l2.093,1.178l1.965,1.179l2.101,1.443l1.965,1.441l1.973,1.709l1.951,1.56l3.93,3.667l1.839,1.97
			l1.952,1.952l3.541,4.326c0.084,0.102,0.069,0.252-0.033,0.336C91.957,50.443,91.904,50.461,91.85,50.461z"/>
	</g>
	<g>
		<path class="st1" d="M47.464,24.874c-0.1,0-0.193-0.063-0.226-0.163l-0.13-0.392c-0.009-0.024-0.013-0.051-0.013-0.076v-0.261
			c0-0.037,0.009-0.074,0.025-0.107l0.262-0.523c0.011-0.022,0.025-0.043,0.044-0.06l0.13-0.131
			c0.093-0.095,0.244-0.094,0.337-0.001c0.093,0.092,0.094,0.244,0.001,0.337l-0.103,0.104l-0.219,0.437v0.166l0.118,0.355
			c0.042,0.125-0.026,0.26-0.151,0.302C47.514,24.87,47.489,24.874,47.464,24.874z"/>
	</g>
	<g>
		<path class="st1" d="M93.025,49.808c-0.069,0-0.137-0.03-0.185-0.087l-3.655-4.438l-3.775-4.035l-3.906-3.644l-2.076-1.687
			l-1.964-1.701l-4.156-2.857l-2.08-1.3l-2.079-1.169l-1.964-1.178l-4.151-1.814l-2.064-0.643L59.007,24.6l-3.888-0.775
			l-1.943-0.258l-1.812-0.129l-1.941,0.001l-1.679,0.129c-0.153,0.024-0.246-0.088-0.257-0.22c-0.01-0.132,0.088-0.247,0.22-0.257
			l1.697-0.13l1.976-0.001l1.844,0.131l1.973,0.262l3.931,0.786l1.988,0.661l2.083,0.651l4.203,1.837l1.984,1.188l2.083,1.172
			l2.099,1.312l4.186,2.877l1.979,1.713l2.083,1.693l3.929,3.666l3.797,4.059l3.665,4.45c0.084,0.102,0.069,0.252-0.033,0.336
			C93.132,49.79,93.078,49.808,93.025,49.808z"/>
	</g>
	<g>
		<path class="st1" d="M92.895,126.831c-0.036,0-0.072-0.008-0.107-0.025l-0.261-0.13c-0.022-0.012-0.044-0.027-0.062-0.046
			l-0.521-0.521c-0.094-0.093-0.094-0.244-0.001-0.337c0.093-0.095,0.244-0.094,0.337-0.001l0.496,0.495l0.226,0.113
			c0.118,0.059,0.165,0.202,0.107,0.321C93.067,126.783,92.982,126.831,92.895,126.831z"/>
	</g>
	<g>
		<path class="st1" d="M41.589,38.581c-0.087,0-0.172-0.049-0.214-0.132l-0.13-0.26c-0.017-0.033-0.025-0.07-0.025-0.107v-0.653
			c0-0.132,0.107-0.239,0.239-0.239c0.132,0,0.239,0.107,0.239,0.239v0.597l0.105,0.21c0.059,0.118,0.011,0.261-0.107,0.321
			C41.662,38.572,41.625,38.581,41.589,38.581z"/>
	</g>
	<g>
		<path class="st1" d="M133.495,113.908c-0.046,0-0.091-0.014-0.132-0.041c-0.11-0.073-0.14-0.221-0.066-0.33l1.045-1.566
			l0.907-1.556l0.775-1.553l0.777-1.815l0.648-1.814l1.039-3.897l0.387-2.071l0.52-4.424l0.129-2.205l-0.001-2.336l-0.259-4.817
			l-0.26-2.468l-0.782-5.082l-0.521-2.599l-0.649-2.599l-1.564-5.212l-0.65-1.951c-0.042-0.125,0.026-0.26,0.151-0.302
			c0.123-0.045,0.26,0.025,0.302,0.151l0.652,1.958l1.569,5.229l0.655,2.621l0.526,2.622l0.785,5.101l0.262,2.492l0.261,4.842
			L140,92.65l-0.131,2.233l-0.523,4.454l-0.394,2.104l-1.049,3.934l-0.659,1.847l-0.788,1.841l-0.789,1.579l-0.922,1.581
			l-1.052,1.578C133.647,113.87,133.572,113.908,133.495,113.908z"/>
	</g>
	<g>
		<path class="st1" d="M108.169,128.399c-0.083,0-0.163-0.044-0.207-0.12c-0.066-0.115-0.026-0.26,0.088-0.325l25.326-14.491
			c0.112-0.064,0.261-0.025,0.326,0.088c0.066,0.115,0.026,0.26-0.088,0.326l-25.326,14.491
			C108.251,128.388,108.21,128.399,108.169,128.399z"/>
	</g>
	<g>
		<path class="st1" d="M108.169,76.048c-0.083,0-0.162-0.043-0.207-0.12c-0.066-0.114-0.027-0.26,0.087-0.326l2.481-1.436
			c0.116-0.064,0.259-0.027,0.326,0.087c0.066,0.114,0.027,0.26-0.087,0.326l-2.481,1.436
			C108.251,76.038,108.21,76.048,108.169,76.048z"/>
	</g>
	<g>
		<path class="st1" d="M118.352,35.187c-0.069,0-0.137-0.03-0.185-0.087l-1.828-2.219l-1.823-2.083l-1.953-2.082l-1.833-2.095
			l-2.066-1.805l-1.965-1.833l-1.951-1.692l-2.083-1.693l-1.948-1.428l-2.083-1.431l-2.08-1.301l-2.078-1.169l-4.168-2.083
			l-1.939-0.775l-2.084-0.781l-1.95-0.65l-4.018-0.775l-1.815-0.259l-1.94-0.128l-1.812,0.001l-1.794,0.257
			c-0.144,0.019-0.252-0.073-0.27-0.202c-0.018-0.131,0.072-0.252,0.202-0.27l1.828-0.26l1.862-0.003L78.55,8.47l1.846,0.263
			l4.057,0.784l1.99,0.662l2.097,0.786l1.963,0.785l4.197,2.097l2.098,1.181l2.099,1.312l2.098,1.441l1.964,1.44l2.099,1.704
			l1.964,1.702l1.966,1.833l2.082,1.823l1.85,2.111l1.953,2.082l1.833,2.095l1.833,2.225c0.084,0.102,0.069,0.252-0.033,0.336
			C118.459,35.169,118.405,35.187,118.352,35.187z"/>
	</g>
	<g>
		<path class="st1" d="M47.725,23.568c-0.083,0-0.163-0.043-0.207-0.12c-0.066-0.115-0.026-0.26,0.087-0.326L72.801,8.631
			c0.116-0.063,0.262-0.027,0.326,0.087c0.066,0.115,0.026,0.26-0.087,0.326L47.845,23.536
			C47.807,23.557,47.766,23.568,47.725,23.568z"/>
	</g>
	<g>
		<path class="st1" d="M91.197,124.482c-0.039,0-0.078-0.01-0.115-0.029c-0.116-0.063-0.158-0.209-0.095-0.325l0.783-1.436
			l0.64-1.668l0.655-1.573l0.513-1.8l0.779-3.767l0.126-1.928l0.262-2.103l-0.002-4.278l-0.259-2.191l-0.131-2.365l-0.781-4.543
			l-0.52-2.338l-0.651-2.471L91.75,89.32l-0.776-2.07c-0.047-0.123,0.017-0.26,0.14-0.307c0.12-0.049,0.26,0.016,0.307,0.14
			l0.783,2.089l0.66,2.369l0.654,2.484l0.524,2.36l0.786,4.578l0.133,2.379l0.26,2.205l0.002,4.336l-0.263,2.118l-0.129,1.944
			l-0.789,3.82l-0.526,1.842l-0.662,1.593l-0.651,1.691l-0.796,1.465C91.363,124.436,91.282,124.482,91.197,124.482z"/>
	</g>
	<g>
		<path class="st1" d="M92.112,126.179c-0.085,0-0.167-0.046-0.21-0.125l-0.914-1.697c-0.063-0.117-0.019-0.261,0.096-0.324
			c0.117-0.062,0.26-0.02,0.324,0.096l0.914,1.697c0.063,0.117,0.019,0.261-0.096,0.324
			C92.188,126.17,92.151,126.179,92.112,126.179z"/>
	</g>
	<g>
		<path class="st1" d="M74.748,58.816c-0.068,0-0.135-0.029-0.183-0.085l-1.436-1.697l-3.511-3.51l-3.642-3.121l-1.82-1.43
			l-3.647-2.604l-1.818-1.168l-1.931-0.899l-1.833-0.916l-3.643-1.561l-1.799-0.512l-3.513-0.78l-1.662-0.125l-1.679,0.001
			c-0.132,0-0.239-0.107-0.239-0.239c0-0.132,0.107-0.239,0.239-0.239h1.697l1.715,0.132l3.556,0.788l1.843,0.526l3.684,1.577
			l1.84,0.919l1.953,0.911l1.856,1.19l3.665,2.618l1.836,1.443l3.663,3.139l3.538,3.537l1.45,1.712
			c0.085,0.101,0.072,0.252-0.028,0.337C74.858,58.798,74.803,58.816,74.748,58.816z"/>
	</g>
	<g>
		<path class="st1" d="M42.634,40.409c-0.083,0-0.163-0.044-0.207-0.12l-1.045-1.828c-0.066-0.115-0.026-0.26,0.088-0.326
			c0.115-0.063,0.26-0.025,0.326,0.088l1.045,1.828c0.066,0.115,0.026,0.26-0.088,0.326C42.714,40.398,42.675,40.409,42.634,40.409z
			"/>
	</g>
	<g>
		<path class="st1" d="M106.603,76.963c-0.077,0-0.153-0.038-0.198-0.107c-0.074-0.109-0.044-0.257,0.066-0.33l0.392-0.261
			c0.107-0.073,0.257-0.044,0.33,0.066c0.074,0.109,0.044,0.257-0.066,0.33l-0.392,0.261
			C106.695,76.949,106.648,76.963,106.603,76.963z"/>
	</g>
	<g>
		<path class="st1" d="M106.994,128.007c-0.081,0-0.16-0.042-0.205-0.117l-0.392-0.653c-0.068-0.113-0.031-0.259,0.083-0.327
			c0.112-0.065,0.259-0.031,0.327,0.083l0.392,0.653c0.068,0.113,0.031,0.259-0.083,0.327
			C107.079,127.995,107.036,128.007,106.994,128.007z"/>
	</g>
	<g>
		<path class="st1" d="M47.855,25.527c-0.081,0-0.16-0.042-0.205-0.117l-0.392-0.653c-0.068-0.113-0.031-0.259,0.083-0.327
			c0.112-0.065,0.259-0.031,0.327,0.083l0.392,0.653c0.068,0.113,0.031,0.259-0.083,0.327C47.94,25.515,47.897,25.527,47.855,25.527
			z"/>
	</g>
	<g>
		<path class="st1" d="M136.628,64.821c-0.077,0-0.153-0.038-0.199-0.107c-0.073-0.11-0.043-0.257,0.067-0.331l0.358-0.237
			l0.366-0.49l0.224-0.457l0.124-0.622l-0.005-0.737c0-0.132,0.107-0.239,0.239-0.239s0.239,0.107,0.239,0.239v0.783l-0.135,0.7
			c-0.004,0.021-0.011,0.041-0.02,0.06l-0.261,0.522l-0.414,0.559c-0.017,0.022-0.037,0.041-0.059,0.056l-0.392,0.26
			C136.72,64.808,136.674,64.821,136.628,64.821z"/>
	</g>
	<g>
		<path class="st1" d="M87.542,118.346c-0.033,0-0.067-0.007-0.099-0.021c-0.12-0.054-0.173-0.196-0.119-0.317l0.653-1.436
			l0.65-1.559l0.771-3.355l0.517-3.764l0.13-1.942l-0.001-1.943l-0.13-2.073l-0.521-4.163l-0.781-4.427l-0.647-2.194L87.7,89.96
			c-0.028-0.128,0.052-0.256,0.182-0.285c0.134-0.026,0.257,0.053,0.285,0.182l0.261,1.175l0.649,2.204l0.789,4.464l0.524,4.191
			l0.132,2.103l0.001,1.973l-0.132,1.973l-0.524,3.805l-0.787,3.413l-0.665,1.605l-0.656,1.443
			C87.72,118.294,87.632,118.346,87.542,118.346z"/>
	</g>
	<g>
		<path class="st1" d="M80.231,121.088c-0.102,0-0.196-0.066-0.228-0.169c-0.039-0.125,0.032-0.259,0.158-0.298l1.697-0.523
			l1.817-0.649l1.95-0.78l1.822-0.781c0.124-0.05,0.261,0.005,0.314,0.125c0.051,0.121-0.004,0.261-0.125,0.314l-1.828,0.783
			l-1.964,0.785l-1.835,0.656l-1.708,0.527C80.278,121.084,80.255,121.088,80.231,121.088z"/>
	</g>
	<g>
		<path class="st1" d="M80.231,121.088c-0.025,0-0.051-0.004-0.076-0.013c-0.125-0.042-0.192-0.177-0.151-0.302l0.523-1.567
			l0.519-1.817l0.516-3.624l0.258-4.027l-0.26-4.148l-0.522-4.425l-1.04-4.543c-0.03-0.128,0.05-0.257,0.178-0.287
			c0.133-0.036,0.257,0.05,0.287,0.178l0.523,2.219l0.523,2.353l0.527,4.462l0.261,4.191l-0.26,4.077l-0.525,3.674l-0.529,1.859
			l-0.526,1.578C80.425,121.025,80.331,121.088,80.231,121.088z"/>
	</g>
	<g>
		<path class="st1" d="M70.702,60.383c-0.061,0-0.122-0.023-0.169-0.07l-0.913-0.913l-1.574-1.704l-3.373-2.852l-1.689-1.298
			l-1.687-1.169l-1.821-1.17l-1.694-1.043l-1.672-0.77l-1.822-0.78l-3.385-1.303l-1.539-0.383l-1.675-0.256l-1.551-0.129
			c-0.131-0.011-0.228-0.126-0.218-0.258c0.012-0.131,0.13-0.218,0.258-0.218l1.566,0.131l1.713,0.262l1.589,0.396l3.421,1.315
			l1.836,0.786l1.703,0.786l1.723,1.058l1.832,1.177l1.703,1.181l1.707,1.312l3.403,2.879l1.589,1.718l0.907,0.907
			c0.093,0.093,0.093,0.245,0,0.338C70.824,60.359,70.763,60.383,70.702,60.383z"/>
	</g>
	<g>
		<path class="st1" d="M61.041,63.646c-0.058,0-0.116-0.021-0.162-0.063l-3.395-3.133l-1.689-1.429l-1.812-1.294l-1.818-1.168
			l-1.694-1.043l-1.821-1.041l-1.816-0.907l-1.676-0.644l-1.823-0.651l-3.367-0.775c-0.128-0.029-0.209-0.157-0.179-0.286
			c0.029-0.128,0.16-0.215,0.286-0.179l3.394,0.783l1.855,0.661l1.702,0.655l1.849,0.922l1.839,1.051l1.704,1.048l1.832,1.177
			l1.837,1.313l1.712,1.448l3.403,3.139c0.096,0.089,0.103,0.241,0.014,0.338C61.17,63.62,61.106,63.646,61.041,63.646z"/>
	</g>
	<g>
		<path class="st1" d="M40.023,51.506c-0.061,0-0.122-0.023-0.169-0.07c-0.093-0.093-0.093-0.245,0-0.338l0.783-0.783l2.496-2.103
			l2.885-2.1c0.108-0.077,0.257-0.054,0.334,0.052c0.078,0.107,0.053,0.257-0.052,0.334l-2.872,2.089l-2.468,2.078l-0.768,0.77
			C40.145,51.482,40.084,51.506,40.023,51.506z"/>
	</g>
	<g>
		<path class="st1" d="M80.231,121.088H79.71c-0.132,0-0.239-0.107-0.239-0.239s0.107-0.239,0.239-0.239h0.522
			c0.132,0,0.239,0.107,0.239,0.239S80.364,121.088,80.231,121.088z"/>
	</g>
	<g>
		<path class="st1" d="M39.893,52.028c-0.132,0-0.239-0.107-0.239-0.239v-0.392c0-0.063,0.025-0.124,0.07-0.169l0.13-0.13
			c0.093-0.093,0.245-0.093,0.338,0c0.093,0.093,0.093,0.245,0,0.338l-0.06,0.06v0.292C40.132,51.921,40.025,52.028,39.893,52.028z"
			/>
	</g>
	<g>
		<path class="st1" d="M105.558,130.618c-0.081,0-0.16-0.042-0.205-0.117l-1.176-1.959c-0.068-0.113-0.031-0.259,0.083-0.327
			c0.111-0.065,0.259-0.03,0.327,0.083l1.176,1.959c0.068,0.113,0.031,0.259-0.083,0.327
			C105.643,130.606,105.6,130.618,105.558,130.618z"/>
	</g>
	<g>
		<path class="st1" d="M103.339,131.14c-0.025,0-0.051-0.004-0.076-0.013l-0.355-0.118h-0.484c-0.026,0-0.051-0.005-0.076-0.013
			l-0.392-0.131c-0.125-0.042-0.192-0.177-0.151-0.302c0.041-0.125,0.175-0.193,0.302-0.151l0.355,0.119h0.484
			c0.025,0,0.051,0.004,0.076,0.013l0.355,0.118h0.353l1.752-0.509c0.124-0.046,0.26,0.025,0.302,0.151
			c0.042,0.125-0.026,0.26-0.151,0.302l-0.392,0.13l-0.541,0.135l-0.373,0.126l-0.539,0.135L103.339,131.14z"/>
	</g>
	<g>
		<path class="st1" d="M91.197,124.482c-0.082,0-0.16-0.042-0.205-0.117l-3.655-6.136c-0.068-0.114-0.03-0.26,0.083-0.327
			c0.114-0.068,0.259-0.03,0.327,0.083l3.655,6.136c0.068,0.114,0.03,0.26-0.083,0.327
			C91.281,124.471,91.239,124.482,91.197,124.482z"/>
	</g>
	<g>
		<path class="st1" d="M42.504,27.746c-0.036,0-0.072-0.008-0.107-0.025c-0.118-0.059-0.165-0.202-0.107-0.321l0.13-0.261
			l0.249-0.752l0.404-0.814c0.012-0.022,0.026-0.044,0.045-0.062l0.522-0.523l0.673-0.539c0.102-0.082,0.252-0.067,0.335,0.038
			c0.083,0.103,0.065,0.253-0.038,0.335l-0.653,0.522l-0.474,0.477l-0.374,0.749l-0.249,0.752l-0.143,0.292
			C42.675,27.698,42.591,27.746,42.504,27.746z"/>
	</g>
	<g>
		<path class="st1" d="M45.636,26.832c-0.081,0-0.16-0.042-0.205-0.117l-1.175-1.958c-0.068-0.113-0.031-0.259,0.083-0.327
			c0.112-0.065,0.259-0.031,0.327,0.083l1.175,1.958c0.068,0.113,0.031,0.259-0.083,0.327C45.721,26.82,45.678,26.832,45.636,26.832
			z"/>
	</g>
	<g>
		<path class="st1" d="M46.159,46.545c-0.083,0-0.163-0.043-0.207-0.12l-3.525-6.136c-0.066-0.114-0.026-0.259,0.088-0.326
			c0.112-0.063,0.26-0.027,0.326,0.088l3.525,6.136c0.066,0.114,0.026,0.259-0.088,0.326C46.24,46.534,46.2,46.545,46.159,46.545z"
			/>
	</g>
	<g>
		<path class="st1" d="M88.717,139.886h-0.783c-0.025,0-0.051-0.004-0.076-0.013l-0.355-0.118H87.02
			c-0.037,0-0.074-0.009-0.107-0.025l-0.261-0.131c-0.119-0.059-0.166-0.203-0.107-0.321c0.059-0.118,0.204-0.163,0.321-0.107
			l0.211,0.106h0.465c0.025,0,0.051,0.004,0.076,0.013l0.355,0.118h0.744c0.132,0,0.239,0.107,0.239,0.239
			S88.849,139.886,88.717,139.886z"/>
	</g>
	<g>
		<path class="st1" d="M27.229,36.493c-0.025,0-0.051-0.004-0.076-0.013c-0.124-0.042-0.192-0.177-0.151-0.302l0.261-0.784
			c0.007-0.019,0.016-0.039,0.027-0.056l0.522-0.783l0.16-0.167c0.093-0.093,0.245-0.093,0.338,0s0.093,0.245,0,0.338l-0.13,0.13
			l-0.474,0.719l-0.252,0.755C27.423,36.43,27.329,36.493,27.229,36.493z"/>
	</g>
	<g>
		<path class="st1" d="M105.558,130.618c-0.083,0-0.162-0.043-0.207-0.12c-0.066-0.114-0.027-0.26,0.087-0.326l28.198-16.319
			c0.116-0.063,0.26-0.026,0.326,0.087c0.066,0.114,0.027,0.26-0.087,0.326l-28.198,16.319
			C105.64,130.607,105.599,130.618,105.558,130.618z"/>
	</g>
	<g>
		<path class="st1" d="M133.756,114.299c-0.077,0-0.153-0.038-0.198-0.107l-0.261-0.392c-0.074-0.109-0.044-0.257,0.066-0.33
			c0.107-0.073,0.257-0.044,0.33,0.066l0.261,0.392c0.074,0.109,0.044,0.257-0.066,0.33
			C133.849,114.285,133.802,114.299,133.756,114.299z"/>
	</g>
	<g>
		<path class="st1" d="M44.461,24.874c-0.083,0-0.162-0.043-0.207-0.12c-0.066-0.114-0.027-0.26,0.087-0.326L72.54,8.109
			c0.116-0.063,0.26-0.026,0.326,0.087c0.066,0.114,0.027,0.26-0.087,0.326L44.581,24.842
			C44.543,24.863,44.502,24.874,44.461,24.874z"/>
	</g>
	<g>
		<path class="st1" d="M72.921,9.077c-0.087,0-0.172-0.049-0.214-0.132l-0.261-0.522c-0.059-0.118-0.011-0.261,0.107-0.321
			c0.117-0.057,0.261-0.012,0.321,0.107l0.261,0.522c0.059,0.118,0.011,0.261-0.107,0.321C72.994,9.068,72.957,9.077,72.921,9.077z"
			/>
	</g>
	<g>
		<path class="st1" d="M127.099,120.304c-0.074,0-0.147-0.034-0.193-0.099c-0.078-0.106-0.053-0.256,0.053-0.333l2.871-2.088
			l1.286-1.159l1.296-1.297l1.159-1.419c0.083-0.101,0.233-0.118,0.336-0.033c0.102,0.084,0.117,0.234,0.033,0.336l-1.175,1.436
			l-1.321,1.323l-1.315,1.183l-2.892,2.104C127.197,120.289,127.147,120.304,127.099,120.304z"/>
	</g>
	<g>
		<path class="st1" d="M41.459,24.482h-0.13c-0.132,0-0.239-0.107-0.239-0.239c0-0.132,0.107-0.239,0.239-0.239h0.074l1.516-0.758
			l1.704-0.787l1.727-0.533l1.849-0.396c0.128-0.031,0.257,0.054,0.283,0.184c0.028,0.128-0.054,0.256-0.184,0.283l-1.829,0.392
			l-1.676,0.517l-1.667,0.772l-1.559,0.78C41.533,24.474,41.496,24.482,41.459,24.482z"/>
	</g>
	<g>
		<path class="st1" d="M48.248,22.002c-0.083,0-0.162-0.043-0.207-0.12c-0.066-0.115-0.026-0.26,0.087-0.326L70.974,8.371
			c0.116-0.064,0.26-0.026,0.326,0.087c0.066,0.115,0.026,0.26-0.087,0.326L48.367,21.97C48.329,21.991,48.289,22.002,48.248,22.002
			z"/>
	</g>
	<g>
		<path class="st1" d="M71.485,8.817h-0.392c-0.132,0-0.239-0.107-0.239-0.239s0.107-0.239,0.239-0.239h0.292l0.061-0.061
			c0.045-0.045,0.106-0.07,0.169-0.07h0.596l0.211-0.105c0.033-0.017,0.07-0.025,0.107-0.025h0.13c0.132,0,0.239,0.107,0.239,0.239
			s-0.107,0.239-0.239,0.239h-0.074L72.375,8.66c-0.033,0.017-0.07,0.025-0.107,0.025h-0.553l-0.061,0.061
			C71.609,8.791,71.548,8.817,71.485,8.817z"/>
	</g>
	<g>
		<path class="st1" d="M75.01,132.184c-0.08,0-0.157-0.041-0.203-0.114l-1.697-2.741c-0.069-0.112-0.035-0.258,0.078-0.328
			c0.111-0.071,0.258-0.035,0.328,0.078l1.697,2.741c0.069,0.112,0.035,0.258-0.078,0.328
			C75.096,132.172,75.053,132.184,75.01,132.184z"/>
	</g>
	<g>
		<path class="st1" d="M29.449,53.333c-0.085,0-0.166-0.046-0.21-0.124l-1.566-2.872c-0.063-0.116-0.02-0.261,0.095-0.325
			c0.117-0.062,0.26-0.02,0.325,0.095l1.566,2.872c0.063,0.116,0.02,0.261-0.095,0.325C29.526,53.324,29.487,53.333,29.449,53.333z"
			/>
	</g>
	<g>
		<path class="st1" d="M34.931,14.3c-0.083,0-0.162-0.043-0.207-0.12c-0.066-0.115-0.026-0.26,0.087-0.326L57.658,0.668
			c0.116-0.064,0.26-0.027,0.326,0.087s0.026,0.26-0.087,0.326L35.051,14.268C35.013,14.289,34.972,14.3,34.931,14.3z"/>
	</g>
	<g>
		<path class="st1" d="M48.248,22.002c-0.041,0-0.082-0.011-0.12-0.032l-13.316-7.702c-0.115-0.066-0.154-0.213-0.087-0.326
			c0.068-0.115,0.212-0.152,0.326-0.087l13.316,7.702c0.115,0.066,0.154,0.213,0.087,0.326C48.41,21.959,48.33,22.002,48.248,22.002
			z"/>
	</g>
	<g>
		<path class="st1" d="M71.093,8.817c-0.041,0-0.082-0.011-0.12-0.032L57.658,1.082c-0.115-0.066-0.154-0.213-0.087-0.326
			c0.068-0.115,0.212-0.152,0.326-0.087l13.315,7.702c0.115,0.066,0.154,0.213,0.087,0.326C71.255,8.774,71.176,8.817,71.093,8.817z
			"/>
	</g>
	<g>
		<path class="st1" d="M30.623,26.571c-0.132,0-0.239-0.107-0.239-0.239v-9.79c0-0.132,0.107-0.239,0.239-0.239
			s0.239,0.107,0.239,0.239v9.79C30.862,26.464,30.755,26.571,30.623,26.571z"/>
	</g>
	<g>
		<path class="st1" d="M30.623,16.78c-0.132,0-0.239-0.107-0.239-0.239v-0.653l0.135-0.823c0.004-0.023,0.011-0.046,0.021-0.067
			l0.26-0.523c0.012-0.022,0.026-0.044,0.045-0.062l0.392-0.392l0.951-0.682c0.039-0.026,0.085-0.041,0.132-0.041h1.305
			c0.03,0,0.06,0.006,0.088,0.017l1.306,0.523c0.122,0.049,0.183,0.188,0.133,0.31c-0.049,0.122-0.187,0.184-0.31,0.133
			l-1.263-0.505h-1.187l-0.331,0.221l-0.512,0.385l-0.338,0.341l-0.227,0.457l-0.125,0.748l0.004,0.613
			C30.862,16.673,30.755,16.78,30.623,16.78z"/>
	</g>
	<g>
		<path class="st1" d="M31.798,30.618c-0.081,0-0.16-0.042-0.205-0.117l-0.392-0.653l-0.406-0.942l-0.27-0.942l-0.137-0.808
			l-0.004-0.824c0-0.132,0.107-0.239,0.239-0.239s0.239,0.107,0.239,0.239v0.784l0.127,0.743l0.255,0.888l0.382,0.885l0.377,0.625
			c0.068,0.113,0.031,0.259-0.083,0.327C31.882,30.608,31.84,30.618,31.798,30.618z"/>
	</g>
	<g>
		<path class="st1" d="M41.981,115.474c-0.061,0-0.122-0.023-0.169-0.07c-0.093-0.093-0.093-0.245,0-0.338l0.653-0.653l1.559-1.69
			l1.711-1.581c0.097-0.088,0.247-0.084,0.338,0.014c0.089,0.097,0.083,0.248-0.014,0.338l-1.697,1.567l-1.553,1.683l-0.66,0.66
			C42.103,115.45,42.042,115.474,41.981,115.474z"/>
	</g>
	<g>
		<path class="st1" d="M59.866,122.916c-0.036,0-0.073-0.009-0.108-0.026l-0.26-0.131l-1.715-1.054l-1.832-1.177l-1.704-1.18
			l-1.839-1.445l-1.703-1.441l-1.705-1.573l-1.704-1.704l-1.573-1.704c-0.089-0.097-0.083-0.249,0.014-0.338
			c0.097-0.088,0.247-0.084,0.338,0.014l1.566,1.697l1.691,1.691l1.691,1.559l1.689,1.429l1.821,1.431l1.686,1.166l1.821,1.17
			l1.936,1.164c0.118,0.059,0.165,0.202,0.105,0.321C60.037,122.867,59.953,122.916,59.866,122.916z"/>
	</g>
	<g>
		<path class="st1" d="M31.146,85.97c-0.103,0-0.198-0.068-0.229-0.172l-1.306-4.438l-0.526-2.365l-0.394-2.229l-0.525-4.32
			l-0.131-2.105l-0.001-2.364c0-0.132,0.107-0.239,0.239-0.239c0.132,0,0.239,0.107,0.239,0.239v2.349l0.129,2.074l0.522,4.295
			l0.39,2.206l0.52,2.34l1.302,4.423c0.037,0.126-0.035,0.258-0.162,0.296C31.191,85.967,31.168,85.97,31.146,85.97z"/>
	</g>
	<g>
		<path class="st1" d="M25.793,87.406c-0.118,0-0.22-0.086-0.236-0.205c-0.018-0.131,0.072-0.252,0.202-0.27l0.913-0.13l4.406-1.299
			c0.125-0.039,0.258,0.036,0.296,0.162c0.037,0.126-0.035,0.258-0.162,0.296l-4.439,1.306l-0.946,0.137
			C25.816,87.405,25.804,87.406,25.793,87.406z"/>
	</g>
	<g>
		<path class="st1" d="M41.72,113.777c-0.055,0-0.111-0.019-0.155-0.057c-0.1-0.086-0.112-0.237-0.026-0.337l0.783-0.914l0.94-0.809
			l1.057-0.793l1.185-0.79c0.11-0.073,0.257-0.044,0.33,0.066c0.074,0.11,0.044,0.257-0.066,0.33l-1.175,0.783l-1.034,0.776
			l-0.901,0.773l-0.757,0.888C41.854,113.749,41.787,113.777,41.72,113.777z"/>
	</g>
	<g>
		<path class="st1" d="M45.767,110.514h-0.131c-0.132,0-0.239-0.107-0.239-0.239s0.107-0.239,0.239-0.239h0.131
			c0.132,0,0.239,0.107,0.239,0.239S45.899,110.514,45.767,110.514z"/>
	</g>
	<g>
		<path class="st1" d="M50.597,116.257c-0.068,0-0.136-0.029-0.184-0.086l-1.306-1.566l-1.824-2.084l-1.702-2.095
			c-0.083-0.102-0.067-0.253,0.035-0.336c0.102-0.083,0.252-0.068,0.336,0.035l1.696,2.088l1.822,2.082l1.31,1.571
			c0.085,0.101,0.071,0.252-0.031,0.336C50.705,116.238,50.652,116.257,50.597,116.257z"/>
	</g>
	<g>
		<path class="st1" d="M32.059,86.753c-0.094,0-0.185-0.057-0.222-0.151l-1.045-2.611l-0.917-2.621l-0.654-1.961
			c-0.042-0.125,0.025-0.26,0.151-0.302c0.124-0.045,0.26,0.025,0.302,0.151l0.653,1.958l0.912,2.608l1.041,2.601
			c0.05,0.122-0.011,0.261-0.133,0.31C32.119,86.747,32.088,86.753,32.059,86.753z"/>
	</g>
	<g>
		<path class="st1" d="M32.059,86.753h-0.261c-0.132,0-0.239-0.107-0.239-0.239c0-0.132,0.107-0.239,0.239-0.239h0.261
			c0.132,0,0.239,0.107,0.239,0.239C32.298,86.646,32.191,86.753,32.059,86.753z"/>
	</g>
	<g>
		<path class="st1" d="M27.099,88.581c-0.105,0-0.201-0.069-0.23-0.175c-0.035-0.127,0.039-0.259,0.166-0.294l2.349-0.652
			l2.307-1.159c0.116-0.057,0.261-0.012,0.321,0.107c0.059,0.118,0.011,0.261-0.107,0.321l-2.349,1.176l-2.392,0.668
			C27.142,88.578,27.12,88.581,27.099,88.581z"/>
	</g>
	<g>
		<path class="st1" d="M73.443,135.97h-0.131l-1.862-0.263l-1.843-0.394l-1.97-0.526l-1.189-0.395
			c-0.124-0.042-0.192-0.177-0.151-0.302c0.041-0.125,0.176-0.194,0.302-0.151l1.175,0.392l1.943,0.519l1.816,0.389l1.812,0.257
			l0.097-0.003c0.132,0,0.239,0.107,0.239,0.239S73.576,135.97,73.443,135.97z"/>
	</g>
	<g>
		<path class="st1" d="M21.615,57.511c-0.016,0-0.031-0.002-0.047-0.005c-0.129-0.026-0.214-0.152-0.188-0.281l0.784-3.916
			l0.662-1.862l0.655-1.702c0.047-0.123,0.185-0.188,0.308-0.137c0.123,0.047,0.185,0.186,0.137,0.308l-0.653,1.697l-0.65,1.823
			l-0.774,3.882C21.827,57.432,21.727,57.511,21.615,57.511z"/>
	</g>
	<g>
		<path class="st1" d="M41.589,114.038c-0.067,0-0.134-0.028-0.182-0.084c-0.086-0.1-0.074-0.251,0.026-0.337l0.914-0.783
			c0.099-0.085,0.25-0.075,0.337,0.026c0.086,0.1,0.074,0.251-0.026,0.337l-0.914,0.783C41.7,114.018,41.645,114.038,41.589,114.038
			z"/>
	</g>
	<g>
		<path class="st1" d="M42.634,113.385c-0.061,0-0.122-0.023-0.169-0.07l-0.13-0.13c-0.093-0.093-0.093-0.245,0-0.338
			s0.245-0.093,0.338,0l0.13,0.13c0.093,0.093,0.093,0.245,0,0.338C42.756,113.361,42.695,113.385,42.634,113.385z"/>
	</g>
	<g>
		<path class="st1" d="M26.838,88.451c-0.1,0-0.193-0.063-0.226-0.163c-0.042-0.125,0.026-0.26,0.151-0.302l1.175-0.392
			c0.124-0.046,0.26,0.025,0.302,0.151c0.042,0.125-0.026,0.26-0.151,0.302l-1.175,0.392C26.888,88.447,26.863,88.451,26.838,88.451
			z"/>
	</g>
	<g>
		<path class="st1" d="M28.012,88.059c-0.061,0-0.122-0.023-0.169-0.07l-0.13-0.13c-0.093-0.093-0.093-0.245,0-0.338
			s0.245-0.093,0.338,0l0.13,0.13c0.093,0.093,0.093,0.245,0,0.338C28.135,88.036,28.074,88.059,28.012,88.059z"/>
	</g>
	<g>
		<path class="st1" d="M57.778,1.114c-0.029,0-0.059-0.006-0.088-0.017l-1.263-0.505h-1.204l-0.471,0.236
			c-0.117,0.055-0.262,0.011-0.321-0.107C54.371,0.603,54.42,0.46,54.537,0.4l0.522-0.261c0.033-0.017,0.07-0.025,0.107-0.025h1.306
			c0.03,0,0.06,0.006,0.088,0.017l1.306,0.523c0.122,0.049,0.183,0.188,0.133,0.31C57.962,1.057,57.872,1.114,57.778,1.114z"/>
	</g>
	<g>
		<path class="st1" d="M45.767,110.514c-0.081,0-0.159-0.041-0.204-0.115c-0.068-0.113-0.033-0.259,0.08-0.328l3.002-1.828
			c0.113-0.067,0.26-0.033,0.328,0.08c0.068,0.113,0.033,0.259-0.08,0.328l-3.002,1.828
			C45.853,110.502,45.81,110.514,45.767,110.514z"/>
	</g>
	<g>
		<path class="st1" d="M61.955,122.524c-0.061,0-0.122-0.023-0.169-0.07l-0.261-0.261l-3.903-3.382l-1.84-1.839l-1.833-1.965
			l-3.66-4.183l-1.707-2.232c-0.081-0.104-0.06-0.255,0.045-0.334c0.103-0.081,0.255-0.061,0.334,0.045l1.697,2.219l3.646,4.164
			l1.823,1.953l1.822,1.822l4.177,3.655c0.093,0.093,0.093,0.245,0,0.338C62.077,122.501,62.016,122.524,61.955,122.524z"/>
	</g>
	<g>
		<path class="st1" d="M89.501,134.273h-2.219l-3.819-0.525l-1.861-0.53l-1.954-0.522l-1.986-0.792l-2.083-0.781l-1.714-0.79
			c-0.12-0.055-0.172-0.197-0.117-0.317c0.054-0.12,0.199-0.174,0.317-0.117l1.697,0.783l2.072,0.776l1.964,0.785l1.931,0.514
			l1.832,0.523l3.755,0.516l2.185-0.003c0.132,0,0.239,0.107,0.239,0.239S89.633,134.273,89.501,134.273z"/>
	</g>
	<g>
		<path class="st1" d="M28.927,52.419c-0.005,0-0.011,0-0.016-0.001c-0.132-0.009-0.231-0.122-0.223-0.254l0.13-1.958l0.262-2.232
			l0.394-2.105l0.527-1.975l0.524-1.833l0.657-1.842l0.791-1.717l1.047-1.965c0.059-0.119,0.203-0.164,0.321-0.107
			c0.118,0.059,0.166,0.203,0.107,0.321l-0.13,0.26l-0.918,1.704l-0.776,1.684l-0.644,1.808l-0.518,1.813l-0.521,1.953l-0.387,2.072
			l-0.259,2.204l-0.129,1.945C29.157,52.322,29.052,52.419,28.927,52.419z"/>
	</g>
	<g>
		<path class="st1" d="M35.062,84.925c-0.094,0-0.185-0.057-0.222-0.151l-1.045-2.611l-0.916-2.486l-0.915-2.615l-0.786-2.621
			l-0.655-2.621l-1.047-5.103l-0.005-0.308c0-0.132,0.107-0.239,0.239-0.239s0.239,0.107,0.239,0.239v0.261l1.039,5.042l0.65,2.602
			l0.78,2.6l0.911,2.601l0.912,2.477l1.042,2.605c0.05,0.122-0.011,0.261-0.133,0.31C35.121,84.92,35.091,84.925,35.062,84.925z"/>
	</g>
	<g>
		<path class="st1" d="M32.059,86.753c-0.081,0-0.159-0.041-0.204-0.115c-0.068-0.113-0.033-0.259,0.08-0.328l3.002-1.828
			c0.112-0.067,0.26-0.034,0.328,0.08c0.068,0.113,0.033,0.259-0.08,0.328l-3.002,1.828C32.145,86.741,32.102,86.753,32.059,86.753z
			"/>
	</g>
	<g>
		<path class="st1" d="M48.77,108.686c-0.083,0-0.163-0.044-0.207-0.12c-0.066-0.115-0.026-0.26,0.088-0.326l19.843-11.358
			c0.113-0.063,0.26-0.025,0.326,0.088c0.066,0.115,0.026,0.26-0.088,0.326l-19.843,11.358
			C48.851,108.675,48.81,108.686,48.77,108.686z"/>
	</g>
	<g>
		<path class="st1" d="M94.461,114.821c-0.036,0-0.073-0.009-0.107-0.025l-0.783-0.392l-2.117-1.453l-1.832-1.308
			c-0.107-0.077-0.132-0.225-0.055-0.333c0.078-0.108,0.227-0.132,0.333-0.055l1.828,1.305l2.085,1.433l0.755,0.375
			c0.118,0.059,0.166,0.203,0.107,0.321C94.633,114.772,94.549,114.821,94.461,114.821z"/>
	</g>
	<g>
		<path class="st1" d="M34.148,85.448c-0.083,0-0.162-0.043-0.207-0.12c-0.066-0.114-0.027-0.26,0.087-0.326l20.757-12.01
			c0.115-0.064,0.26-0.027,0.326,0.087c0.066,0.114,0.027,0.26-0.087,0.326l-20.757,12.01C34.23,85.437,34.189,85.448,34.148,85.448
			z"/>
	</g>
	<g>
		<path class="st1" d="M52.947,47.981c-0.12,0-0.223-0.09-0.237-0.213l-0.26-2.349l-0.132-2.363l-0.001-0.927
			c0-0.132,0.107-0.239,0.239-0.239c0.132,0,0.239,0.107,0.239,0.239v0.913l0.13,2.337l0.259,2.337
			c0.015,0.131-0.08,0.249-0.211,0.263C52.964,47.98,52.955,47.981,52.947,47.981z"/>
	</g>
	<g>
		<path class="st1" d="M42.895,112.21h-0.131c-0.132,0-0.239-0.107-0.239-0.239s0.107-0.239,0.239-0.239h0.032l0.06-0.06
			c0.018-0.018,0.04-0.033,0.062-0.045l0.226-0.113l0.103-0.103c0.017-0.018,0.039-0.034,0.062-0.046l0.749-0.374l0.104-0.103
			c0.093-0.093,0.244-0.094,0.337,0.001c0.093,0.093,0.092,0.245-0.001,0.337l-0.131,0.13c-0.017,0.018-0.039,0.033-0.061,0.045
			l-0.748,0.374l-0.103,0.103c-0.017,0.018-0.039,0.034-0.062,0.046l-0.227,0.113l-0.102,0.103
			C43.019,112.185,42.958,112.21,42.895,112.21z"/>
	</g>
	<g>
		<path class="st1" d="M44.331,111.297c-0.081,0-0.16-0.042-0.205-0.117c-0.068-0.113-0.031-0.259,0.083-0.327l1.305-0.783
			c0.111-0.066,0.259-0.031,0.327,0.083c0.068,0.113,0.031,0.259-0.083,0.327l-1.305,0.783
			C44.416,111.285,44.373,111.297,44.331,111.297z"/>
	</g>
	<g>
		<path class="st1" d="M41.72,113.777c-0.077,0-0.153-0.038-0.198-0.107c-0.074-0.109-0.044-0.257,0.066-0.33l0.783-0.523
			c0.106-0.073,0.257-0.044,0.33,0.066c0.074,0.109,0.044,0.257-0.066,0.33l-0.783,0.523
			C41.813,113.764,41.766,113.777,41.72,113.777z"/>
	</g>
	<g>
		<path class="st1" d="M41.589,114.038c-0.083,0-0.162-0.043-0.207-0.12c-0.066-0.115-0.026-0.26,0.087-0.326l4.308-2.481
			c0.115-0.064,0.261-0.027,0.326,0.087c0.066,0.115,0.026,0.26-0.087,0.326l-4.308,2.481
			C41.671,114.027,41.63,114.038,41.589,114.038z"/>
	</g>
	<g>
		<path class="st1" d="M30.623,87.537c-0.077,0-0.153-0.038-0.198-0.107c-0.074-0.109-0.044-0.257,0.066-0.33l1.175-0.784
			c0.107-0.073,0.257-0.044,0.33,0.066c0.074,0.109,0.044,0.257-0.066,0.33l-1.175,0.784C30.716,87.524,30.669,87.537,30.623,87.537
			z"/>
	</g>
	<g>
		<path class="st1" d="M29.187,88.32h-0.13c-0.132,0-0.239-0.107-0.239-0.239s0.107-0.239,0.239-0.239h0.031l0.061-0.061
			c0.045-0.045,0.106-0.07,0.169-0.07h0.031l0.06-0.06c0.018-0.018,0.04-0.033,0.062-0.045l1.045-0.522
			c0.116-0.057,0.261-0.012,0.321,0.107s0.011,0.261-0.107,0.321l-1.011,0.504l-0.102,0.103c-0.045,0.045-0.106,0.07-0.169,0.07
			h-0.031l-0.061,0.061C29.312,88.295,29.25,88.32,29.187,88.32z"/>
	</g>
	<g>
		<path class="st1" d="M27.099,88.581c-0.083,0-0.163-0.044-0.207-0.12c-0.066-0.115-0.026-0.26,0.088-0.326l0.913-0.522
			c0.115-0.064,0.26-0.026,0.326,0.088c0.066,0.115,0.026,0.26-0.088,0.326l-0.913,0.522C27.18,88.57,27.14,88.581,27.099,88.581z"
			/>
	</g>
	<g>
		<path class="st1" d="M26.838,88.451c-0.083,0-0.162-0.043-0.207-0.12c-0.066-0.115-0.026-0.26,0.087-0.326l4.308-2.481
			c0.116-0.064,0.261-0.026,0.326,0.087c0.066,0.115,0.026,0.26-0.087,0.326l-4.308,2.481C26.919,88.44,26.879,88.451,26.838,88.451
			z"/>
	</g>
	<g>
		<path class="st1" d="M44.331,111.297c-0.073,0-0.146-0.034-0.192-0.097l-1.828-2.481l-1.702-2.487l-1.7-2.616l-3.137-5.229
			l-2.879-5.495l-1.31-2.75l-1.179-2.75c-0.051-0.121,0.004-0.261,0.125-0.314c0.123-0.051,0.262,0.005,0.314,0.125l1.175,2.741
			l1.302,2.733l2.868,5.475l3.126,5.21l1.693,2.603l1.695,2.476l1.823,2.474c0.078,0.107,0.055,0.256-0.051,0.334
			C44.43,111.281,44.381,111.297,44.331,111.297z"/>
	</g>
	<g>
		<path class="st1" d="M30.623,87.537c-0.082,0-0.162-0.043-0.207-0.12c-0.066-0.114-0.027-0.259,0.087-0.326l24.282-14.099
			c0.11-0.064,0.258-0.028,0.326,0.087c0.066,0.114,0.027,0.259-0.087,0.326l-24.282,14.1
			C30.706,87.526,30.664,87.537,30.623,87.537z"/>
	</g>
	<g>
		<path class="st1" d="M34.148,85.448c-0.083,0-0.163-0.044-0.207-0.12c-0.066-0.115-0.026-0.26,0.088-0.326l0.913-0.523
			c0.113-0.064,0.26-0.026,0.326,0.088c0.066,0.115,0.026,0.26-0.088,0.326l-0.913,0.523C34.23,85.437,34.189,85.448,34.148,85.448z
			"/>
	</g>
</g>
</svg>
