<?xml version="1.0" encoding="utf-8"?>
<!-- Generator: Adobe Illustrator 19.0.0, SVG Export Plug-In . SVG Version: 6.00 Build 0)  -->
<svg version="1.1" id="ClearLenses" xmlns="http://www.w3.org/2000/svg" xmlns:xlink="http://www.w3.org/1999/xlink" x="0px"
	 y="0px" viewBox="0 0 140 140" style="enable-background:new 0 0 140 140;" xml:space="preserve">
<style type="text/css">
	.st0{opacity:0.2;}
	.st1{fill:#939598;}
</style>
<g class="st0">
	<g>
		<path class="st1" d="M49.381,97.047c-0.045-0.045-0.074-0.108-0.074-0.177l0-0.354l-1.058-5.266l-0.346-1.034l-0.362-1.802
			l-0.005-1.111l-0.172-0.838l-0.006-1.82l-0.35-1.722l-0.004-1.113l-0.173-0.836c-0.007-0.033-0.006-0.067,0-0.099L47,80.036
			L46.831,79.2l-0.005-1.112l0.173-0.885l-0.168-0.837l-0.005-1.113l0.183-0.936l-0.006-2.786l0.359-1.821l-0.005-1.014l0.359-1.821
			l-0.005-1.013l1.246-6.251l0.362-1.093l0.524-2.628l0.362-1.093l0.354-0.712l0.171-0.853l0.362-1.093l0.353-0.711l0.171-0.853
			c0.005-0.028,0.016-0.055,0.03-0.079l0.51-0.85l0.169-0.844c0.005-0.028,0.016-0.055,0.03-0.079l0.509-0.849l0.169-0.844
			c0.005-0.028,0.016-0.055,0.03-0.079l0.532-0.886l0.345-0.692l0.341-1.031L54.65,43.6l0.54-0.903l0.345-0.691l0.54-0.903
			l0.345-0.691l1.072-1.789l0.346-0.693l1.072-1.789l0.345-0.691c0.012-0.024,0.028-0.047,0.047-0.066l0.709-0.709l0.494-0.837
			l0.345-0.691c0.012-0.024,0.028-0.047,0.047-0.066l0.709-0.709l0.494-0.837l0.569-0.58l0.494-0.837l0.717-0.727l0.336-0.673
			c0.012-0.024,0.028-0.047,0.047-0.066l1.417-1.417l0.494-0.837l5.885-5.896l0.934-0.57l1.901-1.912l0.935-0.569l0.66-0.671
			c0.019-0.019,0.041-0.035,0.066-0.047l0.672-0.336l0.68-0.68l0.935-0.569l0.689-0.346l0.68-0.68l0.935-0.569l0.689-0.345
			l0.68-0.68l0.935-0.569l0.725-0.363l1.755-1.054l0.726-0.364l0.869-0.523l0.726-0.363l1.096-0.368l0.676-0.341l0.869-0.522
			l0.726-0.364l1.096-0.368l0.676-0.34l0.869-0.523c0.025-0.014,0.052-0.025,0.079-0.03l0.844-0.168l0.849-0.51
			c0.025-0.014,0.052-0.025,0.079-0.03l0.854-0.171l0.679-0.339l1.096-0.368l1.801-0.362c0.136-0.027,0.268,0.062,0.295,0.197
			c0.027,0.136-0.06,0.267-0.196,0.294l-1.771,0.354l-1.033,0.347l-0.676,0.34c-0.019,0.009-0.041,0.017-0.062,0.021l-0.844,0.169
			l-0.849,0.51c-0.025,0.014-0.052,0.025-0.079,0.03l-0.844,0.168l-0.849,0.51l-0.726,0.363l-1.096,0.368l-0.677,0.341L90.264,9.02
			l-0.725,0.363l-1.096,0.368l-0.676,0.34l-0.869,0.523l-0.726,0.364l-1.755,1.054l-0.725,0.363l-0.869,0.522l-0.66,0.671
			c-0.019,0.019-0.041,0.035-0.066,0.047l-0.708,0.354l-0.869,0.522l-0.66,0.671c-0.019,0.019-0.041,0.035-0.066,0.047l-0.709,0.355
			l-0.869,0.522l-0.66,0.671c-0.019,0.019-0.041,0.035-0.066,0.047l-0.672,0.336l-0.68,0.68l-0.935,0.569l-1.901,1.912l-0.934,0.57
			l-5.799,5.809l-0.494,0.837l-1.426,1.437l-0.336,0.672c-0.012,0.024-0.028,0.047-0.047,0.066l-0.709,0.709l-0.494,0.837
			l-0.569,0.58L62,32.677l-0.718,0.728l-0.337,0.673l-0.54,0.903l-0.717,0.727l-0.337,0.673l-1.072,1.789l-0.346,0.693l-1.072,1.789
			l-0.345,0.691l-0.54,0.903l-0.345,0.691l-0.54,0.903l-0.346,0.692l-0.341,1.031l-0.368,0.741l-0.519,0.866l-0.169,0.844
			c-0.005,0.028-0.016,0.055-0.03,0.079l-0.509,0.849l-0.169,0.844c-0.005,0.028-0.016,0.055-0.03,0.079l-0.51,0.85l-0.169,0.844
			c-0.004,0.022-0.012,0.043-0.021,0.062l-0.354,0.708l-0.341,1.031l-0.169,0.856c-0.004,0.022-0.012,0.043-0.021,0.062
			l-0.355,0.709l-0.341,1.031l-0.524,2.628l-0.362,1.093l-1.233,6.172l0.005,1.013l-0.359,1.821l0.005,1.014L47.5,71.58l0.005,2.786
			l-0.183,0.936l0.005,1.013l0.173,0.836c0.007,0.033,0.006,0.067,0,0.099l-0.178,0.886l0.005,1.013l0.173,0.836
			c0.007,0.033,0.006,0.067,0,0.099l-0.168,0.837l0.168,0.836l0.004,1.113l0.349,1.723l0.006,1.82l0.172,0.838l0.005,1.111
			l0.35,1.723l0.346,1.034l1.071,5.347l0.005,0.403c0,0.138-0.113,0.251-0.251,0.251C49.488,97.12,49.426,97.092,49.381,97.047z"/>
	</g>
	<g>
		<path class="st1" d="M67.277,129.119l-2.304-2.304l-0.569-0.935l-1.38-1.368c-0.019-0.019-0.035-0.04-0.046-0.065l-0.338-0.673
			l-0.68-0.68l-0.568-0.934l-0.346-0.689l-0.68-0.68l-0.569-0.935l-0.364-0.726l-0.522-0.868l-0.672-0.66
			c-0.019-0.019-0.034-0.041-0.047-0.066l-0.354-0.709l-0.522-0.869l-0.364-0.726l-1.054-1.755l-0.364-0.726l-0.368-1.095
			l-0.34-0.676l-0.522-0.869l-0.364-0.726l-0.368-1.095l-0.341-0.677l-0.522-0.869c-0.016-0.024-0.026-0.052-0.032-0.079
			l-0.168-0.843l-0.509-0.849c-0.016-0.024-0.026-0.052-0.031-0.079l-0.171-0.853l-0.339-0.679l-0.368-1.096l-0.178-0.882
			l-0.34-0.68l-0.368-1.096l-0.356-1.769l-0.339-0.678c-0.062-0.124-0.012-0.274,0.112-0.336c0.123-0.061,0.276-0.013,0.336,0.112
			l0.355,0.708c0.01,0.02,0.018,0.041,0.022,0.063l0.355,1.771l0.346,1.034l0.341,0.677c0.01,0.02,0.017,0.04,0.022,0.062
			l0.177,0.885l0.346,1.034l0.34,0.676c0.01,0.02,0.017,0.04,0.022,0.062l0.169,0.844l0.509,0.849
			c0.016,0.024,0.026,0.052,0.032,0.079l0.168,0.843l0.509,0.849l0.364,0.726l0.368,1.095l0.341,0.677l0.522,0.869l0.364,0.726
			l0.368,1.095l0.341,0.677l1.054,1.755l0.364,0.726l0.522,0.869l0.346,0.689l0.68,0.68l0.569,0.934l0.364,0.726l0.522,0.869
			l0.672,0.66c0.019,0.019,0.034,0.041,0.047,0.066l0.354,0.709l0.522,0.869l0.671,0.66c0.019,0.019,0.035,0.04,0.046,0.065
			l0.338,0.673l1.389,1.389l0.569,0.935l2.266,2.255c0.098,0.098,0.098,0.257,0,0.355C67.534,129.217,67.376,129.217,67.277,129.119
			z"/>
	</g>
	<g>
		<path class="st1" d="M99.349,2.072c-0.029-0.029-0.052-0.066-0.064-0.109c-0.038-0.133,0.039-0.272,0.172-0.31l2.481-0.709
			l3.397-0.538l3.392-0.18l3.582,0.355l1.454,0.36c0.134,0.033,0.216,0.169,0.182,0.305c-0.034,0.134-0.169,0.216-0.304,0.182
			l-1.417-0.355l-3.508-0.349l-3.328,0.178l-3.341,0.53l-2.451,0.702C99.505,2.161,99.411,2.134,99.349,2.072z"/>
	</g>
	<g>
		<path class="st1" d="M70.998,133.549c-0.084-0.084-0.099-0.218-0.029-0.32c0.079-0.114,0.234-0.142,0.349-0.063l2.304,1.595
			c0.117,0.088,0.141,0.235,0.063,0.349c-0.079,0.114-0.234,0.142-0.349,0.063l-2.304-1.595
			C71.02,133.568,71.008,133.559,70.998,133.549z"/>
	</g>
	<g>
		<path class="st1" d="M106.968,2.957c-0.045-0.045-0.074-0.108-0.074-0.177c0-0.138,0.113-0.251,0.251-0.251l2.835,0
			c0.138,0,0.251,0.112,0.251,0.251c0,0.138-0.113,0.251-0.251,0.251l-2.835,0C107.076,3.031,107.014,3.003,106.968,2.957z"/>
	</g>
	<g>
		<path class="st1" d="M100.412,4.907c-0.031-0.031-0.054-0.071-0.066-0.116c-0.034-0.134,0.048-0.27,0.182-0.304l2.835-0.709
			l3.388-0.537l3.393-0.179l3.419,0.534l0.896,0.179c0.136,0.026,0.224,0.159,0.197,0.295c-0.027,0.136-0.159,0.224-0.294,0.196
			l-0.886-0.177l-3.357-0.529l-3.314,0.18l-3.341,0.529l-2.813,0.704C100.562,4.995,100.472,4.968,100.412,4.907z"/>
	</g>
	<g>
		<path class="st1" d="M67.1,129.296c-0.098-0.098-0.098-0.257,0-0.355s0.257-0.098,0.355,0l1.771,1.771l2.808,2.103l2.818,1.761
			l4.219,1.754c0.128,0.056,0.186,0.203,0.131,0.329c-0.054,0.128-0.202,0.186-0.329,0.131l-1.24-0.532l-3.009-1.238l-2.872-1.792
			l-2.853-2.138L67.1,129.296z"/>
	</g>
	<g>
		<path class="st1" d="M110.689,126.46c-0.098-0.098-0.098-0.257,0-0.355l3.366-3.366l3.173-3.88l3.005-4.066l2.644-4.409
			l5.312-9.561l2.294-5.121l1.763-5.291l1.95-5.498l1.591-5.479l1.236-5.478l1.061-5.661l0.707-5.655l0.531-5.487l0.177-5.476
			l-0.001-5.307l-0.53-5.113l-0.708-4.951l-0.885-4.774l-1.06-4.597l-1.411-4.229l-1.762-3.875l-1.944-3.707l-2.112-3.167
			l-2.461-2.81l-2.469-2.468l-2.808-2.103l-2.98-1.574l-4.746-1.578c-0.131-0.047-0.202-0.186-0.159-0.317
			c0.044-0.132,0.186-0.202,0.317-0.159l4.784,1.594l3.05,1.611l2.868,2.147l2.508,2.504l2.492,2.848l2.146,3.216l1.964,3.743
			l1.778,3.912l1.427,4.277l1.069,4.631l0.889,4.794l0.711,4.972l0.533,5.149L140,51.685l-0.178,5.5l-0.532,5.51l-0.709,5.677
			l-1.066,5.686l-1.242,5.502l-1.599,5.507l-1.952,5.507l-1.771,5.311l-2.313,5.162l-5.326,9.587l-2.661,4.436l-3.026,4.097
			l-3.197,3.908l-3.383,3.384C110.946,126.558,110.787,126.558,110.689,126.46z"/>
	</g>
	<g>
		<path class="st1" d="M80.39,14.652c-0.098-0.098-0.098-0.257,0-0.355l3.898-3.898l3.389-2.677l7.114-4.272l3.579-1.435
			l1.077-0.359c0.131-0.043,0.272,0.03,0.317,0.159c0.044,0.132-0.028,0.274-0.159,0.317l-1.063,0.354l-3.53,1.412L87.96,8.135
			l-3.34,2.64l-3.875,3.878C80.647,14.75,80.488,14.75,80.39,14.652z"/>
	</g>
	<g>
		<path class="st1" d="M64.988,131.435l-2.34-3.051l-2.135-3.202l-2.133-3.555l-1.614-4.113l-2.308-6.922
			c-0.044-0.132,0.028-0.274,0.159-0.317c0.132-0.043,0.271,0.028,0.317,0.159l2.303,6.91l1.59,4.063l2.108,3.507l2.12,3.178
			l2.295,3l2.622,2.265l2.821,2.116l2.818,1.76l3.136,1.038l3.164,0.702l3.352,0.528l3.314-0.179l3.508-0.704l3.521-1.058
			l3.523-1.412l3.335-1.932l3.541-2.125l3.516-2.816l3.169-3.172c0.098-0.098,0.257-0.098,0.355,0c0.098,0.098,0.098,0.257,0,0.355
			l-3.19,3.19l-3.565,2.854l-3.572,2.146l-3.37,1.95l-3.576,1.435l-3.565,1.07l-3.567,0.715L83.239,140l-3.42-0.534l-3.205-0.712
			l-3.214-1.07l-2.889-1.797l-2.852-2.138L64.988,131.435z"/>
	</g>
	<g>
		<path class="st1" d="M73.302,135.143c-0.045-0.045-0.073-0.107-0.073-0.177c-0.001-0.139,0.111-0.251,0.249-0.251l0.354-0.001
			c0.033,0,0.066,0.006,0.096,0.018l3.012,1.24l2.988,0.878l3.498,0.345l3.165-0.001l3.327-0.528l3.511-1.055l3.524-1.411
			l3.334-1.932l3.35-2.294l3.354-2.647l3.356-3.002c0.1-0.089,0.25-0.084,0.344,0.009c0.003,0.003,0.006,0.006,0.009,0.011
			c0.092,0.102,0.084,0.261-0.02,0.353l-3.367,3.012l-3.379,2.668l-3.379,2.314l-3.383,1.958l-3.577,1.434l-3.565,1.07l-3.399,0.54
			l-3.229,0.003l-3.568-0.355l-3.058-0.895l-2.991-1.23H73.48C73.41,135.217,73.348,135.189,73.302,135.143z"/>
	</g>
	<g>
		<path class="st1" d="M65.683,128.941l-2.492-2.848l-1.977-3.406l-2.124-3.54c-0.024-0.039-0.036-0.084-0.036-0.129v-0.355
			c0-0.138,0.112-0.251,0.251-0.251s0.251,0.112,0.251,0.251l0,0.285l2.09,3.485l1.951,3.37l2.453,2.796l2.47,2.469l2.396,2.053
			l0.262,0.001c0.138,0,0.251,0.111,0.249,0.251c0,0.138-0.112,0.25-0.251,0.249l-0.354-0.001c-0.059,0-0.118-0.021-0.162-0.06
			l-2.48-2.126L65.683,128.941z"/>
	</g>
	<g>
		<path class="st1" d="M88.363,9.869c-0.009-0.009-0.016-0.018-0.023-0.028c-0.083-0.11-0.061-0.267,0.05-0.351l1.417-1.063
			l3.392-1.965l3.558-1.779l3.392-1.251l3.581-0.719l3.403-0.182c0.138-0.007,0.256,0.099,0.264,0.236
			c0.007,0.138-0.099,0.256-0.237,0.263l-3.367,0.178l-3.508,0.704l-3.33,1.23l-3.518,1.761l-3.353,1.942l-1.393,1.047
			C88.59,9.967,88.45,9.955,88.363,9.869z"/>
	</g>
	<g>
		<path class="st1" d="M110.335,124.689c-0.094-0.094-0.099-0.244-0.009-0.344l6.38-7.09l2.633-4.043l2.836-4.255l2.647-4.767
			l2.297-4.772l2.301-5.133l1.944-5.125l1.769-5.306l1.592-5.484l1.236-5.478l1.063-5.309l1.059-10.961l-0.001-10.607l-0.354-4.944
			l-1.769-9.54l-2.826-8.472l-1.587-3.701l-2.111-3.514l-2.288-2.989l-2.294-2.646l-2.632-2.279l-2.804-1.748l-2.815-1.406
			l-3.156-1.049l-3.165-0.702l-0.3,0.006c-0.138,0-0.251-0.112-0.251-0.251c0-0.138,0.113-0.251,0.251-0.251l0.354,0l3.244,0.715
			l3.214,1.07l2.868,1.432l2.856,1.783l2.689,2.327l2.33,2.683l2.313,3.024l2.142,3.568l1.611,3.751l2.842,8.525l1.781,9.601
			l0.358,4.99l0.001,10.65l-1.065,11.01l-1.068,5.34l-1.241,5.499l-1.598,5.508l-1.774,5.325l-1.953,5.149l-2.309,5.153l-2.306,4.79
			l-2.664,4.797l-2.846,4.27l-2.656,4.072l-6.402,7.118c-0.092,0.104-0.251,0.112-0.353,0.02
			C110.342,124.695,110.338,124.692,110.335,124.689z"/>
	</g>
	<g>
		<path class="st1" d="M91.907,8.097c-0.018-0.018-0.035-0.04-0.047-0.065c-0.062-0.124-0.012-0.274,0.112-0.336l3.544-1.772
			l3.562-1.426l3.396-0.896l3.392-0.538l3.392-0.178l3.42,0.533l3.204,0.712l2.893,1.438l3.017,1.597l2.705,2.336l2.848,2.847
			c0.098,0.098,0.098,0.257,0,0.355c-0.098,0.098-0.257,0.098-0.355,0l-2.835-2.835l-2.645-2.291l-2.965-1.562l-2.83-1.415
			l-3.131-0.689l-3.353-0.528l-3.314,0.179l-3.341,0.53l-3.341,0.881L95.721,6.38l-3.526,1.764
			C92.097,8.193,91.981,8.171,91.907,8.097z"/>
	</g>
	<g>
		<path class="st1" d="M68.014,130.913l-2.343-2.694l-2.314-3.025l-2.135-3.202c-0.077-0.116-0.046-0.271,0.069-0.348
			c0.115-0.076,0.273-0.042,0.348,0.069l2.127,3.189l2.294,2.999l2.293,2.645l2.796,2.091l2.818,1.761l2.975,1.22l2.988,0.877
			l3.335,0.524l3.314-0.18l3.341-0.529l3.512-1.055c0.022-0.007,0.047-0.011,0.071-0.01l0.354-0.001
			c0.14-0.001,0.251,0.111,0.251,0.249c0.001,0.139-0.111,0.251-0.249,0.251l-0.318,0.001l-3.51,1.053l-3.399,0.539l-3.392,0.18
			l-3.419-0.534l-3.044-0.893l-3.037-1.249l-2.872-1.792L68.014,130.913z"/>
	</g>
	<g>
		<path class="st1" d="M110.158,124.866c-0.098-0.098-0.098-0.257,0-0.355l0.355-0.355c0.098-0.098,0.257-0.098,0.355,0
			c0.098,0.098,0.098,0.257,0,0.355l-0.355,0.355C110.415,124.964,110.256,124.964,110.158,124.866z"/>
	</g>
</g>
</svg>
